<svg width="559" height="253" viewBox="0 0 559 253" fill="none" xmlns="http://www.w3.org/2000/svg">
<rect width="559" height="253" fill="white"/>
<g opacity="0.8">
<rect opacity="0.6" x="18" y="90" width="59" height="41" fill="url(#paint0_linear_1_2)"/>
<path opacity="0.5" d="M20.0703 100.523C15.8901 96.8785 18.4674 90 24.013 90H71.0244C76.5029 90 79.1156 96.7389 75.0689 100.432L52.1007 121.392C49.8482 123.448 46.4121 123.487 44.1134 121.483L20.0703 100.523Z" fill="url(#paint1_linear_1_2)"/>
<path d="M33 112L19 127" stroke="#BB89E9" stroke-linecap="round"/>
<path d="M62 112L76 127" stroke="#BB89E9" stroke-linecap="round"/>
</g>
<path d="M47.7315 114.19C46.2211 114.19 44.8764 113.984 43.6974 113.572C42.5185 113.165 41.5218 112.566 40.7074 111.776C39.893 110.99 39.2727 110.028 38.8466 108.892C38.4205 107.756 38.2074 106.463 38.2074 105.014C38.2074 103.584 38.4205 102.287 38.8466 101.122C39.2775 99.9574 39.9048 98.9583 40.7287 98.125C41.5526 97.2869 42.5587 96.643 43.7472 96.1932C44.9403 95.7434 46.2992 95.5185 47.8239 95.5185C49.2348 95.5185 50.4943 95.7244 51.6023 96.1364C52.715 96.5483 53.6572 97.1354 54.429 97.8977C55.2055 98.6553 55.795 99.5573 56.1974 100.604C56.6046 101.645 56.8059 102.798 56.8011 104.062C56.8059 104.934 56.7301 105.734 56.5739 106.463C56.4176 107.192 56.1714 107.829 55.8352 108.374C55.5038 108.913 55.0682 109.342 54.5284 109.659C53.9886 109.972 53.3352 110.149 52.5682 110.192C52.0189 110.234 51.5739 110.194 51.233 110.071C50.892 109.948 50.6316 109.766 50.4517 109.524C50.2765 109.278 50.1629 108.991 50.1108 108.665H50.0256C49.9119 108.949 49.6894 109.207 49.358 109.439C49.0265 109.666 48.6217 109.844 48.1435 109.972C47.67 110.095 47.1657 110.14 46.6307 110.107C46.072 110.073 45.5417 109.943 45.0398 109.716C44.5426 109.489 44.0999 109.16 43.7116 108.729C43.3281 108.298 43.0251 107.765 42.8026 107.131C42.5848 106.496 42.4735 105.762 42.4688 104.929C42.4735 104.105 42.5895 103.388 42.8168 102.777C43.0488 102.166 43.3542 101.652 43.733 101.236C44.1165 100.819 44.5426 100.492 45.0114 100.256C45.4801 100.019 45.9512 99.8674 46.4247 99.8011C46.9598 99.7206 47.4664 99.7206 47.9446 99.8011C48.4228 99.8816 48.8253 100.012 49.152 100.192C49.4834 100.372 49.6894 100.566 49.7699 100.774H49.8693V99.9787H52.0923V106.911C52.0971 107.237 52.1705 107.491 52.3125 107.67C52.4545 107.85 52.6463 107.94 52.8878 107.94C53.2145 107.94 53.4867 107.796 53.7045 107.507C53.9271 107.218 54.0928 106.776 54.2017 106.179C54.3153 105.582 54.3722 104.822 54.3722 103.899C54.3722 103.009 54.2538 102.228 54.017 101.555C53.785 100.878 53.4583 100.303 53.0369 99.8295C52.6203 99.3513 52.1349 98.9631 51.581 98.6648C51.027 98.3665 50.4257 98.1487 49.777 98.0114C49.133 97.8741 48.4702 97.8054 47.7884 97.8054C46.6094 97.8054 45.5795 97.9853 44.6989 98.3452C43.8182 98.7003 43.0843 99.1998 42.4972 99.8438C41.91 100.488 41.4697 101.243 41.1761 102.109C40.8873 102.971 40.7405 103.911 40.7358 104.929C40.7405 106.051 40.8968 107.045 41.2045 107.912C41.517 108.774 41.9763 109.498 42.5824 110.085C43.1884 110.672 43.9366 111.117 44.8267 111.42C45.7169 111.723 46.7396 111.875 47.8949 111.875C48.4394 111.875 48.9721 111.835 49.4929 111.754C50.0137 111.679 50.4848 111.584 50.9062 111.47C51.3277 111.361 51.6662 111.255 51.9219 111.151L52.625 113.21C52.3267 113.381 51.9219 113.539 51.4105 113.686C50.9039 113.838 50.331 113.958 49.6918 114.048C49.0573 114.143 48.4039 114.19 47.7315 114.19ZM47.4048 107.77C47.9825 107.77 48.4418 107.659 48.7827 107.436C49.1283 107.214 49.3745 106.884 49.5213 106.449C49.6728 106.009 49.7438 105.466 49.7344 104.822C49.7296 104.254 49.6562 103.774 49.5142 103.381C49.3769 102.983 49.1378 102.682 48.7969 102.479C48.4607 102.27 47.992 102.166 47.3906 102.166C46.8651 102.166 46.4176 102.277 46.0483 102.5C45.6837 102.723 45.4044 103.035 45.2102 103.438C45.0208 103.835 44.9238 104.304 44.919 104.844C44.9238 105.346 45.0043 105.821 45.1605 106.271C45.3168 106.716 45.5748 107.079 45.9347 107.358C46.2945 107.633 46.7846 107.77 47.4048 107.77Z" fill="#9B51E0"/>
<rect opacity="0.5" x="144" y="55" width="112" height="112" stroke="#1F69FF" stroke-width="2"/>
<path d="M179.289 102V91.536H182.633C183.358 91.536 183.998 91.616 184.553 91.776C185.118 91.936 185.561 92.208 185.881 92.592C186.212 92.9653 186.377 93.472 186.377 94.112C186.377 94.6027 186.249 95.0667 185.993 95.504C185.737 95.9307 185.38 96.224 184.921 96.384V96.448C185.497 96.576 185.972 96.848 186.345 97.264C186.729 97.6693 186.921 98.224 186.921 98.928C186.921 99.6213 186.745 100.197 186.393 100.656C186.052 101.115 185.577 101.456 184.969 101.68C184.361 101.893 183.673 102 182.905 102H179.289ZM181.145 95.856H182.473C183.198 95.856 183.726 95.7227 184.057 95.456C184.388 95.1893 184.553 94.832 184.553 94.384C184.553 93.872 184.382 93.5093 184.041 93.296C183.7 93.0827 183.188 92.976 182.505 92.976H181.145V95.856ZM181.145 100.56H182.713C183.481 100.56 184.073 100.421 184.489 100.144C184.905 99.856 185.113 99.4187 185.113 98.832C185.113 98.2773 184.91 97.8773 184.505 97.632C184.1 97.376 183.502 97.248 182.713 97.248H181.145V100.56ZM188.676 102V94.144H190.516V102H188.676ZM189.604 92.768C189.273 92.768 189.006 92.672 188.804 92.48C188.601 92.288 188.5 92.032 188.5 91.712C188.5 91.4027 188.601 91.152 188.804 90.96C189.006 90.768 189.273 90.672 189.604 90.672C189.934 90.672 190.201 90.768 190.404 90.96C190.606 91.152 190.708 91.4027 190.708 91.712C190.708 92.032 190.606 92.288 190.404 92.48C190.201 92.672 189.934 92.768 189.604 92.768ZM192.863 102V94.144H194.383L194.511 95.2H194.575C194.927 94.8587 195.311 94.5653 195.727 94.32C196.143 94.0747 196.618 93.952 197.151 93.952C197.994 93.952 198.607 94.224 198.991 94.768C199.375 95.312 199.567 96.08 199.567 97.072V102H197.727V97.312C197.727 96.6613 197.631 96.2027 197.439 95.936C197.247 95.6693 196.933 95.536 196.495 95.536C196.154 95.536 195.85 95.6213 195.583 95.792C195.327 95.952 195.034 96.192 194.703 96.512V102H192.863ZM203.72 102.192C203.038 102.192 202.478 101.979 202.04 101.552C201.614 101.125 201.4 100.571 201.4 99.888C201.4 99.0453 201.768 98.3947 202.504 97.936C203.24 97.4667 204.414 97.1467 206.024 96.976C206.014 96.56 205.902 96.2027 205.688 95.904C205.486 95.5947 205.118 95.44 204.584 95.44C204.2 95.44 203.822 95.5147 203.448 95.664C203.086 95.8133 202.728 95.9947 202.376 96.208L201.704 94.976C202.142 94.6987 202.632 94.4587 203.176 94.256C203.731 94.0533 204.318 93.952 204.936 93.952C205.918 93.952 206.648 94.2453 207.128 94.832C207.619 95.408 207.864 96.2453 207.864 97.344V102H206.344L206.216 101.136H206.152C205.8 101.435 205.422 101.685 205.016 101.888C204.622 102.091 204.19 102.192 203.72 102.192ZM204.312 100.752C204.632 100.752 204.92 100.677 205.176 100.528C205.443 100.368 205.726 100.155 206.024 99.888V98.128C204.958 98.2667 204.216 98.4747 203.8 98.752C203.384 99.0187 203.176 99.3493 203.176 99.744C203.176 100.096 203.283 100.352 203.496 100.512C203.71 100.672 203.982 100.752 204.312 100.752ZM210.066 102V94.144H211.586L211.714 95.536H211.778C212.056 95.024 212.392 94.6347 212.786 94.368C213.181 94.0907 213.586 93.952 214.002 93.952C214.376 93.952 214.674 94.0053 214.898 94.112L214.578 95.712C214.44 95.6693 214.312 95.6373 214.194 95.616C214.077 95.5947 213.933 95.584 213.762 95.584C213.453 95.584 213.128 95.7067 212.786 95.952C212.445 96.1867 212.152 96.6027 211.906 97.2V102H210.066ZM216.813 105.232C216.6 105.232 216.413 105.216 216.253 105.184C216.093 105.152 215.939 105.115 215.789 105.072L216.125 103.632C216.2 103.653 216.285 103.675 216.381 103.696C216.488 103.728 216.589 103.744 216.685 103.744C217.101 103.744 217.432 103.616 217.677 103.36C217.933 103.115 218.125 102.795 218.253 102.4L218.397 101.904L215.309 94.144H217.181L218.541 98C218.659 98.3413 218.771 98.704 218.877 99.088C218.995 99.4613 219.112 99.8347 219.229 100.208H219.293C219.389 99.8453 219.485 99.4773 219.581 99.104C219.688 98.72 219.789 98.352 219.885 98L221.069 94.144H222.845L219.997 102.352C219.667 103.237 219.267 103.936 218.797 104.448C218.328 104.971 217.667 105.232 216.813 105.232ZM159.87 126.192C159.155 126.192 158.51 126.032 157.934 125.712C157.369 125.381 156.915 124.912 156.574 124.304C156.243 123.685 156.078 122.944 156.078 122.08C156.078 121.205 156.259 120.464 156.622 119.856C156.985 119.237 157.465 118.768 158.062 118.448C158.67 118.117 159.321 117.952 160.014 117.952C160.515 117.952 160.953 118.037 161.326 118.208C161.699 118.379 162.03 118.587 162.318 118.832L161.422 120.032C161.219 119.851 161.011 119.712 160.798 119.616C160.585 119.509 160.355 119.456 160.11 119.456C159.481 119.456 158.963 119.696 158.558 120.176C158.163 120.656 157.966 121.291 157.966 122.08C157.966 122.859 158.158 123.488 158.542 123.968C158.937 124.448 159.443 124.688 160.062 124.688C160.371 124.688 160.659 124.624 160.926 124.496C161.203 124.357 161.454 124.197 161.678 124.016L162.43 125.232C162.067 125.552 161.662 125.792 161.214 125.952C160.766 126.112 160.318 126.192 159.87 126.192ZM165.773 126.192C165.122 126.192 164.658 125.995 164.381 125.6C164.114 125.205 163.981 124.667 163.981 123.984V114.704H165.821V124.08C165.821 124.304 165.863 124.464 165.949 124.56C166.034 124.645 166.125 124.688 166.221 124.688C166.263 124.688 166.301 124.688 166.333 124.688C166.375 124.677 166.434 124.667 166.509 124.656L166.749 126.032C166.642 126.075 166.503 126.112 166.333 126.144C166.173 126.176 165.986 126.192 165.773 126.192ZM170.228 126.192C169.546 126.192 168.986 125.979 168.548 125.552C168.122 125.125 167.908 124.571 167.908 123.888C167.908 123.045 168.276 122.395 169.012 121.936C169.748 121.467 170.922 121.147 172.532 120.976C172.522 120.56 172.41 120.203 172.196 119.904C171.994 119.595 171.626 119.44 171.092 119.44C170.708 119.44 170.33 119.515 169.956 119.664C169.594 119.813 169.236 119.995 168.884 120.208L168.212 118.976C168.65 118.699 169.14 118.459 169.684 118.256C170.239 118.053 170.826 117.952 171.444 117.952C172.426 117.952 173.156 118.245 173.636 118.832C174.127 119.408 174.372 120.245 174.372 121.344V126H172.852L172.724 125.136H172.66C172.308 125.435 171.93 125.685 171.524 125.888C171.13 126.091 170.698 126.192 170.228 126.192ZM170.82 124.752C171.14 124.752 171.428 124.677 171.684 124.528C171.951 124.368 172.234 124.155 172.532 123.888V122.128C171.466 122.267 170.724 122.475 170.308 122.752C169.892 123.019 169.684 123.349 169.684 123.744C169.684 124.096 169.791 124.352 170.004 124.512C170.218 124.672 170.49 124.752 170.82 124.752ZM178.766 126.192C178.233 126.192 177.7 126.091 177.166 125.888C176.633 125.675 176.174 125.413 175.79 125.104L176.654 123.92C177.006 124.187 177.358 124.4 177.71 124.56C178.062 124.72 178.436 124.8 178.83 124.8C179.257 124.8 179.572 124.709 179.774 124.528C179.977 124.347 180.078 124.123 180.078 123.856C180.078 123.632 179.993 123.451 179.822 123.312C179.662 123.163 179.454 123.035 179.198 122.928C178.942 122.811 178.676 122.699 178.398 122.592C178.057 122.464 177.716 122.309 177.374 122.128C177.044 121.936 176.772 121.696 176.558 121.408C176.345 121.109 176.238 120.741 176.238 120.304C176.238 119.611 176.494 119.045 177.006 118.608C177.518 118.171 178.212 117.952 179.086 117.952C179.641 117.952 180.137 118.048 180.574 118.24C181.012 118.432 181.39 118.651 181.71 118.896L180.862 120.016C180.585 119.813 180.302 119.653 180.014 119.536C179.737 119.408 179.444 119.344 179.134 119.344C178.74 119.344 178.446 119.429 178.254 119.6C178.062 119.76 177.966 119.963 177.966 120.208C177.966 120.517 178.126 120.752 178.446 120.912C178.766 121.072 179.14 121.227 179.566 121.376C179.929 121.504 180.281 121.664 180.622 121.856C180.964 122.037 181.246 122.277 181.47 122.576C181.705 122.875 181.822 123.269 181.822 123.76C181.822 124.432 181.561 125.008 181.038 125.488C180.516 125.957 179.758 126.192 178.766 126.192ZM185.657 126.192C185.124 126.192 184.59 126.091 184.057 125.888C183.524 125.675 183.065 125.413 182.681 125.104L183.545 123.92C183.897 124.187 184.249 124.4 184.601 124.56C184.953 124.72 185.326 124.8 185.721 124.8C186.148 124.8 186.462 124.709 186.665 124.528C186.868 124.347 186.969 124.123 186.969 123.856C186.969 123.632 186.884 123.451 186.713 123.312C186.553 123.163 186.345 123.035 186.089 122.928C185.833 122.811 185.566 122.699 185.289 122.592C184.948 122.464 184.606 122.309 184.265 122.128C183.934 121.936 183.662 121.696 183.449 121.408C183.236 121.109 183.129 120.741 183.129 120.304C183.129 119.611 183.385 119.045 183.897 118.608C184.409 118.171 185.102 117.952 185.977 117.952C186.532 117.952 187.028 118.048 187.465 118.24C187.902 118.432 188.281 118.651 188.601 118.896L187.753 120.016C187.476 119.813 187.193 119.653 186.905 119.536C186.628 119.408 186.334 119.344 186.025 119.344C185.63 119.344 185.337 119.429 185.145 119.6C184.953 119.76 184.857 119.963 184.857 120.208C184.857 120.517 185.017 120.752 185.337 120.912C185.657 121.072 186.03 121.227 186.457 121.376C186.82 121.504 187.172 121.664 187.513 121.856C187.854 122.037 188.137 122.277 188.361 122.576C188.596 122.875 188.713 123.269 188.713 123.76C188.713 124.432 188.452 125.008 187.929 125.488C187.406 125.957 186.649 126.192 185.657 126.192ZM190.356 126V118.144H192.196V126H190.356ZM191.284 116.768C190.953 116.768 190.686 116.672 190.484 116.48C190.281 116.288 190.18 116.032 190.18 115.712C190.18 115.403 190.281 115.152 190.484 114.96C190.686 114.768 190.953 114.672 191.284 114.672C191.614 114.672 191.881 114.768 192.084 114.96C192.286 115.152 192.388 115.403 192.388 115.712C192.388 116.032 192.286 116.288 192.084 116.48C191.881 116.672 191.614 116.768 191.284 116.768ZM194.863 126V119.6H193.807V118.224L194.863 118.144V117.328C194.863 116.507 195.066 115.835 195.471 115.312C195.876 114.779 196.543 114.512 197.471 114.512C197.748 114.512 198.015 114.539 198.271 114.592C198.527 114.645 198.74 114.709 198.911 114.784L198.559 116.16C198.271 116.032 197.983 115.968 197.695 115.968C197.034 115.968 196.703 116.411 196.703 117.296V118.144H198.239V119.6H196.703V126H194.863ZM199.621 126V118.144H201.461V126H199.621ZM200.549 116.768C200.218 116.768 199.952 116.672 199.749 116.48C199.546 116.288 199.445 116.032 199.445 115.712C199.445 115.403 199.546 115.152 199.749 114.96C199.952 114.768 200.218 114.672 200.549 114.672C200.88 114.672 201.146 114.768 201.349 114.96C201.552 115.152 201.653 115.403 201.653 115.712C201.653 116.032 201.552 116.288 201.349 116.48C201.146 116.672 200.88 116.768 200.549 116.768ZM207.089 126.192C206.374 126.192 205.729 126.032 205.153 125.712C204.587 125.381 204.134 124.912 203.793 124.304C203.462 123.685 203.297 122.944 203.297 122.08C203.297 121.205 203.478 120.464 203.841 119.856C204.203 119.237 204.683 118.768 205.281 118.448C205.889 118.117 206.539 117.952 207.233 117.952C207.734 117.952 208.171 118.037 208.545 118.208C208.918 118.379 209.249 118.587 209.537 118.832L208.641 120.032C208.438 119.851 208.23 119.712 208.017 119.616C207.803 119.509 207.574 119.456 207.329 119.456C206.699 119.456 206.182 119.696 205.777 120.176C205.382 120.656 205.185 121.291 205.185 122.08C205.185 122.859 205.377 123.488 205.761 123.968C206.155 124.448 206.662 124.688 207.281 124.688C207.59 124.688 207.878 124.624 208.145 124.496C208.422 124.357 208.673 124.197 208.897 124.016L209.649 125.232C209.286 125.552 208.881 125.792 208.433 125.952C207.985 126.112 207.537 126.192 207.089 126.192ZM212.947 126.192C212.264 126.192 211.704 125.979 211.267 125.552C210.84 125.125 210.627 124.571 210.627 123.888C210.627 123.045 210.995 122.395 211.731 121.936C212.467 121.467 213.64 121.147 215.251 120.976C215.24 120.56 215.128 120.203 214.915 119.904C214.712 119.595 214.344 119.44 213.811 119.44C213.427 119.44 213.048 119.515 212.675 119.664C212.312 119.813 211.955 119.995 211.603 120.208L210.931 118.976C211.368 118.699 211.859 118.459 212.403 118.256C212.958 118.053 213.544 117.952 214.163 117.952C215.144 117.952 215.875 118.245 216.355 118.832C216.846 119.408 217.091 120.245 217.091 121.344V126H215.571L215.443 125.136H215.379C215.027 125.435 214.648 125.685 214.243 125.888C213.848 126.091 213.416 126.192 212.947 126.192ZM213.539 124.752C213.859 124.752 214.147 124.677 214.403 124.528C214.67 124.368 214.952 124.155 215.251 123.888V122.128C214.184 122.267 213.443 122.475 213.027 122.752C212.611 123.019 212.403 123.349 212.403 123.744C212.403 124.096 212.51 124.352 212.723 124.512C212.936 124.672 213.208 124.752 213.539 124.752ZM221.811 126.192C220.904 126.192 220.259 125.931 219.875 125.408C219.502 124.875 219.315 124.187 219.315 123.344V119.6H218.195V118.224L219.411 118.144L219.635 116H221.171V118.144H223.171V119.6H221.171V123.344C221.171 124.261 221.539 124.72 222.275 124.72C222.414 124.72 222.558 124.704 222.707 124.672C222.856 124.629 222.984 124.587 223.091 124.544L223.411 125.904C223.198 125.979 222.952 126.043 222.675 126.096C222.408 126.16 222.12 126.192 221.811 126.192ZM224.824 126V118.144H226.664V126H224.824ZM225.752 116.768C225.422 116.768 225.155 116.672 224.952 116.48C224.75 116.288 224.648 116.032 224.648 115.712C224.648 115.403 224.75 115.152 224.952 114.96C225.155 114.768 225.422 114.672 225.752 114.672C226.083 114.672 226.35 114.768 226.552 114.96C226.755 115.152 226.856 115.403 226.856 115.712C226.856 116.032 226.755 116.288 226.552 116.48C226.35 116.672 226.083 116.768 225.752 116.768ZM232.228 126.192C231.577 126.192 230.969 126.032 230.404 125.712C229.838 125.381 229.38 124.912 229.028 124.304C228.676 123.685 228.5 122.944 228.5 122.08C228.5 121.205 228.676 120.464 229.028 119.856C229.38 119.237 229.838 118.768 230.404 118.448C230.969 118.117 231.577 117.952 232.228 117.952C232.889 117.952 233.502 118.117 234.068 118.448C234.633 118.768 235.092 119.237 235.444 119.856C235.796 120.464 235.972 121.205 235.972 122.08C235.972 122.944 235.796 123.685 235.444 124.304C235.092 124.912 234.633 125.381 234.068 125.712C233.502 126.032 232.889 126.192 232.228 126.192ZM232.228 124.688C232.804 124.688 233.257 124.448 233.588 123.968C233.918 123.488 234.084 122.859 234.084 122.08C234.084 121.291 233.918 120.656 233.588 120.176C233.257 119.696 232.804 119.456 232.228 119.456C231.652 119.456 231.198 119.696 230.868 120.176C230.548 120.656 230.388 121.291 230.388 122.08C230.388 122.859 230.548 123.488 230.868 123.968C231.198 124.448 231.652 124.688 232.228 124.688ZM237.793 126V118.144H239.313L239.441 119.2H239.505C239.857 118.859 240.241 118.565 240.657 118.32C241.073 118.075 241.548 117.952 242.081 117.952C242.924 117.952 243.537 118.224 243.921 118.768C244.305 119.312 244.497 120.08 244.497 121.072V126H242.657V121.312C242.657 120.661 242.561 120.203 242.369 119.936C242.177 119.669 241.862 119.536 241.425 119.536C241.084 119.536 240.78 119.621 240.513 119.792C240.257 119.952 239.964 120.192 239.633 120.512V126H237.793Z" fill="#1F69FF"/>
<path d="M26.6268 157V145.228H33.7188V146.992H28.7148V149.998H32.9448V151.762H28.7148V155.236H33.8988V157H26.6268ZM36.1324 157V148.162H37.8424L37.9864 149.368H38.0584C38.4304 148.972 38.8324 148.636 39.2644 148.36C39.7084 148.084 40.2064 147.946 40.7584 147.946C41.4064 147.946 41.9224 148.09 42.3064 148.378C42.7024 148.654 43.0024 149.038 43.2064 149.53C43.6264 149.074 44.0644 148.696 44.5204 148.396C44.9884 148.096 45.4984 147.946 46.0504 147.946C46.9864 147.946 47.6764 148.252 48.1204 148.864C48.5644 149.476 48.7864 150.34 48.7864 151.456V157H46.6984V151.726C46.6984 150.994 46.5844 150.478 46.3564 150.178C46.1404 149.878 45.8044 149.728 45.3484 149.728C44.7964 149.728 44.1784 150.094 43.4944 150.826V157H41.4244V151.726C41.4244 150.994 41.3104 150.478 41.0824 150.178C40.8664 149.878 40.5244 149.728 40.0564 149.728C39.5044 149.728 38.8864 150.094 38.2024 150.826V157H36.1324ZM53.4443 157.216C52.6763 157.216 52.0463 156.976 51.5543 156.496C51.0743 156.016 50.8343 155.392 50.8343 154.624C50.8343 153.676 51.2483 152.944 52.0763 152.428C52.9043 151.9 54.2243 151.54 56.0363 151.348C56.0243 150.88 55.8983 150.478 55.6583 150.142C55.4303 149.794 55.0163 149.62 54.4163 149.62C53.9843 149.62 53.5583 149.704 53.1383 149.872C52.7303 150.04 52.3283 150.244 51.9323 150.484L51.1763 149.098C51.6683 148.786 52.2203 148.516 52.8323 148.288C53.4563 148.06 54.1163 147.946 54.8123 147.946C55.9163 147.946 56.7383 148.276 57.2783 148.936C57.8303 149.584 58.1063 150.526 58.1063 151.762V157H56.3963L56.2523 156.028H56.1803C55.7843 156.364 55.3583 156.646 54.9023 156.874C54.4583 157.102 53.9723 157.216 53.4443 157.216ZM54.1103 155.596C54.4703 155.596 54.7943 155.512 55.0823 155.344C55.3823 155.164 55.7003 154.924 56.0363 154.624V152.644C54.8363 152.8 54.0023 153.034 53.5343 153.346C53.0663 153.646 52.8323 154.018 52.8323 154.462C52.8323 154.858 52.9523 155.146 53.1923 155.326C53.4323 155.506 53.7383 155.596 54.1103 155.596ZM60.5835 157V148.162H62.6535V157H60.5835ZM61.6275 146.614C61.2555 146.614 60.9555 146.506 60.7275 146.29C60.4995 146.074 60.3855 145.786 60.3855 145.426C60.3855 145.078 60.4995 144.796 60.7275 144.58C60.9555 144.364 61.2555 144.256 61.6275 144.256C61.9995 144.256 62.2995 144.364 62.5275 144.58C62.7555 144.796 62.8695 145.078 62.8695 145.426C62.8695 145.786 62.7555 146.074 62.5275 146.29C62.2995 146.506 61.9995 146.614 61.6275 146.614ZM67.3105 157.216C66.5785 157.216 66.0565 156.994 65.7445 156.55C65.4445 156.106 65.2945 155.5 65.2945 154.732V144.292H67.3645V154.84C67.3645 155.092 67.4125 155.272 67.5085 155.38C67.6045 155.476 67.7065 155.524 67.8145 155.524C67.8625 155.524 67.9045 155.524 67.9405 155.524C67.9885 155.512 68.0545 155.5 68.1385 155.488L68.4085 157.036C68.2885 157.084 68.1325 157.126 67.9405 157.162C67.7605 157.198 67.5505 157.216 67.3105 157.216Z" fill="#232A3D"/>
<path d="M451.001 85.216C450.209 85.216 449.441 85.066 448.697 84.766C447.965 84.466 447.317 84.04 446.753 83.488L447.977 82.066C448.397 82.462 448.877 82.786 449.417 83.038C449.957 83.278 450.497 83.398 451.037 83.398C451.709 83.398 452.219 83.26 452.567 82.984C452.915 82.708 453.089 82.342 453.089 81.886C453.089 81.394 452.915 81.04 452.567 80.824C452.231 80.608 451.799 80.386 451.271 80.158L449.651 79.456C449.267 79.288 448.889 79.072 448.517 78.808C448.157 78.544 447.857 78.208 447.617 77.8C447.389 77.392 447.275 76.9 447.275 76.324C447.275 75.7 447.443 75.142 447.779 74.65C448.127 74.146 448.595 73.75 449.183 73.462C449.783 73.162 450.467 73.012 451.235 73.012C451.919 73.012 452.579 73.15 453.215 73.426C453.851 73.69 454.397 74.05 454.853 74.506L453.791 75.838C453.419 75.526 453.023 75.28 452.603 75.1C452.195 74.92 451.739 74.83 451.235 74.83C450.683 74.83 450.233 74.956 449.885 75.208C449.549 75.448 449.381 75.784 449.381 76.216C449.381 76.516 449.465 76.768 449.633 76.972C449.813 77.164 450.047 77.332 450.335 77.476C450.623 77.608 450.929 77.74 451.253 77.872L452.855 78.538C453.551 78.838 454.121 79.234 454.565 79.726C455.009 80.206 455.231 80.872 455.231 81.724C455.231 82.36 455.063 82.942 454.727 83.47C454.391 83.998 453.905 84.424 453.269 84.748C452.645 85.06 451.889 85.216 451.001 85.216ZM457.192 88.492V76.162H458.902L459.046 77.098H459.118C459.49 76.786 459.904 76.516 460.36 76.288C460.828 76.06 461.302 75.946 461.782 75.946C462.886 75.946 463.738 76.354 464.338 77.17C464.95 77.986 465.256 79.078 465.256 80.446C465.256 81.454 465.076 82.318 464.716 83.038C464.356 83.746 463.888 84.286 463.312 84.658C462.748 85.03 462.136 85.216 461.476 85.216C461.092 85.216 460.708 85.132 460.324 84.964C459.94 84.784 459.568 84.544 459.208 84.244L459.262 85.72V88.492H457.192ZM461.044 83.506C461.632 83.506 462.124 83.248 462.52 82.732C462.916 82.216 463.114 81.46 463.114 80.464C463.114 79.576 462.964 78.886 462.664 78.394C462.364 77.902 461.878 77.656 461.206 77.656C460.582 77.656 459.934 77.986 459.262 78.646V82.768C459.586 83.032 459.898 83.224 460.198 83.344C460.498 83.452 460.78 83.506 461.044 83.506ZM469.283 85.216C468.515 85.216 467.885 84.976 467.393 84.496C466.913 84.016 466.673 83.392 466.673 82.624C466.673 81.676 467.087 80.944 467.915 80.428C468.743 79.9 470.063 79.54 471.875 79.348C471.863 78.88 471.737 78.478 471.497 78.142C471.269 77.794 470.855 77.62 470.255 77.62C469.823 77.62 469.397 77.704 468.977 77.872C468.569 78.04 468.167 78.244 467.771 78.484L467.015 77.098C467.507 76.786 468.059 76.516 468.671 76.288C469.295 76.06 469.955 75.946 470.651 75.946C471.755 75.946 472.577 76.276 473.117 76.936C473.669 77.584 473.945 78.526 473.945 79.762V85H472.235L472.091 84.028H472.019C471.623 84.364 471.197 84.646 470.741 84.874C470.297 85.102 469.811 85.216 469.283 85.216ZM469.949 83.596C470.309 83.596 470.633 83.512 470.921 83.344C471.221 83.164 471.539 82.924 471.875 82.624V80.644C470.675 80.8 469.841 81.034 469.373 81.346C468.905 81.646 468.671 82.018 468.671 82.462C468.671 82.858 468.791 83.146 469.031 83.326C469.271 83.506 469.577 83.596 469.949 83.596ZM476.422 85V76.162H478.132L478.276 77.368H478.348C478.72 76.972 479.122 76.636 479.554 76.36C479.998 76.084 480.496 75.946 481.048 75.946C481.696 75.946 482.212 76.09 482.596 76.378C482.992 76.654 483.292 77.038 483.496 77.53C483.916 77.074 484.354 76.696 484.81 76.396C485.278 76.096 485.788 75.946 486.34 75.946C487.276 75.946 487.966 76.252 488.41 76.864C488.854 77.476 489.076 78.34 489.076 79.456V85H486.988V79.726C486.988 78.994 486.874 78.478 486.646 78.178C486.43 77.878 486.094 77.728 485.638 77.728C485.086 77.728 484.468 78.094 483.784 78.826V85H481.714V79.726C481.714 78.994 481.6 78.478 481.372 78.178C481.156 77.878 480.814 77.728 480.346 77.728C479.794 77.728 479.176 78.094 478.492 78.826V85H476.422ZM495.196 85V76.162H496.906L497.05 77.368H497.122C497.494 76.972 497.896 76.636 498.328 76.36C498.772 76.084 499.27 75.946 499.822 75.946C500.47 75.946 500.986 76.09 501.37 76.378C501.766 76.654 502.066 77.038 502.27 77.53C502.69 77.074 503.128 76.696 503.584 76.396C504.052 76.096 504.562 75.946 505.114 75.946C506.05 75.946 506.74 76.252 507.184 76.864C507.628 77.476 507.85 78.34 507.85 79.456V85H505.762V79.726C505.762 78.994 505.648 78.478 505.42 78.178C505.204 77.878 504.868 77.728 504.412 77.728C503.86 77.728 503.242 78.094 502.558 78.826V85H500.488V79.726C500.488 78.994 500.374 78.478 500.146 78.178C499.93 77.878 499.588 77.728 499.12 77.728C498.568 77.728 497.95 78.094 497.266 78.826V85H495.196ZM512.508 85.216C511.74 85.216 511.11 84.976 510.618 84.496C510.138 84.016 509.898 83.392 509.898 82.624C509.898 81.676 510.312 80.944 511.14 80.428C511.968 79.9 513.288 79.54 515.1 79.348C515.088 78.88 514.962 78.478 514.722 78.142C514.494 77.794 514.08 77.62 513.48 77.62C513.048 77.62 512.622 77.704 512.202 77.872C511.794 78.04 511.392 78.244 510.996 78.484L510.24 77.098C510.732 76.786 511.284 76.516 511.896 76.288C512.52 76.06 513.18 75.946 513.876 75.946C514.98 75.946 515.802 76.276 516.342 76.936C516.894 77.584 517.17 78.526 517.17 79.762V85H515.46L515.316 84.028H515.244C514.848 84.364 514.422 84.646 513.966 84.874C513.522 85.102 513.036 85.216 512.508 85.216ZM513.174 83.596C513.534 83.596 513.858 83.512 514.146 83.344C514.446 83.164 514.764 82.924 515.1 82.624V80.644C513.9 80.8 513.066 81.034 512.598 81.346C512.13 81.646 511.896 82.018 511.896 82.462C511.896 82.858 512.016 83.146 512.256 83.326C512.496 83.506 512.802 83.596 513.174 83.596ZM519.647 85V76.162H521.717V85H519.647ZM520.691 74.614C520.319 74.614 520.019 74.506 519.791 74.29C519.563 74.074 519.449 73.786 519.449 73.426C519.449 73.078 519.563 72.796 519.791 72.58C520.019 72.364 520.319 72.256 520.691 72.256C521.063 72.256 521.363 72.364 521.591 72.58C521.819 72.796 521.933 73.078 521.933 73.426C521.933 73.786 521.819 74.074 521.591 74.29C521.363 74.506 521.063 74.614 520.691 74.614ZM526.374 85.216C525.642 85.216 525.12 84.994 524.808 84.55C524.508 84.106 524.358 83.5 524.358 82.732V72.292H526.428V82.84C526.428 83.092 526.476 83.272 526.572 83.38C526.668 83.476 526.77 83.524 526.878 83.524C526.926 83.524 526.968 83.524 527.004 83.524C527.052 83.512 527.118 83.5 527.202 83.488L527.472 85.036C527.352 85.084 527.196 85.126 527.004 85.162C526.824 85.198 526.614 85.216 526.374 85.216Z" fill="#232A3D"/>
<path d="M431.894 237V225.228H434.036L437.708 231.852L438.914 234.354H438.986C438.938 233.754 438.878 233.1 438.806 232.392C438.746 231.684 438.716 231 438.716 230.34V225.228H440.714V237H438.572L434.9 230.376L433.694 227.874H433.622C433.67 228.498 433.724 229.152 433.784 229.836C433.856 230.52 433.892 231.192 433.892 231.852V237H431.894ZM447.145 237.216C446.413 237.216 445.729 237.036 445.093 236.676C444.457 236.304 443.941 235.776 443.545 235.092C443.149 234.396 442.951 233.562 442.951 232.59C442.951 231.606 443.149 230.772 443.545 230.088C443.941 229.392 444.457 228.864 445.093 228.504C445.729 228.132 446.413 227.946 447.145 227.946C447.889 227.946 448.579 228.132 449.215 228.504C449.851 228.864 450.367 229.392 450.763 230.088C451.159 230.772 451.357 231.606 451.357 232.59C451.357 233.562 451.159 234.396 450.763 235.092C450.367 235.776 449.851 236.304 449.215 236.676C448.579 237.036 447.889 237.216 447.145 237.216ZM447.145 235.524C447.793 235.524 448.303 235.254 448.675 234.714C449.047 234.174 449.233 233.466 449.233 232.59C449.233 231.702 449.047 230.988 448.675 230.448C448.303 229.908 447.793 229.638 447.145 229.638C446.497 229.638 445.987 229.908 445.615 230.448C445.255 230.988 445.075 231.702 445.075 232.59C445.075 233.466 445.255 234.174 445.615 234.714C445.987 235.254 446.497 235.524 447.145 235.524ZM456.116 237.216C455.096 237.216 454.37 236.922 453.938 236.334C453.518 235.734 453.308 234.96 453.308 234.012V229.8H452.048V228.252L453.416 228.162L453.668 225.75H455.396V228.162H457.646V229.8H455.396V234.012C455.396 235.044 455.81 235.56 456.638 235.56C456.794 235.56 456.956 235.542 457.124 235.506C457.292 235.458 457.436 235.41 457.556 235.362L457.916 236.892C457.676 236.976 457.4 237.048 457.088 237.108C456.788 237.18 456.464 237.216 456.116 237.216ZM465.575 237.216C464.975 237.216 464.375 237.102 463.775 236.874C463.175 236.634 462.659 236.34 462.227 235.992L463.199 234.66C463.595 234.96 463.991 235.2 464.387 235.38C464.783 235.56 465.203 235.65 465.647 235.65C466.127 235.65 466.481 235.548 466.709 235.344C466.937 235.14 467.051 234.888 467.051 234.588C467.051 234.336 466.955 234.132 466.763 233.976C466.583 233.808 466.349 233.664 466.061 233.544C465.773 233.412 465.473 233.286 465.161 233.166C464.777 233.022 464.393 232.848 464.009 232.644C463.637 232.428 463.331 232.158 463.091 231.834C462.851 231.498 462.731 231.084 462.731 230.592C462.731 229.812 463.019 229.176 463.595 228.684C464.171 228.192 464.951 227.946 465.935 227.946C466.559 227.946 467.117 228.054 467.609 228.27C468.101 228.486 468.527 228.732 468.887 229.008L467.933 230.268C467.621 230.04 467.303 229.86 466.979 229.728C466.667 229.584 466.337 229.512 465.989 229.512C465.545 229.512 465.215 229.608 464.999 229.8C464.783 229.98 464.675 230.208 464.675 230.484C464.675 230.832 464.855 231.096 465.215 231.276C465.575 231.456 465.995 231.63 466.475 231.798C466.883 231.942 467.279 232.122 467.663 232.338C468.047 232.542 468.365 232.812 468.617 233.148C468.881 233.484 469.013 233.928 469.013 234.48C469.013 235.236 468.719 235.884 468.131 236.424C467.543 236.952 466.691 237.216 465.575 237.216ZM470.861 240.492V228.162H472.571L472.715 229.098H472.787C473.159 228.786 473.573 228.516 474.029 228.288C474.497 228.06 474.971 227.946 475.451 227.946C476.555 227.946 477.407 228.354 478.007 229.17C478.619 229.986 478.925 231.078 478.925 232.446C478.925 233.454 478.745 234.318 478.385 235.038C478.025 235.746 477.557 236.286 476.981 236.658C476.417 237.03 475.805 237.216 475.145 237.216C474.761 237.216 474.377 237.132 473.993 236.964C473.609 236.784 473.237 236.544 472.877 236.244L472.931 237.72V240.492H470.861ZM474.713 235.506C475.301 235.506 475.793 235.248 476.189 234.732C476.585 234.216 476.783 233.46 476.783 232.464C476.783 231.576 476.633 230.886 476.333 230.394C476.033 229.902 475.547 229.656 474.875 229.656C474.251 229.656 473.603 229.986 472.931 230.646V234.768C473.255 235.032 473.567 235.224 473.867 235.344C474.167 235.452 474.449 235.506 474.713 235.506ZM482.952 237.216C482.184 237.216 481.554 236.976 481.062 236.496C480.582 236.016 480.342 235.392 480.342 234.624C480.342 233.676 480.756 232.944 481.584 232.428C482.412 231.9 483.732 231.54 485.544 231.348C485.532 230.88 485.406 230.478 485.166 230.142C484.938 229.794 484.524 229.62 483.924 229.62C483.492 229.62 483.066 229.704 482.646 229.872C482.238 230.04 481.836 230.244 481.44 230.484L480.684 229.098C481.176 228.786 481.728 228.516 482.34 228.288C482.964 228.06 483.624 227.946 484.32 227.946C485.424 227.946 486.246 228.276 486.786 228.936C487.338 229.584 487.614 230.526 487.614 231.762V237H485.904L485.76 236.028H485.688C485.292 236.364 484.866 236.646 484.41 236.874C483.966 237.102 483.48 237.216 482.952 237.216ZM483.618 235.596C483.978 235.596 484.302 235.512 484.59 235.344C484.89 235.164 485.208 234.924 485.544 234.624V232.644C484.344 232.8 483.51 233.034 483.042 233.346C482.574 233.646 482.34 234.018 482.34 234.462C482.34 234.858 482.46 235.146 482.7 235.326C482.94 235.506 483.246 235.596 483.618 235.596ZM490.091 237V228.162H491.801L491.945 229.368H492.017C492.389 228.972 492.791 228.636 493.223 228.36C493.667 228.084 494.165 227.946 494.717 227.946C495.365 227.946 495.881 228.09 496.265 228.378C496.661 228.654 496.961 229.038 497.165 229.53C497.585 229.074 498.023 228.696 498.479 228.396C498.947 228.096 499.457 227.946 500.009 227.946C500.945 227.946 501.635 228.252 502.079 228.864C502.523 229.476 502.745 230.34 502.745 231.456V237H500.657V231.726C500.657 230.994 500.543 230.478 500.315 230.178C500.099 229.878 499.763 229.728 499.307 229.728C498.755 229.728 498.137 230.094 497.453 230.826V237H495.383V231.726C495.383 230.994 495.269 230.478 495.041 230.178C494.825 229.878 494.483 229.728 494.015 229.728C493.463 229.728 492.845 230.094 492.161 230.826V237H490.091ZM508.865 237V228.162H510.575L510.719 229.368H510.791C511.163 228.972 511.565 228.636 511.997 228.36C512.441 228.084 512.939 227.946 513.491 227.946C514.139 227.946 514.655 228.09 515.039 228.378C515.435 228.654 515.735 229.038 515.939 229.53C516.359 229.074 516.797 228.696 517.253 228.396C517.721 228.096 518.231 227.946 518.783 227.946C519.719 227.946 520.409 228.252 520.853 228.864C521.297 229.476 521.519 230.34 521.519 231.456V237H519.431V231.726C519.431 230.994 519.317 230.478 519.089 230.178C518.873 229.878 518.537 229.728 518.081 229.728C517.529 229.728 516.911 230.094 516.227 230.826V237H514.157V231.726C514.157 230.994 514.043 230.478 513.815 230.178C513.599 229.878 513.257 229.728 512.789 229.728C512.237 229.728 511.619 230.094 510.935 230.826V237H508.865ZM526.177 237.216C525.409 237.216 524.779 236.976 524.287 236.496C523.807 236.016 523.567 235.392 523.567 234.624C523.567 233.676 523.981 232.944 524.809 232.428C525.637 231.9 526.957 231.54 528.769 231.348C528.757 230.88 528.631 230.478 528.391 230.142C528.163 229.794 527.749 229.62 527.149 229.62C526.717 229.62 526.291 229.704 525.871 229.872C525.463 230.04 525.061 230.244 524.665 230.484L523.909 229.098C524.401 228.786 524.953 228.516 525.565 228.288C526.189 228.06 526.849 227.946 527.545 227.946C528.649 227.946 529.471 228.276 530.011 228.936C530.563 229.584 530.839 230.526 530.839 231.762V237H529.129L528.985 236.028H528.913C528.517 236.364 528.091 236.646 527.635 236.874C527.191 237.102 526.705 237.216 526.177 237.216ZM526.843 235.596C527.203 235.596 527.527 235.512 527.815 235.344C528.115 235.164 528.433 234.924 528.769 234.624V232.644C527.569 232.8 526.735 233.034 526.267 233.346C525.799 233.646 525.565 234.018 525.565 234.462C525.565 234.858 525.685 235.146 525.925 235.326C526.165 235.506 526.471 235.596 526.843 235.596ZM533.316 237V228.162H535.386V237H533.316ZM534.36 226.614C533.988 226.614 533.688 226.506 533.46 226.29C533.232 226.074 533.118 225.786 533.118 225.426C533.118 225.078 533.232 224.796 533.46 224.58C533.688 224.364 533.988 224.256 534.36 224.256C534.732 224.256 535.032 224.364 535.26 224.58C535.488 224.796 535.602 225.078 535.602 225.426C535.602 225.786 535.488 226.074 535.26 226.29C535.032 226.506 534.732 226.614 534.36 226.614ZM540.043 237.216C539.311 237.216 538.789 236.994 538.477 236.55C538.177 236.106 538.027 235.5 538.027 234.732V224.292H540.097V234.84C540.097 235.092 540.145 235.272 540.241 235.38C540.337 235.476 540.439 235.524 540.547 235.524C540.595 235.524 540.637 235.524 540.673 235.524C540.721 235.512 540.787 235.5 540.871 235.488L541.141 237.036C541.021 237.084 540.865 237.126 540.673 237.162C540.493 237.198 540.283 237.216 540.043 237.216Z" fill="#232A3D"/>
<path d="M97 110C96.4477 110 96 110.448 96 111C96 111.552 96.4477 112 97 112V110ZM126.707 111.707C127.098 111.317 127.098 110.683 126.707 110.293L120.343 103.929C119.953 103.538 119.319 103.538 118.929 103.929C118.538 104.319 118.538 104.953 118.929 105.343L124.586 111L118.929 116.657C118.538 117.047 118.538 117.681 118.929 118.071C119.319 118.462 119.953 118.462 120.343 118.071L126.707 111.707ZM97 112H126V110H97V112Z" fill="#7D8FA8"/>
<path d="M268.222 114.032C267.67 114.032 267.222 114.48 267.222 115.032C267.222 115.585 267.67 116.032 268.222 116.032L268.222 114.032ZM441.21 41.9048C441.6 41.5143 441.6 40.8812 441.21 40.4906L434.846 34.1267C434.455 33.7361 433.822 33.7361 433.432 34.1267C433.041 34.5172 433.041 35.1504 433.432 35.5409L439.088 41.1977L433.432 46.8546C433.041 47.2451 433.041 47.8783 433.432 48.2688C433.822 48.6593 434.455 48.6593 434.846 48.2688L441.21 41.9048ZM268.222 116.032C295.786 116.032 314.175 111.398 327.812 104.385C341.445 97.3738 350.245 88.0236 358.652 78.7882C367.073 69.537 375.073 60.4351 387.186 53.6055C399.277 46.7876 415.545 42.1977 440.503 42.1977L440.503 40.1977C415.291 40.1977 398.664 44.8372 386.203 51.8633C373.763 58.8777 365.554 68.2344 357.173 77.4419C348.777 86.6651 340.183 95.7735 326.897 102.606C313.615 109.437 295.56 114.032 268.222 114.032L268.222 116.032Z" fill="#7D8FA8"/>
<path d="M268.497 116.068C267.945 116.068 267.497 115.62 267.497 115.068C267.497 114.516 267.945 114.068 268.497 114.068L268.497 116.068ZM441.485 188.195C441.876 188.586 441.876 189.219 441.485 189.61L435.121 195.973C434.731 196.364 434.097 196.364 433.707 195.973C433.316 195.583 433.316 194.95 433.707 194.559L439.364 188.902L433.707 183.246C433.316 182.855 433.316 182.222 433.707 181.831C434.097 181.441 434.731 181.441 435.121 181.831L441.485 188.195ZM268.497 114.068C296.061 114.068 314.45 118.702 328.087 125.715C341.72 132.726 350.52 142.077 358.927 151.312C367.348 160.563 375.349 169.665 387.461 176.495C399.552 183.313 415.82 187.902 440.778 187.902L440.778 189.902C415.566 189.902 398.939 185.263 386.479 178.237C374.039 171.222 365.829 161.866 357.448 152.658C349.052 143.435 340.459 134.327 327.173 127.494C313.891 120.663 295.836 116.068 268.497 116.068L268.497 114.068Z" fill="#7D8FA8"/>
<g opacity="0.8">
<rect opacity="0.6" x="457" y="170" width="58" height="41" fill="url(#paint2_linear_1_2)"/>
<path d="M472 192.5L458 207" stroke="#6DBB9B" stroke-linecap="round"/>
<path d="M500.5 192.5L514 207" stroke="#6DBB9B" stroke-linecap="round"/>
<path opacity="0.5" d="M459.053 180.486C454.928 176.821 457.52 170 463.038 170H508.954C514.401 170 517.029 176.674 513.045 180.389L490.642 201.276C488.378 203.387 484.879 203.429 482.565 201.373L459.053 180.486Z" fill="url(#paint3_linear_1_2)"/>
</g>
<circle cx="486" cy="185" r="9" stroke="#209766" stroke-width="2"/>
<path d="M483 189C484 191 488 191 489 189" stroke="#209766" stroke-width="2" stroke-linecap="round" stroke-linejoin="round"/>
<circle cx="483" cy="183" r="1" fill="#209766"/>
<circle cx="489" cy="183" r="1" fill="#209766"/>
<g opacity="0.8">
<rect opacity="0.6" x="457" y="18" width="59" height="41" fill="url(#paint4_linear_1_2)"/>
<path opacity="0.5" d="M459.07 28.5227C454.89 24.8785 457.467 18 463.013 18H510.024C515.503 18 518.116 24.7389 514.069 28.4319L491.101 49.3924C488.848 51.448 485.412 51.487 483.113 49.4831L459.07 28.5227Z" fill="url(#paint5_linear_1_2)"/>
<path d="M472 40L458 55" stroke="#D67E7E" stroke-linecap="round"/>
<path d="M501 41L515 55" stroke="#D67E7E" stroke-linecap="round"/>
</g>
<circle cx="487" cy="33" r="9" stroke="#C74E4E" stroke-width="2"/>
<path d="M480.813 26.5628L493.187 38.9372" stroke="#C74E4E" stroke-width="2" stroke-linecap="round" stroke-linejoin="round"/>
<defs>
<linearGradient id="paint0_linear_1_2" x1="47.5" y1="111" x2="47" y2="146.5" gradientUnits="userSpaceOnUse">
<stop stop-color="#9B51E0"/>
<stop offset="1" stop-color="#9B51E0" stop-opacity="0"/>
</linearGradient>
<linearGradient id="paint1_linear_1_2" x1="51" y1="127" x2="51" y2="92" gradientUnits="userSpaceOnUse">
<stop stop-color="#9B51E0"/>
<stop offset="1" stop-color="#9B51E0" stop-opacity="0"/>
</linearGradient>
<linearGradient id="paint2_linear_1_2" x1="484.5" y1="198" x2="485.495" y2="226.5" gradientUnits="userSpaceOnUse">
<stop stop-color="#209766"/>
<stop offset="0.693334" stop-color="#209766" stop-opacity="0.42"/>
</linearGradient>
<linearGradient id="paint3_linear_1_2" x1="489" y1="205" x2="489" y2="180" gradientUnits="userSpaceOnUse">
<stop stop-color="#209766"/>
<stop offset="1" stop-color="#209766" stop-opacity="0.42"/>
</linearGradient>
<linearGradient id="paint4_linear_1_2" x1="487" y1="44.5" x2="487" y2="71" gradientUnits="userSpaceOnUse">
<stop stop-color="#C74E4E"/>
<stop offset="1" stop-color="#C74E4E" stop-opacity="0"/>
</linearGradient>
<linearGradient id="paint5_linear_1_2" x1="487.5" y1="56.5" x2="488.5" y2="14.5" gradientUnits="userSpaceOnUse">
<stop stop-color="#C74E4E"/>
<stop offset="1" stop-color="#C74E4E" stop-opacity="0"/>
</linearGradient>
</defs>
</svg>
