<svg width="600" height="380" viewBox="0 0 600 380" fill="none" xmlns="http://www.w3.org/2000/svg">
<rect width="600" height="380" fill="white"/>
<path d="M123.986 58V44.92H128.166C129.073 44.92 129.873 45.02 130.566 45.22C131.273 45.42 131.826 45.76 132.226 46.24C132.64 46.7067 132.846 47.34 132.846 48.14C132.846 48.7533 132.686 49.3333 132.366 49.88C132.046 50.4133 131.6 50.78 131.026 50.98V51.06C131.746 51.22 132.34 51.56 132.806 52.08C133.286 52.5867 133.526 53.28 133.526 54.16C133.526 55.0267 133.306 55.7467 132.866 56.32C132.44 56.8933 131.846 57.32 131.086 57.6C130.326 57.8667 129.466 58 128.506 58H123.986ZM126.306 50.32H127.966C128.873 50.32 129.533 50.1533 129.946 49.82C130.36 49.4867 130.566 49.04 130.566 48.48C130.566 47.84 130.353 47.3867 129.926 47.12C129.5 46.8533 128.86 46.72 128.006 46.72H126.306V50.32ZM126.306 56.2H128.266C129.226 56.2 129.966 56.0267 130.486 55.68C131.006 55.32 131.266 54.7733 131.266 54.04C131.266 53.3467 131.013 52.8467 130.506 52.54C130 52.22 129.253 52.06 128.266 52.06H126.306V56.2ZM135.72 58V48.18H138.02V58H135.72ZM136.88 46.46C136.466 46.46 136.133 46.34 135.88 46.1C135.626 45.86 135.5 45.54 135.5 45.14C135.5 44.7533 135.626 44.44 135.88 44.2C136.133 43.96 136.466 43.84 136.88 43.84C137.293 43.84 137.626 43.96 137.88 44.2C138.133 44.44 138.26 44.7533 138.26 45.14C138.26 45.54 138.133 45.86 137.88 46.1C137.626 46.34 137.293 46.46 136.88 46.46ZM140.954 58V48.18H142.854L143.014 49.5H143.094C143.534 49.0733 144.014 48.7067 144.534 48.4C145.054 48.0933 145.647 47.94 146.314 47.94C147.367 47.94 148.134 48.28 148.614 48.96C149.094 49.64 149.334 50.6 149.334 51.84V58H147.034V52.14C147.034 51.3267 146.914 50.7533 146.674 50.42C146.434 50.0867 146.041 49.92 145.494 49.92C145.067 49.92 144.687 50.0267 144.354 50.24C144.034 50.44 143.667 50.74 143.254 51.14V58H140.954ZM154.526 58.24C153.672 58.24 152.972 57.9733 152.426 57.44C151.892 56.9067 151.626 56.2133 151.626 55.36C151.626 54.3067 152.086 53.4933 153.006 52.92C153.926 52.3333 155.392 51.9333 157.406 51.72C157.392 51.2 157.252 50.7533 156.986 50.38C156.732 49.9933 156.272 49.8 155.606 49.8C155.126 49.8 154.652 49.8933 154.186 50.08C153.732 50.2667 153.286 50.4933 152.846 50.76L152.006 49.22C152.552 48.8733 153.166 48.5733 153.846 48.32C154.539 48.0667 155.272 47.94 156.046 47.94C157.272 47.94 158.186 48.3067 158.786 49.04C159.399 49.76 159.706 50.8067 159.706 52.18V58H157.806L157.646 56.92H157.566C157.126 57.2933 156.652 57.6067 156.146 57.86C155.652 58.1133 155.112 58.24 154.526 58.24ZM155.266 56.44C155.666 56.44 156.026 56.3467 156.346 56.16C156.679 55.96 157.032 55.6933 157.406 55.36V53.16C156.072 53.3333 155.146 53.5933 154.626 53.94C154.106 54.2733 153.846 54.6867 153.846 55.18C153.846 55.62 153.979 55.94 154.246 56.14C154.512 56.34 154.852 56.44 155.266 56.44ZM162.458 58V48.18H164.358L164.518 49.92H164.598C164.945 49.28 165.365 48.7933 165.858 48.46C166.351 48.1133 166.858 47.94 167.378 47.94C167.845 47.94 168.218 48.0067 168.498 48.14L168.098 50.14C167.925 50.0867 167.765 50.0467 167.618 50.02C167.471 49.9933 167.291 49.98 167.078 49.98C166.691 49.98 166.285 50.1333 165.858 50.44C165.431 50.7333 165.065 51.2533 164.758 52V58H162.458ZM170.891 62.04C170.625 62.04 170.391 62.02 170.191 61.98C169.991 61.94 169.798 61.8933 169.611 61.84L170.031 60.04C170.125 60.0667 170.231 60.0933 170.351 60.12C170.485 60.16 170.611 60.18 170.731 60.18C171.251 60.18 171.665 60.02 171.971 59.7C172.291 59.3933 172.531 58.9933 172.691 58.5L172.871 57.88L169.011 48.18H171.351L173.051 53C173.198 53.4267 173.338 53.88 173.471 54.36C173.618 54.8267 173.765 55.2933 173.911 55.76H173.991C174.111 55.3067 174.231 54.8467 174.351 54.38C174.485 53.9 174.611 53.44 174.731 53L176.211 48.18H178.431L174.871 58.44C174.458 59.5467 173.958 60.42 173.371 61.06C172.785 61.7133 171.958 62.04 170.891 62.04ZM99.7123 86.24C98.819 86.24 98.0123 86.04 97.2923 85.64C96.5857 85.2267 96.019 84.64 95.5923 83.88C95.179 83.1067 94.9723 82.18 94.9723 81.1C94.9723 80.0067 95.199 79.08 95.6523 78.32C96.1057 77.5467 96.7057 76.96 97.4523 76.56C98.2123 76.1467 99.0257 75.94 99.8923 75.94C100.519 75.94 101.066 76.0467 101.532 76.26C101.999 76.4733 102.412 76.7333 102.772 77.04L101.652 78.54C101.399 78.3133 101.139 78.14 100.872 78.02C100.606 77.8867 100.319 77.82 100.012 77.82C99.2257 77.82 98.579 78.12 98.0723 78.72C97.579 79.32 97.3323 80.1133 97.3323 81.1C97.3323 82.0733 97.5723 82.86 98.0523 83.46C98.5457 84.06 99.179 84.36 99.9523 84.36C100.339 84.36 100.699 84.28 101.032 84.12C101.379 83.9467 101.692 83.7467 101.972 83.52L102.912 85.04C102.459 85.44 101.952 85.74 101.392 85.94C100.832 86.14 100.272 86.24 99.7123 86.24ZM107.091 86.24C106.277 86.24 105.697 85.9933 105.351 85.5C105.017 85.0067 104.851 84.3333 104.851 83.48V71.88H107.151V83.6C107.151 83.88 107.204 84.08 107.311 84.2C107.417 84.3067 107.531 84.36 107.651 84.36C107.704 84.36 107.751 84.36 107.791 84.36C107.844 84.3467 107.917 84.3333 108.011 84.32L108.311 86.04C108.177 86.0933 108.004 86.14 107.791 86.18C107.591 86.22 107.357 86.24 107.091 86.24ZM112.66 86.24C111.807 86.24 111.107 85.9733 110.56 85.44C110.027 84.9067 109.76 84.2133 109.76 83.36C109.76 82.3067 110.22 81.4933 111.14 80.92C112.06 80.3333 113.527 79.9333 115.54 79.72C115.527 79.2 115.387 78.7533 115.12 78.38C114.867 77.9933 114.407 77.8 113.74 77.8C113.26 77.8 112.787 77.8933 112.32 78.08C111.867 78.2667 111.42 78.4933 110.98 78.76L110.14 77.22C110.687 76.8733 111.3 76.5733 111.98 76.32C112.674 76.0667 113.407 75.94 114.18 75.94C115.407 75.94 116.32 76.3067 116.92 77.04C117.534 77.76 117.84 78.8067 117.84 80.18V86H115.94L115.78 84.92H115.7C115.26 85.2933 114.787 85.6067 114.28 85.86C113.787 86.1133 113.247 86.24 112.66 86.24ZM113.4 84.44C113.8 84.44 114.16 84.3467 114.48 84.16C114.814 83.96 115.167 83.6933 115.54 83.36V81.16C114.207 81.3333 113.28 81.5933 112.76 81.94C112.24 82.2733 111.98 82.6867 111.98 83.18C111.98 83.62 112.114 83.94 112.38 84.14C112.647 84.34 112.987 84.44 113.4 84.44ZM123.333 86.24C122.666 86.24 121.999 86.1133 121.333 85.86C120.666 85.5933 120.093 85.2667 119.613 84.88L120.693 83.4C121.133 83.7333 121.573 84 122.013 84.2C122.453 84.4 122.919 84.5 123.413 84.5C123.946 84.5 124.339 84.3867 124.593 84.16C124.846 83.9333 124.973 83.6533 124.973 83.32C124.973 83.04 124.866 82.8133 124.653 82.64C124.453 82.4533 124.193 82.2933 123.873 82.16C123.553 82.0133 123.219 81.8733 122.873 81.74C122.446 81.58 122.019 81.3867 121.593 81.16C121.179 80.92 120.839 80.62 120.573 80.26C120.306 79.8867 120.173 79.4267 120.173 78.88C120.173 78.0133 120.493 77.3067 121.133 76.76C121.773 76.2133 122.639 75.94 123.733 75.94C124.426 75.94 125.046 76.06 125.593 76.3C126.139 76.54 126.613 76.8133 127.013 77.12L125.953 78.52C125.606 78.2667 125.253 78.0667 124.893 77.92C124.546 77.76 124.179 77.68 123.793 77.68C123.299 77.68 122.933 77.7867 122.693 78C122.453 78.2 122.333 78.4533 122.333 78.76C122.333 79.1467 122.533 79.44 122.933 79.64C123.333 79.84 123.799 80.0333 124.333 80.22C124.786 80.38 125.226 80.58 125.653 80.82C126.079 81.0467 126.433 81.3467 126.713 81.72C127.006 82.0933 127.153 82.5867 127.153 83.2C127.153 84.04 126.826 84.76 126.173 85.36C125.519 85.9467 124.573 86.24 123.333 86.24ZM131.946 86.24C131.279 86.24 130.613 86.1133 129.946 85.86C129.279 85.5933 128.706 85.2667 128.226 84.88L129.306 83.4C129.746 83.7333 130.186 84 130.626 84.2C131.066 84.4 131.533 84.5 132.026 84.5C132.559 84.5 132.953 84.3867 133.206 84.16C133.459 83.9333 133.586 83.6533 133.586 83.32C133.586 83.04 133.479 82.8133 133.266 82.64C133.066 82.4533 132.806 82.2933 132.486 82.16C132.166 82.0133 131.833 81.8733 131.486 81.74C131.059 81.58 130.633 81.3867 130.206 81.16C129.793 80.92 129.453 80.62 129.186 80.26C128.919 79.8867 128.786 79.4267 128.786 78.88C128.786 78.0133 129.106 77.3067 129.746 76.76C130.386 76.2133 131.253 75.94 132.346 75.94C133.039 75.94 133.659 76.06 134.206 76.3C134.753 76.54 135.226 76.8133 135.626 77.12L134.566 78.52C134.219 78.2667 133.866 78.0667 133.506 77.92C133.159 77.76 132.793 77.68 132.406 77.68C131.913 77.68 131.546 77.7867 131.306 78C131.066 78.2 130.946 78.4533 130.946 78.76C130.946 79.1467 131.146 79.44 131.546 79.64C131.946 79.84 132.413 80.0333 132.946 80.22C133.399 80.38 133.839 80.58 134.266 80.82C134.693 81.0467 135.046 81.3467 135.326 81.72C135.619 82.0933 135.766 82.5867 135.766 83.2C135.766 84.04 135.439 84.76 134.786 85.36C134.133 85.9467 133.186 86.24 131.946 86.24ZM137.819 86V76.18H140.119V86H137.819ZM138.979 74.46C138.566 74.46 138.233 74.34 137.979 74.1C137.726 73.86 137.599 73.54 137.599 73.14C137.599 72.7533 137.726 72.44 137.979 72.2C138.233 71.96 138.566 71.84 138.979 71.84C139.393 71.84 139.726 71.96 139.979 72.2C140.233 72.44 140.359 72.7533 140.359 73.14C140.359 73.54 140.233 73.86 139.979 74.1C139.726 74.34 139.393 74.46 138.979 74.46ZM143.454 86V78H142.134V76.28L143.454 76.18V75.16C143.454 74.1333 143.707 73.2933 144.214 72.64C144.72 71.9733 145.554 71.64 146.714 71.64C147.06 71.64 147.394 71.6733 147.714 71.74C148.034 71.8067 148.3 71.8867 148.514 71.98L148.074 73.7C147.714 73.54 147.354 73.46 146.994 73.46C146.167 73.46 145.754 74.0133 145.754 75.12V76.18H147.674V78H145.754V86H143.454ZM149.401 86V76.18H151.701V86H149.401ZM150.561 74.46C150.148 74.46 149.815 74.34 149.561 74.1C149.308 73.86 149.181 73.54 149.181 73.14C149.181 72.7533 149.308 72.44 149.561 72.2C149.815 71.96 150.148 71.84 150.561 71.84C150.975 71.84 151.308 71.96 151.561 72.2C151.815 72.44 151.941 72.7533 151.941 73.14C151.941 73.54 151.815 73.86 151.561 74.1C151.308 74.34 150.975 74.46 150.561 74.46ZM158.736 86.24C157.842 86.24 157.036 86.04 156.316 85.64C155.609 85.2267 155.042 84.64 154.616 83.88C154.202 83.1067 153.996 82.18 153.996 81.1C153.996 80.0067 154.222 79.08 154.676 78.32C155.129 77.5467 155.729 76.96 156.476 76.56C157.236 76.1467 158.049 75.94 158.916 75.94C159.542 75.94 160.089 76.0467 160.556 76.26C161.022 76.4733 161.436 76.7333 161.796 77.04L160.676 78.54C160.422 78.3133 160.162 78.14 159.896 78.02C159.629 77.8867 159.342 77.82 159.036 77.82C158.249 77.82 157.602 78.12 157.096 78.72C156.602 79.32 156.356 80.1133 156.356 81.1C156.356 82.0733 156.596 82.86 157.076 83.46C157.569 84.06 158.202 84.36 158.976 84.36C159.362 84.36 159.722 84.28 160.056 84.12C160.402 83.9467 160.716 83.7467 160.996 83.52L161.936 85.04C161.482 85.44 160.976 85.74 160.416 85.94C159.856 86.14 159.296 86.24 158.736 86.24ZM166.059 86.24C165.205 86.24 164.505 85.9733 163.959 85.44C163.425 84.9067 163.159 84.2133 163.159 83.36C163.159 82.3067 163.619 81.4933 164.539 80.92C165.459 80.3333 166.925 79.9333 168.939 79.72C168.925 79.2 168.785 78.7533 168.519 78.38C168.265 77.9933 167.805 77.8 167.139 77.8C166.659 77.8 166.185 77.8933 165.719 78.08C165.265 78.2667 164.819 78.4933 164.379 78.76L163.539 77.22C164.085 76.8733 164.699 76.5733 165.379 76.32C166.072 76.0667 166.805 75.94 167.579 75.94C168.805 75.94 169.719 76.3067 170.319 77.04C170.932 77.76 171.239 78.8067 171.239 80.18V86H169.339L169.179 84.92H169.099C168.659 85.2933 168.185 85.6067 167.679 85.86C167.185 86.1133 166.645 86.24 166.059 86.24ZM166.799 84.44C167.199 84.44 167.559 84.3467 167.879 84.16C168.212 83.96 168.565 83.6933 168.939 83.36V81.16C167.605 81.3333 166.679 81.5933 166.159 81.94C165.639 82.2733 165.379 82.6867 165.379 83.18C165.379 83.62 165.512 83.94 165.779 84.14C166.045 84.34 166.385 84.44 166.799 84.44ZM177.139 86.24C176.005 86.24 175.199 85.9133 174.719 85.26C174.252 84.5933 174.019 83.7333 174.019 82.68V78H172.619V76.28L174.139 76.18L174.419 73.5H176.339V76.18H178.839V78H176.339V82.68C176.339 83.8267 176.799 84.4 177.719 84.4C177.892 84.4 178.072 84.38 178.259 84.34C178.445 84.2867 178.605 84.2333 178.739 84.18L179.139 85.88C178.872 85.9733 178.565 86.0533 178.219 86.12C177.885 86.2 177.525 86.24 177.139 86.24ZM180.905 86V76.18H183.205V86H180.905ZM182.065 74.46C181.652 74.46 181.319 74.34 181.065 74.1C180.812 73.86 180.685 73.54 180.685 73.14C180.685 72.7533 180.812 72.44 181.065 72.2C181.319 71.96 181.652 71.84 182.065 71.84C182.479 71.84 182.812 71.96 183.065 72.2C183.319 72.44 183.445 72.7533 183.445 73.14C183.445 73.54 183.319 73.86 183.065 74.1C182.812 74.34 182.479 74.46 182.065 74.46ZM190.16 86.24C189.346 86.24 188.586 86.04 187.88 85.64C187.173 85.2267 186.6 84.64 186.16 83.88C185.72 83.1067 185.5 82.18 185.5 81.1C185.5 80.0067 185.72 79.08 186.16 78.32C186.6 77.5467 187.173 76.96 187.88 76.56C188.586 76.1467 189.346 75.94 190.16 75.94C190.986 75.94 191.753 76.1467 192.46 76.56C193.166 76.96 193.74 77.5467 194.18 78.32C194.62 79.08 194.84 80.0067 194.84 81.1C194.84 82.18 194.62 83.1067 194.18 83.88C193.74 84.64 193.166 85.2267 192.46 85.64C191.753 86.04 190.986 86.24 190.16 86.24ZM190.16 84.36C190.88 84.36 191.446 84.06 191.86 83.46C192.273 82.86 192.48 82.0733 192.48 81.1C192.48 80.1133 192.273 79.32 191.86 78.72C191.446 78.12 190.88 77.82 190.16 77.82C189.44 77.82 188.873 78.12 188.46 78.72C188.06 79.32 187.86 80.1133 187.86 81.1C187.86 82.0733 188.06 82.86 188.46 83.46C188.873 84.06 189.44 84.36 190.16 84.36ZM197.116 86V76.18H199.016L199.176 77.5H199.256C199.696 77.0733 200.176 76.7067 200.696 76.4C201.216 76.0933 201.81 75.94 202.476 75.94C203.53 75.94 204.296 76.28 204.776 76.96C205.256 77.64 205.496 78.6 205.496 79.84V86H203.196V80.14C203.196 79.3267 203.076 78.7533 202.836 78.42C202.596 78.0867 202.203 77.92 201.656 77.92C201.23 77.92 200.85 78.0267 200.516 78.24C200.196 78.44 199.83 78.74 199.416 79.14V86H197.116Z" fill="#232A3D"/>
<path d="M415.881 64V50.92H418.501L420.821 57.32C420.967 57.7333 421.107 58.16 421.241 58.6C421.387 59.0267 421.527 59.4533 421.661 59.88H421.741C421.887 59.4533 422.027 59.0267 422.161 58.6C422.294 58.16 422.427 57.7333 422.561 57.32L424.821 50.92H427.461V64H425.321V58.02C425.321 57.6067 425.334 57.16 425.361 56.68C425.401 56.1867 425.441 55.6933 425.481 55.2C425.534 54.7067 425.581 54.26 425.621 53.86H425.541L424.481 56.9L422.341 62.78H420.961L418.801 56.9L417.761 53.86H417.681C417.721 54.26 417.761 54.7067 417.801 55.2C417.854 55.6933 417.894 56.1867 417.921 56.68C417.961 57.16 417.981 57.6067 417.981 58.02V64H415.881ZM433.503 64.24C432.45 64.24 431.683 63.9 431.203 63.22C430.723 62.54 430.483 61.58 430.483 60.34V54.18H432.783V60.04C432.783 60.8533 432.903 61.4267 433.143 61.76C433.383 62.0933 433.77 62.26 434.303 62.26C434.73 62.26 435.103 62.1533 435.423 61.94C435.756 61.7267 436.11 61.38 436.483 60.9V54.18H438.783V64H436.903L436.723 62.56H436.663C436.236 63.0667 435.77 63.4733 435.263 63.78C434.756 64.0867 434.17 64.24 433.503 64.24ZM443.936 64.24C443.123 64.24 442.543 63.9933 442.196 63.5C441.863 63.0067 441.696 62.3333 441.696 61.48V49.88H443.996V61.6C443.996 61.88 444.05 62.08 444.156 62.2C444.263 62.3067 444.376 62.36 444.496 62.36C444.55 62.36 444.596 62.36 444.636 62.36C444.69 62.3467 444.763 62.3333 444.856 62.32L445.156 64.04C445.023 64.0933 444.85 64.14 444.636 64.18C444.436 64.22 444.203 64.24 443.936 64.24ZM450.586 64.24C449.453 64.24 448.646 63.9133 448.166 63.26C447.699 62.5933 447.466 61.7333 447.466 60.68V56H446.066V54.28L447.586 54.18L447.866 51.5H449.786V54.18H452.286V56H449.786V60.68C449.786 61.8267 450.246 62.4 451.166 62.4C451.339 62.4 451.519 62.38 451.706 62.34C451.893 62.2867 452.053 62.2333 452.186 62.18L452.586 63.88C452.319 63.9733 452.013 64.0533 451.666 64.12C451.333 64.2 450.973 64.24 450.586 64.24ZM454.353 64V54.18H456.653V64H454.353ZM455.513 52.46C455.099 52.46 454.766 52.34 454.513 52.1C454.259 51.86 454.133 51.54 454.133 51.14C454.133 50.7533 454.259 50.44 454.513 50.2C454.766 49.96 455.099 49.84 455.513 49.84C455.926 49.84 456.259 49.96 456.513 50.2C456.766 50.44 456.893 50.7533 456.893 51.14C456.893 51.54 456.766 51.86 456.513 52.1C456.259 52.34 455.926 52.46 455.513 52.46ZM458.967 59.8V58.12H463.727V59.8H458.967ZM470.132 64.24C469.239 64.24 468.432 64.04 467.712 63.64C467.006 63.2267 466.439 62.64 466.012 61.88C465.599 61.1067 465.392 60.18 465.392 59.1C465.392 58.0067 465.619 57.08 466.072 56.32C466.526 55.5467 467.126 54.96 467.872 54.56C468.632 54.1467 469.446 53.94 470.312 53.94C470.939 53.94 471.486 54.0467 471.952 54.26C472.419 54.4733 472.832 54.7333 473.192 55.04L472.072 56.54C471.819 56.3133 471.559 56.14 471.292 56.02C471.026 55.8867 470.739 55.82 470.432 55.82C469.646 55.82 468.999 56.12 468.492 56.72C467.999 57.32 467.752 58.1133 467.752 59.1C467.752 60.0733 467.992 60.86 468.472 61.46C468.966 62.06 469.599 62.36 470.372 62.36C470.759 62.36 471.119 62.28 471.452 62.12C471.799 61.9467 472.112 61.7467 472.392 61.52L473.332 63.04C472.879 63.44 472.372 63.74 471.812 63.94C471.252 64.14 470.692 64.24 470.132 64.24ZM477.511 64.24C476.697 64.24 476.117 63.9933 475.771 63.5C475.437 63.0067 475.271 62.3333 475.271 61.48V49.88H477.571V61.6C477.571 61.88 477.624 62.08 477.731 62.2C477.837 62.3067 477.951 62.36 478.071 62.36C478.124 62.36 478.171 62.36 478.211 62.36C478.264 62.3467 478.337 62.3333 478.431 62.32L478.731 64.04C478.597 64.0933 478.424 64.14 478.211 64.18C478.011 64.22 477.777 64.24 477.511 64.24ZM483.08 64.24C482.227 64.24 481.527 63.9733 480.98 63.44C480.447 62.9067 480.18 62.2133 480.18 61.36C480.18 60.3067 480.64 59.4933 481.56 58.92C482.48 58.3333 483.947 57.9333 485.96 57.72C485.947 57.2 485.807 56.7533 485.54 56.38C485.287 55.9933 484.827 55.8 484.16 55.8C483.68 55.8 483.207 55.8933 482.74 56.08C482.287 56.2667 481.84 56.4933 481.4 56.76L480.56 55.22C481.107 54.8733 481.72 54.5733 482.4 54.32C483.094 54.0667 483.827 53.94 484.6 53.94C485.827 53.94 486.74 54.3067 487.34 55.04C487.954 55.76 488.26 56.8067 488.26 58.18V64H486.36L486.2 62.92H486.12C485.68 63.2933 485.207 63.6067 484.7 63.86C484.207 64.1133 483.667 64.24 483.08 64.24ZM483.82 62.44C484.22 62.44 484.58 62.3467 484.9 62.16C485.234 61.96 485.587 61.6933 485.96 61.36V59.16C484.627 59.3333 483.7 59.5933 483.18 59.94C482.66 60.2733 482.4 60.6867 482.4 61.18C482.4 61.62 482.534 61.94 482.8 62.14C483.067 62.34 483.407 62.44 483.82 62.44ZM493.753 64.24C493.086 64.24 492.419 64.1133 491.753 63.86C491.086 63.5933 490.513 63.2667 490.033 62.88L491.113 61.4C491.553 61.7333 491.993 62 492.433 62.2C492.873 62.4 493.339 62.5 493.833 62.5C494.366 62.5 494.759 62.3867 495.013 62.16C495.266 61.9333 495.393 61.6533 495.393 61.32C495.393 61.04 495.286 60.8133 495.073 60.64C494.873 60.4533 494.613 60.2933 494.293 60.16C493.973 60.0133 493.639 59.8733 493.293 59.74C492.866 59.58 492.439 59.3867 492.013 59.16C491.599 58.92 491.259 58.62 490.993 58.26C490.726 57.8867 490.593 57.4267 490.593 56.88C490.593 56.0133 490.913 55.3067 491.553 54.76C492.193 54.2133 493.059 53.94 494.153 53.94C494.846 53.94 495.466 54.06 496.013 54.3C496.559 54.54 497.033 54.8133 497.433 55.12L496.373 56.52C496.026 56.2667 495.673 56.0667 495.313 55.92C494.966 55.76 494.599 55.68 494.213 55.68C493.719 55.68 493.353 55.7867 493.113 56C492.873 56.2 492.753 56.4533 492.753 56.76C492.753 57.1467 492.953 57.44 493.353 57.64C493.753 57.84 494.219 58.0333 494.753 58.22C495.206 58.38 495.646 58.58 496.073 58.82C496.499 59.0467 496.853 59.3467 497.133 59.72C497.426 60.0933 497.573 60.5867 497.573 61.2C497.573 62.04 497.246 62.76 496.593 63.36C495.939 63.9467 494.993 64.24 493.753 64.24ZM502.366 64.24C501.699 64.24 501.033 64.1133 500.366 63.86C499.699 63.5933 499.126 63.2667 498.646 62.88L499.726 61.4C500.166 61.7333 500.606 62 501.046 62.2C501.486 62.4 501.953 62.5 502.446 62.5C502.979 62.5 503.373 62.3867 503.626 62.16C503.879 61.9333 504.006 61.6533 504.006 61.32C504.006 61.04 503.899 60.8133 503.686 60.64C503.486 60.4533 503.226 60.2933 502.906 60.16C502.586 60.0133 502.253 59.8733 501.906 59.74C501.479 59.58 501.053 59.3867 500.626 59.16C500.213 58.92 499.873 58.62 499.606 58.26C499.339 57.8867 499.206 57.4267 499.206 56.88C499.206 56.0133 499.526 55.3067 500.166 54.76C500.806 54.2133 501.673 53.94 502.766 53.94C503.459 53.94 504.079 54.06 504.626 54.3C505.173 54.54 505.646 54.8133 506.046 55.12L504.986 56.52C504.639 56.2667 504.286 56.0667 503.926 55.92C503.579 55.76 503.213 55.68 502.826 55.68C502.333 55.68 501.966 55.7867 501.726 56C501.486 56.2 501.366 56.4533 501.366 56.76C501.366 57.1467 501.566 57.44 501.966 57.64C502.366 57.84 502.833 58.0333 503.366 58.22C503.819 58.38 504.259 58.58 504.686 58.82C505.113 59.0467 505.466 59.3467 505.746 59.72C506.039 60.0933 506.186 60.5867 506.186 61.2C506.186 62.04 505.859 62.76 505.206 63.36C504.553 63.9467 503.606 64.24 502.366 64.24ZM409.712 92.24C408.819 92.24 408.012 92.04 407.292 91.64C406.586 91.2267 406.019 90.64 405.592 89.88C405.179 89.1067 404.972 88.18 404.972 87.1C404.972 86.0067 405.199 85.08 405.652 84.32C406.106 83.5467 406.706 82.96 407.452 82.56C408.212 82.1467 409.026 81.94 409.892 81.94C410.519 81.94 411.066 82.0467 411.532 82.26C411.999 82.4733 412.412 82.7333 412.772 83.04L411.652 84.54C411.399 84.3133 411.139 84.14 410.872 84.02C410.606 83.8867 410.319 83.82 410.012 83.82C409.226 83.82 408.579 84.12 408.072 84.72C407.579 85.32 407.332 86.1133 407.332 87.1C407.332 88.0733 407.572 88.86 408.052 89.46C408.546 90.06 409.179 90.36 409.952 90.36C410.339 90.36 410.699 90.28 411.032 90.12C411.379 89.9467 411.692 89.7467 411.972 89.52L412.912 91.04C412.459 91.44 411.952 91.74 411.392 91.94C410.832 92.14 410.272 92.24 409.712 92.24ZM417.091 92.24C416.277 92.24 415.697 91.9933 415.351 91.5C415.017 91.0067 414.851 90.3333 414.851 89.48V77.88H417.151V89.6C417.151 89.88 417.204 90.08 417.311 90.2C417.417 90.3067 417.531 90.36 417.651 90.36C417.704 90.36 417.751 90.36 417.791 90.36C417.844 90.3467 417.917 90.3333 418.011 90.32L418.311 92.04C418.177 92.0933 418.004 92.14 417.791 92.18C417.591 92.22 417.357 92.24 417.091 92.24ZM422.66 92.24C421.807 92.24 421.107 91.9733 420.56 91.44C420.027 90.9067 419.76 90.2133 419.76 89.36C419.76 88.3067 420.22 87.4933 421.14 86.92C422.06 86.3333 423.527 85.9333 425.54 85.72C425.527 85.2 425.387 84.7533 425.12 84.38C424.867 83.9933 424.407 83.8 423.74 83.8C423.26 83.8 422.787 83.8933 422.32 84.08C421.867 84.2667 421.42 84.4933 420.98 84.76L420.14 83.22C420.687 82.8733 421.3 82.5733 421.98 82.32C422.674 82.0667 423.407 81.94 424.18 81.94C425.407 81.94 426.32 82.3067 426.92 83.04C427.534 83.76 427.84 84.8067 427.84 86.18V92H425.94L425.78 90.92H425.7C425.26 91.2933 424.787 91.6067 424.28 91.86C423.787 92.1133 423.247 92.24 422.66 92.24ZM423.4 90.44C423.8 90.44 424.16 90.3467 424.48 90.16C424.814 89.96 425.167 89.6933 425.54 89.36V87.16C424.207 87.3333 423.28 87.5933 422.76 87.94C422.24 88.2733 421.98 88.6867 421.98 89.18C421.98 89.62 422.114 89.94 422.38 90.14C422.647 90.34 422.987 90.44 423.4 90.44ZM433.333 92.24C432.666 92.24 431.999 92.1133 431.333 91.86C430.666 91.5933 430.093 91.2667 429.613 90.88L430.693 89.4C431.133 89.7333 431.573 90 432.013 90.2C432.453 90.4 432.919 90.5 433.413 90.5C433.946 90.5 434.339 90.3867 434.593 90.16C434.846 89.9333 434.973 89.6533 434.973 89.32C434.973 89.04 434.866 88.8133 434.653 88.64C434.453 88.4533 434.193 88.2933 433.873 88.16C433.553 88.0133 433.219 87.8733 432.873 87.74C432.446 87.58 432.019 87.3867 431.593 87.16C431.179 86.92 430.839 86.62 430.573 86.26C430.306 85.8867 430.173 85.4267 430.173 84.88C430.173 84.0133 430.493 83.3067 431.133 82.76C431.773 82.2133 432.639 81.94 433.733 81.94C434.426 81.94 435.046 82.06 435.593 82.3C436.139 82.54 436.613 82.8133 437.013 83.12L435.953 84.52C435.606 84.2667 435.253 84.0667 434.893 83.92C434.546 83.76 434.179 83.68 433.793 83.68C433.299 83.68 432.933 83.7867 432.693 84C432.453 84.2 432.333 84.4533 432.333 84.76C432.333 85.1467 432.533 85.44 432.933 85.64C433.333 85.84 433.799 86.0333 434.333 86.22C434.786 86.38 435.226 86.58 435.653 86.82C436.079 87.0467 436.433 87.3467 436.713 87.72C437.006 88.0933 437.153 88.5867 437.153 89.2C437.153 90.04 436.826 90.76 436.173 91.36C435.519 91.9467 434.573 92.24 433.333 92.24ZM441.946 92.24C441.279 92.24 440.613 92.1133 439.946 91.86C439.279 91.5933 438.706 91.2667 438.226 90.88L439.306 89.4C439.746 89.7333 440.186 90 440.626 90.2C441.066 90.4 441.533 90.5 442.026 90.5C442.559 90.5 442.953 90.3867 443.206 90.16C443.459 89.9333 443.586 89.6533 443.586 89.32C443.586 89.04 443.479 88.8133 443.266 88.64C443.066 88.4533 442.806 88.2933 442.486 88.16C442.166 88.0133 441.833 87.8733 441.486 87.74C441.059 87.58 440.633 87.3867 440.206 87.16C439.793 86.92 439.453 86.62 439.186 86.26C438.919 85.8867 438.786 85.4267 438.786 84.88C438.786 84.0133 439.106 83.3067 439.746 82.76C440.386 82.2133 441.253 81.94 442.346 81.94C443.039 81.94 443.659 82.06 444.206 82.3C444.753 82.54 445.226 82.8133 445.626 83.12L444.566 84.52C444.219 84.2667 443.866 84.0667 443.506 83.92C443.159 83.76 442.793 83.68 442.406 83.68C441.913 83.68 441.546 83.7867 441.306 84C441.066 84.2 440.946 84.4533 440.946 84.76C440.946 85.1467 441.146 85.44 441.546 85.64C441.946 85.84 442.413 86.0333 442.946 86.22C443.399 86.38 443.839 86.58 444.266 86.82C444.693 87.0467 445.046 87.3467 445.326 87.72C445.619 88.0933 445.766 88.5867 445.766 89.2C445.766 90.04 445.439 90.76 444.786 91.36C444.133 91.9467 443.186 92.24 441.946 92.24ZM447.819 92V82.18H450.119V92H447.819ZM448.979 80.46C448.566 80.46 448.233 80.34 447.979 80.1C447.726 79.86 447.599 79.54 447.599 79.14C447.599 78.7533 447.726 78.44 447.979 78.2C448.233 77.96 448.566 77.84 448.979 77.84C449.393 77.84 449.726 77.96 449.979 78.2C450.233 78.44 450.359 78.7533 450.359 79.14C450.359 79.54 450.233 79.86 449.979 80.1C449.726 80.34 449.393 80.46 448.979 80.46ZM453.454 92V84H452.134V82.28L453.454 82.18V81.16C453.454 80.1333 453.707 79.2933 454.214 78.64C454.72 77.9733 455.554 77.64 456.714 77.64C457.06 77.64 457.394 77.6733 457.714 77.74C458.034 77.8067 458.3 77.8867 458.514 77.98L458.074 79.7C457.714 79.54 457.354 79.46 456.994 79.46C456.167 79.46 455.754 80.0133 455.754 81.12V82.18H457.674V84H455.754V92H453.454ZM459.401 92V82.18H461.701V92H459.401ZM460.561 80.46C460.148 80.46 459.815 80.34 459.561 80.1C459.308 79.86 459.181 79.54 459.181 79.14C459.181 78.7533 459.308 78.44 459.561 78.2C459.815 77.96 460.148 77.84 460.561 77.84C460.975 77.84 461.308 77.96 461.561 78.2C461.815 78.44 461.941 78.7533 461.941 79.14C461.941 79.54 461.815 79.86 461.561 80.1C461.308 80.34 460.975 80.46 460.561 80.46ZM468.736 92.24C467.842 92.24 467.036 92.04 466.316 91.64C465.609 91.2267 465.042 90.64 464.616 89.88C464.202 89.1067 463.996 88.18 463.996 87.1C463.996 86.0067 464.222 85.08 464.676 84.32C465.129 83.5467 465.729 82.96 466.476 82.56C467.236 82.1467 468.049 81.94 468.916 81.94C469.542 81.94 470.089 82.0467 470.556 82.26C471.022 82.4733 471.436 82.7333 471.796 83.04L470.676 84.54C470.422 84.3133 470.162 84.14 469.896 84.02C469.629 83.8867 469.342 83.82 469.036 83.82C468.249 83.82 467.602 84.12 467.096 84.72C466.602 85.32 466.356 86.1133 466.356 87.1C466.356 88.0733 466.596 88.86 467.076 89.46C467.569 90.06 468.202 90.36 468.976 90.36C469.362 90.36 469.722 90.28 470.056 90.12C470.402 89.9467 470.716 89.7467 470.996 89.52L471.936 91.04C471.482 91.44 470.976 91.74 470.416 91.94C469.856 92.14 469.296 92.24 468.736 92.24ZM476.059 92.24C475.205 92.24 474.505 91.9733 473.959 91.44C473.425 90.9067 473.159 90.2133 473.159 89.36C473.159 88.3067 473.619 87.4933 474.539 86.92C475.459 86.3333 476.925 85.9333 478.939 85.72C478.925 85.2 478.785 84.7533 478.519 84.38C478.265 83.9933 477.805 83.8 477.139 83.8C476.659 83.8 476.185 83.8933 475.719 84.08C475.265 84.2667 474.819 84.4933 474.379 84.76L473.539 83.22C474.085 82.8733 474.699 82.5733 475.379 82.32C476.072 82.0667 476.805 81.94 477.579 81.94C478.805 81.94 479.719 82.3067 480.319 83.04C480.932 83.76 481.239 84.8067 481.239 86.18V92H479.339L479.179 90.92H479.099C478.659 91.2933 478.185 91.6067 477.679 91.86C477.185 92.1133 476.645 92.24 476.059 92.24ZM476.799 90.44C477.199 90.44 477.559 90.3467 477.879 90.16C478.212 89.96 478.565 89.6933 478.939 89.36V87.16C477.605 87.3333 476.679 87.5933 476.159 87.94C475.639 88.2733 475.379 88.6867 475.379 89.18C475.379 89.62 475.512 89.94 475.779 90.14C476.045 90.34 476.385 90.44 476.799 90.44ZM487.139 92.24C486.005 92.24 485.199 91.9133 484.719 91.26C484.252 90.5933 484.019 89.7333 484.019 88.68V84H482.619V82.28L484.139 82.18L484.419 79.5H486.339V82.18H488.839V84H486.339V88.68C486.339 89.8267 486.799 90.4 487.719 90.4C487.892 90.4 488.072 90.38 488.259 90.34C488.445 90.2867 488.605 90.2333 488.739 90.18L489.139 91.88C488.872 91.9733 488.565 92.0533 488.219 92.12C487.885 92.2 487.525 92.24 487.139 92.24ZM490.905 92V82.18H493.205V92H490.905ZM492.065 80.46C491.652 80.46 491.319 80.34 491.065 80.1C490.812 79.86 490.685 79.54 490.685 79.14C490.685 78.7533 490.812 78.44 491.065 78.2C491.319 77.96 491.652 77.84 492.065 77.84C492.479 77.84 492.812 77.96 493.065 78.2C493.319 78.44 493.445 78.7533 493.445 79.14C493.445 79.54 493.319 79.86 493.065 80.1C492.812 80.34 492.479 80.46 492.065 80.46ZM500.16 92.24C499.346 92.24 498.586 92.04 497.88 91.64C497.173 91.2267 496.6 90.64 496.16 89.88C495.72 89.1067 495.5 88.18 495.5 87.1C495.5 86.0067 495.72 85.08 496.16 84.32C496.6 83.5467 497.173 82.96 497.88 82.56C498.586 82.1467 499.346 81.94 500.16 81.94C500.986 81.94 501.753 82.1467 502.46 82.56C503.166 82.96 503.74 83.5467 504.18 84.32C504.62 85.08 504.84 86.0067 504.84 87.1C504.84 88.18 504.62 89.1067 504.18 89.88C503.74 90.64 503.166 91.2267 502.46 91.64C501.753 92.04 500.986 92.24 500.16 92.24ZM500.16 90.36C500.88 90.36 501.446 90.06 501.86 89.46C502.273 88.86 502.48 88.0733 502.48 87.1C502.48 86.1133 502.273 85.32 501.86 84.72C501.446 84.12 500.88 83.82 500.16 83.82C499.44 83.82 498.873 84.12 498.46 84.72C498.06 85.32 497.86 86.1133 497.86 87.1C497.86 88.0733 498.06 88.86 498.46 89.46C498.873 90.06 499.44 90.36 500.16 90.36ZM507.116 92V82.18H509.016L509.176 83.5H509.256C509.696 83.0733 510.176 82.7067 510.696 82.4C511.216 82.0933 511.81 81.94 512.476 81.94C513.53 81.94 514.296 82.28 514.776 82.96C515.256 83.64 515.496 84.6 515.496 85.84V92H513.196V86.14C513.196 85.3267 513.076 84.7533 512.836 84.42C512.596 84.0867 512.203 83.92 511.656 83.92C511.23 83.92 510.85 84.0267 510.516 84.24C510.196 84.44 509.83 84.74 509.416 85.14V92H507.116Z" fill="#232A3D"/>
<rect x="80" y="287" width="18" height="18" fill="#1F69FF"/>
<rect x="56" y="258" width="18" height="18" fill="#1F69FF"/>
<rect x="90" y="249" width="18" height="18" fill="#1F69FF"/>
<rect x="108" y="278" width="18" height="18" fill="#1F69FF"/>
<rect x="380.208" y="279.313" width="18" height="18" transform="rotate(47.2036 380.208 279.313)" fill="#1F69FF"/>
<rect x="385.182" y="242" width="18" height="18" transform="rotate(47.2036 385.182 242)" fill="#1F69FF"/>
<rect x="414.885" y="260.834" width="18" height="18" transform="rotate(47.2036 414.885 260.834)" fill="#1F69FF"/>
<rect x="405.835" y="293.744" width="18" height="18" transform="rotate(47.2036 405.835 293.744)" fill="#1F69FF"/>
<circle cx="180" cy="180" r="10" fill="#9B51E0"/>
<circle cx="174" cy="211" r="10" fill="#9B51E0"/>
<circle cx="214" cy="205" r="10" fill="#9B51E0"/>
<circle cx="204" cy="231" r="10" fill="#9B51E0"/>
<path d="M511 261L521.392 279H500.608L511 261Z" fill="#F7E08E"/>
<path d="M537 261L547.392 279H526.608L537 261Z" fill="#F7E08E"/>
<path d="M533 290L543.392 308H522.608L533 290Z" fill="#F7E08E"/>
<path d="M501 290L511.392 308H490.608L501 290Z" fill="#F7E08E"/>
<circle cx="300" cy="78" r="32" fill="#232A3D"/>
<path d="M288.14 86L283.244 70.304H286.196L288.404 78.2C288.66 79.08 288.892 79.928 289.1 80.744C289.308 81.56 289.54 82.416 289.796 83.312H289.892C290.164 82.416 290.396 81.56 290.588 80.744C290.796 79.928 291.02 79.08 291.26 78.2L293.444 70.304H296.3L291.428 86H288.14ZM302.549 86.288C301.493 86.288 300.469 86.088 299.477 85.688C298.501 85.288 297.637 84.72 296.885 83.984L298.517 82.088C299.077 82.616 299.717 83.048 300.437 83.384C301.157 83.704 301.877 83.864 302.597 83.864C303.493 83.864 304.173 83.68 304.637 83.312C305.101 82.944 305.333 82.456 305.333 81.848C305.333 81.192 305.101 80.72 304.637 80.432C304.189 80.144 303.613 79.848 302.909 79.544L300.749 78.608C300.237 78.384 299.733 78.096 299.237 77.744C298.757 77.392 298.357 76.944 298.037 76.4C297.733 75.856 297.581 75.2 297.581 74.432C297.581 73.6 297.805 72.856 298.253 72.2C298.717 71.528 299.341 71 300.125 70.616C300.925 70.216 301.837 70.016 302.861 70.016C303.773 70.016 304.653 70.2 305.501 70.568C306.349 70.92 307.077 71.4 307.685 72.008L306.269 73.784C305.773 73.368 305.245 73.04 304.685 72.8C304.141 72.56 303.533 72.44 302.861 72.44C302.125 72.44 301.525 72.608 301.061 72.944C300.613 73.264 300.389 73.712 300.389 74.288C300.389 74.688 300.501 75.024 300.725 75.296C300.965 75.552 301.277 75.776 301.661 75.968C302.045 76.144 302.453 76.32 302.885 76.496L305.021 77.384C305.949 77.784 306.709 78.312 307.301 78.968C307.893 79.608 308.189 80.496 308.189 81.632C308.189 82.48 307.965 83.256 307.517 83.96C307.069 84.664 306.421 85.232 305.573 85.664C304.741 86.08 303.733 86.288 302.549 86.288ZM312.363 86.288C311.867 86.288 311.443 86.112 311.091 85.76C310.739 85.408 310.563 84.96 310.563 84.416C310.563 83.872 310.739 83.424 311.091 83.072C311.443 82.72 311.867 82.544 312.363 82.544C312.875 82.544 313.299 82.72 313.635 83.072C313.971 83.424 314.139 83.872 314.139 84.416C314.139 84.96 313.971 85.408 313.635 85.76C313.299 86.112 312.875 86.288 312.363 86.288Z" fill="white"/>
<path d="M146 177L146 331" stroke="#232A3D" stroke-width="1.5" stroke-linecap="round"/>
<path d="M267 332L25 331" stroke="#232A3D" stroke-width="1.5" stroke-linecap="square"/>
<line x1="267.5" y1="331.5" x2="267.5" y2="328.5" stroke="#232A3D" stroke-linecap="round"/>
<line x1="244.5" y1="331.5" x2="244.5" y2="328.5" stroke="#232A3D" stroke-linecap="round"/>
<line x1="222.5" y1="331.5" x2="222.5" y2="328.5" stroke="#232A3D" stroke-linecap="round"/>
<line x1="200.5" y1="331.5" x2="200.5" y2="328.5" stroke="#232A3D" stroke-linecap="round"/>
<line x1="178.5" y1="331.5" x2="178.5" y2="328.5" stroke="#232A3D" stroke-linecap="round"/>
<line x1="156.5" y1="331.5" x2="156.5" y2="328.5" stroke="#232A3D" stroke-linecap="round"/>
<line x1="144.5" y1="308.5" x2="147.5" y2="308.5" stroke="#232A3D" stroke-linecap="round"/>
<line x1="144.5" y1="264.5" x2="147.5" y2="264.5" stroke="#232A3D" stroke-linecap="round"/>
<line x1="144.5" y1="220.5" x2="147.5" y2="220.5" stroke="#232A3D" stroke-linecap="round"/>
<line x1="144.5" y1="286.5" x2="147.5" y2="286.5" stroke="#232A3D" stroke-linecap="round"/>
<line x1="144.5" y1="242.5" x2="147.5" y2="242.5" stroke="#232A3D" stroke-linecap="round"/>
<line x1="144.5" y1="198.5" x2="147.5" y2="198.5" stroke="#232A3D" stroke-linecap="round"/>
<line x1="144.5" y1="176.5" x2="147.5" y2="176.5" stroke="#232A3D" stroke-linecap="round"/>
<line x1="134.5" y1="331.5" x2="134.5" y2="328.5" stroke="#232A3D" stroke-linecap="round"/>
<line x1="112.5" y1="331.5" x2="112.5" y2="328.5" stroke="#232A3D" stroke-linecap="round"/>
<line x1="90.5" y1="331.5" x2="90.5" y2="328.5" stroke="#232A3D" stroke-linecap="round"/>
<line x1="68.5" y1="331.5" x2="68.5" y2="328.5" stroke="#232A3D" stroke-linecap="round"/>
<line x1="46.5" y1="331.5" x2="46.5" y2="328.5" stroke="#232A3D" stroke-linecap="round"/>
<line x1="24.5" y1="331.5" x2="24.5" y2="328.5" stroke="#232A3D" stroke-linecap="round"/>
<path d="M457 177L457 331" stroke="#232A3D" stroke-width="1.5" stroke-linecap="round"/>
<path d="M578 332L336 331" stroke="#232A3D" stroke-width="1.5" stroke-linecap="square"/>
<line x1="578.5" y1="331.5" x2="578.5" y2="328.5" stroke="#232A3D" stroke-linecap="round"/>
<line x1="555.5" y1="331.5" x2="555.5" y2="328.5" stroke="#232A3D" stroke-linecap="round"/>
<line x1="533.5" y1="331.5" x2="533.5" y2="328.5" stroke="#232A3D" stroke-linecap="round"/>
<line x1="511.5" y1="331.5" x2="511.5" y2="328.5" stroke="#232A3D" stroke-linecap="round"/>
<line x1="489.5" y1="331.5" x2="489.5" y2="328.5" stroke="#232A3D" stroke-linecap="round"/>
<line x1="467.5" y1="331.5" x2="467.5" y2="328.5" stroke="#232A3D" stroke-linecap="round"/>
<line x1="455.5" y1="308.5" x2="458.5" y2="308.5" stroke="#232A3D" stroke-linecap="round"/>
<line x1="455.5" y1="264.5" x2="458.5" y2="264.5" stroke="#232A3D" stroke-linecap="round"/>
<line x1="455.5" y1="220.5" x2="458.5" y2="220.5" stroke="#232A3D" stroke-linecap="round"/>
<line x1="455.5" y1="176.5" x2="458.5" y2="176.5" stroke="#232A3D" stroke-linecap="round"/>
<line x1="455.5" y1="286.5" x2="458.5" y2="286.5" stroke="#232A3D" stroke-linecap="round"/>
<line x1="455.5" y1="242.5" x2="458.5" y2="242.5" stroke="#232A3D" stroke-linecap="round"/>
<line x1="455.5" y1="198.5" x2="458.5" y2="198.5" stroke="#232A3D" stroke-linecap="round"/>
<line x1="445.5" y1="331.5" x2="445.5" y2="328.5" stroke="#232A3D" stroke-linecap="round"/>
<line x1="423.5" y1="331.5" x2="423.5" y2="328.5" stroke="#232A3D" stroke-linecap="round"/>
<line x1="401.5" y1="331.5" x2="401.5" y2="328.5" stroke="#232A3D" stroke-linecap="round"/>
<line x1="379.5" y1="331.5" x2="379.5" y2="328.5" stroke="#232A3D" stroke-linecap="round"/>
<line x1="357.5" y1="331.5" x2="357.5" y2="328.5" stroke="#232A3D" stroke-linecap="round"/>
<line x1="335.5" y1="331.5" x2="335.5" y2="328.5" stroke="#232A3D" stroke-linecap="round"/>
<circle cx="460" cy="193" r="10" fill="#9B51E0"/>
<circle cx="440" cy="219" r="10" fill="#9B51E0"/>
<circle cx="480" cy="213" r="10" fill="#9B51E0"/>
<circle cx="470" cy="239" r="10" fill="#9B51E0"/>
</svg>
