<svg width="420" height="56" viewBox="0 0 420 56" fill="none" xmlns="http://www.w3.org/2000/svg">
<g clip-path="url(#clip0_32_73)">
<rect width="420" height="56" fill="white"/>
<rect x="170" y="-28" width="78" height="36" fill="white"/>
<g filter="url(#filter0_d_32_73)">
<rect x="170" y="-28" width="78" height="36" fill="#9F6336"/>
</g>
<g filter="url(#filter1_d_32_73)">
<rect x="70" y="56" width="78" height="36" fill="white"/>
<rect x="70.5" y="56.5" width="77" height="35" stroke="#209766"/>
</g>
<g filter="url(#filter2_d_32_73)">
<rect x="270" y="56" width="78" height="36" fill="white"/>
<rect x="270.5" y="56.5" width="77" height="35" stroke="#C74E4E"/>
</g>
<path d="M210 13C210 12.4477 209.552 12 209 12C208.448 12 208 12.4477 208 13H210ZM108.293 54.7071C108.683 55.0976 109.317 55.0976 109.707 54.7071L116.071 48.3431C116.462 47.9526 116.462 47.3195 116.071 46.9289C115.681 46.5384 115.047 46.5384 114.657 46.9289L109 52.5858L103.343 46.9289C102.953 46.5384 102.319 46.5384 101.929 46.9289C101.538 47.3195 101.538 47.9526 101.929 48.3431L108.293 54.7071ZM208 13C208 17.6366 206.525 20.9865 204.003 23.461C201.449 25.9661 197.74 27.6548 193.139 28.7704C183.911 31.0083 171.559 30.8439 159.002 30.8125C146.543 30.7814 133.881 30.8818 124.335 33.7694C119.544 35.2188 115.447 37.3949 112.546 40.6877C109.629 44.0004 108 48.3556 108 54H110C110 48.7694 111.496 44.9059 114.047 42.0096C116.616 39.0933 120.331 37.0702 124.915 35.6837C134.119 32.8995 146.457 32.7811 158.997 32.8125C171.441 32.8436 184.089 33.023 193.611 30.714C198.385 29.5561 202.488 27.7487 205.403 24.8886C208.35 21.9979 210 18.1134 210 13H208Z" fill="url(#paint0_linear_32_73)"/>
<path d="M208 13C208 12.4477 208.448 12 209 12C209.552 12 210 12.4477 210 13H208ZM309.707 54.7071C309.317 55.0976 308.683 55.0976 308.293 54.7071L301.929 48.3431C301.538 47.9526 301.538 47.3195 301.929 46.9289C302.319 46.5384 302.953 46.5384 303.343 46.9289L309 52.5858L314.657 46.9289C315.047 46.5384 315.681 46.5384 316.071 46.9289C316.462 47.3195 316.462 47.9526 316.071 48.3431L309.707 54.7071ZM210 13C210 17.6366 211.475 20.9865 213.997 23.461C216.551 25.9661 220.26 27.6548 224.861 28.7704C234.089 31.0083 246.441 30.8439 258.998 30.8125C271.457 30.7814 284.119 30.8818 293.665 33.7694C298.456 35.2188 302.553 37.3949 305.454 40.6877C308.371 44.0004 310 48.3556 310 54H308C308 48.7694 306.504 44.9059 303.953 42.0096C301.384 39.0933 297.669 37.0702 293.085 35.6837C283.881 32.8995 271.543 32.7811 259.003 32.8125C246.559 32.8436 233.911 33.023 224.389 30.714C219.615 29.5561 215.512 27.7487 212.597 24.8886C209.65 21.9979 208 18.1134 208 13H210Z" fill="url(#paint1_linear_32_73)"/>
<path d="M102.955 22V15.328H100.687V14.152H106.615V15.328H104.347V22H102.955ZM107.274 22V16.108H108.414L108.51 17.152H108.558C108.766 16.768 109.018 16.476 109.314 16.276C109.61 16.068 109.914 15.964 110.226 15.964C110.506 15.964 110.73 16.004 110.898 16.084L110.658 17.284C110.554 17.252 110.458 17.228 110.37 17.212C110.282 17.196 110.174 17.188 110.046 17.188C109.814 17.188 109.57 17.28 109.314 17.464C109.058 17.64 108.838 17.952 108.654 18.4V22H107.274ZM113.503 22.144C112.871 22.144 112.411 21.94 112.123 21.532C111.835 21.124 111.691 20.548 111.691 19.804V16.108H113.071V19.624C113.071 20.112 113.143 20.456 113.287 20.656C113.431 20.856 113.663 20.956 113.983 20.956C114.239 20.956 114.463 20.892 114.655 20.764C114.855 20.636 115.067 20.428 115.291 20.14V16.108H116.671V22H115.543L115.435 21.136H115.399C115.143 21.44 114.863 21.684 114.559 21.868C114.255 22.052 113.903 22.144 113.503 22.144ZM120.939 22.144C120.395 22.144 119.903 22.024 119.463 21.784C119.023 21.536 118.675 21.184 118.419 20.728C118.163 20.264 118.035 19.708 118.035 19.06C118.035 18.42 118.163 17.868 118.419 17.404C118.683 16.94 119.023 16.584 119.439 16.336C119.855 16.088 120.291 15.964 120.747 15.964C121.283 15.964 121.731 16.084 122.091 16.324C122.451 16.556 122.723 16.884 122.907 17.308C123.091 17.724 123.183 18.208 123.183 18.76C123.183 19.048 123.163 19.272 123.123 19.432H119.379C119.443 19.952 119.631 20.356 119.943 20.644C120.255 20.932 120.647 21.076 121.119 21.076C121.375 21.076 121.611 21.04 121.827 20.968C122.051 20.888 122.271 20.78 122.487 20.644L122.955 21.508C122.675 21.692 122.363 21.844 122.019 21.964C121.675 22.084 121.315 22.144 120.939 22.144ZM119.367 18.496H121.983C121.983 18.04 121.883 17.684 121.683 17.428C121.483 17.164 121.183 17.032 120.783 17.032C120.439 17.032 120.131 17.16 119.859 17.416C119.595 17.664 119.431 18.024 119.367 18.496Z" fill="#209766"/>
<path d="M292.44 22V14.152H297.456V15.328H293.832V17.548H296.916V18.724H293.832V22H292.44ZM301.027 22.144C300.643 22.144 300.303 22.072 300.007 21.928C299.711 21.776 299.479 21.572 299.311 21.316C299.143 21.06 299.059 20.76 299.059 20.416C299.059 19.76 299.371 19.26 299.995 18.916C300.627 18.564 301.671 18.336 303.127 18.232C303.111 18.016 303.051 17.82 302.947 17.644C302.851 17.468 302.703 17.332 302.503 17.236C302.303 17.132 302.043 17.08 301.723 17.08C301.499 17.08 301.279 17.108 301.063 17.164C300.847 17.22 300.631 17.296 300.415 17.392C300.207 17.488 299.999 17.592 299.791 17.704L299.287 16.78C299.527 16.636 299.791 16.504 300.079 16.384C300.367 16.256 300.671 16.156 300.991 16.084C301.311 16.004 301.639 15.964 301.975 15.964C302.527 15.964 302.987 16.064 303.355 16.264C303.731 16.456 304.015 16.744 304.207 17.128C304.407 17.504 304.507 17.964 304.507 18.508V22H303.379L303.271 21.268H303.235C302.923 21.508 302.575 21.716 302.191 21.892C301.815 22.06 301.427 22.144 301.027 22.144ZM301.447 21.064C301.743 21.064 302.027 21 302.299 20.872C302.579 20.736 302.855 20.56 303.127 20.344V19.096C302.423 19.144 301.871 19.224 301.471 19.336C301.071 19.44 300.791 19.576 300.631 19.744C300.471 19.912 300.391 20.1 300.391 20.308C300.391 20.484 300.439 20.628 300.535 20.74C300.631 20.852 300.755 20.936 300.907 20.992C301.067 21.04 301.247 21.064 301.447 21.064ZM310.202 22.144C309.522 22.144 309.002 21.944 308.642 21.544C308.29 21.136 308.114 20.572 308.114 19.852V14.62H306.194V13.528H309.494V19.924C309.494 20.324 309.594 20.608 309.794 20.776C310.002 20.936 310.254 21.016 310.55 21.016C310.702 21.016 310.858 21 311.018 20.968C311.178 20.928 311.358 20.868 311.558 20.788L311.882 21.808C311.602 21.904 311.338 21.984 311.09 22.048C310.85 22.112 310.554 22.144 310.202 22.144ZM316.234 22.144C315.682 22.144 315.154 22.056 314.65 21.88C314.146 21.696 313.71 21.48 313.342 21.232L313.942 20.356C314.294 20.588 314.674 20.772 315.082 20.908C315.49 21.036 315.934 21.1 316.414 21.1C316.822 21.1 317.122 21.032 317.314 20.896C317.514 20.752 317.614 20.584 317.614 20.392C317.614 20.296 317.59 20.208 317.542 20.128C317.502 20.048 317.426 19.976 317.314 19.912C317.202 19.84 317.038 19.772 316.822 19.708C316.606 19.644 316.326 19.576 315.982 19.504C315.198 19.336 314.622 19.108 314.254 18.82C313.886 18.532 313.702 18.168 313.702 17.728C313.702 17.208 313.926 16.784 314.374 16.456C314.83 16.128 315.47 15.964 316.294 15.964C316.782 15.964 317.238 16.044 317.662 16.204C318.094 16.364 318.458 16.544 318.754 16.744L318.118 17.596C317.838 17.404 317.53 17.26 317.194 17.164C316.858 17.06 316.518 17.008 316.174 17.008C315.91 17.008 315.698 17.036 315.538 17.092C315.386 17.148 315.27 17.228 315.19 17.332C315.118 17.428 315.082 17.536 315.082 17.656C315.082 17.864 315.202 18.02 315.442 18.124C315.682 18.228 316.074 18.34 316.618 18.46C317.25 18.596 317.738 18.752 318.082 18.928C318.426 19.096 318.662 19.292 318.79 19.516C318.926 19.732 318.994 20 318.994 20.32C318.994 20.656 318.886 20.964 318.67 21.244C318.462 21.516 318.154 21.736 317.746 21.904C317.338 22.064 316.834 22.144 316.234 22.144ZM323.753 22.144C323.153 22.144 322.609 22.024 322.121 21.784C321.633 21.536 321.245 21.184 320.957 20.728C320.669 20.264 320.525 19.704 320.525 19.048C320.525 18.408 320.669 17.86 320.957 17.404C321.245 16.94 321.621 16.584 322.085 16.336C322.549 16.088 323.045 15.964 323.573 15.964C324.157 15.964 324.649 16.084 325.049 16.324C325.457 16.564 325.765 16.896 325.973 17.32C326.189 17.736 326.297 18.216 326.297 18.76C326.297 18.896 326.289 19.028 326.273 19.156C326.265 19.276 326.253 19.376 326.237 19.456H321.521V18.472H325.349L325.085 18.784C325.085 18.2 324.953 17.764 324.689 17.476C324.433 17.18 324.073 17.032 323.609 17.032C323.281 17.032 322.985 17.108 322.721 17.26C322.465 17.412 322.261 17.64 322.109 17.944C321.957 18.24 321.881 18.608 321.881 19.048C321.881 19.504 321.965 19.88 322.133 20.176C322.309 20.472 322.549 20.696 322.853 20.848C323.165 21 323.525 21.076 323.933 21.076C324.245 21.076 324.533 21.032 324.797 20.944C325.061 20.856 325.325 20.736 325.589 20.584L326.057 21.448C325.745 21.648 325.393 21.816 325.001 21.952C324.609 22.08 324.193 22.144 323.753 22.144Z" fill="#C74E4E"/>
</g>
<defs>
<filter id="filter0_d_32_73" x="166" y="-31" width="86" height="44" filterUnits="userSpaceOnUse" color-interpolation-filters="sRGB">
<feFlood flood-opacity="0" result="BackgroundImageFix"/>
<feColorMatrix in="SourceAlpha" type="matrix" values="0 0 0 0 0 0 0 0 0 0 0 0 0 0 0 0 0 0 127 0" result="hardAlpha"/>
<feOffset dy="1"/>
<feGaussianBlur stdDeviation="2"/>
<feComposite in2="hardAlpha" operator="out"/>
<feColorMatrix type="matrix" values="0 0 0 0 0 0 0 0 0 0 0 0 0 0 0 0 0 0 0.15 0"/>
<feBlend mode="normal" in2="BackgroundImageFix" result="effect1_dropShadow_32_73"/>
<feBlend mode="normal" in="SourceGraphic" in2="effect1_dropShadow_32_73" result="shape"/>
</filter>
<filter id="filter1_d_32_73" x="66" y="53" width="86" height="44" filterUnits="userSpaceOnUse" color-interpolation-filters="sRGB">
<feFlood flood-opacity="0" result="BackgroundImageFix"/>
<feColorMatrix in="SourceAlpha" type="matrix" values="0 0 0 0 0 0 0 0 0 0 0 0 0 0 0 0 0 0 127 0" result="hardAlpha"/>
<feOffset dy="1"/>
<feGaussianBlur stdDeviation="2"/>
<feComposite in2="hardAlpha" operator="out"/>
<feColorMatrix type="matrix" values="0 0 0 0 0 0 0 0 0 0 0 0 0 0 0 0 0 0 0.15 0"/>
<feBlend mode="normal" in2="BackgroundImageFix" result="effect1_dropShadow_32_73"/>
<feBlend mode="normal" in="SourceGraphic" in2="effect1_dropShadow_32_73" result="shape"/>
</filter>
<filter id="filter2_d_32_73" x="266" y="53" width="86" height="44" filterUnits="userSpaceOnUse" color-interpolation-filters="sRGB">
<feFlood flood-opacity="0" result="BackgroundImageFix"/>
<feColorMatrix in="SourceAlpha" type="matrix" values="0 0 0 0 0 0 0 0 0 0 0 0 0 0 0 0 0 0 127 0" result="hardAlpha"/>
<feOffset dy="1"/>
<feGaussianBlur stdDeviation="2"/>
<feComposite in2="hardAlpha" operator="out"/>
<feColorMatrix type="matrix" values="0 0 0 0 0 0 0 0 0 0 0 0 0 0 0 0 0 0 0.15 0"/>
<feBlend mode="normal" in2="BackgroundImageFix" result="effect1_dropShadow_32_73"/>
<feBlend mode="normal" in="SourceGraphic" in2="effect1_dropShadow_32_73" result="shape"/>
</filter>
<linearGradient id="paint0_linear_32_73" x1="110" y1="56" x2="209" y2="12" gradientUnits="userSpaceOnUse">
<stop stop-color="#209766"/>
<stop offset="1" stop-color="#209766" stop-opacity="0.2"/>
</linearGradient>
<linearGradient id="paint1_linear_32_73" x1="308" y1="56" x2="209" y2="12" gradientUnits="userSpaceOnUse">
<stop stop-color="#C74E4E"/>
<stop offset="1" stop-color="#C74E4E" stop-opacity="0.2"/>
</linearGradient>
<clipPath id="clip0_32_73">
<rect width="420" height="56" fill="white"/>
</clipPath>
</defs>
</svg>
