<svg width="323" height="360" viewBox="0 0 323 360" fill="none" xmlns="http://www.w3.org/2000/svg">
<rect width="323" height="360" fill="white"/>
<rect x="67" y="19" width="78" height="36" fill="white"/>
<rect x="113" y="109" width="78" height="36" fill="white"/>
<rect x="160" y="199" width="78" height="36" fill="white"/>
<rect x="207" y="289" width="78" height="36" fill="white"/>
<rect x="19" y="109" width="78" height="36" fill="white"/>
<rect x="66" y="199" width="78" height="36" fill="white"/>
<rect x="113" y="289" width="78" height="36" fill="white"/>
<g filter="url(#filter0_d_33_109)">
<rect x="67" y="19" width="78" height="36" fill="#9F6336"/>
</g>
<path d="M82.3484 40V32.152H84.7844C85.3204 32.152 85.7964 32.216 86.2124 32.344C86.6364 32.464 86.9684 32.664 87.2084 32.944C87.4484 33.224 87.5684 33.604 87.5684 34.084C87.5684 34.452 87.4564 34.8 87.2324 35.128C87.0164 35.448 86.6764 35.668 86.2124 35.788V35.836C86.7804 35.932 87.2164 36.132 87.5204 36.436C87.8244 36.74 87.9764 37.16 87.9764 37.696C87.9764 38.216 87.8484 38.648 87.5924 38.992C87.3364 39.336 86.9804 39.592 86.5244 39.76C86.0764 39.92 85.5644 40 84.9884 40H82.3484ZM83.7404 35.38H84.6644C85.2084 35.38 85.6004 35.284 85.8404 35.092C86.0804 34.9 86.2004 34.62 86.2004 34.252C86.2004 33.892 86.0764 33.64 85.8284 33.496C85.5804 33.344 85.2004 33.268 84.6884 33.268H83.7404V35.38ZM83.7404 38.884H84.8444C85.4204 38.884 85.8564 38.784 86.1524 38.584C86.4564 38.376 86.6084 38.048 86.6084 37.6C86.6084 37.192 86.4604 36.896 86.1644 36.712C85.8684 36.528 85.4284 36.436 84.8444 36.436H83.7404V38.884ZM91.3317 40.144C90.9477 40.144 90.6077 40.072 90.3117 39.928C90.0157 39.776 89.7837 39.572 89.6157 39.316C89.4477 39.06 89.3637 38.76 89.3637 38.416C89.3637 37.76 89.6757 37.26 90.2997 36.916C90.9317 36.564 91.9757 36.336 93.4317 36.232C93.4157 36.016 93.3557 35.82 93.2517 35.644C93.1557 35.468 93.0077 35.332 92.8077 35.236C92.6077 35.132 92.3477 35.08 92.0277 35.08C91.8037 35.08 91.5837 35.108 91.3677 35.164C91.1517 35.22 90.9357 35.296 90.7197 35.392C90.5117 35.488 90.3037 35.592 90.0957 35.704L89.5917 34.78C89.8317 34.636 90.0957 34.504 90.3837 34.384C90.6717 34.256 90.9757 34.156 91.2957 34.084C91.6157 34.004 91.9437 33.964 92.2797 33.964C92.8317 33.964 93.2917 34.064 93.6597 34.264C94.0357 34.456 94.3197 34.744 94.5117 35.128C94.7117 35.504 94.8117 35.964 94.8117 36.508V40H93.6837L93.5757 39.268H93.5397C93.2277 39.508 92.8797 39.716 92.4957 39.892C92.1197 40.06 91.7317 40.144 91.3317 40.144ZM91.7517 39.064C92.0477 39.064 92.3317 39 92.6037 38.872C92.8837 38.736 93.1597 38.56 93.4317 38.344V37.096C92.7277 37.144 92.1757 37.224 91.7757 37.336C91.3757 37.44 91.0957 37.576 90.9357 37.744C90.7757 37.912 90.6957 38.1 90.6957 38.308C90.6957 38.484 90.7437 38.628 90.8397 38.74C90.9357 38.852 91.0597 38.936 91.2117 38.992C91.3717 39.04 91.5517 39.064 91.7517 39.064ZM96.691 40V34.108H97.831L97.939 34.996H97.987C98.267 34.708 98.575 34.464 98.911 34.264C99.255 34.064 99.655 33.964 100.111 33.964C100.791 33.964 101.291 34.172 101.611 34.588C101.931 35.004 102.091 35.592 102.091 36.352V40H100.699V36.532C100.699 36.06 100.615 35.712 100.447 35.488C100.279 35.264 99.995 35.152 99.595 35.152C99.307 35.152 99.051 35.22 98.827 35.356C98.603 35.492 98.355 35.7 98.083 35.98V40H96.691ZM103.886 40V34.108H105.026L105.134 34.996H105.182C105.462 34.708 105.77 34.464 106.106 34.264C106.45 34.064 106.85 33.964 107.306 33.964C107.986 33.964 108.486 34.172 108.806 34.588C109.126 35.004 109.286 35.592 109.286 36.352V40H107.894V36.532C107.894 36.06 107.81 35.712 107.642 35.488C107.474 35.264 107.19 35.152 106.79 35.152C106.502 35.152 106.246 35.22 106.022 35.356C105.798 35.492 105.55 35.7 105.278 35.98V40H103.886ZM114.058 40.144C113.458 40.144 112.914 40.024 112.426 39.784C111.938 39.536 111.55 39.184 111.262 38.728C110.974 38.264 110.83 37.704 110.83 37.048C110.83 36.408 110.974 35.86 111.262 35.404C111.55 34.94 111.926 34.584 112.39 34.336C112.854 34.088 113.35 33.964 113.878 33.964C114.462 33.964 114.954 34.084 115.354 34.324C115.762 34.564 116.07 34.896 116.278 35.32C116.494 35.736 116.602 36.216 116.602 36.76C116.602 36.896 116.594 37.028 116.578 37.156C116.57 37.276 116.558 37.376 116.542 37.456H111.826V36.472H115.654L115.39 36.784C115.39 36.2 115.258 35.764 114.994 35.476C114.738 35.18 114.378 35.032 113.914 35.032C113.586 35.032 113.29 35.108 113.026 35.26C112.77 35.412 112.566 35.64 112.414 35.944C112.262 36.24 112.186 36.608 112.186 37.048C112.186 37.504 112.27 37.88 112.438 38.176C112.614 38.472 112.854 38.696 113.158 38.848C113.47 39 113.83 39.076 114.238 39.076C114.55 39.076 114.838 39.032 115.102 38.944C115.366 38.856 115.63 38.736 115.894 38.584L116.362 39.448C116.05 39.648 115.698 39.816 115.306 39.952C114.914 40.08 114.498 40.144 114.058 40.144ZM120.449 40.144C119.697 40.144 119.089 39.872 118.625 39.328C118.161 38.784 117.929 38.028 117.929 37.06C117.929 36.42 118.053 35.868 118.301 35.404C118.549 34.94 118.873 34.584 119.273 34.336C119.673 34.088 120.093 33.964 120.533 33.964C120.869 33.964 121.165 34.024 121.421 34.144C121.685 34.264 121.929 34.436 122.153 34.66H122.189L122.117 33.664V31.528H123.509V40H122.369L122.261 39.316H122.225C122.001 39.54 121.733 39.736 121.421 39.904C121.109 40.064 120.785 40.144 120.449 40.144ZM120.785 39.004C121.025 39.004 121.257 38.948 121.481 38.836C121.705 38.716 121.917 38.536 122.117 38.296V35.644C121.909 35.444 121.701 35.304 121.493 35.224C121.285 35.144 121.073 35.104 120.857 35.104C120.585 35.104 120.333 35.18 120.101 35.332C119.877 35.484 119.697 35.704 119.561 35.992C119.425 36.28 119.357 36.632 119.357 37.048C119.357 37.68 119.481 38.164 119.729 38.5C119.985 38.836 120.337 39.004 120.785 39.004ZM127.248 37.072C127.192 36.744 127.216 36.456 127.32 36.208C127.424 35.96 127.564 35.74 127.74 35.548C127.924 35.348 128.112 35.164 128.304 34.996C128.504 34.828 128.672 34.656 128.808 34.48C128.944 34.304 129.012 34.112 129.012 33.904C129.012 33.608 128.912 33.376 128.712 33.208C128.52 33.032 128.252 32.944 127.908 32.944C127.636 32.944 127.384 33 127.152 33.112C126.928 33.224 126.716 33.376 126.516 33.568L125.736 32.848C126.016 32.544 126.344 32.296 126.72 32.104C127.104 31.912 127.532 31.816 128.004 31.816C128.452 31.816 128.852 31.892 129.204 32.044C129.556 32.188 129.832 32.404 130.032 32.692C130.24 32.972 130.344 33.32 130.344 33.736C130.344 34.056 130.276 34.332 130.14 34.564C130.004 34.788 129.832 34.996 129.624 35.188C129.424 35.372 129.228 35.552 129.036 35.728C128.852 35.904 128.7 36.1 128.58 36.316C128.46 36.524 128.42 36.776 128.46 37.072H127.248ZM127.92 40.144C127.632 40.144 127.384 40.044 127.176 39.844C126.976 39.644 126.876 39.384 126.876 39.064C126.876 38.744 126.976 38.488 127.176 38.296C127.384 38.104 127.632 38.008 127.92 38.008C128.216 38.008 128.464 38.104 128.664 38.296C128.864 38.488 128.964 38.744 128.964 39.064C128.964 39.384 128.864 39.644 128.664 39.844C128.464 40.044 128.216 40.144 127.92 40.144Z" fill="white"/>
<g filter="url(#filter1_d_33_109)">
<rect x="19" y="109" width="78" height="36" fill="white"/>
<rect x="19.5" y="109.5" width="77" height="35" stroke="#209766"/>
</g>
<g filter="url(#filter2_d_33_109)">
<rect x="66" y="199" width="78" height="36" fill="white"/>
<rect x="66.5" y="199.5" width="77" height="35" stroke="#209766"/>
</g>
<g filter="url(#filter3_d_33_109)">
<rect x="113" y="289" width="78" height="36" fill="white"/>
<rect x="113.5" y="289.5" width="77" height="35" stroke="#209766"/>
</g>
<g filter="url(#filter4_d_33_109)">
<rect x="113" y="109" width="78" height="36" fill="white"/>
<rect x="113.5" y="109.5" width="77" height="35" stroke="#C74E4E"/>
</g>
<g filter="url(#filter5_d_33_109)">
<rect x="160" y="199" width="78" height="36" fill="white"/>
<rect x="160.5" y="199.5" width="77" height="35" stroke="#C74E4E"/>
</g>
<g filter="url(#filter6_d_33_109)">
<rect x="207" y="289" width="78" height="36" fill="white"/>
<rect x="207.5" y="289.5" width="77" height="35" stroke="#C74E4E"/>
</g>
<path d="M106.5 61C106.5 60.4477 106.052 60 105.5 60C104.948 60 104.5 60.4477 104.5 61H106.5ZM57.2929 103.707C57.6834 104.098 58.3166 104.098 58.7071 103.707L65.0711 97.3431C65.4616 96.9526 65.4616 96.3195 65.0711 95.9289C64.6805 95.5384 64.0474 95.5384 63.6569 95.9289L58 101.586L52.3431 95.9289C51.9526 95.5384 51.3195 95.5384 50.9289 95.9289C50.5384 96.3195 50.5384 96.9526 50.9289 97.3431L57.2929 103.707ZM104.5 61C104.5 65.782 103.771 69.2537 102.557 71.7856C101.354 74.2966 99.6531 75.9287 97.6087 77.0154C95.542 78.1141 93.0873 78.6742 90.365 78.9636C87.638 79.2535 84.7252 79.2654 81.7342 79.3126C75.8539 79.4055 69.6089 79.6187 64.8723 82.7349C60.022 85.9258 57 91.9561 57 103H59C59 92.2939 61.9154 87.0742 65.9715 84.4057C70.1411 81.6625 75.7711 81.407 81.7658 81.3124C84.7123 81.2659 87.737 81.2543 90.5764 80.9524C93.4205 80.65 96.1611 80.05 98.5475 78.7814C100.956 77.501 102.967 75.5589 104.361 72.65C105.745 69.762 106.5 65.968 106.5 61H104.5Z" fill="url(#paint0_linear_33_109)"/>
<path d="M153.5 151C153.5 150.448 153.052 150 152.5 150C151.948 150 151.5 150.448 151.5 151H153.5ZM104.293 193.707C104.683 194.098 105.317 194.098 105.707 193.707L112.071 187.343C112.462 186.953 112.462 186.319 112.071 185.929C111.681 185.538 111.047 185.538 110.657 185.929L105 191.586L99.3431 185.929C98.9526 185.538 98.3195 185.538 97.9289 185.929C97.5384 186.319 97.5384 186.953 97.9289 187.343L104.293 193.707ZM151.5 151C151.5 155.782 150.771 159.254 149.557 161.786C148.354 164.297 146.653 165.929 144.609 167.015C142.542 168.114 140.087 168.674 137.365 168.964C134.638 169.254 131.725 169.265 128.734 169.313C122.854 169.405 116.609 169.619 111.872 172.735C107.022 175.926 104 181.956 104 193H106C106 182.294 108.915 177.074 112.971 174.406C117.141 171.663 122.771 171.407 128.766 171.312C131.712 171.266 134.737 171.254 137.576 170.952C140.42 170.65 143.161 170.05 145.548 168.781C147.956 167.501 149.967 165.559 151.361 162.65C152.745 159.762 153.5 155.968 153.5 151H151.5Z" fill="url(#paint1_linear_33_109)"/>
<path d="M200.5 241C200.5 240.448 200.052 240 199.5 240C198.948 240 198.5 240.448 198.5 241H200.5ZM151.293 283.707C151.683 284.098 152.317 284.098 152.707 283.707L159.071 277.343C159.462 276.953 159.462 276.319 159.071 275.929C158.681 275.538 158.047 275.538 157.657 275.929L152 281.586L146.343 275.929C145.953 275.538 145.319 275.538 144.929 275.929C144.538 276.319 144.538 276.953 144.929 277.343L151.293 283.707ZM198.5 241C198.5 245.782 197.771 249.254 196.557 251.786C195.354 254.297 193.653 255.929 191.609 257.015C189.542 258.114 187.087 258.674 184.365 258.964C181.638 259.254 178.725 259.265 175.734 259.313C169.854 259.405 163.609 259.619 158.872 262.735C154.022 265.926 151 271.956 151 283H153C153 272.294 155.915 267.074 159.971 264.406C164.141 261.663 169.771 261.407 175.766 261.312C178.712 261.266 181.737 261.254 184.576 260.952C187.42 260.65 190.161 260.05 192.548 258.781C194.956 257.501 196.967 255.559 198.361 252.65C199.745 249.762 200.5 245.968 200.5 241H198.5Z" fill="url(#paint2_linear_33_109)"/>
<path d="M104.5 61C104.5 60.4477 104.948 60 105.5 60C106.052 60 106.5 60.4477 106.5 61H104.5ZM152.707 103.707C152.317 104.098 151.683 104.098 151.293 103.707L144.929 97.3431C144.538 96.9526 144.538 96.3195 144.929 95.9289C145.319 95.5384 145.953 95.5384 146.343 95.9289L152 101.586L157.657 95.9289C158.047 95.5384 158.681 95.5384 159.071 95.9289C159.462 96.3195 159.462 96.9526 159.071 97.3431L152.707 103.707ZM106.5 61C106.5 70.5476 109.328 74.8939 113.243 77.0196C115.261 78.1155 117.659 78.6747 120.321 78.9639C122.988 79.2535 125.837 79.2654 128.766 79.3126C134.522 79.4055 140.647 79.6183 145.292 82.7403C150.045 85.9346 153 91.9639 153 103H151C151 92.2861 148.142 87.0654 144.177 84.4003C140.103 81.663 134.604 81.407 128.734 81.3124C125.85 81.2659 122.887 81.2543 120.105 80.9522C117.318 80.6495 114.63 80.0485 112.288 78.7772C107.485 76.1686 104.5 70.9524 104.5 61H106.5Z" fill="url(#paint3_linear_33_109)"/>
<path d="M151.5 151C151.5 150.448 151.948 150 152.5 150C153.052 150 153.5 150.448 153.5 151H151.5ZM199.707 193.707C199.317 194.098 198.683 194.098 198.293 193.707L191.929 187.343C191.538 186.953 191.538 186.319 191.929 185.929C192.319 185.538 192.953 185.538 193.343 185.929L199 191.586L204.657 185.929C205.047 185.538 205.681 185.538 206.071 185.929C206.462 186.319 206.462 186.953 206.071 187.343L199.707 193.707ZM153.5 151C153.5 160.548 156.328 164.894 160.243 167.02C162.261 168.116 164.659 168.675 167.321 168.964C169.988 169.254 172.837 169.265 175.766 169.313C181.522 169.405 187.647 169.618 192.292 172.74C197.045 175.935 200 181.964 200 193H198C198 182.286 195.142 177.065 191.177 174.4C187.103 171.663 181.604 171.407 175.734 171.312C172.85 171.266 169.887 171.254 167.105 170.952C164.318 170.649 161.63 170.049 159.288 168.777C154.485 166.169 151.5 160.952 151.5 151H153.5Z" fill="url(#paint4_linear_33_109)"/>
<path d="M198.5 241C198.5 240.448 198.948 240 199.5 240C200.052 240 200.5 240.448 200.5 241H198.5ZM246.707 283.707C246.317 284.098 245.683 284.098 245.293 283.707L238.929 277.343C238.538 276.953 238.538 276.319 238.929 275.929C239.319 275.538 239.953 275.538 240.343 275.929L246 281.586L251.657 275.929C252.047 275.538 252.681 275.538 253.071 275.929C253.462 276.319 253.462 276.953 253.071 277.343L246.707 283.707ZM200.5 241C200.5 250.548 203.328 254.894 207.243 257.02C209.261 258.116 211.659 258.675 214.321 258.964C216.988 259.254 219.837 259.265 222.766 259.313C228.522 259.405 234.647 259.618 239.292 262.74C244.045 265.935 247 271.964 247 283H245C245 272.286 242.142 267.065 238.177 264.4C234.103 261.663 228.604 261.407 222.734 261.312C219.85 261.266 216.887 261.254 214.105 260.952C211.318 260.649 208.63 260.049 206.288 258.777C201.485 256.169 198.5 250.952 198.5 241H200.5Z" fill="url(#paint5_linear_33_109)"/>
<g filter="url(#filter7_d_33_109)">
<rect x="19" y="109" width="78" height="36" fill="#219867"/>
</g>
<path d="M63.0625 123.115L61.8851 121.938L58 125.823L54.1149 121.938L52.9375 123.115L56.8226 127L52.9375 130.885L54.1149 132.062L58 128.177L61.8851 132.062L63.0625 130.885L59.1774 127L63.0625 123.115Z" fill="white"/>
<g filter="url(#filter8_d_33_109)">
<rect x="67" y="199" width="78" height="36" fill="#219867"/>
</g>
<path d="M111.062 213.115L109.885 211.938L106 215.823L102.115 211.938L100.938 213.115L104.823 217L100.938 220.885L102.115 222.062L106 218.177L109.885 222.062L111.062 220.885L107.177 217L111.062 213.115Z" fill="white"/>
<g filter="url(#filter9_d_33_109)">
<rect x="113" y="289" width="78" height="36" fill="#219867"/>
</g>
<path d="M157.062 303.115L155.885 301.938L152 305.823L148.115 301.938L146.938 303.115L150.823 307L146.938 310.885L148.115 312.062L152 308.177L155.885 312.062L157.062 310.885L153.177 307L157.062 303.115Z" fill="white"/>
<rect x="207" y="289" width="78" height="36" fill="white"/>
<g filter="url(#filter10_d_33_109)">
<rect x="207" y="289" width="78" height="36" fill="white"/>
<rect x="207.5" y="289.5" width="77" height="35" stroke="#C74E4E"/>
</g>
<g filter="url(#filter11_d_33_109)">
<rect x="207" y="289" width="78" height="36" fill="#219867" fill-opacity="0.45" shape-rendering="crispEdges"/>
</g>
<path fill-rule="evenodd" clip-rule="evenodd" d="M254.463 301.919L244.542 313.257L239.535 308.25L240.75 307.035L244.458 310.743L253.169 300.787L254.463 301.919Z" fill="white"/>
<g filter="url(#filter12_d_33_109)">
<rect x="114" y="109" width="78" height="36" fill="#9F6336"/>
</g>
<g filter="url(#filter13_d_33_109)">
<rect x="160" y="199" width="78" height="36" fill="#9F6336"/>
</g>
<path d="M123.459 130L126.003 122.152H127.635L130.179 130H128.703L127.515 125.824C127.403 125.408 127.283 124.98 127.155 124.54C127.035 124.1 126.923 123.664 126.819 123.232H126.771C126.659 123.664 126.543 124.1 126.423 124.54C126.311 124.98 126.195 125.408 126.075 125.824L124.875 130H123.459ZM124.959 127.876V126.784H128.643V127.876H124.959ZM133.846 132.604C133.302 132.604 132.83 132.544 132.43 132.424C132.03 132.312 131.718 132.14 131.494 131.908C131.27 131.676 131.158 131.384 131.158 131.032C131.158 130.8 131.238 130.576 131.398 130.36C131.558 130.144 131.79 129.956 132.094 129.796V129.748C131.942 129.652 131.802 129.528 131.674 129.376C131.554 129.216 131.494 129.012 131.494 128.764C131.494 128.572 131.558 128.376 131.686 128.176C131.814 127.976 131.986 127.804 132.202 127.66V127.612C131.994 127.46 131.814 127.256 131.662 127C131.518 126.736 131.446 126.432 131.446 126.088C131.446 125.632 131.558 125.248 131.782 124.936C132.006 124.616 132.302 124.376 132.67 124.216C133.038 124.048 133.438 123.964 133.87 123.964C134.222 123.964 134.53 124.012 134.794 124.108H137.206V125.164H135.85C135.954 125.276 136.042 125.42 136.114 125.596C136.194 125.764 136.234 125.944 136.234 126.136C136.234 126.568 136.126 126.936 135.91 127.24C135.702 127.536 135.422 127.76 135.07 127.912C134.718 128.064 134.318 128.14 133.87 128.14C133.734 128.14 133.586 128.128 133.426 128.104C133.274 128.072 133.122 128.028 132.97 127.972C132.85 128.044 132.758 128.124 132.694 128.212C132.638 128.3 132.61 128.404 132.61 128.524C132.61 128.708 132.702 128.848 132.886 128.944C133.078 129.032 133.358 129.076 133.726 129.076H134.926C135.694 129.076 136.27 129.188 136.654 129.412C137.046 129.628 137.242 129.996 137.242 130.516C137.242 130.9 137.102 131.252 136.822 131.572C136.55 131.892 136.158 132.144 135.646 132.328C135.142 132.512 134.542 132.604 133.846 132.604ZM133.87 127.264C134.078 127.264 134.266 127.22 134.434 127.132C134.602 127.036 134.734 126.9 134.83 126.724C134.934 126.548 134.986 126.336 134.986 126.088C134.986 125.848 134.934 125.644 134.83 125.476C134.734 125.3 134.602 125.164 134.434 125.068C134.266 124.972 134.078 124.924 133.87 124.924C133.67 124.924 133.486 124.972 133.318 125.068C133.15 125.164 133.014 125.3 132.91 125.476C132.806 125.644 132.754 125.848 132.754 126.088C132.754 126.336 132.806 126.548 132.91 126.724C133.014 126.9 133.15 127.036 133.318 127.132C133.486 127.22 133.67 127.264 133.87 127.264ZM134.014 131.692C134.398 131.692 134.73 131.648 135.01 131.56C135.298 131.472 135.518 131.356 135.67 131.212C135.83 131.068 135.91 130.912 135.91 130.744C135.91 130.512 135.81 130.356 135.61 130.276C135.418 130.204 135.122 130.168 134.722 130.168H133.786C133.594 130.168 133.426 130.16 133.282 130.144C133.138 130.128 133.006 130.108 132.886 130.084C132.678 130.204 132.53 130.328 132.442 130.456C132.354 130.584 132.31 130.716 132.31 130.852C132.31 131.116 132.458 131.32 132.754 131.464C133.05 131.616 133.47 131.692 134.014 131.692ZM141.569 130.144C140.969 130.144 140.425 130.024 139.937 129.784C139.449 129.536 139.061 129.184 138.773 128.728C138.485 128.264 138.341 127.704 138.341 127.048C138.341 126.408 138.485 125.86 138.773 125.404C139.061 124.94 139.437 124.584 139.901 124.336C140.365 124.088 140.861 123.964 141.389 123.964C141.973 123.964 142.465 124.084 142.865 124.324C143.273 124.564 143.581 124.896 143.789 125.32C144.005 125.736 144.113 126.216 144.113 126.76C144.113 126.896 144.105 127.028 144.089 127.156C144.081 127.276 144.069 127.376 144.053 127.456H139.337V126.472H143.165L142.901 126.784C142.901 126.2 142.769 125.764 142.505 125.476C142.249 125.18 141.889 125.032 141.425 125.032C141.097 125.032 140.801 125.108 140.537 125.26C140.281 125.412 140.077 125.64 139.925 125.944C139.773 126.24 139.697 126.608 139.697 127.048C139.697 127.504 139.781 127.88 139.949 128.176C140.125 128.472 140.365 128.696 140.669 128.848C140.981 129 141.341 129.076 141.749 129.076C142.061 129.076 142.349 129.032 142.613 128.944C142.877 128.856 143.141 128.736 143.405 128.584L143.873 129.448C143.561 129.648 143.209 129.816 142.817 129.952C142.425 130.08 142.009 130.144 141.569 130.144ZM157.976 129.532L153.416 126.508V125.524L157.976 122.5V123.784L154.58 125.992V126.04L157.976 128.248V129.532ZM167.447 130V128.872H169.571V123.856H167.879V122.992C168.199 122.944 168.479 122.892 168.719 122.836C168.959 122.78 169.175 122.712 169.367 122.632C169.567 122.552 169.759 122.464 169.943 122.368H170.951V128.872H172.823V130H167.447ZM177.198 130.144C176.614 130.144 176.11 130.056 175.686 129.88C175.262 129.696 174.934 129.448 174.702 129.136C174.47 128.816 174.354 128.452 174.354 128.044C174.354 127.716 174.426 127.432 174.57 127.192C174.722 126.944 174.914 126.732 175.146 126.556C175.378 126.372 175.63 126.216 175.902 126.088V126.04C175.582 125.832 175.31 125.584 175.086 125.296C174.87 125 174.762 124.652 174.762 124.252C174.762 123.844 174.866 123.488 175.074 123.184C175.29 122.872 175.582 122.636 175.95 122.476C176.326 122.308 176.754 122.224 177.234 122.224C177.994 122.224 178.59 122.416 179.022 122.8C179.462 123.176 179.682 123.672 179.682 124.288C179.682 124.64 179.57 124.968 179.346 125.272C179.122 125.568 178.854 125.82 178.542 126.028V126.076C178.822 126.212 179.07 126.368 179.286 126.544C179.51 126.712 179.686 126.92 179.814 127.168C179.95 127.416 180.018 127.716 180.018 128.068C180.018 128.46 179.906 128.812 179.682 129.124C179.466 129.436 179.146 129.684 178.722 129.868C178.306 130.052 177.798 130.144 177.198 130.144ZM177.762 125.692C178.266 125.284 178.518 124.844 178.518 124.372C178.518 124.148 178.466 123.948 178.362 123.772C178.266 123.596 178.118 123.46 177.918 123.364C177.726 123.26 177.49 123.208 177.21 123.208C176.858 123.208 176.566 123.3 176.334 123.484C176.102 123.668 175.986 123.924 175.986 124.252C175.986 124.508 176.062 124.724 176.214 124.9C176.374 125.068 176.586 125.216 176.85 125.344C177.122 125.464 177.426 125.58 177.762 125.692ZM177.222 129.16C177.686 129.16 178.05 129.06 178.314 128.86C178.578 128.66 178.71 128.38 178.71 128.02C178.71 127.804 178.658 127.62 178.554 127.468C178.45 127.316 178.302 127.184 178.11 127.072C177.918 126.96 177.694 126.86 177.438 126.772C177.182 126.676 176.902 126.576 176.598 126.472C176.398 126.584 176.222 126.712 176.07 126.856C175.918 127 175.798 127.16 175.71 127.336C175.622 127.504 175.578 127.692 175.578 127.9C175.578 128.156 175.646 128.38 175.782 128.572C175.918 128.756 176.11 128.9 176.358 129.004C176.606 129.108 176.894 129.16 177.222 129.16Z" fill="white"/>
<path d="M175.204 218.632L175.828 217.684C176.172 217.908 176.52 218.096 176.872 218.248C177.232 218.392 177.616 218.464 178.024 218.464C178.408 218.464 178.696 218.392 178.888 218.248C179.088 218.104 179.188 217.912 179.188 217.672C179.188 217.464 179.1 217.292 178.924 217.156C178.748 217.012 178.52 216.884 178.24 216.772C177.968 216.66 177.676 216.548 177.364 216.436C177.052 216.316 176.756 216.176 176.476 216.016C176.204 215.848 175.98 215.644 175.804 215.404C175.628 215.164 175.54 214.864 175.54 214.504C175.54 214.112 175.644 213.772 175.852 213.484C176.06 213.196 176.352 212.976 176.728 212.824C177.112 212.664 177.548 212.584 178.036 212.584C178.58 212.584 179.032 212.676 179.392 212.86C179.76 213.044 180.084 213.276 180.364 213.556L179.668 214.36C179.388 214.152 179.12 213.992 178.864 213.88C178.616 213.768 178.308 213.712 177.94 213.712C177.612 213.712 177.352 213.78 177.16 213.916C176.968 214.052 176.872 214.24 176.872 214.48C176.872 214.656 176.96 214.808 177.136 214.936C177.312 215.064 177.54 215.18 177.82 215.284C178.1 215.388 178.392 215.5 178.696 215.62C179.008 215.732 179.3 215.872 179.572 216.04C179.852 216.208 180.08 216.416 180.256 216.664C180.44 216.904 180.532 217.208 180.532 217.576C180.532 217.968 180.42 218.316 180.196 218.62C179.98 218.924 179.672 219.164 179.272 219.34C178.88 219.508 178.404 219.592 177.844 219.592C177.54 219.592 177.224 219.552 176.896 219.472C176.576 219.384 176.268 219.268 175.972 219.124C175.684 218.98 175.428 218.816 175.204 218.632ZM177.496 213.04V211.048H178.456V213.04H177.496ZM177.496 219.052H178.456V221.32H177.496V219.052ZM194.683 219.532L190.123 216.508V215.524L194.683 212.5V213.784L191.287 215.992V216.04L194.683 218.248V219.532ZM196.838 215.2V214.192H202.166V215.2H196.838ZM196.838 217.888V216.88H202.166V217.888H196.838ZM213.701 220.144C213.261 220.144 212.865 220.096 212.513 220C212.169 219.904 211.865 219.776 211.601 219.616C211.337 219.448 211.105 219.272 210.905 219.088L211.541 218.2C211.717 218.344 211.901 218.48 212.093 218.608C212.285 218.728 212.497 218.828 212.729 218.908C212.969 218.98 213.237 219.016 213.533 219.016C213.853 219.016 214.141 218.96 214.397 218.848C214.653 218.728 214.853 218.56 214.997 218.344C215.149 218.12 215.225 217.856 215.225 217.552C215.225 217.096 215.073 216.744 214.769 216.496C214.473 216.248 214.081 216.124 213.593 216.124C213.313 216.124 213.073 216.16 212.873 216.232C212.673 216.296 212.441 216.404 212.177 216.556L211.517 216.136L211.757 212.368H216.257V213.532H212.957L212.789 215.38C212.989 215.3 213.181 215.24 213.365 215.2C213.549 215.152 213.757 215.128 213.989 215.128C214.469 215.128 214.909 215.216 215.309 215.392C215.709 215.56 216.025 215.82 216.257 216.172C216.497 216.524 216.617 216.972 216.617 217.516C216.617 218.076 216.481 218.552 216.209 218.944C215.937 219.336 215.577 219.636 215.129 219.844C214.689 220.044 214.213 220.144 213.701 220.144ZM221.088 220.144C220.512 220.144 220.012 219.988 219.588 219.676C219.164 219.364 218.836 218.912 218.604 218.32C218.372 217.728 218.256 217.004 218.256 216.148C218.256 214.86 218.512 213.884 219.024 213.22C219.536 212.556 220.224 212.224 221.088 212.224C221.96 212.224 222.648 212.556 223.152 213.22C223.664 213.884 223.92 214.86 223.92 216.148C223.92 217.004 223.804 217.728 223.572 218.32C223.348 218.912 223.024 219.364 222.6 219.676C222.176 219.988 221.672 220.144 221.088 220.144ZM221.088 219.064C221.392 219.064 221.664 218.968 221.904 218.776C222.144 218.576 222.332 218.264 222.468 217.84C222.604 217.408 222.672 216.844 222.672 216.148C222.672 215.452 222.604 214.896 222.468 214.48C222.332 214.064 222.144 213.764 221.904 213.58C221.664 213.396 221.392 213.304 221.088 213.304C220.784 213.304 220.512 213.396 220.272 213.58C220.032 213.764 219.844 214.064 219.708 214.48C219.572 214.896 219.504 215.452 219.504 216.148C219.504 216.844 219.572 217.408 219.708 217.84C219.844 218.264 220.032 218.576 220.272 218.776C220.512 218.968 220.784 219.064 221.088 219.064ZM221.088 216.952C220.864 216.952 220.668 216.876 220.5 216.724C220.34 216.572 220.26 216.364 220.26 216.1C220.26 215.836 220.34 215.628 220.5 215.476C220.668 215.324 220.864 215.248 221.088 215.248C221.32 215.248 221.516 215.324 221.676 215.476C221.836 215.628 221.916 215.836 221.916 216.1C221.916 216.364 221.836 216.572 221.676 216.724C221.516 216.876 221.32 216.952 221.088 216.952Z" fill="white"/>
<defs>
<filter id="filter0_d_33_109" x="63" y="16" width="86" height="44" filterUnits="userSpaceOnUse" color-interpolation-filters="sRGB">
<feFlood flood-opacity="0" result="BackgroundImageFix"/>
<feColorMatrix in="SourceAlpha" type="matrix" values="0 0 0 0 0 0 0 0 0 0 0 0 0 0 0 0 0 0 127 0" result="hardAlpha"/>
<feOffset dy="1"/>
<feGaussianBlur stdDeviation="2"/>
<feComposite in2="hardAlpha" operator="out"/>
<feColorMatrix type="matrix" values="0 0 0 0 0 0 0 0 0 0 0 0 0 0 0 0 0 0 0.15 0"/>
<feBlend mode="normal" in2="BackgroundImageFix" result="effect1_dropShadow_33_109"/>
<feBlend mode="normal" in="SourceGraphic" in2="effect1_dropShadow_33_109" result="shape"/>
</filter>
<filter id="filter1_d_33_109" x="15" y="106" width="86" height="44" filterUnits="userSpaceOnUse" color-interpolation-filters="sRGB">
<feFlood flood-opacity="0" result="BackgroundImageFix"/>
<feColorMatrix in="SourceAlpha" type="matrix" values="0 0 0 0 0 0 0 0 0 0 0 0 0 0 0 0 0 0 127 0" result="hardAlpha"/>
<feOffset dy="1"/>
<feGaussianBlur stdDeviation="2"/>
<feComposite in2="hardAlpha" operator="out"/>
<feColorMatrix type="matrix" values="0 0 0 0 0 0 0 0 0 0 0 0 0 0 0 0 0 0 0.18 0"/>
<feBlend mode="normal" in2="BackgroundImageFix" result="effect1_dropShadow_33_109"/>
<feBlend mode="normal" in="SourceGraphic" in2="effect1_dropShadow_33_109" result="shape"/>
</filter>
<filter id="filter2_d_33_109" x="62" y="196" width="86" height="44" filterUnits="userSpaceOnUse" color-interpolation-filters="sRGB">
<feFlood flood-opacity="0" result="BackgroundImageFix"/>
<feColorMatrix in="SourceAlpha" type="matrix" values="0 0 0 0 0 0 0 0 0 0 0 0 0 0 0 0 0 0 127 0" result="hardAlpha"/>
<feOffset dy="1"/>
<feGaussianBlur stdDeviation="2"/>
<feComposite in2="hardAlpha" operator="out"/>
<feColorMatrix type="matrix" values="0 0 0 0 0 0 0 0 0 0 0 0 0 0 0 0 0 0 0.18 0"/>
<feBlend mode="normal" in2="BackgroundImageFix" result="effect1_dropShadow_33_109"/>
<feBlend mode="normal" in="SourceGraphic" in2="effect1_dropShadow_33_109" result="shape"/>
</filter>
<filter id="filter3_d_33_109" x="109" y="286" width="86" height="44" filterUnits="userSpaceOnUse" color-interpolation-filters="sRGB">
<feFlood flood-opacity="0" result="BackgroundImageFix"/>
<feColorMatrix in="SourceAlpha" type="matrix" values="0 0 0 0 0 0 0 0 0 0 0 0 0 0 0 0 0 0 127 0" result="hardAlpha"/>
<feOffset dy="1"/>
<feGaussianBlur stdDeviation="2"/>
<feComposite in2="hardAlpha" operator="out"/>
<feColorMatrix type="matrix" values="0 0 0 0 0 0 0 0 0 0 0 0 0 0 0 0 0 0 0.18 0"/>
<feBlend mode="normal" in2="BackgroundImageFix" result="effect1_dropShadow_33_109"/>
<feBlend mode="normal" in="SourceGraphic" in2="effect1_dropShadow_33_109" result="shape"/>
</filter>
<filter id="filter4_d_33_109" x="109" y="106" width="86" height="44" filterUnits="userSpaceOnUse" color-interpolation-filters="sRGB">
<feFlood flood-opacity="0" result="BackgroundImageFix"/>
<feColorMatrix in="SourceAlpha" type="matrix" values="0 0 0 0 0 0 0 0 0 0 0 0 0 0 0 0 0 0 127 0" result="hardAlpha"/>
<feOffset dy="1"/>
<feGaussianBlur stdDeviation="2"/>
<feComposite in2="hardAlpha" operator="out"/>
<feColorMatrix type="matrix" values="0 0 0 0 0 0 0 0 0 0 0 0 0 0 0 0 0 0 0.18 0"/>
<feBlend mode="normal" in2="BackgroundImageFix" result="effect1_dropShadow_33_109"/>
<feBlend mode="normal" in="SourceGraphic" in2="effect1_dropShadow_33_109" result="shape"/>
</filter>
<filter id="filter5_d_33_109" x="156" y="196" width="86" height="44" filterUnits="userSpaceOnUse" color-interpolation-filters="sRGB">
<feFlood flood-opacity="0" result="BackgroundImageFix"/>
<feColorMatrix in="SourceAlpha" type="matrix" values="0 0 0 0 0 0 0 0 0 0 0 0 0 0 0 0 0 0 127 0" result="hardAlpha"/>
<feOffset dy="1"/>
<feGaussianBlur stdDeviation="2"/>
<feComposite in2="hardAlpha" operator="out"/>
<feColorMatrix type="matrix" values="0 0 0 0 0 0 0 0 0 0 0 0 0 0 0 0 0 0 0.18 0"/>
<feBlend mode="normal" in2="BackgroundImageFix" result="effect1_dropShadow_33_109"/>
<feBlend mode="normal" in="SourceGraphic" in2="effect1_dropShadow_33_109" result="shape"/>
</filter>
<filter id="filter6_d_33_109" x="203" y="286" width="86" height="44" filterUnits="userSpaceOnUse" color-interpolation-filters="sRGB">
<feFlood flood-opacity="0" result="BackgroundImageFix"/>
<feColorMatrix in="SourceAlpha" type="matrix" values="0 0 0 0 0 0 0 0 0 0 0 0 0 0 0 0 0 0 127 0" result="hardAlpha"/>
<feOffset dy="1"/>
<feGaussianBlur stdDeviation="2"/>
<feComposite in2="hardAlpha" operator="out"/>
<feColorMatrix type="matrix" values="0 0 0 0 0 0 0 0 0 0 0 0 0 0 0 0 0 0 0.18 0"/>
<feBlend mode="normal" in2="BackgroundImageFix" result="effect1_dropShadow_33_109"/>
<feBlend mode="normal" in="SourceGraphic" in2="effect1_dropShadow_33_109" result="shape"/>
</filter>
<filter id="filter7_d_33_109" x="15" y="106" width="86" height="44" filterUnits="userSpaceOnUse" color-interpolation-filters="sRGB">
<feFlood flood-opacity="0" result="BackgroundImageFix"/>
<feColorMatrix in="SourceAlpha" type="matrix" values="0 0 0 0 0 0 0 0 0 0 0 0 0 0 0 0 0 0 127 0" result="hardAlpha"/>
<feOffset dy="1"/>
<feGaussianBlur stdDeviation="2"/>
<feComposite in2="hardAlpha" operator="out"/>
<feColorMatrix type="matrix" values="0 0 0 0 0 0 0 0 0 0 0 0 0 0 0 0 0 0 0.15 0"/>
<feBlend mode="normal" in2="BackgroundImageFix" result="effect1_dropShadow_33_109"/>
<feBlend mode="normal" in="SourceGraphic" in2="effect1_dropShadow_33_109" result="shape"/>
</filter>
<filter id="filter8_d_33_109" x="63" y="196" width="86" height="44" filterUnits="userSpaceOnUse" color-interpolation-filters="sRGB">
<feFlood flood-opacity="0" result="BackgroundImageFix"/>
<feColorMatrix in="SourceAlpha" type="matrix" values="0 0 0 0 0 0 0 0 0 0 0 0 0 0 0 0 0 0 127 0" result="hardAlpha"/>
<feOffset dy="1"/>
<feGaussianBlur stdDeviation="2"/>
<feComposite in2="hardAlpha" operator="out"/>
<feColorMatrix type="matrix" values="0 0 0 0 0 0 0 0 0 0 0 0 0 0 0 0 0 0 0.15 0"/>
<feBlend mode="normal" in2="BackgroundImageFix" result="effect1_dropShadow_33_109"/>
<feBlend mode="normal" in="SourceGraphic" in2="effect1_dropShadow_33_109" result="shape"/>
</filter>
<filter id="filter9_d_33_109" x="109" y="286" width="86" height="44" filterUnits="userSpaceOnUse" color-interpolation-filters="sRGB">
<feFlood flood-opacity="0" result="BackgroundImageFix"/>
<feColorMatrix in="SourceAlpha" type="matrix" values="0 0 0 0 0 0 0 0 0 0 0 0 0 0 0 0 0 0 127 0" result="hardAlpha"/>
<feOffset dy="1"/>
<feGaussianBlur stdDeviation="2"/>
<feComposite in2="hardAlpha" operator="out"/>
<feColorMatrix type="matrix" values="0 0 0 0 0 0 0 0 0 0 0 0 0 0 0 0 0 0 0.15 0"/>
<feBlend mode="normal" in2="BackgroundImageFix" result="effect1_dropShadow_33_109"/>
<feBlend mode="normal" in="SourceGraphic" in2="effect1_dropShadow_33_109" result="shape"/>
</filter>
<filter id="filter10_d_33_109" x="203" y="286" width="86" height="44" filterUnits="userSpaceOnUse" color-interpolation-filters="sRGB">
<feFlood flood-opacity="0" result="BackgroundImageFix"/>
<feColorMatrix in="SourceAlpha" type="matrix" values="0 0 0 0 0 0 0 0 0 0 0 0 0 0 0 0 0 0 127 0" result="hardAlpha"/>
<feOffset dy="1"/>
<feGaussianBlur stdDeviation="2"/>
<feComposite in2="hardAlpha" operator="out"/>
<feColorMatrix type="matrix" values="0 0 0 0 0 0 0 0 0 0 0 0 0 0 0 0 0 0 0.18 0"/>
<feBlend mode="normal" in2="BackgroundImageFix" result="effect1_dropShadow_33_109"/>
<feBlend mode="normal" in="SourceGraphic" in2="effect1_dropShadow_33_109" result="shape"/>
</filter>
<filter id="filter11_d_33_109" x="203" y="286" width="86" height="44" filterUnits="userSpaceOnUse" color-interpolation-filters="sRGB">
<feFlood flood-opacity="0" result="BackgroundImageFix"/>
<feColorMatrix in="SourceAlpha" type="matrix" values="0 0 0 0 0 0 0 0 0 0 0 0 0 0 0 0 0 0 127 0" result="hardAlpha"/>
<feOffset dy="1"/>
<feGaussianBlur stdDeviation="2"/>
<feComposite in2="hardAlpha" operator="out"/>
<feColorMatrix type="matrix" values="0 0 0 0 0 0 0 0 0 0 0 0 0 0 0 0 0 0 0.15 0"/>
<feBlend mode="normal" in2="BackgroundImageFix" result="effect1_dropShadow_33_109"/>
<feBlend mode="normal" in="SourceGraphic" in2="effect1_dropShadow_33_109" result="shape"/>
</filter>
<filter id="filter12_d_33_109" x="110" y="106" width="86" height="44" filterUnits="userSpaceOnUse" color-interpolation-filters="sRGB">
<feFlood flood-opacity="0" result="BackgroundImageFix"/>
<feColorMatrix in="SourceAlpha" type="matrix" values="0 0 0 0 0 0 0 0 0 0 0 0 0 0 0 0 0 0 127 0" result="hardAlpha"/>
<feOffset dy="1"/>
<feGaussianBlur stdDeviation="2"/>
<feComposite in2="hardAlpha" operator="out"/>
<feColorMatrix type="matrix" values="0 0 0 0 0 0 0 0 0 0 0 0 0 0 0 0 0 0 0.15 0"/>
<feBlend mode="normal" in2="BackgroundImageFix" result="effect1_dropShadow_33_109"/>
<feBlend mode="normal" in="SourceGraphic" in2="effect1_dropShadow_33_109" result="shape"/>
</filter>
<filter id="filter13_d_33_109" x="156" y="196" width="86" height="44" filterUnits="userSpaceOnUse" color-interpolation-filters="sRGB">
<feFlood flood-opacity="0" result="BackgroundImageFix"/>
<feColorMatrix in="SourceAlpha" type="matrix" values="0 0 0 0 0 0 0 0 0 0 0 0 0 0 0 0 0 0 127 0" result="hardAlpha"/>
<feOffset dy="1"/>
<feGaussianBlur stdDeviation="2"/>
<feComposite in2="hardAlpha" operator="out"/>
<feColorMatrix type="matrix" values="0 0 0 0 0 0 0 0 0 0 0 0 0 0 0 0 0 0 0.15 0"/>
<feBlend mode="normal" in2="BackgroundImageFix" result="effect1_dropShadow_33_109"/>
<feBlend mode="normal" in="SourceGraphic" in2="effect1_dropShadow_33_109" result="shape"/>
</filter>
<linearGradient id="paint0_linear_33_109" x1="58.5" y1="96.5" x2="105.5" y2="60" gradientUnits="userSpaceOnUse">
<stop stop-color="#209766"/>
<stop offset="1" stop-color="#209766" stop-opacity="0.1"/>
</linearGradient>
<linearGradient id="paint1_linear_33_109" x1="105.5" y1="186.5" x2="152.5" y2="150" gradientUnits="userSpaceOnUse">
<stop stop-color="#209766"/>
<stop offset="1" stop-color="#209766" stop-opacity="0.1"/>
</linearGradient>
<linearGradient id="paint2_linear_33_109" x1="152.5" y1="276.5" x2="199.5" y2="240" gradientUnits="userSpaceOnUse">
<stop stop-color="#209766"/>
<stop offset="1" stop-color="#209766" stop-opacity="0.1"/>
</linearGradient>
<linearGradient id="paint3_linear_33_109" x1="152.5" y1="103" x2="105.5" y2="60" gradientUnits="userSpaceOnUse">
<stop stop-color="#C74E4E"/>
<stop offset="1" stop-color="#C74E4E" stop-opacity="0.1"/>
</linearGradient>
<linearGradient id="paint4_linear_33_109" x1="199.5" y1="193" x2="152.5" y2="150" gradientUnits="userSpaceOnUse">
<stop stop-color="#C74E4E"/>
<stop offset="1" stop-color="#C74E4E" stop-opacity="0.1"/>
</linearGradient>
<linearGradient id="paint5_linear_33_109" x1="246.5" y1="283" x2="199.5" y2="240" gradientUnits="userSpaceOnUse">
<stop stop-color="#C74E4E"/>
<stop offset="1" stop-color="#C74E4E" stop-opacity="0.1"/>
</linearGradient>
</defs>
</svg>
