<svg width="323" height="360" viewBox="0 0 323 360" fill="none" xmlns="http://www.w3.org/2000/svg">
<rect width="323" height="360" fill="white"/>
<rect x="67" y="19" width="78" height="36" fill="white"/>
<rect x="113" y="109" width="78" height="36" fill="white"/>
<rect x="160" y="199" width="78" height="36" fill="white"/>
<rect x="207" y="289" width="78" height="36" fill="white"/>
<rect x="19" y="109" width="78" height="36" fill="white"/>
<rect x="66" y="199" width="78" height="36" fill="white"/>
<rect x="113" y="289" width="78" height="36" fill="white"/>
<g filter="url(#filter0_d_31_211)">
<rect x="67" y="19" width="78" height="36" fill="#9F6336"/>
</g>
<path d="M82.3484 40V32.152H84.7844C85.3204 32.152 85.7964 32.216 86.2124 32.344C86.6364 32.464 86.9684 32.664 87.2084 32.944C87.4484 33.224 87.5684 33.604 87.5684 34.084C87.5684 34.452 87.4564 34.8 87.2324 35.128C87.0164 35.448 86.6764 35.668 86.2124 35.788V35.836C86.7804 35.932 87.2164 36.132 87.5204 36.436C87.8244 36.74 87.9764 37.16 87.9764 37.696C87.9764 38.216 87.8484 38.648 87.5924 38.992C87.3364 39.336 86.9804 39.592 86.5244 39.76C86.0764 39.92 85.5644 40 84.9884 40H82.3484ZM83.7404 35.38H84.6644C85.2084 35.38 85.6004 35.284 85.8404 35.092C86.0804 34.9 86.2004 34.62 86.2004 34.252C86.2004 33.892 86.0764 33.64 85.8284 33.496C85.5804 33.344 85.2004 33.268 84.6884 33.268H83.7404V35.38ZM83.7404 38.884H84.8444C85.4204 38.884 85.8564 38.784 86.1524 38.584C86.4564 38.376 86.6084 38.048 86.6084 37.6C86.6084 37.192 86.4604 36.896 86.1644 36.712C85.8684 36.528 85.4284 36.436 84.8444 36.436H83.7404V38.884ZM91.3317 40.144C90.9477 40.144 90.6077 40.072 90.3117 39.928C90.0157 39.776 89.7837 39.572 89.6157 39.316C89.4477 39.06 89.3637 38.76 89.3637 38.416C89.3637 37.76 89.6757 37.26 90.2997 36.916C90.9317 36.564 91.9757 36.336 93.4317 36.232C93.4157 36.016 93.3557 35.82 93.2517 35.644C93.1557 35.468 93.0077 35.332 92.8077 35.236C92.6077 35.132 92.3477 35.08 92.0277 35.08C91.8037 35.08 91.5837 35.108 91.3677 35.164C91.1517 35.22 90.9357 35.296 90.7197 35.392C90.5117 35.488 90.3037 35.592 90.0957 35.704L89.5917 34.78C89.8317 34.636 90.0957 34.504 90.3837 34.384C90.6717 34.256 90.9757 34.156 91.2957 34.084C91.6157 34.004 91.9437 33.964 92.2797 33.964C92.8317 33.964 93.2917 34.064 93.6597 34.264C94.0357 34.456 94.3197 34.744 94.5117 35.128C94.7117 35.504 94.8117 35.964 94.8117 36.508V40H93.6837L93.5757 39.268H93.5397C93.2277 39.508 92.8797 39.716 92.4957 39.892C92.1197 40.06 91.7317 40.144 91.3317 40.144ZM91.7517 39.064C92.0477 39.064 92.3317 39 92.6037 38.872C92.8837 38.736 93.1597 38.56 93.4317 38.344V37.096C92.7277 37.144 92.1757 37.224 91.7757 37.336C91.3757 37.44 91.0957 37.576 90.9357 37.744C90.7757 37.912 90.6957 38.1 90.6957 38.308C90.6957 38.484 90.7437 38.628 90.8397 38.74C90.9357 38.852 91.0597 38.936 91.2117 38.992C91.3717 39.04 91.5517 39.064 91.7517 39.064ZM96.691 40V34.108H97.831L97.939 34.996H97.987C98.267 34.708 98.575 34.464 98.911 34.264C99.255 34.064 99.655 33.964 100.111 33.964C100.791 33.964 101.291 34.172 101.611 34.588C101.931 35.004 102.091 35.592 102.091 36.352V40H100.699V36.532C100.699 36.06 100.615 35.712 100.447 35.488C100.279 35.264 99.995 35.152 99.595 35.152C99.307 35.152 99.051 35.22 98.827 35.356C98.603 35.492 98.355 35.7 98.083 35.98V40H96.691ZM103.886 40V34.108H105.026L105.134 34.996H105.182C105.462 34.708 105.77 34.464 106.106 34.264C106.45 34.064 106.85 33.964 107.306 33.964C107.986 33.964 108.486 34.172 108.806 34.588C109.126 35.004 109.286 35.592 109.286 36.352V40H107.894V36.532C107.894 36.06 107.81 35.712 107.642 35.488C107.474 35.264 107.19 35.152 106.79 35.152C106.502 35.152 106.246 35.22 106.022 35.356C105.798 35.492 105.55 35.7 105.278 35.98V40H103.886ZM114.058 40.144C113.458 40.144 112.914 40.024 112.426 39.784C111.938 39.536 111.55 39.184 111.262 38.728C110.974 38.264 110.83 37.704 110.83 37.048C110.83 36.408 110.974 35.86 111.262 35.404C111.55 34.94 111.926 34.584 112.39 34.336C112.854 34.088 113.35 33.964 113.878 33.964C114.462 33.964 114.954 34.084 115.354 34.324C115.762 34.564 116.07 34.896 116.278 35.32C116.494 35.736 116.602 36.216 116.602 36.76C116.602 36.896 116.594 37.028 116.578 37.156C116.57 37.276 116.558 37.376 116.542 37.456H111.826V36.472H115.654L115.39 36.784C115.39 36.2 115.258 35.764 114.994 35.476C114.738 35.18 114.378 35.032 113.914 35.032C113.586 35.032 113.29 35.108 113.026 35.26C112.77 35.412 112.566 35.64 112.414 35.944C112.262 36.24 112.186 36.608 112.186 37.048C112.186 37.504 112.27 37.88 112.438 38.176C112.614 38.472 112.854 38.696 113.158 38.848C113.47 39 113.83 39.076 114.238 39.076C114.55 39.076 114.838 39.032 115.102 38.944C115.366 38.856 115.63 38.736 115.894 38.584L116.362 39.448C116.05 39.648 115.698 39.816 115.306 39.952C114.914 40.08 114.498 40.144 114.058 40.144ZM120.449 40.144C119.697 40.144 119.089 39.872 118.625 39.328C118.161 38.784 117.929 38.028 117.929 37.06C117.929 36.42 118.053 35.868 118.301 35.404C118.549 34.94 118.873 34.584 119.273 34.336C119.673 34.088 120.093 33.964 120.533 33.964C120.869 33.964 121.165 34.024 121.421 34.144C121.685 34.264 121.929 34.436 122.153 34.66H122.189L122.117 33.664V31.528H123.509V40H122.369L122.261 39.316H122.225C122.001 39.54 121.733 39.736 121.421 39.904C121.109 40.064 120.785 40.144 120.449 40.144ZM120.785 39.004C121.025 39.004 121.257 38.948 121.481 38.836C121.705 38.716 121.917 38.536 122.117 38.296V35.644C121.909 35.444 121.701 35.304 121.493 35.224C121.285 35.144 121.073 35.104 120.857 35.104C120.585 35.104 120.333 35.18 120.101 35.332C119.877 35.484 119.697 35.704 119.561 35.992C119.425 36.28 119.357 36.632 119.357 37.048C119.357 37.68 119.481 38.164 119.729 38.5C119.985 38.836 120.337 39.004 120.785 39.004ZM127.248 37.072C127.192 36.744 127.216 36.456 127.32 36.208C127.424 35.96 127.564 35.74 127.74 35.548C127.924 35.348 128.112 35.164 128.304 34.996C128.504 34.828 128.672 34.656 128.808 34.48C128.944 34.304 129.012 34.112 129.012 33.904C129.012 33.608 128.912 33.376 128.712 33.208C128.52 33.032 128.252 32.944 127.908 32.944C127.636 32.944 127.384 33 127.152 33.112C126.928 33.224 126.716 33.376 126.516 33.568L125.736 32.848C126.016 32.544 126.344 32.296 126.72 32.104C127.104 31.912 127.532 31.816 128.004 31.816C128.452 31.816 128.852 31.892 129.204 32.044C129.556 32.188 129.832 32.404 130.032 32.692C130.24 32.972 130.344 33.32 130.344 33.736C130.344 34.056 130.276 34.332 130.14 34.564C130.004 34.788 129.832 34.996 129.624 35.188C129.424 35.372 129.228 35.552 129.036 35.728C128.852 35.904 128.7 36.1 128.58 36.316C128.46 36.524 128.42 36.776 128.46 37.072H127.248ZM127.92 40.144C127.632 40.144 127.384 40.044 127.176 39.844C126.976 39.644 126.876 39.384 126.876 39.064C126.876 38.744 126.976 38.488 127.176 38.296C127.384 38.104 127.632 38.008 127.92 38.008C128.216 38.008 128.464 38.104 128.664 38.296C128.864 38.488 128.964 38.744 128.964 39.064C128.964 39.384 128.864 39.644 128.664 39.844C128.464 40.044 128.216 40.144 127.92 40.144Z" fill="white"/>
<g filter="url(#filter1_d_31_211)">
<rect x="19" y="109" width="78" height="36" fill="white"/>
<rect x="19.5" y="109.5" width="77" height="35" stroke="#209766"/>
</g>
<g filter="url(#filter2_d_31_211)">
<rect x="66" y="199" width="78" height="36" fill="white"/>
<rect x="66.5" y="199.5" width="77" height="35" stroke="#209766"/>
</g>
<g filter="url(#filter3_d_31_211)">
<rect x="113" y="289" width="78" height="36" fill="white"/>
<rect x="113.5" y="289.5" width="77" height="35" stroke="#209766"/>
</g>
<g filter="url(#filter4_d_31_211)">
<rect x="113" y="109" width="78" height="36" fill="white"/>
<rect x="113.5" y="109.5" width="77" height="35" stroke="#C74E4E"/>
</g>
<g filter="url(#filter5_d_31_211)">
<rect x="160" y="199" width="78" height="36" fill="white"/>
<rect x="160.5" y="199.5" width="77" height="35" stroke="#C74E4E"/>
</g>
<g filter="url(#filter6_d_31_211)">
<rect x="207" y="289" width="78" height="36" fill="white"/>
<rect x="207.5" y="289.5" width="77" height="35" stroke="#C74E4E"/>
</g>
<path d="M106.5 61C106.5 60.4477 106.052 60 105.5 60C104.948 60 104.5 60.4477 104.5 61H106.5ZM57.2929 103.707C57.6834 104.098 58.3166 104.098 58.7071 103.707L65.0711 97.3431C65.4616 96.9526 65.4616 96.3195 65.0711 95.9289C64.6805 95.5384 64.0474 95.5384 63.6569 95.9289L58 101.586L52.3431 95.9289C51.9526 95.5384 51.3195 95.5384 50.9289 95.9289C50.5384 96.3195 50.5384 96.9526 50.9289 97.3431L57.2929 103.707ZM104.5 61C104.5 65.782 103.771 69.2537 102.557 71.7856C101.354 74.2966 99.6531 75.9287 97.6087 77.0154C95.542 78.1141 93.0873 78.6742 90.365 78.9636C87.638 79.2535 84.7252 79.2654 81.7342 79.3126C75.8539 79.4055 69.6089 79.6187 64.8723 82.7349C60.022 85.9258 57 91.9561 57 103H59C59 92.2939 61.9154 87.0742 65.9715 84.4057C70.1411 81.6625 75.7711 81.407 81.7658 81.3124C84.7123 81.2659 87.737 81.2543 90.5764 80.9524C93.4205 80.65 96.1611 80.05 98.5475 78.7814C100.956 77.501 102.967 75.5589 104.361 72.65C105.745 69.762 106.5 65.968 106.5 61H104.5Z" fill="url(#paint0_linear_31_211)"/>
<path d="M153.5 151C153.5 150.448 153.052 150 152.5 150C151.948 150 151.5 150.448 151.5 151H153.5ZM104.293 193.707C104.683 194.098 105.317 194.098 105.707 193.707L112.071 187.343C112.462 186.953 112.462 186.319 112.071 185.929C111.681 185.538 111.047 185.538 110.657 185.929L105 191.586L99.3431 185.929C98.9526 185.538 98.3195 185.538 97.9289 185.929C97.5384 186.319 97.5384 186.953 97.9289 187.343L104.293 193.707ZM151.5 151C151.5 155.782 150.771 159.254 149.557 161.786C148.354 164.297 146.653 165.929 144.609 167.015C142.542 168.114 140.087 168.674 137.365 168.964C134.638 169.254 131.725 169.265 128.734 169.313C122.854 169.405 116.609 169.619 111.872 172.735C107.022 175.926 104 181.956 104 193H106C106 182.294 108.915 177.074 112.971 174.406C117.141 171.663 122.771 171.407 128.766 171.312C131.712 171.266 134.737 171.254 137.576 170.952C140.42 170.65 143.161 170.05 145.548 168.781C147.956 167.501 149.967 165.559 151.361 162.65C152.745 159.762 153.5 155.968 153.5 151H151.5Z" fill="url(#paint1_linear_31_211)"/>
<path d="M200.5 241C200.5 240.448 200.052 240 199.5 240C198.948 240 198.5 240.448 198.5 241H200.5ZM151.293 283.707C151.683 284.098 152.317 284.098 152.707 283.707L159.071 277.343C159.462 276.953 159.462 276.319 159.071 275.929C158.681 275.538 158.047 275.538 157.657 275.929L152 281.586L146.343 275.929C145.953 275.538 145.319 275.538 144.929 275.929C144.538 276.319 144.538 276.953 144.929 277.343L151.293 283.707ZM198.5 241C198.5 245.782 197.771 249.254 196.557 251.786C195.354 254.297 193.653 255.929 191.609 257.015C189.542 258.114 187.087 258.674 184.365 258.964C181.638 259.254 178.725 259.265 175.734 259.313C169.854 259.405 163.609 259.619 158.872 262.735C154.022 265.926 151 271.956 151 283H153C153 272.294 155.915 267.074 159.971 264.406C164.141 261.663 169.771 261.407 175.766 261.312C178.712 261.266 181.737 261.254 184.576 260.952C187.42 260.65 190.161 260.05 192.548 258.781C194.956 257.501 196.967 255.559 198.361 252.65C199.745 249.762 200.5 245.968 200.5 241H198.5Z" fill="url(#paint2_linear_31_211)"/>
<path d="M104.5 61C104.5 60.4477 104.948 60 105.5 60C106.052 60 106.5 60.4477 106.5 61H104.5ZM152.707 103.707C152.317 104.098 151.683 104.098 151.293 103.707L144.929 97.3431C144.538 96.9526 144.538 96.3195 144.929 95.9289C145.319 95.5384 145.953 95.5384 146.343 95.9289L152 101.586L157.657 95.9289C158.047 95.5384 158.681 95.5384 159.071 95.9289C159.462 96.3195 159.462 96.9526 159.071 97.3431L152.707 103.707ZM106.5 61C106.5 70.5476 109.328 74.8939 113.243 77.0196C115.261 78.1155 117.659 78.6747 120.321 78.9639C122.988 79.2535 125.837 79.2654 128.766 79.3126C134.522 79.4055 140.647 79.6183 145.292 82.7403C150.045 85.9346 153 91.9639 153 103H151C151 92.2861 148.142 87.0654 144.177 84.4003C140.103 81.663 134.604 81.407 128.734 81.3124C125.85 81.2659 122.887 81.2543 120.105 80.9522C117.318 80.6495 114.63 80.0485 112.288 78.7772C107.485 76.1686 104.5 70.9524 104.5 61H106.5Z" fill="url(#paint3_linear_31_211)"/>
<path d="M151.5 151C151.5 150.448 151.948 150 152.5 150C153.052 150 153.5 150.448 153.5 151H151.5ZM199.707 193.707C199.317 194.098 198.683 194.098 198.293 193.707L191.929 187.343C191.538 186.953 191.538 186.319 191.929 185.929C192.319 185.538 192.953 185.538 193.343 185.929L199 191.586L204.657 185.929C205.047 185.538 205.681 185.538 206.071 185.929C206.462 186.319 206.462 186.953 206.071 187.343L199.707 193.707ZM153.5 151C153.5 160.548 156.328 164.894 160.243 167.02C162.261 168.116 164.659 168.675 167.321 168.964C169.988 169.254 172.837 169.265 175.766 169.313C181.522 169.405 187.647 169.618 192.292 172.74C197.045 175.935 200 181.964 200 193H198C198 182.286 195.142 177.065 191.177 174.4C187.103 171.663 181.604 171.407 175.734 171.312C172.85 171.266 169.887 171.254 167.105 170.952C164.318 170.649 161.63 170.049 159.288 168.777C154.485 166.169 151.5 160.952 151.5 151H153.5Z" fill="url(#paint4_linear_31_211)"/>
<path d="M198.5 241C198.5 240.448 198.948 240 199.5 240C200.052 240 200.5 240.448 200.5 241H198.5ZM246.707 283.707C246.317 284.098 245.683 284.098 245.293 283.707L238.929 277.343C238.538 276.953 238.538 276.319 238.929 275.929C239.319 275.538 239.953 275.538 240.343 275.929L246 281.586L251.657 275.929C252.047 275.538 252.681 275.538 253.071 275.929C253.462 276.319 253.462 276.953 253.071 277.343L246.707 283.707ZM200.5 241C200.5 250.548 203.328 254.894 207.243 257.02C209.261 258.116 211.659 258.675 214.321 258.964C216.988 259.254 219.837 259.265 222.766 259.313C228.522 259.405 234.647 259.618 239.292 262.74C244.045 265.935 247 271.964 247 283H245C245 272.286 242.142 267.065 238.177 264.4C234.103 261.663 228.604 261.407 222.734 261.312C219.85 261.266 216.887 261.254 214.105 260.952C211.318 260.649 208.63 260.049 206.288 258.777C201.485 256.169 198.5 250.952 198.5 241H200.5Z" fill="url(#paint5_linear_31_211)"/>
<g filter="url(#filter7_d_31_211)">
<rect x="114" y="109" width="78" height="36" fill="#9F6336"/>
</g>
<g filter="url(#filter8_d_31_211)">
<rect x="159" y="199" width="78" height="36" fill="#9F6336"/>
</g>
<path d="M124.459 131L127.003 123.152H128.635L131.179 131H129.703L128.515 126.824C128.403 126.408 128.283 125.98 128.155 125.54C128.035 125.1 127.923 124.664 127.819 124.232H127.771C127.659 124.664 127.543 125.1 127.423 125.54C127.311 125.98 127.195 126.408 127.075 126.824L125.875 131H124.459ZM125.959 128.876V127.784H129.643V128.876H125.959ZM134.846 133.604C134.302 133.604 133.83 133.544 133.43 133.424C133.03 133.312 132.718 133.14 132.494 132.908C132.27 132.676 132.158 132.384 132.158 132.032C132.158 131.8 132.238 131.576 132.398 131.36C132.558 131.144 132.79 130.956 133.094 130.796V130.748C132.942 130.652 132.802 130.528 132.674 130.376C132.554 130.216 132.494 130.012 132.494 129.764C132.494 129.572 132.558 129.376 132.686 129.176C132.814 128.976 132.986 128.804 133.202 128.66V128.612C132.994 128.46 132.814 128.256 132.662 128C132.518 127.736 132.446 127.432 132.446 127.088C132.446 126.632 132.558 126.248 132.782 125.936C133.006 125.616 133.302 125.376 133.67 125.216C134.038 125.048 134.438 124.964 134.87 124.964C135.222 124.964 135.53 125.012 135.794 125.108H138.206V126.164H136.85C136.954 126.276 137.042 126.42 137.114 126.596C137.194 126.764 137.234 126.944 137.234 127.136C137.234 127.568 137.126 127.936 136.91 128.24C136.702 128.536 136.422 128.76 136.07 128.912C135.718 129.064 135.318 129.14 134.87 129.14C134.734 129.14 134.586 129.128 134.426 129.104C134.274 129.072 134.122 129.028 133.97 128.972C133.85 129.044 133.758 129.124 133.694 129.212C133.638 129.3 133.61 129.404 133.61 129.524C133.61 129.708 133.702 129.848 133.886 129.944C134.078 130.032 134.358 130.076 134.726 130.076H135.926C136.694 130.076 137.27 130.188 137.654 130.412C138.046 130.628 138.242 130.996 138.242 131.516C138.242 131.9 138.102 132.252 137.822 132.572C137.55 132.892 137.158 133.144 136.646 133.328C136.142 133.512 135.542 133.604 134.846 133.604ZM134.87 128.264C135.078 128.264 135.266 128.22 135.434 128.132C135.602 128.036 135.734 127.9 135.83 127.724C135.934 127.548 135.986 127.336 135.986 127.088C135.986 126.848 135.934 126.644 135.83 126.476C135.734 126.3 135.602 126.164 135.434 126.068C135.266 125.972 135.078 125.924 134.87 125.924C134.67 125.924 134.486 125.972 134.318 126.068C134.15 126.164 134.014 126.3 133.91 126.476C133.806 126.644 133.754 126.848 133.754 127.088C133.754 127.336 133.806 127.548 133.91 127.724C134.014 127.9 134.15 128.036 134.318 128.132C134.486 128.22 134.67 128.264 134.87 128.264ZM135.014 132.692C135.398 132.692 135.73 132.648 136.01 132.56C136.298 132.472 136.518 132.356 136.67 132.212C136.83 132.068 136.91 131.912 136.91 131.744C136.91 131.512 136.81 131.356 136.61 131.276C136.418 131.204 136.122 131.168 135.722 131.168H134.786C134.594 131.168 134.426 131.16 134.282 131.144C134.138 131.128 134.006 131.108 133.886 131.084C133.678 131.204 133.53 131.328 133.442 131.456C133.354 131.584 133.31 131.716 133.31 131.852C133.31 132.116 133.458 132.32 133.754 132.464C134.05 132.616 134.47 132.692 135.014 132.692ZM142.569 131.144C141.969 131.144 141.425 131.024 140.937 130.784C140.449 130.536 140.061 130.184 139.773 129.728C139.485 129.264 139.341 128.704 139.341 128.048C139.341 127.408 139.485 126.86 139.773 126.404C140.061 125.94 140.437 125.584 140.901 125.336C141.365 125.088 141.861 124.964 142.389 124.964C142.973 124.964 143.465 125.084 143.865 125.324C144.273 125.564 144.581 125.896 144.789 126.32C145.005 126.736 145.113 127.216 145.113 127.76C145.113 127.896 145.105 128.028 145.089 128.156C145.081 128.276 145.069 128.376 145.053 128.456H140.337V127.472H144.165L143.901 127.784C143.901 127.2 143.769 126.764 143.505 126.476C143.249 126.18 142.889 126.032 142.425 126.032C142.097 126.032 141.801 126.108 141.537 126.26C141.281 126.412 141.077 126.64 140.925 126.944C140.773 127.24 140.697 127.608 140.697 128.048C140.697 128.504 140.781 128.88 140.949 129.176C141.125 129.472 141.365 129.696 141.669 129.848C141.981 130 142.341 130.076 142.749 130.076C143.061 130.076 143.349 130.032 143.613 129.944C143.877 129.856 144.141 129.736 144.405 129.584L144.873 130.448C144.561 130.648 144.209 130.816 143.817 130.952C143.425 131.08 143.009 131.144 142.569 131.144ZM158.976 130.532L154.416 127.508V126.524L158.976 123.5V124.784L155.58 126.992V127.04L158.976 129.248V130.532ZM168.447 131V129.872H170.571V124.856H168.879V123.992C169.199 123.944 169.479 123.892 169.719 123.836C169.959 123.78 170.175 123.712 170.367 123.632C170.567 123.552 170.759 123.464 170.943 123.368H171.951V129.872H173.823V131H168.447ZM178.198 131.144C177.614 131.144 177.11 131.056 176.686 130.88C176.262 130.696 175.934 130.448 175.702 130.136C175.47 129.816 175.354 129.452 175.354 129.044C175.354 128.716 175.426 128.432 175.57 128.192C175.722 127.944 175.914 127.732 176.146 127.556C176.378 127.372 176.63 127.216 176.902 127.088V127.04C176.582 126.832 176.31 126.584 176.086 126.296C175.87 126 175.762 125.652 175.762 125.252C175.762 124.844 175.866 124.488 176.074 124.184C176.29 123.872 176.582 123.636 176.95 123.476C177.326 123.308 177.754 123.224 178.234 123.224C178.994 123.224 179.59 123.416 180.022 123.8C180.462 124.176 180.682 124.672 180.682 125.288C180.682 125.64 180.57 125.968 180.346 126.272C180.122 126.568 179.854 126.82 179.542 127.028V127.076C179.822 127.212 180.07 127.368 180.286 127.544C180.51 127.712 180.686 127.92 180.814 128.168C180.95 128.416 181.018 128.716 181.018 129.068C181.018 129.46 180.906 129.812 180.682 130.124C180.466 130.436 180.146 130.684 179.722 130.868C179.306 131.052 178.798 131.144 178.198 131.144ZM178.762 126.692C179.266 126.284 179.518 125.844 179.518 125.372C179.518 125.148 179.466 124.948 179.362 124.772C179.266 124.596 179.118 124.46 178.918 124.364C178.726 124.26 178.49 124.208 178.21 124.208C177.858 124.208 177.566 124.3 177.334 124.484C177.102 124.668 176.986 124.924 176.986 125.252C176.986 125.508 177.062 125.724 177.214 125.9C177.374 126.068 177.586 126.216 177.85 126.344C178.122 126.464 178.426 126.58 178.762 126.692ZM178.222 130.16C178.686 130.16 179.05 130.06 179.314 129.86C179.578 129.66 179.71 129.38 179.71 129.02C179.71 128.804 179.658 128.62 179.554 128.468C179.45 128.316 179.302 128.184 179.11 128.072C178.918 127.96 178.694 127.86 178.438 127.772C178.182 127.676 177.902 127.576 177.598 127.472C177.398 127.584 177.222 127.712 177.07 127.856C176.918 128 176.798 128.16 176.71 128.336C176.622 128.504 176.578 128.692 176.578 128.9C176.578 129.156 176.646 129.38 176.782 129.572C176.918 129.756 177.11 129.9 177.358 130.004C177.606 130.108 177.894 130.16 178.222 130.16Z" fill="white"/>
<g filter="url(#filter9_d_31_211)">
<rect x="19" y="108" width="78" height="36" fill="#219867"/>
</g>
<path d="M63.0625 123.115L61.8851 121.938L58 125.823L54.1149 121.938L52.9375 123.115L56.8226 127L52.9375 130.885L54.1149 132.062L58 128.177L61.8851 132.062L63.0625 130.885L59.1774 127L63.0625 123.115Z" fill="white"/>
<rect x="66" y="199" width="78" height="36" fill="white"/>
<g filter="url(#filter10_d_31_211)">
<rect x="66" y="199" width="78" height="36" fill="white"/>
<rect x="66.5" y="199.5" width="77" height="35" stroke="#209766"/>
</g>
<g filter="url(#filter11_d_31_211)">
<rect x="66" y="198" width="78" height="36" fill="#219867"/>
</g>
<path d="M110.062 213.115L108.885 211.938L105 215.823L101.115 211.938L99.9375 213.115L103.823 217L99.9375 220.885L101.115 222.062L105 218.177L108.885 222.062L110.062 220.885L106.177 217L110.062 213.115Z" fill="white"/>
<rect x="113" y="290" width="78" height="36" fill="white"/>
<g filter="url(#filter12_d_31_211)">
<rect x="113" y="290" width="78" height="36" fill="white"/>
<rect x="113.5" y="290.5" width="77" height="35" stroke="#209766"/>
</g>
<g filter="url(#filter13_d_31_211)">
<rect x="113" y="289" width="78" height="36" fill="#219867"/>
</g>
<path d="M157.062 304.115L155.885 302.938L152 306.823L148.115 302.938L146.938 304.115L150.823 308L146.938 311.885L148.115 313.062L152 309.177L155.885 313.062L157.062 311.885L153.177 308L157.062 304.115Z" fill="white"/>
<path d="M175.204 218.632L175.828 217.684C176.172 217.908 176.52 218.096 176.872 218.248C177.232 218.392 177.616 218.464 178.024 218.464C178.408 218.464 178.696 218.392 178.888 218.248C179.088 218.104 179.188 217.912 179.188 217.672C179.188 217.464 179.1 217.292 178.924 217.156C178.748 217.012 178.52 216.884 178.24 216.772C177.968 216.66 177.676 216.548 177.364 216.436C177.052 216.316 176.756 216.176 176.476 216.016C176.204 215.848 175.98 215.644 175.804 215.404C175.628 215.164 175.54 214.864 175.54 214.504C175.54 214.112 175.644 213.772 175.852 213.484C176.06 213.196 176.352 212.976 176.728 212.824C177.112 212.664 177.548 212.584 178.036 212.584C178.58 212.584 179.032 212.676 179.392 212.86C179.76 213.044 180.084 213.276 180.364 213.556L179.668 214.36C179.388 214.152 179.12 213.992 178.864 213.88C178.616 213.768 178.308 213.712 177.94 213.712C177.612 213.712 177.352 213.78 177.16 213.916C176.968 214.052 176.872 214.24 176.872 214.48C176.872 214.656 176.96 214.808 177.136 214.936C177.312 215.064 177.54 215.18 177.82 215.284C178.1 215.388 178.392 215.5 178.696 215.62C179.008 215.732 179.3 215.872 179.572 216.04C179.852 216.208 180.08 216.416 180.256 216.664C180.44 216.904 180.532 217.208 180.532 217.576C180.532 217.968 180.42 218.316 180.196 218.62C179.98 218.924 179.672 219.164 179.272 219.34C178.88 219.508 178.404 219.592 177.844 219.592C177.54 219.592 177.224 219.552 176.896 219.472C176.576 219.384 176.268 219.268 175.972 219.124C175.684 218.98 175.428 218.816 175.204 218.632ZM177.496 213.04V211.048H178.456V213.04H177.496ZM177.496 219.052H178.456V221.32H177.496V219.052ZM194.683 219.532L190.123 216.508V215.524L194.683 212.5V213.784L191.287 215.992V216.04L194.683 218.248V219.532ZM196.838 215.2V214.192H202.166V215.2H196.838ZM196.838 217.888V216.88H202.166V217.888H196.838ZM213.701 220.144C213.261 220.144 212.865 220.096 212.513 220C212.169 219.904 211.865 219.776 211.601 219.616C211.337 219.448 211.105 219.272 210.905 219.088L211.541 218.2C211.717 218.344 211.901 218.48 212.093 218.608C212.285 218.728 212.497 218.828 212.729 218.908C212.969 218.98 213.237 219.016 213.533 219.016C213.853 219.016 214.141 218.96 214.397 218.848C214.653 218.728 214.853 218.56 214.997 218.344C215.149 218.12 215.225 217.856 215.225 217.552C215.225 217.096 215.073 216.744 214.769 216.496C214.473 216.248 214.081 216.124 213.593 216.124C213.313 216.124 213.073 216.16 212.873 216.232C212.673 216.296 212.441 216.404 212.177 216.556L211.517 216.136L211.757 212.368H216.257V213.532H212.957L212.789 215.38C212.989 215.3 213.181 215.24 213.365 215.2C213.549 215.152 213.757 215.128 213.989 215.128C214.469 215.128 214.909 215.216 215.309 215.392C215.709 215.56 216.025 215.82 216.257 216.172C216.497 216.524 216.617 216.972 216.617 217.516C216.617 218.076 216.481 218.552 216.209 218.944C215.937 219.336 215.577 219.636 215.129 219.844C214.689 220.044 214.213 220.144 213.701 220.144ZM221.088 220.144C220.512 220.144 220.012 219.988 219.588 219.676C219.164 219.364 218.836 218.912 218.604 218.32C218.372 217.728 218.256 217.004 218.256 216.148C218.256 214.86 218.512 213.884 219.024 213.22C219.536 212.556 220.224 212.224 221.088 212.224C221.96 212.224 222.648 212.556 223.152 213.22C223.664 213.884 223.92 214.86 223.92 216.148C223.92 217.004 223.804 217.728 223.572 218.32C223.348 218.912 223.024 219.364 222.6 219.676C222.176 219.988 221.672 220.144 221.088 220.144ZM221.088 219.064C221.392 219.064 221.664 218.968 221.904 218.776C222.144 218.576 222.332 218.264 222.468 217.84C222.604 217.408 222.672 216.844 222.672 216.148C222.672 215.452 222.604 214.896 222.468 214.48C222.332 214.064 222.144 213.764 221.904 213.58C221.664 213.396 221.392 213.304 221.088 213.304C220.784 213.304 220.512 213.396 220.272 213.58C220.032 213.764 219.844 214.064 219.708 214.48C219.572 214.896 219.504 215.452 219.504 216.148C219.504 216.844 219.572 217.408 219.708 217.84C219.844 218.264 220.032 218.576 220.272 218.776C220.512 218.968 220.784 219.064 221.088 219.064ZM221.088 216.952C220.864 216.952 220.668 216.876 220.5 216.724C220.34 216.572 220.26 216.364 220.26 216.1C220.26 215.836 220.34 215.628 220.5 215.476C220.668 215.324 220.864 215.248 221.088 215.248C221.32 215.248 221.516 215.324 221.676 215.476C221.836 215.628 221.916 215.836 221.916 216.1C221.916 216.364 221.836 216.572 221.676 216.724C221.516 216.876 221.32 216.952 221.088 216.952Z" fill="white"/>
<g filter="url(#filter14_d_31_211)">
<rect x="207" y="289" width="78" height="36" fill="#219867" fill-opacity="0.45" shape-rendering="crispEdges"/>
</g>
<path fill-rule="evenodd" clip-rule="evenodd" d="M254.463 301.919L244.542 313.257L239.535 308.25L240.75 307.035L244.458 310.743L253.169 300.787L254.463 301.919Z" fill="white"/>
<defs>
<filter id="filter0_d_31_211" x="63" y="16" width="86" height="44" filterUnits="userSpaceOnUse" color-interpolation-filters="sRGB">
<feFlood flood-opacity="0" result="BackgroundImageFix"/>
<feColorMatrix in="SourceAlpha" type="matrix" values="0 0 0 0 0 0 0 0 0 0 0 0 0 0 0 0 0 0 127 0" result="hardAlpha"/>
<feOffset dy="1"/>
<feGaussianBlur stdDeviation="2"/>
<feComposite in2="hardAlpha" operator="out"/>
<feColorMatrix type="matrix" values="0 0 0 0 0 0 0 0 0 0 0 0 0 0 0 0 0 0 0.15 0"/>
<feBlend mode="normal" in2="BackgroundImageFix" result="effect1_dropShadow_31_211"/>
<feBlend mode="normal" in="SourceGraphic" in2="effect1_dropShadow_31_211" result="shape"/>
</filter>
<filter id="filter1_d_31_211" x="15" y="106" width="86" height="44" filterUnits="userSpaceOnUse" color-interpolation-filters="sRGB">
<feFlood flood-opacity="0" result="BackgroundImageFix"/>
<feColorMatrix in="SourceAlpha" type="matrix" values="0 0 0 0 0 0 0 0 0 0 0 0 0 0 0 0 0 0 127 0" result="hardAlpha"/>
<feOffset dy="1"/>
<feGaussianBlur stdDeviation="2"/>
<feComposite in2="hardAlpha" operator="out"/>
<feColorMatrix type="matrix" values="0 0 0 0 0 0 0 0 0 0 0 0 0 0 0 0 0 0 0.18 0"/>
<feBlend mode="normal" in2="BackgroundImageFix" result="effect1_dropShadow_31_211"/>
<feBlend mode="normal" in="SourceGraphic" in2="effect1_dropShadow_31_211" result="shape"/>
</filter>
<filter id="filter2_d_31_211" x="62" y="196" width="86" height="44" filterUnits="userSpaceOnUse" color-interpolation-filters="sRGB">
<feFlood flood-opacity="0" result="BackgroundImageFix"/>
<feColorMatrix in="SourceAlpha" type="matrix" values="0 0 0 0 0 0 0 0 0 0 0 0 0 0 0 0 0 0 127 0" result="hardAlpha"/>
<feOffset dy="1"/>
<feGaussianBlur stdDeviation="2"/>
<feComposite in2="hardAlpha" operator="out"/>
<feColorMatrix type="matrix" values="0 0 0 0 0 0 0 0 0 0 0 0 0 0 0 0 0 0 0.18 0"/>
<feBlend mode="normal" in2="BackgroundImageFix" result="effect1_dropShadow_31_211"/>
<feBlend mode="normal" in="SourceGraphic" in2="effect1_dropShadow_31_211" result="shape"/>
</filter>
<filter id="filter3_d_31_211" x="109" y="286" width="86" height="44" filterUnits="userSpaceOnUse" color-interpolation-filters="sRGB">
<feFlood flood-opacity="0" result="BackgroundImageFix"/>
<feColorMatrix in="SourceAlpha" type="matrix" values="0 0 0 0 0 0 0 0 0 0 0 0 0 0 0 0 0 0 127 0" result="hardAlpha"/>
<feOffset dy="1"/>
<feGaussianBlur stdDeviation="2"/>
<feComposite in2="hardAlpha" operator="out"/>
<feColorMatrix type="matrix" values="0 0 0 0 0 0 0 0 0 0 0 0 0 0 0 0 0 0 0.18 0"/>
<feBlend mode="normal" in2="BackgroundImageFix" result="effect1_dropShadow_31_211"/>
<feBlend mode="normal" in="SourceGraphic" in2="effect1_dropShadow_31_211" result="shape"/>
</filter>
<filter id="filter4_d_31_211" x="109" y="106" width="86" height="44" filterUnits="userSpaceOnUse" color-interpolation-filters="sRGB">
<feFlood flood-opacity="0" result="BackgroundImageFix"/>
<feColorMatrix in="SourceAlpha" type="matrix" values="0 0 0 0 0 0 0 0 0 0 0 0 0 0 0 0 0 0 127 0" result="hardAlpha"/>
<feOffset dy="1"/>
<feGaussianBlur stdDeviation="2"/>
<feComposite in2="hardAlpha" operator="out"/>
<feColorMatrix type="matrix" values="0 0 0 0 0 0 0 0 0 0 0 0 0 0 0 0 0 0 0.18 0"/>
<feBlend mode="normal" in2="BackgroundImageFix" result="effect1_dropShadow_31_211"/>
<feBlend mode="normal" in="SourceGraphic" in2="effect1_dropShadow_31_211" result="shape"/>
</filter>
<filter id="filter5_d_31_211" x="156" y="196" width="86" height="44" filterUnits="userSpaceOnUse" color-interpolation-filters="sRGB">
<feFlood flood-opacity="0" result="BackgroundImageFix"/>
<feColorMatrix in="SourceAlpha" type="matrix" values="0 0 0 0 0 0 0 0 0 0 0 0 0 0 0 0 0 0 127 0" result="hardAlpha"/>
<feOffset dy="1"/>
<feGaussianBlur stdDeviation="2"/>
<feComposite in2="hardAlpha" operator="out"/>
<feColorMatrix type="matrix" values="0 0 0 0 0 0 0 0 0 0 0 0 0 0 0 0 0 0 0.18 0"/>
<feBlend mode="normal" in2="BackgroundImageFix" result="effect1_dropShadow_31_211"/>
<feBlend mode="normal" in="SourceGraphic" in2="effect1_dropShadow_31_211" result="shape"/>
</filter>
<filter id="filter6_d_31_211" x="203" y="286" width="86" height="44" filterUnits="userSpaceOnUse" color-interpolation-filters="sRGB">
<feFlood flood-opacity="0" result="BackgroundImageFix"/>
<feColorMatrix in="SourceAlpha" type="matrix" values="0 0 0 0 0 0 0 0 0 0 0 0 0 0 0 0 0 0 127 0" result="hardAlpha"/>
<feOffset dy="1"/>
<feGaussianBlur stdDeviation="2"/>
<feComposite in2="hardAlpha" operator="out"/>
<feColorMatrix type="matrix" values="0 0 0 0 0 0 0 0 0 0 0 0 0 0 0 0 0 0 0.18 0"/>
<feBlend mode="normal" in2="BackgroundImageFix" result="effect1_dropShadow_31_211"/>
<feBlend mode="normal" in="SourceGraphic" in2="effect1_dropShadow_31_211" result="shape"/>
</filter>
<filter id="filter7_d_31_211" x="110" y="106" width="86" height="44" filterUnits="userSpaceOnUse" color-interpolation-filters="sRGB">
<feFlood flood-opacity="0" result="BackgroundImageFix"/>
<feColorMatrix in="SourceAlpha" type="matrix" values="0 0 0 0 0 0 0 0 0 0 0 0 0 0 0 0 0 0 127 0" result="hardAlpha"/>
<feOffset dy="1"/>
<feGaussianBlur stdDeviation="2"/>
<feComposite in2="hardAlpha" operator="out"/>
<feColorMatrix type="matrix" values="0 0 0 0 0 0 0 0 0 0 0 0 0 0 0 0 0 0 0.15 0"/>
<feBlend mode="normal" in2="BackgroundImageFix" result="effect1_dropShadow_31_211"/>
<feBlend mode="normal" in="SourceGraphic" in2="effect1_dropShadow_31_211" result="shape"/>
</filter>
<filter id="filter8_d_31_211" x="155" y="196" width="86" height="44" filterUnits="userSpaceOnUse" color-interpolation-filters="sRGB">
<feFlood flood-opacity="0" result="BackgroundImageFix"/>
<feColorMatrix in="SourceAlpha" type="matrix" values="0 0 0 0 0 0 0 0 0 0 0 0 0 0 0 0 0 0 127 0" result="hardAlpha"/>
<feOffset dy="1"/>
<feGaussianBlur stdDeviation="2"/>
<feComposite in2="hardAlpha" operator="out"/>
<feColorMatrix type="matrix" values="0 0 0 0 0 0 0 0 0 0 0 0 0 0 0 0 0 0 0.15 0"/>
<feBlend mode="normal" in2="BackgroundImageFix" result="effect1_dropShadow_31_211"/>
<feBlend mode="normal" in="SourceGraphic" in2="effect1_dropShadow_31_211" result="shape"/>
</filter>
<filter id="filter9_d_31_211" x="15" y="105" width="86" height="44" filterUnits="userSpaceOnUse" color-interpolation-filters="sRGB">
<feFlood flood-opacity="0" result="BackgroundImageFix"/>
<feColorMatrix in="SourceAlpha" type="matrix" values="0 0 0 0 0 0 0 0 0 0 0 0 0 0 0 0 0 0 127 0" result="hardAlpha"/>
<feOffset dy="1"/>
<feGaussianBlur stdDeviation="2"/>
<feComposite in2="hardAlpha" operator="out"/>
<feColorMatrix type="matrix" values="0 0 0 0 0 0 0 0 0 0 0 0 0 0 0 0 0 0 0.15 0"/>
<feBlend mode="normal" in2="BackgroundImageFix" result="effect1_dropShadow_31_211"/>
<feBlend mode="normal" in="SourceGraphic" in2="effect1_dropShadow_31_211" result="shape"/>
</filter>
<filter id="filter10_d_31_211" x="62" y="196" width="86" height="44" filterUnits="userSpaceOnUse" color-interpolation-filters="sRGB">
<feFlood flood-opacity="0" result="BackgroundImageFix"/>
<feColorMatrix in="SourceAlpha" type="matrix" values="0 0 0 0 0 0 0 0 0 0 0 0 0 0 0 0 0 0 127 0" result="hardAlpha"/>
<feOffset dy="1"/>
<feGaussianBlur stdDeviation="2"/>
<feComposite in2="hardAlpha" operator="out"/>
<feColorMatrix type="matrix" values="0 0 0 0 0 0 0 0 0 0 0 0 0 0 0 0 0 0 0.18 0"/>
<feBlend mode="normal" in2="BackgroundImageFix" result="effect1_dropShadow_31_211"/>
<feBlend mode="normal" in="SourceGraphic" in2="effect1_dropShadow_31_211" result="shape"/>
</filter>
<filter id="filter11_d_31_211" x="62" y="195" width="86" height="44" filterUnits="userSpaceOnUse" color-interpolation-filters="sRGB">
<feFlood flood-opacity="0" result="BackgroundImageFix"/>
<feColorMatrix in="SourceAlpha" type="matrix" values="0 0 0 0 0 0 0 0 0 0 0 0 0 0 0 0 0 0 127 0" result="hardAlpha"/>
<feOffset dy="1"/>
<feGaussianBlur stdDeviation="2"/>
<feComposite in2="hardAlpha" operator="out"/>
<feColorMatrix type="matrix" values="0 0 0 0 0 0 0 0 0 0 0 0 0 0 0 0 0 0 0.15 0"/>
<feBlend mode="normal" in2="BackgroundImageFix" result="effect1_dropShadow_31_211"/>
<feBlend mode="normal" in="SourceGraphic" in2="effect1_dropShadow_31_211" result="shape"/>
</filter>
<filter id="filter12_d_31_211" x="109" y="287" width="86" height="44" filterUnits="userSpaceOnUse" color-interpolation-filters="sRGB">
<feFlood flood-opacity="0" result="BackgroundImageFix"/>
<feColorMatrix in="SourceAlpha" type="matrix" values="0 0 0 0 0 0 0 0 0 0 0 0 0 0 0 0 0 0 127 0" result="hardAlpha"/>
<feOffset dy="1"/>
<feGaussianBlur stdDeviation="2"/>
<feComposite in2="hardAlpha" operator="out"/>
<feColorMatrix type="matrix" values="0 0 0 0 0 0 0 0 0 0 0 0 0 0 0 0 0 0 0.18 0"/>
<feBlend mode="normal" in2="BackgroundImageFix" result="effect1_dropShadow_31_211"/>
<feBlend mode="normal" in="SourceGraphic" in2="effect1_dropShadow_31_211" result="shape"/>
</filter>
<filter id="filter13_d_31_211" x="109" y="286" width="86" height="44" filterUnits="userSpaceOnUse" color-interpolation-filters="sRGB">
<feFlood flood-opacity="0" result="BackgroundImageFix"/>
<feColorMatrix in="SourceAlpha" type="matrix" values="0 0 0 0 0 0 0 0 0 0 0 0 0 0 0 0 0 0 127 0" result="hardAlpha"/>
<feOffset dy="1"/>
<feGaussianBlur stdDeviation="2"/>
<feComposite in2="hardAlpha" operator="out"/>
<feColorMatrix type="matrix" values="0 0 0 0 0 0 0 0 0 0 0 0 0 0 0 0 0 0 0.15 0"/>
<feBlend mode="normal" in2="BackgroundImageFix" result="effect1_dropShadow_31_211"/>
<feBlend mode="normal" in="SourceGraphic" in2="effect1_dropShadow_31_211" result="shape"/>
</filter>
<filter id="filter14_d_31_211" x="203" y="286" width="86" height="44" filterUnits="userSpaceOnUse" color-interpolation-filters="sRGB">
<feFlood flood-opacity="0" result="BackgroundImageFix"/>
<feColorMatrix in="SourceAlpha" type="matrix" values="0 0 0 0 0 0 0 0 0 0 0 0 0 0 0 0 0 0 127 0" result="hardAlpha"/>
<feOffset dy="1"/>
<feGaussianBlur stdDeviation="2"/>
<feComposite in2="hardAlpha" operator="out"/>
<feColorMatrix type="matrix" values="0 0 0 0 0 0 0 0 0 0 0 0 0 0 0 0 0 0 0.15 0"/>
<feBlend mode="normal" in2="BackgroundImageFix" result="effect1_dropShadow_31_211"/>
<feBlend mode="normal" in="SourceGraphic" in2="effect1_dropShadow_31_211" result="shape"/>
</filter>
<linearGradient id="paint0_linear_31_211" x1="58.5" y1="96.5" x2="105.5" y2="60" gradientUnits="userSpaceOnUse">
<stop stop-color="#209766"/>
<stop offset="1" stop-color="#209766" stop-opacity="0.1"/>
</linearGradient>
<linearGradient id="paint1_linear_31_211" x1="105.5" y1="186.5" x2="152.5" y2="150" gradientUnits="userSpaceOnUse">
<stop stop-color="#209766"/>
<stop offset="1" stop-color="#209766" stop-opacity="0.1"/>
</linearGradient>
<linearGradient id="paint2_linear_31_211" x1="152.5" y1="276.5" x2="199.5" y2="240" gradientUnits="userSpaceOnUse">
<stop stop-color="#209766"/>
<stop offset="1" stop-color="#209766" stop-opacity="0.1"/>
</linearGradient>
<linearGradient id="paint3_linear_31_211" x1="152.5" y1="103" x2="105.5" y2="60" gradientUnits="userSpaceOnUse">
<stop stop-color="#C74E4E"/>
<stop offset="1" stop-color="#C74E4E" stop-opacity="0.1"/>
</linearGradient>
<linearGradient id="paint4_linear_31_211" x1="199.5" y1="193" x2="152.5" y2="150" gradientUnits="userSpaceOnUse">
<stop stop-color="#C74E4E"/>
<stop offset="1" stop-color="#C74E4E" stop-opacity="0.1"/>
</linearGradient>
<linearGradient id="paint5_linear_31_211" x1="246.5" y1="283" x2="199.5" y2="240" gradientUnits="userSpaceOnUse">
<stop stop-color="#C74E4E"/>
<stop offset="1" stop-color="#C74E4E" stop-opacity="0.1"/>
</linearGradient>
</defs>
</svg>
