<svg width="607" height="267" viewBox="0 0 607 267" fill="none" xmlns="http://www.w3.org/2000/svg">
<rect width="607" height="267" fill="white"/>
<path d="M23 68V226H285" stroke="#232A3D" stroke-width="3" stroke-linecap="round"/>
<path d="M316 67V225H578" stroke="#232A3D" stroke-width="3" stroke-linecap="round"/>
<path d="M111.232 34V23.568H113.584V34H111.232ZM115.853 34V26.064H117.773L117.933 27.072H117.997C118.338 26.752 118.711 26.4747 119.117 26.24C119.533 25.9947 120.007 25.872 120.541 25.872C121.405 25.872 122.029 26.16 122.413 26.736C122.807 27.3013 123.005 28.08 123.005 29.072V34H120.653V29.376C120.653 28.8 120.573 28.4053 120.413 28.192C120.263 27.9787 120.018 27.872 119.677 27.872C119.378 27.872 119.122 27.9413 118.909 28.08C118.695 28.208 118.461 28.3947 118.205 28.64V34H115.853ZM125.409 34V27.904H124.353V26.16L125.409 26.08V25.648C125.409 25.0827 125.505 24.5707 125.697 24.112C125.889 23.6533 126.198 23.2853 126.625 23.008C127.051 22.7307 127.622 22.592 128.337 22.592C128.667 22.592 128.971 22.624 129.249 22.688C129.526 22.752 129.75 22.816 129.921 22.88L129.489 24.608C129.35 24.5547 129.211 24.5173 129.073 24.496C128.934 24.464 128.801 24.448 128.673 24.448C128.385 24.448 128.161 24.5387 128.001 24.72C127.841 24.8907 127.761 25.1787 127.761 25.584V26.064H129.185V27.904H127.761V34H125.409ZM133.714 34.192C133.042 34.192 132.407 34.032 131.81 33.712C131.223 33.3813 130.748 32.9067 130.386 32.288C130.023 31.6587 129.842 30.9067 129.842 30.032C129.842 29.1467 130.023 28.3947 130.386 27.776C130.748 27.1573 131.223 26.688 131.81 26.368C132.407 26.0373 133.042 25.872 133.714 25.872C134.386 25.872 135.015 26.0373 135.602 26.368C136.188 26.688 136.663 27.1573 137.026 27.776C137.388 28.3947 137.57 29.1467 137.57 30.032C137.57 30.9067 137.388 31.6587 137.026 32.288C136.663 32.9067 136.188 33.3813 135.602 33.712C135.015 34.032 134.386 34.192 133.714 34.192ZM133.714 32.288C134.194 32.288 134.556 32.0853 134.802 31.68C135.047 31.264 135.17 30.7147 135.17 30.032C135.17 29.3387 135.047 28.7893 134.802 28.384C134.556 27.9787 134.194 27.776 133.714 27.776C133.223 27.776 132.855 27.9787 132.61 28.384C132.375 28.7893 132.258 29.3387 132.258 30.032C132.258 30.7147 132.375 31.264 132.61 31.68C132.855 32.0853 133.223 32.288 133.714 32.288ZM139.181 34V26.064H141.101L141.261 27.456H141.325C141.613 26.9227 141.959 26.528 142.365 26.272C142.77 26.0053 143.175 25.872 143.581 25.872C143.805 25.872 143.991 25.888 144.141 25.92C144.29 25.9413 144.418 25.9787 144.525 26.032L144.141 28.064C144.002 28.0213 143.863 27.9893 143.725 27.968C143.597 27.9467 143.447 27.936 143.277 27.936C142.978 27.936 142.663 28.048 142.333 28.272C142.013 28.4853 141.746 28.8587 141.533 29.392V34H139.181ZM145.556 34V26.064H147.476L147.636 27.088H147.7C148.03 26.7573 148.382 26.4747 148.756 26.24C149.129 25.9947 149.577 25.872 150.1 25.872C150.665 25.872 151.118 25.9893 151.46 26.224C151.812 26.448 152.089 26.7733 152.292 27.2C152.644 26.8373 153.017 26.528 153.412 26.272C153.806 26.0053 154.265 25.872 154.788 25.872C155.641 25.872 156.265 26.16 156.66 26.736C157.065 27.3013 157.268 28.08 157.268 29.072V34H154.916V29.376C154.916 28.8 154.836 28.4053 154.676 28.192C154.526 27.9787 154.281 27.872 153.94 27.872C153.545 27.872 153.092 28.128 152.58 28.64V34H150.228V29.376C150.228 28.8 150.148 28.4053 149.988 28.192C149.838 27.9787 149.593 27.872 149.252 27.872C148.857 27.872 148.409 28.128 147.908 28.64V34H145.556ZM161.274 34.192C160.549 34.192 159.973 33.9627 159.546 33.504C159.12 33.0347 158.906 32.464 158.906 31.792C158.906 30.96 159.258 30.3093 159.962 29.84C160.666 29.3707 161.802 29.056 163.37 28.896C163.349 28.544 163.242 28.2667 163.05 28.064C162.869 27.8507 162.56 27.744 162.122 27.744C161.792 27.744 161.456 27.808 161.114 27.936C160.773 28.064 160.41 28.24 160.026 28.464L159.178 26.912C159.68 26.6027 160.213 26.352 160.778 26.16C161.354 25.968 161.952 25.872 162.57 25.872C163.584 25.872 164.362 26.1653 164.906 26.752C165.45 27.3387 165.722 28.24 165.722 29.456V34H163.802L163.642 33.184H163.578C163.248 33.4827 162.89 33.728 162.506 33.92C162.133 34.1013 161.722 34.192 161.274 34.192ZM162.074 32.368C162.341 32.368 162.57 32.3093 162.762 32.192C162.965 32.064 163.168 31.8987 163.37 31.696V30.304C162.538 30.4107 161.962 30.5813 161.642 30.816C161.322 31.04 161.162 31.3067 161.162 31.616C161.162 31.872 161.242 32.064 161.402 32.192C161.573 32.3093 161.797 32.368 162.074 32.368ZM170.487 34.192C169.505 34.192 168.801 33.9093 168.375 33.344C167.959 32.7787 167.751 32.0373 167.751 31.12V27.904H166.663V26.16L167.879 26.064L168.151 23.952H170.103V26.064H172.007V27.904H170.103V31.088C170.103 31.536 170.193 31.8613 170.375 32.064C170.567 32.256 170.817 32.352 171.127 32.352C171.255 32.352 171.383 32.336 171.511 32.304C171.649 32.272 171.772 32.2347 171.879 32.192L172.247 33.904C172.044 33.968 171.793 34.032 171.495 34.096C171.207 34.16 170.871 34.192 170.487 34.192ZM173.556 34V26.064H175.908V34H173.556ZM174.724 24.896C174.329 24.896 174.009 24.784 173.764 24.56C173.518 24.336 173.396 24.0373 173.396 23.664C173.396 23.2907 173.518 22.992 173.764 22.768C174.009 22.544 174.329 22.432 174.724 22.432C175.118 22.432 175.438 22.544 175.684 22.768C175.929 22.992 176.052 23.2907 176.052 23.664C176.052 24.0373 175.929 24.336 175.684 24.56C175.438 24.784 175.118 24.896 174.724 24.896ZM179.802 34L177.13 26.064H179.498L180.522 29.808C180.628 30.2027 180.73 30.608 180.826 31.024C180.932 31.4293 181.039 31.84 181.146 32.256H181.21C181.306 31.84 181.402 31.4293 181.498 31.024C181.604 30.608 181.711 30.2027 181.818 29.808L182.858 26.064H185.114L182.522 34H179.802ZM189.78 34.192C189.022 34.192 188.34 34.0267 187.732 33.696C187.124 33.3653 186.644 32.8907 186.292 32.272C185.94 31.6533 185.764 30.9067 185.764 30.032C185.764 29.168 185.94 28.4267 186.292 27.808C186.654 27.1893 187.124 26.7147 187.7 26.384C188.276 26.0427 188.878 25.872 189.508 25.872C190.265 25.872 190.889 26.0427 191.38 26.384C191.881 26.7147 192.254 27.168 192.5 27.744C192.756 28.3093 192.884 28.9547 192.884 29.68C192.884 29.8827 192.873 30.0853 192.852 30.288C192.83 30.48 192.809 30.624 192.788 30.72H188.036C188.142 31.296 188.382 31.7227 188.756 32C189.129 32.2667 189.577 32.4 190.1 32.4C190.665 32.4 191.236 32.224 191.812 31.872L192.596 33.296C192.19 33.5733 191.737 33.792 191.236 33.952C190.734 34.112 190.249 34.192 189.78 34.192ZM188.02 29.168H190.884C190.884 28.7307 190.777 28.3733 190.564 28.096C190.361 27.808 190.025 27.664 189.556 27.664C189.193 27.664 188.868 27.792 188.58 28.048C188.292 28.2933 188.105 28.6667 188.02 29.168Z" fill="#232A3D"/>
<path d="M399.344 34.192C397.989 34.192 396.955 33.792 396.24 32.992C395.525 32.192 395.168 30.9173 395.168 29.168V23.568H397.536V29.408C397.536 30.432 397.691 31.1467 398 31.552C398.309 31.9573 398.757 32.16 399.344 32.16C399.931 32.16 400.384 31.9573 400.704 31.552C401.024 31.1467 401.184 30.432 401.184 29.408V23.568H403.456V29.168C403.456 30.9173 403.104 32.192 402.4 32.992C401.707 33.792 400.688 34.192 399.344 34.192ZM405.681 34V26.064H407.601L407.761 27.072H407.825C408.166 26.752 408.539 26.4747 408.945 26.24C409.361 25.9947 409.835 25.872 410.369 25.872C411.233 25.872 411.857 26.16 412.241 26.736C412.635 27.3013 412.833 28.08 412.833 29.072V34H410.481V29.376C410.481 28.8 410.401 28.4053 410.241 28.192C410.091 27.9787 409.846 27.872 409.505 27.872C409.206 27.872 408.95 27.9413 408.737 28.08C408.523 28.208 408.289 28.3947 408.033 28.64V34H405.681ZM414.837 34V26.064H417.189V34H414.837ZM416.005 24.896C415.61 24.896 415.29 24.784 415.045 24.56C414.8 24.336 414.677 24.0373 414.677 23.664C414.677 23.2907 414.8 22.992 415.045 22.768C415.29 22.544 415.61 22.432 416.005 22.432C416.4 22.432 416.72 22.544 416.965 22.768C417.21 22.992 417.333 23.2907 417.333 23.664C417.333 24.0373 417.21 24.336 416.965 24.56C416.72 24.784 416.4 24.896 416.005 24.896ZM419.259 34V26.064H421.179L421.339 27.072H421.403C421.744 26.752 422.117 26.4747 422.523 26.24C422.939 25.9947 423.413 25.872 423.947 25.872C424.811 25.872 425.435 26.16 425.819 26.736C426.213 27.3013 426.411 28.08 426.411 29.072V34H424.059V29.376C424.059 28.8 423.979 28.4053 423.819 28.192C423.669 27.9787 423.424 27.872 423.083 27.872C422.784 27.872 422.528 27.9413 422.315 28.08C422.101 28.208 421.867 28.3947 421.611 28.64V34H419.259ZM428.815 34V27.904H427.759V26.16L428.815 26.08V25.648C428.815 25.0827 428.911 24.5707 429.103 24.112C429.295 23.6533 429.604 23.2853 430.031 23.008C430.458 22.7307 431.028 22.592 431.743 22.592C432.074 22.592 432.378 22.624 432.655 22.688C432.932 22.752 433.156 22.816 433.327 22.88L432.895 24.608C432.756 24.5547 432.618 24.5173 432.479 24.496C432.34 24.464 432.207 24.448 432.079 24.448C431.791 24.448 431.567 24.5387 431.407 24.72C431.247 24.8907 431.167 25.1787 431.167 25.584V26.064H432.591V27.904H431.167V34H428.815ZM437.12 34.192C436.448 34.192 435.813 34.032 435.216 33.712C434.629 33.3813 434.155 32.9067 433.792 32.288C433.429 31.6587 433.248 30.9067 433.248 30.032C433.248 29.1467 433.429 28.3947 433.792 27.776C434.155 27.1573 434.629 26.688 435.216 26.368C435.813 26.0373 436.448 25.872 437.12 25.872C437.792 25.872 438.421 26.0373 439.008 26.368C439.595 26.688 440.069 27.1573 440.432 27.776C440.795 28.3947 440.976 29.1467 440.976 30.032C440.976 30.9067 440.795 31.6587 440.432 32.288C440.069 32.9067 439.595 33.3813 439.008 33.712C438.421 34.032 437.792 34.192 437.12 34.192ZM437.12 32.288C437.6 32.288 437.963 32.0853 438.208 31.68C438.453 31.264 438.576 30.7147 438.576 30.032C438.576 29.3387 438.453 28.7893 438.208 28.384C437.963 27.9787 437.6 27.776 437.12 27.776C436.629 27.776 436.261 27.9787 436.016 28.384C435.781 28.7893 435.664 29.3387 435.664 30.032C435.664 30.7147 435.781 31.264 436.016 31.68C436.261 32.0853 436.629 32.288 437.12 32.288ZM442.587 34V26.064H444.507L444.667 27.456H444.731C445.019 26.9227 445.366 26.528 445.771 26.272C446.176 26.0053 446.582 25.872 446.987 25.872C447.211 25.872 447.398 25.888 447.547 25.92C447.696 25.9413 447.824 25.9787 447.931 26.032L447.547 28.064C447.408 28.0213 447.27 27.9893 447.131 27.968C447.003 27.9467 446.854 27.936 446.683 27.936C446.384 27.936 446.07 28.048 445.739 28.272C445.419 28.4853 445.152 28.8587 444.939 29.392V34H442.587ZM448.962 34V26.064H450.882L451.042 27.088H451.106C451.437 26.7573 451.789 26.4747 452.162 26.24C452.535 25.9947 452.983 25.872 453.506 25.872C454.071 25.872 454.525 25.9893 454.866 26.224C455.218 26.448 455.495 26.7733 455.698 27.2C456.05 26.8373 456.423 26.528 456.818 26.272C457.213 26.0053 457.671 25.872 458.194 25.872C459.047 25.872 459.671 26.16 460.066 26.736C460.471 27.3013 460.674 28.08 460.674 29.072V34H458.322V29.376C458.322 28.8 458.242 28.4053 458.082 28.192C457.933 27.9787 457.687 27.872 457.346 27.872C456.951 27.872 456.498 28.128 455.986 28.64V34H453.634V29.376C453.634 28.8 453.554 28.4053 453.394 28.192C453.245 27.9787 452.999 27.872 452.658 27.872C452.263 27.872 451.815 28.128 451.314 28.64V34H448.962ZM464.681 34.192C463.955 34.192 463.379 33.9627 462.953 33.504C462.526 33.0347 462.313 32.464 462.313 31.792C462.313 30.96 462.665 30.3093 463.369 29.84C464.073 29.3707 465.209 29.056 466.777 28.896C466.755 28.544 466.649 28.2667 466.457 28.064C466.275 27.8507 465.966 27.744 465.529 27.744C465.198 27.744 464.862 27.808 464.521 27.936C464.179 28.064 463.817 28.24 463.433 28.464L462.585 26.912C463.086 26.6027 463.619 26.352 464.185 26.16C464.761 25.968 465.358 25.872 465.977 25.872C466.99 25.872 467.769 26.1653 468.313 26.752C468.857 27.3387 469.129 28.24 469.129 29.456V34H467.209L467.049 33.184H466.985C466.654 33.4827 466.297 33.728 465.913 33.92C465.539 34.1013 465.129 34.192 464.681 34.192ZM465.481 32.368C465.747 32.368 465.977 32.3093 466.169 32.192C466.371 32.064 466.574 31.8987 466.777 31.696V30.304C465.945 30.4107 465.369 30.5813 465.049 30.816C464.729 31.04 464.569 31.3067 464.569 31.616C464.569 31.872 464.649 32.064 464.809 32.192C464.979 32.3093 465.203 32.368 465.481 32.368ZM473.893 34.192C472.912 34.192 472.208 33.9093 471.781 33.344C471.365 32.7787 471.157 32.0373 471.157 31.12V27.904H470.069V26.16L471.285 26.064L471.557 23.952H473.509V26.064H475.413V27.904H473.509V31.088C473.509 31.536 473.6 31.8613 473.781 32.064C473.973 32.256 474.224 32.352 474.533 32.352C474.661 32.352 474.789 32.336 474.917 32.304C475.056 32.272 475.178 32.2347 475.285 32.192L475.653 33.904C475.45 33.968 475.2 34.032 474.901 34.096C474.613 34.16 474.277 34.192 473.893 34.192ZM476.962 34V26.064H479.314V34H476.962ZM478.13 24.896C477.735 24.896 477.415 24.784 477.17 24.56C476.925 24.336 476.802 24.0373 476.802 23.664C476.802 23.2907 476.925 22.992 477.17 22.768C477.415 22.544 477.735 22.432 478.13 22.432C478.525 22.432 478.845 22.544 479.09 22.768C479.335 22.992 479.458 23.2907 479.458 23.664C479.458 24.0373 479.335 24.336 479.09 24.56C478.845 24.784 478.525 24.896 478.13 24.896ZM483.208 34L480.536 26.064H482.904L483.928 29.808C484.034 30.2027 484.136 30.608 484.232 31.024C484.338 31.4293 484.445 31.84 484.552 32.256H484.616C484.712 31.84 484.808 31.4293 484.904 31.024C485.01 30.608 485.117 30.2027 485.224 29.808L486.264 26.064H488.52L485.928 34H483.208ZM493.186 34.192C492.428 34.192 491.746 34.0267 491.138 33.696C490.53 33.3653 490.05 32.8907 489.698 32.272C489.346 31.6533 489.17 30.9067 489.17 30.032C489.17 29.168 489.346 28.4267 489.698 27.808C490.06 27.1893 490.53 26.7147 491.106 26.384C491.682 26.0427 492.284 25.872 492.914 25.872C493.671 25.872 494.295 26.0427 494.786 26.384C495.287 26.7147 495.66 27.168 495.906 27.744C496.162 28.3093 496.29 28.9547 496.29 29.68C496.29 29.8827 496.279 30.0853 496.258 30.288C496.236 30.48 496.215 30.624 496.194 30.72H491.442C491.548 31.296 491.788 31.7227 492.162 32C492.535 32.2667 492.983 32.4 493.506 32.4C494.071 32.4 494.642 32.224 495.218 31.872L496.002 33.296C495.596 33.5733 495.143 33.792 494.642 33.952C494.14 34.112 493.655 34.192 493.186 34.192ZM491.426 29.168H494.29C494.29 28.7307 494.183 28.3733 493.97 28.096C493.767 27.808 493.431 27.664 492.962 27.664C492.599 27.664 492.274 27.792 491.986 28.048C491.698 28.2933 491.511 28.6667 491.426 29.168Z" fill="#232A3D"/>
<path d="M85.144 246L88.392 235.568H91.208L94.456 246H91.96L90.616 240.72C90.488 240.197 90.3493 239.643 90.2 239.056C90.0507 238.469 89.912 237.904 89.784 237.36H89.72C89.592 237.904 89.4587 238.469 89.32 239.056C89.1813 239.643 89.0427 240.197 88.904 240.72L87.544 246H85.144ZM87.288 243.52V241.68H92.28V243.52H87.288Z" fill="#232A3D"/>
<path d="M378.144 246L381.392 235.568H384.208L387.456 246H384.96L383.616 240.72C383.488 240.197 383.349 239.643 383.2 239.056C383.051 238.469 382.912 237.904 382.784 237.36H382.72C382.592 237.904 382.459 238.469 382.32 239.056C382.181 239.643 382.043 240.197 381.904 240.72L380.544 246H378.144ZM380.288 243.52V241.68H385.28V243.52H380.288Z" fill="#232A3D"/>
<path d="M206.184 246V235.568H209.688C210.413 235.568 211.064 235.648 211.64 235.808C212.216 235.957 212.669 236.219 213 236.592C213.341 236.965 213.512 237.488 213.512 238.16C213.512 238.629 213.368 239.083 213.08 239.52C212.792 239.957 212.339 240.256 211.72 240.416V240.48C212.467 240.608 213.032 240.875 213.416 241.28C213.8 241.675 213.992 242.224 213.992 242.928C213.992 243.632 213.816 244.213 213.464 244.672C213.112 245.12 212.632 245.456 212.024 245.68C211.427 245.893 210.749 246 209.992 246H206.184ZM208.536 239.76H209.576C210.152 239.76 210.568 239.648 210.824 239.424C211.08 239.189 211.208 238.875 211.208 238.48C211.208 238.096 211.075 237.824 210.808 237.664C210.552 237.493 210.147 237.408 209.592 237.408H208.536V239.76ZM208.536 244.16H209.8C210.44 244.16 210.915 244.043 211.224 243.808C211.533 243.573 211.688 243.221 211.688 242.752C211.688 242.293 211.533 241.963 211.224 241.76C210.915 241.557 210.44 241.456 209.8 241.456H208.536V244.16Z" fill="#232A3D"/>
<path d="M499.184 246V235.568H502.688C503.413 235.568 504.064 235.648 504.64 235.808C505.216 235.957 505.669 236.219 506 236.592C506.341 236.965 506.512 237.488 506.512 238.16C506.512 238.629 506.368 239.083 506.08 239.52C505.792 239.957 505.339 240.256 504.72 240.416V240.48C505.467 240.608 506.032 240.875 506.416 241.28C506.8 241.675 506.992 242.224 506.992 242.928C506.992 243.632 506.816 244.213 506.464 244.672C506.112 245.12 505.632 245.456 505.024 245.68C504.427 245.893 503.749 246 502.992 246H499.184ZM501.536 239.76H502.576C503.152 239.76 503.568 239.648 503.824 239.424C504.08 239.189 504.208 238.875 504.208 238.48C504.208 238.096 504.075 237.824 503.808 237.664C503.552 237.493 503.147 237.408 502.592 237.408H501.536V239.76ZM501.536 244.16H502.8C503.44 244.16 503.915 244.043 504.224 243.808C504.533 243.573 504.688 243.221 504.688 242.752C504.688 242.293 504.533 241.963 504.224 241.76C503.915 241.557 503.44 241.456 502.8 241.456H501.536V244.16Z" fill="#232A3D"/>
<path d="M90 131V216.5" stroke="#232A3D" stroke-width="4"/>
<path d="M90 131V216.5" stroke="#232A3D" stroke-width="2"/>
<mask id="path-11-inside-1_3_82" fill="white">
<path d="M74 149C74 147.895 74.8954 147 76 147H104C105.105 147 106 147.895 106 149V174H74V149Z"/>
</mask>
<path d="M74 149C74 147.895 74.8954 147 76 147H104C105.105 147 106 147.895 106 149V174H74V149Z" fill="#9B51E0" stroke="#232A3D" stroke-width="6" mask="url(#path-11-inside-1_3_82)"/>
<mask id="path-12-inside-2_3_82" fill="white">
<path d="M74 172H106V201C106 202.105 105.105 203 104 203H76C74.8954 203 74 202.105 74 201V172Z"/>
</mask>
<path d="M74 172H106V201C106 202.105 105.105 203 104 203H76C74.8954 203 74 202.105 74 201V172Z" fill="#9B51E0" stroke="#232A3D" stroke-width="6" mask="url(#path-12-inside-2_3_82)"/>
<path d="M383 103V188.5" stroke="#232A3D" stroke-width="4"/>
<path d="M383 103V188.5" stroke="#232A3D" stroke-width="2"/>
<mask id="path-15-inside-3_3_82" fill="white">
<path d="M367 121C367 119.895 367.895 119 369 119H397C398.105 119 399 119.895 399 121V146H367V121Z"/>
</mask>
<path d="M367 121C367 119.895 367.895 119 369 119H397C398.105 119 399 119.895 399 121V146H367V121Z" fill="#9B51E0" stroke="#232A3D" stroke-width="6" mask="url(#path-15-inside-3_3_82)"/>
<mask id="path-16-inside-4_3_82" fill="white">
<path d="M367 144H399V173C399 174.105 398.105 175 397 175H369C367.895 175 367 174.105 367 173V144Z"/>
</mask>
<path d="M367 144H399V173C399 174.105 398.105 175 397 175H369C367.895 175 367 174.105 367 173V144Z" fill="#9B51E0" stroke="#232A3D" stroke-width="6" mask="url(#path-16-inside-4_3_82)"/>
<path d="M210 65V150.5" stroke="#232A3D" stroke-width="4"/>
<path d="M210 65V150.5" stroke="#232A3D" stroke-width="2"/>
<mask id="path-19-inside-5_3_82" fill="white">
<path d="M194 83C194 81.8954 194.895 81 196 81H224C225.105 81 226 81.8954 226 83V108H194V83Z"/>
</mask>
<path d="M194 83C194 81.8954 194.895 81 196 81H224C225.105 81 226 81.8954 226 83V108H194V83Z" fill="#9B51E0" stroke="#232A3D" stroke-width="6" mask="url(#path-19-inside-5_3_82)"/>
<mask id="path-20-inside-6_3_82" fill="white">
<path d="M194 106H226V135C226 136.105 225.105 137 224 137H196C194.895 137 194 136.105 194 135V106Z"/>
</mask>
<path d="M194 106H226V135C226 136.105 225.105 137 224 137H196C194.895 137 194 136.105 194 135V106Z" fill="#9B51E0" stroke="#232A3D" stroke-width="6" mask="url(#path-20-inside-6_3_82)"/>
<path d="M503 103V188.5" stroke="#232A3D" stroke-width="4"/>
<path d="M503 103V188.5" stroke="#232A3D" stroke-width="2"/>
<mask id="path-23-inside-7_3_82" fill="white">
<path d="M487 121C487 119.895 487.895 119 489 119H517C518.105 119 519 119.895 519 121V146H487V121Z"/>
</mask>
<path d="M487 121C487 119.895 487.895 119 489 119H517C518.105 119 519 119.895 519 121V146H487V121Z" fill="#9B51E0" stroke="#232A3D" stroke-width="6" mask="url(#path-23-inside-7_3_82)"/>
<mask id="path-24-inside-8_3_82" fill="white">
<path d="M487 144H519V173C519 174.105 518.105 175 517 175H489C487.895 175 487 174.105 487 173V144Z"/>
</mask>
<path d="M487 144H519V173C519 174.105 518.105 175 517 175H489C487.895 175 487 174.105 487 173V144Z" fill="#9B51E0" stroke="#232A3D" stroke-width="6" mask="url(#path-24-inside-8_3_82)"/>
</svg>
