<svg width="600" height="267" viewBox="0 0 600 267" fill="none" xmlns="http://www.w3.org/2000/svg">
<rect width="600" height="267" fill="white"/>
<rect x="32" y="33" width="116" height="42" fill="#9B51E0" fill-opacity="0.2"/>
<rect x="240" y="33" width="322" height="42" fill="#9B51E0" fill-opacity="0.2"/>
<rect x="31.5" y="33.5" width="116" height="194" stroke="black"/>
<rect x="239.5" y="33.5" width="323" height="194" stroke="black"/>
<path d="M350 33V228" stroke="#232A3D"/>
<path d="M458 33L456.968 228" stroke="#232A3D"/>
<path d="M32 75H148" stroke="#232A3D"/>
<path d="M240 75H562" stroke="#232A3D"/>
<path d="M32 113H148" stroke="#232A3D"/>
<path d="M240 112H562" stroke="#232A3D"/>
<path d="M32 152L148 152" stroke="#232A3D"/>
<path d="M31 191L147 191" stroke="#232A3D"/>
<path d="M240 152L562 152" stroke="#232A3D"/>
<path d="M241 191L563 191" stroke="#232A3D"/>
<path d="M53.9054 60.12C53.3787 60.12 52.9587 60.03 52.6454 59.85C52.3387 59.6633 52.1154 59.4067 51.9754 59.08C51.8354 58.7533 51.7654 58.3733 51.7654 57.94V56.19H50.5254V55.1L51.8354 55.04L52.0254 53.52H53.2354V55.04H55.3354V56.19H53.2354V57.93C53.2354 58.1767 53.2721 58.3767 53.3454 58.53C53.4187 58.6833 53.5321 58.7967 53.6854 58.87C53.8387 58.9367 54.0354 58.97 54.2754 58.97C54.4687 58.97 54.6454 58.9533 54.8054 58.92C54.9654 58.8867 55.1187 58.8433 55.2654 58.79L55.5254 59.85C55.3054 59.9167 55.0621 59.9767 54.7954 60.03C54.5354 60.09 54.2387 60.12 53.9054 60.12ZM57.1815 60V55.04H58.3815L58.5015 56.12H58.5315C58.7782 55.7133 59.0748 55.4133 59.4215 55.22C59.7748 55.02 60.1482 54.92 60.5415 54.92C60.7615 54.92 60.9382 54.9367 61.0715 54.97C61.2115 55.0033 61.3548 55.0533 61.5015 55.12L61.2015 56.35C61.0482 56.3033 60.9082 56.27 60.7815 56.25C60.6615 56.2233 60.5082 56.21 60.3215 56.21C60.0148 56.21 59.7115 56.3 59.4115 56.48C59.1182 56.66 58.8648 56.9733 58.6515 57.42V60H57.1815ZM64.2576 60.12C63.9242 60.12 63.6342 60.0533 63.3876 59.92C63.1476 59.7867 62.9609 59.6067 62.8276 59.38C62.6942 59.1533 62.6276 58.9 62.6276 58.62C62.6276 58.0667 62.8776 57.6433 63.3776 57.35C63.8842 57.0567 64.7242 56.8767 65.8976 56.81C65.8776 56.6567 65.8276 56.5267 65.7476 56.42C65.6676 56.3133 65.5509 56.2333 65.3976 56.18C65.2509 56.12 65.0642 56.09 64.8376 56.09C64.6776 56.09 64.5176 56.11 64.3576 56.15C64.1976 56.1833 64.0309 56.2367 63.8576 56.31C63.6909 56.3767 63.5142 56.4567 63.3276 56.55L62.8076 55.59C63.0342 55.4567 63.2709 55.34 63.5176 55.24C63.7709 55.14 64.0309 55.0633 64.2976 55.01C64.5709 54.95 64.8476 54.92 65.1276 54.92C65.5942 54.92 65.9942 55.0033 66.3276 55.17C66.6609 55.33 66.9176 55.5767 67.0976 55.91C67.2776 56.2367 67.3676 56.6533 67.3676 57.16V60H66.1676L66.0576 59.44H66.0176C65.7709 59.6267 65.4976 59.7867 65.1976 59.92C64.8976 60.0533 64.5842 60.12 64.2576 60.12ZM64.7276 58.98C64.9476 58.98 65.1542 58.9367 65.3476 58.85C65.5409 58.7567 65.7242 58.6433 65.8976 58.51V57.69C65.4109 57.7167 65.0309 57.7667 64.7576 57.84C64.4909 57.9133 64.3042 58.0067 64.1976 58.12C64.0909 58.2333 64.0376 58.3633 64.0376 58.51C64.0376 58.61 64.0642 58.6967 64.1176 58.77C64.1776 58.8433 64.2576 58.8967 64.3576 58.93C64.4642 58.9633 64.5876 58.98 64.7276 58.98ZM70.1437 60V54.91C70.1437 54.53 70.2203 54.1867 70.3737 53.88C70.5337 53.5667 70.7737 53.32 71.0937 53.14C71.4203 52.96 71.8437 52.87 72.3637 52.87C72.6503 52.87 72.9203 52.9 73.1737 52.96C73.427 53.0133 73.657 53.0733 73.8637 53.14L73.5837 54.22C73.4237 54.16 73.257 54.1133 73.0837 54.08C72.917 54.0467 72.737 54.03 72.5437 54.03C72.2303 54.03 71.997 54.1 71.8437 54.24C71.6903 54.38 71.6137 54.6 71.6137 54.9V60H70.1437ZM68.8337 56.19V55.1L70.1937 55.04H73.3237V56.19H68.8337ZM76.1398 60V54.91C76.1398 54.53 76.2164 54.1867 76.3698 53.88C76.5298 53.5667 76.7698 53.32 77.0898 53.14C77.4164 52.96 77.8398 52.87 78.3598 52.87C78.6464 52.87 78.9164 52.9 79.1698 52.96C79.4231 53.0133 79.6531 53.0733 79.8598 53.14L79.5798 54.22C79.4198 54.16 79.2531 54.1133 79.0798 54.08C78.9131 54.0467 78.7331 54.03 78.5398 54.03C78.2264 54.03 77.9931 54.1 77.8398 54.24C77.6864 54.38 77.6098 54.6 77.6098 54.9V60H76.1398ZM74.8298 56.19V55.1L76.1898 55.04H79.3198V56.19H74.8298ZM82.7859 60V56.19H80.7859V55.04H84.2559V60H82.7859ZM83.4559 54.26C83.1759 54.26 82.9425 54.18 82.7559 54.02C82.5692 53.8533 82.4759 53.6367 82.4759 53.37C82.4759 53.0967 82.5692 52.8767 82.7559 52.71C82.9425 52.5367 83.1759 52.45 83.4559 52.45C83.7425 52.45 83.9759 52.5367 84.1559 52.71C84.3425 52.8767 84.4359 53.0967 84.4359 53.37C84.4359 53.6367 84.3425 53.8533 84.1559 54.02C83.9759 54.18 83.7425 54.26 83.4559 54.26ZM89.432 60.12C88.912 60.12 88.442 60.02 88.022 59.82C87.6086 59.6133 87.2786 59.3167 87.032 58.93C86.792 58.5367 86.672 58.0667 86.672 57.52C86.672 56.9733 86.8053 56.5067 87.072 56.12C87.3386 55.7267 87.6886 55.43 88.122 55.23C88.562 55.0233 89.0353 54.92 89.542 54.92C89.9353 54.92 90.292 54.9833 90.612 55.11C90.932 55.23 91.1953 55.39 91.402 55.59L90.722 56.5C90.5286 56.3667 90.342 56.27 90.162 56.21C89.9886 56.1433 89.8086 56.11 89.622 56.11C89.342 56.11 89.092 56.1667 88.872 56.28C88.652 56.3933 88.482 56.5567 88.362 56.77C88.242 56.9833 88.182 57.2333 88.182 57.52C88.182 57.8067 88.2386 58.0567 88.352 58.27C88.472 58.4833 88.6353 58.6467 88.842 58.76C89.0553 58.8733 89.2986 58.93 89.572 58.93C89.832 58.93 90.0686 58.8833 90.282 58.79C90.502 58.6967 90.702 58.5867 90.882 58.46L91.472 59.39C91.1786 59.6367 90.8486 59.82 90.482 59.94C90.122 60.06 89.772 60.12 89.432 60.12ZM92.598 61.64V60.54H97.398V61.64H92.598ZM101.944 60.12C101.324 60.12 100.854 59.9333 100.534 59.56C100.214 59.1867 100.054 58.6867 100.054 58.06V54.15H98.5041V53H101.524V58.12C101.524 58.4267 101.607 58.64 101.774 58.76C101.941 58.8733 102.124 58.93 102.324 58.93C102.444 58.93 102.564 58.9167 102.684 58.89C102.811 58.8633 102.951 58.8233 103.104 58.77L103.424 59.85C103.171 59.93 102.937 59.9933 102.724 60.04C102.517 60.0933 102.257 60.12 101.944 60.12ZM106.77 60V56.19H104.77V55.04H108.24V60H106.77ZM107.44 54.26C107.16 54.26 106.927 54.18 106.74 54.02C106.554 53.8533 106.46 53.6367 106.46 53.37C106.46 53.0967 106.554 52.8767 106.74 52.71C106.927 52.5367 107.16 52.45 107.44 52.45C107.727 52.45 107.96 52.5367 108.14 52.71C108.327 52.8767 108.42 53.0967 108.42 53.37C108.42 53.6367 108.327 53.8533 108.14 54.02C107.96 54.18 107.727 54.26 107.44 54.26ZM112.756 62.11C112.323 62.11 111.936 62.0633 111.596 61.97C111.263 61.8833 110.996 61.7467 110.796 61.56C110.603 61.3733 110.506 61.1333 110.506 60.84C110.506 60.64 110.57 60.4567 110.696 60.29C110.83 60.1233 111.023 59.9767 111.276 59.85V59.81C111.136 59.7167 111.016 59.6033 110.916 59.47C110.823 59.3367 110.776 59.1667 110.776 58.96C110.776 58.7933 110.83 58.6267 110.936 58.46C111.05 58.2933 111.193 58.15 111.366 58.03V57.99C111.186 57.87 111.033 57.7 110.906 57.48C110.78 57.26 110.716 57.0067 110.716 56.72C110.716 56.32 110.813 55.9867 111.006 55.72C111.206 55.4533 111.466 55.2533 111.786 55.12C112.113 54.9867 112.463 54.92 112.836 54.92C113.143 54.92 113.416 54.96 113.656 55.04H115.666V56.12H114.666C114.726 56.1933 114.776 56.29 114.816 56.41C114.863 56.5233 114.886 56.6433 114.886 56.77C114.886 57.15 114.793 57.4633 114.606 57.71C114.426 57.95 114.183 58.13 113.876 58.25C113.57 58.37 113.223 58.43 112.836 58.43C112.743 58.43 112.636 58.4233 112.516 58.41C112.396 58.39 112.276 58.3633 112.156 58.33C112.076 58.3833 112.02 58.4367 111.986 58.49C111.953 58.5433 111.936 58.6133 111.936 58.7C111.936 58.8267 112.003 58.92 112.136 58.98C112.276 59.04 112.49 59.07 112.776 59.07H113.696C114.35 59.07 114.846 59.1667 115.186 59.36C115.533 59.5533 115.706 59.8733 115.706 60.32C115.706 60.6667 115.586 60.9733 115.346 61.24C115.106 61.5133 114.763 61.7267 114.316 61.88C113.876 62.0333 113.356 62.11 112.756 62.11ZM112.836 57.54C112.976 57.54 113.103 57.51 113.216 57.45C113.33 57.39 113.42 57.3 113.486 57.18C113.553 57.0533 113.586 56.9 113.586 56.72C113.586 56.5467 113.553 56.4 113.486 56.28C113.42 56.16 113.33 56.07 113.216 56.01C113.103 55.9433 112.976 55.91 112.836 55.91C112.703 55.91 112.58 55.9433 112.466 56.01C112.353 56.07 112.263 56.16 112.196 56.28C112.13 56.4 112.096 56.5467 112.096 56.72C112.096 56.9 112.13 57.0533 112.196 57.18C112.263 57.3 112.353 57.39 112.466 57.45C112.58 57.51 112.703 57.54 112.836 57.54ZM112.966 61.18C113.233 61.18 113.466 61.1533 113.666 61.1C113.866 61.0467 114.023 60.9733 114.136 60.88C114.25 60.7933 114.306 60.6933 114.306 60.58C114.306 60.4133 114.233 60.3067 114.086 60.26C113.94 60.22 113.723 60.2 113.436 60.2H112.816C112.636 60.2 112.486 60.1933 112.366 60.18C112.253 60.1667 112.15 60.15 112.056 60.13C111.93 60.21 111.84 60.2867 111.786 60.36C111.733 60.44 111.706 60.5267 111.706 60.62C111.706 60.8 111.82 60.9367 112.046 61.03C112.273 61.13 112.58 61.18 112.966 61.18ZM116.702 60V52.99H118.172V54.71L118.092 55.66H118.122C118.309 55.4667 118.536 55.2967 118.802 55.15C119.076 54.9967 119.399 54.92 119.772 54.92C120.332 54.92 120.739 55.1 120.992 55.46C121.252 55.82 121.382 56.3133 121.382 56.94V60H119.912V57.13C119.912 56.7967 119.856 56.5533 119.742 56.4C119.636 56.2467 119.449 56.17 119.182 56.17C118.982 56.17 118.806 56.2167 118.652 56.31C118.506 56.3967 118.346 56.5233 118.172 56.69V60H116.702ZM125.859 60.12C125.332 60.12 124.912 60.03 124.599 59.85C124.292 59.6633 124.069 59.4067 123.929 59.08C123.789 58.7533 123.719 58.3733 123.719 57.94V56.19H122.479V55.1L123.789 55.04L123.979 53.52H125.189V55.04H127.289V56.19H125.189V57.93C125.189 58.1767 125.225 58.3767 125.299 58.53C125.372 58.6833 125.485 58.7967 125.639 58.87C125.792 58.9367 125.989 58.97 126.229 58.97C126.422 58.97 126.599 58.9533 126.759 58.92C126.919 58.8867 127.072 58.8433 127.219 58.79L127.479 59.85C127.259 59.9167 127.015 59.9767 126.749 60.03C126.489 60.09 126.192 60.12 125.859 60.12Z" fill="#232A3D"/>
<path d="M265.901 60.12C265.375 60.12 264.955 60.03 264.641 59.85C264.335 59.6633 264.111 59.4067 263.971 59.08C263.831 58.7533 263.761 58.3733 263.761 57.94V56.19H262.521V55.1L263.831 55.04L264.021 53.52H265.231V55.04H267.331V56.19H265.231V57.93C265.231 58.1767 265.268 58.3767 265.341 58.53C265.415 58.6833 265.528 58.7967 265.681 58.87C265.835 58.9367 266.031 58.97 266.271 58.97C266.465 58.97 266.641 58.9533 266.801 58.92C266.961 58.8867 267.115 58.8433 267.261 58.79L267.521 59.85C267.301 59.9167 267.058 59.9767 266.791 60.03C266.531 60.09 266.235 60.12 265.901 60.12ZM269.178 60V55.04H270.378L270.498 56.12H270.528C270.774 55.7133 271.071 55.4133 271.418 55.22C271.771 55.02 272.144 54.92 272.538 54.92C272.758 54.92 272.934 54.9367 273.068 54.97C273.208 55.0033 273.351 55.0533 273.498 55.12L273.198 56.35C273.044 56.3033 272.904 56.27 272.778 56.25C272.658 56.2233 272.504 56.21 272.318 56.21C272.011 56.21 271.708 56.3 271.408 56.48C271.114 56.66 270.861 56.9733 270.648 57.42V60H269.178ZM276.254 60.12C275.92 60.12 275.63 60.0533 275.384 59.92C275.144 59.7867 274.957 59.6067 274.824 59.38C274.69 59.1533 274.624 58.9 274.624 58.62C274.624 58.0667 274.874 57.6433 275.374 57.35C275.88 57.0567 276.72 56.8767 277.894 56.81C277.874 56.6567 277.824 56.5267 277.744 56.42C277.664 56.3133 277.547 56.2333 277.394 56.18C277.247 56.12 277.06 56.09 276.834 56.09C276.674 56.09 276.514 56.11 276.354 56.15C276.194 56.1833 276.027 56.2367 275.854 56.31C275.687 56.3767 275.51 56.4567 275.324 56.55L274.804 55.59C275.03 55.4567 275.267 55.34 275.514 55.24C275.767 55.14 276.027 55.0633 276.294 55.01C276.567 54.95 276.844 54.92 277.124 54.92C277.59 54.92 277.99 55.0033 278.324 55.17C278.657 55.33 278.914 55.5767 279.094 55.91C279.274 56.2367 279.364 56.6533 279.364 57.16V60H278.164L278.054 59.44H278.014C277.767 59.6267 277.494 59.7867 277.194 59.92C276.894 60.0533 276.58 60.12 276.254 60.12ZM276.724 58.98C276.944 58.98 277.15 58.9367 277.344 58.85C277.537 58.7567 277.72 58.6433 277.894 58.51V57.69C277.407 57.7167 277.027 57.7667 276.754 57.84C276.487 57.9133 276.3 58.0067 276.194 58.12C276.087 58.2333 276.034 58.3633 276.034 58.51C276.034 58.61 276.06 58.6967 276.114 58.77C276.174 58.8433 276.254 58.8967 276.354 58.93C276.46 58.9633 276.584 58.98 276.724 58.98ZM282.14 60V54.91C282.14 54.53 282.216 54.1867 282.37 53.88C282.53 53.5667 282.77 53.32 283.09 53.14C283.416 52.96 283.84 52.87 284.36 52.87C284.646 52.87 284.916 52.9 285.17 52.96C285.423 53.0133 285.653 53.0733 285.86 53.14L285.58 54.22C285.42 54.16 285.253 54.1133 285.08 54.08C284.913 54.0467 284.733 54.03 284.54 54.03C284.226 54.03 283.993 54.1 283.84 54.24C283.686 54.38 283.61 54.6 283.61 54.9V60H282.14ZM280.83 56.19V55.1L282.19 55.04H285.32V56.19H280.83ZM288.136 60V54.91C288.136 54.53 288.213 54.1867 288.366 53.88C288.526 53.5667 288.766 53.32 289.086 53.14C289.413 52.96 289.836 52.87 290.356 52.87C290.643 52.87 290.913 52.9 291.166 52.96C291.419 53.0133 291.649 53.0733 291.856 53.14L291.576 54.22C291.416 54.16 291.249 54.1133 291.076 54.08C290.909 54.0467 290.729 54.03 290.536 54.03C290.223 54.03 289.989 54.1 289.836 54.24C289.683 54.38 289.606 54.6 289.606 54.9V60H288.136ZM286.826 56.19V55.1L288.186 55.04H291.316V56.19H286.826ZM294.782 60V56.19H292.782V55.04H296.252V60H294.782ZM295.452 54.26C295.172 54.26 294.939 54.18 294.752 54.02C294.565 53.8533 294.472 53.6367 294.472 53.37C294.472 53.0967 294.565 52.8767 294.752 52.71C294.939 52.5367 295.172 52.45 295.452 52.45C295.739 52.45 295.972 52.5367 296.152 52.71C296.339 52.8767 296.432 53.0967 296.432 53.37C296.432 53.6367 296.339 53.8533 296.152 54.02C295.972 54.18 295.739 54.26 295.452 54.26ZM301.428 60.12C300.908 60.12 300.438 60.02 300.018 59.82C299.605 59.6133 299.275 59.3167 299.028 58.93C298.788 58.5367 298.668 58.0667 298.668 57.52C298.668 56.9733 298.801 56.5067 299.068 56.12C299.335 55.7267 299.685 55.43 300.118 55.23C300.558 55.0233 301.031 54.92 301.538 54.92C301.931 54.92 302.288 54.9833 302.608 55.11C302.928 55.23 303.191 55.39 303.398 55.59L302.718 56.5C302.525 56.3667 302.338 56.27 302.158 56.21C301.985 56.1433 301.805 56.11 301.618 56.11C301.338 56.11 301.088 56.1667 300.868 56.28C300.648 56.3933 300.478 56.5567 300.358 56.77C300.238 56.9833 300.178 57.2333 300.178 57.52C300.178 57.8067 300.235 58.0567 300.348 58.27C300.468 58.4833 300.631 58.6467 300.838 58.76C301.051 58.8733 301.295 58.93 301.568 58.93C301.828 58.93 302.065 58.8833 302.278 58.79C302.498 58.6967 302.698 58.5867 302.878 58.46L303.468 59.39C303.175 59.6367 302.845 59.82 302.478 59.94C302.118 60.06 301.768 60.12 301.428 60.12ZM304.594 61.64V60.54H309.394V61.64H304.594ZM311.15 60V55.04H312.35L312.47 56.12H312.5C312.747 55.7133 313.044 55.4133 313.39 55.22C313.744 55.02 314.117 54.92 314.51 54.92C314.73 54.92 314.907 54.9367 315.04 54.97C315.18 55.0033 315.324 55.0533 315.47 55.12L315.17 56.35C315.017 56.3033 314.877 56.27 314.75 56.25C314.63 56.2233 314.477 56.21 314.29 56.21C313.984 56.21 313.68 56.3 313.38 56.48C313.087 56.66 312.834 56.9733 312.62 57.42V60H311.15ZM319.286 60.12C318.773 60.12 318.306 60.02 317.886 59.82C317.473 59.6133 317.143 59.3167 316.896 58.93C316.656 58.5367 316.536 58.0667 316.536 57.52C316.536 56.98 316.66 56.5167 316.906 56.13C317.153 55.7367 317.473 55.4367 317.866 55.23C318.26 55.0233 318.676 54.92 319.116 54.92C319.63 54.92 320.06 55.0267 320.406 55.24C320.753 55.4467 321.013 55.73 321.186 56.09C321.366 56.4433 321.456 56.8467 321.456 57.3C321.456 57.4333 321.446 57.5633 321.426 57.69C321.413 57.81 321.4 57.9 321.386 57.96H317.626V56.97H320.396L320.166 57.25C320.166 56.85 320.08 56.55 319.906 56.35C319.74 56.1433 319.493 56.04 319.166 56.04C318.926 56.04 318.716 56.0933 318.536 56.2C318.356 56.3067 318.216 56.47 318.116 56.69C318.016 56.91 317.966 57.1867 317.966 57.52C317.966 57.86 318.026 58.14 318.146 58.36C318.266 58.5733 318.44 58.7333 318.666 58.84C318.893 58.9467 319.166 59 319.486 59C319.713 59 319.926 58.97 320.126 58.91C320.333 58.85 320.546 58.7633 320.766 58.65L321.256 59.54C320.97 59.72 320.653 59.8633 320.306 59.97C319.96 60.07 319.62 60.12 319.286 60.12ZM324.542 60.12C323.916 60.12 323.409 59.89 323.022 59.43C322.642 58.9633 322.452 58.3267 322.452 57.52C322.452 56.98 322.552 56.5167 322.752 56.13C322.959 55.7433 323.226 55.4467 323.552 55.24C323.879 55.0267 324.219 54.92 324.572 54.92C324.846 54.92 325.082 54.9667 325.282 55.06C325.482 55.1533 325.662 55.2833 325.822 55.45H325.862L325.792 54.68V52.99H327.262V60H326.062L325.952 59.49H325.922C325.742 59.67 325.529 59.82 325.282 59.94C325.042 60.06 324.796 60.12 324.542 60.12ZM324.922 58.92C325.089 58.92 325.242 58.8867 325.382 58.82C325.529 58.7467 325.666 58.6267 325.792 58.46V56.45C325.659 56.33 325.522 56.2467 325.382 56.2C325.249 56.1467 325.109 56.12 324.962 56.12C324.782 56.12 324.616 56.17 324.462 56.27C324.309 56.37 324.186 56.5233 324.092 56.73C324.006 56.93 323.962 57.1867 323.962 57.5C323.962 57.9867 324.046 58.3467 324.212 58.58C324.379 58.8067 324.616 58.92 324.922 58.92Z" fill="#232A3D"/>
<path d="M365.907 60.12C365.381 60.12 364.961 60.03 364.647 59.85C364.341 59.6633 364.117 59.4067 363.977 59.08C363.837 58.7533 363.767 58.3733 363.767 57.94V56.19H362.527V55.1L363.837 55.04L364.027 53.52H365.237V55.04H367.337V56.19H365.237V57.93C365.237 58.1767 365.274 58.3767 365.347 58.53C365.421 58.6833 365.534 58.7967 365.687 58.87C365.841 58.9367 366.037 58.97 366.277 58.97C366.471 58.97 366.647 58.9533 366.807 58.92C366.967 58.8867 367.121 58.8433 367.267 58.79L367.527 59.85C367.307 59.9167 367.064 59.9767 366.797 60.03C366.537 60.09 366.241 60.12 365.907 60.12ZM369.183 60V55.04H370.383L370.503 56.12H370.533C370.78 55.7133 371.077 55.4133 371.423 55.22C371.777 55.02 372.15 54.92 372.543 54.92C372.763 54.92 372.94 54.9367 373.073 54.97C373.213 55.0033 373.357 55.0533 373.503 55.12L373.203 56.35C373.05 56.3033 372.91 56.27 372.783 56.25C372.663 56.2233 372.51 56.21 372.323 56.21C372.017 56.21 371.713 56.3 371.413 56.48C371.12 56.66 370.867 56.9733 370.653 57.42V60H369.183ZM376.26 60.12C375.926 60.12 375.636 60.0533 375.39 59.92C375.15 59.7867 374.963 59.6067 374.83 59.38C374.696 59.1533 374.63 58.9 374.63 58.62C374.63 58.0667 374.88 57.6433 375.38 57.35C375.886 57.0567 376.726 56.8767 377.9 56.81C377.88 56.6567 377.83 56.5267 377.75 56.42C377.67 56.3133 377.553 56.2333 377.4 56.18C377.253 56.12 377.066 56.09 376.84 56.09C376.68 56.09 376.52 56.11 376.36 56.15C376.2 56.1833 376.033 56.2367 375.86 56.31C375.693 56.3767 375.516 56.4567 375.33 56.55L374.81 55.59C375.036 55.4567 375.273 55.34 375.52 55.24C375.773 55.14 376.033 55.0633 376.3 55.01C376.573 54.95 376.85 54.92 377.13 54.92C377.596 54.92 377.996 55.0033 378.33 55.17C378.663 55.33 378.92 55.5767 379.1 55.91C379.28 56.2367 379.37 56.6533 379.37 57.16V60H378.17L378.06 59.44H378.02C377.773 59.6267 377.5 59.7867 377.2 59.92C376.9 60.0533 376.586 60.12 376.26 60.12ZM376.73 58.98C376.95 58.98 377.156 58.9367 377.35 58.85C377.543 58.7567 377.726 58.6433 377.9 58.51V57.69C377.413 57.7167 377.033 57.7667 376.76 57.84C376.493 57.9133 376.306 58.0067 376.2 58.12C376.093 58.2333 376.04 58.3633 376.04 58.51C376.04 58.61 376.066 58.6967 376.12 58.77C376.18 58.8433 376.26 58.8967 376.36 58.93C376.466 58.9633 376.59 58.98 376.73 58.98ZM382.146 60V54.91C382.146 54.53 382.222 54.1867 382.376 53.88C382.536 53.5667 382.776 53.32 383.096 53.14C383.422 52.96 383.846 52.87 384.366 52.87C384.652 52.87 384.922 52.9 385.176 52.96C385.429 53.0133 385.659 53.0733 385.866 53.14L385.586 54.22C385.426 54.16 385.259 54.1133 385.086 54.08C384.919 54.0467 384.739 54.03 384.546 54.03C384.232 54.03 383.999 54.1 383.846 54.24C383.692 54.38 383.616 54.6 383.616 54.9V60H382.146ZM380.836 56.19V55.1L382.196 55.04H385.326V56.19H380.836ZM388.142 60V54.91C388.142 54.53 388.218 54.1867 388.372 53.88C388.532 53.5667 388.772 53.32 389.092 53.14C389.418 52.96 389.842 52.87 390.362 52.87C390.648 52.87 390.918 52.9 391.172 52.96C391.425 53.0133 391.655 53.0733 391.862 53.14L391.582 54.22C391.422 54.16 391.255 54.1133 391.082 54.08C390.915 54.0467 390.735 54.03 390.542 54.03C390.228 54.03 389.995 54.1 389.842 54.24C389.688 54.38 389.612 54.6 389.612 54.9V60H388.142ZM386.832 56.19V55.1L388.192 55.04H391.322V56.19H386.832ZM394.788 60V56.19H392.788V55.04H396.258V60H394.788ZM395.458 54.26C395.178 54.26 394.944 54.18 394.758 54.02C394.571 53.8533 394.478 53.6367 394.478 53.37C394.478 53.0967 394.571 52.8767 394.758 52.71C394.944 52.5367 395.178 52.45 395.458 52.45C395.744 52.45 395.978 52.5367 396.158 52.71C396.344 52.8767 396.438 53.0967 396.438 53.37C396.438 53.6367 396.344 53.8533 396.158 54.02C395.978 54.18 395.744 54.26 395.458 54.26ZM401.434 60.12C400.914 60.12 400.444 60.02 400.024 59.82C399.611 59.6133 399.281 59.3167 399.034 58.93C398.794 58.5367 398.674 58.0667 398.674 57.52C398.674 56.9733 398.807 56.5067 399.074 56.12C399.341 55.7267 399.691 55.43 400.124 55.23C400.564 55.0233 401.037 54.92 401.544 54.92C401.937 54.92 402.294 54.9833 402.614 55.11C402.934 55.23 403.197 55.39 403.404 55.59L402.724 56.5C402.531 56.3667 402.344 56.27 402.164 56.21C401.991 56.1433 401.811 56.11 401.624 56.11C401.344 56.11 401.094 56.1667 400.874 56.28C400.654 56.3933 400.484 56.5567 400.364 56.77C400.244 56.9833 400.184 57.2333 400.184 57.52C400.184 57.8067 400.241 58.0567 400.354 58.27C400.474 58.4833 400.637 58.6467 400.844 58.76C401.057 58.8733 401.301 58.93 401.574 58.93C401.834 58.93 402.071 58.8833 402.284 58.79C402.504 58.6967 402.704 58.5867 402.884 58.46L403.474 59.39C403.181 59.6367 402.851 59.82 402.484 59.94C402.124 60.06 401.774 60.12 401.434 60.12ZM404.6 61.64V60.54H409.4V61.64H404.6ZM411.426 61.94C411.279 61.94 411.143 61.93 411.016 61.91C410.889 61.89 410.773 61.8667 410.666 61.84L410.926 60.72C410.993 60.74 411.059 60.7533 411.126 60.76C411.193 60.7733 411.256 60.78 411.316 60.78C411.603 60.78 411.826 60.7167 411.986 60.59C412.153 60.47 412.276 60.3167 412.356 60.13L412.456 59.87L410.306 55.04H411.766L412.596 57.17C412.689 57.4033 412.776 57.6467 412.856 57.9C412.936 58.1467 413.016 58.4 413.096 58.66H413.136C413.203 58.4133 413.276 58.1633 413.356 57.91C413.436 57.6567 413.513 57.41 413.586 57.17L414.316 55.04H415.706L413.746 60.05C413.593 60.4633 413.413 60.81 413.206 61.09C413.006 61.37 412.763 61.58 412.476 61.72C412.196 61.8667 411.846 61.94 411.426 61.94ZM419.292 60.12C418.779 60.12 418.312 60.02 417.892 59.82C417.479 59.6133 417.149 59.3167 416.902 58.93C416.662 58.5367 416.542 58.0667 416.542 57.52C416.542 56.98 416.666 56.5167 416.912 56.13C417.159 55.7367 417.479 55.4367 417.872 55.23C418.266 55.0233 418.682 54.92 419.122 54.92C419.636 54.92 420.066 55.0267 420.412 55.24C420.759 55.4467 421.019 55.73 421.192 56.09C421.372 56.4433 421.462 56.8467 421.462 57.3C421.462 57.4333 421.452 57.5633 421.432 57.69C421.419 57.81 421.406 57.9 421.392 57.96H417.632V56.97H420.402L420.172 57.25C420.172 56.85 420.086 56.55 419.912 56.35C419.746 56.1433 419.499 56.04 419.172 56.04C418.932 56.04 418.722 56.0933 418.542 56.2C418.362 56.3067 418.222 56.47 418.122 56.69C418.022 56.91 417.972 57.1867 417.972 57.52C417.972 57.86 418.032 58.14 418.152 58.36C418.272 58.5733 418.446 58.7333 418.672 58.84C418.899 58.9467 419.172 59 419.492 59C419.719 59 419.932 58.97 420.132 58.91C420.339 58.85 420.552 58.7633 420.772 58.65L421.262 59.54C420.976 59.72 420.659 59.8633 420.312 59.97C419.966 60.07 419.626 60.12 419.292 60.12ZM425.938 60.12C425.318 60.12 424.848 59.9333 424.528 59.56C424.208 59.1867 424.048 58.6867 424.048 58.06V54.15H422.498V53H425.518V58.12C425.518 58.4267 425.602 58.64 425.768 58.76C425.935 58.8733 426.118 58.93 426.318 58.93C426.438 58.93 426.558 58.9167 426.678 58.89C426.805 58.8633 426.945 58.8233 427.098 58.77L427.418 59.85C427.165 59.93 426.932 59.9933 426.718 60.04C426.512 60.0933 426.252 60.12 425.938 60.12ZM431.934 60.12C431.314 60.12 430.844 59.9333 430.524 59.56C430.204 59.1867 430.044 58.6867 430.044 58.06V54.15H428.494V53H431.514V58.12C431.514 58.4267 431.598 58.64 431.764 58.76C431.931 58.8733 432.114 58.93 432.314 58.93C432.434 58.93 432.554 58.9167 432.674 58.89C432.801 58.8633 432.941 58.8233 433.094 58.77L433.414 59.85C433.161 59.93 432.928 59.9933 432.714 60.04C432.508 60.0933 432.248 60.12 431.934 60.12ZM436.98 60.12C436.547 60.12 436.137 60.02 435.75 59.82C435.364 59.6133 435.05 59.3167 434.81 58.93C434.57 58.5367 434.45 58.0667 434.45 57.52C434.45 56.9733 434.57 56.5067 434.81 56.12C435.05 55.7267 435.364 55.43 435.75 55.23C436.137 55.0233 436.547 54.92 436.98 54.92C437.414 54.92 437.824 55.0233 438.21 55.23C438.597 55.43 438.91 55.7267 439.15 56.12C439.39 56.5067 439.51 56.9733 439.51 57.52C439.51 58.0667 439.39 58.5367 439.15 58.93C438.91 59.3167 438.597 59.6133 438.21 59.82C437.824 60.02 437.414 60.12 436.98 60.12ZM436.98 58.93C437.207 58.93 437.394 58.8733 437.54 58.76C437.694 58.6467 437.807 58.4833 437.88 58.27C437.96 58.0567 438 57.8067 438 57.52C438 57.2333 437.96 56.9833 437.88 56.77C437.807 56.5567 437.694 56.3933 437.54 56.28C437.394 56.1667 437.207 56.11 436.98 56.11C436.754 56.11 436.564 56.1667 436.41 56.28C436.264 56.3933 436.15 56.5567 436.07 56.77C435.997 56.9833 435.96 57.2333 435.96 57.52C435.96 57.8067 435.997 58.0567 436.07 58.27C436.15 58.4833 436.264 58.6467 436.41 58.76C436.564 58.8733 436.754 58.93 436.98 58.93ZM440.827 60L440.017 55.04H441.437L441.747 57.34C441.78 57.58 441.807 57.8233 441.827 58.07C441.853 58.31 441.88 58.5567 441.907 58.81H441.937C441.97 58.5567 442.003 58.3067 442.037 58.06C442.077 57.8133 442.12 57.5733 442.167 57.34L442.477 55.7H443.547L443.867 57.34C443.913 57.58 443.957 57.8233 443.997 58.07C444.043 58.31 444.083 58.5567 444.117 58.81H444.157C444.19 58.5567 444.213 58.31 444.227 58.07C444.247 57.8233 444.27 57.58 444.297 57.34L444.577 55.04H445.937L445.177 60H443.447L443.177 58.39C443.15 58.17 443.12 57.94 443.087 57.7C443.06 57.46 443.03 57.2 442.997 56.92H442.957C442.937 57.1267 442.913 57.3467 442.887 57.58C442.86 57.8067 442.827 58.0767 442.787 58.39L442.527 60H440.827Z" fill="#232A3D"/>
<path d="M475.905 60.12C475.379 60.12 474.959 60.03 474.645 59.85C474.339 59.6633 474.115 59.4067 473.975 59.08C473.835 58.7533 473.765 58.3733 473.765 57.94V56.19H472.525V55.1L473.835 55.04L474.025 53.52H475.235V55.04H477.335V56.19H475.235V57.93C475.235 58.1767 475.272 58.3767 475.345 58.53C475.419 58.6833 475.532 58.7967 475.685 58.87C475.839 58.9367 476.035 58.97 476.275 58.97C476.469 58.97 476.645 58.9533 476.805 58.92C476.965 58.8867 477.119 58.8433 477.265 58.79L477.525 59.85C477.305 59.9167 477.062 59.9767 476.795 60.03C476.535 60.09 476.239 60.12 475.905 60.12ZM479.181 60V55.04H480.381L480.501 56.12H480.531C480.778 55.7133 481.075 55.4133 481.421 55.22C481.775 55.02 482.148 54.92 482.541 54.92C482.761 54.92 482.938 54.9367 483.071 54.97C483.211 55.0033 483.355 55.0533 483.501 55.12L483.201 56.35C483.048 56.3033 482.908 56.27 482.781 56.25C482.661 56.2233 482.508 56.21 482.321 56.21C482.015 56.21 481.711 56.3 481.411 56.48C481.118 56.66 480.865 56.9733 480.651 57.42V60H479.181ZM486.258 60.12C485.924 60.12 485.634 60.0533 485.388 59.92C485.148 59.7867 484.961 59.6067 484.828 59.38C484.694 59.1533 484.628 58.9 484.628 58.62C484.628 58.0667 484.878 57.6433 485.378 57.35C485.884 57.0567 486.724 56.8767 487.898 56.81C487.878 56.6567 487.828 56.5267 487.748 56.42C487.668 56.3133 487.551 56.2333 487.398 56.18C487.251 56.12 487.064 56.09 486.838 56.09C486.678 56.09 486.518 56.11 486.358 56.15C486.198 56.1833 486.031 56.2367 485.858 56.31C485.691 56.3767 485.514 56.4567 485.328 56.55L484.808 55.59C485.034 55.4567 485.271 55.34 485.518 55.24C485.771 55.14 486.031 55.0633 486.298 55.01C486.571 54.95 486.848 54.92 487.128 54.92C487.594 54.92 487.994 55.0033 488.328 55.17C488.661 55.33 488.918 55.5767 489.098 55.91C489.278 56.2367 489.368 56.6533 489.368 57.16V60H488.168L488.058 59.44H488.018C487.771 59.6267 487.498 59.7867 487.198 59.92C486.898 60.0533 486.584 60.12 486.258 60.12ZM486.728 58.98C486.948 58.98 487.154 58.9367 487.348 58.85C487.541 58.7567 487.724 58.6433 487.898 58.51V57.69C487.411 57.7167 487.031 57.7667 486.758 57.84C486.491 57.9133 486.304 58.0067 486.198 58.12C486.091 58.2333 486.038 58.3633 486.038 58.51C486.038 58.61 486.064 58.6967 486.118 58.77C486.178 58.8433 486.258 58.8967 486.358 58.93C486.464 58.9633 486.588 58.98 486.728 58.98ZM492.144 60V54.91C492.144 54.53 492.22 54.1867 492.374 53.88C492.534 53.5667 492.774 53.32 493.094 53.14C493.42 52.96 493.844 52.87 494.364 52.87C494.65 52.87 494.92 52.9 495.174 52.96C495.427 53.0133 495.657 53.0733 495.864 53.14L495.584 54.22C495.424 54.16 495.257 54.1133 495.084 54.08C494.917 54.0467 494.737 54.03 494.544 54.03C494.23 54.03 493.997 54.1 493.844 54.24C493.69 54.38 493.614 54.6 493.614 54.9V60H492.144ZM490.834 56.19V55.1L492.194 55.04H495.324V56.19H490.834ZM498.14 60V54.91C498.14 54.53 498.216 54.1867 498.37 53.88C498.53 53.5667 498.77 53.32 499.09 53.14C499.416 52.96 499.84 52.87 500.36 52.87C500.646 52.87 500.916 52.9 501.17 52.96C501.423 53.0133 501.653 53.0733 501.86 53.14L501.58 54.22C501.42 54.16 501.253 54.1133 501.08 54.08C500.913 54.0467 500.733 54.03 500.54 54.03C500.226 54.03 499.993 54.1 499.84 54.24C499.686 54.38 499.61 54.6 499.61 54.9V60H498.14ZM496.83 56.19V55.1L498.19 55.04H501.32V56.19H496.83ZM504.786 60V56.19H502.786V55.04H506.256V60H504.786ZM505.456 54.26C505.176 54.26 504.943 54.18 504.756 54.02C504.569 53.8533 504.476 53.6367 504.476 53.37C504.476 53.0967 504.569 52.8767 504.756 52.71C504.943 52.5367 505.176 52.45 505.456 52.45C505.743 52.45 505.976 52.5367 506.156 52.71C506.343 52.8767 506.436 53.0967 506.436 53.37C506.436 53.6367 506.343 53.8533 506.156 54.02C505.976 54.18 505.743 54.26 505.456 54.26ZM511.432 60.12C510.912 60.12 510.442 60.02 510.022 59.82C509.609 59.6133 509.279 59.3167 509.032 58.93C508.792 58.5367 508.672 58.0667 508.672 57.52C508.672 56.9733 508.805 56.5067 509.072 56.12C509.339 55.7267 509.689 55.43 510.122 55.23C510.562 55.0233 511.035 54.92 511.542 54.92C511.935 54.92 512.292 54.9833 512.612 55.11C512.932 55.23 513.195 55.39 513.402 55.59L512.722 56.5C512.529 56.3667 512.342 56.27 512.162 56.21C511.989 56.1433 511.809 56.11 511.622 56.11C511.342 56.11 511.092 56.1667 510.872 56.28C510.652 56.3933 510.482 56.5567 510.362 56.77C510.242 56.9833 510.182 57.2333 510.182 57.52C510.182 57.8067 510.239 58.0567 510.352 58.27C510.472 58.4833 510.635 58.6467 510.842 58.76C511.055 58.8733 511.299 58.93 511.572 58.93C511.832 58.93 512.069 58.8833 512.282 58.79C512.502 58.6967 512.702 58.5867 512.882 58.46L513.472 59.39C513.179 59.6367 512.849 59.82 512.482 59.94C512.122 60.06 511.772 60.12 511.432 60.12ZM514.598 61.64V60.54H519.398V61.64H514.598ZM522.764 62.11C522.331 62.11 521.944 62.0633 521.604 61.97C521.271 61.8833 521.004 61.7467 520.804 61.56C520.611 61.3733 520.514 61.1333 520.514 60.84C520.514 60.64 520.577 60.4567 520.704 60.29C520.837 60.1233 521.031 59.9767 521.284 59.85V59.81C521.144 59.7167 521.024 59.6033 520.924 59.47C520.831 59.3367 520.784 59.1667 520.784 58.96C520.784 58.7933 520.837 58.6267 520.944 58.46C521.057 58.2933 521.201 58.15 521.374 58.03V57.99C521.194 57.87 521.041 57.7 520.914 57.48C520.787 57.26 520.724 57.0067 520.724 56.72C520.724 56.32 520.821 55.9867 521.014 55.72C521.214 55.4533 521.474 55.2533 521.794 55.12C522.121 54.9867 522.471 54.92 522.844 54.92C523.151 54.92 523.424 54.96 523.664 55.04H525.674V56.12H524.674C524.734 56.1933 524.784 56.29 524.824 56.41C524.871 56.5233 524.894 56.6433 524.894 56.77C524.894 57.15 524.801 57.4633 524.614 57.71C524.434 57.95 524.191 58.13 523.884 58.25C523.577 58.37 523.231 58.43 522.844 58.43C522.751 58.43 522.644 58.4233 522.524 58.41C522.404 58.39 522.284 58.3633 522.164 58.33C522.084 58.3833 522.027 58.4367 521.994 58.49C521.961 58.5433 521.944 58.6133 521.944 58.7C521.944 58.8267 522.011 58.92 522.144 58.98C522.284 59.04 522.497 59.07 522.784 59.07H523.704C524.357 59.07 524.854 59.1667 525.194 59.36C525.541 59.5533 525.714 59.8733 525.714 60.32C525.714 60.6667 525.594 60.9733 525.354 61.24C525.114 61.5133 524.771 61.7267 524.324 61.88C523.884 62.0333 523.364 62.11 522.764 62.11ZM522.844 57.54C522.984 57.54 523.111 57.51 523.224 57.45C523.337 57.39 523.427 57.3 523.494 57.18C523.561 57.0533 523.594 56.9 523.594 56.72C523.594 56.5467 523.561 56.4 523.494 56.28C523.427 56.16 523.337 56.07 523.224 56.01C523.111 55.9433 522.984 55.91 522.844 55.91C522.711 55.91 522.587 55.9433 522.474 56.01C522.361 56.07 522.271 56.16 522.204 56.28C522.137 56.4 522.104 56.5467 522.104 56.72C522.104 56.9 522.137 57.0533 522.204 57.18C522.271 57.3 522.361 57.39 522.474 57.45C522.587 57.51 522.711 57.54 522.844 57.54ZM522.974 61.18C523.241 61.18 523.474 61.1533 523.674 61.1C523.874 61.0467 524.031 60.9733 524.144 60.88C524.257 60.7933 524.314 60.6933 524.314 60.58C524.314 60.4133 524.241 60.3067 524.094 60.26C523.947 60.22 523.731 60.2 523.444 60.2H522.824C522.644 60.2 522.494 60.1933 522.374 60.18C522.261 60.1667 522.157 60.15 522.064 60.13C521.937 60.21 521.847 60.2867 521.794 60.36C521.741 60.44 521.714 60.5267 521.714 60.62C521.714 60.8 521.827 60.9367 522.054 61.03C522.281 61.13 522.587 61.18 522.974 61.18ZM527.15 60V55.04H528.35L528.47 56.12H528.5C528.747 55.7133 529.044 55.4133 529.39 55.22C529.744 55.02 530.117 54.92 530.51 54.92C530.73 54.92 530.907 54.9367 531.04 54.97C531.18 55.0033 531.324 55.0533 531.47 55.12L531.17 56.35C531.017 56.3033 530.877 56.27 530.75 56.25C530.63 56.2233 530.477 56.21 530.29 56.21C529.984 56.21 529.68 56.3 529.38 56.48C529.087 56.66 528.834 56.9733 528.62 57.42V60H527.15ZM535.286 60.12C534.773 60.12 534.306 60.02 533.886 59.82C533.473 59.6133 533.143 59.3167 532.896 58.93C532.656 58.5367 532.536 58.0667 532.536 57.52C532.536 56.98 532.66 56.5167 532.906 56.13C533.153 55.7367 533.473 55.4367 533.866 55.23C534.26 55.0233 534.676 54.92 535.116 54.92C535.63 54.92 536.06 55.0267 536.406 55.24C536.753 55.4467 537.013 55.73 537.186 56.09C537.366 56.4433 537.456 56.8467 537.456 57.3C537.456 57.4333 537.446 57.5633 537.426 57.69C537.413 57.81 537.4 57.9 537.386 57.96H533.626V56.97H536.396L536.166 57.25C536.166 56.85 536.08 56.55 535.906 56.35C535.74 56.1433 535.493 56.04 535.166 56.04C534.926 56.04 534.716 56.0933 534.536 56.2C534.356 56.3067 534.216 56.47 534.116 56.69C534.016 56.91 533.966 57.1867 533.966 57.52C533.966 57.86 534.026 58.14 534.146 58.36C534.266 58.5733 534.44 58.7333 534.666 58.84C534.893 58.9467 535.166 59 535.486 59C535.713 59 535.926 58.97 536.126 58.91C536.333 58.85 536.546 58.7633 536.766 58.65L537.256 59.54C536.97 59.72 536.653 59.8633 536.306 59.97C535.96 60.07 535.62 60.12 535.286 60.12ZM541.282 60.12C540.769 60.12 540.302 60.02 539.882 59.82C539.469 59.6133 539.139 59.3167 538.892 58.93C538.652 58.5367 538.532 58.0667 538.532 57.52C538.532 56.98 538.656 56.5167 538.902 56.13C539.149 55.7367 539.469 55.4367 539.862 55.23C540.256 55.0233 540.672 54.92 541.112 54.92C541.626 54.92 542.056 55.0267 542.402 55.24C542.749 55.4467 543.009 55.73 543.182 56.09C543.362 56.4433 543.452 56.8467 543.452 57.3C543.452 57.4333 543.442 57.5633 543.422 57.69C543.409 57.81 543.396 57.9 543.382 57.96H539.622V56.97H542.392L542.162 57.25C542.162 56.85 542.076 56.55 541.902 56.35C541.736 56.1433 541.489 56.04 541.162 56.04C540.922 56.04 540.712 56.0933 540.532 56.2C540.352 56.3067 540.212 56.47 540.112 56.69C540.012 56.91 539.962 57.1867 539.962 57.52C539.962 57.86 540.022 58.14 540.142 58.36C540.262 58.5733 540.436 58.7333 540.662 58.84C540.889 58.9467 541.162 59 541.482 59C541.709 59 541.922 58.97 542.122 58.91C542.329 58.85 542.542 58.7633 542.762 58.65L543.252 59.54C542.966 59.72 542.649 59.8633 542.302 59.97C541.956 60.07 541.616 60.12 541.282 60.12ZM544.699 60V55.04H545.899L546.009 55.7H546.049C546.262 55.4867 546.505 55.3033 546.779 55.15C547.059 54.9967 547.385 54.92 547.759 54.92C548.319 54.92 548.729 55.1 548.989 55.46C549.249 55.82 549.379 56.3133 549.379 56.94V60H547.909V57.13C547.909 56.7967 547.852 56.5533 547.739 56.4C547.632 56.2467 547.445 56.17 547.179 56.17C546.979 56.17 546.802 56.2167 546.649 56.31C546.502 56.3967 546.342 56.5233 546.169 56.69V60H544.699Z" fill="#232A3D"/>
<path d="M81.3059 98V93.09H82.2559L82.3559 94.2H82.3859C82.6325 93.8 82.9359 93.4967 83.2959 93.29C83.6625 93.0767 84.0559 92.97 84.4759 92.97C84.6759 92.97 84.8492 92.9867 84.9959 93.02C85.1425 93.0533 85.2859 93.1033 85.4259 93.17L85.1859 94.14C85.0259 94.0867 84.8825 94.05 84.7559 94.03C84.6359 94.0033 84.4825 93.99 84.2959 93.99C83.9625 93.99 83.6359 94.0867 83.3159 94.28C83.0025 94.4733 82.7192 94.81 82.4659 95.29V98H81.3059ZM89.302 98.12C88.802 98.12 88.3486 98.02 87.942 97.82C87.5353 97.6133 87.212 97.32 86.972 96.94C86.732 96.5533 86.612 96.0867 86.612 95.54C86.612 95.0067 86.732 94.55 86.972 94.17C87.212 93.7833 87.5253 93.4867 87.912 93.28C88.2986 93.0733 88.712 92.97 89.152 92.97C89.6386 92.97 90.0486 93.07 90.382 93.27C90.722 93.47 90.9786 93.7467 91.152 94.1C91.332 94.4467 91.422 94.8467 91.422 95.3C91.422 95.4133 91.4153 95.5233 91.402 95.63C91.3953 95.73 91.3853 95.8133 91.372 95.88H87.442V95.06H90.632L90.412 95.32C90.412 94.8333 90.302 94.47 90.082 94.23C89.8686 93.9833 89.5686 93.86 89.182 93.86C88.9086 93.86 88.662 93.9233 88.442 94.05C88.2286 94.1767 88.0586 94.3667 87.932 94.62C87.8053 94.8667 87.742 95.1733 87.742 95.54C87.742 95.92 87.812 96.2333 87.952 96.48C88.0986 96.7267 88.2986 96.9133 88.552 97.04C88.812 97.1667 89.112 97.23 89.452 97.23C89.712 97.23 89.952 97.1933 90.172 97.12C90.392 97.0467 90.612 96.9467 90.832 96.82L91.222 97.54C90.962 97.7067 90.6686 97.8467 90.342 97.96C90.0153 98.0667 89.6686 98.12 89.302 98.12ZM94.628 98.12C94.0014 98.12 93.4947 97.8933 93.108 97.44C92.7214 96.9867 92.528 96.3567 92.528 95.55C92.528 95.0167 92.6314 94.5567 92.838 94.17C93.0447 93.7833 93.3147 93.4867 93.648 93.28C93.9814 93.0733 94.3314 92.97 94.698 92.97C94.978 92.97 95.2247 93.02 95.438 93.12C95.658 93.22 95.8614 93.3633 96.048 93.55H96.078L96.018 92.72V90.94H97.178V98H96.228L96.138 97.43H96.108C95.9214 97.6167 95.698 97.78 95.438 97.92C95.178 98.0533 94.908 98.12 94.628 98.12ZM94.908 97.17C95.108 97.17 95.3014 97.1233 95.488 97.03C95.6747 96.93 95.8514 96.78 96.018 96.58V94.37C95.8447 94.2033 95.6714 94.0867 95.498 94.02C95.3247 93.9533 95.148 93.92 94.968 93.92C94.7414 93.92 94.5314 93.9833 94.338 94.11C94.1514 94.2367 94.0014 94.42 93.888 94.66C93.7747 94.9 93.718 95.1933 93.718 95.54C93.718 96.0667 93.8214 96.47 94.028 96.75C94.2414 97.03 94.5347 97.17 94.908 97.17Z" fill="#232A3D"/>
<path d="M81.3059 214V209.09H82.2559L82.3559 210.2H82.3859C82.6325 209.8 82.9359 209.497 83.2959 209.29C83.6625 209.077 84.0559 208.97 84.4759 208.97C84.6759 208.97 84.8492 208.987 84.9959 209.02C85.1425 209.053 85.2859 209.103 85.4259 209.17L85.1859 210.14C85.0259 210.087 84.8825 210.05 84.7559 210.03C84.6359 210.003 84.4825 209.99 84.2959 209.99C83.9625 209.99 83.6359 210.087 83.3159 210.28C83.0025 210.473 82.7192 210.81 82.4659 211.29V214H81.3059ZM89.302 214.12C88.802 214.12 88.3486 214.02 87.942 213.82C87.5353 213.613 87.212 213.32 86.972 212.94C86.732 212.553 86.612 212.087 86.612 211.54C86.612 211.007 86.732 210.55 86.972 210.17C87.212 209.783 87.5253 209.487 87.912 209.28C88.2986 209.073 88.712 208.97 89.152 208.97C89.6386 208.97 90.0486 209.07 90.382 209.27C90.722 209.47 90.9786 209.747 91.152 210.1C91.332 210.447 91.422 210.847 91.422 211.3C91.422 211.413 91.4153 211.523 91.402 211.63C91.3953 211.73 91.3853 211.813 91.372 211.88H87.442V211.06H90.632L90.412 211.32C90.412 210.833 90.302 210.47 90.082 210.23C89.8686 209.983 89.5686 209.86 89.182 209.86C88.9086 209.86 88.662 209.923 88.442 210.05C88.2286 210.177 88.0586 210.367 87.932 210.62C87.8053 210.867 87.742 211.173 87.742 211.54C87.742 211.92 87.812 212.233 87.952 212.48C88.0986 212.727 88.2986 212.913 88.552 213.04C88.812 213.167 89.112 213.23 89.452 213.23C89.712 213.23 89.952 213.193 90.172 213.12C90.392 213.047 90.612 212.947 90.832 212.82L91.222 213.54C90.962 213.707 90.6686 213.847 90.342 213.96C90.0153 214.067 89.6686 214.12 89.302 214.12ZM94.628 214.12C94.0014 214.12 93.4947 213.893 93.108 213.44C92.7214 212.987 92.528 212.357 92.528 211.55C92.528 211.017 92.6314 210.557 92.838 210.17C93.0447 209.783 93.3147 209.487 93.648 209.28C93.9814 209.073 94.3314 208.97 94.698 208.97C94.978 208.97 95.2247 209.02 95.438 209.12C95.658 209.22 95.8614 209.363 96.048 209.55H96.078L96.018 208.72V206.94H97.178V214H96.228L96.138 213.43H96.108C95.9214 213.617 95.698 213.78 95.438 213.92C95.178 214.053 94.908 214.12 94.628 214.12ZM94.908 213.17C95.108 213.17 95.3014 213.123 95.488 213.03C95.6747 212.93 95.8514 212.78 96.018 212.58V210.37C95.8447 210.203 95.6714 210.087 95.498 210.02C95.3247 209.953 95.148 209.92 94.968 209.92C94.7414 209.92 94.5314 209.983 94.338 210.11C94.1514 210.237 94.0014 210.42 93.888 210.66C93.7747 210.9 93.718 211.193 93.718 211.54C93.718 212.067 93.8214 212.47 94.028 212.75C94.2414 213.03 94.5347 213.17 94.908 213.17Z" fill="#232A3D"/>
<path d="M72.3817 138.02C72.2551 138.02 72.1284 138.01 72.0017 137.99C71.8817 137.97 71.7751 137.947 71.6817 137.92L71.9017 137.02C71.9684 137.04 72.0351 137.057 72.1017 137.07C72.1751 137.083 72.2451 137.09 72.3117 137.09C72.6251 137.09 72.8751 137.01 73.0617 136.85C73.2484 136.69 73.3917 136.49 73.4917 136.25L73.6117 135.94L71.4117 131.09H72.5617L73.5717 133.5C73.6584 133.72 73.7484 133.953 73.8417 134.2C73.9351 134.447 74.0251 134.693 74.1117 134.94H74.1517C74.2317 134.707 74.3117 134.467 74.3917 134.22C74.4784 133.967 74.5617 133.727 74.6417 133.5L75.5317 131.09H76.6217L74.5717 136.22C74.4384 136.587 74.2751 136.903 74.0817 137.17C73.8884 137.443 73.6551 137.653 73.3817 137.8C73.1084 137.947 72.7751 138.02 72.3817 138.02ZM80.3078 136.12C79.8078 136.12 79.3545 136.02 78.9478 135.82C78.5411 135.613 78.2178 135.32 77.9778 134.94C77.7378 134.553 77.6178 134.087 77.6178 133.54C77.6178 133.007 77.7378 132.55 77.9778 132.17C78.2178 131.783 78.5311 131.487 78.9178 131.28C79.3045 131.073 79.7178 130.97 80.1578 130.97C80.6445 130.97 81.0545 131.07 81.3878 131.27C81.7278 131.47 81.9845 131.747 82.1578 132.1C82.3378 132.447 82.4278 132.847 82.4278 133.3C82.4278 133.413 82.4211 133.523 82.4078 133.63C82.4011 133.73 82.3911 133.813 82.3778 133.88H78.4478V133.06H81.6378L81.4178 133.32C81.4178 132.833 81.3078 132.47 81.0878 132.23C80.8745 131.983 80.5745 131.86 80.1878 131.86C79.9145 131.86 79.6678 131.923 79.4478 132.05C79.2345 132.177 79.0645 132.367 78.9378 132.62C78.8111 132.867 78.7478 133.173 78.7478 133.54C78.7478 133.92 78.8178 134.233 78.9578 134.48C79.1045 134.727 79.3045 134.913 79.5578 135.04C79.8178 135.167 80.1178 135.23 80.4578 135.23C80.7178 135.23 80.9578 135.193 81.1778 135.12C81.3978 135.047 81.6178 134.947 81.8378 134.82L82.2278 135.54C81.9678 135.707 81.6745 135.847 81.3478 135.96C81.0211 136.067 80.6745 136.12 80.3078 136.12ZM87.0039 136.12C86.4372 136.12 86.0039 135.953 85.7039 135.62C85.4106 135.28 85.2639 134.81 85.2639 134.21V129.85H83.6639V128.94H86.4139V134.27C86.4139 134.603 86.4972 134.84 86.6639 134.98C86.8372 135.113 87.0472 135.18 87.2939 135.18C87.4206 135.18 87.5506 135.167 87.6839 135.14C87.8172 135.107 87.9672 135.057 88.1339 134.99L88.4039 135.84C88.1706 135.92 87.9506 135.987 87.7439 136.04C87.5439 136.093 87.2972 136.12 87.0039 136.12ZM93 136.12C92.4333 136.12 92 135.953 91.7 135.62C91.4067 135.28 91.26 134.81 91.26 134.21V129.85H89.66V128.94H92.41V134.27C92.41 134.603 92.4933 134.84 92.66 134.98C92.8333 135.113 93.0433 135.18 93.29 135.18C93.4167 135.18 93.5467 135.167 93.68 135.14C93.8133 135.107 93.9633 135.057 94.13 134.99L94.4 135.84C94.1667 135.92 93.9467 135.987 93.74 136.04C93.54 136.093 93.2933 136.12 93 136.12ZM97.9961 136.12C97.5628 136.12 97.1594 136.02 96.7861 135.82C96.4128 135.613 96.1094 135.32 95.8761 134.94C95.6428 134.553 95.5261 134.09 95.5261 133.55C95.5261 133.003 95.6428 132.54 95.8761 132.16C96.1094 131.773 96.4128 131.48 96.7861 131.28C97.1594 131.073 97.5628 130.97 97.9961 130.97C98.4294 130.97 98.8328 131.073 99.2061 131.28C99.5794 131.48 99.8828 131.773 100.116 132.16C100.349 132.54 100.466 133.003 100.466 133.55C100.466 134.09 100.349 134.553 100.116 134.94C99.8828 135.32 99.5794 135.613 99.2061 135.82C98.8328 136.02 98.4294 136.12 97.9961 136.12ZM97.9961 135.18C98.2628 135.18 98.4928 135.113 98.6861 134.98C98.8794 134.847 99.0261 134.657 99.1261 134.41C99.2261 134.163 99.2761 133.877 99.2761 133.55C99.2761 133.223 99.2261 132.937 99.1261 132.69C99.0261 132.443 98.8794 132.253 98.6861 132.12C98.4928 131.98 98.2628 131.91 97.9961 131.91C97.7294 131.91 97.4994 131.98 97.3061 132.12C97.1194 132.253 96.9728 132.443 96.8661 132.69C96.7661 132.937 96.7161 133.223 96.7161 133.55C96.7161 133.877 96.7661 134.163 96.8661 134.41C96.9728 134.657 97.1194 134.847 97.3061 134.98C97.4994 135.113 97.7294 135.18 97.9961 135.18ZM101.982 136L101.052 131.09H102.182L102.622 133.64C102.662 133.88 102.696 134.117 102.722 134.35C102.756 134.577 102.786 134.81 102.812 135.05H102.842C102.876 134.81 102.912 134.573 102.952 134.34C102.999 134.107 103.049 133.873 103.102 133.64L103.552 131.57H104.502L104.942 133.64C104.996 133.88 105.046 134.117 105.092 134.35C105.146 134.577 105.189 134.81 105.222 135.05H105.262C105.296 134.81 105.322 134.577 105.342 134.35C105.369 134.117 105.402 133.88 105.442 133.64L105.862 131.09H106.932L106.032 136H104.632L104.222 134.04C104.189 133.847 104.152 133.63 104.112 133.39C104.079 133.15 104.046 132.883 104.012 132.59H103.972C103.939 132.843 103.906 133.087 103.872 133.32C103.846 133.553 103.812 133.793 103.772 134.04L103.372 136H101.982Z" fill="#232A3D"/>
<path d="M76.8698 177.17C76.4164 177.17 76.0231 177.12 75.6898 177.02C75.3564 176.927 75.0964 176.783 74.9098 176.59C74.7231 176.397 74.6298 176.153 74.6298 175.86C74.6298 175.667 74.6964 175.48 74.8298 175.3C74.9631 175.12 75.1564 174.963 75.4098 174.83V174.79C75.2831 174.71 75.1664 174.607 75.0598 174.48C74.9598 174.347 74.9098 174.177 74.9098 173.97C74.9098 173.81 74.9631 173.647 75.0698 173.48C75.1764 173.313 75.3198 173.17 75.4998 173.05V173.01C75.3264 172.883 75.1764 172.713 75.0498 172.5C74.9298 172.28 74.8698 172.027 74.8698 171.74C74.8698 171.36 74.9631 171.04 75.1498 170.78C75.3364 170.513 75.5831 170.313 75.8898 170.18C76.1964 170.04 76.5298 169.97 76.8898 169.97C77.1831 169.97 77.4398 170.01 77.6598 170.09H79.6698V170.97H78.5398C78.6264 171.063 78.6998 171.183 78.7598 171.33C78.8264 171.47 78.8598 171.62 78.8598 171.78C78.8598 172.14 78.7698 172.447 78.5898 172.7C78.4164 172.947 78.1831 173.133 77.8898 173.26C77.5964 173.387 77.2631 173.45 76.8898 173.45C76.7764 173.45 76.6531 173.44 76.5198 173.42C76.3931 173.393 76.2664 173.357 76.1398 173.31C76.0398 173.37 75.9631 173.437 75.9098 173.51C75.8631 173.583 75.8398 173.67 75.8398 173.77C75.8398 173.923 75.9164 174.04 76.0698 174.12C76.2298 174.193 76.4631 174.23 76.7698 174.23H77.7698C78.4098 174.23 78.8898 174.323 79.2098 174.51C79.5364 174.69 79.6998 174.997 79.6998 175.43C79.6998 175.75 79.5831 176.043 79.3498 176.31C79.1231 176.577 78.7964 176.787 78.3698 176.94C77.9498 177.093 77.4498 177.17 76.8698 177.17ZM76.8898 172.72C77.0631 172.72 77.2198 172.683 77.3598 172.61C77.4998 172.53 77.6098 172.417 77.6898 172.27C77.7764 172.123 77.8198 171.947 77.8198 171.74C77.8198 171.54 77.7764 171.37 77.6898 171.23C77.6098 171.083 77.4998 170.97 77.3598 170.89C77.2198 170.81 77.0631 170.77 76.8898 170.77C76.7231 170.77 76.5698 170.81 76.4298 170.89C76.2898 170.97 76.1764 171.083 76.0898 171.23C76.0031 171.37 75.9598 171.54 75.9598 171.74C75.9598 171.947 76.0031 172.123 76.0898 172.27C76.1764 172.417 76.2898 172.53 76.4298 172.61C76.5698 172.683 76.7231 172.72 76.8898 172.72ZM77.0098 176.41C77.3298 176.41 77.6064 176.373 77.8398 176.3C78.0798 176.227 78.2631 176.13 78.3898 176.01C78.5231 175.89 78.5898 175.76 78.5898 175.62C78.5898 175.427 78.5064 175.297 78.3398 175.23C78.1798 175.17 77.9331 175.14 77.5998 175.14H76.8198C76.6598 175.14 76.5198 175.133 76.3998 175.12C76.2798 175.107 76.1698 175.09 76.0698 175.07C75.8964 175.17 75.7731 175.273 75.6998 175.38C75.6264 175.487 75.5898 175.597 75.5898 175.71C75.5898 175.93 75.7131 176.1 75.9598 176.22C76.2064 176.347 76.5564 176.41 77.0098 176.41ZM81.3059 175V170.09H82.2559L82.3559 171.2H82.3859C82.6325 170.8 82.9359 170.497 83.2959 170.29C83.6625 170.077 84.0559 169.97 84.4759 169.97C84.6759 169.97 84.8492 169.987 84.9959 170.02C85.1425 170.053 85.2859 170.103 85.4259 170.17L85.1859 171.14C85.0259 171.087 84.8825 171.05 84.7559 171.03C84.6359 171.003 84.4825 170.99 84.2959 170.99C83.9625 170.99 83.6359 171.087 83.3159 171.28C83.0025 171.473 82.7192 171.81 82.4659 172.29V175H81.3059ZM89.302 175.12C88.802 175.12 88.3486 175.02 87.942 174.82C87.5353 174.613 87.212 174.32 86.972 173.94C86.732 173.553 86.612 173.087 86.612 172.54C86.612 172.007 86.732 171.55 86.972 171.17C87.212 170.783 87.5253 170.487 87.912 170.28C88.2986 170.073 88.712 169.97 89.152 169.97C89.6386 169.97 90.0486 170.07 90.382 170.27C90.722 170.47 90.9786 170.747 91.152 171.1C91.332 171.447 91.422 171.847 91.422 172.3C91.422 172.413 91.4153 172.523 91.402 172.63C91.3953 172.73 91.3853 172.813 91.372 172.88H87.442V172.06H90.632L90.412 172.32C90.412 171.833 90.302 171.47 90.082 171.23C89.8686 170.983 89.5686 170.86 89.182 170.86C88.9086 170.86 88.662 170.923 88.442 171.05C88.2286 171.177 88.0586 171.367 87.932 171.62C87.8053 171.867 87.742 172.173 87.742 172.54C87.742 172.92 87.812 173.233 87.952 173.48C88.0986 173.727 88.2986 173.913 88.552 174.04C88.812 174.167 89.112 174.23 89.452 174.23C89.712 174.23 89.952 174.193 90.172 174.12C90.392 174.047 90.612 173.947 90.832 173.82L91.222 174.54C90.962 174.707 90.6686 174.847 90.342 174.96C90.0153 175.067 89.6686 175.12 89.302 175.12ZM95.298 175.12C94.798 175.12 94.3447 175.02 93.938 174.82C93.5314 174.613 93.208 174.32 92.968 173.94C92.728 173.553 92.608 173.087 92.608 172.54C92.608 172.007 92.728 171.55 92.968 171.17C93.208 170.783 93.5214 170.487 93.908 170.28C94.2947 170.073 94.708 169.97 95.148 169.97C95.6347 169.97 96.0447 170.07 96.378 170.27C96.718 170.47 96.9747 170.747 97.148 171.1C97.328 171.447 97.418 171.847 97.418 172.3C97.418 172.413 97.4114 172.523 97.398 172.63C97.3914 172.73 97.3814 172.813 97.368 172.88H93.438V172.06H96.628L96.408 172.32C96.408 171.833 96.298 171.47 96.078 171.23C95.8647 170.983 95.5647 170.86 95.178 170.86C94.9047 170.86 94.658 170.923 94.438 171.05C94.2247 171.177 94.0547 171.367 93.928 171.62C93.8014 171.867 93.738 172.173 93.738 172.54C93.738 172.92 93.808 173.233 93.948 173.48C94.0947 173.727 94.2947 173.913 94.548 174.04C94.808 174.167 95.108 174.23 95.448 174.23C95.708 174.23 95.948 174.193 96.168 174.12C96.388 174.047 96.608 173.947 96.828 173.82L97.218 174.54C96.958 174.707 96.6647 174.847 96.338 174.96C96.0114 175.067 95.6647 175.12 95.298 175.12ZM98.8141 175V170.09H99.7641L99.8541 170.83H99.8941C100.127 170.59 100.384 170.387 100.664 170.22C100.951 170.053 101.284 169.97 101.664 169.97C102.231 169.97 102.647 170.143 102.914 170.49C103.181 170.837 103.314 171.327 103.314 171.96V175H102.154V172.11C102.154 171.717 102.084 171.427 101.944 171.24C101.804 171.053 101.567 170.96 101.234 170.96C100.994 170.96 100.781 171.017 100.594 171.13C100.407 171.243 100.201 171.417 99.9741 171.65V175H98.8141Z" fill="#232A3D"/>
<path d="M169 150.5C168.172 150.5 167.5 151.172 167.5 152C167.5 152.828 168.172 153.5 169 153.5V150.5ZM219.561 153.061C220.146 152.475 220.146 151.525 219.561 150.939L210.015 141.393C209.429 140.808 208.479 140.808 207.893 141.393C207.308 141.979 207.308 142.929 207.893 143.515L216.379 152L207.893 160.485C207.308 161.071 207.308 162.021 207.893 162.607C208.479 163.192 209.429 163.192 210.015 162.607L219.561 153.061ZM169 153.5H218.5V150.5H169V153.5Z" fill="#9B51E0"/>
<path d="M507.611 178V176.496H510.443V169.808H508.187V168.656C508.614 168.592 508.987 168.523 509.307 168.448C509.627 168.373 509.915 168.283 510.171 168.176C510.438 168.069 510.694 167.952 510.939 167.824H512.283V176.496H514.779V178H507.611Z" fill="#232A3D"/>
<path d="M404.003 178.192C403.235 178.192 402.568 177.984 402.003 177.568C401.438 177.152 401 176.549 400.691 175.76C400.382 174.971 400.227 174.005 400.227 172.864C400.227 171.147 400.568 169.845 401.251 168.96C401.934 168.075 402.851 167.632 404.003 167.632C405.166 167.632 406.083 168.075 406.755 168.96C407.438 169.845 407.779 171.147 407.779 172.864C407.779 174.005 407.624 174.971 407.315 175.76C407.016 176.549 406.584 177.152 406.019 177.568C405.454 177.984 404.782 178.192 404.003 178.192ZM404.003 176.752C404.408 176.752 404.771 176.624 405.091 176.368C405.411 176.101 405.662 175.685 405.843 175.12C406.024 174.544 406.115 173.792 406.115 172.864C406.115 171.936 406.024 171.195 405.843 170.64C405.662 170.085 405.411 169.685 405.091 169.44C404.771 169.195 404.408 169.072 404.003 169.072C403.598 169.072 403.235 169.195 402.915 169.44C402.595 169.685 402.344 170.085 402.163 170.64C401.982 171.195 401.891 171.936 401.891 172.864C401.891 173.792 401.982 174.544 402.163 175.12C402.344 175.685 402.595 176.101 402.915 176.368C403.235 176.624 403.598 176.752 404.003 176.752ZM404.003 173.936C403.704 173.936 403.443 173.835 403.219 173.632C403.006 173.429 402.899 173.152 402.899 172.8C402.899 172.448 403.006 172.171 403.219 171.968C403.443 171.765 403.704 171.664 404.003 171.664C404.312 171.664 404.574 171.765 404.787 171.968C405 172.171 405.107 172.448 405.107 172.8C405.107 173.152 405 173.429 404.787 173.632C404.574 173.835 404.312 173.936 404.003 173.936Z" fill="#232A3D"/>
<path d="M400.611 139V137.496H403.443V130.808H401.187V129.656C401.614 129.592 401.987 129.523 402.307 129.448C402.627 129.373 402.915 129.283 403.171 129.176C403.438 129.069 403.694 128.952 403.939 128.824H405.283V137.496H407.779V139H400.611Z" fill="#232A3D"/>
<path d="M404.003 97.192C403.235 97.192 402.568 96.984 402.003 96.568C401.438 96.152 401 95.5493 400.691 94.76C400.382 93.9707 400.227 93.0053 400.227 91.864C400.227 90.1467 400.568 88.8453 401.251 87.96C401.934 87.0747 402.851 86.632 404.003 86.632C405.166 86.632 406.083 87.0747 406.755 87.96C407.438 88.8453 407.779 90.1467 407.779 91.864C407.779 93.0053 407.624 93.9707 407.315 94.76C407.016 95.5493 406.584 96.152 406.019 96.568C405.454 96.984 404.782 97.192 404.003 97.192ZM404.003 95.752C404.408 95.752 404.771 95.624 405.091 95.368C405.411 95.1013 405.662 94.6853 405.843 94.12C406.024 93.544 406.115 92.792 406.115 91.864C406.115 90.936 406.024 90.1947 405.843 89.64C405.662 89.0853 405.411 88.6853 405.091 88.44C404.771 88.1947 404.408 88.072 404.003 88.072C403.598 88.072 403.235 88.1947 402.915 88.44C402.595 88.6853 402.344 89.0853 402.163 89.64C401.982 90.1947 401.891 90.936 401.891 91.864C401.891 92.792 401.982 93.544 402.163 94.12C402.344 94.6853 402.595 95.1013 402.915 95.368C403.235 95.624 403.598 95.752 404.003 95.752ZM404.003 92.936C403.704 92.936 403.443 92.8347 403.219 92.632C403.006 92.4293 402.899 92.152 402.899 91.8C402.899 91.448 403.006 91.1707 403.219 90.968C403.443 90.7653 403.704 90.664 404.003 90.664C404.312 90.664 404.574 90.7653 404.787 90.968C405 91.1707 405.107 91.448 405.107 91.8C405.107 92.152 405 92.4293 404.787 92.632C404.574 92.8347 404.312 92.936 404.003 92.936Z" fill="#232A3D"/>
<path d="M404.003 215.192C403.235 215.192 402.568 214.984 402.003 214.568C401.438 214.152 401 213.549 400.691 212.76C400.382 211.971 400.227 211.005 400.227 209.864C400.227 208.147 400.568 206.845 401.251 205.96C401.934 205.075 402.851 204.632 404.003 204.632C405.166 204.632 406.083 205.075 406.755 205.96C407.438 206.845 407.779 208.147 407.779 209.864C407.779 211.005 407.624 211.971 407.315 212.76C407.016 213.549 406.584 214.152 406.019 214.568C405.454 214.984 404.782 215.192 404.003 215.192ZM404.003 213.752C404.408 213.752 404.771 213.624 405.091 213.368C405.411 213.101 405.662 212.685 405.843 212.12C406.024 211.544 406.115 210.792 406.115 209.864C406.115 208.936 406.024 208.195 405.843 207.64C405.662 207.085 405.411 206.685 405.091 206.44C404.771 206.195 404.408 206.072 404.003 206.072C403.598 206.072 403.235 206.195 402.915 206.44C402.595 206.685 402.344 207.085 402.163 207.64C401.982 208.195 401.891 208.936 401.891 209.864C401.891 210.792 401.982 211.544 402.163 212.12C402.344 212.685 402.595 213.101 402.915 213.368C403.235 213.624 403.598 213.752 404.003 213.752ZM404.003 210.936C403.704 210.936 403.443 210.835 403.219 210.632C403.006 210.429 402.899 210.152 402.899 209.8C402.899 209.448 403.006 209.171 403.219 208.968C403.443 208.765 403.704 208.664 404.003 208.664C404.312 208.664 404.574 208.765 404.787 208.968C405 209.171 405.107 209.448 405.107 209.8C405.107 210.152 405 210.429 404.787 210.632C404.574 210.835 404.312 210.936 404.003 210.936Z" fill="#232A3D"/>
<path d="M511.003 97.192C510.235 97.192 509.568 96.984 509.003 96.568C508.438 96.152 508 95.5493 507.691 94.76C507.382 93.9707 507.227 93.0053 507.227 91.864C507.227 90.1467 507.568 88.8453 508.251 87.96C508.934 87.0747 509.851 86.632 511.003 86.632C512.166 86.632 513.083 87.0747 513.755 87.96C514.438 88.8453 514.779 90.1467 514.779 91.864C514.779 93.0053 514.624 93.9707 514.315 94.76C514.016 95.5493 513.584 96.152 513.019 96.568C512.454 96.984 511.782 97.192 511.003 97.192ZM511.003 95.752C511.408 95.752 511.771 95.624 512.091 95.368C512.411 95.1013 512.662 94.6853 512.843 94.12C513.024 93.544 513.115 92.792 513.115 91.864C513.115 90.936 513.024 90.1947 512.843 89.64C512.662 89.0853 512.411 88.6853 512.091 88.44C511.771 88.1947 511.408 88.072 511.003 88.072C510.598 88.072 510.235 88.1947 509.915 88.44C509.595 88.6853 509.344 89.0853 509.163 89.64C508.982 90.1947 508.891 90.936 508.891 91.864C508.891 92.792 508.982 93.544 509.163 94.12C509.344 94.6853 509.595 95.1013 509.915 95.368C510.235 95.624 510.598 95.752 511.003 95.752ZM511.003 92.936C510.704 92.936 510.443 92.8347 510.219 92.632C510.006 92.4293 509.899 92.152 509.899 91.8C509.899 91.448 510.006 91.1707 510.219 90.968C510.443 90.7653 510.704 90.664 511.003 90.664C511.312 90.664 511.574 90.7653 511.787 90.968C512 91.1707 512.107 91.448 512.107 91.8C512.107 92.152 512 92.4293 511.787 92.632C511.574 92.8347 511.312 92.936 511.003 92.936Z" fill="#232A3D"/>
<path d="M511.003 215.192C510.235 215.192 509.568 214.984 509.003 214.568C508.438 214.152 508 213.549 507.691 212.76C507.382 211.971 507.227 211.005 507.227 209.864C507.227 208.147 507.568 206.845 508.251 205.96C508.934 205.075 509.851 204.632 511.003 204.632C512.166 204.632 513.083 205.075 513.755 205.96C514.438 206.845 514.779 208.147 514.779 209.864C514.779 211.005 514.624 211.971 514.315 212.76C514.016 213.549 513.584 214.152 513.019 214.568C512.454 214.984 511.782 215.192 511.003 215.192ZM511.003 213.752C511.408 213.752 511.771 213.624 512.091 213.368C512.411 213.101 512.662 212.685 512.843 212.12C513.024 211.544 513.115 210.792 513.115 209.864C513.115 208.936 513.024 208.195 512.843 207.64C512.662 207.085 512.411 206.685 512.091 206.44C511.771 206.195 511.408 206.072 511.003 206.072C510.598 206.072 510.235 206.195 509.915 206.44C509.595 206.685 509.344 207.085 509.163 207.64C508.982 208.195 508.891 208.936 508.891 209.864C508.891 210.792 508.982 211.544 509.163 212.12C509.344 212.685 509.595 213.101 509.915 213.368C510.235 213.624 510.598 213.752 511.003 213.752ZM511.003 210.936C510.704 210.936 510.443 210.835 510.219 210.632C510.006 210.429 509.899 210.152 509.899 209.8C509.899 209.448 510.006 209.171 510.219 208.968C510.443 208.765 510.704 208.664 511.003 208.664C511.312 208.664 511.574 208.765 511.787 208.968C512 209.171 512.107 209.448 512.107 209.8C512.107 210.152 512 210.429 511.787 210.632C511.574 210.835 511.312 210.936 511.003 210.936Z" fill="#232A3D"/>
<path d="M511.003 139.192C510.235 139.192 509.568 138.984 509.003 138.568C508.438 138.152 508 137.549 507.691 136.76C507.382 135.971 507.227 135.005 507.227 133.864C507.227 132.147 507.568 130.845 508.251 129.96C508.934 129.075 509.851 128.632 511.003 128.632C512.166 128.632 513.083 129.075 513.755 129.96C514.438 130.845 514.779 132.147 514.779 133.864C514.779 135.005 514.624 135.971 514.315 136.76C514.016 137.549 513.584 138.152 513.019 138.568C512.454 138.984 511.782 139.192 511.003 139.192ZM511.003 137.752C511.408 137.752 511.771 137.624 512.091 137.368C512.411 137.101 512.662 136.685 512.843 136.12C513.024 135.544 513.115 134.792 513.115 133.864C513.115 132.936 513.024 132.195 512.843 131.64C512.662 131.085 512.411 130.685 512.091 130.44C511.771 130.195 511.408 130.072 511.003 130.072C510.598 130.072 510.235 130.195 509.915 130.44C509.595 130.685 509.344 131.085 509.163 131.64C508.982 132.195 508.891 132.936 508.891 133.864C508.891 134.792 508.982 135.544 509.163 136.12C509.344 136.685 509.595 137.101 509.915 137.368C510.235 137.624 510.598 137.752 511.003 137.752ZM511.003 134.936C510.704 134.936 510.443 134.835 510.219 134.632C510.006 134.429 509.899 134.152 509.899 133.8C509.899 133.448 510.006 133.171 510.219 132.968C510.443 132.765 510.704 132.664 511.003 132.664C511.312 132.664 511.574 132.765 511.787 132.968C512 133.171 512.107 133.448 512.107 133.8C512.107 134.152 512 134.429 511.787 134.632C511.574 134.835 511.312 134.936 511.003 134.936Z" fill="#232A3D"/>
<path d="M295.003 139.192C294.235 139.192 293.568 138.984 293.003 138.568C292.438 138.152 292 137.549 291.691 136.76C291.382 135.971 291.227 135.005 291.227 133.864C291.227 132.147 291.568 130.845 292.251 129.96C292.934 129.075 293.851 128.632 295.003 128.632C296.166 128.632 297.083 129.075 297.755 129.96C298.438 130.845 298.779 132.147 298.779 133.864C298.779 135.005 298.624 135.971 298.315 136.76C298.016 137.549 297.584 138.152 297.019 138.568C296.454 138.984 295.782 139.192 295.003 139.192ZM295.003 137.752C295.408 137.752 295.771 137.624 296.091 137.368C296.411 137.101 296.662 136.685 296.843 136.12C297.024 135.544 297.115 134.792 297.115 133.864C297.115 132.936 297.024 132.195 296.843 131.64C296.662 131.085 296.411 130.685 296.091 130.44C295.771 130.195 295.408 130.072 295.003 130.072C294.598 130.072 294.235 130.195 293.915 130.44C293.595 130.685 293.344 131.085 293.163 131.64C292.982 132.195 292.891 132.936 292.891 133.864C292.891 134.792 292.982 135.544 293.163 136.12C293.344 136.685 293.595 137.101 293.915 137.368C294.235 137.624 294.598 137.752 295.003 137.752ZM295.003 134.936C294.704 134.936 294.443 134.835 294.219 134.632C294.006 134.429 293.899 134.152 293.899 133.8C293.899 133.448 294.006 133.171 294.219 132.968C294.443 132.765 294.704 132.664 295.003 132.664C295.312 132.664 295.574 132.765 295.787 132.968C296 133.171 296.107 133.448 296.107 133.8C296.107 134.152 296 134.429 295.787 134.632C295.574 134.835 295.312 134.936 295.003 134.936Z" fill="#232A3D"/>
<path d="M295.003 178.192C294.235 178.192 293.568 177.984 293.003 177.568C292.438 177.152 292 176.549 291.691 175.76C291.382 174.971 291.227 174.005 291.227 172.864C291.227 171.147 291.568 169.845 292.251 168.96C292.934 168.075 293.851 167.632 295.003 167.632C296.166 167.632 297.083 168.075 297.755 168.96C298.438 169.845 298.779 171.147 298.779 172.864C298.779 174.005 298.624 174.971 298.315 175.76C298.016 176.549 297.584 177.152 297.019 177.568C296.454 177.984 295.782 178.192 295.003 178.192ZM295.003 176.752C295.408 176.752 295.771 176.624 296.091 176.368C296.411 176.101 296.662 175.685 296.843 175.12C297.024 174.544 297.115 173.792 297.115 172.864C297.115 171.936 297.024 171.195 296.843 170.64C296.662 170.085 296.411 169.685 296.091 169.44C295.771 169.195 295.408 169.072 295.003 169.072C294.598 169.072 294.235 169.195 293.915 169.44C293.595 169.685 293.344 170.085 293.163 170.64C292.982 171.195 292.891 171.936 292.891 172.864C292.891 173.792 292.982 174.544 293.163 175.12C293.344 175.685 293.595 176.101 293.915 176.368C294.235 176.624 294.598 176.752 295.003 176.752ZM295.003 173.936C294.704 173.936 294.443 173.835 294.219 173.632C294.006 173.429 293.899 173.152 293.899 172.8C293.899 172.448 294.006 172.171 294.219 171.968C294.443 171.765 294.704 171.664 295.003 171.664C295.312 171.664 295.574 171.765 295.787 171.968C296 172.171 296.107 172.448 296.107 172.8C296.107 173.152 296 173.429 295.787 173.632C295.574 173.835 295.312 173.936 295.003 173.936Z" fill="#232A3D"/>
<path d="M291.611 97V95.496H294.443V88.808H292.187V87.656C292.614 87.592 292.987 87.5227 293.307 87.448C293.627 87.3733 293.915 87.2827 294.171 87.176C294.438 87.0693 294.694 86.952 294.939 86.824H296.283V95.496H298.779V97H291.611Z" fill="#232A3D"/>
<path d="M291.611 215V213.496H294.443V206.808H292.187V205.656C292.614 205.592 292.987 205.523 293.307 205.448C293.627 205.373 293.915 205.283 294.171 205.176C294.438 205.069 294.694 204.952 294.939 204.824H296.283V213.496H298.779V215H291.611Z" fill="#232A3D"/>
</svg>
