<svg width="389" height="369" viewBox="0 0 389 369" fill="none" xmlns="http://www.w3.org/2000/svg">
<rect width="389" height="369" fill="white"/>
<path d="M114 188H343" stroke="#232A3D" stroke-width="3"/>
<path d="M114 265H343" stroke="#232A3D" stroke-width="3"/>
<path d="M142.088 99V89.844H143.698V97.628H147.996V99H142.088ZM153.003 99.168C152.396 99.168 151.831 99.028 151.309 98.748C150.786 98.4587 150.361 98.048 150.035 97.516C149.708 96.9747 149.545 96.326 149.545 95.57C149.545 94.8047 149.708 94.156 150.035 93.624C150.361 93.0827 150.786 92.672 151.309 92.392C151.831 92.1027 152.396 91.958 153.003 91.958C153.609 91.958 154.174 92.1027 154.697 92.392C155.219 92.672 155.644 93.0827 155.971 93.624C156.297 94.156 156.461 94.8047 156.461 95.57C156.461 96.326 156.297 96.9747 155.971 97.516C155.644 98.048 155.219 98.4587 154.697 98.748C154.174 99.028 153.609 99.168 153.003 99.168ZM153.003 97.852C153.376 97.852 153.698 97.7587 153.969 97.572C154.239 97.3853 154.445 97.1193 154.585 96.774C154.725 96.4287 154.795 96.0273 154.795 95.57C154.795 95.1127 154.725 94.7113 154.585 94.366C154.445 94.0207 154.239 93.7547 153.969 93.568C153.698 93.372 153.376 93.274 153.003 93.274C152.629 93.274 152.307 93.372 152.037 93.568C151.775 93.7547 151.57 94.0207 151.421 94.366C151.281 94.7113 151.211 95.1127 151.211 95.57C151.211 96.0273 151.281 96.4287 151.421 96.774C151.57 97.1193 151.775 97.3853 152.037 97.572C152.307 97.7587 152.629 97.852 153.003 97.852ZM158.583 99L157.281 92.126H158.863L159.479 95.696C159.535 96.032 159.582 96.3633 159.619 96.69C159.666 97.0073 159.708 97.334 159.745 97.67H159.787C159.834 97.334 159.885 97.0027 159.941 96.676C160.007 96.3493 160.077 96.0227 160.151 95.696L160.781 92.798H162.111L162.727 95.696C162.802 96.032 162.872 96.3633 162.937 96.69C163.012 97.0073 163.073 97.334 163.119 97.67H163.175C163.222 97.334 163.259 97.0073 163.287 96.69C163.325 96.3633 163.371 96.032 163.427 95.696L164.015 92.126H165.513L164.253 99H162.293L161.719 96.256C161.673 95.9853 161.621 95.682 161.565 95.346C161.519 95.01 161.472 94.6367 161.425 94.226H161.369C161.323 94.5807 161.276 94.9213 161.229 95.248C161.192 95.5747 161.145 95.9107 161.089 96.256L160.529 99H158.583Z" fill="#232A3D"/>
<path d="M102 160.912H92.844V159.302H100.628V155.004H102V160.912ZM102.168 149.997C102.168 150.604 102.028 151.169 101.748 151.691C101.459 152.214 101.048 152.639 100.516 152.965C99.9747 153.292 99.326 153.455 98.57 153.455C97.8047 153.455 97.156 153.292 96.624 152.965C96.0827 152.639 95.672 152.214 95.392 151.691C95.1027 151.169 94.958 150.604 94.958 149.997C94.958 149.391 95.1027 148.826 95.392 148.303C95.672 147.781 96.0827 147.356 96.624 147.029C97.156 146.703 97.8047 146.539 98.57 146.539C99.326 146.539 99.9747 146.703 100.516 147.029C101.048 147.356 101.459 147.781 101.748 148.303C102.028 148.826 102.168 149.391 102.168 149.997ZM100.852 149.997C100.852 149.624 100.759 149.302 100.572 149.031C100.385 148.761 100.119 148.555 99.774 148.415C99.4287 148.275 99.0273 148.205 98.57 148.205C98.1127 148.205 97.7113 148.275 97.366 148.415C97.0207 148.555 96.7547 148.761 96.568 149.031C96.372 149.302 96.274 149.624 96.274 149.997C96.274 150.371 96.372 150.693 96.568 150.963C96.7547 151.225 97.0207 151.43 97.366 151.579C97.7113 151.719 98.1127 151.789 98.57 151.789C99.0273 151.789 99.4287 151.719 99.774 151.579C100.119 151.43 100.385 151.225 100.572 150.963C100.759 150.693 100.852 150.371 100.852 149.997ZM102 144.417L95.126 145.719V144.137L98.696 143.521C99.032 143.465 99.3633 143.418 99.69 143.381C100.007 143.334 100.334 143.292 100.67 143.255V143.213C100.334 143.166 100.003 143.115 99.676 143.059C99.3493 142.993 99.0227 142.923 98.696 142.849L95.798 142.219V140.889L98.696 140.273C99.032 140.198 99.3633 140.128 99.69 140.063C100.007 139.988 100.334 139.927 100.67 139.881V139.825C100.334 139.778 100.007 139.741 99.69 139.713C99.3633 139.675 99.032 139.629 98.696 139.573L95.126 138.985V137.487L102 138.747V140.707L99.256 141.281C98.9853 141.327 98.682 141.379 98.346 141.435C98.01 141.481 97.6367 141.528 97.226 141.575V141.631C97.5807 141.677 97.9213 141.724 98.248 141.771C98.5747 141.808 98.9107 141.855 99.256 141.911L102 142.471V144.417Z" fill="#232A3D"/>
<path d="M216.318 99V89.844H218.11L219.202 93.414L219.58 94.786H219.636L220 93.414L221.106 89.844H222.898V99H221.47V95.304C221.47 95.0613 221.475 94.7767 221.484 94.45C221.503 94.114 221.526 93.764 221.554 93.4C221.582 93.036 221.61 92.6953 221.638 92.378C221.666 92.0513 221.69 91.776 221.708 91.552H221.666L221.05 93.68L220.042 96.578H219.118L218.124 93.68L217.522 91.552H217.48C217.508 91.776 217.536 92.0513 217.564 92.378C217.592 92.6953 217.616 93.036 217.634 93.4C217.662 93.764 217.681 94.114 217.69 94.45C217.709 94.7767 217.718 95.0613 217.718 95.304V99H216.318ZM227.961 99V93.4H224.979V92.126H229.571V99H227.961ZM228.647 90.866C228.32 90.866 228.045 90.768 227.821 90.572C227.606 90.376 227.499 90.1147 227.499 89.788C227.499 89.4613 227.606 89.2 227.821 89.004C228.045 88.7987 228.32 88.696 228.647 88.696C228.983 88.696 229.258 88.7987 229.473 89.004C229.687 89.2 229.795 89.4613 229.795 89.788C229.795 90.1147 229.687 90.376 229.473 90.572C229.258 90.768 228.983 90.866 228.647 90.866ZM235.879 99.168C235.002 99.168 234.293 98.8507 233.751 98.216C233.21 97.5813 232.939 96.6993 232.939 95.57C232.939 94.8233 233.084 94.1793 233.373 93.638C233.663 93.0967 234.041 92.6813 234.507 92.392C234.974 92.1027 235.464 91.958 235.977 91.958C236.369 91.958 236.715 92.028 237.013 92.168C237.321 92.308 237.606 92.5087 237.867 92.77H237.909L237.825 91.608V89.116H239.449V99H238.119L237.993 98.202H237.951C237.69 98.4633 237.377 98.692 237.013 98.888C236.649 99.0747 236.271 99.168 235.879 99.168ZM236.271 97.838C236.551 97.838 236.822 97.7727 237.083 97.642C237.345 97.502 237.592 97.292 237.825 97.012V93.918C237.583 93.6847 237.34 93.5213 237.097 93.428C236.855 93.3347 236.607 93.288 236.355 93.288C236.038 93.288 235.744 93.3767 235.473 93.554C235.212 93.7313 235.002 93.988 234.843 94.324C234.685 94.66 234.605 95.0707 234.605 95.556C234.605 96.2933 234.75 96.858 235.039 97.25C235.338 97.642 235.749 97.838 236.271 97.838Z" fill="#232A3D"/>
<path d="M102 234.682H92.844V232.89L96.414 231.798L97.786 231.42V231.364L96.414 231L92.844 229.894V228.102H102V229.53H98.304C98.0613 229.53 97.7767 229.525 97.45 229.516C97.114 229.497 96.764 229.474 96.4 229.446C96.036 229.418 95.6953 229.39 95.378 229.362C95.0513 229.334 94.776 229.31 94.552 229.292V229.334L96.68 229.95L99.578 230.958V231.882L96.68 232.876L94.552 233.478V233.52C94.776 233.492 95.0513 233.464 95.378 233.436C95.6953 233.408 96.036 233.384 96.4 233.366C96.764 233.338 97.114 233.319 97.45 233.31C97.7767 233.291 98.0613 233.282 98.304 233.282H102V234.682ZM102 223.039H96.4V226.021H95.126V221.429H102V223.039ZM93.866 222.353C93.866 222.68 93.768 222.955 93.572 223.179C93.376 223.394 93.1147 223.501 92.788 223.501C92.4613 223.501 92.2 223.394 92.004 223.179C91.7987 222.955 91.696 222.68 91.696 222.353C91.696 222.017 91.7987 221.742 92.004 221.527C92.2 221.313 92.4613 221.205 92.788 221.205C93.1147 221.205 93.376 221.313 93.572 221.527C93.768 221.742 93.866 222.017 93.866 222.353ZM102.168 215.121C102.168 215.998 101.851 216.707 101.216 217.249C100.581 217.79 99.6993 218.061 98.57 218.061C97.8233 218.061 97.1793 217.916 96.638 217.627C96.0967 217.337 95.6813 216.959 95.392 216.493C95.1027 216.026 94.958 215.536 94.958 215.023C94.958 214.631 95.028 214.285 95.168 213.987C95.308 213.679 95.5087 213.394 95.77 213.133V213.091L94.608 213.175H92.116V211.551H102V212.881L101.202 213.007V213.049C101.463 213.31 101.692 213.623 101.888 213.987C102.075 214.351 102.168 214.729 102.168 215.121ZM100.838 214.729C100.838 214.449 100.773 214.178 100.642 213.917C100.502 213.655 100.292 213.408 100.012 213.175H96.918C96.6847 213.417 96.5213 213.66 96.428 213.903C96.3347 214.145 96.288 214.393 96.288 214.645C96.288 214.962 96.3767 215.256 96.554 215.527C96.7313 215.788 96.988 215.998 97.324 216.157C97.66 216.315 98.0707 216.395 98.556 216.395C99.2933 216.395 99.858 216.25 100.25 215.961C100.642 215.662 100.838 215.251 100.838 214.729Z" fill="#232A3D"/>
<path d="M291.205 99V89.844H292.843V93.526H295.979V89.844H297.617V99H295.979V94.94H292.843V99H291.205ZM302.763 99V93.4H299.781V92.126H304.373V99H302.763ZM303.449 90.866C303.123 90.866 302.847 90.768 302.623 90.572C302.409 90.376 302.301 90.1147 302.301 89.788C302.301 89.4613 302.409 89.2 302.623 89.004C302.847 88.7987 303.123 88.696 303.449 88.696C303.785 88.696 304.061 88.7987 304.275 89.004C304.49 89.2 304.597 89.4613 304.597 89.788C304.597 90.1147 304.49 90.376 304.275 90.572C304.061 90.768 303.785 90.866 303.449 90.866ZM311.004 102.038C310.369 102.038 309.819 101.968 309.352 101.828C308.885 101.697 308.521 101.497 308.26 101.226C307.999 100.955 307.868 100.615 307.868 100.204C307.868 99.9333 307.961 99.672 308.148 99.42C308.335 99.168 308.605 98.9487 308.96 98.762V98.706C308.783 98.594 308.619 98.4493 308.47 98.272C308.33 98.0853 308.26 97.8473 308.26 97.558C308.26 97.334 308.335 97.1053 308.484 96.872C308.633 96.6387 308.834 96.438 309.086 96.27V96.214C308.843 96.0367 308.633 95.7987 308.456 95.5C308.288 95.192 308.204 94.8373 308.204 94.436C308.204 93.904 308.335 93.456 308.596 93.092C308.857 92.7187 309.203 92.4387 309.632 92.252C310.061 92.056 310.528 91.958 311.032 91.958C311.443 91.958 311.802 92.014 312.11 92.126H314.924V93.358H313.342C313.463 93.4887 313.566 93.6567 313.65 93.862C313.743 94.058 313.79 94.268 313.79 94.492C313.79 94.996 313.664 95.4253 313.412 95.78C313.169 96.1253 312.843 96.3867 312.432 96.564C312.021 96.7413 311.555 96.83 311.032 96.83C310.873 96.83 310.701 96.816 310.514 96.788C310.337 96.7507 310.159 96.6993 309.982 96.634C309.842 96.718 309.735 96.8113 309.66 96.914C309.595 97.0167 309.562 97.138 309.562 97.278C309.562 97.4927 309.669 97.656 309.884 97.768C310.108 97.8707 310.435 97.922 310.864 97.922H312.264C313.16 97.922 313.832 98.0527 314.28 98.314C314.737 98.566 314.966 98.9953 314.966 99.602C314.966 100.05 314.803 100.461 314.476 100.834C314.159 101.207 313.701 101.501 313.104 101.716C312.516 101.931 311.816 102.038 311.004 102.038ZM311.032 95.808C311.275 95.808 311.494 95.7567 311.69 95.654C311.886 95.542 312.04 95.3833 312.152 95.178C312.273 94.9727 312.334 94.7253 312.334 94.436C312.334 94.156 312.273 93.918 312.152 93.722C312.04 93.5167 311.886 93.358 311.69 93.246C311.494 93.134 311.275 93.078 311.032 93.078C310.799 93.078 310.584 93.134 310.388 93.246C310.192 93.358 310.033 93.5167 309.912 93.722C309.791 93.918 309.73 94.156 309.73 94.436C309.73 94.7253 309.791 94.9727 309.912 95.178C310.033 95.3833 310.192 95.542 310.388 95.654C310.584 95.7567 310.799 95.808 311.032 95.808ZM311.2 100.974C311.648 100.974 312.035 100.923 312.362 100.82C312.698 100.717 312.955 100.582 313.132 100.414C313.319 100.246 313.412 100.064 313.412 99.868C313.412 99.5973 313.295 99.4153 313.062 99.322C312.838 99.238 312.493 99.196 312.026 99.196H310.934C310.71 99.196 310.514 99.1867 310.346 99.168C310.178 99.1493 310.024 99.126 309.884 99.098C309.641 99.238 309.469 99.3827 309.366 99.532C309.263 99.6813 309.212 99.8353 309.212 99.994C309.212 100.302 309.385 100.54 309.73 100.708C310.075 100.885 310.565 100.974 311.2 100.974ZM316.543 99V89.116H318.167V91.664L318.069 93.134H318.111C318.409 92.8167 318.755 92.5413 319.147 92.308C319.548 92.0747 320.01 91.958 320.533 91.958C321.326 91.958 321.909 92.2007 322.283 92.686C322.656 93.1713 322.843 93.8573 322.843 94.744V99H321.219V94.954C321.219 94.4033 321.121 93.9973 320.925 93.736C320.729 93.4747 320.397 93.344 319.931 93.344C319.595 93.344 319.296 93.4233 319.035 93.582C318.773 93.7407 318.484 93.9833 318.167 94.31V99H316.543Z" fill="#232A3D"/>
<path d="M102 315.795H92.844V314.157H96.526V311.021H92.844V309.383H102V311.021H97.94V314.157H102V315.795ZM102 304.237H96.4V307.219H95.126V302.627H102V304.237ZM93.866 303.551C93.866 303.877 93.768 304.153 93.572 304.377C93.376 304.591 93.1147 304.699 92.788 304.699C92.4613 304.699 92.2 304.591 92.004 304.377C91.7987 304.153 91.696 303.877 91.696 303.551C91.696 303.215 91.7987 302.939 92.004 302.725C92.2 302.51 92.4613 302.403 92.788 302.403C93.1147 302.403 93.376 302.51 93.572 302.725C93.768 302.939 93.866 303.215 93.866 303.551ZM105.038 295.996C105.038 296.631 104.968 297.181 104.828 297.648C104.697 298.115 104.497 298.479 104.226 298.74C103.955 299.001 103.615 299.132 103.204 299.132C102.933 299.132 102.672 299.039 102.42 298.852C102.168 298.665 101.949 298.395 101.762 298.04H101.706C101.594 298.217 101.449 298.381 101.272 298.53C101.085 298.67 100.847 298.74 100.558 298.74C100.334 298.74 100.105 298.665 99.872 298.516C99.6387 298.367 99.438 298.166 99.27 297.914H99.214C99.0367 298.157 98.7987 298.367 98.5 298.544C98.192 298.712 97.8373 298.796 97.436 298.796C96.904 298.796 96.456 298.665 96.092 298.404C95.7187 298.143 95.4387 297.797 95.252 297.368C95.056 296.939 94.958 296.472 94.958 295.968C94.958 295.557 95.014 295.198 95.126 294.89V292.076H96.358V293.658C96.4887 293.537 96.6567 293.434 96.862 293.35C97.058 293.257 97.268 293.21 97.492 293.21C97.996 293.21 98.4253 293.336 98.78 293.588C99.1253 293.831 99.3867 294.157 99.564 294.568C99.7413 294.979 99.83 295.445 99.83 295.968C99.83 296.127 99.816 296.299 99.788 296.486C99.7507 296.663 99.6993 296.841 99.634 297.018C99.718 297.158 99.8113 297.265 99.914 297.34C100.017 297.405 100.138 297.438 100.278 297.438C100.493 297.438 100.656 297.331 100.768 297.116C100.871 296.892 100.922 296.565 100.922 296.136V294.736C100.922 293.84 101.053 293.168 101.314 292.72C101.566 292.263 101.995 292.034 102.602 292.034C103.05 292.034 103.461 292.197 103.834 292.524C104.207 292.841 104.501 293.299 104.716 293.896C104.931 294.484 105.038 295.184 105.038 295.996ZM98.808 295.968C98.808 295.725 98.7567 295.506 98.654 295.31C98.542 295.114 98.3833 294.96 98.178 294.848C97.9727 294.727 97.7253 294.666 97.436 294.666C97.156 294.666 96.918 294.727 96.722 294.848C96.5167 294.96 96.358 295.114 96.246 295.31C96.134 295.506 96.078 295.725 96.078 295.968C96.078 296.201 96.134 296.416 96.246 296.612C96.358 296.808 96.5167 296.967 96.722 297.088C96.918 297.209 97.156 297.27 97.436 297.27C97.7253 297.27 97.9727 297.209 98.178 297.088C98.3833 296.967 98.542 296.808 98.654 296.612C98.7567 296.416 98.808 296.201 98.808 295.968ZM103.974 295.8C103.974 295.352 103.923 294.965 103.82 294.638C103.717 294.302 103.582 294.045 103.414 293.868C103.246 293.681 103.064 293.588 102.868 293.588C102.597 293.588 102.415 293.705 102.322 293.938C102.238 294.162 102.196 294.507 102.196 294.974V296.066C102.196 296.29 102.187 296.486 102.168 296.654C102.149 296.822 102.126 296.976 102.098 297.116C102.238 297.359 102.383 297.531 102.532 297.634C102.681 297.737 102.835 297.788 102.994 297.788C103.302 297.788 103.54 297.615 103.708 297.27C103.885 296.925 103.974 296.435 103.974 295.8ZM102 290.457H92.116V288.833H94.664L96.134 288.931V288.889C95.8167 288.591 95.5413 288.245 95.308 287.853C95.0747 287.452 94.958 286.99 94.958 286.467C94.958 285.674 95.2007 285.091 95.686 284.717C96.1713 284.344 96.8573 284.157 97.744 284.157H102V285.781H97.954C97.4033 285.781 96.9973 285.879 96.736 286.075C96.4747 286.271 96.344 286.603 96.344 287.069C96.344 287.405 96.4233 287.704 96.582 287.965C96.7407 288.227 96.9833 288.516 97.31 288.833H102V290.457Z" fill="#232A3D"/>
<path d="M160.783 42V28.92H164.903C165.876 28.92 166.743 29.0467 167.503 29.3C168.263 29.5533 168.863 29.9733 169.303 30.56C169.743 31.1467 169.963 31.9467 169.963 32.96C169.963 33.92 169.743 34.7133 169.303 35.34C168.863 35.9667 168.27 36.4333 167.523 36.74C166.776 37.0467 165.93 37.2 164.983 37.2H163.103V42H160.783ZM163.103 35.34H164.803C166.723 35.34 167.683 34.5467 167.683 32.96C167.683 32.1333 167.43 31.5667 166.923 31.26C166.43 30.94 165.696 30.78 164.723 30.78H163.103V35.34ZM172.224 42V32.18H174.124L174.284 33.92H174.364C174.71 33.28 175.13 32.7933 175.624 32.46C176.117 32.1133 176.624 31.94 177.144 31.94C177.61 31.94 177.984 32.0067 178.264 32.14L177.864 34.14C177.69 34.0867 177.53 34.0467 177.384 34.02C177.237 33.9933 177.057 33.98 176.844 33.98C176.457 33.98 176.05 34.1333 175.624 34.44C175.197 34.7333 174.83 35.2533 174.524 36V42H172.224ZM183.689 42.24C182.783 42.24 181.963 42.04 181.229 41.64C180.496 41.2267 179.916 40.64 179.489 39.88C179.063 39.1067 178.849 38.18 178.849 37.1C178.849 36.0333 179.063 35.1133 179.489 34.34C179.929 33.5667 180.496 32.9733 181.189 32.56C181.883 32.1467 182.609 31.94 183.369 31.94C184.263 31.94 185.009 32.14 185.609 32.54C186.209 32.9267 186.663 33.4733 186.969 34.18C187.276 34.8733 187.429 35.68 187.429 36.6C187.429 37.08 187.396 37.4533 187.329 37.72H181.089C181.196 38.5867 181.509 39.26 182.029 39.74C182.549 40.22 183.203 40.46 183.989 40.46C184.416 40.46 184.809 40.4 185.169 40.28C185.543 40.1467 185.909 39.9667 186.269 39.74L187.049 41.18C186.583 41.4867 186.063 41.74 185.489 41.94C184.916 42.14 184.316 42.24 183.689 42.24ZM181.069 36.16H185.429C185.429 35.4 185.263 34.8067 184.929 34.38C184.596 33.94 184.096 33.72 183.429 33.72C182.856 33.72 182.343 33.9333 181.889 34.36C181.449 34.7733 181.176 35.3733 181.069 36.16ZM193.066 42.24C191.839 42.24 190.859 41.7867 190.126 40.88C189.393 39.9733 189.026 38.7133 189.026 37.1C189.026 36.0333 189.219 35.1133 189.606 34.34C190.006 33.5667 190.526 32.9733 191.166 32.56C191.806 32.1467 192.479 31.94 193.186 31.94C193.746 31.94 194.219 32.04 194.606 32.24C195.006 32.4267 195.393 32.6867 195.766 33.02L195.686 31.44V27.88H197.986V42H196.086L195.926 40.94H195.846C195.486 41.3 195.066 41.6067 194.586 41.86C194.106 42.1133 193.599 42.24 193.066 42.24ZM193.626 40.34C194.359 40.34 195.046 39.9733 195.686 39.24V34.66C195.353 34.3533 195.019 34.14 194.686 34.02C194.353 33.9 194.019 33.84 193.686 33.84C193.059 33.84 192.519 34.1267 192.066 34.7C191.626 35.26 191.406 36.0533 191.406 37.08C191.406 38.1333 191.599 38.94 191.986 39.5C192.373 40.06 192.919 40.34 193.626 40.34ZM200.915 42V32.18H203.215V42H200.915ZM202.075 30.46C201.662 30.46 201.328 30.34 201.075 30.1C200.822 29.86 200.695 29.54 200.695 29.14C200.695 28.7533 200.822 28.44 201.075 28.2C201.328 27.96 201.662 27.84 202.075 27.84C202.488 27.84 202.822 27.96 203.075 28.2C203.328 28.44 203.455 28.7533 203.455 29.14C203.455 29.54 203.328 29.86 203.075 30.1C202.822 30.34 202.488 30.46 202.075 30.46ZM210.249 42.24C209.356 42.24 208.549 42.04 207.829 41.64C207.123 41.2267 206.556 40.64 206.129 39.88C205.716 39.1067 205.509 38.18 205.509 37.1C205.509 36.0067 205.736 35.08 206.189 34.32C206.643 33.5467 207.243 32.96 207.989 32.56C208.749 32.1467 209.563 31.94 210.429 31.94C211.056 31.94 211.603 32.0467 212.069 32.26C212.536 32.4733 212.949 32.7333 213.309 33.04L212.189 34.54C211.936 34.3133 211.676 34.14 211.409 34.02C211.143 33.8867 210.856 33.82 210.549 33.82C209.763 33.82 209.116 34.12 208.609 34.72C208.116 35.32 207.869 36.1133 207.869 37.1C207.869 38.0733 208.109 38.86 208.589 39.46C209.083 40.06 209.716 40.36 210.489 40.36C210.876 40.36 211.236 40.28 211.569 40.12C211.916 39.9467 212.229 39.7467 212.509 39.52L213.449 41.04C212.996 41.44 212.489 41.74 211.929 41.94C211.369 42.14 210.809 42.24 210.249 42.24ZM218.652 42.24C217.519 42.24 216.712 41.9133 216.232 41.26C215.766 40.5933 215.532 39.7333 215.532 38.68V34H214.132V32.28L215.652 32.18L215.932 29.5H217.852V32.18H220.352V34H217.852V38.68C217.852 39.8267 218.312 40.4 219.232 40.4C219.406 40.4 219.586 40.38 219.772 40.34C219.959 40.2867 220.119 40.2333 220.252 40.18L220.652 41.88C220.386 41.9733 220.079 42.0533 219.732 42.12C219.399 42.2 219.039 42.24 218.652 42.24ZM226.306 42.24C225.4 42.24 224.58 42.04 223.846 41.64C223.113 41.2267 222.533 40.64 222.106 39.88C221.68 39.1067 221.466 38.18 221.466 37.1C221.466 36.0333 221.68 35.1133 222.106 34.34C222.546 33.5667 223.113 32.9733 223.806 32.56C224.5 32.1467 225.226 31.94 225.986 31.94C226.88 31.94 227.626 32.14 228.226 32.54C228.826 32.9267 229.28 33.4733 229.586 34.18C229.893 34.8733 230.046 35.68 230.046 36.6C230.046 37.08 230.013 37.4533 229.946 37.72H223.706C223.813 38.5867 224.126 39.26 224.646 39.74C225.166 40.22 225.82 40.46 226.606 40.46C227.033 40.46 227.426 40.4 227.786 40.28C228.16 40.1467 228.526 39.9667 228.886 39.74L229.666 41.18C229.2 41.4867 228.68 41.74 228.106 41.94C227.533 42.14 226.933 42.24 226.306 42.24ZM223.686 36.16H228.046C228.046 35.4 227.88 34.8067 227.546 34.38C227.213 33.94 226.713 33.72 226.046 33.72C225.473 33.72 224.96 33.9333 224.506 34.36C224.066 34.7733 223.793 35.3733 223.686 36.16ZM235.683 42.24C234.457 42.24 233.477 41.7867 232.743 40.88C232.01 39.9733 231.643 38.7133 231.643 37.1C231.643 36.0333 231.837 35.1133 232.223 34.34C232.623 33.5667 233.143 32.9733 233.783 32.56C234.423 32.1467 235.097 31.94 235.803 31.94C236.363 31.94 236.837 32.04 237.223 32.24C237.623 32.4267 238.01 32.6867 238.383 33.02L238.303 31.44V27.88H240.603V42H238.703L238.543 40.94H238.463C238.103 41.3 237.683 41.6067 237.203 41.86C236.723 42.1133 236.217 42.24 235.683 42.24ZM236.243 40.34C236.977 40.34 237.663 39.9733 238.303 39.24V34.66C237.97 34.3533 237.637 34.14 237.303 34.02C236.97 33.9 236.637 33.84 236.303 33.84C235.677 33.84 235.137 34.1267 234.683 34.7C234.243 35.26 234.023 36.0533 234.023 37.08C234.023 38.1333 234.217 38.94 234.603 39.5C234.99 40.06 235.537 40.34 236.243 40.34ZM247.736 42V28.92H250.056V40.04H255.496V42H247.736ZM259.955 42.24C259.102 42.24 258.402 41.9733 257.855 41.44C257.322 40.9067 257.055 40.2133 257.055 39.36C257.055 38.3067 257.515 37.4933 258.435 36.92C259.355 36.3333 260.822 35.9333 262.835 35.72C262.822 35.2 262.682 34.7533 262.415 34.38C262.162 33.9933 261.702 33.8 261.035 33.8C260.555 33.8 260.082 33.8933 259.615 34.08C259.162 34.2667 258.715 34.4933 258.275 34.76L257.435 33.22C257.982 32.8733 258.595 32.5733 259.275 32.32C259.969 32.0667 260.702 31.94 261.475 31.94C262.702 31.94 263.615 32.3067 264.215 33.04C264.829 33.76 265.135 34.8067 265.135 36.18V42H263.235L263.075 40.92H262.995C262.555 41.2933 262.082 41.6067 261.575 41.86C261.082 42.1133 260.542 42.24 259.955 42.24ZM260.695 40.44C261.095 40.44 261.455 40.3467 261.775 40.16C262.109 39.96 262.462 39.6933 262.835 39.36V37.16C261.502 37.3333 260.575 37.5933 260.055 37.94C259.535 38.2733 259.275 38.6867 259.275 39.18C259.275 39.62 259.409 39.94 259.675 40.14C259.942 40.34 260.282 40.44 260.695 40.44ZM272.648 42.24C271.714 42.24 270.821 41.8133 269.968 40.96H269.908L269.708 42H267.888V27.88H270.188V31.52L270.128 33.16C270.541 32.8 270.994 32.5067 271.488 32.28C271.981 32.0533 272.474 31.94 272.968 31.94C274.194 31.94 275.148 32.3933 275.828 33.3C276.508 34.2067 276.848 35.4133 276.848 36.92C276.848 38.04 276.648 39 276.248 39.8C275.848 40.5867 275.328 41.1933 274.688 41.62C274.061 42.0333 273.381 42.24 272.648 42.24ZM272.168 40.34C272.821 40.34 273.368 40.0533 273.808 39.48C274.248 38.9067 274.468 38.0667 274.468 36.96C274.468 35.9733 274.301 35.2067 273.968 34.66C273.634 34.1133 273.094 33.84 272.348 33.84C271.654 33.84 270.934 34.2067 270.188 34.94V39.52C270.534 39.8133 270.874 40.0267 271.208 40.16C271.554 40.28 271.874 40.34 272.168 40.34ZM281.397 42.24C280.584 42.24 280.004 41.9933 279.657 41.5C279.324 41.0067 279.157 40.3333 279.157 39.48V27.88H281.457V39.6C281.457 39.88 281.511 40.08 281.617 40.2C281.724 40.3067 281.837 40.36 281.957 40.36C282.011 40.36 282.057 40.36 282.097 40.36C282.151 40.3467 282.224 40.3333 282.317 40.32L282.617 42.04C282.484 42.0933 282.311 42.14 282.097 42.18C281.897 42.22 281.664 42.24 281.397 42.24ZM288.787 42.24C287.88 42.24 287.06 42.04 286.327 41.64C285.594 41.2267 285.014 40.64 284.587 39.88C284.16 39.1067 283.947 38.18 283.947 37.1C283.947 36.0333 284.16 35.1133 284.587 34.34C285.027 33.5667 285.594 32.9733 286.287 32.56C286.98 32.1467 287.707 31.94 288.467 31.94C289.36 31.94 290.107 32.14 290.707 32.54C291.307 32.9267 291.76 33.4733 292.067 34.18C292.374 34.8733 292.527 35.68 292.527 36.6C292.527 37.08 292.494 37.4533 292.427 37.72H286.187C286.294 38.5867 286.607 39.26 287.127 39.74C287.647 40.22 288.3 40.46 289.087 40.46C289.514 40.46 289.907 40.4 290.267 40.28C290.64 40.1467 291.007 39.9667 291.367 39.74L292.147 41.18C291.68 41.4867 291.16 41.74 290.587 41.94C290.014 42.14 289.414 42.24 288.787 42.24ZM286.167 36.16H290.527C290.527 35.4 290.36 34.8067 290.027 34.38C289.694 33.94 289.194 33.72 288.527 33.72C287.954 33.72 287.44 33.9333 286.987 34.36C286.547 34.7733 286.274 35.3733 286.167 36.16ZM297.464 42.24C296.797 42.24 296.13 42.1133 295.464 41.86C294.797 41.5933 294.224 41.2667 293.744 40.88L294.824 39.4C295.264 39.7333 295.704 40 296.144 40.2C296.584 40.4 297.05 40.5 297.544 40.5C298.077 40.5 298.47 40.3867 298.724 40.16C298.977 39.9333 299.104 39.6533 299.104 39.32C299.104 39.04 298.997 38.8133 298.784 38.64C298.584 38.4533 298.324 38.2933 298.004 38.16C297.684 38.0133 297.35 37.8733 297.004 37.74C296.577 37.58 296.15 37.3867 295.724 37.16C295.31 36.92 294.97 36.62 294.704 36.26C294.437 35.8867 294.304 35.4267 294.304 34.88C294.304 34.0133 294.624 33.3067 295.264 32.76C295.904 32.2133 296.77 31.94 297.864 31.94C298.557 31.94 299.177 32.06 299.724 32.3C300.27 32.54 300.744 32.8133 301.144 33.12L300.084 34.52C299.737 34.2667 299.384 34.0667 299.024 33.92C298.677 33.76 298.31 33.68 297.924 33.68C297.43 33.68 297.064 33.7867 296.824 34C296.584 34.2 296.464 34.4533 296.464 34.76C296.464 35.1467 296.664 35.44 297.064 35.64C297.464 35.84 297.93 36.0333 298.464 36.22C298.917 36.38 299.357 36.58 299.784 36.82C300.21 37.0467 300.564 37.3467 300.844 37.72C301.137 38.0933 301.284 38.5867 301.284 39.2C301.284 40.04 300.957 40.76 300.304 41.36C299.65 41.9467 298.704 42.24 297.464 42.24Z" fill="#232A3D"/>
<path d="M44 271.477H32.88V275.257H30.92V265.377H32.88V269.157H44V271.477ZM44 264.278H34.18V262.378L35.92 262.218V262.138C35.28 261.792 34.7933 261.372 34.46 260.878C34.1133 260.385 33.94 259.878 33.94 259.358C33.94 258.892 34.0067 258.518 34.14 258.238L36.14 258.638C36.0867 258.812 36.0467 258.972 36.02 259.118C35.9933 259.265 35.98 259.445 35.98 259.658C35.98 260.045 36.1333 260.452 36.44 260.878C36.7333 261.305 37.2533 261.672 38 261.978H44V264.278ZM44.24 253.897C44.24 254.951 43.9 255.717 43.22 256.197C42.54 256.677 41.58 256.917 40.34 256.917H34.18V254.617H40.04C40.8533 254.617 41.4267 254.497 41.76 254.257C42.0933 254.017 42.26 253.631 42.26 253.097C42.26 252.671 42.1533 252.297 41.94 251.977C41.7267 251.644 41.38 251.291 40.9 250.917H34.18V248.617H44V250.497L42.56 250.677V250.737C43.0667 251.164 43.4733 251.631 43.78 252.137C44.0867 252.644 44.24 253.231 44.24 253.897ZM44.24 241.504C44.24 242.411 44.04 243.231 43.64 243.964C43.2267 244.697 42.64 245.277 41.88 245.704C41.1067 246.131 40.18 246.344 39.1 246.344C38.0333 246.344 37.1133 246.131 36.34 245.704C35.5667 245.264 34.9733 244.697 34.56 244.004C34.1467 243.311 33.94 242.584 33.94 241.824C33.94 240.931 34.14 240.184 34.54 239.584C34.9267 238.984 35.4733 238.531 36.18 238.224C36.8733 237.917 37.68 237.764 38.6 237.764C39.08 237.764 39.4533 237.797 39.72 237.864V244.104C40.5867 243.997 41.26 243.684 41.74 243.164C42.22 242.644 42.46 241.991 42.46 241.204C42.46 240.777 42.4 240.384 42.28 240.024C42.1467 239.651 41.9667 239.284 41.74 238.924L43.18 238.144C43.4867 238.611 43.74 239.131 43.94 239.704C44.14 240.277 44.24 240.877 44.24 241.504ZM38.16 244.124V239.764C37.4 239.764 36.8067 239.931 36.38 240.264C35.94 240.597 35.72 241.097 35.72 241.764C35.72 242.337 35.9333 242.851 36.36 243.304C36.7733 243.744 37.3733 244.017 38.16 244.124ZM44 231.363H30.92V229.043H42.04V223.603H44V231.363ZM44.24 219.144C44.24 219.998 43.9733 220.698 43.44 221.244C42.9067 221.778 42.2133 222.044 41.36 222.044C40.3067 222.044 39.4933 221.584 38.92 220.664C38.3333 219.744 37.9333 218.278 37.72 216.264C37.2 216.278 36.7533 216.418 36.38 216.684C35.9933 216.938 35.8 217.398 35.8 218.064C35.8 218.544 35.8933 219.018 36.08 219.484C36.2667 219.938 36.4933 220.384 36.76 220.824L35.22 221.664C34.8733 221.118 34.5733 220.504 34.32 219.824C34.0667 219.131 33.94 218.398 33.94 217.624C33.94 216.398 34.3067 215.484 35.04 214.884C35.76 214.271 36.8067 213.964 38.18 213.964H44V215.864L42.92 216.024V216.104C43.2933 216.544 43.6067 217.018 43.86 217.524C44.1133 218.018 44.24 218.558 44.24 219.144ZM42.44 218.404C42.44 218.004 42.3467 217.644 42.16 217.324C41.96 216.991 41.6933 216.638 41.36 216.264H39.16C39.3333 217.598 39.5933 218.524 39.94 219.044C40.2733 219.564 40.6867 219.824 41.18 219.824C41.62 219.824 41.94 219.691 42.14 219.424C42.34 219.158 42.44 218.818 42.44 218.404ZM44.24 206.452C44.24 207.385 43.8133 208.279 42.96 209.132V209.192L44 209.392V211.212H29.88V208.912H33.52L35.16 208.972C34.8 208.559 34.5067 208.105 34.28 207.612C34.0533 207.119 33.94 206.625 33.94 206.132C33.94 204.905 34.3933 203.952 35.3 203.272C36.2067 202.592 37.4133 202.252 38.92 202.252C40.04 202.252 41 202.452 41.8 202.852C42.5867 203.252 43.1933 203.772 43.62 204.412C44.0333 205.039 44.24 205.719 44.24 206.452ZM42.34 206.932C42.34 206.279 42.0533 205.732 41.48 205.292C40.9067 204.852 40.0667 204.632 38.96 204.632C37.9733 204.632 37.2067 204.799 36.66 205.132C36.1133 205.465 35.84 206.005 35.84 206.752C35.84 207.445 36.2067 208.165 36.94 208.912H41.52C41.8133 208.565 42.0267 208.225 42.16 207.892C42.28 207.545 42.34 207.225 42.34 206.932ZM44.24 197.702C44.24 198.516 43.9933 199.096 43.5 199.442C43.0067 199.776 42.3333 199.942 41.48 199.942H29.88V197.642H41.6C41.88 197.642 42.08 197.589 42.2 197.482C42.3067 197.376 42.36 197.262 42.36 197.142C42.36 197.089 42.36 197.042 42.36 197.002C42.3467 196.949 42.3333 196.876 42.32 196.782L44.04 196.482C44.0933 196.616 44.14 196.789 44.18 197.002C44.22 197.202 44.24 197.436 44.24 197.702ZM44.24 190.313C44.24 191.219 44.04 192.039 43.64 192.773C43.2267 193.506 42.64 194.086 41.88 194.513C41.1067 194.939 40.18 195.153 39.1 195.153C38.0333 195.153 37.1133 194.939 36.34 194.513C35.5667 194.073 34.9733 193.506 34.56 192.813C34.1467 192.119 33.94 191.393 33.94 190.633C33.94 189.739 34.14 188.993 34.54 188.393C34.9267 187.793 35.4733 187.339 36.18 187.033C36.8733 186.726 37.68 186.573 38.6 186.573C39.08 186.573 39.4533 186.606 39.72 186.673L39.72 192.913C40.5867 192.806 41.26 192.493 41.74 191.973C42.22 191.453 42.46 190.799 42.46 190.013C42.46 189.586 42.4 189.193 42.28 188.833C42.1467 188.459 41.9667 188.093 41.74 187.733L43.18 186.953C43.4867 187.419 43.74 187.939 43.94 188.513C44.14 189.086 44.24 189.686 44.24 190.313ZM38.16 192.933V188.573C37.4 188.573 36.8067 188.739 36.38 189.073C35.94 189.406 35.72 189.906 35.72 190.573C35.72 191.146 35.9333 191.659 36.36 192.113C36.7733 192.553 37.3733 192.826 38.16 192.933ZM44.24 181.636C44.24 182.303 44.1133 182.969 43.86 183.636C43.5933 184.303 43.2667 184.876 42.88 185.356L41.4 184.276C41.7333 183.836 42 183.396 42.2 182.956C42.4 182.516 42.5 182.049 42.5 181.556C42.5 181.023 42.3867 180.629 42.16 180.376C41.9333 180.123 41.6533 179.996 41.32 179.996C41.04 179.996 40.8133 180.103 40.64 180.316C40.4533 180.516 40.2933 180.776 40.16 181.096C40.0133 181.416 39.8733 181.749 39.74 182.096C39.58 182.523 39.3867 182.949 39.16 183.376C38.92 183.789 38.62 184.129 38.26 184.396C37.8867 184.663 37.4267 184.796 36.88 184.796C36.0133 184.796 35.3067 184.476 34.76 183.836C34.2133 183.196 33.94 182.329 33.94 181.236C33.94 180.543 34.06 179.923 34.3 179.376C34.54 178.829 34.8133 178.356 35.12 177.956L36.52 179.016C36.2667 179.363 36.0667 179.716 35.92 180.076C35.76 180.423 35.68 180.789 35.68 181.176C35.68 181.669 35.7867 182.036 36 182.276C36.2 182.516 36.4533 182.636 36.76 182.636C37.1467 182.636 37.44 182.436 37.64 182.036C37.84 181.636 38.0333 181.169 38.22 180.636C38.38 180.183 38.58 179.743 38.82 179.316C39.0467 178.889 39.3467 178.536 39.72 178.256C40.0933 177.963 40.5867 177.816 41.2 177.816C42.04 177.816 42.76 178.143 43.36 178.796C43.9467 179.449 44.24 180.396 44.24 181.636Z" fill="#232A3D"/>
<rect x="191" y="112" width="152" height="76" fill="#9B51E0" fill-opacity="0.2"/>
<rect x="115" y="266" width="152" height="76" fill="#9B51E0" fill-opacity="0.2"/>
<rect x="116" y="188" width="75" height="76" fill="#9B51E0" fill-opacity="0.2"/>
<rect x="267" y="189" width="75" height="76" fill="#9B51E0" fill-opacity="0.2"/>
<rect x="192" y="188" width="76" height="76" fill="#1F69FF" fill-opacity="0.6"/>
<rect x="116" y="113" width="76" height="75" fill="#1F69FF" fill-opacity="0.6"/>
<rect x="268" y="265" width="76" height="75" fill="#1F69FF" fill-opacity="0.6"/>
<path d="M191 112V341" stroke="#232A3D" stroke-width="3"/>
<path d="M268 112V341" stroke="#232A3D" stroke-width="3"/>
<rect x="115.5" y="113.5" width="228" height="226" stroke="#232A3D" stroke-width="3"/>
</svg>
