<svg width="600" height="369" viewBox="0 0 600 369" fill="none" xmlns="http://www.w3.org/2000/svg">
<rect width="600" height="369" fill="white"/>
<rect x="303.5" y="16.5" width="284" height="46" stroke="#232A3D"/>
<rect x="186" y="92" width="28" height="28" fill="url(#paint0_linear_1_4)"/>
<rect x="315" y="25" width="28" height="28" fill="url(#paint1_linear_1_4)"/>
<rect x="185" y="141" width="28" height="28" fill="url(#paint2_linear_1_4)"/>
<rect x="185" y="190" width="28" height="28" fill="url(#paint3_linear_1_4)"/>
<rect x="185" y="314" width="28" height="28" fill="url(#paint4_linear_1_4)"/>
<rect x="219" y="92" width="28" height="28" fill="url(#paint5_linear_1_4)"/>
<rect x="219" y="141" width="28" height="28" fill="url(#paint6_linear_1_4)"/>
<rect x="219" y="190" width="28" height="28" fill="url(#paint7_linear_1_4)"/>
<rect x="219" y="314" width="28" height="28" fill="url(#paint8_linear_1_4)"/>
<rect x="253" y="92" width="28" height="28" fill="url(#paint9_linear_1_4)"/>
<rect x="253" y="141" width="28" height="28" fill="url(#paint10_linear_1_4)"/>
<rect x="253" y="190" width="28" height="28" fill="url(#paint11_linear_1_4)"/>
<rect x="253" y="314" width="28" height="28" fill="url(#paint12_linear_1_4)"/>
<rect x="389" y="92" width="28" height="28" fill="url(#paint13_linear_1_4)"/>
<rect x="389" y="141" width="28" height="28" fill="url(#paint14_linear_1_4)"/>
<rect x="389" y="190" width="28" height="28" fill="url(#paint15_linear_1_4)"/>
<rect x="389" y="314" width="28" height="28" fill="url(#paint16_linear_1_4)"/>
<rect x="287" y="92" width="28" height="28" fill="url(#paint17_linear_1_4)"/>
<rect x="445" y="25" width="28" height="28" fill="url(#paint18_linear_1_4)"/>
<path d="M356.44 44V35.104H353.416V33.536H361.32V35.104H358.296V44H356.44ZM365.122 44.192C364.396 44.192 363.74 44.032 363.154 43.712C362.567 43.3813 362.103 42.912 361.762 42.304C361.42 41.6853 361.25 40.944 361.25 40.08C361.25 39.2267 361.42 38.4907 361.762 37.872C362.114 37.2533 362.567 36.7787 363.122 36.448C363.676 36.1173 364.258 35.952 364.866 35.952C365.58 35.952 366.178 36.112 366.658 36.432C367.138 36.7413 367.5 37.1787 367.746 37.744C367.991 38.2987 368.114 38.944 368.114 39.68C368.114 40.064 368.087 40.3627 368.034 40.576H363.042C363.127 41.2693 363.378 41.808 363.794 42.192C364.21 42.576 364.732 42.768 365.362 42.768C365.703 42.768 366.018 42.72 366.306 42.624C366.604 42.5173 366.898 42.3733 367.186 42.192L367.81 43.344C367.436 43.5893 367.02 43.792 366.562 43.952C366.103 44.112 365.623 44.192 365.122 44.192ZM363.026 39.328H366.514C366.514 38.72 366.38 38.2453 366.114 37.904C365.847 37.552 365.447 37.376 364.914 37.376C364.455 37.376 364.044 37.5467 363.682 37.888C363.33 38.2187 363.111 38.6987 363.026 39.328ZM372.063 44.192C371.53 44.192 370.996 44.0907 370.463 43.888C369.93 43.6747 369.471 43.4133 369.087 43.104L369.951 41.92C370.303 42.1867 370.655 42.4 371.007 42.56C371.359 42.72 371.732 42.8 372.127 42.8C372.554 42.8 372.868 42.7093 373.071 42.528C373.274 42.3467 373.375 42.1227 373.375 41.856C373.375 41.632 373.29 41.4507 373.119 41.312C372.959 41.1627 372.751 41.0347 372.495 40.928C372.239 40.8107 371.972 40.6987 371.695 40.592C371.354 40.464 371.012 40.3093 370.671 40.128C370.34 39.936 370.068 39.696 369.855 39.408C369.642 39.1093 369.535 38.7413 369.535 38.304C369.535 37.6107 369.791 37.0453 370.303 36.608C370.815 36.1707 371.508 35.952 372.383 35.952C372.938 35.952 373.434 36.048 373.871 36.24C374.308 36.432 374.687 36.6507 375.007 36.896L374.159 38.016C373.882 37.8133 373.599 37.6533 373.311 37.536C373.034 37.408 372.74 37.344 372.431 37.344C372.036 37.344 371.743 37.4293 371.551 37.6C371.359 37.76 371.263 37.9627 371.263 38.208C371.263 38.5173 371.423 38.752 371.743 38.912C372.063 39.072 372.436 39.2267 372.863 39.376C373.226 39.504 373.578 39.664 373.919 39.856C374.26 40.0373 374.543 40.2773 374.767 40.576C375.002 40.8747 375.119 41.2693 375.119 41.76C375.119 42.432 374.858 43.008 374.335 43.488C373.812 43.9573 373.055 44.192 372.063 44.192ZM379.217 44.192C378.311 44.192 377.665 43.9307 377.281 43.408C376.908 42.8747 376.721 42.1867 376.721 41.344V37.6H375.601V36.224L376.817 36.144L377.041 34H378.577V36.144H380.577V37.6H378.577V41.344C378.577 42.2613 378.945 42.72 379.681 42.72C379.82 42.72 379.964 42.704 380.113 42.672C380.263 42.6293 380.391 42.5867 380.497 42.544L380.817 43.904C380.604 43.9787 380.359 44.0427 380.081 44.096C379.815 44.16 379.527 44.192 379.217 44.192ZM388.186 44.192C387.204 44.192 386.42 43.8293 385.834 43.104C385.247 42.3787 384.954 41.3707 384.954 40.08C384.954 39.2267 385.108 38.4907 385.418 37.872C385.738 37.2533 386.154 36.7787 386.666 36.448C387.178 36.1173 387.716 35.952 388.282 35.952C388.73 35.952 389.108 36.032 389.418 36.192C389.738 36.3413 390.047 36.5493 390.346 36.816L390.282 35.552V32.704H392.122V44H390.602L390.474 43.152H390.41C390.122 43.44 389.786 43.6853 389.402 43.888C389.018 44.0907 388.612 44.192 388.186 44.192ZM388.634 42.672C389.22 42.672 389.77 42.3787 390.282 41.792V38.128C390.015 37.8827 389.748 37.712 389.482 37.616C389.215 37.52 388.948 37.472 388.682 37.472C388.18 37.472 387.748 37.7013 387.386 38.16C387.034 38.608 386.858 39.2427 386.858 40.064C386.858 40.9067 387.012 41.552 387.322 42C387.631 42.448 388.068 42.672 388.634 42.672ZM396.369 44.192C395.686 44.192 395.126 43.9787 394.689 43.552C394.262 43.1253 394.049 42.5707 394.049 41.888C394.049 41.0453 394.417 40.3947 395.153 39.936C395.889 39.4667 397.062 39.1467 398.673 38.976C398.662 38.56 398.55 38.2027 398.337 37.904C398.134 37.5947 397.766 37.44 397.233 37.44C396.849 37.44 396.47 37.5147 396.097 37.664C395.734 37.8133 395.377 37.9947 395.025 38.208L394.353 36.976C394.79 36.6987 395.281 36.4587 395.825 36.256C396.38 36.0533 396.966 35.952 397.585 35.952C398.566 35.952 399.297 36.2453 399.777 36.832C400.268 37.408 400.513 38.2453 400.513 39.344V44H398.993L398.865 43.136H398.801C398.449 43.4347 398.07 43.6853 397.665 43.888C397.27 44.0907 396.838 44.192 396.369 44.192ZM396.961 42.752C397.281 42.752 397.569 42.6773 397.825 42.528C398.092 42.368 398.374 42.1547 398.673 41.888V40.128C397.606 40.2667 396.865 40.4747 396.449 40.752C396.033 41.0187 395.825 41.3493 395.825 41.744C395.825 42.096 395.932 42.352 396.145 42.512C396.358 42.672 396.63 42.752 396.961 42.752ZM405.233 44.192C404.326 44.192 403.681 43.9307 403.297 43.408C402.924 42.8747 402.737 42.1867 402.737 41.344V37.6H401.617V36.224L402.833 36.144L403.057 34H404.593V36.144H406.593V37.6H404.593V41.344C404.593 42.2613 404.961 42.72 405.697 42.72C405.836 42.72 405.98 42.704 406.129 42.672C406.278 42.6293 406.406 42.5867 406.513 42.544L406.833 43.904C406.62 43.9787 406.374 44.0427 406.097 44.096C405.83 44.16 405.542 44.192 405.233 44.192ZM409.806 44.192C409.124 44.192 408.564 43.9787 408.126 43.552C407.7 43.1253 407.486 42.5707 407.486 41.888C407.486 41.0453 407.854 40.3947 408.59 39.936C409.326 39.4667 410.5 39.1467 412.11 38.976C412.1 38.56 411.988 38.2027 411.774 37.904C411.572 37.5947 411.204 37.44 410.67 37.44C410.286 37.44 409.908 37.5147 409.534 37.664C409.172 37.8133 408.814 37.9947 408.462 38.208L407.79 36.976C408.228 36.6987 408.718 36.4587 409.262 36.256C409.817 36.0533 410.404 35.952 411.022 35.952C412.004 35.952 412.734 36.2453 413.214 36.832C413.705 37.408 413.95 38.2453 413.95 39.344V44H412.43L412.302 43.136H412.238C411.886 43.4347 411.508 43.6853 411.102 43.888C410.708 44.0907 410.276 44.192 409.806 44.192ZM410.398 42.752C410.718 42.752 411.006 42.6773 411.262 42.528C411.529 42.368 411.812 42.1547 412.11 41.888V40.128C411.044 40.2667 410.302 40.4747 409.886 40.752C409.47 41.0187 409.262 41.3493 409.262 41.744C409.262 42.096 409.369 42.352 409.582 42.512C409.796 42.672 410.068 42.752 410.398 42.752Z" fill="#232A3D"/>
<path d="M38.328 111V100.536H40.184V111H38.328ZM45.4516 111.192C44.545 111.192 43.8996 110.931 43.5156 110.408C43.1423 109.875 42.9556 109.187 42.9556 108.344V104.6H41.8356V103.224L43.0516 103.144L43.2756 101H44.8116V103.144H46.8116V104.6H44.8116V108.344C44.8116 109.261 45.1796 109.72 45.9156 109.72C46.0543 109.72 46.1983 109.704 46.3476 109.672C46.497 109.629 46.625 109.587 46.7316 109.544L47.0516 110.904C46.8383 110.979 46.593 111.043 46.3156 111.096C46.049 111.16 45.761 111.192 45.4516 111.192ZM51.5749 111.192C50.8495 111.192 50.1935 111.032 49.6069 110.712C49.0202 110.381 48.5562 109.912 48.2149 109.304C47.8735 108.685 47.7029 107.944 47.7029 107.08C47.7029 106.227 47.8735 105.491 48.2149 104.872C48.5669 104.253 49.0202 103.779 49.5749 103.448C50.1295 103.117 50.7109 102.952 51.3189 102.952C52.0335 102.952 52.6309 103.112 53.1109 103.432C53.5909 103.741 53.9535 104.179 54.1989 104.744C54.4442 105.299 54.5669 105.944 54.5669 106.68C54.5669 107.064 54.5402 107.363 54.4869 107.576H49.4949C49.5802 108.269 49.8309 108.808 50.2469 109.192C50.6629 109.576 51.1855 109.768 51.8149 109.768C52.1562 109.768 52.4709 109.72 52.7589 109.624C53.0575 109.517 53.3509 109.373 53.6389 109.192L54.2629 110.344C53.8895 110.589 53.4735 110.792 53.0149 110.952C52.5562 111.112 52.0762 111.192 51.5749 111.192ZM49.4789 106.328H52.9669C52.9669 105.72 52.8335 105.245 52.5669 104.904C52.3002 104.552 51.9002 104.376 51.3669 104.376C50.9082 104.376 50.4975 104.547 50.1349 104.888C49.7829 105.219 49.5642 105.699 49.4789 106.328ZM56.3243 111V103.144H57.8443L57.9723 104.536H58.0363C58.3136 104.024 58.6496 103.635 59.0443 103.368C59.4389 103.091 59.8443 102.952 60.2603 102.952C60.6336 102.952 60.9323 103.005 61.1563 103.112L60.8363 104.712C60.6976 104.669 60.5696 104.637 60.4523 104.616C60.3349 104.595 60.1909 104.584 60.0203 104.584C59.7109 104.584 59.3856 104.707 59.0443 104.952C58.7029 105.187 58.4096 105.603 58.1643 106.2V111H56.3243ZM63.7751 111.192C63.0925 111.192 62.5325 110.979 62.0951 110.552C61.6685 110.125 61.4551 109.571 61.4551 108.888C61.4551 108.045 61.8231 107.395 62.5591 106.936C63.2951 106.467 64.4685 106.147 66.0791 105.976C66.0685 105.56 65.9565 105.203 65.7431 104.904C65.5405 104.595 65.1725 104.44 64.6391 104.44C64.2551 104.44 63.8765 104.515 63.5031 104.664C63.1405 104.813 62.7831 104.995 62.4311 105.208L61.7591 103.976C62.1965 103.699 62.6871 103.459 63.2311 103.256C63.7858 103.053 64.3725 102.952 64.9911 102.952C65.9725 102.952 66.7031 103.245 67.1831 103.832C67.6738 104.408 67.9191 105.245 67.9191 106.344V111H66.3991L66.2711 110.136H66.2071C65.8551 110.435 65.4765 110.685 65.0711 110.888C64.6765 111.091 64.2445 111.192 63.7751 111.192ZM64.3671 109.752C64.6871 109.752 64.9751 109.677 65.2311 109.528C65.4978 109.368 65.7805 109.155 66.0791 108.888V107.128C65.0125 107.267 64.2711 107.475 63.8551 107.752C63.4391 108.019 63.2311 108.349 63.2311 108.744C63.2311 109.096 63.3378 109.352 63.5511 109.512C63.7645 109.672 64.0365 109.752 64.3671 109.752ZM72.6391 111.192C71.7325 111.192 71.0871 110.931 70.7031 110.408C70.3298 109.875 70.1431 109.187 70.1431 108.344V104.6H69.0231V103.224L70.2391 103.144L70.4631 101H71.9991V103.144H73.9991V104.6H71.9991V108.344C71.9991 109.261 72.3671 109.72 73.1031 109.72C73.2418 109.72 73.3858 109.704 73.5351 109.672C73.6845 109.629 73.8125 109.587 73.9191 109.544L74.2391 110.904C74.0258 110.979 73.7805 111.043 73.5031 111.096C73.2365 111.16 72.9485 111.192 72.6391 111.192ZM75.6524 111V103.144H77.4924V111H75.6524ZM76.5804 101.768C76.2497 101.768 75.983 101.672 75.7804 101.48C75.5777 101.288 75.4764 101.032 75.4764 100.712C75.4764 100.403 75.5777 100.152 75.7804 99.96C75.983 99.768 76.2497 99.672 76.5804 99.672C76.911 99.672 77.1777 99.768 77.3804 99.96C77.583 100.152 77.6844 100.403 77.6844 100.712C77.6844 101.032 77.583 101.288 77.3804 101.48C77.1777 101.672 76.911 101.768 76.5804 101.768ZM83.0559 111.192C82.4052 111.192 81.7972 111.032 81.2319 110.712C80.6665 110.381 80.2079 109.912 79.8559 109.304C79.5039 108.685 79.3279 107.944 79.3279 107.08C79.3279 106.205 79.5039 105.464 79.8559 104.856C80.2079 104.237 80.6665 103.768 81.2319 103.448C81.7972 103.117 82.4052 102.952 83.0559 102.952C83.7172 102.952 84.3305 103.117 84.8959 103.448C85.4612 103.768 85.9199 104.237 86.2719 104.856C86.6239 105.464 86.7999 106.205 86.7999 107.08C86.7999 107.944 86.6239 108.685 86.2719 109.304C85.9199 109.912 85.4612 110.381 84.8959 110.712C84.3305 111.032 83.7172 111.192 83.0559 111.192ZM83.0559 109.688C83.6319 109.688 84.0852 109.448 84.4159 108.968C84.7465 108.488 84.9119 107.859 84.9119 107.08C84.9119 106.291 84.7465 105.656 84.4159 105.176C84.0852 104.696 83.6319 104.456 83.0559 104.456C82.4799 104.456 82.0265 104.696 81.6959 105.176C81.3759 105.656 81.2159 106.291 81.2159 107.08C81.2159 107.859 81.3759 108.488 81.6959 108.968C82.0265 109.448 82.4799 109.688 83.0559 109.688ZM88.6211 111V103.144H90.1411L90.2691 104.2H90.3331C90.6851 103.859 91.0691 103.565 91.4851 103.32C91.9011 103.075 92.3758 102.952 92.9091 102.952C93.7518 102.952 94.3651 103.224 94.7491 103.768C95.1331 104.312 95.3251 105.08 95.3251 106.072V111H93.4851V106.312C93.4851 105.661 93.3891 105.203 93.1971 104.936C93.0051 104.669 92.6905 104.536 92.2531 104.536C91.9118 104.536 91.6078 104.621 91.3411 104.792C91.0851 104.952 90.7918 105.192 90.4611 105.512V111H88.6211ZM100.793 111V109.496H103.065V102.808H101.193V101.656C101.695 101.56 102.132 101.448 102.505 101.32C102.879 101.181 103.225 101.016 103.545 100.824H104.921V109.496H106.921V111H100.793Z" fill="#232A3D"/>
<path d="M38.328 160V149.536H40.184V160H38.328ZM45.4516 160.192C44.545 160.192 43.8996 159.931 43.5156 159.408C43.1423 158.875 42.9556 158.187 42.9556 157.344V153.6H41.8356V152.224L43.0516 152.144L43.2756 150H44.8116V152.144H46.8116V153.6H44.8116V157.344C44.8116 158.261 45.1796 158.72 45.9156 158.72C46.0543 158.72 46.1983 158.704 46.3476 158.672C46.497 158.629 46.625 158.587 46.7316 158.544L47.0516 159.904C46.8383 159.979 46.593 160.043 46.3156 160.096C46.049 160.16 45.761 160.192 45.4516 160.192ZM51.5749 160.192C50.8495 160.192 50.1935 160.032 49.6069 159.712C49.0202 159.381 48.5562 158.912 48.2149 158.304C47.8735 157.685 47.7029 156.944 47.7029 156.08C47.7029 155.227 47.8735 154.491 48.2149 153.872C48.5669 153.253 49.0202 152.779 49.5749 152.448C50.1295 152.117 50.7109 151.952 51.3189 151.952C52.0335 151.952 52.6309 152.112 53.1109 152.432C53.5909 152.741 53.9535 153.179 54.1989 153.744C54.4442 154.299 54.5669 154.944 54.5669 155.68C54.5669 156.064 54.5402 156.363 54.4869 156.576H49.4949C49.5802 157.269 49.8309 157.808 50.2469 158.192C50.6629 158.576 51.1855 158.768 51.8149 158.768C52.1562 158.768 52.4709 158.72 52.7589 158.624C53.0575 158.517 53.3509 158.373 53.6389 158.192L54.2629 159.344C53.8895 159.589 53.4735 159.792 53.0149 159.952C52.5562 160.112 52.0762 160.192 51.5749 160.192ZM49.4789 155.328H52.9669C52.9669 154.72 52.8335 154.245 52.5669 153.904C52.3002 153.552 51.9002 153.376 51.3669 153.376C50.9082 153.376 50.4975 153.547 50.1349 153.888C49.7829 154.219 49.5642 154.699 49.4789 155.328ZM56.3243 160V152.144H57.8443L57.9723 153.536H58.0363C58.3136 153.024 58.6496 152.635 59.0443 152.368C59.4389 152.091 59.8443 151.952 60.2603 151.952C60.6336 151.952 60.9323 152.005 61.1563 152.112L60.8363 153.712C60.6976 153.669 60.5696 153.637 60.4523 153.616C60.3349 153.595 60.1909 153.584 60.0203 153.584C59.7109 153.584 59.3856 153.707 59.0443 153.952C58.7029 154.187 58.4096 154.603 58.1643 155.2V160H56.3243ZM63.7751 160.192C63.0925 160.192 62.5325 159.979 62.0951 159.552C61.6685 159.125 61.4551 158.571 61.4551 157.888C61.4551 157.045 61.8231 156.395 62.5591 155.936C63.2951 155.467 64.4685 155.147 66.0791 154.976C66.0685 154.56 65.9565 154.203 65.7431 153.904C65.5405 153.595 65.1725 153.44 64.6391 153.44C64.2551 153.44 63.8765 153.515 63.5031 153.664C63.1405 153.813 62.7831 153.995 62.4311 154.208L61.7591 152.976C62.1965 152.699 62.6871 152.459 63.2311 152.256C63.7858 152.053 64.3725 151.952 64.9911 151.952C65.9725 151.952 66.7031 152.245 67.1831 152.832C67.6738 153.408 67.9191 154.245 67.9191 155.344V160H66.3991L66.2711 159.136H66.2071C65.8551 159.435 65.4765 159.685 65.0711 159.888C64.6765 160.091 64.2445 160.192 63.7751 160.192ZM64.3671 158.752C64.6871 158.752 64.9751 158.677 65.2311 158.528C65.4978 158.368 65.7805 158.155 66.0791 157.888V156.128C65.0125 156.267 64.2711 156.475 63.8551 156.752C63.4391 157.019 63.2311 157.349 63.2311 157.744C63.2311 158.096 63.3378 158.352 63.5511 158.512C63.7645 158.672 64.0365 158.752 64.3671 158.752ZM72.6391 160.192C71.7325 160.192 71.0871 159.931 70.7031 159.408C70.3298 158.875 70.1431 158.187 70.1431 157.344V153.6H69.0231V152.224L70.2391 152.144L70.4631 150H71.9991V152.144H73.9991V153.6H71.9991V157.344C71.9991 158.261 72.3671 158.72 73.1031 158.72C73.2418 158.72 73.3858 158.704 73.5351 158.672C73.6845 158.629 73.8125 158.587 73.9191 158.544L74.2391 159.904C74.0258 159.979 73.7805 160.043 73.5031 160.096C73.2365 160.16 72.9485 160.192 72.6391 160.192ZM75.6524 160V152.144H77.4924V160H75.6524ZM76.5804 150.768C76.2497 150.768 75.983 150.672 75.7804 150.48C75.5777 150.288 75.4764 150.032 75.4764 149.712C75.4764 149.403 75.5777 149.152 75.7804 148.96C75.983 148.768 76.2497 148.672 76.5804 148.672C76.911 148.672 77.1777 148.768 77.3804 148.96C77.583 149.152 77.6844 149.403 77.6844 149.712C77.6844 150.032 77.583 150.288 77.3804 150.48C77.1777 150.672 76.911 150.768 76.5804 150.768ZM83.0559 160.192C82.4052 160.192 81.7972 160.032 81.2319 159.712C80.6665 159.381 80.2079 158.912 79.8559 158.304C79.5039 157.685 79.3279 156.944 79.3279 156.08C79.3279 155.205 79.5039 154.464 79.8559 153.856C80.2079 153.237 80.6665 152.768 81.2319 152.448C81.7972 152.117 82.4052 151.952 83.0559 151.952C83.7172 151.952 84.3305 152.117 84.8959 152.448C85.4612 152.768 85.9199 153.237 86.2719 153.856C86.6239 154.464 86.7999 155.205 86.7999 156.08C86.7999 156.944 86.6239 157.685 86.2719 158.304C85.9199 158.912 85.4612 159.381 84.8959 159.712C84.3305 160.032 83.7172 160.192 83.0559 160.192ZM83.0559 158.688C83.6319 158.688 84.0852 158.448 84.4159 157.968C84.7465 157.488 84.9119 156.859 84.9119 156.08C84.9119 155.291 84.7465 154.656 84.4159 154.176C84.0852 153.696 83.6319 153.456 83.0559 153.456C82.4799 153.456 82.0265 153.696 81.6959 154.176C81.3759 154.656 81.2159 155.291 81.2159 156.08C81.2159 156.859 81.3759 157.488 81.6959 157.968C82.0265 158.448 82.4799 158.688 83.0559 158.688ZM88.6211 160V152.144H90.1411L90.2691 153.2H90.3331C90.6851 152.859 91.0691 152.565 91.4851 152.32C91.9011 152.075 92.3758 151.952 92.9091 151.952C93.7518 151.952 94.3651 152.224 94.7491 152.768C95.1331 153.312 95.3251 154.08 95.3251 155.072V160H93.4851V155.312C93.4851 154.661 93.3891 154.203 93.1971 153.936C93.0051 153.669 92.6905 153.536 92.2531 153.536C91.9118 153.536 91.6078 153.621 91.3411 153.792C91.0851 153.952 90.7918 154.192 90.4611 154.512V160H88.6211ZM100.217 160V158.928C101.167 158.011 101.983 157.195 102.665 156.48C103.359 155.755 103.892 155.099 104.265 154.512C104.639 153.915 104.825 153.36 104.825 152.848C104.825 152.315 104.681 151.888 104.393 151.568C104.105 151.248 103.689 151.088 103.145 151.088C102.751 151.088 102.388 151.2 102.057 151.424C101.737 151.648 101.439 151.915 101.161 152.224L100.137 151.2C100.607 150.699 101.092 150.315 101.593 150.048C102.095 149.771 102.692 149.632 103.385 149.632C104.367 149.632 105.145 149.915 105.721 150.48C106.308 151.045 106.601 151.803 106.601 152.752C106.601 153.349 106.431 153.963 106.089 154.592C105.759 155.211 105.311 155.845 104.745 156.496C104.191 157.147 103.577 157.829 102.905 158.544C103.172 158.523 103.46 158.501 103.769 158.48C104.079 158.448 104.356 158.432 104.601 158.432H107.097V160H100.217Z" fill="#232A3D"/>
<path d="M38.328 209V198.536H40.184V209H38.328ZM45.4516 209.192C44.545 209.192 43.8996 208.931 43.5156 208.408C43.1423 207.875 42.9556 207.187 42.9556 206.344V202.6H41.8356V201.224L43.0516 201.144L43.2756 199H44.8116V201.144H46.8116V202.6H44.8116V206.344C44.8116 207.261 45.1796 207.72 45.9156 207.72C46.0543 207.72 46.1983 207.704 46.3476 207.672C46.497 207.629 46.625 207.587 46.7316 207.544L47.0516 208.904C46.8383 208.979 46.593 209.043 46.3156 209.096C46.049 209.16 45.761 209.192 45.4516 209.192ZM51.5749 209.192C50.8495 209.192 50.1935 209.032 49.6069 208.712C49.0202 208.381 48.5562 207.912 48.2149 207.304C47.8735 206.685 47.7029 205.944 47.7029 205.08C47.7029 204.227 47.8735 203.491 48.2149 202.872C48.5669 202.253 49.0202 201.779 49.5749 201.448C50.1295 201.117 50.7109 200.952 51.3189 200.952C52.0335 200.952 52.6309 201.112 53.1109 201.432C53.5909 201.741 53.9535 202.179 54.1989 202.744C54.4442 203.299 54.5669 203.944 54.5669 204.68C54.5669 205.064 54.5402 205.363 54.4869 205.576H49.4949C49.5802 206.269 49.8309 206.808 50.2469 207.192C50.6629 207.576 51.1855 207.768 51.8149 207.768C52.1562 207.768 52.4709 207.72 52.7589 207.624C53.0575 207.517 53.3509 207.373 53.6389 207.192L54.2629 208.344C53.8895 208.589 53.4735 208.792 53.0149 208.952C52.5562 209.112 52.0762 209.192 51.5749 209.192ZM49.4789 204.328H52.9669C52.9669 203.72 52.8335 203.245 52.5669 202.904C52.3002 202.552 51.9002 202.376 51.3669 202.376C50.9082 202.376 50.4975 202.547 50.1349 202.888C49.7829 203.219 49.5642 203.699 49.4789 204.328ZM56.3243 209V201.144H57.8443L57.9723 202.536H58.0363C58.3136 202.024 58.6496 201.635 59.0443 201.368C59.4389 201.091 59.8443 200.952 60.2603 200.952C60.6336 200.952 60.9323 201.005 61.1563 201.112L60.8363 202.712C60.6976 202.669 60.5696 202.637 60.4523 202.616C60.3349 202.595 60.1909 202.584 60.0203 202.584C59.7109 202.584 59.3856 202.707 59.0443 202.952C58.7029 203.187 58.4096 203.603 58.1643 204.2V209H56.3243ZM63.7751 209.192C63.0925 209.192 62.5325 208.979 62.0951 208.552C61.6685 208.125 61.4551 207.571 61.4551 206.888C61.4551 206.045 61.8231 205.395 62.5591 204.936C63.2951 204.467 64.4685 204.147 66.0791 203.976C66.0685 203.56 65.9565 203.203 65.7431 202.904C65.5405 202.595 65.1725 202.44 64.6391 202.44C64.2551 202.44 63.8765 202.515 63.5031 202.664C63.1405 202.813 62.7831 202.995 62.4311 203.208L61.7591 201.976C62.1965 201.699 62.6871 201.459 63.2311 201.256C63.7858 201.053 64.3725 200.952 64.9911 200.952C65.9725 200.952 66.7031 201.245 67.1831 201.832C67.6738 202.408 67.9191 203.245 67.9191 204.344V209H66.3991L66.2711 208.136H66.2071C65.8551 208.435 65.4765 208.685 65.0711 208.888C64.6765 209.091 64.2445 209.192 63.7751 209.192ZM64.3671 207.752C64.6871 207.752 64.9751 207.677 65.2311 207.528C65.4978 207.368 65.7805 207.155 66.0791 206.888V205.128C65.0125 205.267 64.2711 205.475 63.8551 205.752C63.4391 206.019 63.2311 206.349 63.2311 206.744C63.2311 207.096 63.3378 207.352 63.5511 207.512C63.7645 207.672 64.0365 207.752 64.3671 207.752ZM72.6391 209.192C71.7325 209.192 71.0871 208.931 70.7031 208.408C70.3298 207.875 70.1431 207.187 70.1431 206.344V202.6H69.0231V201.224L70.2391 201.144L70.4631 199H71.9991V201.144H73.9991V202.6H71.9991V206.344C71.9991 207.261 72.3671 207.72 73.1031 207.72C73.2418 207.72 73.3858 207.704 73.5351 207.672C73.6845 207.629 73.8125 207.587 73.9191 207.544L74.2391 208.904C74.0258 208.979 73.7805 209.043 73.5031 209.096C73.2365 209.16 72.9485 209.192 72.6391 209.192ZM75.6524 209V201.144H77.4924V209H75.6524ZM76.5804 199.768C76.2497 199.768 75.983 199.672 75.7804 199.48C75.5777 199.288 75.4764 199.032 75.4764 198.712C75.4764 198.403 75.5777 198.152 75.7804 197.96C75.983 197.768 76.2497 197.672 76.5804 197.672C76.911 197.672 77.1777 197.768 77.3804 197.96C77.583 198.152 77.6844 198.403 77.6844 198.712C77.6844 199.032 77.583 199.288 77.3804 199.48C77.1777 199.672 76.911 199.768 76.5804 199.768ZM83.0559 209.192C82.4052 209.192 81.7972 209.032 81.2319 208.712C80.6665 208.381 80.2079 207.912 79.8559 207.304C79.5039 206.685 79.3279 205.944 79.3279 205.08C79.3279 204.205 79.5039 203.464 79.8559 202.856C80.2079 202.237 80.6665 201.768 81.2319 201.448C81.7972 201.117 82.4052 200.952 83.0559 200.952C83.7172 200.952 84.3305 201.117 84.8959 201.448C85.4612 201.768 85.9199 202.237 86.2719 202.856C86.6239 203.464 86.7999 204.205 86.7999 205.08C86.7999 205.944 86.6239 206.685 86.2719 207.304C85.9199 207.912 85.4612 208.381 84.8959 208.712C84.3305 209.032 83.7172 209.192 83.0559 209.192ZM83.0559 207.688C83.6319 207.688 84.0852 207.448 84.4159 206.968C84.7465 206.488 84.9119 205.859 84.9119 205.08C84.9119 204.291 84.7465 203.656 84.4159 203.176C84.0852 202.696 83.6319 202.456 83.0559 202.456C82.4799 202.456 82.0265 202.696 81.6959 203.176C81.3759 203.656 81.2159 204.291 81.2159 205.08C81.2159 205.859 81.3759 206.488 81.6959 206.968C82.0265 207.448 82.4799 207.688 83.0559 207.688ZM88.6211 209V201.144H90.1411L90.2691 202.2H90.3331C90.6851 201.859 91.0691 201.565 91.4851 201.32C91.9011 201.075 92.3758 200.952 92.9091 200.952C93.7518 200.952 94.3651 201.224 94.7491 201.768C95.1331 202.312 95.3251 203.08 95.3251 204.072V209H93.4851V204.312C93.4851 203.661 93.3891 203.203 93.1971 202.936C93.0051 202.669 92.6905 202.536 92.2531 202.536C91.9118 202.536 91.6078 202.621 91.3411 202.792C91.0851 202.952 90.7918 203.192 90.4611 203.512V209H88.6211ZM103.449 209.192C102.628 209.192 101.935 209.053 101.369 208.776C100.815 208.488 100.356 208.147 99.9934 207.752L100.873 206.568C101.183 206.877 101.535 207.144 101.929 207.368C102.324 207.581 102.777 207.688 103.289 207.688C103.844 207.688 104.292 207.555 104.633 207.288C104.985 207.011 105.161 206.632 105.161 206.152C105.161 205.8 105.071 205.496 104.889 205.24C104.719 204.973 104.415 204.771 103.977 204.632C103.551 204.493 102.948 204.424 102.169 204.424V203.08C103.172 203.08 103.865 202.925 104.249 202.616C104.633 202.307 104.825 201.917 104.825 201.448C104.825 201.021 104.692 200.691 104.425 200.456C104.159 200.211 103.791 200.088 103.321 200.088C102.927 200.088 102.564 200.179 102.233 200.36C101.903 200.531 101.583 200.76 101.273 201.048L100.329 199.912C100.767 199.528 101.231 199.219 101.721 198.984C102.223 198.749 102.777 198.632 103.385 198.632C104.367 198.632 105.161 198.867 105.769 199.336C106.377 199.795 106.681 200.456 106.681 201.32C106.681 201.885 106.521 202.365 106.201 202.76C105.892 203.144 105.46 203.443 104.905 203.656V203.72C105.503 203.88 106.004 204.173 106.409 204.6C106.815 205.027 107.017 205.576 107.017 206.248C107.017 206.867 106.852 207.395 106.521 207.832C106.201 208.269 105.769 208.605 105.225 208.84C104.692 209.075 104.1 209.192 103.449 209.192Z" fill="#232A3D"/>
<path d="M38.328 333V322.536H40.184V333H38.328ZM45.4516 333.192C44.545 333.192 43.8996 332.931 43.5156 332.408C43.1423 331.875 42.9556 331.187 42.9556 330.344V326.6H41.8356V325.224L43.0516 325.144L43.2756 323H44.8116V325.144H46.8116V326.6H44.8116V330.344C44.8116 331.261 45.1796 331.72 45.9156 331.72C46.0543 331.72 46.1983 331.704 46.3476 331.672C46.497 331.629 46.625 331.587 46.7316 331.544L47.0516 332.904C46.8383 332.979 46.593 333.043 46.3156 333.096C46.049 333.16 45.761 333.192 45.4516 333.192ZM51.5749 333.192C50.8495 333.192 50.1935 333.032 49.6069 332.712C49.0202 332.381 48.5562 331.912 48.2149 331.304C47.8735 330.685 47.7029 329.944 47.7029 329.08C47.7029 328.227 47.8735 327.491 48.2149 326.872C48.5669 326.253 49.0202 325.779 49.5749 325.448C50.1295 325.117 50.7109 324.952 51.3189 324.952C52.0335 324.952 52.6309 325.112 53.1109 325.432C53.5909 325.741 53.9535 326.179 54.1989 326.744C54.4442 327.299 54.5669 327.944 54.5669 328.68C54.5669 329.064 54.5402 329.363 54.4869 329.576H49.4949C49.5802 330.269 49.8309 330.808 50.2469 331.192C50.6629 331.576 51.1855 331.768 51.8149 331.768C52.1562 331.768 52.4709 331.72 52.7589 331.624C53.0575 331.517 53.3509 331.373 53.6389 331.192L54.2629 332.344C53.8895 332.589 53.4735 332.792 53.0149 332.952C52.5562 333.112 52.0762 333.192 51.5749 333.192ZM49.4789 328.328H52.9669C52.9669 327.72 52.8335 327.245 52.5669 326.904C52.3002 326.552 51.9002 326.376 51.3669 326.376C50.9082 326.376 50.4975 326.547 50.1349 326.888C49.7829 327.219 49.5642 327.699 49.4789 328.328ZM56.3243 333V325.144H57.8443L57.9723 326.536H58.0363C58.3136 326.024 58.6496 325.635 59.0443 325.368C59.4389 325.091 59.8443 324.952 60.2603 324.952C60.6336 324.952 60.9323 325.005 61.1563 325.112L60.8363 326.712C60.6976 326.669 60.5696 326.637 60.4523 326.616C60.3349 326.595 60.1909 326.584 60.0203 326.584C59.7109 326.584 59.3856 326.707 59.0443 326.952C58.7029 327.187 58.4096 327.603 58.1643 328.2V333H56.3243ZM63.7751 333.192C63.0925 333.192 62.5325 332.979 62.0951 332.552C61.6685 332.125 61.4551 331.571 61.4551 330.888C61.4551 330.045 61.8231 329.395 62.5591 328.936C63.2951 328.467 64.4685 328.147 66.0791 327.976C66.0685 327.56 65.9565 327.203 65.7431 326.904C65.5405 326.595 65.1725 326.44 64.6391 326.44C64.2551 326.44 63.8765 326.515 63.5031 326.664C63.1405 326.813 62.7831 326.995 62.4311 327.208L61.7591 325.976C62.1965 325.699 62.6871 325.459 63.2311 325.256C63.7858 325.053 64.3725 324.952 64.9911 324.952C65.9725 324.952 66.7031 325.245 67.1831 325.832C67.6738 326.408 67.9191 327.245 67.9191 328.344V333H66.3991L66.2711 332.136H66.2071C65.8551 332.435 65.4765 332.685 65.0711 332.888C64.6765 333.091 64.2445 333.192 63.7751 333.192ZM64.3671 331.752C64.6871 331.752 64.9751 331.677 65.2311 331.528C65.4978 331.368 65.7805 331.155 66.0791 330.888V329.128C65.0125 329.267 64.2711 329.475 63.8551 329.752C63.4391 330.019 63.2311 330.349 63.2311 330.744C63.2311 331.096 63.3378 331.352 63.5511 331.512C63.7645 331.672 64.0365 331.752 64.3671 331.752ZM72.6391 333.192C71.7325 333.192 71.0871 332.931 70.7031 332.408C70.3298 331.875 70.1431 331.187 70.1431 330.344V326.6H69.0231V325.224L70.2391 325.144L70.4631 323H71.9991V325.144H73.9991V326.6H71.9991V330.344C71.9991 331.261 72.3671 331.72 73.1031 331.72C73.2418 331.72 73.3858 331.704 73.5351 331.672C73.6845 331.629 73.8125 331.587 73.9191 331.544L74.2391 332.904C74.0258 332.979 73.7805 333.043 73.5031 333.096C73.2365 333.16 72.9485 333.192 72.6391 333.192ZM75.6524 333V325.144H77.4924V333H75.6524ZM76.5804 323.768C76.2497 323.768 75.983 323.672 75.7804 323.48C75.5777 323.288 75.4764 323.032 75.4764 322.712C75.4764 322.403 75.5777 322.152 75.7804 321.96C75.983 321.768 76.2497 321.672 76.5804 321.672C76.911 321.672 77.1777 321.768 77.3804 321.96C77.583 322.152 77.6844 322.403 77.6844 322.712C77.6844 323.032 77.583 323.288 77.3804 323.48C77.1777 323.672 76.911 323.768 76.5804 323.768ZM83.0559 333.192C82.4052 333.192 81.7972 333.032 81.2319 332.712C80.6665 332.381 80.2079 331.912 79.8559 331.304C79.5039 330.685 79.3279 329.944 79.3279 329.08C79.3279 328.205 79.5039 327.464 79.8559 326.856C80.2079 326.237 80.6665 325.768 81.2319 325.448C81.7972 325.117 82.4052 324.952 83.0559 324.952C83.7172 324.952 84.3305 325.117 84.8959 325.448C85.4612 325.768 85.9199 326.237 86.2719 326.856C86.6239 327.464 86.7999 328.205 86.7999 329.08C86.7999 329.944 86.6239 330.685 86.2719 331.304C85.9199 331.912 85.4612 332.381 84.8959 332.712C84.3305 333.032 83.7172 333.192 83.0559 333.192ZM83.0559 331.688C83.6319 331.688 84.0852 331.448 84.4159 330.968C84.7465 330.488 84.9119 329.859 84.9119 329.08C84.9119 328.291 84.7465 327.656 84.4159 327.176C84.0852 326.696 83.6319 326.456 83.0559 326.456C82.4799 326.456 82.0265 326.696 81.6959 327.176C81.3759 327.656 81.2159 328.291 81.2159 329.08C81.2159 329.859 81.3759 330.488 81.6959 330.968C82.0265 331.448 82.4799 331.688 83.0559 331.688ZM88.6211 333V325.144H90.1411L90.2691 326.2H90.3331C90.6851 325.859 91.0691 325.565 91.4851 325.32C91.9011 325.075 92.3758 324.952 92.9091 324.952C93.7518 324.952 94.3651 325.224 94.7491 325.768C95.1331 326.312 95.3251 327.08 95.3251 328.072V333H93.4851V328.312C93.4851 327.661 93.3891 327.203 93.1971 326.936C93.0051 326.669 92.6905 326.536 92.2531 326.536C91.9118 326.536 91.6078 326.621 91.3411 326.792C91.0851 326.952 90.7918 327.192 90.4611 327.512V333H88.6211ZM103.897 328.04C103.609 328.04 103.305 328.131 102.985 328.312C102.665 328.483 102.361 328.781 102.073 329.208C102.169 330.115 102.388 330.771 102.729 331.176C103.071 331.581 103.487 331.784 103.977 331.784C104.404 331.784 104.761 331.619 105.049 331.288C105.348 330.947 105.497 330.467 105.497 329.848C105.497 329.251 105.353 328.803 105.065 328.504C104.788 328.195 104.399 328.04 103.897 328.04ZM104.009 333.192C103.348 333.192 102.735 333.016 102.169 332.664C101.604 332.312 101.151 331.768 100.809 331.032C100.479 330.296 100.313 329.357 100.313 328.216C100.313 326.893 100.5 325.827 100.873 325.016C101.257 324.195 101.753 323.592 102.361 323.208C102.969 322.824 103.62 322.632 104.313 322.632C104.932 322.632 105.465 322.744 105.913 322.968C106.361 323.192 106.735 323.464 107.033 323.784L106.041 324.904C105.86 324.68 105.62 324.499 105.321 324.36C105.033 324.211 104.735 324.136 104.425 324.136C103.999 324.136 103.609 324.253 103.257 324.488C102.905 324.723 102.617 325.117 102.393 325.672C102.18 326.216 102.057 326.957 102.025 327.896C102.324 327.523 102.676 327.229 103.081 327.016C103.487 326.803 103.871 326.696 104.233 326.696C105.119 326.696 105.833 326.957 106.377 327.48C106.932 327.992 107.209 328.781 107.209 329.848C107.209 330.52 107.06 331.107 106.761 331.608C106.473 332.109 106.089 332.499 105.609 332.776C105.129 333.053 104.596 333.192 104.009 333.192Z" fill="#232A3D"/>
<path d="M486.44 44V35.104H483.416V33.536H491.32V35.104H488.296V44H486.44ZM492.199 44V36.144H493.719L493.847 37.536H493.911C494.189 37.024 494.525 36.6347 494.919 36.368C495.314 36.0907 495.719 35.952 496.135 35.952C496.509 35.952 496.807 36.0053 497.031 36.112L496.711 37.712C496.573 37.6693 496.445 37.6373 496.327 37.616C496.21 37.5947 496.066 37.584 495.895 37.584C495.586 37.584 495.261 37.7067 494.919 37.952C494.578 38.1867 494.285 38.6027 494.039 39.2V44H492.199ZM499.65 44.192C498.967 44.192 498.407 43.9787 497.97 43.552C497.543 43.1253 497.33 42.5707 497.33 41.888C497.33 41.0453 497.698 40.3947 498.434 39.936C499.17 39.4667 500.343 39.1467 501.954 38.976C501.943 38.56 501.831 38.2027 501.618 37.904C501.415 37.5947 501.047 37.44 500.514 37.44C500.13 37.44 499.751 37.5147 499.378 37.664C499.015 37.8133 498.658 37.9947 498.306 38.208L497.634 36.976C498.071 36.6987 498.562 36.4587 499.106 36.256C499.661 36.0533 500.247 35.952 500.866 35.952C501.847 35.952 502.578 36.2453 503.058 36.832C503.549 37.408 503.794 38.2453 503.794 39.344V44H502.274L502.146 43.136H502.082C501.73 43.4347 501.351 43.6853 500.946 43.888C500.551 44.0907 500.119 44.192 499.65 44.192ZM500.242 42.752C500.562 42.752 500.85 42.6773 501.106 42.528C501.373 42.368 501.655 42.1547 501.954 41.888V40.128C500.887 40.2667 500.146 40.4747 499.73 40.752C499.314 41.0187 499.106 41.3493 499.106 41.744C499.106 42.096 499.213 42.352 499.426 42.512C499.639 42.672 499.911 42.752 500.242 42.752ZM505.996 44V36.144H507.836V44H505.996ZM506.924 34.768C506.593 34.768 506.327 34.672 506.124 34.48C505.921 34.288 505.82 34.032 505.82 33.712C505.82 33.4027 505.921 33.152 506.124 32.96C506.327 32.768 506.593 32.672 506.924 32.672C507.255 32.672 507.521 32.768 507.724 32.96C507.927 33.152 508.028 33.4027 508.028 33.712C508.028 34.032 507.927 34.288 507.724 34.48C507.521 34.672 507.255 34.768 506.924 34.768ZM510.184 44V36.144H511.704L511.832 37.2H511.896C512.248 36.8587 512.632 36.5653 513.048 36.32C513.464 36.0747 513.938 35.952 514.472 35.952C515.314 35.952 515.928 36.224 516.312 36.768C516.696 37.312 516.888 38.08 516.888 39.072V44H515.048V39.312C515.048 38.6613 514.952 38.2027 514.76 37.936C514.568 37.6693 514.253 37.536 513.816 37.536C513.474 37.536 513.17 37.6213 512.904 37.792C512.648 37.952 512.354 38.192 512.024 38.512V44H510.184ZM519.137 44V36.144H520.977V44H519.137ZM520.065 34.768C519.734 34.768 519.467 34.672 519.265 34.48C519.062 34.288 518.961 34.032 518.961 33.712C518.961 33.4027 519.062 33.152 519.265 32.96C519.467 32.768 519.734 32.672 520.065 32.672C520.395 32.672 520.662 32.768 520.865 32.96C521.067 33.152 521.169 33.4027 521.169 33.712C521.169 34.032 521.067 34.288 520.865 34.48C520.662 34.672 520.395 34.768 520.065 34.768ZM523.324 44V36.144H524.844L524.972 37.2H525.036C525.388 36.8587 525.772 36.5653 526.188 36.32C526.604 36.0747 527.079 35.952 527.612 35.952C528.455 35.952 529.068 36.224 529.452 36.768C529.836 37.312 530.028 38.08 530.028 39.072V44H528.188V39.312C528.188 38.6613 528.092 38.2027 527.9 37.936C527.708 37.6693 527.394 37.536 526.956 37.536C526.615 37.536 526.311 37.6213 526.044 37.792C525.788 37.952 525.495 38.192 525.164 38.512V44H523.324ZM535.013 47.472C534.395 47.472 533.835 47.3973 533.333 47.248C532.843 47.0987 532.453 46.8693 532.165 46.56C531.888 46.2613 531.749 45.8827 531.749 45.424C531.749 44.7733 532.123 44.2133 532.869 43.744V43.68C532.667 43.552 532.496 43.3813 532.357 43.168C532.229 42.9547 532.165 42.688 532.165 42.368C532.165 42.0587 532.251 41.7813 532.421 41.536C532.603 41.28 532.805 41.072 533.029 40.912V40.848C532.763 40.6453 532.523 40.3627 532.309 40C532.107 39.6373 532.005 39.2267 532.005 38.768C532.005 38.16 532.149 37.648 532.437 37.232C532.725 36.816 533.104 36.5013 533.573 36.288C534.053 36.064 534.565 35.952 535.109 35.952C535.323 35.952 535.525 35.9733 535.717 36.016C535.92 36.048 536.101 36.0907 536.261 36.144H539.077V37.504H537.637C537.765 37.6533 537.872 37.8453 537.957 38.08C538.043 38.304 538.085 38.5547 538.085 38.832C538.085 39.408 537.952 39.8987 537.685 40.304C537.419 40.6987 537.061 40.9973 536.613 41.2C536.165 41.4027 535.664 41.504 535.109 41.504C534.939 41.504 534.763 41.488 534.581 41.456C534.4 41.424 534.219 41.3707 534.037 41.296C533.92 41.4027 533.824 41.5093 533.749 41.616C533.685 41.7227 533.653 41.8667 533.653 42.048C533.653 42.272 533.744 42.448 533.925 42.576C534.117 42.704 534.453 42.768 534.933 42.768H536.325C537.275 42.768 537.989 42.9227 538.469 43.232C538.96 43.5307 539.205 44.0213 539.205 44.704C539.205 45.216 539.035 45.68 538.693 46.096C538.352 46.5227 537.867 46.8587 537.237 47.104C536.608 47.3493 535.867 47.472 535.013 47.472ZM535.109 40.352C535.483 40.352 535.803 40.2133 536.069 39.936C536.336 39.6587 536.469 39.2693 536.469 38.768C536.469 38.2773 536.336 37.8987 536.069 37.632C535.813 37.3547 535.493 37.216 535.109 37.216C534.725 37.216 534.4 37.3493 534.133 37.616C533.867 37.8827 533.733 38.2667 533.733 38.768C533.733 39.2693 533.867 39.6587 534.133 39.936C534.4 40.2133 534.725 40.352 535.109 40.352ZM535.301 46.272C535.931 46.272 536.443 46.144 536.837 45.888C537.232 45.632 537.429 45.3387 537.429 45.008C537.429 44.6987 537.307 44.4907 537.061 44.384C536.827 44.2773 536.485 44.224 536.037 44.224H534.965C534.539 44.224 534.181 44.1867 533.893 44.112C533.488 44.4213 533.285 44.768 533.285 45.152C533.285 45.504 533.467 45.776 533.829 45.968C534.192 46.1707 534.683 46.272 535.301 46.272ZM546.545 44.192C545.564 44.192 544.78 43.8293 544.193 43.104C543.606 42.3787 543.313 41.3707 543.313 40.08C543.313 39.2267 543.468 38.4907 543.777 37.872C544.097 37.2533 544.513 36.7787 545.025 36.448C545.537 36.1173 546.076 35.952 546.641 35.952C547.089 35.952 547.468 36.032 547.777 36.192C548.097 36.3413 548.406 36.5493 548.705 36.816L548.641 35.552V32.704H550.481V44H548.961L548.833 43.152H548.769C548.481 43.44 548.145 43.6853 547.761 43.888C547.377 44.0907 546.972 44.192 546.545 44.192ZM546.993 42.672C547.58 42.672 548.129 42.3787 548.641 41.792V38.128C548.374 37.8827 548.108 37.712 547.841 37.616C547.574 37.52 547.308 37.472 547.041 37.472C546.54 37.472 546.108 37.7013 545.745 38.16C545.393 38.608 545.217 39.2427 545.217 40.064C545.217 40.9067 545.372 41.552 545.681 42C545.99 42.448 546.428 42.672 546.993 42.672ZM554.728 44.192C554.046 44.192 553.486 43.9787 553.048 43.552C552.622 43.1253 552.408 42.5707 552.408 41.888C552.408 41.0453 552.776 40.3947 553.512 39.936C554.248 39.4667 555.422 39.1467 557.032 38.976C557.022 38.56 556.91 38.2027 556.696 37.904C556.494 37.5947 556.126 37.44 555.592 37.44C555.208 37.44 554.83 37.5147 554.456 37.664C554.094 37.8133 553.736 37.9947 553.384 38.208L552.712 36.976C553.15 36.6987 553.64 36.4587 554.184 36.256C554.739 36.0533 555.326 35.952 555.944 35.952C556.926 35.952 557.656 36.2453 558.136 36.832C558.627 37.408 558.872 38.2453 558.872 39.344V44H557.352L557.224 43.136H557.16C556.808 43.4347 556.43 43.6853 556.024 43.888C555.63 44.0907 555.198 44.192 554.728 44.192ZM555.32 42.752C555.64 42.752 555.928 42.6773 556.184 42.528C556.451 42.368 556.734 42.1547 557.032 41.888V40.128C555.966 40.2667 555.224 40.4747 554.808 40.752C554.392 41.0187 554.184 41.3493 554.184 41.744C554.184 42.096 554.291 42.352 554.504 42.512C554.718 42.672 554.99 42.752 555.32 42.752ZM563.592 44.192C562.686 44.192 562.04 43.9307 561.656 43.408C561.283 42.8747 561.096 42.1867 561.096 41.344V37.6H559.976V36.224L561.192 36.144L561.416 34H562.952V36.144H564.952V37.6H562.952V41.344C562.952 42.2613 563.32 42.72 564.056 42.72C564.195 42.72 564.339 42.704 564.488 42.672C564.638 42.6293 564.766 42.5867 564.872 42.544L565.192 43.904C564.979 43.9787 564.734 44.0427 564.456 44.096C564.19 44.16 563.902 44.192 563.592 44.192ZM568.166 44.192C567.483 44.192 566.923 43.9787 566.486 43.552C566.059 43.1253 565.846 42.5707 565.846 41.888C565.846 41.0453 566.214 40.3947 566.95 39.936C567.686 39.4667 568.859 39.1467 570.47 38.976C570.459 38.56 570.347 38.2027 570.134 37.904C569.931 37.5947 569.563 37.44 569.03 37.44C568.646 37.44 568.267 37.5147 567.894 37.664C567.531 37.8133 567.174 37.9947 566.822 38.208L566.15 36.976C566.587 36.6987 567.078 36.4587 567.622 36.256C568.176 36.0533 568.763 35.952 569.382 35.952C570.363 35.952 571.094 36.2453 571.574 36.832C572.064 37.408 572.31 38.2453 572.31 39.344V44H570.79L570.662 43.136H570.598C570.246 43.4347 569.867 43.6853 569.462 43.888C569.067 44.0907 568.635 44.192 568.166 44.192ZM568.758 42.752C569.078 42.752 569.366 42.6773 569.622 42.528C569.888 42.368 570.171 42.1547 570.47 41.888V40.128C569.403 40.2667 568.662 40.4747 568.246 40.752C567.83 41.0187 567.622 41.3493 567.622 41.744C567.622 42.096 567.728 42.352 567.942 42.512C568.155 42.672 568.427 42.752 568.758 42.752Z" fill="#232A3D"/>
<rect x="287" y="141" width="28" height="28" fill="url(#paint19_linear_1_4)"/>
<rect x="287" y="190" width="28" height="28" fill="url(#paint20_linear_1_4)"/>
<rect x="287" y="314" width="28" height="28" fill="url(#paint21_linear_1_4)"/>
<rect x="423" y="92" width="28" height="28" fill="url(#paint22_linear_1_4)"/>
<rect x="423" y="141" width="28" height="28" fill="url(#paint23_linear_1_4)"/>
<rect x="423" y="190" width="28" height="28" fill="url(#paint24_linear_1_4)"/>
<rect x="423" y="314" width="28" height="28" fill="url(#paint25_linear_1_4)"/>
<rect x="321" y="92" width="28" height="28" fill="url(#paint26_linear_1_4)"/>
<rect x="321" y="141" width="28" height="28" fill="url(#paint27_linear_1_4)"/>
<rect x="321" y="190" width="28" height="28" fill="url(#paint28_linear_1_4)"/>
<rect x="321" y="314" width="28" height="28" fill="url(#paint29_linear_1_4)"/>
<rect x="457" y="92" width="28" height="28" fill="url(#paint30_linear_1_4)"/>
<rect x="457" y="141" width="28" height="28" fill="url(#paint31_linear_1_4)"/>
<rect x="457" y="190" width="28" height="28" fill="url(#paint32_linear_1_4)"/>
<rect x="457" y="314" width="28" height="28" fill="url(#paint33_linear_1_4)"/>
<rect x="525" y="92" width="28" height="28" fill="url(#paint34_linear_1_4)"/>
<rect x="525" y="141" width="28" height="28" fill="url(#paint35_linear_1_4)"/>
<rect x="525" y="190" width="28" height="28" fill="url(#paint36_linear_1_4)"/>
<rect x="525" y="314" width="28" height="28" fill="url(#paint37_linear_1_4)"/>
<rect x="355" y="92" width="28" height="28" fill="url(#paint38_linear_1_4)"/>
<rect x="355" y="141" width="28" height="28" fill="url(#paint39_linear_1_4)"/>
<rect x="355" y="190" width="28" height="28" fill="url(#paint40_linear_1_4)"/>
<rect x="355" y="314" width="28" height="28" fill="url(#paint41_linear_1_4)"/>
<rect x="491" y="92" width="28" height="28" fill="url(#paint42_linear_1_4)"/>
<rect x="491" y="141" width="28" height="28" fill="url(#paint43_linear_1_4)"/>
<rect x="491" y="190" width="28" height="28" fill="url(#paint44_linear_1_4)"/>
<rect x="491" y="314" width="28" height="28" fill="url(#paint45_linear_1_4)"/>
<rect x="559" y="92" width="28" height="28" fill="url(#paint46_linear_1_4)"/>
<rect x="559" y="141" width="28" height="28" fill="url(#paint47_linear_1_4)"/>
<rect x="559" y="190" width="28" height="28" fill="url(#paint48_linear_1_4)"/>
<rect x="559" y="314" width="28" height="28" fill="url(#paint49_linear_1_4)"/>
<rect x="13" y="89" width="124" height="34" stroke="#9B51E0" stroke-width="2"/>
<rect x="13" y="138" width="124" height="34" stroke="#9B51E0" stroke-width="2"/>
<rect x="13" y="187" width="124" height="34" stroke="#9B51E0" stroke-width="2"/>
<rect x="13" y="311" width="124" height="34" stroke="#9B51E0" stroke-width="2"/>
<path d="M178.707 106.707C179.098 106.317 179.098 105.683 178.707 105.293L172.343 98.9289C171.953 98.5384 171.319 98.5384 170.929 98.9289C170.538 99.3195 170.538 99.9526 170.929 100.343L176.586 106L170.929 111.657C170.538 112.047 170.538 112.681 170.929 113.071C171.319 113.462 171.953 113.462 172.343 113.071L178.707 106.707ZM146 107H178V105H146V107Z" fill="#9B51E0"/>
<path d="M178.707 155.707C179.098 155.317 179.098 154.683 178.707 154.293L172.343 147.929C171.953 147.538 171.319 147.538 170.929 147.929C170.538 148.319 170.538 148.953 170.929 149.343L176.586 155L170.929 160.657C170.538 161.047 170.538 161.681 170.929 162.071C171.319 162.462 171.953 162.462 172.343 162.071L178.707 155.707ZM146 156H178V154H146V156Z" fill="#9B51E0"/>
<path d="M178.707 204.707C179.098 204.317 179.098 203.683 178.707 203.293L172.343 196.929C171.953 196.538 171.319 196.538 170.929 196.929C170.538 197.319 170.538 197.953 170.929 198.343L176.586 204L170.929 209.657C170.538 210.047 170.538 210.681 170.929 211.071C171.319 211.462 171.953 211.462 172.343 211.071L178.707 204.707ZM146 205H178V203H146V205Z" fill="#9B51E0"/>
<path d="M178.707 328.707C179.098 328.317 179.098 327.683 178.707 327.293L172.343 320.929C171.953 320.538 171.319 320.538 170.929 320.929C170.538 321.319 170.538 321.953 170.929 322.343L176.586 328L170.929 333.657C170.538 334.047 170.538 334.681 170.929 335.071C171.319 335.462 171.953 335.462 172.343 335.071L178.707 328.707ZM146 329H178V327H146V329Z" fill="#9B51E0"/>
<circle cx="215" cy="244" r="2" fill="#9B51E0"/>
<circle cx="283" cy="244" r="2" fill="#9B51E0"/>
<circle cx="352" cy="244" r="2" fill="#9B51E0"/>
<circle cx="421" cy="244" r="2" fill="#9B51E0"/>
<circle cx="487" cy="244" r="2" fill="#9B51E0"/>
<circle cx="558" cy="244" r="2" fill="#9B51E0"/>
<circle cx="215" cy="264" r="2" fill="#9B51E0"/>
<circle cx="283" cy="264" r="2" fill="#9B51E0"/>
<circle cx="352" cy="264" r="2" fill="#9B51E0"/>
<circle cx="421" cy="264" r="2" fill="#9B51E0"/>
<circle cx="487" cy="264" r="2" fill="#9B51E0"/>
<circle cx="558" cy="264" r="2" fill="#9B51E0"/>
<circle cx="215" cy="284" r="2" fill="#9B51E0"/>
<circle cx="74" cy="244" r="2" fill="#9B51E0"/>
<circle cx="74" cy="264" r="2" fill="#9B51E0"/>
<circle cx="74" cy="284" r="2" fill="#9B51E0"/>
<circle cx="283" cy="284" r="2" fill="#9B51E0"/>
<circle cx="352" cy="284" r="2" fill="#9B51E0"/>
<circle cx="421" cy="284" r="2" fill="#9B51E0"/>
<circle cx="487" cy="284" r="2" fill="#9B51E0"/>
<circle cx="558" cy="284" r="2" fill="#9B51E0"/>
<rect x="182.5" y="88.5" width="67" height="35" stroke="#7D8FA8"/>
<rect x="250.5" y="137.5" width="67" height="35" stroke="#7D8FA8"/>
<rect x="318.5" y="186.5" width="67" height="35" stroke="#7D8FA8"/>
<rect x="522.5" y="310.5" width="67" height="35" stroke="#7D8FA8"/>
<defs>
<linearGradient id="paint0_linear_1_4" x1="200" y1="92" x2="200" y2="129.333" gradientUnits="userSpaceOnUse">
<stop stop-color="#9B51E0"/>
<stop offset="1" stop-color="#9B51E0" stop-opacity="0"/>
</linearGradient>
<linearGradient id="paint1_linear_1_4" x1="329" y1="25" x2="329" y2="62.3333" gradientUnits="userSpaceOnUse">
<stop stop-color="#9B51E0"/>
<stop offset="1" stop-color="#9B51E0" stop-opacity="0"/>
</linearGradient>
<linearGradient id="paint2_linear_1_4" x1="199" y1="141" x2="199" y2="183" gradientUnits="userSpaceOnUse">
<stop stop-color="#1F69FF"/>
<stop offset="1" stop-color="#1F69FF" stop-opacity="0"/>
</linearGradient>
<linearGradient id="paint3_linear_1_4" x1="199" y1="190" x2="199" y2="232" gradientUnits="userSpaceOnUse">
<stop stop-color="#1F69FF"/>
<stop offset="1" stop-color="#1F69FF" stop-opacity="0"/>
</linearGradient>
<linearGradient id="paint4_linear_1_4" x1="199" y1="314" x2="199" y2="356" gradientUnits="userSpaceOnUse">
<stop stop-color="#1F69FF"/>
<stop offset="1" stop-color="#1F69FF" stop-opacity="0"/>
</linearGradient>
<linearGradient id="paint5_linear_1_4" x1="233" y1="92" x2="233" y2="129.333" gradientUnits="userSpaceOnUse">
<stop stop-color="#9B51E0"/>
<stop offset="1" stop-color="#9B51E0" stop-opacity="0"/>
</linearGradient>
<linearGradient id="paint6_linear_1_4" x1="233" y1="141" x2="233" y2="183" gradientUnits="userSpaceOnUse">
<stop stop-color="#1F69FF"/>
<stop offset="1" stop-color="#1F69FF" stop-opacity="0"/>
</linearGradient>
<linearGradient id="paint7_linear_1_4" x1="233" y1="190" x2="233" y2="232" gradientUnits="userSpaceOnUse">
<stop stop-color="#1F69FF"/>
<stop offset="1" stop-color="#1F69FF" stop-opacity="0"/>
</linearGradient>
<linearGradient id="paint8_linear_1_4" x1="233" y1="314" x2="233" y2="356" gradientUnits="userSpaceOnUse">
<stop stop-color="#1F69FF"/>
<stop offset="1" stop-color="#1F69FF" stop-opacity="0"/>
</linearGradient>
<linearGradient id="paint9_linear_1_4" x1="267" y1="92" x2="267" y2="134" gradientUnits="userSpaceOnUse">
<stop stop-color="#1F69FF"/>
<stop offset="1" stop-color="#1F69FF" stop-opacity="0"/>
</linearGradient>
<linearGradient id="paint10_linear_1_4" x1="267" y1="141" x2="267" y2="178.333" gradientUnits="userSpaceOnUse">
<stop stop-color="#9B51E0"/>
<stop offset="1" stop-color="#9B51E0" stop-opacity="0"/>
</linearGradient>
<linearGradient id="paint11_linear_1_4" x1="267" y1="190" x2="267" y2="232" gradientUnits="userSpaceOnUse">
<stop stop-color="#1F69FF"/>
<stop offset="1" stop-color="#1F69FF" stop-opacity="0"/>
</linearGradient>
<linearGradient id="paint12_linear_1_4" x1="267" y1="314" x2="267" y2="356" gradientUnits="userSpaceOnUse">
<stop stop-color="#1F69FF"/>
<stop offset="1" stop-color="#1F69FF" stop-opacity="0"/>
</linearGradient>
<linearGradient id="paint13_linear_1_4" x1="403" y1="92" x2="403" y2="134" gradientUnits="userSpaceOnUse">
<stop stop-color="#1F69FF"/>
<stop offset="1" stop-color="#1F69FF" stop-opacity="0"/>
</linearGradient>
<linearGradient id="paint14_linear_1_4" x1="403" y1="141" x2="403" y2="183" gradientUnits="userSpaceOnUse">
<stop stop-color="#1F69FF"/>
<stop offset="1" stop-color="#1F69FF" stop-opacity="0"/>
</linearGradient>
<linearGradient id="paint15_linear_1_4" x1="403" y1="190" x2="403" y2="232" gradientUnits="userSpaceOnUse">
<stop stop-color="#1F69FF"/>
<stop offset="1" stop-color="#1F69FF" stop-opacity="0"/>
</linearGradient>
<linearGradient id="paint16_linear_1_4" x1="403" y1="314" x2="403" y2="356" gradientUnits="userSpaceOnUse">
<stop stop-color="#1F69FF"/>
<stop offset="1" stop-color="#1F69FF" stop-opacity="0"/>
</linearGradient>
<linearGradient id="paint17_linear_1_4" x1="301" y1="92" x2="301" y2="134" gradientUnits="userSpaceOnUse">
<stop stop-color="#1F69FF"/>
<stop offset="1" stop-color="#1F69FF" stop-opacity="0"/>
</linearGradient>
<linearGradient id="paint18_linear_1_4" x1="459" y1="25" x2="459" y2="67" gradientUnits="userSpaceOnUse">
<stop stop-color="#1F69FF"/>
<stop offset="1" stop-color="#1F69FF" stop-opacity="0"/>
</linearGradient>
<linearGradient id="paint19_linear_1_4" x1="301" y1="141" x2="301" y2="178.333" gradientUnits="userSpaceOnUse">
<stop stop-color="#9B51E0"/>
<stop offset="1" stop-color="#9B51E0" stop-opacity="0"/>
</linearGradient>
<linearGradient id="paint20_linear_1_4" x1="301" y1="190" x2="301" y2="232" gradientUnits="userSpaceOnUse">
<stop stop-color="#1F69FF"/>
<stop offset="1" stop-color="#1F69FF" stop-opacity="0"/>
</linearGradient>
<linearGradient id="paint21_linear_1_4" x1="301" y1="314" x2="301" y2="356" gradientUnits="userSpaceOnUse">
<stop stop-color="#1F69FF"/>
<stop offset="1" stop-color="#1F69FF" stop-opacity="0"/>
</linearGradient>
<linearGradient id="paint22_linear_1_4" x1="437" y1="92" x2="437" y2="134" gradientUnits="userSpaceOnUse">
<stop stop-color="#1F69FF"/>
<stop offset="1" stop-color="#1F69FF" stop-opacity="0"/>
</linearGradient>
<linearGradient id="paint23_linear_1_4" x1="437" y1="141" x2="437" y2="183" gradientUnits="userSpaceOnUse">
<stop stop-color="#1F69FF"/>
<stop offset="1" stop-color="#1F69FF" stop-opacity="0"/>
</linearGradient>
<linearGradient id="paint24_linear_1_4" x1="437" y1="190" x2="437" y2="232" gradientUnits="userSpaceOnUse">
<stop stop-color="#1F69FF"/>
<stop offset="1" stop-color="#1F69FF" stop-opacity="0"/>
</linearGradient>
<linearGradient id="paint25_linear_1_4" x1="437" y1="314" x2="437" y2="356" gradientUnits="userSpaceOnUse">
<stop stop-color="#1F69FF"/>
<stop offset="1" stop-color="#1F69FF" stop-opacity="0"/>
</linearGradient>
<linearGradient id="paint26_linear_1_4" x1="335" y1="92" x2="335" y2="134" gradientUnits="userSpaceOnUse">
<stop stop-color="#1F69FF"/>
<stop offset="1" stop-color="#1F69FF" stop-opacity="0"/>
</linearGradient>
<linearGradient id="paint27_linear_1_4" x1="335" y1="141" x2="335" y2="183" gradientUnits="userSpaceOnUse">
<stop stop-color="#1F69FF"/>
<stop offset="1" stop-color="#1F69FF" stop-opacity="0"/>
</linearGradient>
<linearGradient id="paint28_linear_1_4" x1="335" y1="190" x2="335" y2="227.333" gradientUnits="userSpaceOnUse">
<stop stop-color="#9B51E0"/>
<stop offset="1" stop-color="#9B51E0" stop-opacity="0"/>
</linearGradient>
<linearGradient id="paint29_linear_1_4" x1="335" y1="314" x2="335" y2="356" gradientUnits="userSpaceOnUse">
<stop stop-color="#1F69FF"/>
<stop offset="1" stop-color="#1F69FF" stop-opacity="0"/>
</linearGradient>
<linearGradient id="paint30_linear_1_4" x1="471" y1="92" x2="471" y2="134" gradientUnits="userSpaceOnUse">
<stop stop-color="#1F69FF"/>
<stop offset="1" stop-color="#1F69FF" stop-opacity="0"/>
</linearGradient>
<linearGradient id="paint31_linear_1_4" x1="471" y1="141" x2="471" y2="183" gradientUnits="userSpaceOnUse">
<stop stop-color="#1F69FF"/>
<stop offset="1" stop-color="#1F69FF" stop-opacity="0"/>
</linearGradient>
<linearGradient id="paint32_linear_1_4" x1="471" y1="190" x2="471" y2="232" gradientUnits="userSpaceOnUse">
<stop stop-color="#1F69FF"/>
<stop offset="1" stop-color="#1F69FF" stop-opacity="0"/>
</linearGradient>
<linearGradient id="paint33_linear_1_4" x1="471" y1="314" x2="471" y2="356" gradientUnits="userSpaceOnUse">
<stop stop-color="#1F69FF"/>
<stop offset="1" stop-color="#1F69FF" stop-opacity="0"/>
</linearGradient>
<linearGradient id="paint34_linear_1_4" x1="539" y1="92" x2="539" y2="134" gradientUnits="userSpaceOnUse">
<stop stop-color="#1F69FF"/>
<stop offset="1" stop-color="#1F69FF" stop-opacity="0"/>
</linearGradient>
<linearGradient id="paint35_linear_1_4" x1="539" y1="141" x2="539" y2="183" gradientUnits="userSpaceOnUse">
<stop stop-color="#1F69FF"/>
<stop offset="1" stop-color="#1F69FF" stop-opacity="0"/>
</linearGradient>
<linearGradient id="paint36_linear_1_4" x1="539" y1="190" x2="539" y2="232" gradientUnits="userSpaceOnUse">
<stop stop-color="#1F69FF"/>
<stop offset="1" stop-color="#1F69FF" stop-opacity="0"/>
</linearGradient>
<linearGradient id="paint37_linear_1_4" x1="539" y1="314" x2="539" y2="351.333" gradientUnits="userSpaceOnUse">
<stop stop-color="#9B51E0"/>
<stop offset="1" stop-color="#9B51E0" stop-opacity="0"/>
</linearGradient>
<linearGradient id="paint38_linear_1_4" x1="369" y1="92" x2="369" y2="134" gradientUnits="userSpaceOnUse">
<stop stop-color="#1F69FF"/>
<stop offset="1" stop-color="#1F69FF" stop-opacity="0"/>
</linearGradient>
<linearGradient id="paint39_linear_1_4" x1="369" y1="141" x2="369" y2="183" gradientUnits="userSpaceOnUse">
<stop stop-color="#1F69FF"/>
<stop offset="1" stop-color="#1F69FF" stop-opacity="0"/>
</linearGradient>
<linearGradient id="paint40_linear_1_4" x1="369" y1="190" x2="369" y2="227.333" gradientUnits="userSpaceOnUse">
<stop stop-color="#9B51E0"/>
<stop offset="1" stop-color="#9B51E0" stop-opacity="0"/>
</linearGradient>
<linearGradient id="paint41_linear_1_4" x1="369" y1="314" x2="369" y2="356" gradientUnits="userSpaceOnUse">
<stop stop-color="#1F69FF"/>
<stop offset="1" stop-color="#1F69FF" stop-opacity="0"/>
</linearGradient>
<linearGradient id="paint42_linear_1_4" x1="505" y1="92" x2="505" y2="134" gradientUnits="userSpaceOnUse">
<stop stop-color="#1F69FF"/>
<stop offset="1" stop-color="#1F69FF" stop-opacity="0"/>
</linearGradient>
<linearGradient id="paint43_linear_1_4" x1="505" y1="141" x2="505" y2="183" gradientUnits="userSpaceOnUse">
<stop stop-color="#1F69FF"/>
<stop offset="1" stop-color="#1F69FF" stop-opacity="0"/>
</linearGradient>
<linearGradient id="paint44_linear_1_4" x1="505" y1="190" x2="505" y2="232" gradientUnits="userSpaceOnUse">
<stop stop-color="#1F69FF"/>
<stop offset="1" stop-color="#1F69FF" stop-opacity="0"/>
</linearGradient>
<linearGradient id="paint45_linear_1_4" x1="505" y1="314" x2="505" y2="356" gradientUnits="userSpaceOnUse">
<stop stop-color="#1F69FF"/>
<stop offset="1" stop-color="#1F69FF" stop-opacity="0"/>
</linearGradient>
<linearGradient id="paint46_linear_1_4" x1="573" y1="92" x2="573" y2="134" gradientUnits="userSpaceOnUse">
<stop stop-color="#1F69FF"/>
<stop offset="1" stop-color="#1F69FF" stop-opacity="0"/>
</linearGradient>
<linearGradient id="paint47_linear_1_4" x1="573" y1="141" x2="573" y2="183" gradientUnits="userSpaceOnUse">
<stop stop-color="#1F69FF"/>
<stop offset="1" stop-color="#1F69FF" stop-opacity="0"/>
</linearGradient>
<linearGradient id="paint48_linear_1_4" x1="573" y1="190" x2="573" y2="232" gradientUnits="userSpaceOnUse">
<stop stop-color="#1F69FF"/>
<stop offset="1" stop-color="#1F69FF" stop-opacity="0"/>
</linearGradient>
<linearGradient id="paint49_linear_1_4" x1="573" y1="314" x2="573" y2="351.333" gradientUnits="userSpaceOnUse">
<stop stop-color="#9B51E0"/>
<stop offset="1" stop-color="#9B51E0" stop-opacity="0"/>
</linearGradient>
</defs>
</svg>
