<svg width="577" height="338" viewBox="0 0 577 338" fill="none" xmlns="http://www.w3.org/2000/svg">
<rect width="577" height="338" fill="white"/>
<rect x="15" y="20" width="150" height="46" fill="url(#paint0_linear_1_6)" fill-opacity="0.2"/>
<rect x="15.5" y="20.5" width="149" height="45" stroke="#9B51E0" stroke-opacity="0.5"/>
<path d="M52.328 49V38.536H55.624C56.4027 38.536 57.096 38.6373 57.704 38.84C58.312 39.0427 58.792 39.3787 59.144 39.848C59.496 40.3173 59.672 40.9573 59.672 41.768C59.672 42.536 59.496 43.1707 59.144 43.672C58.792 44.1733 58.3173 44.5467 57.72 44.792C57.1227 45.0373 56.4453 45.16 55.688 45.16H54.184V49H52.328ZM54.184 43.672H55.544C57.08 43.672 57.848 43.0373 57.848 41.768C57.848 41.1067 57.6453 40.6533 57.24 40.408C56.8453 40.152 56.2587 40.024 55.48 40.024H54.184V43.672ZM62.7751 49.192C62.0925 49.192 61.5325 48.9787 61.0951 48.552C60.6685 48.1253 60.4551 47.5707 60.4551 46.888C60.4551 46.0453 60.8231 45.3947 61.5591 44.936C62.2951 44.4667 63.4685 44.1467 65.0791 43.976C65.0685 43.56 64.9565 43.2027 64.7431 42.904C64.5405 42.5947 64.1725 42.44 63.6391 42.44C63.2551 42.44 62.8765 42.5147 62.5031 42.664C62.1405 42.8133 61.7831 42.9947 61.4311 43.208L60.7591 41.976C61.1965 41.6987 61.6871 41.4587 62.2311 41.256C62.7858 41.0533 63.3725 40.952 63.9911 40.952C64.9725 40.952 65.7031 41.2453 66.1831 41.832C66.6738 42.408 66.9191 43.2453 66.9191 44.344V49H65.3991L65.2711 48.136H65.2071C64.8551 48.4347 64.4765 48.6853 64.0711 48.888C63.6765 49.0907 63.2445 49.192 62.7751 49.192ZM63.3671 47.752C63.6871 47.752 63.9751 47.6773 64.2311 47.528C64.4978 47.368 64.7805 47.1547 65.0791 46.888V45.128C64.0125 45.2667 63.2711 45.4747 62.8551 45.752C62.4391 46.0187 62.2311 46.3493 62.2311 46.744C62.2311 47.096 62.3378 47.352 62.5511 47.512C62.7645 47.672 63.0365 47.752 63.3671 47.752ZM69.1211 49V41.144H70.6411L70.7691 42.536H70.8331C71.1105 42.024 71.4465 41.6347 71.8411 41.368C72.2358 41.0907 72.6411 40.952 73.0571 40.952C73.4305 40.952 73.7291 41.0053 73.9531 41.112L73.6331 42.712C73.4945 42.6693 73.3665 42.6373 73.2491 42.616C73.1318 42.5947 72.9878 42.584 72.8171 42.584C72.5078 42.584 72.1825 42.7067 71.8411 42.952C71.4998 43.1867 71.2065 43.6027 70.9611 44.2V49H69.1211ZM76.572 49.192C75.8893 49.192 75.3293 48.9787 74.892 48.552C74.4653 48.1253 74.252 47.5707 74.252 46.888C74.252 46.0453 74.62 45.3947 75.356 44.936C76.092 44.4667 77.2653 44.1467 78.876 43.976C78.8653 43.56 78.7533 43.2027 78.54 42.904C78.3373 42.5947 77.9693 42.44 77.436 42.44C77.052 42.44 76.6733 42.5147 76.3 42.664C75.9373 42.8133 75.58 42.9947 75.228 43.208L74.556 41.976C74.9933 41.6987 75.484 41.4587 76.028 41.256C76.5827 41.0533 77.1693 40.952 77.788 40.952C78.7693 40.952 79.5 41.2453 79.98 41.832C80.4707 42.408 80.716 43.2453 80.716 44.344V49H79.196L79.068 48.136H79.004C78.652 48.4347 78.2733 48.6853 77.868 48.888C77.4733 49.0907 77.0413 49.192 76.572 49.192ZM77.164 47.752C77.484 47.752 77.772 47.6773 78.028 47.528C78.2947 47.368 78.5773 47.1547 78.876 46.888V45.128C77.8093 45.2667 77.068 45.4747 76.652 45.752C76.236 46.0187 76.028 46.3493 76.028 46.744C76.028 47.096 76.1347 47.352 76.348 47.512C76.5613 47.672 76.8333 47.752 77.164 47.752ZM82.918 49V41.144H84.438L84.566 42.216H84.63C84.9607 41.864 85.318 41.5653 85.702 41.32C86.0967 41.0747 86.5393 40.952 87.03 40.952C87.606 40.952 88.0647 41.08 88.406 41.336C88.758 41.5813 89.0247 41.9227 89.206 42.36C89.5793 41.9547 89.9687 41.6187 90.374 41.352C90.79 41.0853 91.2433 40.952 91.734 40.952C92.566 40.952 93.1793 41.224 93.574 41.768C93.9687 42.312 94.166 43.08 94.166 44.072V49H92.31V44.312C92.31 43.6613 92.2087 43.2027 92.006 42.936C91.814 42.6693 91.5153 42.536 91.11 42.536C90.6193 42.536 90.07 42.8613 89.462 43.512V49H87.622V44.312C87.622 43.6613 87.5207 43.2027 87.318 42.936C87.126 42.6693 86.822 42.536 86.406 42.536C85.9153 42.536 85.366 42.8613 84.758 43.512V49H82.918ZM99.7624 49.192C99.037 49.192 98.381 49.032 97.7944 48.712C97.2077 48.3813 96.7437 47.912 96.4024 47.304C96.061 46.6853 95.8904 45.944 95.8904 45.08C95.8904 44.2267 96.061 43.4907 96.4024 42.872C96.7544 42.2533 97.2077 41.7787 97.7624 41.448C98.317 41.1173 98.8984 40.952 99.5064 40.952C100.221 40.952 100.818 41.112 101.298 41.432C101.778 41.7413 102.141 42.1787 102.386 42.744C102.632 43.2987 102.754 43.944 102.754 44.68C102.754 45.064 102.728 45.3627 102.674 45.576H97.6824C97.7677 46.2693 98.0184 46.808 98.4344 47.192C98.8504 47.576 99.373 47.768 100.002 47.768C100.344 47.768 100.658 47.72 100.946 47.624C101.245 47.5173 101.538 47.3733 101.826 47.192L102.45 48.344C102.077 48.5893 101.661 48.792 101.202 48.952C100.744 49.112 100.264 49.192 99.7624 49.192ZM97.6664 44.328H101.154C101.154 43.72 101.021 43.2453 100.754 42.904C100.488 42.552 100.088 42.376 99.5544 42.376C99.0957 42.376 98.685 42.5467 98.3224 42.888C97.9704 43.2187 97.7517 43.6987 97.6664 44.328ZM107.124 49.192C106.217 49.192 105.572 48.9307 105.188 48.408C104.814 47.8747 104.628 47.1867 104.628 46.344V42.6H103.508V41.224L104.724 41.144L104.948 39H106.484V41.144H108.484V42.6H106.484V46.344C106.484 47.2613 106.852 47.72 107.588 47.72C107.726 47.72 107.87 47.704 108.02 47.672C108.169 47.6293 108.297 47.5867 108.404 47.544L108.724 48.904C108.51 48.9787 108.265 49.0427 107.988 49.096C107.721 49.16 107.433 49.192 107.124 49.192ZM113.247 49.192C112.521 49.192 111.865 49.032 111.279 48.712C110.692 48.3813 110.228 47.912 109.887 47.304C109.545 46.6853 109.375 45.944 109.375 45.08C109.375 44.2267 109.545 43.4907 109.887 42.872C110.239 42.2533 110.692 41.7787 111.247 41.448C111.801 41.1173 112.383 40.952 112.991 40.952C113.705 40.952 114.303 41.112 114.783 41.432C115.263 41.7413 115.625 42.1787 115.871 42.744C116.116 43.2987 116.239 43.944 116.239 44.68C116.239 45.064 116.212 45.3627 116.159 45.576H111.167C111.252 46.2693 111.503 46.808 111.919 47.192C112.335 47.576 112.857 47.768 113.487 47.768C113.828 47.768 114.143 47.72 114.431 47.624C114.729 47.5173 115.023 47.3733 115.311 47.192L115.935 48.344C115.561 48.5893 115.145 48.792 114.687 48.952C114.228 49.112 113.748 49.192 113.247 49.192ZM111.151 44.328H114.639C114.639 43.72 114.505 43.2453 114.239 42.904C113.972 42.552 113.572 42.376 113.039 42.376C112.58 42.376 112.169 42.5467 111.807 42.888C111.455 43.2187 111.236 43.6987 111.151 44.328ZM117.996 49V41.144H119.516L119.644 42.536H119.708C119.985 42.024 120.321 41.6347 120.716 41.368C121.111 41.0907 121.516 40.952 121.932 40.952C122.305 40.952 122.604 41.0053 122.828 41.112L122.508 42.712C122.369 42.6693 122.241 42.6373 122.124 42.616C122.007 42.5947 121.863 42.584 121.692 42.584C121.383 42.584 121.057 42.7067 120.716 42.952C120.375 43.1867 120.081 43.6027 119.836 44.2V49H117.996ZM126.063 49.192C125.53 49.192 124.996 49.0907 124.463 48.888C123.93 48.6747 123.471 48.4133 123.087 48.104L123.951 46.92C124.303 47.1867 124.655 47.4 125.007 47.56C125.359 47.72 125.732 47.8 126.127 47.8C126.554 47.8 126.868 47.7093 127.071 47.528C127.274 47.3467 127.375 47.1227 127.375 46.856C127.375 46.632 127.29 46.4507 127.119 46.312C126.959 46.1627 126.751 46.0347 126.495 45.928C126.239 45.8107 125.972 45.6987 125.695 45.592C125.354 45.464 125.012 45.3093 124.671 45.128C124.34 44.936 124.068 44.696 123.855 44.408C123.642 44.1093 123.535 43.7413 123.535 43.304C123.535 42.6107 123.791 42.0453 124.303 41.608C124.815 41.1707 125.508 40.952 126.383 40.952C126.938 40.952 127.434 41.048 127.871 41.24C128.308 41.432 128.687 41.6507 129.007 41.896L128.159 43.016C127.882 42.8133 127.599 42.6533 127.311 42.536C127.034 42.408 126.74 42.344 126.431 42.344C126.036 42.344 125.743 42.4293 125.551 42.6C125.359 42.76 125.263 42.9627 125.263 43.208C125.263 43.5173 125.423 43.752 125.743 43.912C126.063 44.072 126.436 44.2267 126.863 44.376C127.226 44.504 127.578 44.664 127.919 44.856C128.26 45.0373 128.543 45.2773 128.767 45.576C129.002 45.8747 129.119 46.2693 129.119 46.76C129.119 47.432 128.858 48.008 128.335 48.488C127.812 48.9573 127.055 49.192 126.063 49.192Z" fill="#232A3D"/>
<rect x="214" y="107" width="150" height="46" fill="url(#paint1_linear_1_6)" fill-opacity="0.2"/>
<rect x="214.5" y="107.5" width="149" height="45" stroke="#9B51E0" stroke-opacity="0.5"/>
<path d="M246.44 135V126.104H243.416V124.536H251.32V126.104H248.296V135H246.44ZM252.199 135V127.144H253.719L253.847 128.536H253.911C254.189 128.024 254.525 127.635 254.919 127.368C255.314 127.091 255.719 126.952 256.135 126.952C256.509 126.952 256.807 127.005 257.031 127.112L256.711 128.712C256.573 128.669 256.445 128.637 256.327 128.616C256.21 128.595 256.066 128.584 255.895 128.584C255.586 128.584 255.261 128.707 254.919 128.952C254.578 129.187 254.285 129.603 254.039 130.2V135H252.199ZM259.65 135.192C258.967 135.192 258.407 134.979 257.97 134.552C257.543 134.125 257.33 133.571 257.33 132.888C257.33 132.045 257.698 131.395 258.434 130.936C259.17 130.467 260.343 130.147 261.954 129.976C261.943 129.56 261.831 129.203 261.618 128.904C261.415 128.595 261.047 128.44 260.514 128.44C260.13 128.44 259.751 128.515 259.378 128.664C259.015 128.813 258.658 128.995 258.306 129.208L257.634 127.976C258.071 127.699 258.562 127.459 259.106 127.256C259.661 127.053 260.247 126.952 260.866 126.952C261.847 126.952 262.578 127.245 263.058 127.832C263.549 128.408 263.794 129.245 263.794 130.344V135H262.274L262.146 134.136H262.082C261.73 134.435 261.351 134.685 260.946 134.888C260.551 135.091 260.119 135.192 259.65 135.192ZM260.242 133.752C260.562 133.752 260.85 133.677 261.106 133.528C261.373 133.368 261.655 133.155 261.954 132.888V131.128C260.887 131.267 260.146 131.475 259.73 131.752C259.314 132.019 259.106 132.349 259.106 132.744C259.106 133.096 259.213 133.352 259.426 133.512C259.639 133.672 259.911 133.752 260.242 133.752ZM265.996 135V127.144H267.836V135H265.996ZM266.924 125.768C266.593 125.768 266.327 125.672 266.124 125.48C265.921 125.288 265.82 125.032 265.82 124.712C265.82 124.403 265.921 124.152 266.124 123.96C266.327 123.768 266.593 123.672 266.924 123.672C267.255 123.672 267.521 123.768 267.724 123.96C267.927 124.152 268.028 124.403 268.028 124.712C268.028 125.032 267.927 125.288 267.724 125.48C267.521 125.672 267.255 125.768 266.924 125.768ZM270.184 135V127.144H271.704L271.832 128.2H271.896C272.248 127.859 272.632 127.565 273.048 127.32C273.464 127.075 273.938 126.952 274.472 126.952C275.314 126.952 275.928 127.224 276.312 127.768C276.696 128.312 276.888 129.08 276.888 130.072V135H275.048V130.312C275.048 129.661 274.952 129.203 274.76 128.936C274.568 128.669 274.253 128.536 273.816 128.536C273.474 128.536 273.17 128.621 272.904 128.792C272.648 128.952 272.354 129.192 272.024 129.512V135H270.184ZM279.137 135V127.144H280.977V135H279.137ZM280.065 125.768C279.734 125.768 279.467 125.672 279.265 125.48C279.062 125.288 278.961 125.032 278.961 124.712C278.961 124.403 279.062 124.152 279.265 123.96C279.467 123.768 279.734 123.672 280.065 123.672C280.395 123.672 280.662 123.768 280.865 123.96C281.067 124.152 281.169 124.403 281.169 124.712C281.169 125.032 281.067 125.288 280.865 125.48C280.662 125.672 280.395 125.768 280.065 125.768ZM283.324 135V127.144H284.844L284.972 128.2H285.036C285.388 127.859 285.772 127.565 286.188 127.32C286.604 127.075 287.079 126.952 287.612 126.952C288.455 126.952 289.068 127.224 289.452 127.768C289.836 128.312 290.028 129.08 290.028 130.072V135H288.188V130.312C288.188 129.661 288.092 129.203 287.9 128.936C287.708 128.669 287.394 128.536 286.956 128.536C286.615 128.536 286.311 128.621 286.044 128.792C285.788 128.952 285.495 129.192 285.164 129.512V135H283.324ZM295.013 138.472C294.395 138.472 293.835 138.397 293.333 138.248C292.843 138.099 292.453 137.869 292.165 137.56C291.888 137.261 291.749 136.883 291.749 136.424C291.749 135.773 292.123 135.213 292.869 134.744V134.68C292.667 134.552 292.496 134.381 292.357 134.168C292.229 133.955 292.165 133.688 292.165 133.368C292.165 133.059 292.251 132.781 292.421 132.536C292.603 132.28 292.805 132.072 293.029 131.912V131.848C292.763 131.645 292.523 131.363 292.309 131C292.107 130.637 292.005 130.227 292.005 129.768C292.005 129.16 292.149 128.648 292.437 128.232C292.725 127.816 293.104 127.501 293.573 127.288C294.053 127.064 294.565 126.952 295.109 126.952C295.323 126.952 295.525 126.973 295.717 127.016C295.92 127.048 296.101 127.091 296.261 127.144H299.077V128.504H297.637C297.765 128.653 297.872 128.845 297.957 129.08C298.043 129.304 298.085 129.555 298.085 129.832C298.085 130.408 297.952 130.899 297.685 131.304C297.419 131.699 297.061 131.997 296.613 132.2C296.165 132.403 295.664 132.504 295.109 132.504C294.939 132.504 294.763 132.488 294.581 132.456C294.4 132.424 294.219 132.371 294.037 132.296C293.92 132.403 293.824 132.509 293.749 132.616C293.685 132.723 293.653 132.867 293.653 133.048C293.653 133.272 293.744 133.448 293.925 133.576C294.117 133.704 294.453 133.768 294.933 133.768H296.325C297.275 133.768 297.989 133.923 298.469 134.232C298.96 134.531 299.205 135.021 299.205 135.704C299.205 136.216 299.035 136.68 298.693 137.096C298.352 137.523 297.867 137.859 297.237 138.104C296.608 138.349 295.867 138.472 295.013 138.472ZM295.109 131.352C295.483 131.352 295.803 131.213 296.069 130.936C296.336 130.659 296.469 130.269 296.469 129.768C296.469 129.277 296.336 128.899 296.069 128.632C295.813 128.355 295.493 128.216 295.109 128.216C294.725 128.216 294.4 128.349 294.133 128.616C293.867 128.883 293.733 129.267 293.733 129.768C293.733 130.269 293.867 130.659 294.133 130.936C294.4 131.213 294.725 131.352 295.109 131.352ZM295.301 137.272C295.931 137.272 296.443 137.144 296.837 136.888C297.232 136.632 297.429 136.339 297.429 136.008C297.429 135.699 297.307 135.491 297.061 135.384C296.827 135.277 296.485 135.224 296.037 135.224H294.965C294.539 135.224 294.181 135.187 293.893 135.112C293.488 135.421 293.285 135.768 293.285 136.152C293.285 136.504 293.467 136.776 293.829 136.968C294.192 137.171 294.683 137.272 295.301 137.272ZM306.545 135.192C305.564 135.192 304.78 134.829 304.193 134.104C303.606 133.379 303.313 132.371 303.313 131.08C303.313 130.227 303.468 129.491 303.777 128.872C304.097 128.253 304.513 127.779 305.025 127.448C305.537 127.117 306.076 126.952 306.641 126.952C307.089 126.952 307.468 127.032 307.777 127.192C308.097 127.341 308.406 127.549 308.705 127.816L308.641 126.552V123.704H310.481V135H308.961L308.833 134.152H308.769C308.481 134.44 308.145 134.685 307.761 134.888C307.377 135.091 306.972 135.192 306.545 135.192ZM306.993 133.672C307.58 133.672 308.129 133.379 308.641 132.792V129.128C308.374 128.883 308.108 128.712 307.841 128.616C307.574 128.52 307.308 128.472 307.041 128.472C306.54 128.472 306.108 128.701 305.745 129.16C305.393 129.608 305.217 130.243 305.217 131.064C305.217 131.907 305.372 132.552 305.681 133C305.99 133.448 306.428 133.672 306.993 133.672ZM314.728 135.192C314.046 135.192 313.486 134.979 313.048 134.552C312.622 134.125 312.408 133.571 312.408 132.888C312.408 132.045 312.776 131.395 313.512 130.936C314.248 130.467 315.422 130.147 317.032 129.976C317.022 129.56 316.91 129.203 316.696 128.904C316.494 128.595 316.126 128.44 315.592 128.44C315.208 128.44 314.83 128.515 314.456 128.664C314.094 128.813 313.736 128.995 313.384 129.208L312.712 127.976C313.15 127.699 313.64 127.459 314.184 127.256C314.739 127.053 315.326 126.952 315.944 126.952C316.926 126.952 317.656 127.245 318.136 127.832C318.627 128.408 318.872 129.245 318.872 130.344V135H317.352L317.224 134.136H317.16C316.808 134.435 316.43 134.685 316.024 134.888C315.63 135.091 315.198 135.192 314.728 135.192ZM315.32 133.752C315.64 133.752 315.928 133.677 316.184 133.528C316.451 133.368 316.734 133.155 317.032 132.888V131.128C315.966 131.267 315.224 131.475 314.808 131.752C314.392 132.019 314.184 132.349 314.184 132.744C314.184 133.096 314.291 133.352 314.504 133.512C314.718 133.672 314.99 133.752 315.32 133.752ZM323.592 135.192C322.686 135.192 322.04 134.931 321.656 134.408C321.283 133.875 321.096 133.187 321.096 132.344V128.6H319.976V127.224L321.192 127.144L321.416 125H322.952V127.144H324.952V128.6H322.952V132.344C322.952 133.261 323.32 133.72 324.056 133.72C324.195 133.72 324.339 133.704 324.488 133.672C324.638 133.629 324.766 133.587 324.872 133.544L325.192 134.904C324.979 134.979 324.734 135.043 324.456 135.096C324.19 135.16 323.902 135.192 323.592 135.192ZM328.166 135.192C327.483 135.192 326.923 134.979 326.486 134.552C326.059 134.125 325.846 133.571 325.846 132.888C325.846 132.045 326.214 131.395 326.95 130.936C327.686 130.467 328.859 130.147 330.47 129.976C330.459 129.56 330.347 129.203 330.134 128.904C329.931 128.595 329.563 128.44 329.03 128.44C328.646 128.44 328.267 128.515 327.894 128.664C327.531 128.813 327.174 128.995 326.822 129.208L326.15 127.976C326.587 127.699 327.078 127.459 327.622 127.256C328.176 127.053 328.763 126.952 329.382 126.952C330.363 126.952 331.094 127.245 331.574 127.832C332.064 128.408 332.31 129.245 332.31 130.344V135H330.79L330.662 134.136H330.598C330.246 134.435 329.867 134.685 329.462 134.888C329.067 135.091 328.635 135.192 328.166 135.192ZM328.758 133.752C329.078 133.752 329.366 133.677 329.622 133.528C329.888 133.368 330.171 133.155 330.47 132.888V131.128C329.403 131.267 328.662 131.475 328.246 131.752C327.83 132.019 327.622 132.349 327.622 132.744C327.622 133.096 327.728 133.352 327.942 133.512C328.155 133.672 328.427 133.752 328.758 133.752Z" fill="#232A3D"/>
<rect x="315" y="20" width="150" height="46" fill="url(#paint2_linear_1_6)" fill-opacity="0.2"/>
<rect x="315.5" y="20.5" width="149" height="45" stroke="#9B51E0" stroke-opacity="0.5"/>
<path d="M367.328 49V38.536H370.128C371.728 38.536 372.976 38.968 373.872 39.832C374.768 40.696 375.216 41.992 375.216 43.72C375.216 45.4587 374.773 46.776 373.888 47.672C373.003 48.5573 371.781 49 370.224 49H367.328ZM369.184 47.496H370C371.056 47.496 371.872 47.192 372.448 46.584C373.024 45.9653 373.312 45.0107 373.312 43.72C373.312 42.44 373.024 41.5067 372.448 40.92C371.872 40.3333 371.056 40.04 370 40.04H369.184V47.496ZM379.072 49.192C378.389 49.192 377.829 48.9787 377.392 48.552C376.965 48.1253 376.752 47.5707 376.752 46.888C376.752 46.0453 377.12 45.3947 377.856 44.936C378.592 44.4667 379.765 44.1467 381.376 43.976C381.365 43.56 381.253 43.2027 381.04 42.904C380.837 42.5947 380.469 42.44 379.936 42.44C379.552 42.44 379.173 42.5147 378.8 42.664C378.437 42.8133 378.08 42.9947 377.728 43.208L377.056 41.976C377.493 41.6987 377.984 41.4587 378.528 41.256C379.083 41.0533 379.669 40.952 380.288 40.952C381.269 40.952 382 41.2453 382.48 41.832C382.971 42.408 383.216 43.2453 383.216 44.344V49H381.696L381.568 48.136H381.504C381.152 48.4347 380.773 48.6853 380.368 48.888C379.973 49.0907 379.541 49.192 379.072 49.192ZM379.664 47.752C379.984 47.752 380.272 47.6773 380.528 47.528C380.795 47.368 381.077 47.1547 381.376 46.888V45.128C380.309 45.2667 379.568 45.4747 379.152 45.752C378.736 46.0187 378.528 46.3493 378.528 46.744C378.528 47.096 378.635 47.352 378.848 47.512C379.061 47.672 379.333 47.752 379.664 47.752ZM387.936 49.192C387.029 49.192 386.384 48.9307 386 48.408C385.627 47.8747 385.44 47.1867 385.44 46.344V42.6H384.32V41.224L385.536 41.144L385.76 39H387.296V41.144H389.296V42.6H387.296V46.344C387.296 47.2613 387.664 47.72 388.4 47.72C388.539 47.72 388.683 47.704 388.832 47.672C388.981 47.6293 389.109 47.5867 389.216 47.544L389.536 48.904C389.323 48.9787 389.077 49.0427 388.8 49.096C388.533 49.16 388.245 49.192 387.936 49.192ZM392.51 49.192C391.827 49.192 391.267 48.9787 390.83 48.552C390.403 48.1253 390.19 47.5707 390.19 46.888C390.19 46.0453 390.558 45.3947 391.294 44.936C392.03 44.4667 393.203 44.1467 394.814 43.976C394.803 43.56 394.691 43.2027 394.478 42.904C394.275 42.5947 393.907 42.44 393.374 42.44C392.99 42.44 392.611 42.5147 392.238 42.664C391.875 42.8133 391.518 42.9947 391.166 43.208L390.493 41.976C390.931 41.6987 391.422 41.4587 391.966 41.256C392.52 41.0533 393.107 40.952 393.726 40.952C394.707 40.952 395.438 41.2453 395.918 41.832C396.408 42.408 396.654 43.2453 396.654 44.344V49H395.134L395.006 48.136H394.942C394.59 48.4347 394.211 48.6853 393.806 48.888C393.411 49.0907 392.979 49.192 392.51 49.192ZM393.102 47.752C393.422 47.752 393.71 47.6773 393.966 47.528C394.232 47.368 394.515 47.1547 394.814 46.888V45.128C393.747 45.2667 393.006 45.4747 392.59 45.752C392.174 46.0187 391.966 46.3493 391.966 46.744C391.966 47.096 392.072 47.352 392.286 47.512C392.499 47.672 392.771 47.752 393.102 47.752ZM401.048 49.192C400.514 49.192 399.981 49.0907 399.448 48.888C398.914 48.6747 398.456 48.4133 398.072 48.104L398.936 46.92C399.288 47.1867 399.64 47.4 399.992 47.56C400.344 47.72 400.717 47.8 401.112 47.8C401.538 47.8 401.853 47.7093 402.056 47.528C402.258 47.3467 402.36 47.1227 402.36 46.856C402.36 46.632 402.274 46.4507 402.104 46.312C401.944 46.1627 401.736 46.0347 401.48 45.928C401.224 45.8107 400.957 45.6987 400.68 45.592C400.338 45.464 399.997 45.3093 399.656 45.128C399.325 44.936 399.053 44.696 398.84 44.408C398.626 44.1093 398.52 43.7413 398.52 43.304C398.52 42.6107 398.776 42.0453 399.288 41.608C399.8 41.1707 400.493 40.952 401.368 40.952C401.922 40.952 402.418 41.048 402.856 41.24C403.293 41.432 403.672 41.6507 403.992 41.896L403.144 43.016C402.866 42.8133 402.584 42.6533 402.296 42.536C402.018 42.408 401.725 42.344 401.416 42.344C401.021 42.344 400.728 42.4293 400.536 42.6C400.344 42.76 400.248 42.9627 400.248 43.208C400.248 43.5173 400.408 43.752 400.728 43.912C401.048 44.072 401.421 44.2267 401.848 44.376C402.21 44.504 402.562 44.664 402.904 44.856C403.245 45.0373 403.528 45.2773 403.752 45.576C403.986 45.8747 404.104 46.2693 404.104 46.76C404.104 47.432 403.842 48.008 403.32 48.488C402.797 48.9573 402.04 49.192 401.048 49.192ZM409.106 49.192C408.381 49.192 407.725 49.032 407.138 48.712C406.551 48.3813 406.087 47.912 405.746 47.304C405.405 46.6853 405.234 45.944 405.234 45.08C405.234 44.2267 405.405 43.4907 405.746 42.872C406.098 42.2533 406.551 41.7787 407.106 41.448C407.661 41.1173 408.242 40.952 408.85 40.952C409.565 40.952 410.162 41.112 410.642 41.432C411.122 41.7413 411.485 42.1787 411.73 42.744C411.975 43.2987 412.098 43.944 412.098 44.68C412.098 45.064 412.071 45.3627 412.018 45.576H407.026C407.111 46.2693 407.362 46.808 407.778 47.192C408.194 47.576 408.717 47.768 409.346 47.768C409.687 47.768 410.002 47.72 410.29 47.624C410.589 47.5173 410.882 47.3733 411.17 47.192L411.794 48.344C411.421 48.5893 411.005 48.792 410.546 48.952C410.087 49.112 409.607 49.192 409.106 49.192ZM407.01 44.328H410.498C410.498 43.72 410.365 43.2453 410.098 42.904C409.831 42.552 409.431 42.376 408.898 42.376C408.439 42.376 408.029 42.5467 407.666 42.888C407.314 43.2187 407.095 43.6987 407.01 44.328ZM416.467 49.192C415.561 49.192 414.915 48.9307 414.531 48.408C414.158 47.8747 413.971 47.1867 413.971 46.344V42.6H412.851V41.224L414.067 41.144L414.291 39H415.827V41.144H417.827V42.6H415.827V46.344C415.827 47.2613 416.195 47.72 416.931 47.72C417.07 47.72 417.214 47.704 417.363 47.672C417.513 47.6293 417.641 47.5867 417.747 47.544L418.067 48.904C417.854 48.9787 417.609 49.0427 417.331 49.096C417.065 49.16 416.777 49.192 416.467 49.192Z" fill="#232A3D"/>
<rect x="409" y="107" width="150" height="46" fill="url(#paint3_linear_1_6)" fill-opacity="0.2"/>
<rect x="409.5" y="107.5" width="149" height="45" stroke="#9B51E0" stroke-opacity="0.5"/>
<path d="M463.44 134V125.104H460.416V123.536H468.32V125.104H465.296V134H463.44ZM472.122 134.192C471.396 134.192 470.74 134.032 470.154 133.712C469.567 133.381 469.103 132.912 468.762 132.304C468.42 131.685 468.25 130.944 468.25 130.08C468.25 129.227 468.42 128.491 468.762 127.872C469.114 127.253 469.567 126.779 470.122 126.448C470.676 126.117 471.258 125.952 471.866 125.952C472.58 125.952 473.178 126.112 473.658 126.432C474.138 126.741 474.5 127.179 474.746 127.744C474.991 128.299 475.114 128.944 475.114 129.68C475.114 130.064 475.087 130.363 475.034 130.576H470.042C470.127 131.269 470.378 131.808 470.794 132.192C471.21 132.576 471.732 132.768 472.362 132.768C472.703 132.768 473.018 132.72 473.306 132.624C473.604 132.517 473.898 132.373 474.186 132.192L474.81 133.344C474.436 133.589 474.02 133.792 473.562 133.952C473.103 134.112 472.623 134.192 472.122 134.192ZM470.026 129.328H473.514C473.514 128.72 473.38 128.245 473.114 127.904C472.847 127.552 472.447 127.376 471.914 127.376C471.455 127.376 471.044 127.547 470.682 127.888C470.33 128.219 470.111 128.699 470.026 129.328ZM479.063 134.192C478.53 134.192 477.996 134.091 477.463 133.888C476.93 133.675 476.471 133.413 476.087 133.104L476.951 131.92C477.303 132.187 477.655 132.4 478.007 132.56C478.359 132.72 478.732 132.8 479.127 132.8C479.554 132.8 479.868 132.709 480.071 132.528C480.274 132.347 480.375 132.123 480.375 131.856C480.375 131.632 480.29 131.451 480.119 131.312C479.959 131.163 479.751 131.035 479.495 130.928C479.239 130.811 478.972 130.699 478.695 130.592C478.354 130.464 478.012 130.309 477.671 130.128C477.34 129.936 477.068 129.696 476.855 129.408C476.642 129.109 476.535 128.741 476.535 128.304C476.535 127.611 476.791 127.045 477.303 126.608C477.815 126.171 478.508 125.952 479.383 125.952C479.938 125.952 480.434 126.048 480.871 126.24C481.308 126.432 481.687 126.651 482.007 126.896L481.159 128.016C480.882 127.813 480.599 127.653 480.311 127.536C480.034 127.408 479.74 127.344 479.431 127.344C479.036 127.344 478.743 127.429 478.551 127.6C478.359 127.76 478.263 127.963 478.263 128.208C478.263 128.517 478.423 128.752 478.743 128.912C479.063 129.072 479.436 129.227 479.863 129.376C480.226 129.504 480.578 129.664 480.919 129.856C481.26 130.037 481.543 130.277 481.767 130.576C482.002 130.875 482.119 131.269 482.119 131.76C482.119 132.432 481.858 133.008 481.335 133.488C480.812 133.957 480.055 134.192 479.063 134.192ZM486.217 134.192C485.311 134.192 484.665 133.931 484.281 133.408C483.908 132.875 483.721 132.187 483.721 131.344V127.6H482.601V126.224L483.817 126.144L484.041 124H485.577V126.144H487.577V127.6H485.577V131.344C485.577 132.261 485.945 132.72 486.681 132.72C486.82 132.72 486.964 132.704 487.113 132.672C487.263 132.629 487.391 132.587 487.497 132.544L487.817 133.904C487.604 133.979 487.359 134.043 487.081 134.096C486.815 134.16 486.527 134.192 486.217 134.192ZM495.186 134.192C494.204 134.192 493.42 133.829 492.834 133.104C492.247 132.379 491.954 131.371 491.954 130.08C491.954 129.227 492.108 128.491 492.418 127.872C492.738 127.253 493.154 126.779 493.666 126.448C494.178 126.117 494.716 125.952 495.282 125.952C495.73 125.952 496.108 126.032 496.418 126.192C496.738 126.341 497.047 126.549 497.346 126.816L497.282 125.552V122.704H499.122V134H497.602L497.474 133.152H497.41C497.122 133.44 496.786 133.685 496.402 133.888C496.018 134.091 495.612 134.192 495.186 134.192ZM495.634 132.672C496.22 132.672 496.77 132.379 497.282 131.792V128.128C497.015 127.883 496.748 127.712 496.482 127.616C496.215 127.52 495.948 127.472 495.682 127.472C495.18 127.472 494.748 127.701 494.386 128.16C494.034 128.608 493.858 129.243 493.858 130.064C493.858 130.907 494.012 131.552 494.322 132C494.631 132.448 495.068 132.672 495.634 132.672ZM503.369 134.192C502.686 134.192 502.126 133.979 501.689 133.552C501.262 133.125 501.049 132.571 501.049 131.888C501.049 131.045 501.417 130.395 502.153 129.936C502.889 129.467 504.062 129.147 505.673 128.976C505.662 128.56 505.55 128.203 505.337 127.904C505.134 127.595 504.766 127.44 504.233 127.44C503.849 127.44 503.47 127.515 503.097 127.664C502.734 127.813 502.377 127.995 502.025 128.208L501.353 126.976C501.79 126.699 502.281 126.459 502.825 126.256C503.38 126.053 503.966 125.952 504.585 125.952C505.566 125.952 506.297 126.245 506.777 126.832C507.268 127.408 507.513 128.245 507.513 129.344V134H505.993L505.865 133.136H505.801C505.449 133.435 505.07 133.685 504.665 133.888C504.27 134.091 503.838 134.192 503.369 134.192ZM503.961 132.752C504.281 132.752 504.569 132.677 504.825 132.528C505.092 132.368 505.374 132.155 505.673 131.888V130.128C504.606 130.267 503.865 130.475 503.449 130.752C503.033 131.019 502.825 131.349 502.825 131.744C502.825 132.096 502.932 132.352 503.145 132.512C503.358 132.672 503.63 132.752 503.961 132.752ZM512.233 134.192C511.326 134.192 510.681 133.931 510.297 133.408C509.924 132.875 509.737 132.187 509.737 131.344V127.6H508.617V126.224L509.833 126.144L510.057 124H511.593V126.144H513.593V127.6H511.593V131.344C511.593 132.261 511.961 132.72 512.697 132.72C512.836 132.72 512.98 132.704 513.129 132.672C513.278 132.629 513.406 132.587 513.513 132.544L513.833 133.904C513.62 133.979 513.374 134.043 513.097 134.096C512.83 134.16 512.542 134.192 512.233 134.192ZM516.806 134.192C516.124 134.192 515.564 133.979 515.126 133.552C514.7 133.125 514.486 132.571 514.486 131.888C514.486 131.045 514.854 130.395 515.59 129.936C516.326 129.467 517.5 129.147 519.11 128.976C519.1 128.56 518.988 128.203 518.774 127.904C518.572 127.595 518.204 127.44 517.67 127.44C517.286 127.44 516.908 127.515 516.534 127.664C516.172 127.813 515.814 127.995 515.462 128.208L514.79 126.976C515.228 126.699 515.718 126.459 516.262 126.256C516.817 126.053 517.404 125.952 518.022 125.952C519.004 125.952 519.734 126.245 520.214 126.832C520.705 127.408 520.95 128.245 520.95 129.344V134H519.43L519.302 133.136H519.238C518.886 133.435 518.508 133.685 518.102 133.888C517.708 134.091 517.276 134.192 516.806 134.192ZM517.398 132.752C517.718 132.752 518.006 132.677 518.262 132.528C518.529 132.368 518.812 132.155 519.11 131.888V130.128C518.044 130.267 517.302 130.475 516.886 130.752C516.47 131.019 516.262 131.349 516.262 131.744C516.262 132.096 516.369 132.352 516.582 132.512C516.796 132.672 517.068 132.752 517.398 132.752Z" fill="#232A3D"/>
<rect x="315" y="277" width="150" height="46" fill="url(#paint4_linear_1_6)" fill-opacity="0.2"/>
<rect x="315.5" y="277.5" width="149" height="45" stroke="#9B51E0" stroke-opacity="0.5"/>
<path d="M336.328 305V294.536H342.648V296.104H338.184V299.064H341.992V300.632H338.184V305H336.328ZM344.324 305V297.144H346.164V305H344.324ZM345.252 295.768C344.922 295.768 344.655 295.672 344.452 295.48C344.25 295.288 344.148 295.032 344.148 294.712C344.148 294.403 344.25 294.152 344.452 293.96C344.655 293.768 344.922 293.672 345.252 293.672C345.583 293.672 345.85 293.768 346.052 293.96C346.255 294.152 346.356 294.403 346.356 294.712C346.356 295.032 346.255 295.288 346.052 295.48C345.85 295.672 345.583 295.768 345.252 295.768ZM348.512 305V297.144H350.032L350.16 298.2H350.224C350.576 297.859 350.96 297.565 351.376 297.32C351.792 297.075 352.266 296.952 352.8 296.952C353.642 296.952 354.256 297.224 354.64 297.768C355.024 298.312 355.216 299.08 355.216 300.072V305H353.376V300.312C353.376 299.661 353.28 299.203 353.088 298.936C352.896 298.669 352.581 298.536 352.144 298.536C351.802 298.536 351.498 298.621 351.232 298.792C350.976 298.952 350.682 299.192 350.352 299.512V305H348.512ZM359.369 305.192C358.686 305.192 358.126 304.979 357.689 304.552C357.262 304.125 357.049 303.571 357.049 302.888C357.049 302.045 357.417 301.395 358.153 300.936C358.889 300.467 360.062 300.147 361.673 299.976C361.662 299.56 361.55 299.203 361.337 298.904C361.134 298.595 360.766 298.44 360.233 298.44C359.849 298.44 359.47 298.515 359.097 298.664C358.734 298.813 358.377 298.995 358.025 299.208L357.353 297.976C357.79 297.699 358.281 297.459 358.825 297.256C359.38 297.053 359.966 296.952 360.585 296.952C361.566 296.952 362.297 297.245 362.777 297.832C363.268 298.408 363.513 299.245 363.513 300.344V305H361.993L361.865 304.136H361.801C361.449 304.435 361.07 304.685 360.665 304.888C360.27 305.091 359.838 305.192 359.369 305.192ZM359.961 303.752C360.281 303.752 360.569 303.677 360.825 303.528C361.092 303.368 361.374 303.155 361.673 302.888V301.128C360.606 301.267 359.865 301.475 359.449 301.752C359.033 302.019 358.825 302.349 358.825 302.744C358.825 303.096 358.932 303.352 359.145 303.512C359.358 303.672 359.63 303.752 359.961 303.752ZM367.507 305.192C366.856 305.192 366.392 304.995 366.115 304.6C365.848 304.205 365.715 303.667 365.715 302.984V293.704H367.555V303.08C367.555 303.304 367.598 303.464 367.683 303.56C367.768 303.645 367.859 303.688 367.955 303.688C367.998 303.688 368.035 303.688 368.067 303.688C368.11 303.677 368.168 303.667 368.243 303.656L368.483 305.032C368.376 305.075 368.238 305.112 368.067 305.144C367.907 305.176 367.72 305.192 367.507 305.192ZM376.622 305.192C375.896 305.192 375.24 305.032 374.654 304.712C374.067 304.381 373.603 303.912 373.262 303.304C372.92 302.685 372.75 301.944 372.75 301.08C372.75 300.227 372.92 299.491 373.262 298.872C373.614 298.253 374.067 297.779 374.622 297.448C375.176 297.117 375.758 296.952 376.366 296.952C377.08 296.952 377.678 297.112 378.158 297.432C378.638 297.741 379 298.179 379.246 298.744C379.491 299.299 379.614 299.944 379.614 300.68C379.614 301.064 379.587 301.363 379.534 301.576H374.542C374.627 302.269 374.878 302.808 375.294 303.192C375.71 303.576 376.232 303.768 376.862 303.768C377.203 303.768 377.518 303.72 377.806 303.624C378.104 303.517 378.398 303.373 378.686 303.192L379.31 304.344C378.936 304.589 378.52 304.792 378.062 304.952C377.603 305.112 377.123 305.192 376.622 305.192ZM374.526 300.328H378.014C378.014 299.72 377.88 299.245 377.614 298.904C377.347 298.552 376.947 298.376 376.414 298.376C375.955 298.376 375.544 298.547 375.182 298.888C374.83 299.219 374.611 299.699 374.526 300.328ZM383.131 305L380.395 297.144H382.267L383.515 301.224C383.622 301.608 383.728 301.997 383.835 302.392C383.952 302.787 384.064 303.187 384.171 303.592H384.235C384.352 303.187 384.464 302.787 384.571 302.392C384.688 301.997 384.8 301.608 384.907 301.224L386.155 297.144H387.931L385.259 305H383.131ZM390.885 305.192C390.202 305.192 389.642 304.979 389.205 304.552C388.778 304.125 388.565 303.571 388.565 302.888C388.565 302.045 388.933 301.395 389.669 300.936C390.405 300.467 391.578 300.147 393.189 299.976C393.178 299.56 393.066 299.203 392.853 298.904C392.65 298.595 392.282 298.44 391.749 298.44C391.365 298.44 390.986 298.515 390.613 298.664C390.25 298.813 389.893 298.995 389.541 299.208L388.868 297.976C389.306 297.699 389.797 297.459 390.341 297.256C390.895 297.053 391.482 296.952 392.101 296.952C393.082 296.952 393.813 297.245 394.293 297.832C394.783 298.408 395.029 299.245 395.029 300.344V305H393.509L393.381 304.136H393.317C392.965 304.435 392.586 304.685 392.181 304.888C391.786 305.091 391.354 305.192 390.885 305.192ZM391.477 303.752C391.797 303.752 392.085 303.677 392.341 303.528C392.607 303.368 392.89 303.155 393.189 302.888V301.128C392.122 301.267 391.381 301.475 390.965 301.752C390.549 302.019 390.341 302.349 390.341 302.744C390.341 303.096 390.447 303.352 390.661 303.512C390.874 303.672 391.146 303.752 391.477 303.752ZM399.023 305.192C398.372 305.192 397.908 304.995 397.631 304.6C397.364 304.205 397.231 303.667 397.231 302.984V293.704H399.071V303.08C399.071 303.304 399.113 303.464 399.199 303.56C399.284 303.645 399.375 303.688 399.471 303.688C399.513 303.688 399.551 303.688 399.583 303.688C399.625 303.677 399.684 303.667 399.759 303.656L399.999 305.032C399.892 305.075 399.753 305.112 399.583 305.144C399.423 305.176 399.236 305.192 399.023 305.192ZM403.91 305.192C403.068 305.192 402.454 304.92 402.07 304.376C401.686 303.832 401.494 303.064 401.494 302.072V297.144H403.334V301.832C403.334 302.483 403.43 302.941 403.622 303.208C403.814 303.475 404.124 303.608 404.55 303.608C404.892 303.608 405.19 303.523 405.446 303.352C405.713 303.181 405.996 302.904 406.294 302.52V297.144H408.134V305H406.63L406.486 303.848H406.438C406.097 304.253 405.724 304.579 405.318 304.824C404.913 305.069 404.444 305.192 403.91 305.192ZM412.369 305.192C411.686 305.192 411.126 304.979 410.689 304.552C410.262 304.125 410.049 303.571 410.049 302.888C410.049 302.045 410.417 301.395 411.153 300.936C411.889 300.467 413.062 300.147 414.673 299.976C414.662 299.56 414.55 299.203 414.337 298.904C414.134 298.595 413.766 298.44 413.233 298.44C412.849 298.44 412.47 298.515 412.097 298.664C411.734 298.813 411.377 298.995 411.025 299.208L410.353 297.976C410.79 297.699 411.281 297.459 411.825 297.256C412.38 297.053 412.966 296.952 413.585 296.952C414.566 296.952 415.297 297.245 415.777 297.832C416.268 298.408 416.513 299.245 416.513 300.344V305H414.993L414.865 304.136H414.801C414.449 304.435 414.07 304.685 413.665 304.888C413.27 305.091 412.838 305.192 412.369 305.192ZM412.961 303.752C413.281 303.752 413.569 303.677 413.825 303.528C414.092 303.368 414.374 303.155 414.673 302.888V301.128C413.606 301.267 412.865 301.475 412.449 301.752C412.033 302.019 411.825 302.349 411.825 302.744C411.825 303.096 411.932 303.352 412.145 303.512C412.358 303.672 412.63 303.752 412.961 303.752ZM421.233 305.192C420.326 305.192 419.681 304.931 419.297 304.408C418.924 303.875 418.737 303.187 418.737 302.344V298.6H417.617V297.224L418.833 297.144L419.057 295H420.593V297.144H422.593V298.6H420.593V302.344C420.593 303.261 420.961 303.72 421.697 303.72C421.836 303.72 421.98 303.704 422.129 303.672C422.278 303.629 422.406 303.587 422.513 303.544L422.833 304.904C422.62 304.979 422.374 305.043 422.097 305.096C421.83 305.16 421.542 305.192 421.233 305.192ZM424.246 305V297.144H426.086V305H424.246ZM425.174 295.768C424.843 295.768 424.577 295.672 424.374 295.48C424.171 295.288 424.07 295.032 424.07 294.712C424.07 294.403 424.171 294.152 424.374 293.96C424.577 293.768 424.843 293.672 425.174 293.672C425.505 293.672 425.771 293.768 425.974 293.96C426.177 294.152 426.278 294.403 426.278 294.712C426.278 295.032 426.177 295.288 425.974 295.48C425.771 295.672 425.505 295.768 425.174 295.768ZM431.65 305.192C430.999 305.192 430.391 305.032 429.826 304.712C429.26 304.381 428.802 303.912 428.45 303.304C428.098 302.685 427.922 301.944 427.922 301.08C427.922 300.205 428.098 299.464 428.45 298.856C428.802 298.237 429.26 297.768 429.826 297.448C430.391 297.117 430.999 296.952 431.65 296.952C432.311 296.952 432.924 297.117 433.49 297.448C434.055 297.768 434.514 298.237 434.866 298.856C435.218 299.464 435.394 300.205 435.394 301.08C435.394 301.944 435.218 302.685 434.866 303.304C434.514 303.912 434.055 304.381 433.49 304.712C432.924 305.032 432.311 305.192 431.65 305.192ZM431.65 303.688C432.226 303.688 432.679 303.448 433.01 302.968C433.34 302.488 433.506 301.859 433.506 301.08C433.506 300.291 433.34 299.656 433.01 299.176C432.679 298.696 432.226 298.456 431.65 298.456C431.074 298.456 430.62 298.696 430.29 299.176C429.97 299.656 429.81 300.291 429.81 301.08C429.81 301.859 429.97 302.488 430.29 302.968C430.62 303.448 431.074 303.688 431.65 303.688ZM437.215 305V297.144H438.735L438.863 298.2H438.927C439.279 297.859 439.663 297.565 440.079 297.32C440.495 297.075 440.97 296.952 441.503 296.952C442.346 296.952 442.959 297.224 443.343 297.768C443.727 298.312 443.919 299.08 443.919 300.072V305H442.079V300.312C442.079 299.661 441.983 299.203 441.791 298.936C441.599 298.669 441.284 298.536 440.847 298.536C440.506 298.536 440.202 298.621 439.935 298.792C439.679 298.952 439.386 299.192 439.055 299.512V305H437.215Z" fill="#232A3D"/>
<rect x="214" y="194" width="150" height="46" fill="url(#paint5_linear_1_6)" fill-opacity="0.2"/>
<rect x="214.5" y="194.5" width="149" height="45" stroke="#9B51E0" stroke-opacity="0.5"/>
<path d="M236.328 222V211.536H239.864C240.589 211.536 241.24 211.632 241.816 211.824C242.403 212.016 242.861 212.341 243.192 212.8C243.533 213.248 243.704 213.861 243.704 214.64C243.704 215.44 243.512 216.085 243.128 216.576C242.755 217.067 242.253 217.419 241.624 217.632L244.12 222H242.04L239.784 217.904H238.184V222H236.328ZM238.184 216.432H239.672C240.387 216.432 240.931 216.283 241.304 215.984C241.688 215.675 241.88 215.227 241.88 214.64C241.88 214.043 241.688 213.627 241.304 213.392C240.931 213.147 240.387 213.024 239.672 213.024H238.184V216.432ZM248.841 222.192C248.115 222.192 247.459 222.032 246.873 221.712C246.286 221.381 245.822 220.912 245.481 220.304C245.139 219.685 244.969 218.944 244.969 218.08C244.969 217.227 245.139 216.491 245.481 215.872C245.833 215.253 246.286 214.779 246.841 214.448C247.395 214.117 247.977 213.952 248.585 213.952C249.299 213.952 249.897 214.112 250.377 214.432C250.857 214.741 251.219 215.179 251.465 215.744C251.71 216.299 251.833 216.944 251.833 217.68C251.833 218.064 251.806 218.363 251.753 218.576H246.761C246.846 219.269 247.097 219.808 247.513 220.192C247.929 220.576 248.451 220.768 249.081 220.768C249.422 220.768 249.737 220.72 250.025 220.624C250.323 220.517 250.617 220.373 250.905 220.192L251.529 221.344C251.155 221.589 250.739 221.792 250.281 221.952C249.822 222.112 249.342 222.192 248.841 222.192ZM246.745 217.328H250.233C250.233 216.72 250.099 216.245 249.833 215.904C249.566 215.552 249.166 215.376 248.633 215.376C248.174 215.376 247.763 215.547 247.401 215.888C247.049 216.219 246.83 216.699 246.745 217.328ZM256.202 222.192C255.295 222.192 254.65 221.931 254.266 221.408C253.892 220.875 253.706 220.187 253.706 219.344V215.6H252.586V214.224L253.802 214.144L254.026 212H255.562V214.144H257.562V215.6H255.562V219.344C255.562 220.261 255.93 220.72 256.666 220.72C256.804 220.72 256.948 220.704 257.098 220.672C257.247 220.629 257.375 220.587 257.482 220.544L257.802 221.904C257.588 221.979 257.343 222.043 257.066 222.096C256.799 222.16 256.511 222.192 256.202 222.192ZM259.215 222V214.144H260.735L260.863 215.536H260.927C261.204 215.024 261.54 214.635 261.935 214.368C262.33 214.091 262.735 213.952 263.151 213.952C263.524 213.952 263.823 214.005 264.047 214.112L263.727 215.712C263.588 215.669 263.46 215.637 263.343 215.616C263.226 215.595 263.082 215.584 262.911 215.584C262.602 215.584 262.276 215.707 261.935 215.952C261.594 216.187 261.3 216.603 261.055 217.2V222H259.215ZM266.666 222.192C265.983 222.192 265.423 221.979 264.986 221.552C264.559 221.125 264.346 220.571 264.346 219.888C264.346 219.045 264.714 218.395 265.45 217.936C266.186 217.467 267.359 217.147 268.97 216.976C268.959 216.56 268.847 216.203 268.634 215.904C268.431 215.595 268.063 215.44 267.53 215.44C267.146 215.44 266.767 215.515 266.394 215.664C266.031 215.813 265.674 215.995 265.322 216.208L264.65 214.976C265.087 214.699 265.578 214.459 266.122 214.256C266.676 214.053 267.263 213.952 267.882 213.952C268.863 213.952 269.594 214.245 270.074 214.832C270.564 215.408 270.81 216.245 270.81 217.344V222H269.29L269.162 221.136H269.098C268.746 221.435 268.367 221.685 267.962 221.888C267.567 222.091 267.135 222.192 266.666 222.192ZM267.258 220.752C267.578 220.752 267.866 220.677 268.122 220.528C268.388 220.368 268.671 220.155 268.97 219.888V218.128C267.903 218.267 267.162 218.475 266.746 218.752C266.33 219.019 266.122 219.349 266.122 219.744C266.122 220.096 266.228 220.352 266.442 220.512C266.655 220.672 266.927 220.752 267.258 220.752ZM273.012 222V214.144H274.852V222H273.012ZM273.94 212.768C273.609 212.768 273.342 212.672 273.14 212.48C272.937 212.288 272.836 212.032 272.836 211.712C272.836 211.403 272.937 211.152 273.14 210.96C273.342 210.768 273.609 210.672 273.94 210.672C274.27 210.672 274.537 210.768 274.74 210.96C274.942 211.152 275.044 211.403 275.044 211.712C275.044 212.032 274.942 212.288 274.74 212.48C274.537 212.672 274.27 212.768 273.94 212.768ZM277.199 222V214.144H278.719L278.847 215.2H278.911C279.263 214.859 279.647 214.565 280.063 214.32C280.479 214.075 280.954 213.952 281.487 213.952C282.33 213.952 282.943 214.224 283.327 214.768C283.711 215.312 283.903 216.08 283.903 217.072V222H282.063V217.312C282.063 216.661 281.967 216.203 281.775 215.936C281.583 215.669 281.269 215.536 280.831 215.536C280.49 215.536 280.186 215.621 279.919 215.792C279.663 215.952 279.37 216.192 279.039 216.512V222H277.199ZM289.512 222.192C288.787 222.192 288.131 222.032 287.544 221.712C286.958 221.381 286.494 220.912 286.152 220.304C285.811 219.685 285.64 218.944 285.64 218.08C285.64 217.227 285.811 216.491 286.152 215.872C286.504 215.253 286.958 214.779 287.512 214.448C288.067 214.117 288.648 213.952 289.256 213.952C289.971 213.952 290.568 214.112 291.048 214.432C291.528 214.741 291.891 215.179 292.136 215.744C292.382 216.299 292.504 216.944 292.504 217.68C292.504 218.064 292.478 218.363 292.424 218.576H287.432C287.518 219.269 287.768 219.808 288.184 220.192C288.6 220.576 289.123 220.768 289.752 220.768C290.094 220.768 290.408 220.72 290.696 220.624C290.995 220.517 291.288 220.373 291.576 220.192L292.2 221.344C291.827 221.589 291.411 221.792 290.952 221.952C290.494 222.112 290.014 222.192 289.512 222.192ZM287.416 217.328H290.904C290.904 216.72 290.771 216.245 290.504 215.904C290.238 215.552 289.838 215.376 289.304 215.376C288.846 215.376 288.435 215.547 288.072 215.888C287.72 216.219 287.502 216.699 287.416 217.328ZM297.014 222.192C296.032 222.192 295.248 221.829 294.662 221.104C294.075 220.379 293.782 219.371 293.782 218.08C293.782 217.227 293.936 216.491 294.246 215.872C294.566 215.253 294.982 214.779 295.494 214.448C296.006 214.117 296.544 213.952 297.11 213.952C297.558 213.952 297.936 214.032 298.246 214.192C298.566 214.341 298.875 214.549 299.174 214.816L299.11 213.552V210.704H300.95V222H299.43L299.302 221.152H299.238C298.95 221.44 298.614 221.685 298.23 221.888C297.846 222.091 297.44 222.192 297.014 222.192ZM297.462 220.672C298.048 220.672 298.598 220.379 299.11 219.792V216.128C298.843 215.883 298.576 215.712 298.31 215.616C298.043 215.52 297.776 215.472 297.51 215.472C297.008 215.472 296.576 215.701 296.214 216.16C295.862 216.608 295.686 217.243 295.686 218.064C295.686 218.907 295.84 219.552 296.15 220C296.459 220.448 296.896 220.672 297.462 220.672ZM306.496 222V214.144H308.016L308.144 215.216H308.208C308.539 214.864 308.896 214.565 309.28 214.32C309.675 214.075 310.117 213.952 310.608 213.952C311.184 213.952 311.643 214.08 311.984 214.336C312.336 214.581 312.603 214.923 312.784 215.36C313.157 214.955 313.547 214.619 313.952 214.352C314.368 214.085 314.821 213.952 315.312 213.952C316.144 213.952 316.757 214.224 317.152 214.768C317.547 215.312 317.744 216.08 317.744 217.072V222H315.888V217.312C315.888 216.661 315.787 216.203 315.584 215.936C315.392 215.669 315.093 215.536 314.688 215.536C314.197 215.536 313.648 215.861 313.04 216.512V222H311.2V217.312C311.2 216.661 311.099 216.203 310.896 215.936C310.704 215.669 310.4 215.536 309.984 215.536C309.493 215.536 308.944 215.861 308.336 216.512V222H306.496ZM323.197 222.192C322.546 222.192 321.938 222.032 321.373 221.712C320.807 221.381 320.349 220.912 319.997 220.304C319.645 219.685 319.469 218.944 319.469 218.08C319.469 217.205 319.645 216.464 319.997 215.856C320.349 215.237 320.807 214.768 321.373 214.448C321.938 214.117 322.546 213.952 323.197 213.952C323.858 213.952 324.471 214.117 325.037 214.448C325.602 214.768 326.061 215.237 326.413 215.856C326.765 216.464 326.941 217.205 326.941 218.08C326.941 218.944 326.765 219.685 326.413 220.304C326.061 220.912 325.602 221.381 325.037 221.712C324.471 222.032 323.858 222.192 323.197 222.192ZM323.197 220.688C323.773 220.688 324.226 220.448 324.557 219.968C324.887 219.488 325.053 218.859 325.053 218.08C325.053 217.291 324.887 216.656 324.557 216.176C324.226 215.696 323.773 215.456 323.197 215.456C322.621 215.456 322.167 215.696 321.837 216.176C321.517 216.656 321.357 217.291 321.357 218.08C321.357 218.859 321.517 219.488 321.837 219.968C322.167 220.448 322.621 220.688 323.197 220.688ZM331.514 222.192C330.532 222.192 329.748 221.829 329.162 221.104C328.575 220.379 328.282 219.371 328.282 218.08C328.282 217.227 328.436 216.491 328.746 215.872C329.066 215.253 329.482 214.779 329.994 214.448C330.506 214.117 331.044 213.952 331.61 213.952C332.058 213.952 332.436 214.032 332.746 214.192C333.066 214.341 333.375 214.549 333.674 214.816L333.61 213.552V210.704H335.45V222H333.93L333.802 221.152H333.738C333.45 221.44 333.114 221.685 332.73 221.888C332.346 222.091 331.94 222.192 331.514 222.192ZM331.962 220.672C332.548 220.672 333.098 220.379 333.61 219.792V216.128C333.343 215.883 333.076 215.712 332.81 215.616C332.543 215.52 332.276 215.472 332.01 215.472C331.508 215.472 331.076 215.701 330.714 216.16C330.362 216.608 330.186 217.243 330.186 218.064C330.186 218.907 330.34 219.552 330.65 220C330.959 220.448 331.396 220.672 331.962 220.672ZM341.153 222.192C340.428 222.192 339.772 222.032 339.185 221.712C338.598 221.381 338.134 220.912 337.793 220.304C337.452 219.685 337.281 218.944 337.281 218.08C337.281 217.227 337.452 216.491 337.793 215.872C338.145 215.253 338.598 214.779 339.153 214.448C339.708 214.117 340.289 213.952 340.897 213.952C341.612 213.952 342.209 214.112 342.689 214.432C343.169 214.741 343.532 215.179 343.777 215.744C344.022 216.299 344.145 216.944 344.145 217.68C344.145 218.064 344.118 218.363 344.065 218.576H339.073C339.158 219.269 339.409 219.808 339.825 220.192C340.241 220.576 340.764 220.768 341.393 220.768C341.734 220.768 342.049 220.72 342.337 220.624C342.636 220.517 342.929 220.373 343.217 220.192L343.841 221.344C343.468 221.589 343.052 221.792 342.593 221.952C342.134 222.112 341.654 222.192 341.153 222.192ZM339.057 217.328H342.545C342.545 216.72 342.412 216.245 342.145 215.904C341.878 215.552 341.478 215.376 340.945 215.376C340.486 215.376 340.076 215.547 339.713 215.888C339.361 216.219 339.142 216.699 339.057 217.328ZM347.694 222.192C347.044 222.192 346.58 221.995 346.302 221.6C346.036 221.205 345.902 220.667 345.902 219.984V210.704H347.742V220.08C347.742 220.304 347.785 220.464 347.87 220.56C347.956 220.645 348.046 220.688 348.142 220.688C348.185 220.688 348.222 220.688 348.254 220.688C348.297 220.677 348.356 220.667 348.43 220.656L348.67 222.032C348.564 222.075 348.425 222.112 348.254 222.144C348.094 222.176 347.908 222.192 347.694 222.192Z" fill="#232A3D"/>
<rect x="15" y="107" width="150" height="46" fill="url(#paint6_linear_1_6)" fill-opacity="0.2"/>
<rect x="15.5" y="107.5" width="149" height="45" stroke="#9B51E0" stroke-opacity="0.5"/>
<path d="M39.504 135.192C38.6293 135.192 37.8347 134.984 37.12 134.568C36.4053 134.152 35.8347 133.544 35.408 132.744C34.992 131.933 34.784 130.952 34.784 129.8C34.784 128.659 34.9973 127.683 35.424 126.872C35.8613 126.051 36.4427 125.427 37.168 125C37.8933 124.563 38.6933 124.344 39.568 124.344C40.2293 124.344 40.816 124.477 41.328 124.744C41.84 125.011 42.2613 125.32 42.592 125.672L41.6 126.872C41.3333 126.595 41.0347 126.376 40.704 126.216C40.384 126.045 40.0213 125.96 39.616 125.96C39.0507 125.96 38.544 126.115 38.096 126.424C37.6587 126.723 37.312 127.155 37.056 127.72C36.8107 128.285 36.688 128.963 36.688 129.752C36.688 130.947 36.9493 131.885 37.472 132.568C37.9947 133.24 38.6933 133.576 39.568 133.576C40.0373 133.576 40.4533 133.48 40.816 133.288C41.1787 133.085 41.5093 132.824 41.808 132.504L42.8 133.672C42.3733 134.163 41.8827 134.541 41.328 134.808C40.784 135.064 40.176 135.192 39.504 135.192ZM44.3868 135V127.144H45.9068L46.0348 128.536H46.0988C46.3761 128.024 46.7121 127.635 47.1068 127.368C47.5014 127.091 47.9068 126.952 48.3228 126.952C48.6961 126.952 48.9948 127.005 49.2188 127.112L48.8988 128.712C48.7601 128.669 48.6321 128.637 48.5148 128.616C48.3974 128.595 48.2534 128.584 48.0828 128.584C47.7734 128.584 47.4481 128.707 47.1068 128.952C46.7654 129.187 46.4721 129.603 46.2268 130.2V135H44.3868ZM53.4153 135.192C52.7646 135.192 52.1566 135.032 51.5913 134.712C51.0259 134.381 50.5673 133.912 50.2153 133.304C49.8633 132.685 49.6873 131.944 49.6873 131.08C49.6873 130.205 49.8633 129.464 50.2153 128.856C50.5673 128.237 51.0259 127.768 51.5913 127.448C52.1566 127.117 52.7646 126.952 53.4153 126.952C54.0766 126.952 54.6899 127.117 55.2553 127.448C55.8206 127.768 56.2793 128.237 56.6313 128.856C56.9833 129.464 57.1593 130.205 57.1593 131.08C57.1593 131.944 56.9833 132.685 56.6313 133.304C56.2793 133.912 55.8206 134.381 55.2553 134.712C54.6899 135.032 54.0766 135.192 53.4153 135.192ZM53.4153 133.688C53.9913 133.688 54.4446 133.448 54.7753 132.968C55.1059 132.488 55.2713 131.859 55.2713 131.08C55.2713 130.291 55.1059 129.656 54.7753 129.176C54.4446 128.696 53.9913 128.456 53.4153 128.456C52.8393 128.456 52.3859 128.696 52.0553 129.176C51.7353 129.656 51.5753 130.291 51.5753 131.08C51.5753 131.859 51.7353 132.488 52.0553 132.968C52.3859 133.448 52.8393 133.688 53.4153 133.688ZM61.11 135.192C60.5767 135.192 60.0433 135.091 59.51 134.888C58.9767 134.675 58.518 134.413 58.134 134.104L58.998 132.92C59.35 133.187 59.702 133.4 60.054 133.56C60.406 133.72 60.7793 133.8 61.174 133.8C61.6007 133.8 61.9153 133.709 62.118 133.528C62.3207 133.347 62.422 133.123 62.422 132.856C62.422 132.632 62.3367 132.451 62.166 132.312C62.006 132.163 61.798 132.035 61.542 131.928C61.286 131.811 61.0193 131.699 60.742 131.592C60.4007 131.464 60.0593 131.309 59.718 131.128C59.3873 130.936 59.1153 130.696 58.902 130.408C58.6887 130.109 58.582 129.741 58.582 129.304C58.582 128.611 58.838 128.045 59.35 127.608C59.862 127.171 60.5553 126.952 61.43 126.952C61.9847 126.952 62.4807 127.048 62.918 127.24C63.3553 127.432 63.734 127.651 64.054 127.896L63.206 129.016C62.9287 128.813 62.646 128.653 62.358 128.536C62.0807 128.408 61.7873 128.344 61.478 128.344C61.0833 128.344 60.79 128.429 60.598 128.6C60.406 128.76 60.31 128.963 60.31 129.208C60.31 129.517 60.47 129.752 60.79 129.912C61.11 130.072 61.4833 130.227 61.91 130.376C62.2727 130.504 62.6247 130.664 62.966 130.856C63.3073 131.037 63.59 131.277 63.814 131.576C64.0487 131.875 64.166 132.269 64.166 132.76C64.166 133.432 63.9047 134.008 63.382 134.488C62.8593 134.957 62.102 135.192 61.11 135.192ZM68.0006 135.192C67.4673 135.192 66.934 135.091 66.4006 134.888C65.8673 134.675 65.4086 134.413 65.0246 134.104L65.8886 132.92C66.2406 133.187 66.5926 133.4 66.9446 133.56C67.2966 133.72 67.67 133.8 68.0646 133.8C68.4913 133.8 68.806 133.709 69.0086 133.528C69.2113 133.347 69.3126 133.123 69.3126 132.856C69.3126 132.632 69.2273 132.451 69.0566 132.312C68.8966 132.163 68.6886 132.035 68.4326 131.928C68.1766 131.811 67.91 131.699 67.6326 131.592C67.2913 131.464 66.95 131.309 66.6086 131.128C66.278 130.936 66.006 130.696 65.7926 130.408C65.5793 130.109 65.4726 129.741 65.4726 129.304C65.4726 128.611 65.7286 128.045 66.2406 127.608C66.7526 127.171 67.446 126.952 68.3206 126.952C68.8753 126.952 69.3713 127.048 69.8086 127.24C70.246 127.432 70.6246 127.651 70.9446 127.896L70.0966 129.016C69.8193 128.813 69.5366 128.653 69.2486 128.536C68.9713 128.408 68.678 128.344 68.3686 128.344C67.974 128.344 67.6806 128.429 67.4886 128.6C67.2966 128.76 67.2006 128.963 67.2006 129.208C67.2006 129.517 67.3606 129.752 67.6806 129.912C68.0006 130.072 68.374 130.227 68.8006 130.376C69.1633 130.504 69.5153 130.664 69.8566 130.856C70.198 131.037 70.4806 131.277 70.7046 131.576C70.9393 131.875 71.0566 132.269 71.0566 132.76C71.0566 133.432 70.7953 134.008 70.2726 134.488C69.75 134.957 68.9926 135.192 68.0006 135.192ZM72.3595 131.64V130.296H76.1675V131.64H72.3595ZM79.5843 135L76.8483 127.144H78.7203L79.9683 131.224C80.0749 131.608 80.1816 131.997 80.2883 132.392C80.4056 132.787 80.5176 133.187 80.6243 133.592H80.6883C80.8056 133.187 80.9176 132.787 81.0243 132.392C81.1416 131.997 81.2536 131.608 81.3602 131.224L82.6083 127.144H84.3843L81.7123 135H79.5843ZM87.3376 135.192C86.655 135.192 86.095 134.979 85.6576 134.552C85.231 134.125 85.0176 133.571 85.0176 132.888C85.0176 132.045 85.3856 131.395 86.1216 130.936C86.8576 130.467 88.031 130.147 89.6416 129.976C89.631 129.56 89.519 129.203 89.3056 128.904C89.103 128.595 88.735 128.44 88.2016 128.44C87.8176 128.44 87.439 128.515 87.0656 128.664C86.703 128.813 86.3456 128.995 85.9936 129.208L85.3216 127.976C85.759 127.699 86.2496 127.459 86.7936 127.256C87.3483 127.053 87.935 126.952 88.5536 126.952C89.535 126.952 90.2656 127.245 90.7456 127.832C91.2363 128.408 91.4816 129.245 91.4816 130.344V135H89.9616L89.8336 134.136H89.7696C89.4176 134.435 89.039 134.685 88.6336 134.888C88.239 135.091 87.807 135.192 87.3376 135.192ZM87.9296 133.752C88.2496 133.752 88.5376 133.677 88.7936 133.528C89.0603 133.368 89.343 133.155 89.6416 132.888V131.128C88.575 131.267 87.8336 131.475 87.4176 131.752C87.0016 132.019 86.7936 132.349 86.7936 132.744C86.7936 133.096 86.9003 133.352 87.1136 133.512C87.327 133.672 87.599 133.752 87.9296 133.752ZM95.4756 135.192C94.825 135.192 94.361 134.995 94.0836 134.6C93.817 134.205 93.6836 133.667 93.6836 132.984V123.704H95.5236V133.08C95.5236 133.304 95.5663 133.464 95.6516 133.56C95.737 133.645 95.8276 133.688 95.9236 133.688C95.9663 133.688 96.0036 133.688 96.0356 133.688C96.0783 133.677 96.137 133.667 96.2116 133.656L96.4516 135.032C96.345 135.075 96.2063 135.112 96.0356 135.144C95.8756 135.176 95.689 135.192 95.4756 135.192ZM98.0274 135V127.144H99.8674V135H98.0274ZM98.9554 125.768C98.6247 125.768 98.358 125.672 98.1554 125.48C97.9527 125.288 97.8514 125.032 97.8514 124.712C97.8514 124.403 97.9527 124.152 98.1554 123.96C98.358 123.768 98.6247 123.672 98.9554 123.672C99.286 123.672 99.5527 123.768 99.7554 123.96C99.958 124.152 100.059 124.403 100.059 124.712C100.059 125.032 99.958 125.288 99.7554 125.48C99.5527 125.672 99.286 125.768 98.9554 125.768ZM104.967 135.192C103.986 135.192 103.202 134.829 102.615 134.104C102.028 133.379 101.735 132.371 101.735 131.08C101.735 130.227 101.89 129.491 102.199 128.872C102.519 128.253 102.935 127.779 103.447 127.448C103.959 127.117 104.498 126.952 105.063 126.952C105.511 126.952 105.89 127.032 106.199 127.192C106.519 127.341 106.828 127.549 107.127 127.816L107.063 126.552V123.704H108.903V135H107.383L107.255 134.152H107.191C106.903 134.44 106.567 134.685 106.183 134.888C105.799 135.091 105.394 135.192 104.967 135.192ZM105.415 133.672C106.002 133.672 106.551 133.379 107.063 132.792V129.128C106.796 128.883 106.53 128.712 106.263 128.616C105.996 128.52 105.73 128.472 105.463 128.472C104.962 128.472 104.53 128.701 104.167 129.16C103.815 129.608 103.639 130.243 103.639 131.064C103.639 131.907 103.794 132.552 104.103 133C104.412 133.448 104.85 133.672 105.415 133.672ZM113.15 135.192C112.467 135.192 111.907 134.979 111.47 134.552C111.043 134.125 110.83 133.571 110.83 132.888C110.83 132.045 111.198 131.395 111.934 130.936C112.67 130.467 113.843 130.147 115.454 129.976C115.443 129.56 115.331 129.203 115.118 128.904C114.915 128.595 114.547 128.44 114.014 128.44C113.63 128.44 113.251 128.515 112.878 128.664C112.515 128.813 112.158 128.995 111.806 129.208L111.134 127.976C111.571 127.699 112.062 127.459 112.606 127.256C113.161 127.053 113.747 126.952 114.366 126.952C115.347 126.952 116.078 127.245 116.558 127.832C117.049 128.408 117.294 129.245 117.294 130.344V135H115.774L115.646 134.136H115.582C115.23 134.435 114.851 134.685 114.446 134.888C114.051 135.091 113.619 135.192 113.15 135.192ZM113.742 133.752C114.062 133.752 114.35 133.677 114.606 133.528C114.873 133.368 115.155 133.155 115.454 132.888V131.128C114.387 131.267 113.646 131.475 113.23 131.752C112.814 132.019 112.606 132.349 112.606 132.744C112.606 133.096 112.713 133.352 112.926 133.512C113.139 133.672 113.411 133.752 113.742 133.752ZM122.014 135.192C121.107 135.192 120.462 134.931 120.078 134.408C119.705 133.875 119.518 133.187 119.518 132.344V128.6H118.398V127.224L119.614 127.144L119.838 125H121.374V127.144H123.374V128.6H121.374V132.344C121.374 133.261 121.742 133.72 122.478 133.72C122.617 133.72 122.761 133.704 122.91 133.672C123.059 133.629 123.187 133.587 123.294 133.544L123.614 134.904C123.401 134.979 123.155 135.043 122.878 135.096C122.611 135.16 122.323 135.192 122.014 135.192ZM125.027 135V127.144H126.867V135H125.027ZM125.955 125.768C125.625 125.768 125.358 125.672 125.155 125.48C124.953 125.288 124.851 125.032 124.851 124.712C124.851 124.403 124.953 124.152 125.155 123.96C125.358 123.768 125.625 123.672 125.955 123.672C126.286 123.672 126.553 123.768 126.755 123.96C126.958 124.152 127.059 124.403 127.059 124.712C127.059 125.032 126.958 125.288 126.755 125.48C126.553 125.672 126.286 125.768 125.955 125.768ZM132.431 135.192C131.78 135.192 131.172 135.032 130.607 134.712C130.042 134.381 129.583 133.912 129.231 133.304C128.879 132.685 128.703 131.944 128.703 131.08C128.703 130.205 128.879 129.464 129.231 128.856C129.583 128.237 130.042 127.768 130.607 127.448C131.172 127.117 131.78 126.952 132.431 126.952C133.092 126.952 133.706 127.117 134.271 127.448C134.836 127.768 135.295 128.237 135.647 128.856C135.999 129.464 136.175 130.205 136.175 131.08C136.175 131.944 135.999 132.685 135.647 133.304C135.295 133.912 134.836 134.381 134.271 134.712C133.706 135.032 133.092 135.192 132.431 135.192ZM132.431 133.688C133.007 133.688 133.46 133.448 133.791 132.968C134.122 132.488 134.287 131.859 134.287 131.08C134.287 130.291 134.122 129.656 133.791 129.176C133.46 128.696 133.007 128.456 132.431 128.456C131.855 128.456 131.402 128.696 131.071 129.176C130.751 129.656 130.591 130.291 130.591 131.08C130.591 131.859 130.751 132.488 131.071 132.968C131.402 133.448 131.855 133.688 132.431 133.688ZM137.996 135V127.144H139.516L139.644 128.2H139.708C140.06 127.859 140.444 127.565 140.86 127.32C141.276 127.075 141.751 126.952 142.284 126.952C143.127 126.952 143.74 127.224 144.124 127.768C144.508 128.312 144.7 129.08 144.7 130.072V135H142.86V130.312C142.86 129.661 142.764 129.203 142.572 128.936C142.38 128.669 142.065 128.536 141.628 128.536C141.287 128.536 140.983 128.621 140.716 128.792C140.46 128.952 140.167 129.192 139.836 129.512V135H137.996Z" fill="#232A3D"/>
<rect x="15" y="194" width="150" height="46" fill="url(#paint7_linear_1_6)" fill-opacity="0.2"/>
<rect x="15.5" y="194.5" width="149" height="45" stroke="#9B51E0" stroke-opacity="0.5"/>
<path d="M35.328 222V211.536H38.672C39.3973 211.536 40.0373 211.616 40.592 211.776C41.1573 211.936 41.6 212.208 41.92 212.592C42.2507 212.965 42.416 213.472 42.416 214.112C42.416 214.603 42.288 215.067 42.032 215.504C41.776 215.931 41.4187 216.224 40.96 216.384V216.448C41.536 216.576 42.0107 216.848 42.384 217.264C42.768 217.669 42.96 218.224 42.96 218.928C42.96 219.621 42.784 220.197 42.432 220.656C42.0907 221.115 41.616 221.456 41.008 221.68C40.4 221.893 39.712 222 38.944 222H35.328ZM37.184 215.856H38.512C39.2373 215.856 39.7653 215.723 40.096 215.456C40.4267 215.189 40.592 214.832 40.592 214.384C40.592 213.872 40.4213 213.509 40.08 213.296C39.7387 213.083 39.2267 212.976 38.544 212.976H37.184V215.856ZM37.184 220.56H38.752C39.52 220.56 40.112 220.421 40.528 220.144C40.944 219.856 41.152 219.419 41.152 218.832C41.152 218.277 40.9493 217.877 40.544 217.632C40.1387 217.376 39.5413 217.248 38.752 217.248H37.184V220.56ZM48.0749 222.192C47.3495 222.192 46.6935 222.032 46.1069 221.712C45.5202 221.381 45.0562 220.912 44.7149 220.304C44.3735 219.685 44.2029 218.944 44.2029 218.08C44.2029 217.227 44.3735 216.491 44.7149 215.872C45.0669 215.253 45.5202 214.779 46.0749 214.448C46.6295 214.117 47.2109 213.952 47.8189 213.952C48.5335 213.952 49.1309 214.112 49.6109 214.432C50.0909 214.741 50.4535 215.179 50.6989 215.744C50.9442 216.299 51.0669 216.944 51.0669 217.68C51.0669 218.064 51.0402 218.363 50.9869 218.576H45.9949C46.0802 219.269 46.3309 219.808 46.7469 220.192C47.1629 220.576 47.6855 220.768 48.3149 220.768C48.6562 220.768 48.9709 220.72 49.2589 220.624C49.5575 220.517 49.8509 220.373 50.1389 220.192L50.7629 221.344C50.3895 221.589 49.9735 221.792 49.5149 221.952C49.0562 222.112 48.5762 222.192 48.0749 222.192ZM45.9789 217.328H49.4669C49.4669 216.72 49.3335 216.245 49.0669 215.904C48.8002 215.552 48.4002 215.376 47.8669 215.376C47.4082 215.376 46.9975 215.547 46.6349 215.888C46.2829 216.219 46.0642 216.699 45.9789 217.328ZM55.0163 222.192C54.4829 222.192 53.9496 222.091 53.4163 221.888C52.8829 221.675 52.4243 221.413 52.0403 221.104L52.9043 219.92C53.2563 220.187 53.6083 220.4 53.9603 220.56C54.3123 220.72 54.6856 220.8 55.0803 220.8C55.5069 220.8 55.8216 220.709 56.0243 220.528C56.2269 220.347 56.3283 220.123 56.3283 219.856C56.3283 219.632 56.2429 219.451 56.0723 219.312C55.9123 219.163 55.7043 219.035 55.4483 218.928C55.1923 218.811 54.9256 218.699 54.6483 218.592C54.3069 218.464 53.9656 218.309 53.6243 218.128C53.2936 217.936 53.0216 217.696 52.8083 217.408C52.5949 217.109 52.4883 216.741 52.4883 216.304C52.4883 215.611 52.7443 215.045 53.2563 214.608C53.7683 214.171 54.4616 213.952 55.3363 213.952C55.8909 213.952 56.3869 214.048 56.8243 214.24C57.2616 214.432 57.6403 214.651 57.9603 214.896L57.1123 216.016C56.8349 215.813 56.5523 215.653 56.2643 215.536C55.9869 215.408 55.6936 215.344 55.3843 215.344C54.9896 215.344 54.6963 215.429 54.5043 215.6C54.3123 215.76 54.2163 215.963 54.2163 216.208C54.2163 216.517 54.3763 216.752 54.6963 216.912C55.0163 217.072 55.3896 217.227 55.8163 217.376C56.1789 217.504 56.5309 217.664 56.8723 217.856C57.2136 218.037 57.4963 218.277 57.7203 218.576C57.9549 218.875 58.0723 219.269 58.0723 219.76C58.0723 220.432 57.8109 221.008 57.2883 221.488C56.7656 221.957 56.0083 222.192 55.0163 222.192ZM62.1704 222.192C61.2637 222.192 60.6184 221.931 60.2344 221.408C59.861 220.875 59.6744 220.187 59.6744 219.344V215.6H58.5544V214.224L59.7704 214.144L59.9944 212H61.5304V214.144H63.5304V215.6H61.5304V219.344C61.5304 220.261 61.8984 220.72 62.6344 220.72C62.773 220.72 62.917 220.704 63.0664 220.672C63.2157 220.629 63.3437 220.587 63.4504 220.544L63.7704 221.904C63.557 221.979 63.3117 222.043 63.0344 222.096C62.7677 222.16 62.4797 222.192 62.1704 222.192ZM68.3868 225.104V214.144H69.9068L70.0348 214.976H70.0988C70.4294 214.699 70.7974 214.459 71.2028 214.256C71.6188 214.053 72.0401 213.952 72.4668 213.952C73.4481 213.952 74.2054 214.315 74.7388 215.04C75.2828 215.765 75.5548 216.736 75.5548 217.952C75.5548 218.848 75.3948 219.616 75.0748 220.256C74.7548 220.885 74.3388 221.365 73.8268 221.696C73.3254 222.027 72.7814 222.192 72.1948 222.192C71.8534 222.192 71.5121 222.117 71.1708 221.968C70.8294 221.808 70.4988 221.595 70.1788 221.328L70.2268 222.64V225.104H68.3868ZM71.8108 220.672C72.3334 220.672 72.7708 220.443 73.1228 219.984C73.4748 219.525 73.6508 218.853 73.6508 217.968C73.6508 217.179 73.5174 216.565 73.2508 216.128C72.9841 215.691 72.5521 215.472 71.9548 215.472C71.4001 215.472 70.8241 215.765 70.2268 216.352V220.016C70.5148 220.251 70.7921 220.421 71.0588 220.528C71.3254 220.624 71.5761 220.672 71.8108 220.672ZM79.1345 222.192C78.4518 222.192 77.8918 221.979 77.4545 221.552C77.0278 221.125 76.8145 220.571 76.8145 219.888C76.8145 219.045 77.1825 218.395 77.9185 217.936C78.6545 217.467 79.8278 217.147 81.4385 216.976C81.4278 216.56 81.3158 216.203 81.1025 215.904C80.8998 215.595 80.5318 215.44 79.9985 215.44C79.6145 215.44 79.2358 215.515 78.8625 215.664C78.4998 215.813 78.1425 215.995 77.7905 216.208L77.1185 214.976C77.5558 214.699 78.0465 214.459 78.5905 214.256C79.1452 214.053 79.7318 213.952 80.3505 213.952C81.3318 213.952 82.0625 214.245 82.5425 214.832C83.0332 215.408 83.2785 216.245 83.2785 217.344V222H81.7585L81.6305 221.136H81.5665C81.2145 221.435 80.8358 221.685 80.4305 221.888C80.0358 222.091 79.6038 222.192 79.1345 222.192ZM79.7265 220.752C80.0465 220.752 80.3345 220.677 80.5905 220.528C80.8572 220.368 81.1398 220.155 81.4385 219.888V218.128C80.3718 218.267 79.6305 218.475 79.2145 218.752C78.7985 219.019 78.5905 219.349 78.5905 219.744C78.5905 220.096 78.6972 220.352 78.9105 220.512C79.1238 220.672 79.3958 220.752 79.7265 220.752ZM85.4805 222V214.144H87.0005L87.1285 215.536H87.1925C87.4698 215.024 87.8058 214.635 88.2005 214.368C88.5952 214.091 89.0005 213.952 89.4165 213.952C89.7898 213.952 90.0885 214.005 90.3125 214.112L89.9925 215.712C89.8538 215.669 89.7258 215.637 89.6085 215.616C89.4912 215.595 89.3472 215.584 89.1765 215.584C88.8672 215.584 88.5418 215.707 88.2005 215.952C87.8592 216.187 87.5658 216.603 87.3205 217.2V222H85.4805ZM92.9314 222.192C92.2487 222.192 91.6887 221.979 91.2514 221.552C90.8247 221.125 90.6114 220.571 90.6114 219.888C90.6114 219.045 90.9794 218.395 91.7154 217.936C92.4514 217.467 93.6247 217.147 95.2354 216.976C95.2247 216.56 95.1127 216.203 94.8994 215.904C94.6967 215.595 94.3287 215.44 93.7954 215.44C93.4114 215.44 93.0327 215.515 92.6594 215.664C92.2967 215.813 91.9394 215.995 91.5874 216.208L90.9154 214.976C91.3527 214.699 91.8434 214.459 92.3874 214.256C92.942 214.053 93.5287 213.952 94.1474 213.952C95.1287 213.952 95.8594 214.245 96.3394 214.832C96.83 215.408 97.0754 216.245 97.0754 217.344V222H95.5554L95.4274 221.136H95.3634C95.0114 221.435 94.6327 221.685 94.2274 221.888C93.8327 222.091 93.4007 222.192 92.9314 222.192ZM93.5234 220.752C93.8434 220.752 94.1314 220.677 94.3874 220.528C94.654 220.368 94.9367 220.155 95.2354 219.888V218.128C94.1687 218.267 93.4274 218.475 93.0114 218.752C92.5954 219.019 92.3874 219.349 92.3874 219.744C92.3874 220.096 92.494 220.352 92.7074 220.512C92.9207 220.672 93.1927 220.752 93.5234 220.752ZM99.2774 222V214.144H100.797L100.925 215.216H100.989C101.32 214.864 101.677 214.565 102.061 214.32C102.456 214.075 102.899 213.952 103.389 213.952C103.965 213.952 104.424 214.08 104.765 214.336C105.117 214.581 105.384 214.923 105.565 215.36C105.939 214.955 106.328 214.619 106.733 214.352C107.149 214.085 107.603 213.952 108.093 213.952C108.925 213.952 109.539 214.224 109.933 214.768C110.328 215.312 110.525 216.08 110.525 217.072V222H108.669V217.312C108.669 216.661 108.568 216.203 108.365 215.936C108.173 215.669 107.875 215.536 107.469 215.536C106.979 215.536 106.429 215.861 105.821 216.512V222H103.981V217.312C103.981 216.661 103.88 216.203 103.677 215.936C103.485 215.669 103.181 215.536 102.765 215.536C102.275 215.536 101.725 215.861 101.117 216.512V222H99.2774ZM116.122 222.192C115.396 222.192 114.74 222.032 114.154 221.712C113.567 221.381 113.103 220.912 112.762 220.304C112.42 219.685 112.25 218.944 112.25 218.08C112.25 217.227 112.42 216.491 112.762 215.872C113.114 215.253 113.567 214.779 114.122 214.448C114.676 214.117 115.258 213.952 115.866 213.952C116.58 213.952 117.178 214.112 117.658 214.432C118.138 214.741 118.5 215.179 118.746 215.744C118.991 216.299 119.114 216.944 119.114 217.68C119.114 218.064 119.087 218.363 119.034 218.576H114.042C114.127 219.269 114.378 219.808 114.794 220.192C115.21 220.576 115.732 220.768 116.362 220.768C116.703 220.768 117.018 220.72 117.306 220.624C117.604 220.517 117.898 220.373 118.186 220.192L118.81 221.344C118.436 221.589 118.02 221.792 117.562 221.952C117.103 222.112 116.623 222.192 116.122 222.192ZM114.026 217.328H117.514C117.514 216.72 117.38 216.245 117.114 215.904C116.847 215.552 116.447 215.376 115.914 215.376C115.455 215.376 115.044 215.547 114.682 215.888C114.33 216.219 114.111 216.699 114.026 217.328ZM123.483 222.192C122.576 222.192 121.931 221.931 121.547 221.408C121.174 220.875 120.987 220.187 120.987 219.344V215.6H119.867V214.224L121.083 214.144L121.307 212H122.843V214.144H124.843V215.6H122.843V219.344C122.843 220.261 123.211 220.72 123.947 220.72C124.086 220.72 124.23 220.704 124.379 220.672C124.528 220.629 124.656 220.587 124.763 220.544L125.083 221.904C124.87 221.979 124.624 222.043 124.347 222.096C124.08 222.16 123.792 222.192 123.483 222.192ZM129.606 222.192C128.881 222.192 128.225 222.032 127.638 221.712C127.051 221.381 126.587 220.912 126.246 220.304C125.905 219.685 125.734 218.944 125.734 218.08C125.734 217.227 125.905 216.491 126.246 215.872C126.598 215.253 127.051 214.779 127.606 214.448C128.161 214.117 128.742 213.952 129.35 213.952C130.065 213.952 130.662 214.112 131.142 214.432C131.622 214.741 131.985 215.179 132.23 215.744C132.475 216.299 132.598 216.944 132.598 217.68C132.598 218.064 132.571 218.363 132.518 218.576H127.526C127.611 219.269 127.862 219.808 128.278 220.192C128.694 220.576 129.217 220.768 129.846 220.768C130.187 220.768 130.502 220.72 130.79 220.624C131.089 220.517 131.382 220.373 131.67 220.192L132.294 221.344C131.921 221.589 131.505 221.792 131.046 221.952C130.587 222.112 130.107 222.192 129.606 222.192ZM127.51 217.328H130.998C130.998 216.72 130.865 216.245 130.598 215.904C130.331 215.552 129.931 215.376 129.398 215.376C128.939 215.376 128.529 215.547 128.166 215.888C127.814 216.219 127.595 216.699 127.51 217.328ZM134.356 222V214.144H135.876L136.004 215.536H136.068C136.345 215.024 136.681 214.635 137.076 214.368C137.47 214.091 137.876 213.952 138.292 213.952C138.665 213.952 138.964 214.005 139.188 214.112L138.868 215.712C138.729 215.669 138.601 215.637 138.484 215.616C138.366 215.595 138.222 215.584 138.052 215.584C137.742 215.584 137.417 215.707 137.076 215.952C136.734 216.187 136.441 216.603 136.196 217.2V222H134.356ZM142.423 222.192C141.889 222.192 141.356 222.091 140.823 221.888C140.289 221.675 139.831 221.413 139.447 221.104L140.311 219.92C140.663 220.187 141.015 220.4 141.367 220.56C141.719 220.72 142.092 220.8 142.487 220.8C142.913 220.8 143.228 220.709 143.431 220.528C143.633 220.347 143.735 220.123 143.735 219.856C143.735 219.632 143.649 219.451 143.479 219.312C143.319 219.163 143.111 219.035 142.855 218.928C142.599 218.811 142.332 218.699 142.055 218.592C141.713 218.464 141.372 218.309 141.031 218.128C140.7 217.936 140.428 217.696 140.215 217.408C140.001 217.109 139.895 216.741 139.895 216.304C139.895 215.611 140.151 215.045 140.663 214.608C141.175 214.171 141.868 213.952 142.743 213.952C143.297 213.952 143.793 214.048 144.231 214.24C144.668 214.432 145.047 214.651 145.367 214.896L144.519 216.016C144.241 215.813 143.959 215.653 143.671 215.536C143.393 215.408 143.1 215.344 142.791 215.344C142.396 215.344 142.103 215.429 141.911 215.6C141.719 215.76 141.623 215.963 141.623 216.208C141.623 216.517 141.783 216.752 142.103 216.912C142.423 217.072 142.796 217.227 143.223 217.376C143.585 217.504 143.937 217.664 144.279 217.856C144.62 218.037 144.903 218.277 145.127 218.576C145.361 218.875 145.479 219.269 145.479 219.76C145.479 220.432 145.217 221.008 144.695 221.488C144.172 221.957 143.415 222.192 142.423 222.192Z" fill="#232A3D"/>
<path d="M89.4343 103.566C89.7467 103.878 90.2533 103.878 90.5657 103.566L95.6569 98.4745C95.9693 98.1621 95.9693 97.6556 95.6569 97.3431C95.3444 97.0307 94.8379 97.0307 94.5255 97.3431L90 101.869L85.4745 97.3431C85.1621 97.0307 84.6556 97.0307 84.3431 97.3431C84.0307 97.6556 84.0307 98.1621 84.3431 98.4745L89.4343 103.566ZM89.2 70V103H90.8V70H89.2Z" fill="#232A3D"/>
<path d="M288.434 190.566C288.747 190.878 289.253 190.878 289.566 190.566L294.657 185.475C294.969 185.162 294.969 184.656 294.657 184.343C294.344 184.031 293.838 184.031 293.525 184.343L289 188.869L284.475 184.343C284.162 184.031 283.656 184.031 283.343 184.343C283.031 184.656 283.031 185.162 283.343 185.475L288.434 190.566ZM288.2 157V190H289.8V157H288.2Z" fill="#232A3D"/>
<path d="M289 44V43.2H288.2V44H289ZM288.434 103.566C288.747 103.878 289.253 103.878 289.566 103.566L294.657 98.4745C294.969 98.1621 294.969 97.6556 294.657 97.3431C294.344 97.0307 293.838 97.0307 293.525 97.3431L289 101.869L284.475 97.3431C284.162 97.0307 283.656 97.0307 283.343 97.3431C283.031 97.6556 283.031 98.1621 283.343 98.4745L288.434 103.566ZM288.2 44V103H289.8V44H288.2ZM289 44.8H312V43.2H289V44.8Z" fill="#232A3D"/>
<path d="M289 300V300.8H288.2V300H289ZM312.566 299.434C312.878 299.747 312.878 300.253 312.566 300.566L307.475 305.657C307.162 305.969 306.656 305.969 306.343 305.657C306.031 305.344 306.031 304.838 306.343 304.525L310.869 300L306.343 295.475C306.031 295.162 306.031 294.656 306.343 294.343C306.656 294.031 307.162 294.031 307.475 294.343L312.566 299.434ZM288.2 300V244H289.8V300H288.2ZM289 299.2H312V300.8H289V299.2Z" fill="#232A3D"/>
<path d="M491 301V301.8H491.8V301H491ZM467.434 300.434C467.122 300.747 467.122 301.253 467.434 301.566L472.525 306.657C472.838 306.969 473.344 306.969 473.657 306.657C473.969 306.344 473.969 305.838 473.657 305.525L469.131 301L473.657 296.475C473.969 296.162 473.969 295.656 473.657 295.343C473.344 295.031 472.838 295.031 472.525 295.343L467.434 300.434ZM491.8 301V157H490.2V301H491.8ZM491 300.2H468V301.8H491V300.2Z" fill="#232A3D"/>
<path d="M491 44V43.2H491.8V44H491ZM491.566 103.566C491.253 103.878 490.747 103.878 490.434 103.566L485.343 98.4745C485.031 98.1621 485.031 97.6556 485.343 97.3431C485.656 97.0307 486.162 97.0307 486.475 97.3431L491 101.869L495.525 97.3431C495.838 97.0307 496.344 97.0307 496.657 97.3431C496.969 97.6556 496.969 98.1621 496.657 98.4745L491.566 103.566ZM491.8 44V103H490.2V44H491.8ZM491 44.8H468V43.2H491V44.8Z" fill="#232A3D"/>
<path d="M89.4343 190.566C89.7467 190.878 90.2533 190.878 90.5657 190.566L95.6569 185.475C95.9693 185.162 95.9693 184.656 95.6569 184.343C95.3444 184.031 94.8379 184.031 94.5255 184.343L90 188.869L85.4745 184.343C85.1621 184.031 84.6556 184.031 84.3431 184.343C84.0307 184.656 84.0307 185.162 84.3431 185.475L89.4343 190.566ZM89.2 157V190H90.8V157H89.2Z" fill="#232A3D"/>
<path d="M206.566 215.566C206.878 215.253 206.878 214.747 206.566 214.434L201.475 209.343C201.162 209.031 200.656 209.031 200.343 209.343C200.031 209.656 200.031 210.162 200.343 210.475L204.869 215L200.343 219.525C200.031 219.838 200.031 220.344 200.343 220.657C200.656 220.969 201.162 220.969 201.475 220.657L206.566 215.566ZM173 215.8H206V214.2H173V215.8Z" fill="#232A3D"/>
<path d="M172.434 129.566C172.122 129.253 172.122 128.747 172.434 128.434L177.525 123.343C177.838 123.031 178.344 123.031 178.657 123.343C178.969 123.656 178.969 124.162 178.657 124.475L174.131 129L178.657 133.525C178.969 133.838 178.969 134.344 178.657 134.657C178.344 134.969 177.838 134.969 177.525 134.657L172.434 129.566ZM206 129.8H173V128.2H206V129.8Z" fill="#232A3D"/>
<defs>
<linearGradient id="paint0_linear_1_6" x1="90" y1="20" x2="90" y2="66" gradientUnits="userSpaceOnUse">
<stop stop-color="#9B51E0"/>
<stop offset="1" stop-color="#9B51E0" stop-opacity="0"/>
</linearGradient>
<linearGradient id="paint1_linear_1_6" x1="289" y1="107" x2="289" y2="153" gradientUnits="userSpaceOnUse">
<stop stop-color="#9B51E0"/>
<stop offset="1" stop-color="#9B51E0" stop-opacity="0"/>
</linearGradient>
<linearGradient id="paint2_linear_1_6" x1="390" y1="20" x2="390" y2="66" gradientUnits="userSpaceOnUse">
<stop stop-color="#9B51E0"/>
<stop offset="1" stop-color="#9B51E0" stop-opacity="0"/>
</linearGradient>
<linearGradient id="paint3_linear_1_6" x1="484" y1="107" x2="484" y2="153" gradientUnits="userSpaceOnUse">
<stop stop-color="#9B51E0"/>
<stop offset="1" stop-color="#9B51E0" stop-opacity="0"/>
</linearGradient>
<linearGradient id="paint4_linear_1_6" x1="390" y1="277" x2="390" y2="323" gradientUnits="userSpaceOnUse">
<stop stop-color="#9B51E0"/>
<stop offset="1" stop-color="#9B51E0" stop-opacity="0"/>
</linearGradient>
<linearGradient id="paint5_linear_1_6" x1="289" y1="194" x2="289" y2="240" gradientUnits="userSpaceOnUse">
<stop stop-color="#9B51E0"/>
<stop offset="1" stop-color="#9B51E0" stop-opacity="0"/>
</linearGradient>
<linearGradient id="paint6_linear_1_6" x1="90" y1="107" x2="90" y2="153" gradientUnits="userSpaceOnUse">
<stop stop-color="#9B51E0"/>
<stop offset="1" stop-color="#9B51E0" stop-opacity="0"/>
</linearGradient>
<linearGradient id="paint7_linear_1_6" x1="90" y1="194" x2="90" y2="240" gradientUnits="userSpaceOnUse">
<stop stop-color="#9B51E0"/>
<stop offset="1" stop-color="#9B51E0" stop-opacity="0"/>
</linearGradient>
</defs>
</svg>
