<svg width="429" height="285" viewBox="0 0 429 285" fill="none" xmlns="http://www.w3.org/2000/svg">
<rect width="429" height="285" fill="white"/>
<rect x="31" y="34" width="129" height="42" fill="#9B51E0" fill-opacity="0.2"/>
<rect x="267" y="34" width="129" height="42" fill="#9B51E0" fill-opacity="0.2"/>
<rect x="30.5" y="34.5" width="129" height="233" stroke="black"/>
<rect x="266.5" y="34.5" width="129" height="233" stroke="black"/>
<path d="M31 76H160" stroke="#232A3D"/>
<path d="M267 76H396" stroke="#232A3D"/>
<path d="M31 190H160" stroke="#232A3D"/>
<path d="M267 190H396" stroke="#232A3D"/>
<path d="M31 114H160" stroke="#232A3D"/>
<path d="M267 114H396" stroke="#232A3D"/>
<path d="M31 228H160" stroke="#232A3D"/>
<path d="M267 228H396" stroke="#232A3D"/>
<path d="M31 153L160 153" stroke="#232A3D"/>
<path d="M267 153L396 153" stroke="#232A3D"/>
<path d="M67.3708 63V51.784H69.7228V54.536L69.5948 56.056H69.6428C69.9414 55.7467 70.3041 55.4747 70.7308 55.24C71.1681 54.9947 71.6854 54.872 72.2828 54.872C73.1788 54.872 73.8294 55.16 74.2348 55.736C74.6508 56.312 74.8588 57.1013 74.8588 58.104V63H72.5068V58.408C72.5068 57.8747 72.4161 57.4853 72.2348 57.24C72.0641 56.9947 71.7654 56.872 71.3388 56.872C71.0188 56.872 70.7361 56.9467 70.4908 57.096C70.2561 57.2347 70.0001 57.4373 69.7228 57.704V63H67.3708ZM81.0925 63.192C80.2712 63.192 79.5245 63.032 78.8525 62.712C78.1912 62.3813 77.6632 61.9067 77.2685 61.288C76.8845 60.6587 76.6925 59.9067 76.6925 59.032C76.6925 58.168 76.8898 57.4267 77.2845 56.808C77.6792 56.1787 78.1912 55.6987 78.8205 55.368C79.4498 55.0373 80.1165 54.872 80.8205 54.872C81.6418 54.872 82.3298 55.0427 82.8845 55.384C83.4392 55.7147 83.8552 56.168 84.1325 56.744C84.4205 57.3093 84.5645 57.9547 84.5645 58.68C84.5645 58.8933 84.5485 59.1013 84.5165 59.304C84.4952 59.496 84.4738 59.64 84.4525 59.736H78.4365V58.152H82.8685L82.5005 58.6C82.5005 57.96 82.3618 57.48 82.0845 57.16C81.8178 56.8293 81.4232 56.664 80.9005 56.664C80.5165 56.664 80.1805 56.7493 79.8925 56.92C79.6045 57.0907 79.3805 57.352 79.2205 57.704C79.0605 58.056 78.9805 58.4987 78.9805 59.032C78.9805 59.576 79.0765 60.024 79.2685 60.376C79.4605 60.7173 79.7378 60.9733 80.1005 61.144C80.4632 61.3147 80.9005 61.4 81.4125 61.4C81.7752 61.4 82.1165 61.352 82.4365 61.256C82.7672 61.16 83.1085 61.0213 83.4605 60.84L84.2445 62.264C83.7858 62.552 83.2792 62.7813 82.7245 62.952C82.1698 63.112 81.6258 63.192 81.0925 63.192ZM88.9903 63.192C88.4569 63.192 87.9929 63.0853 87.5983 62.872C87.2143 62.6587 86.9156 62.3707 86.7023 62.008C86.4889 61.6453 86.3823 61.24 86.3823 60.792C86.3823 59.9067 86.7823 59.2293 87.5823 58.76C88.3929 58.2907 89.7369 58.0027 91.6143 57.896C91.5823 57.6507 91.5023 57.4427 91.3743 57.272C91.2463 57.1013 91.0596 56.9733 90.8143 56.888C90.5796 56.792 90.2809 56.744 89.9183 56.744C89.6623 56.744 89.4063 56.776 89.1503 56.84C88.8943 56.8933 88.6276 56.9787 88.3503 57.096C88.0836 57.2027 87.8009 57.3307 87.5023 57.48L86.6703 55.944C87.0329 55.7307 87.4116 55.544 87.8063 55.384C88.2116 55.224 88.6276 55.1013 89.0543 55.016C89.4916 54.92 89.9343 54.872 90.3823 54.872C91.1289 54.872 91.7689 55.0053 92.3023 55.272C92.8356 55.528 93.2463 55.9227 93.5343 56.456C93.8223 56.9787 93.9663 57.6453 93.9663 58.456V63H92.0463L91.8703 62.104H91.8063C91.4116 62.4027 90.9743 62.6587 90.4943 62.872C90.0143 63.0853 89.5129 63.192 88.9903 63.192ZM89.7423 61.368C90.0943 61.368 90.4249 61.2987 90.7343 61.16C91.0436 61.0107 91.3369 60.8293 91.6143 60.616V59.304C90.8356 59.3467 90.2276 59.4267 89.7903 59.544C89.3636 59.6613 89.0649 59.8107 88.8943 59.992C88.7236 60.1733 88.6383 60.3813 88.6383 60.616C88.6383 60.776 88.6809 60.9147 88.7663 61.032C88.8623 61.1493 88.9903 61.2347 89.1503 61.288C89.3209 61.3413 89.5183 61.368 89.7423 61.368ZM101.32 63.192C100.328 63.192 99.576 62.8933 99.064 62.296C98.552 61.6987 98.296 60.8987 98.296 59.896V53.64H95.816V51.8H100.648V59.992C100.648 60.4827 100.781 60.824 101.048 61.016C101.315 61.1973 101.608 61.288 101.928 61.288C102.12 61.288 102.312 61.2667 102.504 61.224C102.707 61.1813 102.931 61.1173 103.176 61.032L103.688 62.76C103.283 62.888 102.909 62.9893 102.568 63.064C102.237 63.1493 101.821 63.192 101.32 63.192ZM110.802 63.192C109.959 63.192 109.287 63.048 108.786 62.76C108.295 62.4613 107.938 62.0507 107.714 61.528C107.49 61.0053 107.378 60.3973 107.378 59.704V56.904H105.394V55.16L107.49 55.064L107.794 52.632H109.73V55.064H113.09V56.904H109.73V59.688C109.73 60.0827 109.788 60.4027 109.906 60.648C110.023 60.8933 110.204 61.0747 110.45 61.192C110.695 61.2987 111.01 61.352 111.394 61.352C111.703 61.352 111.986 61.3253 112.242 61.272C112.498 61.2187 112.743 61.1493 112.978 61.064L113.394 62.76C113.042 62.8667 112.652 62.9627 112.226 63.048C111.81 63.144 111.335 63.192 110.802 63.192ZM115.34 63V51.784H117.692V54.536L117.564 56.056H117.612C117.91 55.7467 118.273 55.4747 118.7 55.24C119.137 54.9947 119.654 54.872 120.252 54.872C121.148 54.872 121.798 55.16 122.204 55.736C122.62 56.312 122.828 57.1013 122.828 58.104V63H120.476V58.408C120.476 57.8747 120.385 57.4853 120.204 57.24C120.033 56.9947 119.734 56.872 119.308 56.872C118.988 56.872 118.705 56.9467 118.46 57.096C118.225 57.2347 117.969 57.4373 117.692 57.704V63H115.34Z" fill="#232A3D"/>
<path d="M303.371 63V51.784H305.723V54.536L305.595 56.056H305.643C305.941 55.7467 306.304 55.4747 306.731 55.24C307.168 54.9947 307.685 54.872 308.283 54.872C309.179 54.872 309.829 55.16 310.235 55.736C310.651 56.312 310.859 57.1013 310.859 58.104V63H308.507V58.408C308.507 57.8747 308.416 57.4853 308.235 57.24C308.064 56.9947 307.765 56.872 307.339 56.872C307.019 56.872 306.736 56.9467 306.491 57.096C306.256 57.2347 306 57.4373 305.723 57.704V63H303.371ZM317.093 63.192C316.271 63.192 315.525 63.032 314.853 62.712C314.191 62.3813 313.663 61.9067 313.269 61.288C312.885 60.6587 312.693 59.9067 312.693 59.032C312.693 58.168 312.89 57.4267 313.285 56.808C313.679 56.1787 314.191 55.6987 314.821 55.368C315.45 55.0373 316.117 54.872 316.821 54.872C317.642 54.872 318.33 55.0427 318.885 55.384C319.439 55.7147 319.855 56.168 320.133 56.744C320.421 57.3093 320.565 57.9547 320.565 58.68C320.565 58.8933 320.549 59.1013 320.517 59.304C320.495 59.496 320.474 59.64 320.453 59.736H314.437V58.152H318.869L318.501 58.6C318.501 57.96 318.362 57.48 318.085 57.16C317.818 56.8293 317.423 56.664 316.901 56.664C316.517 56.664 316.181 56.7493 315.893 56.92C315.605 57.0907 315.381 57.352 315.221 57.704C315.061 58.056 314.981 58.4987 314.981 59.032C314.981 59.576 315.077 60.024 315.269 60.376C315.461 60.7173 315.738 60.9733 316.101 61.144C316.463 61.3147 316.901 61.4 317.413 61.4C317.775 61.4 318.117 61.352 318.437 61.256C318.767 61.16 319.109 61.0213 319.461 60.84L320.245 62.264C319.786 62.552 319.279 62.7813 318.725 62.952C318.17 63.112 317.626 63.192 317.093 63.192ZM324.99 63.192C324.457 63.192 323.993 63.0853 323.598 62.872C323.214 62.6587 322.916 62.3707 322.702 62.008C322.489 61.6453 322.382 61.24 322.382 60.792C322.382 59.9067 322.782 59.2293 323.582 58.76C324.393 58.2907 325.737 58.0027 327.614 57.896C327.582 57.6507 327.502 57.4427 327.374 57.272C327.246 57.1013 327.06 56.9733 326.814 56.888C326.58 56.792 326.281 56.744 325.918 56.744C325.662 56.744 325.406 56.776 325.15 56.84C324.894 56.8933 324.628 56.9787 324.35 57.096C324.084 57.2027 323.801 57.3307 323.502 57.48L322.67 55.944C323.033 55.7307 323.412 55.544 323.806 55.384C324.212 55.224 324.628 55.1013 325.054 55.016C325.492 54.92 325.934 54.872 326.382 54.872C327.129 54.872 327.769 55.0053 328.302 55.272C328.836 55.528 329.246 55.9227 329.534 56.456C329.822 56.9787 329.966 57.6453 329.966 58.456V63H328.046L327.87 62.104H327.806C327.412 62.4027 326.974 62.6587 326.494 62.872C326.014 63.0853 325.513 63.192 324.99 63.192ZM325.742 61.368C326.094 61.368 326.425 61.2987 326.734 61.16C327.044 61.0107 327.337 60.8293 327.614 60.616V59.304C326.836 59.3467 326.228 59.4267 325.79 59.544C325.364 59.6613 325.065 59.8107 324.894 59.992C324.724 60.1733 324.638 60.3813 324.638 60.616C324.638 60.776 324.681 60.9147 324.766 61.032C324.862 61.1493 324.99 61.2347 325.15 61.288C325.321 61.3413 325.518 61.368 325.742 61.368ZM337.32 63.192C336.328 63.192 335.576 62.8933 335.064 62.296C334.552 61.6987 334.296 60.8987 334.296 59.896V53.64H331.816V51.8H336.648V59.992C336.648 60.4827 336.781 60.824 337.048 61.016C337.315 61.1973 337.608 61.288 337.928 61.288C338.12 61.288 338.312 61.2667 338.504 61.224C338.707 61.1813 338.931 61.1173 339.176 61.032L339.688 62.76C339.283 62.888 338.909 62.9893 338.568 63.064C338.237 63.1493 337.821 63.192 337.32 63.192ZM346.802 63.192C345.959 63.192 345.287 63.048 344.786 62.76C344.295 62.4613 343.938 62.0507 343.714 61.528C343.49 61.0053 343.378 60.3973 343.378 59.704V56.904H341.394V55.16L343.49 55.064L343.794 52.632H345.73V55.064H349.09V56.904H345.73V59.688C345.73 60.0827 345.788 60.4027 345.906 60.648C346.023 60.8933 346.204 61.0747 346.45 61.192C346.695 61.2987 347.01 61.352 347.394 61.352C347.703 61.352 347.986 61.3253 348.242 61.272C348.498 61.2187 348.743 61.1493 348.978 61.064L349.394 62.76C349.042 62.8667 348.652 62.9627 348.226 63.048C347.81 63.144 347.335 63.192 346.802 63.192ZM351.34 63V51.784H353.692V54.536L353.564 56.056H353.612C353.91 55.7467 354.273 55.4747 354.7 55.24C355.137 54.9947 355.654 54.872 356.252 54.872C357.148 54.872 357.798 55.16 358.204 55.736C358.62 56.312 358.828 57.1013 358.828 58.104V63H356.476V58.408C356.476 57.8747 356.385 57.4853 356.204 57.24C356.033 56.9947 355.734 56.872 355.308 56.872C354.988 56.872 354.705 56.9467 354.46 57.096C354.225 57.2347 353.969 57.4373 353.692 57.704V63H351.34Z" fill="#232A3D"/>
<path d="M60.837 101L57.573 90.536H59.541L61.013 95.8C61.1943 96.3867 61.349 96.952 61.477 97.496C61.6157 98.0293 61.7703 98.6 61.941 99.208H62.005C62.1863 98.6 62.341 98.0293 62.469 97.496C62.6077 96.952 62.757 96.3867 62.917 95.8L64.373 90.536H66.277L63.029 101H60.837ZM71.9988 101.192C71.1988 101.192 70.4734 101.032 69.8228 100.712C69.1721 100.381 68.6548 99.912 68.2708 99.304C67.8868 98.6853 67.6948 97.9387 67.6948 97.064C67.6948 96.2107 67.8868 95.48 68.2708 94.872C68.6548 94.2533 69.1561 93.7787 69.7748 93.448C70.3934 93.1173 71.0548 92.952 71.7588 92.952C72.5374 92.952 73.1934 93.112 73.7268 93.432C74.2708 93.752 74.6814 94.1947 74.9588 94.76C75.2468 95.3147 75.3908 95.9547 75.3908 96.68C75.3908 96.8613 75.3801 97.0373 75.3588 97.208C75.3481 97.368 75.3321 97.5013 75.3108 97.608H69.0228V96.296H74.1268L73.7748 96.712C73.7748 95.9333 73.5988 95.352 73.2468 94.968C72.9054 94.5733 72.4254 94.376 71.8068 94.376C71.3694 94.376 70.9748 94.4773 70.6228 94.68C70.2814 94.8827 70.0094 95.1867 69.8068 95.592C69.6041 95.9867 69.5028 96.4773 69.5028 97.064C69.5028 97.672 69.6148 98.1733 69.8388 98.568C70.0734 98.9627 70.3934 99.2613 70.7988 99.464C71.2148 99.6667 71.6948 99.768 72.2388 99.768C72.6548 99.768 73.0388 99.7093 73.3908 99.592C73.7428 99.4747 74.0948 99.3147 74.4468 99.112L75.0708 100.264C74.6548 100.531 74.1854 100.755 73.6628 100.936C73.1401 101.107 72.5854 101.192 71.9988 101.192ZM78.3925 101V93.144H79.9125L80.0725 94.92H80.1205C80.5152 94.28 81.0005 93.7947 81.5765 93.464C82.1632 93.1227 82.7925 92.952 83.4645 92.952C83.7845 92.952 84.0618 92.9787 84.2965 93.032C84.5312 93.0853 84.7605 93.1653 84.9845 93.272L84.6005 94.824C84.3445 94.7387 84.1152 94.68 83.9125 94.648C83.7205 94.6053 83.4752 94.584 83.1765 94.584C82.6432 94.584 82.1205 94.7387 81.6085 95.048C81.1072 95.3573 80.6538 95.896 80.2485 96.664V101H78.3925ZM88.0983 104.232C87.8956 104.232 87.6929 104.216 87.4903 104.184C87.2983 104.152 87.1276 104.115 86.9783 104.072L87.3303 102.632C87.4369 102.664 87.5436 102.691 87.6503 102.712C87.7676 102.733 87.8796 102.744 87.9863 102.744C88.4876 102.744 88.8876 102.616 89.1863 102.36C89.4849 102.104 89.7143 101.784 89.8743 101.4L90.0663 100.904L86.5463 93.144H88.3863L90.0023 97C90.1409 97.352 90.2849 97.7253 90.4343 98.12C90.5836 98.5147 90.7276 98.9093 90.8663 99.304H90.9303C91.0583 98.9307 91.1863 98.5467 91.3143 98.152C91.4529 97.7467 91.5863 97.3627 91.7143 97L93.1383 93.144H94.8823L91.6023 101.352C91.3889 101.939 91.1276 102.445 90.8183 102.872C90.5089 103.309 90.1356 103.645 89.6983 103.88C89.2609 104.115 88.7276 104.232 88.0983 104.232ZM106.47 101V90.536H109.718C110.432 90.536 111.067 90.6213 111.622 90.792C112.187 90.952 112.63 91.2187 112.95 91.592C113.27 91.9653 113.43 92.472 113.43 93.112C113.43 93.6027 113.28 94.0667 112.982 94.504C112.694 94.9307 112.24 95.224 111.622 95.384V95.448C112.379 95.576 112.96 95.8427 113.366 96.248C113.771 96.6533 113.974 97.2133 113.974 97.928C113.974 98.6213 113.803 99.1973 113.462 99.656C113.12 100.115 112.646 100.456 112.038 100.68C111.44 100.893 110.758 101 109.99 101H106.47ZM108.326 94.84H109.558C110.283 94.84 110.806 94.712 111.126 94.456C111.446 94.2 111.606 93.8267 111.606 93.336C111.606 92.856 111.44 92.52 111.11 92.328C110.779 92.1253 110.272 92.024 109.59 92.024H108.326V94.84ZM108.326 99.512H109.798C110.566 99.512 111.147 99.3787 111.542 99.112C111.947 98.8347 112.15 98.3973 112.15 97.8C112.15 97.256 111.952 96.8613 111.558 96.616C111.163 96.3707 110.576 96.248 109.798 96.248H108.326V99.512ZM118.448 101.192C117.936 101.192 117.482 101.096 117.088 100.904C116.693 100.701 116.384 100.429 116.16 100.088C115.936 99.7467 115.824 99.3467 115.824 98.888C115.824 98.0133 116.24 97.3467 117.072 96.888C117.914 96.4187 119.306 96.1147 121.248 95.976C121.226 95.688 121.146 95.4267 121.008 95.192C120.88 94.9573 120.682 94.776 120.416 94.648C120.149 94.5093 119.802 94.44 119.376 94.44C119.077 94.44 118.784 94.4773 118.496 94.552C118.208 94.6267 117.92 94.728 117.632 94.856C117.354 94.984 117.077 95.1227 116.799 95.272L116.128 94.04C116.448 93.848 116.8 93.672 117.184 93.512C117.568 93.3413 117.973 93.208 118.4 93.112C118.826 93.0053 119.264 92.952 119.712 92.952C120.448 92.952 121.061 93.0853 121.552 93.352C122.053 93.608 122.432 93.992 122.688 94.504C122.954 95.0053 123.088 95.6187 123.088 96.344V101H121.584L121.44 100.024H121.392C120.976 100.344 120.512 100.621 120 100.856C119.498 101.08 118.981 101.192 118.448 101.192ZM119.008 99.752C119.402 99.752 119.781 99.6667 120.144 99.496C120.517 99.3147 120.885 99.08 121.248 98.792V97.128C120.309 97.192 119.573 97.2987 119.04 97.448C118.506 97.5867 118.133 97.768 117.92 97.992C117.706 98.216 117.6 98.4667 117.6 98.744C117.6 98.9787 117.664 99.1707 117.792 99.32C117.92 99.4693 118.085 99.5813 118.288 99.656C118.501 99.72 118.741 99.752 119.008 99.752ZM128.489 101.192C127.487 101.192 126.676 100.829 126.057 100.104C125.439 99.3787 125.129 98.3707 125.129 97.08C125.129 96.2267 125.295 95.4907 125.625 94.872C125.956 94.2533 126.388 93.7787 126.921 93.448C127.455 93.1173 128.015 92.952 128.601 92.952C129.049 92.952 129.444 93.032 129.785 93.192C130.137 93.352 130.463 93.5813 130.761 93.88H130.809L130.713 92.552V89.704H132.569V101H131.049L130.905 100.088H130.857C130.559 100.387 130.201 100.648 129.785 100.872C129.369 101.085 128.937 101.192 128.489 101.192ZM128.937 99.672C129.257 99.672 129.567 99.5973 129.865 99.448C130.164 99.288 130.447 99.048 130.713 98.728V95.192C130.436 94.9253 130.159 94.7387 129.881 94.632C129.604 94.5253 129.321 94.472 129.033 94.472C128.671 94.472 128.335 94.5733 128.025 94.776C127.727 94.9787 127.487 95.272 127.305 95.656C127.124 96.04 127.033 96.5093 127.033 97.064C127.033 97.9067 127.199 98.552 127.529 99C127.871 99.448 128.34 99.672 128.937 99.672Z" fill="#232A3D"/>
<path d="M331.003 101.192C330.235 101.192 329.568 100.984 329.003 100.568C328.438 100.152 328 99.5493 327.691 98.76C327.382 97.9707 327.227 97.0053 327.227 95.864C327.227 94.1467 327.568 92.8453 328.251 91.96C328.934 91.0747 329.851 90.632 331.003 90.632C332.166 90.632 333.083 91.0747 333.755 91.96C334.438 92.8453 334.779 94.1467 334.779 95.864C334.779 97.0053 334.624 97.9707 334.315 98.76C334.016 99.5493 333.584 100.152 333.019 100.568C332.454 100.984 331.782 101.192 331.003 101.192ZM331.003 99.752C331.408 99.752 331.771 99.624 332.091 99.368C332.411 99.1013 332.662 98.6853 332.843 98.12C333.024 97.544 333.115 96.792 333.115 95.864C333.115 94.936 333.024 94.1947 332.843 93.64C332.662 93.0853 332.411 92.6853 332.091 92.44C331.771 92.1947 331.408 92.072 331.003 92.072C330.598 92.072 330.235 92.1947 329.915 92.44C329.595 92.6853 329.344 93.0853 329.163 93.64C328.982 94.1947 328.891 94.936 328.891 95.864C328.891 96.792 328.982 97.544 329.163 98.12C329.344 98.6853 329.595 99.1013 329.915 99.368C330.235 99.624 330.598 99.752 331.003 99.752ZM331.003 96.936C330.704 96.936 330.443 96.8347 330.219 96.632C330.006 96.4293 329.899 96.152 329.899 95.8C329.899 95.448 330.006 95.1707 330.219 94.968C330.443 94.7653 330.704 94.664 331.003 94.664C331.312 94.664 331.574 94.7653 331.787 94.968C332 95.1707 332.107 95.448 332.107 95.8C332.107 96.152 332 96.4293 331.787 96.632C331.574 96.8347 331.312 96.936 331.003 96.936Z" fill="#232A3D"/>
<path d="M82.4854 139V128.536H85.7334C86.448 128.536 87.0827 128.621 87.6374 128.792C88.2027 128.952 88.6454 129.219 88.9654 129.592C89.2854 129.965 89.4454 130.472 89.4454 131.112C89.4454 131.603 89.296 132.067 88.9974 132.504C88.7094 132.931 88.256 133.224 87.6374 133.384V133.448C88.3947 133.576 88.976 133.843 89.3814 134.248C89.7867 134.653 89.9894 135.213 89.9894 135.928C89.9894 136.621 89.8187 137.197 89.4774 137.656C89.136 138.115 88.6614 138.456 88.0534 138.68C87.456 138.893 86.7734 139 86.0054 139H82.4854ZM84.3414 132.84H85.5734C86.2987 132.84 86.8214 132.712 87.1414 132.456C87.4614 132.2 87.6214 131.827 87.6214 131.336C87.6214 130.856 87.456 130.52 87.1254 130.328C86.7947 130.125 86.288 130.024 85.6054 130.024H84.3414V132.84ZM84.3414 137.512H85.8134C86.5814 137.512 87.1627 137.379 87.5574 137.112C87.9627 136.835 88.1654 136.397 88.1654 135.8C88.1654 135.256 87.968 134.861 87.5734 134.616C87.1787 134.371 86.592 134.248 85.8134 134.248H84.3414V137.512ZM94.4631 139.192C93.9511 139.192 93.4978 139.096 93.1031 138.904C92.7085 138.701 92.3991 138.429 92.1751 138.088C91.9511 137.747 91.8391 137.347 91.8391 136.888C91.8391 136.013 92.2551 135.347 93.0871 134.888C93.9298 134.419 95.3218 134.115 97.2631 133.976C97.2418 133.688 97.1618 133.427 97.0231 133.192C96.8951 132.957 96.6978 132.776 96.4311 132.648C96.1645 132.509 95.8178 132.44 95.3911 132.44C95.0925 132.44 94.7991 132.477 94.5111 132.552C94.2231 132.627 93.9351 132.728 93.6471 132.856C93.3698 132.984 93.0925 133.123 92.8151 133.272L92.1431 132.04C92.4631 131.848 92.8151 131.672 93.1991 131.512C93.5831 131.341 93.9885 131.208 94.4151 131.112C94.8418 131.005 95.2791 130.952 95.7271 130.952C96.4631 130.952 97.0765 131.085 97.5671 131.352C98.0685 131.608 98.4471 131.992 98.7031 132.504C98.9698 133.005 99.1031 133.619 99.1031 134.344V139H97.5991L97.4551 138.024H97.4071C96.9911 138.344 96.5271 138.621 96.0151 138.856C95.5138 139.08 94.9965 139.192 94.4631 139.192ZM95.0231 137.752C95.4178 137.752 95.7965 137.667 96.1591 137.496C96.5325 137.315 96.9005 137.08 97.2631 136.792V135.128C96.3245 135.192 95.5885 135.299 95.0551 135.448C94.5218 135.587 94.1485 135.768 93.9351 135.992C93.7218 136.216 93.6151 136.467 93.6151 136.744C93.6151 136.979 93.6791 137.171 93.8071 137.32C93.9351 137.469 94.1005 137.581 94.3031 137.656C94.5165 137.72 94.7565 137.752 95.0231 137.752ZM104.505 139.192C103.502 139.192 102.692 138.829 102.073 138.104C101.454 137.379 101.145 136.371 101.145 135.08C101.145 134.227 101.31 133.491 101.641 132.872C101.972 132.253 102.404 131.779 102.937 131.448C103.47 131.117 104.03 130.952 104.617 130.952C105.065 130.952 105.46 131.032 105.801 131.192C106.153 131.352 106.478 131.581 106.777 131.88H106.825L106.729 130.552V127.704H108.585V139H107.065L106.921 138.088H106.873C106.574 138.387 106.217 138.648 105.801 138.872C105.385 139.085 104.953 139.192 104.505 139.192ZM104.953 137.672C105.273 137.672 105.582 137.597 105.881 137.448C106.18 137.288 106.462 137.048 106.729 136.728V133.192C106.452 132.925 106.174 132.739 105.897 132.632C105.62 132.525 105.337 132.472 105.049 132.472C104.686 132.472 104.35 132.573 104.041 132.776C103.742 132.979 103.502 133.272 103.321 133.656C103.14 134.04 103.049 134.509 103.049 135.064C103.049 135.907 103.214 136.552 103.545 137C103.886 137.448 104.356 137.672 104.953 137.672Z" fill="#232A3D"/>
<path d="M327.611 139V137.496H330.443V130.808H328.187V129.656C328.614 129.592 328.987 129.523 329.307 129.448C329.627 129.373 329.915 129.283 330.171 129.176C330.438 129.069 330.694 128.952 330.939 128.824H332.283V137.496H334.779V139H327.611Z" fill="#232A3D"/>
<path d="M62.7659 177V166.536H66.2539C66.9792 166.536 67.6299 166.632 68.2059 166.824C68.7925 167.016 69.2565 167.341 69.5979 167.8C69.9392 168.248 70.1099 168.861 70.1099 169.64C70.1099 170.387 69.9392 171 69.5979 171.48C69.2565 171.96 68.7925 172.317 68.2059 172.552C67.6299 172.787 66.9792 172.904 66.2539 172.904H64.6219V177H62.7659ZM64.6219 171.432H66.0619C66.7872 171.432 67.3365 171.283 67.7099 170.984C68.0939 170.685 68.2859 170.237 68.2859 169.64C68.2859 169.043 68.0939 168.627 67.7099 168.392C67.3365 168.147 66.7872 168.024 66.0619 168.024H64.6219V171.432ZM65.9179 172.408L67.2619 171.304L70.5259 177H68.4299L65.9179 172.408ZM76.2956 177.192C75.4956 177.192 74.7703 177.032 74.1196 176.712C73.469 176.381 72.9516 175.912 72.5676 175.304C72.1836 174.685 71.9916 173.939 71.9916 173.064C71.9916 172.211 72.1836 171.48 72.5676 170.872C72.9516 170.253 73.453 169.779 74.0716 169.448C74.6903 169.117 75.3516 168.952 76.0556 168.952C76.8343 168.952 77.4903 169.112 78.0236 169.432C78.5676 169.752 78.9783 170.195 79.2556 170.76C79.5436 171.315 79.6876 171.955 79.6876 172.68C79.6876 172.861 79.677 173.037 79.6556 173.208C79.645 173.368 79.629 173.501 79.6076 173.608H73.3196V172.296H78.4236L78.0716 172.712C78.0716 171.933 77.8956 171.352 77.5436 170.968C77.2023 170.573 76.7223 170.376 76.1036 170.376C75.6663 170.376 75.2716 170.477 74.9196 170.68C74.5783 170.883 74.3063 171.187 74.1036 171.592C73.901 171.987 73.7996 172.477 73.7996 173.064C73.7996 173.672 73.9116 174.173 74.1356 174.568C74.3703 174.963 74.6903 175.261 75.0956 175.464C75.5116 175.667 75.9916 175.768 76.5356 175.768C76.9516 175.768 77.3356 175.709 77.6876 175.592C78.0396 175.475 78.3916 175.315 78.7436 175.112L79.3676 176.264C78.9516 176.531 78.4823 176.755 77.9596 176.936C77.437 177.107 76.8823 177.192 76.2956 177.192ZM85.1854 180.472C84.46 180.472 83.8307 180.392 83.2974 180.232C82.764 180.083 82.348 179.853 82.0494 179.544C81.7507 179.235 81.6014 178.845 81.6014 178.376C81.6014 178.067 81.708 177.768 81.9214 177.48C82.1347 177.192 82.444 176.941 82.8494 176.728V176.664C82.6467 176.536 82.46 176.371 82.2894 176.168C82.1294 175.955 82.0494 175.683 82.0494 175.352C82.0494 175.096 82.1347 174.835 82.3054 174.568C82.476 174.301 82.7054 174.072 82.9934 173.88V173.816C82.716 173.613 82.476 173.341 82.2734 173C82.0814 172.648 81.9854 172.243 81.9854 171.784C81.9854 171.176 82.1347 170.664 82.4334 170.248C82.732 169.821 83.1267 169.501 83.6174 169.288C84.108 169.064 84.6414 168.952 85.2174 168.952C85.6867 168.952 86.0974 169.016 86.4494 169.144H89.6654V170.552H87.8574C87.996 170.701 88.1134 170.893 88.2094 171.128C88.316 171.352 88.3694 171.592 88.3694 171.848C88.3694 172.424 88.2254 172.915 87.9374 173.32C87.66 173.715 87.2867 174.013 86.8174 174.216C86.348 174.419 85.8147 174.52 85.2174 174.52C85.036 174.52 84.8387 174.504 84.6254 174.472C84.4227 174.429 84.22 174.371 84.0174 174.296C83.8574 174.392 83.7347 174.499 83.6494 174.616C83.5747 174.733 83.5374 174.872 83.5374 175.032C83.5374 175.277 83.66 175.464 83.9054 175.592C84.1614 175.709 84.5347 175.768 85.0254 175.768H86.6254C87.6494 175.768 88.4174 175.917 88.9294 176.216C89.452 176.504 89.7134 176.995 89.7134 177.688C89.7134 178.2 89.5267 178.669 89.1534 179.096C88.7907 179.523 88.268 179.859 87.5854 180.104C86.9134 180.349 86.1134 180.472 85.1854 180.472ZM85.2174 173.352C85.4947 173.352 85.7454 173.293 85.9694 173.176C86.1934 173.048 86.3694 172.867 86.4974 172.632C86.636 172.397 86.7054 172.115 86.7054 171.784C86.7054 171.464 86.636 171.192 86.4974 170.968C86.3694 170.733 86.1934 170.552 85.9694 170.424C85.7454 170.296 85.4947 170.232 85.2174 170.232C84.9507 170.232 84.7054 170.296 84.4814 170.424C84.2574 170.552 84.076 170.733 83.9374 170.968C83.7987 171.192 83.7294 171.464 83.7294 171.784C83.7294 172.115 83.7987 172.397 83.9374 172.632C84.076 172.867 84.2574 173.048 84.4814 173.176C84.7054 173.293 84.9507 173.352 85.2174 173.352ZM85.4094 179.256C85.9214 179.256 86.364 179.197 86.7374 179.08C87.1214 178.963 87.4147 178.808 87.6174 178.616C87.8307 178.424 87.9374 178.216 87.9374 177.992C87.9374 177.683 87.804 177.475 87.5374 177.368C87.2814 177.272 86.8867 177.224 86.3534 177.224H85.1054C84.8494 177.224 84.6254 177.213 84.4334 177.192C84.2414 177.171 84.0654 177.144 83.9054 177.112C83.628 177.272 83.4307 177.437 83.3134 177.608C83.196 177.779 83.1374 177.955 83.1374 178.136C83.1374 178.488 83.3347 178.76 83.7294 178.952C84.124 179.155 84.684 179.256 85.4094 179.256ZM93.9471 177.192C93.0298 177.192 92.3631 176.915 91.9471 176.36C91.5311 175.805 91.3231 175.021 91.3231 174.008V169.144H93.1631V173.768C93.1631 174.397 93.2698 174.861 93.4831 175.16C93.7071 175.459 94.0911 175.608 94.6351 175.608C94.9978 175.608 95.3285 175.523 95.6271 175.352C95.9365 175.171 96.2618 174.867 96.6031 174.44V169.144H98.4431V177H96.9391L96.7951 175.752H96.7311C96.3578 176.179 95.9471 176.525 95.4991 176.792C95.0511 177.059 94.5338 177.192 93.9471 177.192ZM106.197 177.192C105.29 177.192 104.597 176.925 104.117 176.392C103.648 175.848 103.413 175.096 103.413 174.136V167.16H100.853V165.704H105.253V174.232C105.253 174.765 105.386 175.144 105.653 175.368C105.93 175.581 106.266 175.688 106.661 175.688C106.864 175.688 107.072 175.667 107.285 175.624C107.498 175.571 107.738 175.491 108.005 175.384L108.437 176.744C108.064 176.872 107.712 176.979 107.381 177.064C107.061 177.149 106.666 177.192 106.197 177.192ZM113.151 177.192C112.639 177.192 112.185 177.096 111.791 176.904C111.396 176.701 111.087 176.429 110.863 176.088C110.639 175.747 110.527 175.347 110.527 174.888C110.527 174.013 110.943 173.347 111.775 172.888C112.617 172.419 114.009 172.115 115.951 171.976C115.929 171.688 115.849 171.427 115.711 171.192C115.583 170.957 115.385 170.776 115.119 170.648C114.852 170.509 114.505 170.44 114.079 170.44C113.78 170.44 113.487 170.477 113.199 170.552C112.911 170.627 112.623 170.728 112.335 170.856C112.057 170.984 111.78 171.123 111.503 171.272L110.831 170.04C111.151 169.848 111.503 169.672 111.887 169.512C112.271 169.341 112.676 169.208 113.103 169.112C113.529 169.005 113.967 168.952 114.415 168.952C115.151 168.952 115.764 169.085 116.255 169.352C116.756 169.608 117.135 169.992 117.391 170.504C117.657 171.005 117.791 171.619 117.791 172.344V177H116.287L116.143 176.024H116.095C115.679 176.344 115.215 176.621 114.703 176.856C114.201 177.08 113.684 177.192 113.151 177.192ZM113.711 175.752C114.105 175.752 114.484 175.667 114.847 175.496C115.22 175.315 115.588 175.08 115.951 174.792V173.128C115.012 173.192 114.276 173.299 113.743 173.448C113.209 173.587 112.836 173.768 112.623 173.992C112.409 174.216 112.303 174.467 112.303 174.744C112.303 174.979 112.367 175.171 112.495 175.32C112.623 175.469 112.788 175.581 112.991 175.656C113.204 175.72 113.444 175.752 113.711 175.752ZM121.064 177V169.144H122.584L122.744 170.92H122.792C123.187 170.28 123.672 169.795 124.248 169.464C124.835 169.123 125.464 168.952 126.136 168.952C126.456 168.952 126.734 168.979 126.968 169.032C127.203 169.085 127.432 169.165 127.656 169.272L127.272 170.824C127.016 170.739 126.787 170.68 126.584 170.648C126.392 170.605 126.147 170.584 125.848 170.584C125.315 170.584 124.792 170.739 124.28 171.048C123.779 171.357 123.326 171.896 122.92 172.664V177H121.064Z" fill="#232A3D"/>
<path d="M327.243 177V175.928C328.31 175.011 329.222 174.195 329.979 173.48C330.747 172.765 331.334 172.115 331.739 171.528C332.155 170.931 332.363 170.371 332.363 169.848C332.363 169.304 332.198 168.877 331.867 168.568C331.536 168.248 331.051 168.088 330.411 168.088C329.974 168.088 329.568 168.2 329.195 168.424C328.822 168.648 328.48 168.915 328.171 169.224L327.163 168.2C327.654 167.699 328.171 167.315 328.715 167.048C329.259 166.771 329.904 166.632 330.651 166.632C331.355 166.632 331.963 166.76 332.475 167.016C332.998 167.272 333.403 167.635 333.691 168.104C333.979 168.573 334.123 169.123 334.123 169.752C334.123 170.349 333.936 170.963 333.563 171.592C333.19 172.211 332.683 172.845 332.043 173.496C331.414 174.147 330.704 174.829 329.915 175.544C330.214 175.512 330.528 175.485 330.859 175.464C331.19 175.443 331.494 175.432 331.771 175.432H334.651V177H327.243Z" fill="#232A3D"/>
<path d="M81.7525 215.192C80.8778 215.192 80.0832 214.984 79.3685 214.568C78.6645 214.152 78.1045 213.544 77.6885 212.744C77.2832 211.933 77.0805 210.952 77.0805 209.8C77.0805 208.659 77.2885 207.683 77.7045 206.872C78.1205 206.051 78.6858 205.427 79.4005 205C80.1152 204.563 80.9258 204.344 81.8325 204.344C82.5258 204.344 83.1125 204.483 83.5925 204.76C84.0832 205.027 84.4832 205.325 84.7925 205.656L83.7685 206.808C83.5338 206.552 83.2618 206.349 82.9525 206.2C82.6538 206.04 82.2805 205.96 81.8325 205.96C81.2778 205.96 80.7872 206.115 80.3605 206.424C79.9338 206.723 79.5978 207.155 79.3525 207.72C79.1178 208.285 79.0005 208.963 79.0005 209.752C79.0005 210.541 79.1072 211.224 79.3205 211.8C79.5445 212.376 79.8698 212.819 80.2965 213.128C80.7232 213.427 81.2458 213.576 81.8645 213.576C82.1418 213.576 82.4085 213.539 82.6645 213.464C82.9205 213.379 83.1232 213.261 83.2725 213.112V210.856H81.4645V209.336H84.9525V213.944C84.6112 214.285 84.1578 214.579 83.5925 214.824C83.0378 215.069 82.4245 215.192 81.7525 215.192ZM90.7063 215.192C90.0129 215.192 89.3676 215.032 88.7703 214.712C88.1729 214.381 87.6876 213.912 87.3143 213.304C86.9409 212.685 86.7543 211.944 86.7543 211.08C86.7543 210.205 86.9409 209.464 87.3143 208.856C87.6876 208.237 88.1729 207.768 88.7703 207.448C89.3676 207.117 90.0129 206.952 90.7063 206.952C91.3996 206.952 92.0449 207.117 92.6423 207.448C93.2396 207.768 93.7249 208.237 94.0983 208.856C94.4716 209.464 94.6583 210.205 94.6583 211.08C94.6583 211.944 94.4716 212.685 94.0983 213.304C93.7249 213.912 93.2396 214.381 92.6423 214.712C92.0449 215.032 91.3996 215.192 90.7063 215.192ZM90.7063 213.688C91.1329 213.688 91.5009 213.581 91.8103 213.368C92.1196 213.155 92.3543 212.851 92.5143 212.456C92.6743 212.061 92.7543 211.603 92.7543 211.08C92.7543 210.557 92.6743 210.099 92.5143 209.704C92.3543 209.309 92.1196 209.005 91.8103 208.792C91.5009 208.568 91.1329 208.456 90.7063 208.456C90.2796 208.456 89.9116 208.568 89.6023 208.792C89.3036 209.005 89.0689 209.309 88.8983 209.704C88.7383 210.099 88.6583 210.557 88.6583 211.08C88.6583 211.603 88.7383 212.061 88.8983 212.456C89.0689 212.851 89.3036 213.155 89.6023 213.368C89.9116 213.581 90.2796 213.688 90.7063 213.688ZM100.3 215.192C99.6067 215.192 98.9613 215.032 98.364 214.712C97.7667 214.381 97.2813 213.912 96.908 213.304C96.5347 212.685 96.348 211.944 96.348 211.08C96.348 210.205 96.5347 209.464 96.908 208.856C97.2813 208.237 97.7667 207.768 98.364 207.448C98.9613 207.117 99.6067 206.952 100.3 206.952C100.993 206.952 101.639 207.117 102.236 207.448C102.833 207.768 103.319 208.237 103.692 208.856C104.065 209.464 104.252 210.205 104.252 211.08C104.252 211.944 104.065 212.685 103.692 213.304C103.319 213.912 102.833 214.381 102.236 214.712C101.639 215.032 100.993 215.192 100.3 215.192ZM100.3 213.688C100.727 213.688 101.095 213.581 101.404 213.368C101.713 213.155 101.948 212.851 102.108 212.456C102.268 212.061 102.348 211.603 102.348 211.08C102.348 210.557 102.268 210.099 102.108 209.704C101.948 209.309 101.713 209.005 101.404 208.792C101.095 208.568 100.727 208.456 100.3 208.456C99.8733 208.456 99.5053 208.568 99.196 208.792C98.8973 209.005 98.6627 209.309 98.492 209.704C98.332 210.099 98.252 210.557 98.252 211.08C98.252 211.603 98.332 212.061 98.492 212.456C98.6627 212.851 98.8973 213.155 99.196 213.368C99.5053 213.581 99.8733 213.688 100.3 213.688ZM109.302 215.192C108.299 215.192 107.488 214.829 106.87 214.104C106.251 213.379 105.942 212.371 105.942 211.08C105.942 210.227 106.107 209.491 106.438 208.872C106.768 208.253 107.2 207.779 107.734 207.448C108.267 207.117 108.827 206.952 109.414 206.952C109.862 206.952 110.256 207.032 110.598 207.192C110.95 207.352 111.275 207.581 111.574 207.88H111.622L111.526 206.552V203.704H113.382V215H111.862L111.718 214.088H111.67C111.371 214.387 111.014 214.648 110.598 214.872C110.182 215.085 109.75 215.192 109.302 215.192ZM109.75 213.672C110.07 213.672 110.379 213.597 110.678 213.448C110.976 213.288 111.259 213.048 111.526 212.728V209.192C111.248 208.925 110.971 208.739 110.694 208.632C110.416 208.525 110.134 208.472 109.846 208.472C109.483 208.472 109.147 208.573 108.838 208.776C108.539 208.979 108.299 209.272 108.118 209.656C107.936 210.04 107.846 210.509 107.846 211.064C107.846 211.907 108.011 212.552 108.342 213C108.683 213.448 109.152 213.672 109.75 213.672Z" fill="#232A3D"/>
<path d="M330.731 215.192C330.144 215.192 329.616 215.128 329.147 215C328.688 214.872 328.278 214.701 327.915 214.488C327.552 214.264 327.248 214.019 327.003 213.752L327.867 212.568C328.208 212.877 328.603 213.144 329.051 213.368C329.51 213.581 330.016 213.688 330.571 213.688C330.987 213.688 331.36 213.629 331.691 213.512C332.022 213.384 332.278 213.208 332.459 212.984C332.651 212.749 332.747 212.472 332.747 212.152C332.747 211.8 332.64 211.496 332.427 211.24C332.214 210.984 331.862 210.787 331.371 210.648C330.88 210.499 330.214 210.424 329.371 210.424V209.08C330.107 209.08 330.694 209.011 331.131 208.872C331.568 208.723 331.888 208.531 332.091 208.296C332.294 208.051 332.395 207.768 332.395 207.448C332.395 207.021 332.23 206.691 331.899 206.456C331.579 206.211 331.147 206.088 330.603 206.088C330.166 206.088 329.755 206.179 329.371 206.36C328.987 206.531 328.624 206.76 328.283 207.048L327.323 205.912C327.792 205.528 328.304 205.219 328.859 204.984C329.424 204.749 330.032 204.632 330.683 204.632C331.376 204.632 331.99 204.739 332.523 204.952C333.067 205.155 333.488 205.459 333.787 205.864C334.096 206.259 334.251 206.744 334.251 207.32C334.251 207.885 334.064 208.36 333.691 208.744C333.318 209.128 332.816 209.432 332.187 209.656V209.72C332.635 209.827 333.04 209.992 333.403 210.216C333.776 210.44 334.07 210.723 334.283 211.064C334.496 211.405 334.603 211.8 334.603 212.248C334.603 212.867 334.422 213.4 334.059 213.848C333.707 214.285 333.238 214.621 332.651 214.856C332.075 215.08 331.435 215.192 330.731 215.192Z" fill="#232A3D"/>
<path d="M56.0401 253L52.7761 242.536H54.7441L56.2161 247.8C56.3975 248.387 56.5521 248.952 56.6801 249.496C56.8188 250.029 56.9735 250.6 57.1441 251.208H57.2081C57.3895 250.6 57.5441 250.029 57.6721 249.496C57.8108 248.952 57.9601 248.387 58.1201 247.8L59.5761 242.536H61.4801L58.2321 253H56.0401ZM67.2019 253.192C66.4019 253.192 65.6765 253.032 65.0259 252.712C64.3752 252.381 63.8579 251.912 63.4739 251.304C63.0899 250.685 62.8979 249.939 62.8979 249.064C62.8979 248.211 63.0899 247.48 63.4739 246.872C63.8579 246.253 64.3592 245.779 64.9779 245.448C65.5965 245.117 66.2579 244.952 66.9619 244.952C67.7405 244.952 68.3965 245.112 68.9299 245.432C69.4739 245.752 69.8845 246.195 70.1619 246.76C70.4499 247.315 70.5939 247.955 70.5939 248.68C70.5939 248.861 70.5832 249.037 70.5619 249.208C70.5512 249.368 70.5352 249.501 70.5139 249.608H64.2259V248.296H69.3299L68.9779 248.712C68.9779 247.933 68.8019 247.352 68.4499 246.968C68.1085 246.573 67.6285 246.376 67.0099 246.376C66.5725 246.376 66.1779 246.477 65.8259 246.68C65.4845 246.883 65.2125 247.187 65.0099 247.592C64.8072 247.987 64.7059 248.477 64.7059 249.064C64.7059 249.672 64.8179 250.173 65.0419 250.568C65.2765 250.963 65.5965 251.261 66.0019 251.464C66.4179 251.667 66.8979 251.768 67.4419 251.768C67.8579 251.768 68.2419 251.709 68.5939 251.592C68.9459 251.475 69.2979 251.315 69.6499 251.112L70.2739 252.264C69.8579 252.531 69.3885 252.755 68.8659 252.936C68.3432 253.107 67.7885 253.192 67.2019 253.192ZM73.5956 253V245.144H75.1156L75.2756 246.92H75.3236C75.7183 246.28 76.2036 245.795 76.7796 245.464C77.3663 245.123 77.9956 244.952 78.6676 244.952C78.9876 244.952 79.265 244.979 79.4996 245.032C79.7343 245.085 79.9636 245.165 80.1876 245.272L79.8036 246.824C79.5476 246.739 79.3183 246.68 79.1156 246.648C78.9236 246.605 78.6783 246.584 78.3796 246.584C77.8463 246.584 77.3236 246.739 76.8116 247.048C76.3103 247.357 75.857 247.896 75.4516 248.664V253H73.5956ZM83.3014 256.232C83.0987 256.232 82.896 256.216 82.6934 256.184C82.5014 256.152 82.3307 256.115 82.1814 256.072L82.5334 254.632C82.64 254.664 82.7467 254.691 82.8534 254.712C82.9707 254.733 83.0827 254.744 83.1894 254.744C83.6907 254.744 84.0907 254.616 84.3894 254.36C84.688 254.104 84.9174 253.784 85.0774 253.4L85.2694 252.904L81.7494 245.144H83.5894L85.2054 249C85.344 249.352 85.488 249.725 85.6374 250.12C85.7867 250.515 85.9307 250.909 86.0694 251.304H86.1334C86.2614 250.931 86.3894 250.547 86.5174 250.152C86.656 249.747 86.7894 249.363 86.9174 249L88.3414 245.144H90.0854L86.8054 253.352C86.592 253.939 86.3307 254.445 86.0214 254.872C85.712 255.309 85.3387 255.645 84.9014 255.88C84.464 256.115 83.9307 256.232 83.3014 256.232ZM104.873 256.472C104.148 256.472 103.518 256.392 102.985 256.232C102.452 256.083 102.036 255.853 101.737 255.544C101.438 255.235 101.289 254.845 101.289 254.376C101.289 254.067 101.396 253.768 101.609 253.48C101.822 253.192 102.132 252.941 102.537 252.728V252.664C102.334 252.536 102.148 252.371 101.977 252.168C101.817 251.955 101.737 251.683 101.737 251.352C101.737 251.096 101.822 250.835 101.993 250.568C102.164 250.301 102.393 250.072 102.681 249.88V249.816C102.404 249.613 102.164 249.341 101.961 249C101.769 248.648 101.673 248.243 101.673 247.784C101.673 247.176 101.822 246.664 102.121 246.248C102.42 245.821 102.814 245.501 103.305 245.288C103.796 245.064 104.329 244.952 104.905 244.952C105.374 244.952 105.785 245.016 106.137 245.144H109.353V246.552H107.545C107.684 246.701 107.801 246.893 107.897 247.128C108.004 247.352 108.057 247.592 108.057 247.848C108.057 248.424 107.913 248.915 107.625 249.32C107.348 249.715 106.974 250.013 106.505 250.216C106.036 250.419 105.502 250.52 104.905 250.52C104.724 250.52 104.526 250.504 104.313 250.472C104.11 250.429 103.908 250.371 103.705 250.296C103.545 250.392 103.422 250.499 103.337 250.616C103.262 250.733 103.225 250.872 103.225 251.032C103.225 251.277 103.348 251.464 103.593 251.592C103.849 251.709 104.222 251.768 104.713 251.768H106.313C107.337 251.768 108.105 251.917 108.617 252.216C109.14 252.504 109.401 252.995 109.401 253.688C109.401 254.2 109.214 254.669 108.841 255.096C108.478 255.523 107.956 255.859 107.273 256.104C106.601 256.349 105.801 256.472 104.873 256.472ZM104.905 249.352C105.182 249.352 105.433 249.293 105.657 249.176C105.881 249.048 106.057 248.867 106.185 248.632C106.324 248.397 106.393 248.115 106.393 247.784C106.393 247.464 106.324 247.192 106.185 246.968C106.057 246.733 105.881 246.552 105.657 246.424C105.433 246.296 105.182 246.232 104.905 246.232C104.638 246.232 104.393 246.296 104.169 246.424C103.945 246.552 103.764 246.733 103.625 246.968C103.486 247.192 103.417 247.464 103.417 247.784C103.417 248.115 103.486 248.397 103.625 248.632C103.764 248.867 103.945 249.048 104.169 249.176C104.393 249.293 104.638 249.352 104.905 249.352ZM105.097 255.256C105.609 255.256 106.052 255.197 106.425 255.08C106.809 254.963 107.102 254.808 107.305 254.616C107.518 254.424 107.625 254.216 107.625 253.992C107.625 253.683 107.492 253.475 107.225 253.368C106.969 253.272 106.574 253.224 106.041 253.224H104.793C104.537 253.224 104.313 253.213 104.121 253.192C103.929 253.171 103.753 253.144 103.593 253.112C103.316 253.272 103.118 253.437 103.001 253.608C102.884 253.779 102.825 253.955 102.825 254.136C102.825 254.488 103.022 254.76 103.417 254.952C103.812 255.155 104.372 255.256 105.097 255.256ZM114.691 253.192C113.997 253.192 113.352 253.032 112.755 252.712C112.157 252.381 111.672 251.912 111.299 251.304C110.925 250.685 110.739 249.944 110.739 249.08C110.739 248.205 110.925 247.464 111.299 246.856C111.672 246.237 112.157 245.768 112.755 245.448C113.352 245.117 113.997 244.952 114.691 244.952C115.384 244.952 116.029 245.117 116.627 245.448C117.224 245.768 117.709 246.237 118.083 246.856C118.456 247.464 118.643 248.205 118.643 249.08C118.643 249.944 118.456 250.685 118.083 251.304C117.709 251.912 117.224 252.381 116.627 252.712C116.029 253.032 115.384 253.192 114.691 253.192ZM114.691 251.688C115.117 251.688 115.485 251.581 115.795 251.368C116.104 251.155 116.339 250.851 116.499 250.456C116.659 250.061 116.739 249.603 116.739 249.08C116.739 248.557 116.659 248.099 116.499 247.704C116.339 247.309 116.104 247.005 115.795 246.792C115.485 246.568 115.117 246.456 114.691 246.456C114.264 246.456 113.896 246.568 113.587 246.792C113.288 247.005 113.053 247.309 112.883 247.704C112.723 248.099 112.643 248.557 112.643 249.08C112.643 249.603 112.723 250.061 112.883 250.456C113.053 250.851 113.288 251.155 113.587 251.368C113.896 251.581 114.264 251.688 114.691 251.688ZM124.284 253.192C123.591 253.192 122.946 253.032 122.348 252.712C121.751 252.381 121.266 251.912 120.892 251.304C120.519 250.685 120.332 249.944 120.332 249.08C120.332 248.205 120.519 247.464 120.892 246.856C121.266 246.237 121.751 245.768 122.348 245.448C122.946 245.117 123.591 244.952 124.284 244.952C124.978 244.952 125.623 245.117 126.22 245.448C126.818 245.768 127.303 246.237 127.676 246.856C128.05 247.464 128.236 248.205 128.236 249.08C128.236 249.944 128.05 250.685 127.676 251.304C127.303 251.912 126.818 252.381 126.22 252.712C125.623 253.032 124.978 253.192 124.284 253.192ZM124.284 251.688C124.711 251.688 125.079 251.581 125.388 251.368C125.698 251.155 125.932 250.851 126.092 250.456C126.252 250.061 126.332 249.603 126.332 249.08C126.332 248.557 126.252 248.099 126.092 247.704C125.932 247.309 125.698 247.005 125.388 246.792C125.079 246.568 124.711 246.456 124.284 246.456C123.858 246.456 123.49 246.568 123.18 246.792C122.882 247.005 122.647 247.309 122.476 247.704C122.316 248.099 122.236 248.557 122.236 249.08C122.236 249.603 122.316 250.061 122.476 250.456C122.647 250.851 122.882 251.155 123.18 251.368C123.49 251.581 123.858 251.688 124.284 251.688ZM133.286 253.192C132.283 253.192 131.473 252.829 130.854 252.104C130.235 251.379 129.926 250.371 129.926 249.08C129.926 248.227 130.091 247.491 130.422 246.872C130.753 246.253 131.185 245.779 131.718 245.448C132.251 245.117 132.811 244.952 133.398 244.952C133.846 244.952 134.241 245.032 134.582 245.192C134.934 245.352 135.259 245.581 135.558 245.88H135.606L135.51 244.552V241.704H137.366V253H135.846L135.702 252.088H135.654C135.355 252.387 134.998 252.648 134.582 252.872C134.166 253.085 133.734 253.192 133.286 253.192ZM133.734 251.672C134.054 251.672 134.363 251.597 134.662 251.448C134.961 251.288 135.243 251.048 135.51 250.728V247.192C135.233 246.925 134.955 246.739 134.678 246.632C134.401 246.525 134.118 246.472 133.83 246.472C133.467 246.472 133.131 246.573 132.822 246.776C132.523 246.979 132.283 247.272 132.102 247.656C131.921 248.04 131.83 248.509 131.83 249.064C131.83 249.907 131.995 250.552 132.326 251C132.667 251.448 133.137 251.672 133.734 251.672Z" fill="#232A3D"/>
<path d="M331.867 253V246.52C331.878 246.221 331.894 245.885 331.915 245.512C331.936 245.139 331.952 244.803 331.963 244.504H331.883C331.712 244.771 331.531 245.037 331.339 245.304C331.158 245.571 330.982 245.843 330.811 246.12L328.667 248.952H335.035V250.376H326.795V249.128L331.467 242.808H333.595V253H331.867Z" fill="#232A3D"/>
<path d="M187 151.5C186.172 151.5 185.5 152.172 185.5 153C185.5 153.828 186.172 154.5 187 154.5V151.5ZM237.561 154.061C238.146 153.475 238.146 152.525 237.561 151.939L228.015 142.393C227.429 141.808 226.479 141.808 225.893 142.393C225.308 142.979 225.308 143.929 225.893 144.515L234.379 153L225.893 161.485C225.308 162.071 225.308 163.021 225.893 163.607C226.479 164.192 227.429 164.192 228.015 163.607L237.561 154.061ZM187 154.5H236.5V151.5H187V154.5Z" fill="#9B51E0"/>
</svg>
