<svg width="297" height="264" viewBox="0 0 297 264" fill="none" xmlns="http://www.w3.org/2000/svg">
<rect width="297" height="264" fill="white"/>
<path d="M60.0607 14.9393C59.4749 14.3536 58.5251 14.3536 57.9393 14.9393L48.3934 24.4853C47.8076 25.0711 47.8076 26.0208 48.3934 26.6066C48.9792 27.1924 49.9289 27.1924 50.5147 26.6066L59 18.1213L67.4853 26.6066C68.0711 27.1924 69.0208 27.1924 69.6066 26.6066C70.1924 26.0208 70.1924 25.0711 69.6066 24.4853L60.0607 14.9393ZM57.5 16V246H60.5V16H57.5Z" fill="#232A3D"/>
<path d="M244.061 208.061C244.646 207.475 244.646 206.525 244.061 205.939L234.515 196.393C233.929 195.808 232.979 195.808 232.393 196.393C231.808 196.979 231.808 197.929 232.393 198.515L240.879 207L232.393 215.485C231.808 216.071 231.808 217.021 232.393 217.607C232.979 218.192 233.929 218.192 234.515 217.607L244.061 208.061ZM243 205.5H19V208.5H243V205.5Z" fill="#232A3D"/>
<path d="M65 147C65 143.686 62.3137 141 59 141C55.6863 141 53 143.686 53 147C53 150.314 55.6863 153 59 153C62.3137 153 65 150.314 65 147Z" fill="#1F69FF"/>
<path d="M30.52 31V26.6L26.32 17.96H29.48L30.8 21.1C31 21.5933 31.1933 22.0867 31.38 22.58C31.58 23.06 31.78 23.56 31.98 24.08H32.06C32.2733 23.56 32.48 23.06 32.68 22.58C32.8933 22.0867 33.0933 21.5933 33.28 21.1L34.6 17.96H37.68L33.48 26.6V31H30.52Z" fill="black"/>
<path d="M47 227.24C46.0267 227.24 45.1733 226.987 44.44 226.48C43.7067 225.96 43.1333 225.207 42.72 224.22C42.32 223.233 42.12 222.027 42.12 220.6C42.12 218.427 42.5667 216.793 43.46 215.7C44.3533 214.607 45.5333 214.06 47 214.06C48.48 214.06 49.66 214.607 50.54 215.7C51.4333 216.793 51.88 218.427 51.88 220.6C51.88 222.027 51.6733 223.233 51.26 224.22C50.86 225.207 50.2933 225.96 49.56 226.48C48.84 226.987 47.9867 227.24 47 227.24ZM47 224.96C47.4267 224.96 47.8067 224.827 48.14 224.56C48.4867 224.293 48.76 223.84 48.96 223.2C49.16 222.56 49.26 221.693 49.26 220.6C49.26 219.493 49.16 218.633 48.96 218.02C48.76 217.393 48.4867 216.96 48.14 216.72C47.8067 216.467 47.4267 216.34 47 216.34C46.5867 216.34 46.2067 216.467 45.86 216.72C45.5133 216.96 45.24 217.393 45.04 218.02C44.84 218.633 44.74 219.493 44.74 220.6C44.74 221.693 44.84 222.56 45.04 223.2C45.24 223.84 45.5133 224.293 45.86 224.56C46.2067 224.827 46.5867 224.96 47 224.96ZM47 222.08C46.5867 222.08 46.2333 221.94 45.94 221.66C45.6467 221.38 45.5 221.013 45.5 220.56C45.5 220.093 45.6467 219.727 45.94 219.46C46.2333 219.18 46.5867 219.04 47 219.04C47.4267 219.04 47.78 219.18 48.06 219.46C48.3533 219.727 48.5 220.093 48.5 220.56C48.5 221.013 48.3533 221.38 48.06 221.66C47.78 221.94 47.4267 222.08 47 222.08Z" fill="black"/>
<path d="M251.36 237L255.16 230.3L251.58 223.96H254.88L256.14 226.42C256.287 226.713 256.44 227.033 256.6 227.38C256.76 227.727 256.94 228.107 257.14 228.52H257.22C257.367 228.107 257.513 227.727 257.66 227.38C257.807 227.033 257.953 226.713 258.1 226.42L259.26 223.96H262.42L258.84 230.44L262.64 237H259.36L257.94 234.34C257.767 233.993 257.593 233.653 257.42 233.32C257.26 232.973 257.087 232.6 256.9 232.2H256.82C256.66 232.6 256.5 232.973 256.34 233.32C256.18 233.653 256.02 233.993 255.86 234.34L254.5 237H251.36Z" fill="black"/>
<rect x="68" y="190" width="28" height="16" transform="rotate(-90 68 190)" fill="white"/>
<path d="M73 203H77.5333V149H73" stroke="#1F69FF"/>
<rect x="75" y="189.776" width="27.551" height="6" transform="rotate(-90 75 189.776)" fill="white"/>
<path d="M74.152 181.832V171.416C74.152 170.701 74.2747 170.056 74.52 169.48C74.776 168.893 75.16 168.435 75.672 168.104C76.1947 167.763 76.856 167.592 77.656 167.592C78.2427 167.592 78.7973 167.699 79.32 167.912C79.8427 168.115 80.2693 168.435 80.6 168.872C80.9307 169.299 81.096 169.843 81.096 170.504C81.096 171.037 80.984 171.501 80.76 171.896C80.536 172.291 80.1947 172.627 79.736 172.904V172.968C80.152 173.043 80.5253 173.213 80.856 173.48C81.1867 173.736 81.448 174.067 81.64 174.472C81.832 174.867 81.928 175.309 81.928 175.8C81.928 176.589 81.768 177.235 81.448 177.736C81.1387 178.227 80.744 178.595 80.264 178.84C79.784 179.075 79.2933 179.192 78.792 179.192C78.3973 179.192 77.9867 179.117 77.56 178.968C77.144 178.808 76.7493 178.525 76.376 178.12C76.3973 178.749 76.4187 179.368 76.44 179.976C76.472 180.595 76.504 181.213 76.536 181.832H74.152ZM78.104 177.272C78.3813 177.272 78.632 177.213 78.856 177.096C79.0907 176.968 79.2773 176.787 79.416 176.552C79.5547 176.307 79.624 176.008 79.624 175.656C79.624 175.229 79.512 174.872 79.288 174.584C79.064 174.285 78.7227 174.136 78.264 174.136C78.0293 174.136 77.816 174.168 77.624 174.232L77.336 172.52C77.72 172.456 78.0187 172.344 78.232 172.184C78.456 172.013 78.6107 171.805 78.696 171.56C78.792 171.304 78.84 171.027 78.84 170.728C78.84 170.291 78.7227 169.971 78.488 169.768C78.2533 169.555 77.9813 169.448 77.672 169.448C77.2667 169.448 76.9627 169.64 76.76 170.024C76.5573 170.408 76.4453 170.963 76.424 171.688C76.4133 172.467 76.3973 173.235 76.376 173.992C76.3547 174.749 76.344 175.517 76.344 176.296C76.6427 176.68 76.9413 176.941 77.24 177.08C77.5387 177.208 77.8267 177.272 78.104 177.272ZM87.3938 182.168C86.8604 182.168 86.3858 182.035 85.9698 181.768C85.5538 181.512 85.2231 181.133 84.9778 180.632C84.7431 180.141 84.6258 179.544 84.6258 178.84C84.6258 178.147 84.7431 177.555 84.9778 177.064C85.2231 176.573 85.5538 176.2 85.9698 175.944C86.3858 175.677 86.8604 175.544 87.3938 175.544C87.9271 175.544 88.4018 175.677 88.8178 175.944C89.2338 176.2 89.5591 176.573 89.7938 177.064C90.0391 177.555 90.1618 178.147 90.1618 178.84C90.1618 179.544 90.0391 180.141 89.7938 180.632C89.5591 181.133 89.2338 181.512 88.8178 181.768C88.4018 182.035 87.9271 182.168 87.3938 182.168ZM87.3938 180.856C87.6924 180.856 87.9538 180.707 88.1778 180.408C88.4018 180.109 88.5138 179.587 88.5138 178.84C88.5138 178.104 88.4018 177.592 88.1778 177.304C87.9538 177.016 87.6924 176.872 87.3938 176.872C87.0951 176.872 86.8338 177.016 86.6098 177.304C86.3858 177.592 86.2738 178.104 86.2738 178.84C86.2738 179.587 86.3858 180.109 86.6098 180.408C86.8338 180.707 87.0951 180.856 87.3938 180.856Z" fill="#1F69FF"/>
</svg>
