<svg width="600" height="379" viewBox="0 0 600 379" fill="none" xmlns="http://www.w3.org/2000/svg">
<rect width="600" height="379" fill="white"/>
<path d="M125.36 337.2V335.2C124.747 335.133 124.127 334.967 123.5 334.7C122.887 334.433 122.353 334.093 121.9 333.68L122.94 332.12C123.407 332.493 123.88 332.793 124.36 333.02C124.853 333.247 125.367 333.36 125.9 333.36C126.553 333.36 127.04 333.207 127.36 332.9C127.68 332.593 127.84 332.173 127.84 331.64C127.84 331.2 127.707 330.833 127.44 330.54C127.187 330.233 126.853 329.967 126.44 329.74C126.027 329.513 125.587 329.287 125.12 329.06C124.653 328.82 124.213 328.553 123.8 328.26C123.387 327.967 123.047 327.613 122.78 327.2C122.527 326.773 122.4 326.247 122.4 325.62C122.4 324.687 122.667 323.913 123.2 323.3C123.747 322.673 124.467 322.28 125.36 322.12V320.08H126.96V322.08C127.6 322.16 128.147 322.347 128.6 322.64C129.067 322.92 129.487 323.253 129.86 323.64L128.68 324.98C128.307 324.633 127.947 324.373 127.6 324.2C127.253 324.013 126.84 323.92 126.36 323.92C125.827 323.92 125.4 324.06 125.08 324.34C124.773 324.607 124.62 325 124.62 325.52C124.62 325.92 124.747 326.253 125 326.52C125.267 326.787 125.607 327.027 126.02 327.24C126.433 327.453 126.873 327.673 127.34 327.9C127.807 328.113 128.247 328.373 128.66 328.68C129.073 328.973 129.407 329.347 129.66 329.8C129.927 330.24 130.06 330.8 130.06 331.48C130.06 332.427 129.787 333.227 129.24 333.88C128.707 334.533 127.947 334.953 126.96 335.14V337.2H125.36ZM132.014 335V333.66C133.201 332.513 134.221 331.493 135.074 330.6C135.941 329.693 136.607 328.873 137.074 328.14C137.541 327.393 137.774 326.7 137.774 326.06C137.774 325.393 137.594 324.86 137.234 324.46C136.874 324.06 136.354 323.86 135.674 323.86C135.181 323.86 134.727 324 134.314 324.28C133.914 324.56 133.541 324.893 133.194 325.28L131.914 324C132.501 323.373 133.107 322.893 133.734 322.56C134.361 322.213 135.107 322.04 135.974 322.04C137.201 322.04 138.174 322.393 138.894 323.1C139.627 323.807 139.994 324.753 139.994 325.94C139.994 326.687 139.781 327.453 139.354 328.24C138.941 329.013 138.381 329.807 137.674 330.62C136.981 331.433 136.214 332.287 135.374 333.18C135.707 333.153 136.067 333.127 136.454 333.1C136.841 333.06 137.187 333.04 137.494 333.04H140.614V335H132.014ZM146.628 335.24C145.308 335.24 144.254 334.667 143.468 333.52C142.694 332.373 142.308 330.727 142.308 328.58C142.308 326.433 142.694 324.807 143.468 323.7C144.254 322.593 145.308 322.04 146.628 322.04C147.948 322.04 148.994 322.593 149.768 323.7C150.554 324.807 150.948 326.433 150.948 328.58C150.948 330.727 150.554 332.373 149.768 333.52C148.994 334.667 147.948 335.24 146.628 335.24ZM146.628 333.44C147.041 333.44 147.408 333.287 147.728 332.98C148.048 332.66 148.294 332.147 148.468 331.44C148.654 330.733 148.748 329.78 148.748 328.58C148.748 327.38 148.654 326.433 148.468 325.74C148.294 325.047 148.048 324.56 147.728 324.28C147.408 323.987 147.041 323.84 146.628 323.84C146.228 323.84 145.868 323.987 145.548 324.28C145.228 324.56 144.974 325.047 144.788 325.74C144.601 326.433 144.508 327.38 144.508 328.58C144.508 329.78 144.601 330.733 144.788 331.44C144.974 332.147 145.228 332.66 145.548 332.98C145.868 333.287 146.228 333.44 146.628 333.44ZM154.622 326.2C154.622 326.947 154.795 327.513 155.142 327.9C155.502 328.287 156.002 328.48 156.642 328.48C157.015 328.48 157.402 328.367 157.802 328.14C158.215 327.9 158.588 327.52 158.922 327C158.802 325.88 158.528 325.067 158.102 324.56C157.675 324.053 157.148 323.8 156.522 323.8C156.002 323.8 155.555 324.007 155.182 324.42C154.808 324.833 154.622 325.427 154.622 326.2ZM156.102 335.24C155.342 335.24 154.682 335.1 154.122 334.82C153.562 334.54 153.088 334.2 152.702 333.8L153.942 332.4C154.182 332.68 154.482 332.913 154.842 333.1C155.215 333.273 155.595 333.36 155.982 333.36C156.515 333.36 157.002 333.213 157.442 332.92C157.882 332.627 158.242 332.14 158.522 331.46C158.802 330.767 158.955 329.833 158.982 328.66C158.608 329.113 158.168 329.473 157.662 329.74C157.155 330.007 156.668 330.14 156.202 330.14C155.108 330.14 154.215 329.82 153.522 329.18C152.842 328.527 152.502 327.533 152.502 326.2C152.502 325.347 152.682 324.613 153.042 324C153.415 323.373 153.902 322.893 154.502 322.56C155.115 322.213 155.782 322.04 156.502 322.04C157.328 322.04 158.088 322.26 158.782 322.7C159.488 323.14 160.048 323.82 160.462 324.74C160.888 325.647 161.102 326.813 161.102 328.24C161.102 329.88 160.868 331.22 160.402 332.26C159.935 333.287 159.322 334.04 158.562 334.52C157.802 335 156.982 335.24 156.102 335.24ZM166.836 335.24C165.809 335.24 164.942 335.067 164.236 334.72C163.542 334.36 162.962 333.947 162.496 333.48L163.556 332C163.942 332.36 164.376 332.68 164.856 332.96C165.336 333.227 165.896 333.36 166.536 333.36C167.242 333.36 167.829 333.147 168.296 332.72C168.762 332.293 168.996 331.693 168.996 330.92C168.996 330.16 168.782 329.573 168.356 329.16C167.929 328.747 167.362 328.54 166.656 328.54C166.242 328.54 165.896 328.6 165.616 328.72C165.336 328.827 165.002 329.007 164.616 329.26L163.516 328.56L163.896 322.28H170.696V324.22H165.896L165.636 327.3C165.902 327.167 166.162 327.067 166.416 327C166.682 326.92 166.982 326.88 167.316 326.88C168.049 326.88 168.716 327.02 169.316 327.3C169.916 327.58 170.396 328.013 170.756 328.6C171.129 329.187 171.316 329.94 171.316 330.86C171.316 331.78 171.102 332.567 170.676 333.22C170.262 333.873 169.716 334.373 169.036 334.72C168.356 335.067 167.622 335.24 166.836 335.24ZM174.91 329.94H178.25V327.06C178.25 326.687 178.263 326.247 178.29 325.74C178.316 325.233 178.336 324.793 178.35 324.42H178.27C178.11 324.753 177.943 325.08 177.77 325.4C177.596 325.72 177.416 326.053 177.23 326.4L174.91 329.94ZM178.25 335V331.72H172.63V330.16L177.67 322.28H180.41V329.94H182.01V331.72H180.41V335H178.25Z" fill="#232A3D"/>
<path d="M125.36 254.2V252.2C124.747 252.133 124.127 251.967 123.5 251.7C122.887 251.433 122.353 251.093 121.9 250.68L122.94 249.12C123.407 249.493 123.88 249.793 124.36 250.02C124.853 250.247 125.367 250.36 125.9 250.36C126.553 250.36 127.04 250.207 127.36 249.9C127.68 249.593 127.84 249.173 127.84 248.64C127.84 248.2 127.707 247.833 127.44 247.54C127.187 247.233 126.853 246.967 126.44 246.74C126.027 246.513 125.587 246.287 125.12 246.06C124.653 245.82 124.213 245.553 123.8 245.26C123.387 244.967 123.047 244.613 122.78 244.2C122.527 243.773 122.4 243.247 122.4 242.62C122.4 241.687 122.667 240.913 123.2 240.3C123.747 239.673 124.467 239.28 125.36 239.12V237.08H126.96V239.08C127.6 239.16 128.147 239.347 128.6 239.64C129.067 239.92 129.487 240.253 129.86 240.64L128.68 241.98C128.307 241.633 127.947 241.373 127.6 241.2C127.253 241.013 126.84 240.92 126.36 240.92C125.827 240.92 125.4 241.06 125.08 241.34C124.773 241.607 124.62 242 124.62 242.52C124.62 242.92 124.747 243.253 125 243.52C125.267 243.787 125.607 244.027 126.02 244.24C126.433 244.453 126.873 244.673 127.34 244.9C127.807 245.113 128.247 245.373 128.66 245.68C129.073 245.973 129.407 246.347 129.66 246.8C129.927 247.24 130.06 247.8 130.06 248.48C130.06 249.427 129.787 250.227 129.24 250.88C128.707 251.533 127.947 251.953 126.96 252.14V254.2H125.36ZM132.734 252V250.12H135.574V241.76H133.234V240.32C133.861 240.2 134.407 240.06 134.874 239.9C135.341 239.727 135.774 239.52 136.174 239.28H137.894V250.12H140.394V252H132.734ZM146.628 252.24C145.308 252.24 144.254 251.667 143.468 250.52C142.694 249.373 142.308 247.727 142.308 245.58C142.308 243.433 142.694 241.807 143.468 240.7C144.254 239.593 145.308 239.04 146.628 239.04C147.948 239.04 148.994 239.593 149.768 240.7C150.554 241.807 150.948 243.433 150.948 245.58C150.948 247.727 150.554 249.373 149.768 250.52C148.994 251.667 147.948 252.24 146.628 252.24ZM146.628 250.44C147.041 250.44 147.408 250.287 147.728 249.98C148.048 249.66 148.294 249.147 148.468 248.44C148.654 247.733 148.748 246.78 148.748 245.58C148.748 244.38 148.654 243.433 148.468 242.74C148.294 242.047 148.048 241.56 147.728 241.28C147.408 240.987 147.041 240.84 146.628 240.84C146.228 240.84 145.868 240.987 145.548 241.28C145.228 241.56 144.974 242.047 144.788 242.74C144.601 243.433 144.508 244.38 144.508 245.58C144.508 246.78 144.601 247.733 144.788 248.44C144.974 249.147 145.228 249.66 145.548 249.98C145.868 250.287 146.228 250.44 146.628 250.44ZM154.622 243.2C154.622 243.947 154.795 244.513 155.142 244.9C155.502 245.287 156.002 245.48 156.642 245.48C157.015 245.48 157.402 245.367 157.802 245.14C158.215 244.9 158.588 244.52 158.922 244C158.802 242.88 158.528 242.067 158.102 241.56C157.675 241.053 157.148 240.8 156.522 240.8C156.002 240.8 155.555 241.007 155.182 241.42C154.808 241.833 154.622 242.427 154.622 243.2ZM156.102 252.24C155.342 252.24 154.682 252.1 154.122 251.82C153.562 251.54 153.088 251.2 152.702 250.8L153.942 249.4C154.182 249.68 154.482 249.913 154.842 250.1C155.215 250.273 155.595 250.36 155.982 250.36C156.515 250.36 157.002 250.213 157.442 249.92C157.882 249.627 158.242 249.14 158.522 248.46C158.802 247.767 158.955 246.833 158.982 245.66C158.608 246.113 158.168 246.473 157.662 246.74C157.155 247.007 156.668 247.14 156.202 247.14C155.108 247.14 154.215 246.82 153.522 246.18C152.842 245.527 152.502 244.533 152.502 243.2C152.502 242.347 152.682 241.613 153.042 241C153.415 240.373 153.902 239.893 154.502 239.56C155.115 239.213 155.782 239.04 156.502 239.04C157.328 239.04 158.088 239.26 158.782 239.7C159.488 240.14 160.048 240.82 160.462 241.74C160.888 242.647 161.102 243.813 161.102 245.24C161.102 246.88 160.868 248.22 160.402 249.26C159.935 250.287 159.322 251.04 158.562 251.52C157.802 252 156.982 252.24 156.102 252.24ZM164.876 243.2C164.876 243.947 165.049 244.513 165.396 244.9C165.756 245.287 166.256 245.48 166.896 245.48C167.269 245.48 167.656 245.367 168.056 245.14C168.469 244.9 168.842 244.52 169.176 244C169.056 242.88 168.782 242.067 168.356 241.56C167.929 241.053 167.402 240.8 166.776 240.8C166.256 240.8 165.809 241.007 165.436 241.42C165.062 241.833 164.876 242.427 164.876 243.2ZM166.356 252.24C165.596 252.24 164.936 252.1 164.376 251.82C163.816 251.54 163.342 251.2 162.956 250.8L164.196 249.4C164.436 249.68 164.736 249.913 165.096 250.1C165.469 250.273 165.849 250.36 166.236 250.36C166.769 250.36 167.256 250.213 167.696 249.92C168.136 249.627 168.496 249.14 168.776 248.46C169.056 247.767 169.209 246.833 169.236 245.66C168.862 246.113 168.422 246.473 167.916 246.74C167.409 247.007 166.922 247.14 166.456 247.14C165.362 247.14 164.469 246.82 163.776 246.18C163.096 245.527 162.756 244.533 162.756 243.2C162.756 242.347 162.936 241.613 163.296 241C163.669 240.373 164.156 239.893 164.756 239.56C165.369 239.213 166.036 239.04 166.756 239.04C167.582 239.04 168.342 239.26 169.036 239.7C169.742 240.14 170.302 240.82 170.716 241.74C171.142 242.647 171.356 243.813 171.356 245.24C171.356 246.88 171.122 248.22 170.656 249.26C170.189 250.287 169.576 251.04 168.816 251.52C168.056 252 167.236 252.24 166.356 252.24ZM177.39 252.24C176.07 252.24 175.016 251.667 174.23 250.52C173.456 249.373 173.07 247.727 173.07 245.58C173.07 243.433 173.456 241.807 174.23 240.7C175.016 239.593 176.07 239.04 177.39 239.04C178.71 239.04 179.756 239.593 180.53 240.7C181.316 241.807 181.71 243.433 181.71 245.58C181.71 247.727 181.316 249.373 180.53 250.52C179.756 251.667 178.71 252.24 177.39 252.24ZM177.39 250.44C177.803 250.44 178.17 250.287 178.49 249.98C178.81 249.66 179.056 249.147 179.23 248.44C179.416 247.733 179.51 246.78 179.51 245.58C179.51 244.38 179.416 243.433 179.23 242.74C179.056 242.047 178.81 241.56 178.49 241.28C178.17 240.987 177.803 240.84 177.39 240.84C176.99 240.84 176.63 240.987 176.31 241.28C175.99 241.56 175.736 242.047 175.55 242.74C175.363 243.433 175.27 244.38 175.27 245.58C175.27 246.78 175.363 247.733 175.55 248.44C175.736 249.147 175.99 249.66 176.31 249.98C176.63 250.287 176.99 250.44 177.39 250.44Z" fill="#232A3D"/>
<path d="M125.36 170.2V168.2C124.747 168.133 124.127 167.967 123.5 167.7C122.887 167.433 122.353 167.093 121.9 166.68L122.94 165.12C123.407 165.493 123.88 165.793 124.36 166.02C124.853 166.247 125.367 166.36 125.9 166.36C126.553 166.36 127.04 166.207 127.36 165.9C127.68 165.593 127.84 165.173 127.84 164.64C127.84 164.2 127.707 163.833 127.44 163.54C127.187 163.233 126.853 162.967 126.44 162.74C126.027 162.513 125.587 162.287 125.12 162.06C124.653 161.82 124.213 161.553 123.8 161.26C123.387 160.967 123.047 160.613 122.78 160.2C122.527 159.773 122.4 159.247 122.4 158.62C122.4 157.687 122.667 156.913 123.2 156.3C123.747 155.673 124.467 155.28 125.36 155.12V153.08H126.96V155.08C127.6 155.16 128.147 155.347 128.6 155.64C129.067 155.92 129.487 156.253 129.86 156.64L128.68 157.98C128.307 157.633 127.947 157.373 127.6 157.2C127.253 157.013 126.84 156.92 126.36 156.92C125.827 156.92 125.4 157.06 125.08 157.34C124.773 157.607 124.62 158 124.62 158.52C124.62 158.92 124.747 159.253 125 159.52C125.267 159.787 125.607 160.027 126.02 160.24C126.433 160.453 126.873 160.673 127.34 160.9C127.807 161.113 128.247 161.373 128.66 161.68C129.073 161.973 129.407 162.347 129.66 162.8C129.927 163.24 130.06 163.8 130.06 164.48C130.06 165.427 129.787 166.227 129.24 166.88C128.707 167.533 127.947 167.953 126.96 168.14V170.2H125.36ZM132.734 168V166.12H135.574V157.76H133.234V156.32C133.861 156.2 134.407 156.06 134.874 155.9C135.341 155.727 135.774 155.52 136.174 155.28H137.894V166.12H140.394V168H132.734ZM144.868 168C144.948 166.493 145.108 165.147 145.348 163.96C145.588 162.76 145.954 161.62 146.448 160.54C146.941 159.46 147.594 158.353 148.408 157.22H142.388V155.28H150.928V156.68C150.181 157.6 149.574 158.48 149.108 159.32C148.654 160.16 148.294 161.013 148.028 161.88C147.774 162.733 147.588 163.66 147.468 164.66C147.348 165.647 147.261 166.76 147.208 168H144.868ZM154.622 159.2C154.622 159.947 154.795 160.513 155.142 160.9C155.502 161.287 156.002 161.48 156.642 161.48C157.015 161.48 157.402 161.367 157.802 161.14C158.215 160.9 158.588 160.52 158.922 160C158.802 158.88 158.528 158.067 158.102 157.56C157.675 157.053 157.148 156.8 156.522 156.8C156.002 156.8 155.555 157.007 155.182 157.42C154.808 157.833 154.622 158.427 154.622 159.2ZM156.102 168.24C155.342 168.24 154.682 168.1 154.122 167.82C153.562 167.54 153.088 167.2 152.702 166.8L153.942 165.4C154.182 165.68 154.482 165.913 154.842 166.1C155.215 166.273 155.595 166.36 155.982 166.36C156.515 166.36 157.002 166.213 157.442 165.92C157.882 165.627 158.242 165.14 158.522 164.46C158.802 163.767 158.955 162.833 158.982 161.66C158.608 162.113 158.168 162.473 157.662 162.74C157.155 163.007 156.668 163.14 156.202 163.14C155.108 163.14 154.215 162.82 153.522 162.18C152.842 161.527 152.502 160.533 152.502 159.2C152.502 158.347 152.682 157.613 153.042 157C153.415 156.373 153.902 155.893 154.502 155.56C155.115 155.213 155.782 155.04 156.502 155.04C157.328 155.04 158.088 155.26 158.782 155.7C159.488 156.14 160.048 156.82 160.462 157.74C160.888 158.647 161.102 159.813 161.102 161.24C161.102 162.88 160.868 164.22 160.402 165.26C159.935 166.287 159.322 167.04 158.562 167.52C157.802 168 156.982 168.24 156.102 168.24ZM166.836 168.24C165.809 168.24 164.942 168.067 164.236 167.72C163.542 167.36 162.962 166.947 162.496 166.48L163.556 165C163.942 165.36 164.376 165.68 164.856 165.96C165.336 166.227 165.896 166.36 166.536 166.36C167.242 166.36 167.829 166.147 168.296 165.72C168.762 165.293 168.996 164.693 168.996 163.92C168.996 163.16 168.782 162.573 168.356 162.16C167.929 161.747 167.362 161.54 166.656 161.54C166.242 161.54 165.896 161.6 165.616 161.72C165.336 161.827 165.002 162.007 164.616 162.26L163.516 161.56L163.896 155.28H170.696V157.22H165.896L165.636 160.3C165.902 160.167 166.162 160.067 166.416 160C166.682 159.92 166.982 159.88 167.316 159.88C168.049 159.88 168.716 160.02 169.316 160.3C169.916 160.58 170.396 161.013 170.756 161.6C171.129 162.187 171.316 162.94 171.316 163.86C171.316 164.78 171.102 165.567 170.676 166.22C170.262 166.873 169.716 167.373 169.036 167.72C168.356 168.067 167.622 168.24 166.836 168.24ZM177.39 168.24C176.07 168.24 175.016 167.667 174.23 166.52C173.456 165.373 173.07 163.727 173.07 161.58C173.07 159.433 173.456 157.807 174.23 156.7C175.016 155.593 176.07 155.04 177.39 155.04C178.71 155.04 179.756 155.593 180.53 156.7C181.316 157.807 181.71 159.433 181.71 161.58C181.71 163.727 181.316 165.373 180.53 166.52C179.756 167.667 178.71 168.24 177.39 168.24ZM177.39 166.44C177.803 166.44 178.17 166.287 178.49 165.98C178.81 165.66 179.056 165.147 179.23 164.44C179.416 163.733 179.51 162.78 179.51 161.58C179.51 160.38 179.416 159.433 179.23 158.74C179.056 158.047 178.81 157.56 178.49 157.28C178.17 156.987 177.803 156.84 177.39 156.84C176.99 156.84 176.63 156.987 176.31 157.28C175.99 157.56 175.736 158.047 175.55 158.74C175.363 159.433 175.27 160.38 175.27 161.58C175.27 162.78 175.363 163.733 175.55 164.44C175.736 165.147 175.99 165.66 176.31 165.98C176.63 166.287 176.99 166.44 177.39 166.44Z" fill="#232A3D"/>
<path d="M125.36 85.2V83.2C124.747 83.1333 124.127 82.9667 123.5 82.7C122.887 82.4333 122.353 82.0933 121.9 81.68L122.94 80.12C123.407 80.4933 123.88 80.7933 124.36 81.02C124.853 81.2467 125.367 81.36 125.9 81.36C126.553 81.36 127.04 81.2067 127.36 80.9C127.68 80.5933 127.84 80.1733 127.84 79.64C127.84 79.2 127.707 78.8333 127.44 78.54C127.187 78.2333 126.853 77.9667 126.44 77.74C126.027 77.5133 125.587 77.2867 125.12 77.06C124.653 76.82 124.213 76.5533 123.8 76.26C123.387 75.9667 123.047 75.6133 122.78 75.2C122.527 74.7733 122.4 74.2467 122.4 73.62C122.4 72.6867 122.667 71.9133 123.2 71.3C123.747 70.6733 124.467 70.28 125.36 70.12V68.08H126.96V70.08C127.6 70.16 128.147 70.3467 128.6 70.64C129.067 70.92 129.487 71.2533 129.86 71.64L128.68 72.98C128.307 72.6333 127.947 72.3733 127.6 72.2C127.253 72.0133 126.84 71.92 126.36 71.92C125.827 71.92 125.4 72.06 125.08 72.34C124.773 72.6067 124.62 73 124.62 73.52C124.62 73.92 124.747 74.2533 125 74.52C125.267 74.7867 125.607 75.0267 126.02 75.24C126.433 75.4533 126.873 75.6733 127.34 75.9C127.807 76.1133 128.247 76.3733 128.66 76.68C129.073 76.9733 129.407 77.3467 129.66 77.8C129.927 78.24 130.06 78.8 130.06 79.48C130.06 80.4267 129.787 81.2267 129.24 81.88C128.707 82.5333 127.947 82.9533 126.96 83.14V85.2H125.36ZM132.734 83V81.12H135.574V72.76H133.234V71.32C133.861 71.2 134.407 71.06 134.874 70.9C135.341 70.7267 135.774 70.52 136.174 70.28H137.894V81.12H140.394V83H132.734ZM146.308 83.24C145.281 83.24 144.414 83.0667 143.708 82.72C143.014 82.36 142.441 81.9333 141.988 81.44L143.088 79.96C143.474 80.3467 143.914 80.68 144.408 80.96C144.901 81.2267 145.468 81.36 146.108 81.36C146.801 81.36 147.361 81.1933 147.788 80.86C148.228 80.5133 148.448 80.04 148.448 79.44C148.448 79 148.334 78.62 148.108 78.3C147.894 77.9667 147.514 77.7133 146.968 77.54C146.434 77.3667 145.681 77.28 144.708 77.28V75.6C145.961 75.6 146.828 75.4067 147.308 75.02C147.788 74.6333 148.028 74.1467 148.028 73.56C148.028 73.0267 147.861 72.6133 147.528 72.32C147.194 72.0133 146.734 71.86 146.148 71.86C145.654 71.86 145.201 71.9733 144.788 72.2C144.374 72.4133 143.974 72.7 143.588 73.06L142.408 71.64C142.954 71.16 143.534 70.7733 144.148 70.48C144.774 70.1867 145.468 70.04 146.228 70.04C147.454 70.04 148.448 70.3333 149.208 70.92C149.968 71.4933 150.348 72.32 150.348 73.4C150.348 74.1067 150.148 74.7067 149.748 75.2C149.361 75.68 148.821 76.0533 148.128 76.32V76.4C148.874 76.6 149.501 76.9667 150.008 77.5C150.514 78.0333 150.768 78.72 150.768 79.56C150.768 80.3333 150.561 80.9933 150.148 81.54C149.748 82.0867 149.208 82.5067 148.528 82.8C147.861 83.0933 147.121 83.24 146.308 83.24ZM154.622 74.2C154.622 74.9467 154.795 75.5133 155.142 75.9C155.502 76.2867 156.002 76.48 156.642 76.48C157.015 76.48 157.402 76.3667 157.802 76.14C158.215 75.9 158.588 75.52 158.922 75C158.802 73.88 158.528 73.0667 158.102 72.56C157.675 72.0533 157.148 71.8 156.522 71.8C156.002 71.8 155.555 72.0067 155.182 72.42C154.808 72.8333 154.622 73.4267 154.622 74.2ZM156.102 83.24C155.342 83.24 154.682 83.1 154.122 82.82C153.562 82.54 153.088 82.2 152.702 81.8L153.942 80.4C154.182 80.68 154.482 80.9133 154.842 81.1C155.215 81.2733 155.595 81.36 155.982 81.36C156.515 81.36 157.002 81.2133 157.442 80.92C157.882 80.6267 158.242 80.14 158.522 79.46C158.802 78.7667 158.955 77.8333 158.982 76.66C158.608 77.1133 158.168 77.4733 157.662 77.74C157.155 78.0067 156.668 78.14 156.202 78.14C155.108 78.14 154.215 77.82 153.522 77.18C152.842 76.5267 152.502 75.5333 152.502 74.2C152.502 73.3467 152.682 72.6133 153.042 72C153.415 71.3733 153.902 70.8933 154.502 70.56C155.115 70.2133 155.782 70.04 156.502 70.04C157.328 70.04 158.088 70.26 158.782 70.7C159.488 71.14 160.048 71.82 160.462 72.74C160.888 73.6467 161.102 74.8133 161.102 76.24C161.102 77.88 160.868 79.22 160.402 80.26C159.935 81.2867 159.322 82.04 158.562 82.52C157.802 83 156.982 83.24 156.102 83.24ZM166.836 83.24C165.809 83.24 164.942 83.0667 164.236 82.72C163.542 82.36 162.962 81.9467 162.496 81.48L163.556 80C163.942 80.36 164.376 80.68 164.856 80.96C165.336 81.2267 165.896 81.36 166.536 81.36C167.242 81.36 167.829 81.1467 168.296 80.72C168.762 80.2933 168.996 79.6933 168.996 78.92C168.996 78.16 168.782 77.5733 168.356 77.16C167.929 76.7467 167.362 76.54 166.656 76.54C166.242 76.54 165.896 76.6 165.616 76.72C165.336 76.8267 165.002 77.0067 164.616 77.26L163.516 76.56L163.896 70.28H170.696V72.22H165.896L165.636 75.3C165.902 75.1667 166.162 75.0667 166.416 75C166.682 74.92 166.982 74.88 167.316 74.88C168.049 74.88 168.716 75.02 169.316 75.3C169.916 75.58 170.396 76.0133 170.756 76.6C171.129 77.1867 171.316 77.94 171.316 78.86C171.316 79.78 171.102 80.5667 170.676 81.22C170.262 81.8733 169.716 82.3733 169.036 82.72C168.356 83.0667 167.622 83.24 166.836 83.24ZM177.39 83.24C176.07 83.24 175.016 82.6667 174.23 81.52C173.456 80.3733 173.07 78.7267 173.07 76.58C173.07 74.4333 173.456 72.8067 174.23 71.7C175.016 70.5933 176.07 70.04 177.39 70.04C178.71 70.04 179.756 70.5933 180.53 71.7C181.316 72.8067 181.71 74.4333 181.71 76.58C181.71 78.7267 181.316 80.3733 180.53 81.52C179.756 82.6667 178.71 83.24 177.39 83.24ZM177.39 81.44C177.803 81.44 178.17 81.2867 178.49 80.98C178.81 80.66 179.056 80.1467 179.23 79.44C179.416 78.7333 179.51 77.78 179.51 76.58C179.51 75.38 179.416 74.4333 179.23 73.74C179.056 73.0467 178.81 72.56 178.49 72.28C178.17 71.9867 177.803 71.84 177.39 71.84C176.99 71.84 176.63 71.9867 176.31 72.28C175.99 72.56 175.736 73.0467 175.55 73.74C175.363 74.4333 175.27 75.38 175.27 76.58C175.27 77.78 175.363 78.7333 175.55 79.44C175.736 80.1467 175.99 80.66 176.31 80.98C176.63 81.2867 176.99 81.44 177.39 81.44Z" fill="#232A3D"/>
<path d="M97.3759 313.353C97.3759 313.353 101.61 313.568 102.598 313.663C103.586 313.757 104.011 313.894 104.043 314.173C104.074 314.451 102.666 315.517 101.532 315.764L97.3759 313.353Z" fill="#232A3D"/>
<path d="M32.9604 346.598H98.7209C100.255 346.598 111.419 344.276 111.766 344.014C112.113 343.751 112.869 342.69 112.869 340.982V336.911C112.869 336.254 111.656 334.746 111.656 333.264V326.697C111.656 326.172 109.554 322.888 108.503 321.475C107.453 320.062 100.066 313.626 97.2078 313.201C94.3498 312.775 68.1497 312.213 62.7962 312.969C57.4426 313.726 53.1083 315.99 49.1366 318.354C45.1648 320.719 38.9602 324.365 38.1353 324.559C37.3105 324.753 27.8591 326.004 22.6054 327.055C17.3517 328.105 13.837 329.419 13.1803 330.107C12.5236 330.795 12.4027 331.289 12.1821 332.645C11.9614 334 11.8301 334.877 11.6147 335.382C11.3993 335.886 11 336.17 11 337.131V342.296C11 342.931 14.4149 345.842 15.7073 346.062C16.9997 346.283 27.9221 346.588 32.9552 346.588L32.9604 346.598Z" fill="url(#paint0_linear_28_186)"/>
<path d="M60.9461 330.033H64.2758" stroke="white"/>
<path d="M82.5894 329.616H85.9191" stroke="white"/>
<path d="M90.4148 321.79L90.2099 321.958C91.4656 323.493 92.5951 325.226 92.3429 327.491C92.1485 329.24 90.0155 331.047 87.5516 333.133C86.7793 333.785 85.9807 334.462 85.1979 335.172C83.0334 337.142 81.72 339.9 81.2892 343.367V343.425C81.1841 344.218 80.7743 344.623 80.065 344.623H66.3424C66.2163 344.166 65.6542 341.965 65.6542 338.975C65.6542 335.66 66.3109 328.967 66.9834 326.645C67.0306 326.245 67.0832 325.741 67.141 325.184C67.2933 323.718 67.4825 321.895 67.6926 320.561C67.9868 318.675 68.4491 315.228 68.5279 314.609C69.4158 314.54 70.393 314.472 71.3754 314.43L71.3649 314.167C68.2442 314.304 65.113 314.672 65.0815 314.677L65.113 314.94C65.113 314.94 66.4685 314.782 68.26 314.635C68.1602 315.391 67.7189 318.696 67.4299 320.524C67.2198 321.864 67.0306 323.692 66.8783 325.158C66.8205 325.715 66.768 326.214 66.7259 326.592C66.0534 328.914 65.3915 335.644 65.3915 338.975C65.3915 341.865 65.9116 344.029 66.0745 344.623H41.7604C40.7464 344.623 40.4312 344.145 40.2473 343.367C40.0582 342.569 39.3752 336.868 39.3752 334.005V333.595C39.3752 330.99 39.3752 329.676 40.5415 327.459C41.7551 325.158 44.3189 323.697 44.3399 323.682L44.2086 323.451C44.0983 323.514 41.5555 324.964 40.3051 327.333C39.102 329.613 39.102 330.942 39.1073 333.595V334.005C39.1073 336.947 39.7902 342.595 39.9846 343.425C40.1633 344.182 40.5047 344.886 41.7551 344.886H80.065C80.6587 344.886 81.3942 344.639 81.5413 343.457V343.399C81.9721 339.994 83.2593 337.289 85.3765 335.366C86.1541 334.657 86.9526 333.984 87.7197 333.333C90.2309 331.21 92.3955 329.371 92.6004 327.517C92.863 325.153 91.6389 323.293 90.4096 321.79H90.4148Z" fill="#D9DEE5"/>
<path d="M36.4751 346.598C36.6117 345.947 36.68 345.274 36.68 344.586C36.68 339.122 32.2512 334.693 26.7873 334.693C21.3235 334.693 16.8946 339.122 16.8946 344.586C16.8946 345.133 16.9524 345.663 17.0365 346.189C20.3936 346.388 28.747 346.604 32.9657 346.604H36.4804L36.4751 346.598Z" fill="white"/>
<path d="M103.764 345.789C103.812 345.395 103.843 344.996 103.843 344.586C103.843 339.122 99.4144 334.693 93.9505 334.693C88.4867 334.693 84.0578 339.122 84.0578 344.586C84.0578 345.274 84.1314 345.952 84.2627 346.598H98.7209C99.3251 346.598 101.421 346.236 103.764 345.789Z" fill="white"/>
<path d="M26.7873 352.992C31.4298 352.992 35.1933 349.229 35.1933 344.586C35.1933 339.944 31.4298 336.18 26.7873 336.18C22.1449 336.18 18.3814 339.944 18.3814 344.586C18.3814 349.229 22.1449 352.992 26.7873 352.992Z" fill="#232A3D"/>
<path d="M32.5349 344.586C32.5349 347.759 29.9606 350.334 26.7874 350.334C23.6141 350.334 21.0451 347.759 21.0451 344.586C21.0451 341.413 23.6194 338.844 26.7874 338.844C29.9553 338.844 32.5349 341.418 32.5349 344.586Z" fill="white"/>
<path d="M93.9453 352.992C98.5877 352.992 102.351 349.229 102.351 344.586C102.351 339.944 98.5877 336.18 93.9453 336.18C89.3028 336.18 85.5394 339.944 85.5394 344.586C85.5394 349.229 89.3028 352.992 93.9453 352.992Z" fill="#232A3D"/>
<path d="M99.6929 344.586C99.6929 347.759 97.1186 350.334 93.9453 350.334C90.7721 350.334 88.2031 347.759 88.2031 344.586C88.2031 341.413 90.7774 338.844 93.9453 338.844C97.1133 338.844 99.6929 341.418 99.6929 344.586Z" fill="white"/>
<path d="M65.0657 326.004C65.36 325.993 65.6909 325.72 65.8801 325.158C66.0692 324.601 67.0359 316.983 67.1987 315.901C67.3616 314.819 67.3564 314.425 66.7417 314.467C64.3565 314.651 61.9818 314.892 59.8436 315.207C58.4041 315.423 55.2466 316.479 52.6618 317.876C50.077 319.279 42.8741 324.191 42.4591 324.664C41.4977 325.757 42.1071 326.676 43.8618 326.634C44.6604 326.613 54.5373 326.319 65.0605 325.998L65.0657 326.004Z" fill="#D9DEE5"/>
<path d="M91.6704 323.834C90.6617 321.297 85.2767 314.771 81.7777 314.246C80.1386 313.999 75.3209 313.973 70.0042 314.257C69.6785 314.278 69.2214 314.335 69.1689 315.013C69.1111 315.728 68.4806 323.093 68.4123 324.37C68.344 325.647 69.1689 325.878 69.1689 325.878C80.312 325.542 90.9559 325.211 91.1924 325.19C91.6757 325.148 91.9069 324.417 91.6757 323.834H91.6704Z" fill="#D9DEE5"/>
<path d="M34.9411 327.753C35.7501 327.69 36.6958 327.417 36.969 326.97C37.1318 326.708 37.8358 325.384 38.2929 324.517C38.2299 324.543 38.1773 324.559 38.1353 324.57C38.0933 324.58 38.025 324.591 37.9462 324.606C37.4944 325.457 36.8849 326.597 36.7431 326.834C36.5539 327.144 35.7869 327.422 34.92 327.496C34.4892 327.533 29.1147 328.594 23.9136 329.624C19.4532 330.506 14.8457 331.42 14.562 331.436C14.1364 331.468 13.0384 331.452 12.4237 331.441C12.4027 331.52 12.3817 331.615 12.3607 331.704C12.6864 331.709 13.1698 331.715 13.6268 331.715C14.0156 331.715 14.3729 331.715 14.583 331.694C14.8825 331.673 19.0907 330.837 23.9661 329.876C28.9151 328.899 34.5208 327.79 34.9411 327.753Z" fill="#D9DEE5"/>
<path d="M14.6093 330.412C14.1259 330.627 12.739 332.382 12.5551 333.532C12.3765 334.683 12.5393 335.061 13.1435 334.961C13.7529 334.862 16.2799 334.142 17.1153 333.648C17.9506 333.154 20.4987 330.806 20.6773 330.412C20.8559 330.018 20.1362 329.576 19.595 329.508C19.0539 329.445 16.4271 329.608 14.604 330.412H14.6093Z" fill="white"/>
<path d="M104.411 323.813C105.619 323.839 108.361 323.834 110.095 323.824C109.533 322.941 108.929 322.058 108.503 321.48C107.841 320.587 104.652 317.698 101.673 315.581C98.3111 315.465 89.6319 315.181 89.3482 315.318C88.9963 315.491 89.1276 315.933 89.8526 316.432C90.5724 316.936 98.6946 322.452 100.16 323.109C101.626 323.766 102.567 323.766 104.405 323.808L104.411 323.813Z" fill="#D9DEE5"/>
<path d="M106.57 331.919H111.661V326.928H109.922C109.465 326.928 107.983 328.688 107.132 329.597C106.281 330.506 105.656 331.919 106.575 331.919H106.57Z" fill="#EF3061"/>
<path d="M13.6872 94.587H102.385C103 94.587 105.8 92.9215 105.8 91.4347V84.1689C105.8 83.5122 104.707 82.3721 104.707 81.8467V71.5127C104.707 71.1187 95.2507 60.1753 94.8567 60.086C94.4627 59.9966 79.9677 58.9459 68.0629 59.1245C56.1528 59.2979 51.6031 60.6113 48.6242 61.7514C45.6454 62.8914 31.5024 71.6441 30.7617 71.7334C30.0209 71.8227 23.8898 72.9575 21.347 73.5722C18.8043 74.1869 13.5978 75.805 12.5891 77.6858C11.5804 79.5666 11.5279 85.9079 11.5279 88.1407C11.5279 90.3735 11.5804 91.503 11.2967 91.9601C11.013 92.4172 10.8029 93.0003 11.2967 93.573C11.7906 94.1456 12.7362 94.587 13.6819 94.587H13.6872Z" fill="url(#paint1_linear_28_186)"/>
<path d="M33.9139 92.3961C33.9139 86.885 29.443 82.4141 23.9319 82.4141C18.4208 82.4141 13.9499 86.885 13.9499 92.3961C13.9499 93.1474 14.0392 93.8777 14.1968 94.5869H33.6617C33.8193 93.8829 33.9086 93.1526 33.9086 92.3961H33.9139Z" fill="#AB2246"/>
<path d="M104.839 92.3961C104.839 86.885 100.368 82.4141 94.8567 82.4141C89.3455 82.4141 84.8746 86.885 84.8746 92.3961C84.8746 93.1474 84.9639 93.8777 85.1216 94.5869H102.385C102.758 94.5869 103.935 93.9722 104.802 93.1579C104.823 92.9057 104.833 92.6535 104.833 92.3961H104.839Z" fill="#AB2246"/>
<path d="M23.9319 100.802C28.5743 100.802 32.3378 97.0386 32.3378 92.3961C32.3378 87.7537 28.5743 83.9902 23.9319 83.9902C19.2894 83.9902 15.526 87.7537 15.526 92.3961C15.526 97.0386 19.2894 100.802 23.9319 100.802Z" fill="#404040"/>
<path d="M27.9967 96.459C30.2412 94.2144 30.2412 90.5753 27.9967 88.3307C25.7521 86.0862 22.113 86.0862 19.8684 88.3307C17.6239 90.5753 17.6239 94.2144 19.8684 96.459C22.113 98.7035 25.7521 98.7035 27.9967 96.459Z" fill="white"/>
<path d="M94.8567 100.802C99.4992 100.802 103.263 97.0386 103.263 92.3961C103.263 87.7537 99.4992 83.9902 94.8567 83.9902C90.2143 83.9902 86.4508 87.7537 86.4508 92.3961C86.4508 97.0386 90.2143 100.802 94.8567 100.802Z" fill="#404040"/>
<path d="M98.9212 96.4592C101.166 94.2147 101.166 90.5755 98.9212 88.331C96.6767 86.0864 93.0376 86.0864 90.793 88.331C88.5484 90.5755 88.5485 94.2147 90.793 96.4592C93.0376 98.7038 96.6767 98.7038 98.9212 96.4592Z" fill="white"/>
<path d="M63.3293 71.6335C63.9387 71.6125 64.3642 71.166 64.4273 70.5565C64.4903 69.9471 65.6724 63.8318 65.851 62.7601C66.0244 61.6936 66.0034 61.2785 65.5726 61.2838C56.2 61.578 52.1179 62.6655 49.3755 63.7162C47.9149 64.2731 42.8346 67.2415 38.8681 69.5636C37.728 70.2308 37.6334 72.3796 39.6036 72.3796C40.7331 72.3796 52.7431 72.0066 63.3293 71.6335Z" fill="#4F4F4F"/>
<path d="M85.7258 61.6042C81.3915 61.3941 76.0064 61.2049 70.8368 61.2049C70.6687 61.2049 70.5058 61.2049 70.3377 61.2049C69.9857 61.2207 69.7756 61.7933 69.7756 62.4238C69.7756 63.0542 69.4288 69.6476 69.413 70.2203C69.3973 70.7929 69.7073 71.3918 70.2484 71.3761C75.003 71.1974 78.6438 71.0451 79.5264 70.9663C82.5158 70.6983 83.6611 70.0206 85.8729 68.7072C88.0847 67.3938 89.8341 66.2117 89.8762 65.4236C89.9182 64.6356 87.6486 61.6935 85.7153 61.6042H85.7258Z" fill="#4F4F4F"/>
<path d="M66.2924 93.0161H81.5438C82.8152 93.0161 83.5665 92.4907 83.7767 91.461L83.8292 91.1983C84.0656 89.9637 84.5069 87.6626 86.2879 85.477C87.1285 84.4473 88.1267 83.7959 89.0041 83.2232C90.1967 82.4457 91.2211 81.7784 91.6309 80.4387C91.7938 79.9029 92.0617 79.1096 92.3717 78.1954C93.4277 75.0537 94.8777 70.7457 94.7254 69.3797C94.5152 67.5199 89.3298 60.8635 87.0182 60.5325C84.8694 60.2225 73.7999 59.9651 68.4359 60.0281C68.4832 59.6761 68.5252 59.3714 68.562 59.1245C68.4727 59.1245 68.3833 59.1245 68.294 59.1245C68.2573 59.3714 68.2152 59.6761 68.1679 60.0281C67.8159 60.0281 67.4955 60.0387 67.2013 60.0492C59.8514 60.2488 54.2929 60.9475 50.6784 62.1349C46.0341 63.6584 41.2743 66.569 39.8295 67.5567C39.6877 67.6565 39.5353 67.7563 39.3777 67.8614C37.8436 68.8754 35.7422 70.2623 34.9594 74.0555C34.1871 77.8066 34.413 84.8939 35.1327 88.7291C35.863 92.6116 36.5144 92.7587 37.003 92.869C37.2395 92.9215 37.2237 93.636 37.2079 94.3926C37.2079 94.4556 37.2079 94.5239 37.2079 94.5922H37.4706C37.4706 94.5292 37.4706 94.4609 37.4706 94.4031C37.4811 93.8147 37.4916 93.3366 37.4076 93.0266H66.0139C66.1032 93.5362 66.1663 94.0616 66.1926 94.5974H66.4552C66.429 94.0616 66.3659 93.5362 66.2819 93.0266L66.2924 93.0161ZM37.2973 92.7534C37.2395 92.6799 37.1607 92.6273 37.0608 92.6063C36.6773 92.517 36.0994 92.3856 35.4007 88.6765C34.6862 84.8676 34.455 77.8277 35.2273 74.1028C35.9891 70.4147 38.038 69.0645 39.5353 68.0768C39.6929 67.9717 39.8453 67.8719 39.9924 67.7721C41.4267 66.7844 46.1602 63.9001 50.773 62.3818C54.3612 61.205 59.8934 60.5062 67.217 60.3066C67.4955 60.3013 67.8054 60.2908 68.1364 60.2908C67.7056 63.3905 66.8808 69.5741 66.4973 73.6142C65.9509 79.43 65.2154 88.5715 65.3047 89.6485C65.331 90.0057 65.457 90.5153 65.6041 91.1037C65.725 91.5923 65.8616 92.1545 65.9772 92.7534H37.2973ZM65.8616 91.0407C65.7197 90.4628 65.5936 89.9584 65.5674 89.6275C65.4833 88.561 66.2188 79.4458 66.76 73.6352C67.1382 69.5794 67.9736 63.3695 68.3991 60.2803C73.7369 60.2173 84.8327 60.4747 86.9762 60.7794C89.1407 61.0894 94.263 67.6407 94.4627 69.4007C94.6098 70.7142 93.1125 75.164 92.1248 78.1061C91.8148 79.0255 91.5469 79.8188 91.384 80.3599C91.0057 81.6051 90.0128 82.2513 88.8675 82.9973C87.9691 83.5805 86.9552 84.2424 86.0883 85.3037C84.26 87.5417 83.7977 89.9742 83.5718 91.1405L83.5192 91.4032C83.3406 92.3068 82.6944 92.7481 81.5491 92.7481H66.2504C66.1348 92.1282 65.9877 91.5451 65.8616 91.0354V91.0407Z" fill="#C42750"/>
<path d="M62.6568 76.094V75.3479C62.6568 75.0905 62.4519 74.8856 62.1945 74.8856H58.5379C58.2805 74.8856 58.0756 75.0905 58.0756 75.3479V76.094H62.6568Z" fill="#C42750"/>
<path d="M58.0703 76.094V76.84C58.0703 77.0974 58.2805 77.3023 58.5327 77.3023H62.1892C62.4467 77.3023 62.6516 77.0974 62.6516 76.84V76.094H58.0703Z" fill="#AB2246"/>
<path d="M89.8868 76.094V75.3479C89.8868 75.0905 89.6766 74.8856 89.4244 74.8856H85.7679C85.5104 74.8856 85.3055 75.0905 85.3055 75.3479V76.094H89.8868Z" fill="#C42750"/>
<path d="M85.3055 76.094V76.84C85.3055 77.0974 85.5157 77.3023 85.7679 77.3023H89.4244C89.6819 77.3023 89.8868 77.0974 89.8868 76.84V76.094H85.3055Z" fill="#AB2246"/>
<path d="M13.5821 78.1587C13.2039 78.2007 12.6049 78.5422 12.2057 78.7996C11.8116 80.3915 11.6488 82.866 11.5805 84.9727C11.9377 84.8939 12.3895 84.7205 12.8151 84.3475C13.703 83.5595 14.9323 79.966 14.9323 79.2567C14.9323 78.5475 14.1916 78.0904 13.5874 78.1587H13.5821Z" fill="#FFB073"/>
<path d="M104.707 72.6055H103.699C102.827 72.6055 102.123 73.3095 102.123 74.1816V78.0798H104.707V72.6055Z" fill="#FFB073"/>
<path d="M103.699 81.668H104.707V78.0797H102.123V80.0919C102.123 80.964 102.827 81.668 103.699 81.668Z" fill="#FF7445"/>
<path d="M95.6237 61.2785C94.9617 61.8459 94.8829 62.8389 95.4503 63.5008L101.219 70.2834C101.786 70.9453 102.779 71.0241 103.441 70.4567L103.735 70.2045C101.865 67.8877 97.762 63.1488 95.8549 61.0841L95.6237 61.2838V61.2785Z" fill="#4F4F4F"/>
<path d="M488.144 83.288C486.56 83.288 485.296 82.6 484.352 81.224C483.424 79.848 482.96 77.872 482.96 75.296C482.96 72.72 483.424 70.768 484.352 69.44C485.296 68.112 486.56 67.448 488.144 67.448C489.728 67.448 490.984 68.112 491.912 69.44C492.856 70.768 493.328 72.72 493.328 75.296C493.328 77.872 492.856 79.848 491.912 81.224C490.984 82.6 489.728 83.288 488.144 83.288ZM488.144 81.128C488.64 81.128 489.08 80.944 489.464 80.576C489.848 80.192 490.144 79.576 490.352 78.728C490.576 77.88 490.688 76.736 490.688 75.296C490.688 73.856 490.576 72.72 490.352 71.888C490.144 71.056 489.848 70.472 489.464 70.136C489.08 69.784 488.64 69.608 488.144 69.608C487.664 69.608 487.232 69.784 486.848 70.136C486.464 70.472 486.16 71.056 485.936 71.888C485.712 72.72 485.6 73.856 485.6 75.296C485.6 76.736 485.712 77.88 485.936 78.728C486.16 79.576 486.464 80.192 486.848 80.576C487.232 80.944 487.664 81.128 488.144 81.128Z" fill="#232A3D"/>
<path d="M488.144 254.288C486.56 254.288 485.296 253.6 484.352 252.224C483.424 250.848 482.96 248.872 482.96 246.296C482.96 243.72 483.424 241.768 484.352 240.44C485.296 239.112 486.56 238.448 488.144 238.448C489.728 238.448 490.984 239.112 491.912 240.44C492.856 241.768 493.328 243.72 493.328 246.296C493.328 248.872 492.856 250.848 491.912 252.224C490.984 253.6 489.728 254.288 488.144 254.288ZM488.144 252.128C488.64 252.128 489.08 251.944 489.464 251.576C489.848 251.192 490.144 250.576 490.352 249.728C490.576 248.88 490.688 247.736 490.688 246.296C490.688 244.856 490.576 243.72 490.352 242.888C490.144 242.056 489.848 241.472 489.464 241.136C489.08 240.784 488.64 240.608 488.144 240.608C487.664 240.608 487.232 240.784 486.848 241.136C486.464 241.472 486.16 242.056 485.936 242.888C485.712 243.72 485.6 244.856 485.6 246.296C485.6 247.736 485.712 248.88 485.936 249.728C486.16 250.576 486.464 251.192 486.848 251.576C487.232 251.944 487.664 252.128 488.144 252.128Z" fill="#232A3D"/>
<path d="M483.776 170V167.744H487.184V157.712H484.376V155.984C485.128 155.84 485.784 155.672 486.344 155.48C486.904 155.272 487.424 155.024 487.904 154.736H489.968V167.744H492.968V170H483.776Z" fill="#232A3D"/>
<path d="M483.776 339V336.744H487.184V326.712H484.376V324.984C485.128 324.84 485.784 324.672 486.344 324.48C486.904 324.272 487.424 324.024 487.904 323.736H489.968V336.744H492.968V339H483.776Z" fill="#232A3D"/>
<path d="M405.707 76.7071C406.098 76.3166 406.098 75.6834 405.707 75.2929L399.343 68.9289C398.953 68.5384 398.319 68.5384 397.929 68.9289C397.538 69.3195 397.538 69.9526 397.929 70.3431L403.586 76L397.929 81.6569C397.538 82.0474 397.538 82.6805 397.929 83.0711C398.319 83.4616 398.953 83.4616 399.343 83.0711L405.707 76.7071ZM195 77H405V75H195V77Z" fill="#232A3D"/>
<path d="M405.707 161.707C406.098 161.317 406.098 160.683 405.707 160.293L399.343 153.929C398.953 153.538 398.319 153.538 397.929 153.929C397.538 154.319 397.538 154.953 397.929 155.343L403.586 161L397.929 166.657C397.538 167.047 397.538 167.681 397.929 168.071C398.319 168.462 398.953 168.462 399.343 168.071L405.707 161.707ZM195 162H405V160H195V162Z" fill="#232A3D"/>
<path d="M405.707 246.707C406.098 246.317 406.098 245.683 405.707 245.293L399.343 238.929C398.953 238.538 398.319 238.538 397.929 238.929C397.538 239.319 397.538 239.953 397.929 240.343L403.586 246L397.929 251.657C397.538 252.047 397.538 252.681 397.929 253.071C398.319 253.462 398.953 253.462 399.343 253.071L405.707 246.707ZM195 247H405V245H195V247Z" fill="#232A3D"/>
<path d="M405.707 330.707C406.098 330.317 406.098 329.683 405.707 329.293L399.343 322.929C398.953 322.538 398.319 322.538 397.929 322.929C397.538 323.319 397.538 323.953 397.929 324.343L403.586 330L397.929 335.657C397.538 336.047 397.538 336.681 397.929 337.071C398.319 337.462 398.953 337.462 399.343 337.071L405.707 330.707ZM195 331H405V329H195V331Z" fill="#232A3D"/>
<rect opacity="0.2" x="263" y="57" width="74" height="292" fill="#9B51E0"/>
<path d="M268.318 40.64V38.24C267.582 38.16 266.838 37.96 266.086 37.64C265.35 37.32 264.71 36.912 264.166 36.416L265.414 34.544C265.974 34.992 266.542 35.352 267.118 35.624C267.71 35.896 268.326 36.032 268.966 36.032C269.75 36.032 270.334 35.848 270.718 35.48C271.102 35.112 271.294 34.608 271.294 33.968C271.294 33.44 271.134 33 270.814 32.648C270.51 32.28 270.11 31.96 269.614 31.688C269.118 31.416 268.59 31.144 268.03 30.872C267.47 30.584 266.942 30.264 266.446 29.912C265.95 29.56 265.542 29.136 265.222 28.64C264.918 28.128 264.766 27.496 264.766 26.744C264.766 25.624 265.086 24.696 265.726 23.96C266.382 23.208 267.246 22.736 268.318 22.544V20.096H270.238V22.496C271.006 22.592 271.662 22.816 272.206 23.168C272.766 23.504 273.27 23.904 273.718 24.368L272.302 25.976C271.854 25.56 271.422 25.248 271.006 25.04C270.59 24.816 270.094 24.704 269.518 24.704C268.878 24.704 268.366 24.872 267.982 25.208C267.614 25.528 267.43 26 267.43 26.624C267.43 27.104 267.582 27.504 267.886 27.824C268.206 28.144 268.614 28.432 269.11 28.688C269.606 28.944 270.134 29.208 270.694 29.48C271.254 29.736 271.782 30.048 272.278 30.416C272.774 30.768 273.174 31.216 273.478 31.76C273.798 32.288 273.958 32.96 273.958 33.776C273.958 34.912 273.63 35.872 272.974 36.656C272.334 37.44 271.422 37.944 270.238 38.168V40.64H268.318ZM277.167 38V35.744H280.575V25.712H277.767V23.984C278.519 23.84 279.175 23.672 279.735 23.48C280.295 23.272 280.815 23.024 281.295 22.736H283.359V35.744H286.359V38H277.167ZM293.479 38.288C292.247 38.288 291.207 38.08 290.359 37.664C289.527 37.232 288.831 36.736 288.271 36.176L289.543 34.4C290.007 34.832 290.527 35.216 291.103 35.552C291.679 35.872 292.351 36.032 293.119 36.032C293.967 36.032 294.671 35.776 295.231 35.264C295.791 34.752 296.071 34.032 296.071 33.104C296.071 32.192 295.815 31.488 295.303 30.992C294.791 30.496 294.111 30.248 293.263 30.248C292.767 30.248 292.351 30.32 292.015 30.464C291.679 30.592 291.279 30.808 290.815 31.112L289.495 30.272L289.951 22.736H298.111V25.064H292.351L292.039 28.76C292.359 28.6 292.671 28.48 292.975 28.4C293.295 28.304 293.655 28.256 294.055 28.256C294.935 28.256 295.735 28.424 296.455 28.76C297.175 29.096 297.751 29.616 298.183 30.32C298.631 31.024 298.855 31.928 298.855 33.032C298.855 34.136 298.599 35.08 298.087 35.864C297.591 36.648 296.935 37.248 296.119 37.664C295.303 38.08 294.423 38.288 293.479 38.288ZM306.144 38.288C304.56 38.288 303.296 37.6 302.352 36.224C301.424 34.848 300.96 32.872 300.96 30.296C300.96 27.72 301.424 25.768 302.352 24.44C303.296 23.112 304.56 22.448 306.144 22.448C307.728 22.448 308.984 23.112 309.912 24.44C310.856 25.768 311.328 27.72 311.328 30.296C311.328 32.872 310.856 34.848 309.912 36.224C308.984 37.6 307.728 38.288 306.144 38.288ZM306.144 36.128C306.64 36.128 307.08 35.944 307.464 35.576C307.848 35.192 308.144 34.576 308.352 33.728C308.576 32.88 308.688 31.736 308.688 30.296C308.688 28.856 308.576 27.72 308.352 26.888C308.144 26.056 307.848 25.472 307.464 25.136C307.08 24.784 306.64 24.608 306.144 24.608C305.664 24.608 305.232 24.784 304.848 25.136C304.464 25.472 304.16 26.056 303.936 26.888C303.712 27.72 303.6 28.856 303.6 30.296C303.6 31.736 303.712 32.88 303.936 33.728C304.16 34.576 304.464 35.192 304.848 35.576C305.232 35.944 305.664 36.128 306.144 36.128ZM318.449 38.288C316.865 38.288 315.601 37.6 314.657 36.224C313.729 34.848 313.265 32.872 313.265 30.296C313.265 27.72 313.729 25.768 314.657 24.44C315.601 23.112 316.865 22.448 318.449 22.448C320.033 22.448 321.289 23.112 322.217 24.44C323.161 25.768 323.633 27.72 323.633 30.296C323.633 32.872 323.161 34.848 322.217 36.224C321.289 37.6 320.033 38.288 318.449 38.288ZM318.449 36.128C318.945 36.128 319.385 35.944 319.769 35.576C320.153 35.192 320.449 34.576 320.657 33.728C320.881 32.88 320.993 31.736 320.993 30.296C320.993 28.856 320.881 27.72 320.657 26.888C320.449 26.056 320.153 25.472 319.769 25.136C319.385 24.784 318.945 24.608 318.449 24.608C317.969 24.608 317.537 24.784 317.153 25.136C316.769 25.472 316.465 26.056 316.241 26.888C316.017 27.72 315.905 28.856 315.905 30.296C315.905 31.736 316.017 32.88 316.241 33.728C316.465 34.576 316.769 35.192 317.153 35.576C317.537 35.944 317.969 36.128 318.449 36.128ZM330.753 38.288C329.169 38.288 327.905 37.6 326.961 36.224C326.033 34.848 325.569 32.872 325.569 30.296C325.569 27.72 326.033 25.768 326.961 24.44C327.905 23.112 329.169 22.448 330.753 22.448C332.337 22.448 333.593 23.112 334.521 24.44C335.465 25.768 335.937 27.72 335.937 30.296C335.937 32.872 335.465 34.848 334.521 36.224C333.593 37.6 332.337 38.288 330.753 38.288ZM330.753 36.128C331.249 36.128 331.689 35.944 332.073 35.576C332.457 35.192 332.753 34.576 332.961 33.728C333.185 32.88 333.297 31.736 333.297 30.296C333.297 28.856 333.185 27.72 332.961 26.888C332.753 26.056 332.457 25.472 332.073 25.136C331.689 24.784 331.249 24.608 330.753 24.608C330.273 24.608 329.841 24.784 329.457 25.136C329.073 25.472 328.769 26.056 328.545 26.888C328.321 27.72 328.209 28.856 328.209 30.296C328.209 31.736 328.321 32.88 328.545 33.728C328.769 34.576 329.073 35.192 329.457 35.576C329.841 35.944 330.273 36.128 330.753 36.128Z" fill="#9B51E0"/>
<path d="M437.992 38V22.304H440.776V28.616H447.136V22.304H449.92V38H447.136V31.04H440.776V38H437.992ZM453.666 38V26.216H456.426V38H453.666ZM455.058 24.152C454.562 24.152 454.162 24.008 453.858 23.72C453.554 23.432 453.402 23.048 453.402 22.568C453.402 22.104 453.554 21.728 453.858 21.44C454.162 21.152 454.562 21.008 455.058 21.008C455.554 21.008 455.954 21.152 456.258 21.44C456.562 21.728 456.714 22.104 456.714 22.568C456.714 23.048 456.562 23.432 456.258 23.72C455.954 24.008 455.554 24.152 455.058 24.152ZM464.051 43.208C463.123 43.208 462.283 43.096 461.531 42.872C460.795 42.648 460.211 42.304 459.779 41.84C459.363 41.392 459.155 40.824 459.155 40.136C459.155 39.16 459.715 38.32 460.835 37.616V37.52C460.531 37.328 460.275 37.072 460.067 36.752C459.875 36.432 459.779 36.032 459.779 35.552C459.779 35.088 459.907 34.672 460.163 34.304C460.435 33.92 460.739 33.608 461.075 33.368V33.272C460.675 32.968 460.315 32.544 459.995 32C459.691 31.456 459.539 30.84 459.539 30.152C459.539 29.24 459.755 28.472 460.187 27.848C460.619 27.224 461.187 26.752 461.891 26.432C462.611 26.096 463.379 25.928 464.195 25.928C464.515 25.928 464.819 25.96 465.107 26.024C465.411 26.072 465.683 26.136 465.923 26.216H470.147V28.256H467.987C468.179 28.48 468.339 28.768 468.467 29.12C468.595 29.456 468.659 29.832 468.659 30.248C468.659 31.112 468.459 31.848 468.059 32.456C467.659 33.048 467.123 33.496 466.451 33.8C465.779 34.104 465.027 34.256 464.195 34.256C463.939 34.256 463.675 34.232 463.403 34.184C463.131 34.136 462.859 34.056 462.587 33.944C462.411 34.104 462.267 34.264 462.155 34.424C462.059 34.584 462.011 34.8 462.011 35.072C462.011 35.408 462.147 35.672 462.419 35.864C462.707 36.056 463.211 36.152 463.931 36.152H466.019C467.443 36.152 468.515 36.384 469.235 36.848C469.971 37.296 470.339 38.032 470.339 39.056C470.339 39.824 470.083 40.52 469.571 41.144C469.059 41.784 468.331 42.288 467.387 42.656C466.443 43.024 465.331 43.208 464.051 43.208ZM464.195 32.528C464.755 32.528 465.235 32.32 465.635 31.904C466.035 31.488 466.235 30.904 466.235 30.152C466.235 29.416 466.035 28.848 465.635 28.448C465.251 28.032 464.771 27.824 464.195 27.824C463.619 27.824 463.131 28.024 462.731 28.424C462.331 28.824 462.131 29.4 462.131 30.152C462.131 30.904 462.331 31.488 462.731 31.904C463.131 32.32 463.619 32.528 464.195 32.528ZM464.483 41.408C465.427 41.408 466.195 41.216 466.787 40.832C467.379 40.448 467.675 40.008 467.675 39.512C467.675 39.048 467.491 38.736 467.123 38.576C466.771 38.416 466.259 38.336 465.587 38.336H463.979C463.339 38.336 462.803 38.28 462.371 38.168C461.763 38.632 461.459 39.152 461.459 39.728C461.459 40.256 461.731 40.664 462.275 40.952C462.819 41.256 463.555 41.408 464.483 41.408ZM472.416 38V21.056H475.176V25.424L475.08 27.704C475.576 27.24 476.128 26.832 476.736 26.48C477.344 26.112 478.048 25.928 478.848 25.928C480.112 25.928 481.032 26.336 481.608 27.152C482.184 27.968 482.472 29.12 482.472 30.608V38H479.712V30.968C479.712 29.992 479.568 29.304 479.28 28.904C478.992 28.504 478.52 28.304 477.864 28.304C477.352 28.304 476.896 28.432 476.496 28.688C476.112 28.928 475.672 29.288 475.176 29.768V38H472.416ZM490.604 42.656V26.216H492.884L493.076 27.464H493.172C493.668 27.048 494.22 26.688 494.828 26.384C495.452 26.08 496.084 25.928 496.724 25.928C498.196 25.928 499.332 26.472 500.132 27.56C500.948 28.648 501.356 30.104 501.356 31.928C501.356 33.272 501.116 34.424 500.636 35.384C500.156 36.328 499.532 37.048 498.764 37.544C498.012 38.04 497.196 38.288 496.316 38.288C495.804 38.288 495.292 38.176 494.78 37.952C494.268 37.712 493.772 37.392 493.292 36.992L493.364 38.96V42.656H490.604ZM495.74 36.008C496.524 36.008 497.18 35.664 497.708 34.976C498.236 34.288 498.5 33.28 498.5 31.952C498.5 30.768 498.3 29.848 497.9 29.192C497.5 28.536 496.852 28.208 495.956 28.208C495.124 28.208 494.26 28.648 493.364 29.528V35.024C493.796 35.376 494.212 35.632 494.612 35.792C495.012 35.936 495.388 36.008 495.74 36.008ZM504.15 38V26.216H506.43L506.622 28.304H506.718C507.134 27.536 507.638 26.952 508.23 26.552C508.822 26.136 509.43 25.928 510.054 25.928C510.614 25.928 511.062 26.008 511.398 26.168L510.918 28.568C510.71 28.504 510.518 28.456 510.342 28.424C510.166 28.392 509.95 28.376 509.694 28.376C509.23 28.376 508.742 28.56 508.23 28.928C507.718 29.28 507.278 29.904 506.91 30.8V38H504.15ZM513.104 38V26.216H515.864V38H513.104ZM514.496 24.152C514 24.152 513.6 24.008 513.296 23.72C512.992 23.432 512.84 23.048 512.84 22.568C512.84 22.104 512.992 21.728 513.296 21.44C513.6 21.152 514 21.008 514.496 21.008C514.992 21.008 515.392 21.152 515.696 21.44C516 21.728 516.152 22.104 516.152 22.568C516.152 23.048 516 23.432 515.696 23.72C515.392 24.008 514.992 24.152 514.496 24.152ZM524.305 38.288C523.233 38.288 522.265 38.048 521.401 37.568C520.553 37.072 519.873 36.368 519.361 35.456C518.865 34.528 518.617 33.416 518.617 32.12C518.617 30.808 518.889 29.696 519.433 28.784C519.977 27.856 520.697 27.152 521.593 26.672C522.505 26.176 523.481 25.928 524.521 25.928C525.273 25.928 525.929 26.056 526.489 26.312C527.049 26.568 527.545 26.88 527.977 27.248L526.633 29.048C526.329 28.776 526.017 28.568 525.697 28.424C525.377 28.264 525.033 28.184 524.665 28.184C523.721 28.184 522.945 28.544 522.337 29.264C521.745 29.984 521.449 30.936 521.449 32.12C521.449 33.288 521.737 34.232 522.313 34.952C522.905 35.672 523.665 36.032 524.593 36.032C525.057 36.032 525.489 35.936 525.889 35.744C526.305 35.536 526.681 35.296 527.017 35.024L528.145 36.848C527.601 37.328 526.993 37.688 526.321 37.928C525.649 38.168 524.977 38.288 524.305 38.288ZM534.925 38.288C533.837 38.288 532.853 38.048 531.973 37.568C531.093 37.072 530.397 36.368 529.885 35.456C529.373 34.528 529.117 33.416 529.117 32.12C529.117 30.84 529.373 29.736 529.885 28.808C530.413 27.88 531.093 27.168 531.925 26.672C532.757 26.176 533.629 25.928 534.541 25.928C535.613 25.928 536.509 26.168 537.229 26.648C537.949 27.112 538.493 27.768 538.861 28.616C539.229 29.448 539.413 30.416 539.413 31.52C539.413 32.096 539.373 32.544 539.293 32.864H531.805C531.933 33.904 532.309 34.712 532.933 35.288C533.557 35.864 534.341 36.152 535.285 36.152C535.797 36.152 536.269 36.08 536.701 35.936C537.149 35.776 537.589 35.56 538.021 35.288L538.957 37.016C538.397 37.384 537.773 37.688 537.085 37.928C536.397 38.168 535.677 38.288 534.925 38.288ZM531.781 30.992H537.013C537.013 30.08 536.813 29.368 536.413 28.856C536.013 28.328 535.413 28.064 534.613 28.064C533.925 28.064 533.309 28.32 532.765 28.832C532.237 29.328 531.909 30.048 531.781 30.992Z" fill="#232A3D"/>
<path d="M13.818 258.133C13.818 258.133 22.9941 258.973 24.7538 258.973C26.5136 258.973 28.6907 258.133 30.4505 258.133H89.6549C91.9175 258.133 103.065 256.916 105.83 256.585C108.595 256.248 111.446 256.248 112.155 254.865C112.864 253.482 113.246 248.54 112.824 247.323C112.407 246.106 111.818 246.358 111.23 244.221C110.642 242.084 109.219 237.096 108.716 236.805C108.213 236.513 103.019 236.176 97.8204 234.331C92.6215 232.486 86.2158 229.217 76.7029 228.337C67.19 227.458 58.6424 227.96 51.6887 230.515C44.735 233.069 35.388 238.519 32.7936 239.062C30.1941 239.605 21.8577 240.862 17.3728 243.17C12.8878 245.478 12.1336 247.278 11.5906 249.706C11.0476 252.135 11.2437 254.87 11.118 255.247C10.9923 255.624 10.9319 256.001 11.118 256.379C11.304 256.756 12.0029 257.967 13.8079 258.128L13.818 258.133Z" fill="url(#paint2_linear_28_186)"/>
<path d="M91.1432 238.911C90.8968 238.509 90.6404 238.137 90.3739 237.74C89.8913 237.031 89.3884 236.292 88.8856 235.306L88.6594 235.422C89.1722 236.422 89.675 237.167 90.1628 237.886C90.4292 238.278 90.6806 238.65 90.922 239.047C91.651 240.239 91.7969 241.43 91.3292 242.315C91.0276 242.888 88.3376 245.83 85.7381 248.671C83.8426 250.747 82.0526 252.703 81.1928 253.729C79.2722 256.037 77.4923 256.228 75.9788 256.228H66.1441C66.1441 255.408 66.114 250.561 66.1441 245.071C66.1743 239.122 66.848 237.438 66.8581 237.418L66.6268 237.322C66.5966 237.388 65.9229 239.047 65.8927 245.071C65.8626 250.556 65.8927 255.398 65.8927 256.228H41.9495C40.4964 256.228 40.3657 255.901 40.2098 255.519C40.0992 255.237 39.6919 253.859 39.2445 247.982C38.8422 242.733 39.5763 240.229 39.5864 240.203L39.6366 240.043H39.4657C39.4657 240.043 38.9377 240.043 37.8366 240.299C36.8159 240.53 35.3981 240.741 33.8695 240.928C34.2668 240.364 35.0863 239.198 35.1869 238.891C35.212 238.816 35.202 238.74 35.1567 238.67C35.0863 238.559 34.9103 238.464 34.6992 238.388C34.5785 238.439 34.4578 238.489 34.3422 238.539C34.6992 238.635 34.9355 238.74 34.9455 238.811C34.855 239.087 33.945 240.384 33.5276 240.968C32.4315 241.098 31.2952 241.224 30.2092 241.34C28.1477 241.561 26.3678 241.752 25.6387 241.933C24.7739 242.144 22.4611 242.914 20.4197 243.597C18.5091 244.236 16.704 244.834 16.4124 244.874C16.1107 244.915 15.6331 244.663 15.2459 244.412C15.1705 244.462 15.1001 244.517 15.0247 244.568C15.437 244.844 16.0303 245.176 16.4476 245.121C16.7644 245.081 18.494 244.502 20.5052 243.834C22.5415 243.155 24.8494 242.386 25.7041 242.179C26.4181 242.004 28.1879 241.812 30.2393 241.591C31.3505 241.471 32.5271 241.345 33.6533 241.209L33.6634 241.219C33.6634 241.219 33.6684 241.209 33.6734 241.209C35.2975 241.013 36.8159 240.797 37.8969 240.545C38.6159 240.379 39.0785 240.324 39.3048 240.309C39.1439 240.958 38.6511 243.421 38.9981 248.007C39.4355 253.759 39.8327 255.247 39.9836 255.619C40.1897 256.142 40.4411 256.484 41.9545 256.484H75.9889C77.1252 256.484 79.237 256.484 81.394 253.895C82.2437 252.874 84.0336 250.918 85.9292 248.842C88.5387 245.986 91.2387 243.034 91.5605 242.431C92.0734 241.466 91.9225 240.183 91.1482 238.911H91.1432Z" fill="#1F69FF"/>
<path d="M92.6164 246.926C87.5834 246.926 83.5057 251.004 83.5057 256.042C83.5057 256.766 83.5962 257.465 83.7571 258.138H89.6549C91.2538 258.138 97.2924 257.53 101.672 257.057C101.707 256.725 101.732 256.389 101.732 256.042C101.732 251.009 97.6545 246.926 92.6215 246.926H92.6164Z" fill="#1F69FF"/>
<path d="M30.4505 258.133H37.2081C37.369 257.46 37.4595 256.761 37.4595 256.037C37.4595 251.004 33.3768 246.921 28.3488 246.921C23.3209 246.921 19.2382 250.999 19.2382 256.037C19.2382 256.937 19.3739 257.806 19.6203 258.631C21.8276 258.812 23.9946 258.968 24.7589 258.968C26.5187 258.968 28.6958 258.128 30.4556 258.128L30.4505 258.133Z" fill="#1F69FF"/>
<path d="M28.3439 264.081C32.7869 264.081 36.3886 260.48 36.3886 256.037C36.3886 251.594 32.7869 247.992 28.3439 247.992C23.9009 247.992 20.2991 251.594 20.2991 256.037C20.2991 260.48 23.9009 264.081 28.3439 264.081Z" fill="#404040"/>
<path d="M33.8394 256.037C33.8394 259.073 31.3757 261.532 28.3438 261.532C25.3119 261.532 22.8432 259.068 22.8432 256.037C22.8432 253.005 25.3069 250.541 28.3438 250.541C31.3807 250.541 33.8394 253 33.8394 256.037Z" fill="#EFEFEF"/>
<path d="M92.6165 264.081C97.0595 264.081 100.661 260.48 100.661 256.037C100.661 251.594 97.0595 247.992 92.6165 247.992C88.1735 247.992 84.5717 251.594 84.5717 256.037C84.5717 260.48 88.1735 264.081 92.6165 264.081Z" fill="#404040"/>
<path d="M92.6164 261.532C95.6515 261.532 98.112 259.072 98.112 256.037C98.112 253.001 95.6515 250.541 92.6164 250.541C89.5813 250.541 87.1208 253.001 87.1208 256.037C87.1208 259.072 89.5813 261.532 92.6164 261.532Z" fill="#EFEFEF"/>
<path d="M66.6218 229.202C64.1379 229.313 61.2468 229.232 56.7217 230.208C52.1965 231.183 44.7501 235.14 41.7333 237.026C38.7165 238.911 36.107 240.797 36.107 240.797C36.107 240.797 52.5082 239.48 61.2167 238.786C69.9251 238.092 83.9984 237.182 85.6979 236.996C87.3974 236.81 93.8684 234.985 93.7427 234.638C93.617 234.291 82.4951 228.508 66.6218 229.202Z" fill="#1F69FF" fill-opacity="0.7"/>
<path d="M64.3693 238.041C64.681 238.016 64.6559 237.911 64.7363 237.609C64.8167 237.312 65.6665 230.691 65.7168 230.399C65.767 230.107 65.7519 229.74 65.5207 229.745C65.4704 229.745 65.4201 229.745 65.3698 229.745C63.1173 229.816 60.5631 229.891 56.8273 230.696C52.2368 231.686 44.7199 235.749 41.9998 237.448C41.4065 237.815 40.8333 238.187 40.2853 238.544C39.3752 239.138 39.5864 240.007 40.6624 239.922C46.173 239.479 55.3792 238.74 61.1715 238.278C62.172 238.197 63.248 238.117 64.3642 238.031L64.3693 238.041Z" fill="#7D8FA8"/>
<path d="M22.9861 242.313C20.8672 242.569 18.0846 243.2 16.4596 243.771C14.8345 244.342 13.6808 245.428 13.7751 245.841C13.8693 246.255 16.437 245.822 18.2769 245.112C20.1169 244.402 23.2199 242.285 22.9899 242.31L22.9861 242.313Z" fill="#E0E0E0"/>
<path d="M87.3924 234.969C87.3924 234.311 86.2259 232.114 84.4259 231.581C80.4186 230.53 75.2498 229.645 69.2565 229.645C69.1861 229.645 69.1157 229.645 69.0453 229.645C68.8492 229.65 68.7487 229.861 68.7386 230.027C68.7286 230.193 68.5576 236.759 68.5727 237.227C68.5878 237.7 69.1358 237.685 69.1358 237.685C71.7001 237.498 74.2895 237.317 76.6074 237.157C81.203 236.835 84.8382 236.578 85.6427 236.493C85.8036 236.473 85.9997 236.443 86.2259 236.402C87.2868 236.166 87.3974 235.633 87.3974 234.969H87.3924Z" fill="#7D8FA8"/>
<path d="M111.463 245C111.28 244.497 111.143 243.923 110.96 243.492C110.853 243.24 110.26 243.163 109.391 243.129C107.89 243.067 101.401 243.087 101.314 243.129C101.226 243.17 101.293 243.487 102.301 243.712C103.257 243.926 109.469 245.225 111.783 245.754L111.463 245Z" fill="#EF3061"/>
<path d="M12.6867 255.443C13.5163 255.443 14.3559 254.87 14.5621 254.121L14.9794 252.592C15.2358 251.682 14.6375 250.888 13.637 250.888H11.3844C11.1029 252.954 11.2235 254.941 11.1179 255.257C11.0978 255.318 11.0827 255.383 11.0626 255.448H12.6816L12.6867 255.443Z" fill="#232A3D"/>
<path d="M63 244.349L69 244.349" stroke="#1F69FF"/>
<path d="M89 244.349L95 244.349" stroke="#1F69FF"/>
<path d="M91.2029 147.591C91.2029 147.591 95.8954 147.86 96.2762 147.926C96.6571 147.992 96.7638 148.52 96.4032 148.794C96.0426 149.069 94.8391 150.023 94.8391 150.023L91.2029 147.596V147.591Z" fill="#F7E08E"/>
<path opacity="0.5" d="M11 175.542C11 176.893 11.2945 178.417 13.0314 178.716C14.7682 179.011 18.1504 179.31 19.2117 179.31H103.132C104.742 179.31 107.108 177.955 108.17 176.136C109.231 174.318 108.972 172.876 108.972 171.226C108.972 169.575 107.195 167.503 107.195 166.696V161.023C107.195 160.175 106.159 158.652 104.94 157.595C103.726 156.539 94.4581 148.327 91.792 147.692C89.1258 147.058 64.8765 146.255 61.7889 146.337C58.7012 146.423 56.289 147.819 55.6948 148.073C55.1007 148.327 38.5959 157.763 38.215 157.89C37.8342 158.017 28.0177 159.667 23.4471 160.81C18.8766 161.953 15.7026 162.501 13.204 165.594C11.259 168.006 11.0051 172.495 11.0051 175.542H11Z" fill="#F7E08E"/>
<path d="M68.0252 158.139C68.3248 158.119 68.4416 157.88 68.4873 157.702C68.533 157.53 69.9854 149.181 70.0311 148.897C70.0768 148.612 70.2343 148.262 69.8737 148.267C67.8474 148.267 65.943 148.287 64.4093 148.313C63.5206 148.328 59.9048 149.074 57.65 150.313C55.3952 151.553 48.6359 156.057 47.5237 156.946C46.4116 157.834 46.6045 159.388 48.6003 159.388C49.5449 159.388 58.6301 158.784 68.0252 158.139Z" fill="#232A3D"/>
<path d="M90.5631 155.478C90.0552 154.111 87.064 149.424 85.0733 148.876C83.4533 148.429 77.6944 148.282 72.1895 148.261C71.9508 148.261 71.8391 148.449 71.8086 148.718C71.7781 148.987 71.2398 157.128 71.255 157.509C71.2703 157.885 71.5953 157.89 71.6004 157.89C80.8989 157.25 89.5169 156.651 89.7099 156.651C90.3498 156.651 90.7763 156.036 90.5681 155.478H90.5631Z" fill="#232A3D"/>
<path d="M96.8145 166.548C91.5228 166.548 87.2316 170.84 87.2316 176.136C87.2316 177.249 87.4297 178.315 87.7801 179.31H103.132C104.026 179.31 105.163 178.889 106.174 178.203C106.321 177.538 106.402 176.847 106.402 176.136C106.402 170.84 102.111 166.548 96.8196 166.548H96.8145Z" fill="#F7E08E"/>
<path d="M37.2908 179.305C37.6412 178.31 37.8393 177.244 37.8393 176.131C37.8393 170.835 33.548 166.543 28.2563 166.543C22.9647 166.543 18.6734 170.835 18.6734 176.131C18.6734 177.244 18.8715 178.31 19.2219 179.305H37.2959H37.2908Z" fill="#F7E08E"/>
<path d="M28.2563 184.257C32.7438 184.257 36.3817 180.619 36.3817 176.131C36.3817 171.644 32.7438 168.006 28.2563 168.006C23.7688 168.006 20.1309 171.644 20.1309 176.131C20.1309 180.619 23.7688 184.257 28.2563 184.257Z" fill="#232A3D"/>
<path d="M33.807 176.131C33.807 179.199 31.3186 181.687 28.2563 181.687C25.1941 181.687 22.7006 179.199 22.7006 176.131C22.7006 173.064 25.189 170.576 28.2563 170.576C31.3237 170.576 33.807 173.064 33.807 176.131Z" fill="white"/>
<path d="M96.8145 184.257C101.302 184.257 104.94 180.619 104.94 176.131C104.94 171.644 101.302 168.006 96.8145 168.006C92.327 168.006 88.6891 171.644 88.6891 176.131C88.6891 180.619 92.327 184.257 96.8145 184.257Z" fill="#232A3D"/>
<path d="M102.365 176.131C102.365 179.199 99.8767 181.687 96.8145 181.687C93.7522 181.687 91.2587 179.199 91.2587 176.131C91.2587 173.064 93.7471 170.576 96.8145 170.576C99.8818 170.576 102.365 173.064 102.365 176.131Z" fill="white"/>
<path d="M84.7736 147.83C83.179 147.591 67.7357 147.144 63.7288 147.144C63.221 147.144 62.901 147.149 62.7487 147.164C61.2658 147.291 59.6864 147.87 58.8536 148.358C58.752 148.419 48.5597 154.32 45.3248 156.585C41.973 158.926 39.9366 160.647 39.9061 164.751C39.8858 167.193 40.1905 168.945 40.4343 170.352C40.6069 171.342 40.7542 172.196 40.7542 173.044V176.599C40.7542 176.934 40.7542 177.635 41.6632 177.635H81.4219C82.4223 177.635 82.6661 177.051 82.6915 176.563C82.7067 176.238 82.9403 174.435 85.8401 170.657C86.5104 169.788 87.1757 168.971 87.8257 168.184C89.7708 165.812 91.4517 163.771 91.863 161.663C92.3353 159.236 92.6299 156.351 90.0958 152.837C87.7343 149.561 86.5155 148.099 84.7736 147.835V147.83ZM41.6632 177.376C41.0589 177.376 41.0081 177.02 41.0081 176.593V173.039C41.0081 172.165 40.8609 171.302 40.6882 170.301C40.4444 168.905 40.1448 167.163 40.1651 164.746C40.1956 160.683 42.2015 159.073 45.4771 156.788C48.707 154.533 58.884 148.632 58.9907 148.571C59.8032 148.099 61.3318 147.535 62.7792 147.413C62.9264 147.403 63.2464 147.393 63.739 147.393C65.1965 147.393 68.3958 147.474 71.3769 147.555C71.2448 148.292 70.1225 151.892 69.8178 158.068C69.6147 158.357 68.2892 160.454 68.1978 165.822C68.1318 169.788 68.2181 173.054 68.279 175.212C68.3044 176.116 68.3248 176.837 68.3248 177.376H41.6734H41.6632ZM91.6142 161.607C91.213 163.654 89.5524 165.675 87.6277 168.016C86.9776 168.803 86.3124 169.621 85.637 170.494C82.7677 174.232 82.463 176.07 82.4376 176.543C82.4071 177.111 82.0821 177.376 81.4219 177.376H68.5685C68.5685 176.832 68.5482 176.111 68.5228 175.207C68.4669 173.049 68.3755 169.788 68.4415 165.827C68.533 160.236 70.0209 158.21 70.0362 158.189L70.0616 158.159V158.118C70.3764 151.806 71.514 148.185 71.6308 147.565C77.4709 147.723 83.8087 147.941 84.7432 148.083C86.3886 148.332 87.5769 149.769 89.8977 152.984C92.1322 156.082 92.2135 158.586 91.6193 161.612L91.6142 161.607Z" fill="#F7E08E"/>
<path d="M39.3018 158.56C39.6522 158.814 40.3988 158.768 40.9675 158.433C41.5363 158.098 55.8828 149.099 56.0757 148.993C56.2636 148.881 56.2992 148.566 56.1722 148.388C56.1164 148.312 55.9183 148.18 55.7253 148.063C55.7152 148.063 55.6999 148.073 55.6949 148.078C55.1261 148.322 39.7589 157.108 38.3217 157.844C38.5858 158.037 39.0632 158.382 39.3069 158.56H39.3018Z" fill="#232A3D"/>
<path d="M13.8388 175.71V173.892C13.8388 173.049 13.1583 172.368 12.3153 172.368H11.1219C11.0305 173.496 11.0051 174.593 11.0051 175.542C11.0051 176.111 11.0609 176.71 11.2488 177.233H12.3153C13.1583 177.233 13.8388 176.553 13.8388 175.71Z" fill="#F7E08E"/>
<path d="M12.8667 171.254C12.9268 170.757 13.2571 168.176 13.9646 167.231C14.672 166.286 17.2747 164.858 17.4949 164.989C17.7185 165.12 17.0614 165.913 16.1469 168.962C15.6627 170.576 12.7833 171.945 12.8667 171.249V171.254Z" fill="white"/>
<path d="M104.94 162.293V165.025C104.94 165.868 105.62 166.549 106.463 166.549H107.195V161.028C107.195 160.952 107.179 160.861 107.159 160.774H106.463C105.62 160.774 104.94 161.455 104.94 162.298V162.293Z" fill="#D8C37A"/>
<path d="M104.94 157.595C104.087 156.854 99.2827 152.603 95.5704 149.907C95.4688 150.145 95.3723 150.491 95.5399 150.719C95.8141 151.1 104.742 158.57 105.123 158.784C105.351 158.911 105.742 158.88 106.032 158.733C105.707 158.332 105.336 157.941 104.945 157.6L104.94 157.595Z" fill="#232A3D"/>
<path d="M66.2833 160.444H62.4745C62.0377 160.444 61.6823 160.8 61.6823 161.236H67.0755C67.0755 160.8 66.72 160.444 66.2833 160.444Z" fill="#F7E08E"/>
<path d="M62.4694 162.029H66.2782C66.715 162.029 67.0704 161.673 67.0704 161.236H61.6772C61.6772 161.673 62.0327 162.029 62.4694 162.029Z" fill="#F7E08E"/>
<path d="M89.1309 160.444H85.3221C84.8854 160.444 84.5299 160.8 84.5299 161.236H89.9231C89.9231 160.8 89.5676 160.444 89.1309 160.444Z" fill="#F7E08E"/>
<path d="M85.3221 162.029H89.1309C89.5676 162.029 89.9231 161.673 89.9231 161.236H84.5299C84.5299 161.673 84.8854 162.029 85.3221 162.029Z" fill="#F7E08E"/>
<path d="M27.0706 162.425C36.9873 159.334 36.9873 159.334 44.0706 158.425" stroke="#9B51E0" stroke-width="0.3"/>
<circle cx="300" cy="76" r="19" fill="#9B51E0"/>
<path d="M306.37 82.49L293.02 77.3V74.78L306.37 69.59V72.5L300.58 74.54L296.53 75.98V76.1L300.58 77.54L306.37 79.58V82.49Z" fill="white"/>
<circle cx="300" cy="246" r="19" fill="#9B51E0"/>
<path d="M306.37 252.49L293.02 247.3V244.78L306.37 239.59V242.5L300.58 244.54L296.53 245.98V246.1L300.58 247.54L306.37 249.58V252.49Z" fill="white"/>
<circle cx="300" cy="161" r="19" fill="#9B51E0"/>
<path d="M293.02 167.49V164.58L298.81 162.54L302.86 161.1V160.98L298.81 159.54L293.02 157.5V154.59L306.37 159.78V162.3L293.02 167.49Z" fill="white"/>
<circle cx="300" cy="330" r="19" fill="#9B51E0"/>
<path d="M293.02 336.49V333.58L298.81 331.54L302.86 330.1V329.98L298.81 328.54L293.02 326.5V323.59L306.37 328.78V331.3L293.02 336.49Z" fill="white"/>
<defs>
<linearGradient id="paint0_linear_28_186" x1="61.56" y1="325.447" x2="61.56" y2="389.116" gradientUnits="userSpaceOnUse">
<stop stop-color="#232A3D"/>
<stop offset="1" stop-color="#232A3D" stop-opacity="0"/>
</linearGradient>
<linearGradient id="paint1_linear_28_186" x1="58.2832" y1="84.3219" x2="58.2832" y2="100.083" gradientUnits="userSpaceOnUse">
<stop stop-color="#C74E4E"/>
<stop offset="1" stop-color="#C74E4E" stop-opacity="0"/>
</linearGradient>
<linearGradient id="paint2_linear_28_186" x1="61.9869" y1="232.968" x2="61.7547" y2="272.905" gradientUnits="userSpaceOnUse">
<stop stop-color="#1F69FF"/>
<stop offset="1" stop-color="#1F69FF" stop-opacity="0"/>
<stop offset="1" stop-color="#1F69FF" stop-opacity="0.48"/>
</linearGradient>
</defs>
</svg>
