<svg width="414" height="98" viewBox="0 0 414 98" fill="none" xmlns="http://www.w3.org/2000/svg">
<g clip-path="url(#clip0_31_136)">
<rect width="414" height="98" fill="white"/>
<rect x="67" y="30" width="78" height="36" fill="white"/>
<rect x="267" y="30" width="78" height="36" fill="white"/>
<g filter="url(#filter0_d_31_136)">
<rect x="67" y="30" width="78" height="36" fill="white"/>
<rect x="67.5" y="30.5" width="77" height="35" stroke="#209766"/>
</g>
<g filter="url(#filter1_d_31_136)">
<rect x="267" y="30" width="78" height="36" fill="white"/>
<rect x="267.5" y="30.5" width="77" height="35" stroke="#C74E4E"/>
</g>
<path d="M207 -13C207 -13.5523 206.552 -14 206 -14C205.448 -14 205 -13.5523 205 -13H207ZM105.293 28.7071C105.683 29.0976 106.317 29.0976 106.707 28.7071L113.071 22.3431C113.462 21.9526 113.462 21.3195 113.071 20.9289C112.681 20.5384 112.047 20.5384 111.657 20.9289L106 26.5858L100.343 20.9289C99.9526 20.5384 99.3195 20.5384 98.9289 20.9289C98.5384 21.3195 98.5384 21.9526 98.9289 22.3431L105.293 28.7071ZM205 -13C205 -8.36343 203.525 -5.01351 201.003 -2.53903C198.449 -0.0338974 194.74 1.65479 190.139 2.77035C180.911 5.00827 168.559 4.84389 156.002 4.8125C143.543 4.78135 130.881 4.88177 121.335 7.7694C116.544 9.21885 112.447 11.3949 109.546 14.6877C106.629 18.0004 105 22.3556 105 28H107C107 22.7694 108.496 18.9059 111.047 16.0096C113.616 13.0933 117.331 11.0702 121.915 9.68373C131.119 6.89948 143.457 6.78115 155.997 6.8125C168.441 6.84361 181.089 7.02297 190.611 4.71402C195.385 3.55614 199.488 1.74874 202.403 -1.11137C205.35 -4.00212 207 -7.88657 207 -13H205Z" fill="url(#paint0_linear_31_136)"/>
<path d="M107 69.5C107 68.9477 106.552 68.5 106 68.5C105.448 68.5 105 68.9477 105 69.5H107ZM57.7929 108.707C58.1834 109.098 58.8166 109.098 59.2071 108.707L65.5711 102.343C65.9616 101.953 65.9616 101.319 65.5711 100.929C65.1805 100.538 64.5474 100.538 64.1569 100.929L58.5 106.586L52.8431 100.929C52.4526 100.538 51.8195 100.538 51.4289 100.929C51.0384 101.319 51.0384 101.953 51.4289 102.343L57.7929 108.707ZM105 69.5C105 74.2845 104.27 77.6941 103.063 80.1224C101.87 82.5248 100.187 84.0149 98.1618 84.9423C96.1082 85.8827 93.6618 86.2622 90.9381 86.3511C88.2117 86.4401 85.2991 86.2374 82.3078 86.0642C76.4383 85.7244 70.1771 85.4731 65.4174 88.2537C60.5185 91.1158 57.5 96.967 57.5 108H59.5C59.5 97.283 62.419 92.3217 66.4263 89.9806C70.5729 87.5581 76.1867 87.7131 82.1922 88.0608C85.1384 88.2314 88.1633 88.4427 91.0033 88.3501C93.846 88.2573 96.5949 87.8595 98.9944 86.7608C101.422 85.6491 103.45 83.8385 104.855 81.0123C106.246 78.2122 107 74.4655 107 69.5H105Z" fill="url(#paint1_linear_31_136)"/>
<path d="M307 68.5C307 67.9477 306.552 67.5 306 67.5C305.448 67.5 305 67.9477 305 68.5H307ZM257.793 108.707C258.183 109.098 258.817 109.098 259.207 108.707L265.571 102.343C265.962 101.953 265.962 101.319 265.571 100.929C265.181 100.538 264.547 100.538 264.157 100.929L258.5 106.586L252.843 100.929C252.453 100.538 251.819 100.538 251.429 100.929C251.038 101.319 251.038 101.953 251.429 102.343L257.793 108.707ZM305 68.5C305 73.2837 304.27 76.7111 303.062 79.1691C301.865 81.6026 300.177 83.1332 298.146 84.1059C296.089 85.0912 293.64 85.5222 290.917 85.6684C288.191 85.8148 285.278 85.6734 282.287 85.5632C276.414 85.3468 270.157 85.2285 265.404 88.1054C260.52 91.0619 257.5 96.9637 257.5 108H259.5C259.5 97.2863 262.418 92.2506 266.44 89.8164C270.593 87.3027 276.211 87.3407 282.213 87.5618C285.159 87.6704 288.184 87.818 291.024 87.6656C293.868 87.5129 296.614 87.0572 299.01 85.9097C301.432 84.7496 303.455 82.9013 304.856 80.0516C306.245 77.2264 307 73.4663 307 68.5H305Z" fill="url(#paint2_linear_31_136)"/>
<path d="M105 69.5C105 68.9477 105.448 68.5 106 68.5C106.552 68.5 107 68.9477 107 69.5H105ZM153.207 108.707C152.817 109.098 152.183 109.098 151.793 108.707L145.429 102.343C145.038 101.953 145.038 101.319 145.429 100.929C145.819 100.538 146.453 100.538 146.843 100.929L152.5 106.586L158.157 100.929C158.547 100.538 159.181 100.538 159.571 100.929C159.962 101.319 159.962 101.953 159.571 102.343L153.207 108.707ZM107 69.5C107 74.2868 107.715 77.6994 108.897 80.13C110.067 82.5344 111.713 84.0214 113.689 84.9458C115.694 85.8833 118.083 86.2624 120.746 86.3511C123.413 86.44 126.262 86.2375 129.191 86.0642C134.935 85.7245 141.077 85.4717 145.747 88.2585C150.549 91.1245 153.5 96.9755 153.5 108H151.5C151.5 97.2745 148.638 92.313 144.722 89.9759C140.673 87.5595 135.19 87.713 129.309 88.0608C126.426 88.2313 123.462 88.4428 120.68 88.35C117.894 88.2572 115.197 87.8589 112.842 86.7574C110.459 85.6426 108.472 83.8289 107.099 81.0048C105.738 78.2069 105 74.4632 105 69.5H107Z" fill="url(#paint3_linear_31_136)"/>
<path d="M305 68.5C305 67.9477 305.448 67.5 306 67.5C306.552 67.5 307 67.9477 307 68.5H305ZM353.207 108.707C352.817 109.098 352.183 109.098 351.793 108.707L345.429 102.343C345.038 101.953 345.038 101.319 345.429 100.929C345.819 100.538 346.453 100.538 346.843 100.929L352.5 106.586L358.157 100.929C358.547 100.538 359.181 100.538 359.571 100.929C359.962 101.319 359.962 101.953 359.571 102.343L353.207 108.707ZM307 68.5C307 73.2861 307.715 76.7164 308.899 79.1766C310.071 81.6122 311.723 83.1399 313.705 84.1096C315.713 85.0921 318.105 85.5225 320.768 85.6685C323.434 85.8147 326.283 85.6734 329.212 85.5632C334.96 85.3469 341.097 85.2274 345.76 88.1104C350.548 91.0706 353.5 96.9719 353.5 108H351.5C351.5 97.2781 348.639 92.2419 344.708 89.8115C340.653 87.3039 335.165 87.3406 329.288 87.5618C326.404 87.6703 323.441 87.8181 320.658 87.6655C317.872 87.5127 315.177 87.0564 312.826 85.9061C310.449 84.7429 308.468 82.8917 307.097 80.0441C305.738 77.2211 305 73.4639 305 68.5H307Z" fill="url(#paint4_linear_31_136)"/>
<path d="M205 -13C205 -13.5523 205.448 -14 206 -14C206.552 -14 207 -13.5523 207 -13H205ZM306.707 28.7071C306.317 29.0976 305.683 29.0976 305.293 28.7071L298.929 22.3431C298.538 21.9526 298.538 21.3195 298.929 20.9289C299.319 20.5384 299.953 20.5384 300.343 20.9289L306 26.5858L311.657 20.9289C312.047 20.5384 312.681 20.5384 313.071 20.9289C313.462 21.3195 313.462 21.9526 313.071 22.3431L306.707 28.7071ZM207 -13C207 -8.36343 208.475 -5.01351 210.997 -2.53903C213.551 -0.0338974 217.26 1.65479 221.861 2.77035C231.089 5.00827 243.441 4.84389 255.998 4.8125C268.457 4.78135 281.119 4.88177 290.665 7.7694C295.456 9.21885 299.553 11.3949 302.454 14.6877C305.371 18.0004 307 22.3556 307 28H305C305 22.7694 303.504 18.9059 300.953 16.0096C298.384 13.0933 294.669 11.0702 290.085 9.68373C280.881 6.89948 268.543 6.78115 256.003 6.8125C243.559 6.84361 230.911 7.02297 221.389 4.71402C216.615 3.55614 212.512 1.74874 209.597 -1.11137C206.65 -4.00212 205 -7.88657 205 -13H207Z" fill="url(#paint5_linear_31_136)"/>
<rect y="78" width="414" height="20" fill="url(#paint6_linear_31_136)"/>
<g filter="url(#filter2_d_31_136)">
<rect x="67" y="30" width="78" height="36" fill="#9F6336"/>
</g>
<path d="M77.8502 52L76.2902 44.152H77.7182L78.4022 48.112C78.4662 48.528 78.5302 48.948 78.5942 49.372C78.6662 49.788 78.7302 50.204 78.7862 50.62H78.8342C78.9222 50.204 79.0062 49.788 79.0862 49.372C79.1742 48.948 79.2622 48.528 79.3502 48.112L80.3102 44.152H81.5222L82.4822 48.112C82.5702 48.52 82.6582 48.936 82.7462 49.36C82.8342 49.776 82.9222 50.196 83.0102 50.62H83.0582C83.1222 50.196 83.1862 49.776 83.2502 49.36C83.3142 48.944 83.3742 48.528 83.4302 48.112L84.1142 44.152H85.4462L83.9462 52H82.2182L81.2462 47.872C81.1822 47.568 81.1182 47.264 81.0542 46.96C80.9982 46.656 80.9462 46.356 80.8982 46.06H80.8502C80.7942 46.356 80.7342 46.656 80.6702 46.96C80.6142 47.264 80.5542 47.568 80.4902 47.872L79.5422 52H77.8502ZM86.5479 52V46.108H87.9279V52H86.5479ZM87.2439 45.076C86.9959 45.076 86.7959 45.004 86.6439 44.86C86.4919 44.716 86.4159 44.524 86.4159 44.284C86.4159 44.052 86.4919 43.864 86.6439 43.72C86.7959 43.576 86.9959 43.504 87.2439 43.504C87.4919 43.504 87.6919 43.576 87.8439 43.72C87.9959 43.864 88.0719 44.052 88.0719 44.284C88.0719 44.524 87.9959 44.716 87.8439 44.86C87.6919 45.004 87.4919 45.076 87.2439 45.076ZM91.7645 52.144C91.0845 52.144 90.6005 51.948 90.3125 51.556C90.0325 51.156 89.8925 50.64 89.8925 50.008V47.2H89.0525V46.168L89.9645 46.108L90.1325 44.5H91.2845V46.108H92.7845V47.2H91.2845V50.008C91.2845 50.696 91.5605 51.04 92.1125 51.04C92.2165 51.04 92.3245 51.028 92.4365 51.004C92.5485 50.972 92.6445 50.94 92.7245 50.908L92.9645 51.928C92.8045 51.984 92.6205 52.032 92.4125 52.072C92.2125 52.12 91.9965 52.144 91.7645 52.144ZM94.0244 52V43.528H95.4044V45.712L95.3564 46.852C95.6044 46.62 95.8804 46.416 96.1844 46.24C96.4884 46.056 96.8404 45.964 97.2404 45.964C97.8724 45.964 98.3324 46.168 98.6204 46.576C98.9084 46.984 99.0524 47.56 99.0524 48.304V52H97.6724V48.484C97.6724 47.996 97.6004 47.652 97.4564 47.452C97.3124 47.252 97.0764 47.152 96.7484 47.152C96.4924 47.152 96.2644 47.216 96.0644 47.344C95.8724 47.464 95.6524 47.644 95.4044 47.884V52H94.0244ZM104.846 47.824L104.57 48.784H106.574L106.298 47.824C106.17 47.408 106.046 46.98 105.926 46.54C105.814 46.1 105.702 45.664 105.59 45.232H105.542C105.438 45.672 105.326 46.112 105.206 46.552C105.094 46.984 104.974 47.408 104.846 47.824ZM102.218 52L104.774 44.152H106.406L108.962 52H107.498L106.886 49.876H104.246L103.634 52H102.218ZM111.874 52.144C111.138 52.144 110.55 51.872 110.11 51.328C109.67 50.784 109.45 50.028 109.45 49.06C109.45 48.42 109.566 47.868 109.798 47.404C110.038 46.94 110.35 46.584 110.734 46.336C111.118 46.088 111.522 45.964 111.946 45.964C112.282 45.964 112.566 46.024 112.798 46.144C113.038 46.256 113.27 46.412 113.494 46.612L113.446 45.664V43.528H114.826V52H113.686L113.59 51.364H113.542C113.326 51.58 113.074 51.764 112.786 51.916C112.498 52.068 112.194 52.144 111.874 52.144ZM112.21 51.004C112.65 51.004 113.062 50.784 113.446 50.344V47.596C113.246 47.412 113.046 47.284 112.846 47.212C112.646 47.14 112.446 47.104 112.246 47.104C111.87 47.104 111.546 47.276 111.274 47.62C111.01 47.956 110.878 48.432 110.878 49.048C110.878 49.68 110.994 50.164 111.226 50.5C111.458 50.836 111.786 51.004 112.21 51.004ZM118.335 52.144C117.703 52.144 117.243 51.94 116.955 51.532C116.667 51.124 116.523 50.548 116.523 49.804V46.108H117.903V49.624C117.903 50.112 117.975 50.456 118.119 50.656C118.263 50.856 118.495 50.956 118.815 50.956C119.071 50.956 119.295 50.892 119.487 50.764C119.687 50.636 119.899 50.428 120.123 50.14V46.108H121.503V52H120.375L120.267 51.136H120.231C119.975 51.44 119.695 51.684 119.391 51.868C119.087 52.052 118.735 52.144 118.335 52.144ZM124.595 52.144C124.107 52.144 123.759 51.996 123.551 51.7C123.351 51.404 123.251 51 123.251 50.488V43.528H124.631V50.56C124.631 50.728 124.663 50.848 124.727 50.92C124.791 50.984 124.859 51.016 124.931 51.016C124.963 51.016 124.991 51.016 125.015 51.016C125.047 51.008 125.091 51 125.147 50.992L125.327 52.024C125.247 52.056 125.143 52.084 125.015 52.108C124.895 52.132 124.755 52.144 124.595 52.144ZM128.585 52.144C127.905 52.144 127.421 51.948 127.133 51.556C126.853 51.156 126.713 50.64 126.713 50.008V47.2H125.873V46.168L126.785 46.108L126.953 44.5H128.105V46.108H129.605V47.2H128.105V50.008C128.105 50.696 128.381 51.04 128.933 51.04C129.037 51.04 129.145 51.028 129.257 51.004C129.369 50.972 129.465 50.94 129.545 50.908L129.785 51.928C129.625 51.984 129.441 52.032 129.233 52.072C129.033 52.12 128.817 52.144 128.585 52.144ZM131.478 49.42C131.43 49.068 131.45 48.756 131.538 48.484C131.626 48.212 131.75 47.964 131.91 47.74C132.078 47.516 132.25 47.304 132.426 47.104C132.602 46.904 132.75 46.708 132.87 46.516C132.99 46.324 133.05 46.12 133.05 45.904C133.05 45.616 132.962 45.384 132.786 45.208C132.618 45.032 132.382 44.944 132.078 44.944C131.83 44.944 131.606 45 131.406 45.112C131.206 45.224 131.018 45.376 130.842 45.568L130.074 44.86C130.338 44.556 130.654 44.308 131.022 44.116C131.39 43.916 131.798 43.816 132.246 43.816C132.87 43.816 133.382 43.984 133.782 44.32C134.19 44.656 134.394 45.152 134.394 45.808C134.394 46.112 134.33 46.384 134.202 46.624C134.082 46.864 133.93 47.088 133.746 47.296C133.57 47.504 133.394 47.712 133.218 47.92C133.042 48.128 132.902 48.352 132.798 48.592C132.694 48.832 132.658 49.108 132.69 49.42H131.478ZM132.09 52.144C131.842 52.144 131.63 52.056 131.454 51.88C131.286 51.704 131.202 51.48 131.202 51.208C131.202 50.936 131.286 50.712 131.454 50.536C131.63 50.36 131.842 50.272 132.09 50.272C132.346 50.272 132.558 50.36 132.726 50.536C132.902 50.712 132.99 50.936 132.99 51.208C132.99 51.48 132.902 51.704 132.726 51.88C132.558 52.056 132.346 52.144 132.09 52.144Z" fill="white"/>
<g filter="url(#filter3_d_31_136)">
<rect x="267" y="31" width="78" height="36" fill="#9F6336"/>
</g>
<path d="M278.107 51.632L278.731 50.684C279.075 50.908 279.423 51.096 279.775 51.248C280.135 51.392 280.519 51.464 280.927 51.464C281.311 51.464 281.599 51.392 281.791 51.248C281.991 51.104 282.091 50.912 282.091 50.672C282.091 50.464 282.003 50.292 281.827 50.156C281.651 50.012 281.423 49.884 281.143 49.772C280.871 49.66 280.579 49.548 280.267 49.436C279.955 49.316 279.659 49.176 279.379 49.016C279.107 48.848 278.883 48.644 278.707 48.404C278.531 48.164 278.443 47.864 278.443 47.504C278.443 47.112 278.547 46.772 278.755 46.484C278.963 46.196 279.255 45.976 279.631 45.824C280.015 45.664 280.451 45.584 280.939 45.584C281.483 45.584 281.935 45.676 282.295 45.86C282.663 46.044 282.987 46.276 283.267 46.556L282.571 47.36C282.291 47.152 282.023 46.992 281.767 46.88C281.519 46.768 281.211 46.712 280.843 46.712C280.515 46.712 280.255 46.78 280.063 46.916C279.871 47.052 279.775 47.24 279.775 47.48C279.775 47.656 279.863 47.808 280.039 47.936C280.215 48.064 280.443 48.18 280.723 48.284C281.003 48.388 281.295 48.5 281.599 48.62C281.911 48.732 282.203 48.872 282.475 49.04C282.755 49.208 282.983 49.416 283.159 49.664C283.343 49.904 283.435 50.208 283.435 50.576C283.435 50.968 283.323 51.316 283.099 51.62C282.883 51.924 282.575 52.164 282.175 52.34C281.783 52.508 281.307 52.592 280.747 52.592C280.443 52.592 280.127 52.552 279.799 52.472C279.479 52.384 279.171 52.268 278.875 52.124C278.587 51.98 278.331 51.816 278.107 51.632ZM280.399 46.04V44.048H281.359V46.04H280.399ZM280.399 52.052H281.359V54.32H280.399V52.052ZM297.585 52.532L293.025 49.508V48.524L297.585 45.5V46.784L294.189 48.992V49.04L297.585 51.248V52.532ZM299.741 48.2V47.192H305.069V48.2H299.741ZM299.741 50.888V49.88H305.069V50.888H299.741ZM314.083 51.632L314.707 50.684C315.051 50.908 315.399 51.096 315.751 51.248C316.111 51.392 316.495 51.464 316.903 51.464C317.287 51.464 317.575 51.392 317.767 51.248C317.967 51.104 318.067 50.912 318.067 50.672C318.067 50.464 317.979 50.292 317.803 50.156C317.627 50.012 317.399 49.884 317.119 49.772C316.847 49.66 316.555 49.548 316.243 49.436C315.931 49.316 315.635 49.176 315.355 49.016C315.083 48.848 314.859 48.644 314.683 48.404C314.507 48.164 314.419 47.864 314.419 47.504C314.419 47.112 314.523 46.772 314.731 46.484C314.939 46.196 315.231 45.976 315.607 45.824C315.991 45.664 316.427 45.584 316.915 45.584C317.459 45.584 317.911 45.676 318.271 45.86C318.639 46.044 318.963 46.276 319.243 46.556L318.547 47.36C318.267 47.152 317.999 46.992 317.743 46.88C317.495 46.768 317.187 46.712 316.819 46.712C316.491 46.712 316.231 46.78 316.039 46.916C315.847 47.052 315.751 47.24 315.751 47.48C315.751 47.656 315.839 47.808 316.015 47.936C316.191 48.064 316.419 48.18 316.699 48.284C316.979 48.388 317.271 48.5 317.575 48.62C317.887 48.732 318.179 48.872 318.451 49.04C318.731 49.208 318.959 49.416 319.135 49.664C319.319 49.904 319.411 50.208 319.411 50.576C319.411 50.968 319.299 51.316 319.075 51.62C318.859 51.924 318.551 52.164 318.151 52.34C317.759 52.508 317.283 52.592 316.723 52.592C316.419 52.592 316.103 52.552 315.775 52.472C315.455 52.384 315.147 52.268 314.851 52.124C314.563 51.98 314.307 51.816 314.083 51.632ZM316.375 46.04V44.048H317.335V46.04H316.375ZM316.375 52.052H317.335V54.32H316.375V52.052ZM321.171 53V52.196C321.971 51.508 322.655 50.896 323.223 50.36C323.799 49.824 324.239 49.336 324.543 48.896C324.855 48.448 325.011 48.028 325.011 47.636C325.011 47.228 324.887 46.908 324.639 46.676C324.391 46.436 324.027 46.316 323.547 46.316C323.219 46.316 322.915 46.4 322.635 46.568C322.355 46.736 322.099 46.936 321.867 47.168L321.111 46.4C321.479 46.024 321.867 45.736 322.275 45.536C322.683 45.328 323.167 45.224 323.727 45.224C324.255 45.224 324.711 45.32 325.095 45.512C325.487 45.704 325.791 45.976 326.007 46.328C326.223 46.68 326.331 47.092 326.331 47.564C326.331 48.012 326.191 48.472 325.911 48.944C325.631 49.408 325.251 49.884 324.771 50.372C324.299 50.86 323.767 51.372 323.175 51.908C323.399 51.884 323.635 51.864 323.883 51.848C324.131 51.832 324.359 51.824 324.567 51.824H326.727V53H321.171ZM331.186 53.144C330.61 53.144 330.11 52.988 329.686 52.676C329.262 52.364 328.934 51.912 328.702 51.32C328.47 50.728 328.354 50.004 328.354 49.148C328.354 47.86 328.61 46.884 329.122 46.22C329.634 45.556 330.322 45.224 331.186 45.224C332.058 45.224 332.746 45.556 333.25 46.22C333.762 46.884 334.018 47.86 334.018 49.148C334.018 50.004 333.902 50.728 333.67 51.32C333.446 51.912 333.122 52.364 332.698 52.676C332.274 52.988 331.77 53.144 331.186 53.144ZM331.186 52.064C331.49 52.064 331.762 51.968 332.002 51.776C332.242 51.576 332.43 51.264 332.566 50.84C332.702 50.408 332.77 49.844 332.77 49.148C332.77 48.452 332.702 47.896 332.566 47.48C332.43 47.064 332.242 46.764 332.002 46.58C331.762 46.396 331.49 46.304 331.186 46.304C330.882 46.304 330.61 46.396 330.37 46.58C330.13 46.764 329.942 47.064 329.806 47.48C329.67 47.896 329.602 48.452 329.602 49.148C329.602 49.844 329.67 50.408 329.806 50.84C329.942 51.264 330.13 51.576 330.37 51.776C330.61 51.968 330.882 52.064 331.186 52.064ZM331.186 49.952C330.962 49.952 330.766 49.876 330.598 49.724C330.438 49.572 330.358 49.364 330.358 49.1C330.358 48.836 330.438 48.628 330.598 48.476C330.766 48.324 330.962 48.248 331.186 48.248C331.418 48.248 331.614 48.324 331.774 48.476C331.934 48.628 332.014 48.836 332.014 49.1C332.014 49.364 331.934 49.572 331.774 49.724C331.614 49.876 331.418 49.952 331.186 49.952Z" fill="white"/>
</g>
<defs>
<filter id="filter0_d_31_136" x="63" y="27" width="86" height="44" filterUnits="userSpaceOnUse" color-interpolation-filters="sRGB">
<feFlood flood-opacity="0" result="BackgroundImageFix"/>
<feColorMatrix in="SourceAlpha" type="matrix" values="0 0 0 0 0 0 0 0 0 0 0 0 0 0 0 0 0 0 127 0" result="hardAlpha"/>
<feOffset dy="1"/>
<feGaussianBlur stdDeviation="2"/>
<feComposite in2="hardAlpha" operator="out"/>
<feColorMatrix type="matrix" values="0 0 0 0 0 0 0 0 0 0 0 0 0 0 0 0 0 0 0.18 0"/>
<feBlend mode="normal" in2="BackgroundImageFix" result="effect1_dropShadow_31_136"/>
<feBlend mode="normal" in="SourceGraphic" in2="effect1_dropShadow_31_136" result="shape"/>
</filter>
<filter id="filter1_d_31_136" x="263" y="27" width="86" height="44" filterUnits="userSpaceOnUse" color-interpolation-filters="sRGB">
<feFlood flood-opacity="0" result="BackgroundImageFix"/>
<feColorMatrix in="SourceAlpha" type="matrix" values="0 0 0 0 0 0 0 0 0 0 0 0 0 0 0 0 0 0 127 0" result="hardAlpha"/>
<feOffset dy="1"/>
<feGaussianBlur stdDeviation="2"/>
<feComposite in2="hardAlpha" operator="out"/>
<feColorMatrix type="matrix" values="0 0 0 0 0 0 0 0 0 0 0 0 0 0 0 0 0 0 0.18 0"/>
<feBlend mode="normal" in2="BackgroundImageFix" result="effect1_dropShadow_31_136"/>
<feBlend mode="normal" in="SourceGraphic" in2="effect1_dropShadow_31_136" result="shape"/>
</filter>
<filter id="filter2_d_31_136" x="63" y="27" width="86" height="44" filterUnits="userSpaceOnUse" color-interpolation-filters="sRGB">
<feFlood flood-opacity="0" result="BackgroundImageFix"/>
<feColorMatrix in="SourceAlpha" type="matrix" values="0 0 0 0 0 0 0 0 0 0 0 0 0 0 0 0 0 0 127 0" result="hardAlpha"/>
<feOffset dy="1"/>
<feGaussianBlur stdDeviation="2"/>
<feComposite in2="hardAlpha" operator="out"/>
<feColorMatrix type="matrix" values="0 0 0 0 0 0 0 0 0 0 0 0 0 0 0 0 0 0 0.15 0"/>
<feBlend mode="normal" in2="BackgroundImageFix" result="effect1_dropShadow_31_136"/>
<feBlend mode="normal" in="SourceGraphic" in2="effect1_dropShadow_31_136" result="shape"/>
</filter>
<filter id="filter3_d_31_136" x="263" y="28" width="86" height="44" filterUnits="userSpaceOnUse" color-interpolation-filters="sRGB">
<feFlood flood-opacity="0" result="BackgroundImageFix"/>
<feColorMatrix in="SourceAlpha" type="matrix" values="0 0 0 0 0 0 0 0 0 0 0 0 0 0 0 0 0 0 127 0" result="hardAlpha"/>
<feOffset dy="1"/>
<feGaussianBlur stdDeviation="2"/>
<feComposite in2="hardAlpha" operator="out"/>
<feColorMatrix type="matrix" values="0 0 0 0 0 0 0 0 0 0 0 0 0 0 0 0 0 0 0.15 0"/>
<feBlend mode="normal" in2="BackgroundImageFix" result="effect1_dropShadow_31_136"/>
<feBlend mode="normal" in="SourceGraphic" in2="effect1_dropShadow_31_136" result="shape"/>
</filter>
<linearGradient id="paint0_linear_31_136" x1="107" y1="30" x2="206" y2="-14" gradientUnits="userSpaceOnUse">
<stop stop-color="#209766"/>
<stop offset="1" stop-color="#209766" stop-opacity="0.2"/>
</linearGradient>
<linearGradient id="paint1_linear_31_136" x1="59" y1="106" x2="106" y2="65" gradientUnits="userSpaceOnUse">
<stop stop-color="#209766"/>
<stop offset="1" stop-color="#209766" stop-opacity="0.1"/>
</linearGradient>
<linearGradient id="paint2_linear_31_136" x1="259" y1="101.5" x2="306" y2="65" gradientUnits="userSpaceOnUse">
<stop stop-color="#209766"/>
<stop offset="1" stop-color="#209766" stop-opacity="0.1"/>
</linearGradient>
<linearGradient id="paint3_linear_31_136" x1="153" y1="108" x2="106" y2="65" gradientUnits="userSpaceOnUse">
<stop stop-color="#C74E4E"/>
<stop offset="1" stop-color="#C74E4E" stop-opacity="0.1"/>
</linearGradient>
<linearGradient id="paint4_linear_31_136" x1="353" y1="108" x2="306" y2="65" gradientUnits="userSpaceOnUse">
<stop stop-color="#C74E4E"/>
<stop offset="1" stop-color="#C74E4E" stop-opacity="0.1"/>
</linearGradient>
<linearGradient id="paint5_linear_31_136" x1="305" y1="30" x2="206" y2="-14" gradientUnits="userSpaceOnUse">
<stop stop-color="#C74E4E"/>
<stop offset="1" stop-color="#C74E4E" stop-opacity="0.2"/>
</linearGradient>
<linearGradient id="paint6_linear_31_136" x1="207" y1="78" x2="207" y2="98" gradientUnits="userSpaceOnUse">
<stop stop-color="white" stop-opacity="0.24"/>
<stop offset="0.942708" stop-color="white"/>
</linearGradient>
<clipPath id="clip0_31_136">
<rect width="414" height="98" fill="white"/>
</clipPath>
</defs>
</svg>
