<svg width="508" height="366" viewBox="0 0 508 366" fill="none" xmlns="http://www.w3.org/2000/svg">
<rect width="508" height="366" fill="white"/>
<rect x="9.5" y="13.5" width="384" height="39" fill="url(#paint0_linear_2_53)" fill-opacity="0.2" stroke="#9B51E0"/>
<path d="M176.672 37V26.536H179.472C181.072 26.536 182.32 26.968 183.216 27.832C184.112 28.696 184.56 29.992 184.56 31.72C184.56 33.4587 184.117 34.776 183.232 35.672C182.346 36.5573 181.125 37 179.568 37H176.672ZM178.528 35.496H179.344C180.4 35.496 181.216 35.192 181.792 34.584C182.368 33.9653 182.656 33.0107 182.656 31.72C182.656 30.44 182.368 29.5067 181.792 28.92C181.216 28.3333 180.4 28.04 179.344 28.04H178.528V35.496ZM188.416 37.192C187.733 37.192 187.173 36.9787 186.736 36.552C186.309 36.1253 186.096 35.5707 186.096 34.888C186.096 34.0453 186.464 33.3947 187.2 32.936C187.936 32.4667 189.109 32.1467 190.72 31.976C190.709 31.56 190.597 31.2027 190.384 30.904C190.181 30.5947 189.813 30.44 189.28 30.44C188.896 30.44 188.517 30.5147 188.144 30.664C187.781 30.8133 187.424 30.9947 187.072 31.208L186.4 29.976C186.837 29.6987 187.328 29.4587 187.872 29.256C188.426 29.0533 189.013 28.952 189.632 28.952C190.613 28.952 191.344 29.2453 191.824 29.832C192.314 30.408 192.56 31.2453 192.56 32.344V37H191.04L190.912 36.136H190.848C190.496 36.4347 190.117 36.6853 189.712 36.888C189.317 37.0907 188.885 37.192 188.416 37.192ZM189.008 35.752C189.328 35.752 189.616 35.6773 189.872 35.528C190.138 35.368 190.421 35.1547 190.72 34.888V33.128C189.653 33.2667 188.912 33.4747 188.496 33.752C188.08 34.0187 187.872 34.3493 187.872 34.744C187.872 35.096 187.978 35.352 188.192 35.512C188.405 35.672 188.677 35.752 189.008 35.752ZM197.28 37.192C196.373 37.192 195.728 36.9307 195.344 36.408C194.97 35.8747 194.784 35.1867 194.784 34.344V30.6H193.664V29.224L194.88 29.144L195.104 27H196.64V29.144H198.64V30.6H196.64V34.344C196.64 35.2613 197.008 35.72 197.744 35.72C197.882 35.72 198.026 35.704 198.176 35.672C198.325 35.6293 198.453 35.5867 198.56 35.544L198.88 36.904C198.666 36.9787 198.421 37.0427 198.144 37.096C197.877 37.16 197.589 37.192 197.28 37.192ZM201.853 37.192C201.171 37.192 200.611 36.9787 200.173 36.552C199.747 36.1253 199.533 35.5707 199.533 34.888C199.533 34.0453 199.901 33.3947 200.637 32.936C201.373 32.4667 202.547 32.1467 204.157 31.976C204.147 31.56 204.035 31.2027 203.821 30.904C203.619 30.5947 203.251 30.44 202.717 30.44C202.333 30.44 201.955 30.5147 201.581 30.664C201.219 30.8133 200.861 30.9947 200.509 31.208L199.837 29.976C200.275 29.6987 200.765 29.4587 201.309 29.256C201.864 29.0533 202.451 28.952 203.069 28.952C204.051 28.952 204.781 29.2453 205.261 29.832C205.752 30.408 205.997 31.2453 205.997 32.344V37H204.477L204.349 36.136H204.285C203.933 36.4347 203.555 36.6853 203.149 36.888C202.755 37.0907 202.323 37.192 201.853 37.192ZM202.445 35.752C202.765 35.752 203.053 35.6773 203.309 35.528C203.576 35.368 203.859 35.1547 204.157 34.888V33.128C203.091 33.2667 202.349 33.4747 201.933 33.752C201.517 34.0187 201.309 34.3493 201.309 34.744C201.309 35.096 201.416 35.352 201.629 35.512C201.843 35.672 202.115 35.752 202.445 35.752ZM210.391 37.192C209.858 37.192 209.325 37.0907 208.791 36.888C208.258 36.6747 207.799 36.4133 207.415 36.104L208.279 34.92C208.631 35.1867 208.983 35.4 209.335 35.56C209.687 35.72 210.061 35.8 210.455 35.8C210.882 35.8 211.197 35.7093 211.399 35.528C211.602 35.3467 211.703 35.1227 211.703 34.856C211.703 34.632 211.618 34.4507 211.447 34.312C211.287 34.1627 211.079 34.0347 210.823 33.928C210.567 33.8107 210.301 33.6987 210.023 33.592C209.682 33.464 209.341 33.3093 208.999 33.128C208.669 32.936 208.397 32.696 208.183 32.408C207.97 32.1093 207.863 31.7413 207.863 31.304C207.863 30.6107 208.119 30.0453 208.631 29.608C209.143 29.1707 209.837 28.952 210.711 28.952C211.266 28.952 211.762 29.048 212.199 29.24C212.637 29.432 213.015 29.6507 213.335 29.896L212.487 31.016C212.21 30.8133 211.927 30.6533 211.639 30.536C211.362 30.408 211.069 30.344 210.759 30.344C210.365 30.344 210.071 30.4293 209.879 30.6C209.687 30.76 209.591 30.9627 209.591 31.208C209.591 31.5173 209.751 31.752 210.071 31.912C210.391 32.072 210.765 32.2267 211.191 32.376C211.554 32.504 211.906 32.664 212.247 32.856C212.589 33.0373 212.871 33.2773 213.095 33.576C213.33 33.8747 213.447 34.2693 213.447 34.76C213.447 35.432 213.186 36.008 212.663 36.488C212.141 36.9573 211.383 37.192 210.391 37.192ZM218.45 37.192C217.725 37.192 217.069 37.032 216.482 36.712C215.895 36.3813 215.431 35.912 215.09 35.304C214.749 34.6853 214.578 33.944 214.578 33.08C214.578 32.2267 214.749 31.4907 215.09 30.872C215.442 30.2533 215.895 29.7787 216.45 29.448C217.005 29.1173 217.586 28.952 218.194 28.952C218.909 28.952 219.506 29.112 219.986 29.432C220.466 29.7413 220.829 30.1787 221.074 30.744C221.319 31.2987 221.442 31.944 221.442 32.68C221.442 33.064 221.415 33.3627 221.362 33.576H216.37C216.455 34.2693 216.706 34.808 217.122 35.192C217.538 35.576 218.061 35.768 218.69 35.768C219.031 35.768 219.346 35.72 219.634 35.624C219.933 35.5173 220.226 35.3733 220.514 35.192L221.138 36.344C220.765 36.5893 220.349 36.792 219.89 36.952C219.431 37.112 218.951 37.192 218.45 37.192ZM216.354 32.328H219.842C219.842 31.72 219.709 31.2453 219.442 30.904C219.175 30.552 218.775 30.376 218.242 30.376C217.783 30.376 217.373 30.5467 217.01 30.888C216.658 31.2187 216.439 31.6987 216.354 32.328ZM225.811 37.192C224.904 37.192 224.259 36.9307 223.875 36.408C223.502 35.8747 223.315 35.1867 223.315 34.344V30.6H222.195V29.224L223.411 29.144L223.635 27H225.171V29.144H227.171V30.6H225.171V34.344C225.171 35.2613 225.539 35.72 226.275 35.72C226.414 35.72 226.558 35.704 226.707 35.672C226.856 35.6293 226.984 35.5867 227.091 35.544L227.411 36.904C227.198 36.9787 226.952 37.0427 226.675 37.096C226.408 37.16 226.12 37.192 225.811 37.192Z" fill="#232A3D"/>
<rect x="9.5" y="105.5" width="48" height="39" fill="url(#paint1_linear_2_53)" fill-opacity="0.2" stroke="#9B51E0"/>
<rect x="201.5" y="105.5" width="48" height="39" fill="url(#paint2_linear_2_53)" fill-opacity="0.2" stroke="#9B51E0"/>
<rect x="105.5" y="105.5" width="48" height="39" fill="url(#paint3_linear_2_53)" fill-opacity="0.2" stroke="#9B51E0"/>
<rect x="297.5" y="105.5" width="48" height="39" fill="url(#paint4_linear_2_53)" fill-opacity="0.2" stroke="#9B51E0"/>
<rect x="57.5" y="105.5" width="48" height="39" fill="url(#paint5_linear_2_53)" fill-opacity="0.2" stroke="#9B51E0"/>
<rect x="249.5" y="105.5" width="48" height="39" fill="url(#paint6_linear_2_53)" fill-opacity="0.2" stroke="#9B51E0"/>
<rect x="153.5" y="105.5" width="48" height="39" fill="url(#paint7_linear_2_53)" fill-opacity="0.2" stroke="#9B51E0"/>
<rect x="345.5" y="105.5" width="48" height="39" fill="url(#paint8_linear_2_53)" fill-opacity="0.2" stroke="#9B51E0"/>
<rect x="57.5" y="155.5" width="336" height="39" fill="url(#paint9_linear_2_53)" fill-opacity="0.2" stroke="#209766"/>
<rect x="9.5" y="313.5" width="336" height="39" fill="url(#paint10_linear_2_53)" fill-opacity="0.2" stroke="#209766"/>
<rect x="105.5" y="205.5" width="288" height="39" fill="url(#paint11_linear_2_53)" fill-opacity="0.2" stroke="#209766"/>
<rect x="9.5" y="155.5" width="48" height="39" fill="url(#paint12_linear_2_53)" fill-opacity="0.2" stroke="#1F69FF"/>
<rect x="345.5" y="313.5" width="48" height="39" fill="url(#paint13_linear_2_53)" fill-opacity="0.2" stroke="#1F69FF"/>
<rect x="9.5" y="205.5" width="48" height="39" fill="url(#paint14_linear_2_53)" fill-opacity="0.2" stroke="#209766"/>
<rect x="57.5" y="205.5" width="48" height="39" fill="url(#paint15_linear_2_53)" fill-opacity="0.2" stroke="#1F69FF"/>
<path d="M200.729 179V170.104H197.705V168.536H205.609V170.104H202.585V179H200.729ZM206.488 179V171.144H208.008L208.136 172.536H208.2C208.478 172.024 208.814 171.635 209.208 171.368C209.603 171.091 210.008 170.952 210.424 170.952C210.798 170.952 211.096 171.005 211.32 171.112L211 172.712C210.862 172.669 210.734 172.637 210.616 172.616C210.499 172.595 210.355 172.584 210.184 172.584C209.875 172.584 209.55 172.707 209.208 172.952C208.867 173.187 208.574 173.603 208.328 174.2V179H206.488ZM213.939 179.192C213.257 179.192 212.697 178.979 212.259 178.552C211.833 178.125 211.619 177.571 211.619 176.888C211.619 176.045 211.987 175.395 212.723 174.936C213.459 174.467 214.633 174.147 216.243 173.976C216.233 173.56 216.121 173.203 215.907 172.904C215.705 172.595 215.337 172.44 214.803 172.44C214.419 172.44 214.041 172.515 213.667 172.664C213.305 172.813 212.947 172.995 212.595 173.208L211.923 171.976C212.361 171.699 212.851 171.459 213.395 171.256C213.95 171.053 214.537 170.952 215.155 170.952C216.137 170.952 216.867 171.245 217.347 171.832C217.838 172.408 218.083 173.245 218.083 174.344V179H216.563L216.435 178.136H216.371C216.019 178.435 215.641 178.685 215.235 178.888C214.841 179.091 214.409 179.192 213.939 179.192ZM214.531 177.752C214.851 177.752 215.139 177.677 215.395 177.528C215.662 177.368 215.945 177.155 216.243 176.888V175.128C215.177 175.267 214.435 175.475 214.019 175.752C213.603 176.019 213.395 176.349 213.395 176.744C213.395 177.096 213.502 177.352 213.715 177.512C213.929 177.672 214.201 177.752 214.531 177.752ZM220.285 179V171.144H222.125V179H220.285ZM221.213 169.768C220.883 169.768 220.616 169.672 220.413 169.48C220.211 169.288 220.109 169.032 220.109 168.712C220.109 168.403 220.211 168.152 220.413 167.96C220.616 167.768 220.883 167.672 221.213 167.672C221.544 167.672 221.811 167.768 222.013 167.96C222.216 168.152 222.317 168.403 222.317 168.712C222.317 169.032 222.216 169.288 222.013 169.48C221.811 169.672 221.544 169.768 221.213 169.768ZM224.473 179V171.144H225.993L226.121 172.2H226.185C226.537 171.859 226.921 171.565 227.337 171.32C227.753 171.075 228.227 170.952 228.761 170.952C229.603 170.952 230.217 171.224 230.601 171.768C230.985 172.312 231.177 173.08 231.177 174.072V179H229.337V174.312C229.337 173.661 229.241 173.203 229.049 172.936C228.857 172.669 228.542 172.536 228.105 172.536C227.763 172.536 227.459 172.621 227.193 172.792C226.937 172.952 226.643 173.192 226.313 173.512V179H224.473ZM233.426 179V171.144H235.266V179H233.426ZM234.354 169.768C234.023 169.768 233.756 169.672 233.554 169.48C233.351 169.288 233.25 169.032 233.25 168.712C233.25 168.403 233.351 168.152 233.554 167.96C233.756 167.768 234.023 167.672 234.354 167.672C234.684 167.672 234.951 167.768 235.154 167.96C235.356 168.152 235.458 168.403 235.458 168.712C235.458 169.032 235.356 169.288 235.154 169.48C234.951 169.672 234.684 169.768 234.354 169.768ZM237.613 179V171.144H239.133L239.261 172.2H239.325C239.677 171.859 240.061 171.565 240.477 171.32C240.893 171.075 241.368 170.952 241.901 170.952C242.744 170.952 243.357 171.224 243.741 171.768C244.125 172.312 244.317 173.08 244.317 174.072V179H242.477V174.312C242.477 173.661 242.381 173.203 242.189 172.936C241.997 172.669 241.683 172.536 241.245 172.536C240.904 172.536 240.6 172.621 240.333 172.792C240.077 172.952 239.784 173.192 239.453 173.512V179H237.613ZM249.302 182.472C248.684 182.472 248.124 182.397 247.622 182.248C247.132 182.099 246.742 181.869 246.454 181.56C246.177 181.261 246.038 180.883 246.038 180.424C246.038 179.773 246.412 179.213 247.158 178.744V178.68C246.956 178.552 246.785 178.381 246.646 178.168C246.518 177.955 246.454 177.688 246.454 177.368C246.454 177.059 246.54 176.781 246.71 176.536C246.892 176.28 247.094 176.072 247.318 175.912V175.848C247.052 175.645 246.812 175.363 246.598 175C246.396 174.637 246.294 174.227 246.294 173.768C246.294 173.16 246.438 172.648 246.726 172.232C247.014 171.816 247.393 171.501 247.862 171.288C248.342 171.064 248.854 170.952 249.398 170.952C249.612 170.952 249.814 170.973 250.006 171.016C250.209 171.048 250.39 171.091 250.55 171.144H253.366V172.504H251.926C252.054 172.653 252.161 172.845 252.246 173.08C252.332 173.304 252.374 173.555 252.374 173.832C252.374 174.408 252.241 174.899 251.974 175.304C251.708 175.699 251.35 175.997 250.902 176.2C250.454 176.403 249.953 176.504 249.398 176.504C249.228 176.504 249.052 176.488 248.87 176.456C248.689 176.424 248.508 176.371 248.326 176.296C248.209 176.403 248.113 176.509 248.038 176.616C247.974 176.723 247.942 176.867 247.942 177.048C247.942 177.272 248.033 177.448 248.214 177.576C248.406 177.704 248.742 177.768 249.222 177.768H250.614C251.564 177.768 252.278 177.923 252.758 178.232C253.249 178.531 253.494 179.021 253.494 179.704C253.494 180.216 253.324 180.68 252.982 181.096C252.641 181.523 252.156 181.859 251.526 182.104C250.897 182.349 250.156 182.472 249.302 182.472ZM249.398 175.352C249.772 175.352 250.092 175.213 250.358 174.936C250.625 174.659 250.758 174.269 250.758 173.768C250.758 173.277 250.625 172.899 250.358 172.632C250.102 172.355 249.782 172.216 249.398 172.216C249.014 172.216 248.689 172.349 248.422 172.616C248.156 172.883 248.022 173.267 248.022 173.768C248.022 174.269 248.156 174.659 248.422 174.936C248.689 175.213 249.014 175.352 249.398 175.352ZM249.59 181.272C250.22 181.272 250.732 181.144 251.126 180.888C251.521 180.632 251.718 180.339 251.718 180.008C251.718 179.699 251.596 179.491 251.35 179.384C251.116 179.277 250.774 179.224 250.326 179.224H249.254C248.828 179.224 248.47 179.187 248.182 179.112C247.777 179.421 247.574 179.768 247.574 180.152C247.574 180.504 247.756 180.776 248.118 180.968C248.481 181.171 248.972 181.272 249.59 181.272Z" fill="#232A3D"/>
<path d="M152.729 337V328.104H149.705V326.536H157.609V328.104H154.585V337H152.729ZM158.488 337V329.144H160.008L160.136 330.536H160.2C160.478 330.024 160.814 329.635 161.208 329.368C161.603 329.091 162.008 328.952 162.424 328.952C162.798 328.952 163.096 329.005 163.32 329.112L163 330.712C162.862 330.669 162.734 330.637 162.616 330.616C162.499 330.595 162.355 330.584 162.184 330.584C161.875 330.584 161.55 330.707 161.208 330.952C160.867 331.187 160.574 331.603 160.328 332.2V337H158.488ZM165.939 337.192C165.257 337.192 164.697 336.979 164.259 336.552C163.833 336.125 163.619 335.571 163.619 334.888C163.619 334.045 163.987 333.395 164.723 332.936C165.459 332.467 166.633 332.147 168.243 331.976C168.233 331.56 168.121 331.203 167.907 330.904C167.705 330.595 167.337 330.44 166.803 330.44C166.419 330.44 166.041 330.515 165.667 330.664C165.305 330.813 164.947 330.995 164.595 331.208L163.923 329.976C164.361 329.699 164.851 329.459 165.395 329.256C165.95 329.053 166.537 328.952 167.155 328.952C168.137 328.952 168.867 329.245 169.347 329.832C169.838 330.408 170.083 331.245 170.083 332.344V337H168.563L168.435 336.136H168.371C168.019 336.435 167.641 336.685 167.235 336.888C166.841 337.091 166.409 337.192 165.939 337.192ZM166.531 335.752C166.851 335.752 167.139 335.677 167.395 335.528C167.662 335.368 167.945 335.155 168.243 334.888V333.128C167.177 333.267 166.435 333.475 166.019 333.752C165.603 334.019 165.395 334.349 165.395 334.744C165.395 335.096 165.502 335.352 165.715 335.512C165.929 335.672 166.201 335.752 166.531 335.752ZM172.285 337V329.144H174.125V337H172.285ZM173.213 327.768C172.883 327.768 172.616 327.672 172.413 327.48C172.211 327.288 172.109 327.032 172.109 326.712C172.109 326.403 172.211 326.152 172.413 325.96C172.616 325.768 172.883 325.672 173.213 325.672C173.544 325.672 173.811 325.768 174.013 325.96C174.216 326.152 174.317 326.403 174.317 326.712C174.317 327.032 174.216 327.288 174.013 327.48C173.811 327.672 173.544 327.768 173.213 327.768ZM176.473 337V329.144H177.993L178.121 330.2H178.185C178.537 329.859 178.921 329.565 179.337 329.32C179.753 329.075 180.227 328.952 180.761 328.952C181.603 328.952 182.217 329.224 182.601 329.768C182.985 330.312 183.177 331.08 183.177 332.072V337H181.337V332.312C181.337 331.661 181.241 331.203 181.049 330.936C180.857 330.669 180.542 330.536 180.105 330.536C179.763 330.536 179.459 330.621 179.193 330.792C178.937 330.952 178.643 331.192 178.313 331.512V337H176.473ZM185.426 337V329.144H187.266V337H185.426ZM186.354 327.768C186.023 327.768 185.756 327.672 185.554 327.48C185.351 327.288 185.25 327.032 185.25 326.712C185.25 326.403 185.351 326.152 185.554 325.96C185.756 325.768 186.023 325.672 186.354 325.672C186.684 325.672 186.951 325.768 187.154 325.96C187.356 326.152 187.458 326.403 187.458 326.712C187.458 327.032 187.356 327.288 187.154 327.48C186.951 327.672 186.684 327.768 186.354 327.768ZM189.613 337V329.144H191.133L191.261 330.2H191.325C191.677 329.859 192.061 329.565 192.477 329.32C192.893 329.075 193.368 328.952 193.901 328.952C194.744 328.952 195.357 329.224 195.741 329.768C196.125 330.312 196.317 331.08 196.317 332.072V337H194.477V332.312C194.477 331.661 194.381 331.203 194.189 330.936C193.997 330.669 193.683 330.536 193.245 330.536C192.904 330.536 192.6 330.621 192.333 330.792C192.077 330.952 191.784 331.192 191.453 331.512V337H189.613ZM201.302 340.472C200.684 340.472 200.124 340.397 199.622 340.248C199.132 340.099 198.742 339.869 198.454 339.56C198.177 339.261 198.038 338.883 198.038 338.424C198.038 337.773 198.412 337.213 199.158 336.744V336.68C198.956 336.552 198.785 336.381 198.646 336.168C198.518 335.955 198.454 335.688 198.454 335.368C198.454 335.059 198.54 334.781 198.71 334.536C198.892 334.28 199.094 334.072 199.318 333.912V333.848C199.052 333.645 198.812 333.363 198.598 333C198.396 332.637 198.294 332.227 198.294 331.768C198.294 331.16 198.438 330.648 198.726 330.232C199.014 329.816 199.393 329.501 199.862 329.288C200.342 329.064 200.854 328.952 201.398 328.952C201.612 328.952 201.814 328.973 202.006 329.016C202.209 329.048 202.39 329.091 202.55 329.144H205.366V330.504H203.926C204.054 330.653 204.161 330.845 204.246 331.08C204.332 331.304 204.374 331.555 204.374 331.832C204.374 332.408 204.241 332.899 203.974 333.304C203.708 333.699 203.35 333.997 202.902 334.2C202.454 334.403 201.953 334.504 201.398 334.504C201.228 334.504 201.052 334.488 200.87 334.456C200.689 334.424 200.508 334.371 200.326 334.296C200.209 334.403 200.113 334.509 200.038 334.616C199.974 334.723 199.942 334.867 199.942 335.048C199.942 335.272 200.033 335.448 200.214 335.576C200.406 335.704 200.742 335.768 201.222 335.768H202.614C203.564 335.768 204.278 335.923 204.758 336.232C205.249 336.531 205.494 337.021 205.494 337.704C205.494 338.216 205.324 338.68 204.982 339.096C204.641 339.523 204.156 339.859 203.526 340.104C202.897 340.349 202.156 340.472 201.302 340.472ZM201.398 333.352C201.772 333.352 202.092 333.213 202.358 332.936C202.625 332.659 202.758 332.269 202.758 331.768C202.758 331.277 202.625 330.899 202.358 330.632C202.102 330.355 201.782 330.216 201.398 330.216C201.014 330.216 200.689 330.349 200.422 330.616C200.156 330.883 200.022 331.267 200.022 331.768C200.022 332.269 200.156 332.659 200.422 332.936C200.689 333.213 201.014 333.352 201.398 333.352ZM201.59 339.272C202.22 339.272 202.732 339.144 203.126 338.888C203.521 338.632 203.718 338.339 203.718 338.008C203.718 337.699 203.596 337.491 203.35 337.384C203.116 337.277 202.774 337.224 202.326 337.224H201.254C200.828 337.224 200.47 337.187 200.182 337.112C199.777 337.421 199.574 337.768 199.574 338.152C199.574 338.504 199.756 338.776 200.118 338.968C200.481 339.171 200.972 339.272 201.59 339.272Z" fill="#232A3D"/>
<path d="M22.9088 179V170.104H19.8848V168.536H27.7888V170.104H24.7648V179H22.9088ZM31.5905 179.192C30.8652 179.192 30.2092 179.032 29.6225 178.712C29.0358 178.381 28.5718 177.912 28.2305 177.304C27.8892 176.685 27.7185 175.944 27.7185 175.08C27.7185 174.227 27.8892 173.491 28.2305 172.872C28.5825 172.253 29.0358 171.779 29.5905 171.448C30.1452 171.117 30.7265 170.952 31.3345 170.952C32.0492 170.952 32.6465 171.112 33.1265 171.432C33.6065 171.741 33.9692 172.179 34.2145 172.744C34.4598 173.299 34.5825 173.944 34.5825 174.68C34.5825 175.064 34.5558 175.363 34.5025 175.576H29.5105C29.5958 176.269 29.8465 176.808 30.2625 177.192C30.6785 177.576 31.2012 177.768 31.8305 177.768C32.1718 177.768 32.4865 177.72 32.7745 177.624C33.0732 177.517 33.3665 177.373 33.6545 177.192L34.2785 178.344C33.9052 178.589 33.4892 178.792 33.0305 178.952C32.5718 179.112 32.0918 179.192 31.5905 179.192ZM29.4945 174.328H32.9825C32.9825 173.72 32.8492 173.245 32.5825 172.904C32.3158 172.552 31.9158 172.376 31.3825 172.376C30.9238 172.376 30.5132 172.547 30.1505 172.888C29.7985 173.219 29.5798 173.699 29.4945 174.328ZM38.5319 179.192C37.9985 179.192 37.4652 179.091 36.9319 178.888C36.3985 178.675 35.9399 178.413 35.5559 178.104L36.4199 176.92C36.7719 177.187 37.1239 177.4 37.4759 177.56C37.8279 177.72 38.2012 177.8 38.5959 177.8C39.0225 177.8 39.3372 177.709 39.5399 177.528C39.7425 177.347 39.8439 177.123 39.8439 176.856C39.8439 176.632 39.7585 176.451 39.5879 176.312C39.4279 176.163 39.2199 176.035 38.9639 175.928C38.7079 175.811 38.4412 175.699 38.1639 175.592C37.8225 175.464 37.4812 175.309 37.1399 175.128C36.8092 174.936 36.5372 174.696 36.3239 174.408C36.1105 174.109 36.0039 173.741 36.0039 173.304C36.0039 172.611 36.2599 172.045 36.7719 171.608C37.2839 171.171 37.9772 170.952 38.8519 170.952C39.4065 170.952 39.9025 171.048 40.3399 171.24C40.7772 171.432 41.1559 171.651 41.4759 171.896L40.6279 173.016C40.3505 172.813 40.0679 172.653 39.7799 172.536C39.5025 172.408 39.2092 172.344 38.8999 172.344C38.5052 172.344 38.2119 172.429 38.0199 172.6C37.8279 172.76 37.7319 172.963 37.7319 173.208C37.7319 173.517 37.8919 173.752 38.2119 173.912C38.5319 174.072 38.9052 174.227 39.3319 174.376C39.6945 174.504 40.0465 174.664 40.3879 174.856C40.7292 175.037 41.0119 175.277 41.2359 175.576C41.4705 175.875 41.5879 176.269 41.5879 176.76C41.5879 177.432 41.3265 178.008 40.8039 178.488C40.2812 178.957 39.5239 179.192 38.5319 179.192ZM45.686 179.192C44.7793 179.192 44.134 178.931 43.75 178.408C43.3767 177.875 43.19 177.187 43.19 176.344V172.6H42.07V171.224L43.286 171.144L43.51 169H45.046V171.144H47.046V172.6H45.046V176.344C45.046 177.261 45.414 177.72 46.15 177.72C46.2887 177.72 46.4327 177.704 46.582 177.672C46.7313 177.629 46.8593 177.587 46.966 177.544L47.286 178.904C47.0727 178.979 46.8273 179.043 46.55 179.096C46.2833 179.16 45.9953 179.192 45.686 179.192Z" fill="#232A3D"/>
<path d="M358.909 337V328.104H355.885V326.536H363.789V328.104H360.765V337H358.909ZM367.591 337.192C366.865 337.192 366.209 337.032 365.623 336.712C365.036 336.381 364.572 335.912 364.231 335.304C363.889 334.685 363.719 333.944 363.719 333.08C363.719 332.227 363.889 331.491 364.231 330.872C364.583 330.253 365.036 329.779 365.591 329.448C366.145 329.117 366.727 328.952 367.335 328.952C368.049 328.952 368.647 329.112 369.127 329.432C369.607 329.741 369.969 330.179 370.215 330.744C370.46 331.299 370.583 331.944 370.583 332.68C370.583 333.064 370.556 333.363 370.503 333.576H365.511C365.596 334.269 365.847 334.808 366.263 335.192C366.679 335.576 367.201 335.768 367.831 335.768C368.172 335.768 368.487 335.72 368.775 335.624C369.073 335.517 369.367 335.373 369.655 335.192L370.279 336.344C369.905 336.589 369.489 336.792 369.031 336.952C368.572 337.112 368.092 337.192 367.591 337.192ZM365.495 332.328H368.983C368.983 331.72 368.849 331.245 368.583 330.904C368.316 330.552 367.916 330.376 367.383 330.376C366.924 330.376 366.513 330.547 366.151 330.888C365.799 331.219 365.58 331.699 365.495 332.328ZM374.532 337.192C373.999 337.192 373.465 337.091 372.932 336.888C372.399 336.675 371.94 336.413 371.556 336.104L372.42 334.92C372.772 335.187 373.124 335.4 373.476 335.56C373.828 335.72 374.201 335.8 374.596 335.8C375.023 335.8 375.337 335.709 375.54 335.528C375.743 335.347 375.844 335.123 375.844 334.856C375.844 334.632 375.759 334.451 375.588 334.312C375.428 334.163 375.22 334.035 374.964 333.928C374.708 333.811 374.441 333.699 374.164 333.592C373.823 333.464 373.481 333.309 373.14 333.128C372.809 332.936 372.537 332.696 372.324 332.408C372.111 332.109 372.004 331.741 372.004 331.304C372.004 330.611 372.26 330.045 372.772 329.608C373.284 329.171 373.977 328.952 374.852 328.952C375.407 328.952 375.903 329.048 376.34 329.24C376.777 329.432 377.156 329.651 377.476 329.896L376.628 331.016C376.351 330.813 376.068 330.653 375.78 330.536C375.503 330.408 375.209 330.344 374.9 330.344C374.505 330.344 374.212 330.429 374.02 330.6C373.828 330.76 373.732 330.963 373.732 331.208C373.732 331.517 373.892 331.752 374.212 331.912C374.532 332.072 374.905 332.227 375.332 332.376C375.695 332.504 376.047 332.664 376.388 332.856C376.729 333.037 377.012 333.277 377.236 333.576C377.471 333.875 377.588 334.269 377.588 334.76C377.588 335.432 377.327 336.008 376.804 336.488C376.281 336.957 375.524 337.192 374.532 337.192ZM381.686 337.192C380.779 337.192 380.134 336.931 379.75 336.408C379.377 335.875 379.19 335.187 379.19 334.344V330.6H378.07V329.224L379.286 329.144L379.51 327H381.046V329.144H383.046V330.6H381.046V334.344C381.046 335.261 381.414 335.72 382.15 335.72C382.289 335.72 382.433 335.704 382.582 335.672C382.731 335.629 382.859 335.587 382.966 335.544L383.286 336.904C383.073 336.979 382.827 337.043 382.55 337.096C382.283 337.16 381.995 337.192 381.686 337.192Z" fill="#232A3D"/>
<path opacity="0.5" d="M33.2929 94.2071C33.6834 94.5976 34.3166 94.5976 34.7071 94.2071L41.0711 87.8431C41.4616 87.4526 41.4616 86.8195 41.0711 86.4289C40.6805 86.0384 40.0474 86.0384 39.6569 86.4289L34 92.0858L28.3431 86.4289C27.9526 86.0384 27.3195 86.0384 26.9289 86.4289C26.5384 86.8195 26.5384 87.4526 26.9289 87.8431L33.2929 94.2071ZM33 62.5V93.5H35V62.5H33Z" fill="url(#paint16_linear_2_53)"/>
<path opacity="0.5" d="M81.2929 94.2071C81.6834 94.5976 82.3166 94.5976 82.7071 94.2071L89.0711 87.8431C89.4616 87.4526 89.4616 86.8195 89.0711 86.4289C88.6805 86.0384 88.0474 86.0384 87.6569 86.4289L82 92.0858L76.3431 86.4289C75.9526 86.0384 75.3195 86.0384 74.9289 86.4289C74.5384 86.8195 74.5384 87.4526 74.9289 87.8431L81.2929 94.2071ZM81 62.5V93.5H83V62.5H81Z" fill="url(#paint17_linear_2_53)"/>
<path opacity="0.5" d="M129.293 94.2071C129.683 94.5976 130.317 94.5976 130.707 94.2071L137.071 87.8431C137.462 87.4526 137.462 86.8195 137.071 86.4289C136.681 86.0384 136.047 86.0384 135.657 86.4289L130 92.0858L124.343 86.4289C123.953 86.0384 123.319 86.0384 122.929 86.4289C122.538 86.8195 122.538 87.4526 122.929 87.8431L129.293 94.2071ZM129 62.5V93.5H131V62.5H129Z" fill="url(#paint18_linear_2_53)"/>
<path opacity="0.5" d="M177.293 94.2071C177.683 94.5976 178.317 94.5976 178.707 94.2071L185.071 87.8431C185.462 87.4526 185.462 86.8195 185.071 86.4289C184.681 86.0384 184.047 86.0384 183.657 86.4289L178 92.0858L172.343 86.4289C171.953 86.0384 171.319 86.0384 170.929 86.4289C170.538 86.8195 170.538 87.4526 170.929 87.8431L177.293 94.2071ZM177 62.5V93.5H179V62.5H177Z" fill="url(#paint19_linear_2_53)"/>
<path opacity="0.5" d="M225.293 94.2071C225.683 94.5976 226.317 94.5976 226.707 94.2071L233.071 87.8431C233.462 87.4526 233.462 86.8195 233.071 86.4289C232.681 86.0384 232.047 86.0384 231.657 86.4289L226 92.0858L220.343 86.4289C219.953 86.0384 219.319 86.0384 218.929 86.4289C218.538 86.8195 218.538 87.4526 218.929 87.8431L225.293 94.2071ZM225 62.5V93.5H227V62.5H225Z" fill="url(#paint20_linear_2_53)"/>
<path opacity="0.5" d="M225.293 94.7071C225.683 95.0976 226.317 95.0976 226.707 94.7071L233.071 88.3431C233.462 87.9526 233.462 87.3195 233.071 86.9289C232.681 86.5384 232.047 86.5384 231.657 86.9289L226 92.5858L220.343 86.9289C219.953 86.5384 219.319 86.5384 218.929 86.9289C218.538 87.3195 218.538 87.9526 218.929 88.3431L225.293 94.7071ZM225 63V94H227V63H225Z" fill="url(#paint21_linear_2_53)"/>
<path opacity="0.5" d="M273.293 94.2071C273.683 94.5976 274.317 94.5976 274.707 94.2071L281.071 87.8431C281.462 87.4526 281.462 86.8195 281.071 86.4289C280.681 86.0384 280.047 86.0384 279.657 86.4289L274 92.0858L268.343 86.4289C267.953 86.0384 267.319 86.0384 266.929 86.4289C266.538 86.8195 266.538 87.4526 266.929 87.8431L273.293 94.2071ZM273 62.5V93.5H275V62.5H273Z" fill="url(#paint22_linear_2_53)"/>
<path opacity="0.5" d="M321.293 94.2071C321.683 94.5976 322.317 94.5976 322.707 94.2071L329.071 87.8431C329.462 87.4526 329.462 86.8195 329.071 86.4289C328.681 86.0384 328.047 86.0384 327.657 86.4289L322 92.0858L316.343 86.4289C315.953 86.0384 315.319 86.0384 314.929 86.4289C314.538 86.8195 314.538 87.4526 314.929 87.8431L321.293 94.2071ZM321 62.5V93.5H323V62.5H321Z" fill="url(#paint23_linear_2_53)"/>
<path opacity="0.5" d="M368.293 94.2071C368.683 94.5976 369.317 94.5976 369.707 94.2071L376.071 87.8431C376.462 87.4526 376.462 86.8195 376.071 86.4289C375.681 86.0384 375.047 86.0384 374.657 86.4289L369 92.0858L363.343 86.4289C362.953 86.0384 362.319 86.0384 361.929 86.4289C361.538 86.8195 361.538 87.4526 361.929 87.8431L368.293 94.2071ZM368 62.5V93.5H370V62.5H368Z" fill="url(#paint24_linear_2_53)"/>
<rect opacity="0.6" x="29" y="258" width="10" height="10" fill="#209766"/>
<rect opacity="0.6" x="77" y="258" width="10" height="10" fill="#1F69FF"/>
<rect opacity="0.6" x="365" y="258" width="10" height="10" fill="#1F69FF"/>
<rect opacity="0.2" x="29" y="286" width="10" height="10" fill="#209766"/>
<rect opacity="0.2" x="77" y="286" width="10" height="10" fill="#1F69FF"/>
<rect opacity="0.2" x="365" y="286" width="10" height="10" fill="#1F69FF"/>
<rect opacity="0.4" x="29" y="272" width="10" height="10" fill="#209766"/>
<rect opacity="0.4" x="77" y="272" width="10" height="10" fill="#1F69FF"/>
<rect opacity="0.4" x="365" y="272" width="10" height="10" fill="#1F69FF"/>
<path fill-rule="evenodd" clip-rule="evenodd" d="M421.25 114.25C422.568 114.248 423.874 114.515 425.086 115.034C426.299 115.553 427.394 116.313 428.303 117.269L428.316 117.282L429.808 119.017L428.67 119.995L427.204 118.289C426.437 117.488 425.516 116.849 424.496 116.413C423.471 115.974 422.367 115.748 421.251 115.75L421.25 115.75H421.25C416.695 115.75 413 119.445 413 124C413 128.554 416.695 132.25 421.25 132.25M421.25 114.25C415.867 114.25 411.5 118.617 411.5 124C411.5 129.383 415.867 133.75 421.25 133.75H421.25C423.267 133.75 425.233 133.125 426.88 131.961C428.527 130.797 429.772 129.151 430.445 127.25L430.695 126.543L429.281 126.043L429.031 126.75C428.461 128.358 427.407 129.751 426.014 130.736C424.621 131.721 422.956 132.25 421.25 132.25" fill="#232A3D"/>
<path d="M431.75 115.208V122.312C431.75 122.362 431.73 122.41 431.695 122.445C431.66 122.48 431.612 122.5 431.562 122.5H424.459C424.421 122.5 424.385 122.489 424.354 122.468C424.323 122.447 424.299 122.418 424.285 122.384C424.271 122.35 424.267 122.312 424.275 122.276C424.282 122.239 424.3 122.206 424.326 122.179L431.43 115.076C431.456 115.049 431.489 115.031 431.526 115.024C431.562 115.017 431.6 115.021 431.634 115.035C431.669 115.049 431.698 115.073 431.718 115.104C431.739 115.135 431.75 115.171 431.75 115.208V115.208Z" fill="#232A3D"/>
<path d="M440.168 129V117.704H441.976V124.76H442.024L444.936 121.144H446.952L444.264 124.344L447.224 129H445.224L443.208 125.592L441.976 127V129H440.168ZM452.051 129V122.6H450.995V121.224L452.051 121.144V120.328C452.051 119.507 452.253 118.835 452.659 118.312C453.064 117.779 453.731 117.512 454.659 117.512C454.936 117.512 455.203 117.539 455.459 117.592C455.715 117.645 455.928 117.709 456.099 117.784L455.747 119.16C455.459 119.032 455.171 118.968 454.883 118.968C454.221 118.968 453.891 119.411 453.891 120.296V121.144H455.427V122.6H453.891V129H452.051ZM459.868 129.192C459.218 129.192 458.61 129.032 458.044 128.712C457.479 128.381 457.02 127.912 456.668 127.304C456.316 126.685 456.14 125.944 456.14 125.08C456.14 124.205 456.316 123.464 456.668 122.856C457.02 122.237 457.479 121.768 458.044 121.448C458.61 121.117 459.218 120.952 459.868 120.952C460.53 120.952 461.143 121.117 461.708 121.448C462.274 121.768 462.732 122.237 463.084 122.856C463.436 123.464 463.612 124.205 463.612 125.08C463.612 125.944 463.436 126.685 463.084 127.304C462.732 127.912 462.274 128.381 461.708 128.712C461.143 129.032 460.53 129.192 459.868 129.192ZM459.868 127.688C460.444 127.688 460.898 127.448 461.228 126.968C461.559 126.488 461.724 125.859 461.724 125.08C461.724 124.291 461.559 123.656 461.228 123.176C460.898 122.696 460.444 122.456 459.868 122.456C459.292 122.456 458.839 122.696 458.508 123.176C458.188 123.656 458.028 124.291 458.028 125.08C458.028 125.859 458.188 126.488 458.508 126.968C458.839 127.448 459.292 127.688 459.868 127.688ZM467.226 129.192C466.575 129.192 466.111 128.995 465.834 128.6C465.567 128.205 465.434 127.667 465.434 126.984V117.704H467.274V127.08C467.274 127.304 467.316 127.464 467.402 127.56C467.487 127.645 467.578 127.688 467.674 127.688C467.716 127.688 467.754 127.688 467.786 127.688C467.828 127.677 467.887 127.667 467.962 127.656L468.202 129.032C468.095 129.075 467.956 129.112 467.786 129.144C467.626 129.176 467.439 129.192 467.226 129.192ZM472.529 129.192C471.548 129.192 470.764 128.829 470.177 128.104C469.591 127.379 469.297 126.371 469.297 125.08C469.297 124.227 469.452 123.491 469.761 122.872C470.081 122.253 470.497 121.779 471.009 121.448C471.521 121.117 472.06 120.952 472.625 120.952C473.073 120.952 473.452 121.032 473.761 121.192C474.081 121.341 474.391 121.549 474.689 121.816L474.625 120.552V117.704H476.465V129H474.945L474.817 128.152H474.753C474.465 128.44 474.129 128.685 473.745 128.888C473.361 129.091 472.956 129.192 472.529 129.192ZM472.977 127.672C473.564 127.672 474.113 127.379 474.625 126.792V123.128C474.359 122.883 474.092 122.712 473.825 122.616C473.559 122.52 473.292 122.472 473.025 122.472C472.524 122.472 472.092 122.701 471.729 123.16C471.377 123.608 471.201 124.243 471.201 125.064C471.201 125.907 471.356 126.552 471.665 127C471.975 127.448 472.412 127.672 472.977 127.672ZM481.001 129.192C480.467 129.192 479.934 129.091 479.401 128.888C478.867 128.675 478.409 128.413 478.025 128.104L478.889 126.92C479.241 127.187 479.593 127.4 479.945 127.56C480.297 127.72 480.67 127.8 481.065 127.8C481.491 127.8 481.806 127.709 482.009 127.528C482.211 127.347 482.313 127.123 482.313 126.856C482.313 126.632 482.227 126.451 482.057 126.312C481.897 126.163 481.689 126.035 481.433 125.928C481.177 125.811 480.91 125.699 480.633 125.592C480.291 125.464 479.95 125.309 479.609 125.128C479.278 124.936 479.006 124.696 478.793 124.408C478.579 124.109 478.473 123.741 478.473 123.304C478.473 122.611 478.729 122.045 479.241 121.608C479.753 121.171 480.446 120.952 481.321 120.952C481.875 120.952 482.371 121.048 482.809 121.24C483.246 121.432 483.625 121.651 483.945 121.896L483.097 123.016C482.819 122.813 482.537 122.653 482.249 122.536C481.971 122.408 481.678 122.344 481.369 122.344C480.974 122.344 480.681 122.429 480.489 122.6C480.297 122.76 480.201 122.963 480.201 123.208C480.201 123.517 480.361 123.752 480.681 123.912C481.001 124.072 481.374 124.227 481.801 124.376C482.163 124.504 482.515 124.664 482.857 124.856C483.198 125.037 483.481 125.277 483.705 125.576C483.939 125.875 484.057 126.269 484.057 126.76C484.057 127.432 483.795 128.008 483.273 128.488C482.75 128.957 481.993 129.192 481.001 129.192Z" fill="#232A3D"/>
<defs>
<linearGradient id="paint0_linear_2_53" x1="201.5" y1="13" x2="201.5" y2="53" gradientUnits="userSpaceOnUse">
<stop stop-color="#9B51E0"/>
<stop offset="1" stop-color="#9B51E0" stop-opacity="0"/>
</linearGradient>
<linearGradient id="paint1_linear_2_53" x1="33.5" y1="105" x2="33.5" y2="145" gradientUnits="userSpaceOnUse">
<stop stop-color="#9B51E0"/>
<stop offset="1" stop-color="#9B51E0" stop-opacity="0"/>
</linearGradient>
<linearGradient id="paint2_linear_2_53" x1="225.5" y1="105" x2="225.5" y2="145" gradientUnits="userSpaceOnUse">
<stop stop-color="#9B51E0"/>
<stop offset="1" stop-color="#9B51E0" stop-opacity="0"/>
</linearGradient>
<linearGradient id="paint3_linear_2_53" x1="129.5" y1="105" x2="129.5" y2="145" gradientUnits="userSpaceOnUse">
<stop stop-color="#9B51E0"/>
<stop offset="1" stop-color="#9B51E0" stop-opacity="0"/>
</linearGradient>
<linearGradient id="paint4_linear_2_53" x1="321.5" y1="105" x2="321.5" y2="145" gradientUnits="userSpaceOnUse">
<stop stop-color="#9B51E0"/>
<stop offset="1" stop-color="#9B51E0" stop-opacity="0"/>
</linearGradient>
<linearGradient id="paint5_linear_2_53" x1="81.5" y1="105" x2="81.5" y2="145" gradientUnits="userSpaceOnUse">
<stop stop-color="#9B51E0"/>
<stop offset="1" stop-color="#9B51E0" stop-opacity="0"/>
</linearGradient>
<linearGradient id="paint6_linear_2_53" x1="273.5" y1="105" x2="273.5" y2="145" gradientUnits="userSpaceOnUse">
<stop stop-color="#9B51E0"/>
<stop offset="1" stop-color="#9B51E0" stop-opacity="0"/>
</linearGradient>
<linearGradient id="paint7_linear_2_53" x1="177.5" y1="105" x2="177.5" y2="145" gradientUnits="userSpaceOnUse">
<stop stop-color="#9B51E0"/>
<stop offset="1" stop-color="#9B51E0" stop-opacity="0"/>
</linearGradient>
<linearGradient id="paint8_linear_2_53" x1="369.5" y1="105" x2="369.5" y2="145" gradientUnits="userSpaceOnUse">
<stop stop-color="#9B51E0"/>
<stop offset="1" stop-color="#9B51E0" stop-opacity="0"/>
</linearGradient>
<linearGradient id="paint9_linear_2_53" x1="225.5" y1="155" x2="225.5" y2="195" gradientUnits="userSpaceOnUse">
<stop stop-color="#209766"/>
<stop offset="1" stop-color="#209766" stop-opacity="0.01"/>
</linearGradient>
<linearGradient id="paint10_linear_2_53" x1="177.5" y1="313" x2="177.5" y2="353" gradientUnits="userSpaceOnUse">
<stop stop-color="#209766"/>
<stop offset="1" stop-color="#209766" stop-opacity="0.01"/>
</linearGradient>
<linearGradient id="paint11_linear_2_53" x1="249.5" y1="205" x2="249.5" y2="245" gradientUnits="userSpaceOnUse">
<stop stop-color="#209766"/>
<stop offset="1" stop-color="#209766" stop-opacity="0.01"/>
</linearGradient>
<linearGradient id="paint12_linear_2_53" x1="33.5" y1="155" x2="33.5" y2="195" gradientUnits="userSpaceOnUse">
<stop stop-color="#1F69FF"/>
<stop offset="1" stop-color="#1F69FF" stop-opacity="0.02"/>
</linearGradient>
<linearGradient id="paint13_linear_2_53" x1="369.5" y1="313" x2="369.5" y2="353" gradientUnits="userSpaceOnUse">
<stop stop-color="#1F69FF"/>
<stop offset="1" stop-color="#1F69FF" stop-opacity="0.02"/>
</linearGradient>
<linearGradient id="paint14_linear_2_53" x1="33.5" y1="205" x2="33.5" y2="245" gradientUnits="userSpaceOnUse">
<stop stop-color="#209766"/>
<stop offset="1" stop-color="#209766" stop-opacity="0"/>
</linearGradient>
<linearGradient id="paint15_linear_2_53" x1="81.5" y1="205" x2="81.5" y2="245" gradientUnits="userSpaceOnUse">
<stop stop-color="#1F69FF"/>
<stop offset="1" stop-color="#1F69FF" stop-opacity="0.02"/>
</linearGradient>
<linearGradient id="paint16_linear_2_53" x1="34.5" y1="62.5" x2="34.5" y2="93.5" gradientUnits="userSpaceOnUse">
<stop stop-color="#9B51E0" stop-opacity="0"/>
<stop offset="1" stop-color="#9B51E0"/>
</linearGradient>
<linearGradient id="paint17_linear_2_53" x1="82.5" y1="62.5" x2="82.5" y2="93.5" gradientUnits="userSpaceOnUse">
<stop stop-color="#9B51E0" stop-opacity="0"/>
<stop offset="1" stop-color="#9B51E0"/>
</linearGradient>
<linearGradient id="paint18_linear_2_53" x1="130.5" y1="62.5" x2="130.5" y2="93.5" gradientUnits="userSpaceOnUse">
<stop stop-color="#9B51E0" stop-opacity="0"/>
<stop offset="1" stop-color="#9B51E0"/>
</linearGradient>
<linearGradient id="paint19_linear_2_53" x1="178.5" y1="62.5" x2="178.5" y2="93.5" gradientUnits="userSpaceOnUse">
<stop stop-color="#9B51E0" stop-opacity="0"/>
<stop offset="1" stop-color="#9B51E0"/>
</linearGradient>
<linearGradient id="paint20_linear_2_53" x1="226.5" y1="62.5" x2="226.5" y2="93.5" gradientUnits="userSpaceOnUse">
<stop stop-color="#9B51E0" stop-opacity="0"/>
<stop offset="1" stop-color="#9B51E0"/>
</linearGradient>
<linearGradient id="paint21_linear_2_53" x1="226.5" y1="63" x2="226.5" y2="94" gradientUnits="userSpaceOnUse">
<stop stop-color="#9B51E0" stop-opacity="0"/>
<stop offset="1" stop-color="#9B51E0"/>
</linearGradient>
<linearGradient id="paint22_linear_2_53" x1="274.5" y1="62.5" x2="274.5" y2="93.5" gradientUnits="userSpaceOnUse">
<stop stop-color="#9B51E0" stop-opacity="0"/>
<stop offset="1" stop-color="#9B51E0"/>
</linearGradient>
<linearGradient id="paint23_linear_2_53" x1="322.5" y1="62.5" x2="322.5" y2="93.5" gradientUnits="userSpaceOnUse">
<stop stop-color="#9B51E0" stop-opacity="0"/>
<stop offset="1" stop-color="#9B51E0"/>
</linearGradient>
<linearGradient id="paint24_linear_2_53" x1="369.5" y1="62.5" x2="369.5" y2="93.5" gradientUnits="userSpaceOnUse">
<stop stop-color="#9B51E0" stop-opacity="0"/>
<stop offset="1" stop-color="#9B51E0"/>
</linearGradient>
</defs>
</svg>
