<svg width="600" height="380" viewBox="0 0 600 380" fill="none" xmlns="http://www.w3.org/2000/svg">
<rect width="600" height="380" fill="white"/>
<path d="M124.59 75V61.92H126.91V73.04H132.35V75H124.59ZM134.429 75V65.18H136.729V75H134.429ZM135.589 63.46C135.175 63.46 134.842 63.34 134.589 63.1C134.335 62.86 134.209 62.54 134.209 62.14C134.209 61.7533 134.335 61.44 134.589 61.2C134.842 60.96 135.175 60.84 135.589 60.84C136.002 60.84 136.335 60.96 136.589 61.2C136.842 61.44 136.969 61.7533 136.969 62.14C136.969 62.54 136.842 62.86 136.589 63.1C136.335 63.34 136.002 63.46 135.589 63.46ZM139.663 75V65.18H141.563L141.723 66.5H141.803C142.243 66.0733 142.723 65.7067 143.243 65.4C143.763 65.0933 144.356 64.94 145.023 64.94C146.076 64.94 146.843 65.28 147.323 65.96C147.803 66.64 148.043 67.6 148.043 68.84V75H145.743V69.14C145.743 68.3267 145.623 67.7533 145.383 67.42C145.143 67.0867 144.75 66.92 144.203 66.92C143.776 66.92 143.396 67.0267 143.063 67.24C142.743 67.44 142.376 67.74 141.963 68.14V75H139.663ZM155.055 75.24C154.148 75.24 153.328 75.04 152.595 74.64C151.861 74.2267 151.281 73.64 150.855 72.88C150.428 72.1067 150.215 71.18 150.215 70.1C150.215 69.0333 150.428 68.1133 150.855 67.34C151.295 66.5667 151.861 65.9733 152.555 65.56C153.248 65.1467 153.975 64.94 154.735 64.94C155.628 64.94 156.375 65.14 156.975 65.54C157.575 65.9267 158.028 66.4733 158.335 67.18C158.641 67.8733 158.795 68.68 158.795 69.6C158.795 70.08 158.761 70.4533 158.695 70.72H152.455C152.561 71.5867 152.875 72.26 153.395 72.74C153.915 73.22 154.568 73.46 155.355 73.46C155.781 73.46 156.175 73.4 156.535 73.28C156.908 73.1467 157.275 72.9667 157.635 72.74L158.415 74.18C157.948 74.4867 157.428 74.74 156.855 74.94C156.281 75.14 155.681 75.24 155.055 75.24ZM152.435 69.16H156.795C156.795 68.4 156.628 67.8067 156.295 67.38C155.961 66.94 155.461 66.72 154.795 66.72C154.221 66.72 153.708 66.9333 153.255 67.36C152.815 67.7733 152.541 68.3733 152.435 69.16ZM163.137 75.24C162.284 75.24 161.584 74.9733 161.037 74.44C160.504 73.9067 160.237 73.2133 160.237 72.36C160.237 71.3067 160.697 70.4933 161.617 69.92C162.537 69.3333 164.004 68.9333 166.017 68.72C166.004 68.2 165.864 67.7533 165.597 67.38C165.344 66.9933 164.884 66.8 164.217 66.8C163.737 66.8 163.264 66.8933 162.797 67.08C162.344 67.2667 161.897 67.4933 161.457 67.76L160.617 66.22C161.164 65.8733 161.777 65.5733 162.457 65.32C163.15 65.0667 163.884 64.94 164.657 64.94C165.884 64.94 166.797 65.3067 167.397 66.04C168.01 66.76 168.317 67.8067 168.317 69.18V75H166.417L166.257 73.92H166.177C165.737 74.2933 165.264 74.6067 164.757 74.86C164.264 75.1133 163.724 75.24 163.137 75.24ZM163.877 73.44C164.277 73.44 164.637 73.3467 164.957 73.16C165.29 72.96 165.644 72.6933 166.017 72.36V70.16C164.684 70.3333 163.757 70.5933 163.237 70.94C162.717 71.2733 162.457 71.6867 162.457 72.18C162.457 72.62 162.59 72.94 162.857 73.14C163.124 73.34 163.464 73.44 163.877 73.44ZM171.069 75V65.18H172.969L173.129 66.92H173.209C173.556 66.28 173.976 65.7933 174.469 65.46C174.963 65.1133 175.469 64.94 175.989 64.94C176.456 64.94 176.829 65.0067 177.109 65.14L176.709 67.14C176.536 67.0867 176.376 67.0467 176.229 67.02C176.083 66.9933 175.903 66.98 175.689 66.98C175.303 66.98 174.896 67.1333 174.469 67.44C174.043 67.7333 173.676 68.2533 173.369 69V75H171.069ZM106.646 103V93.18H108.546L108.706 94.92H108.786C109.132 94.28 109.552 93.7933 110.046 93.46C110.539 93.1133 111.046 92.94 111.566 92.94C112.032 92.94 112.406 93.0067 112.686 93.14L112.286 95.14C112.112 95.0867 111.952 95.0467 111.806 95.02C111.659 94.9933 111.479 94.98 111.266 94.98C110.879 94.98 110.472 95.1333 110.046 95.44C109.619 95.7333 109.252 96.2533 108.946 97V103H106.646ZM118.111 103.24C117.205 103.24 116.385 103.04 115.651 102.64C114.918 102.227 114.338 101.64 113.911 100.88C113.485 100.107 113.271 99.18 113.271 98.1C113.271 97.0333 113.485 96.1133 113.911 95.34C114.351 94.5667 114.918 93.9733 115.611 93.56C116.305 93.1467 117.031 92.94 117.791 92.94C118.685 92.94 119.431 93.14 120.031 93.54C120.631 93.9267 121.085 94.4733 121.391 95.18C121.698 95.8733 121.851 96.68 121.851 97.6C121.851 98.08 121.818 98.4533 121.751 98.72H115.511C115.618 99.5867 115.931 100.26 116.451 100.74C116.971 101.22 117.625 101.46 118.411 101.46C118.838 101.46 119.231 101.4 119.591 101.28C119.965 101.147 120.331 100.967 120.691 100.74L121.471 102.18C121.005 102.487 120.485 102.74 119.911 102.94C119.338 103.14 118.738 103.24 118.111 103.24ZM115.491 97.16H119.851C119.851 96.4 119.685 95.8067 119.351 95.38C119.018 94.94 118.518 94.72 117.851 94.72C117.278 94.72 116.765 94.9333 116.311 95.36C115.871 95.7733 115.598 96.3733 115.491 97.16ZM127.273 107.34C126.499 107.34 125.799 107.247 125.173 107.06C124.559 106.873 124.073 106.587 123.713 106.2C123.366 105.827 123.193 105.353 123.193 104.78C123.193 103.967 123.659 103.267 124.593 102.68V102.6C124.339 102.44 124.126 102.227 123.953 101.96C123.793 101.693 123.713 101.36 123.713 100.96C123.713 100.573 123.819 100.227 124.033 99.92C124.259 99.6 124.513 99.34 124.793 99.14V99.06C124.459 98.8067 124.159 98.4533 123.893 98C123.639 97.5467 123.513 97.0333 123.513 96.46C123.513 95.7 123.693 95.06 124.053 94.54C124.413 94.02 124.886 93.6267 125.473 93.36C126.073 93.08 126.713 92.94 127.393 92.94C127.659 92.94 127.913 92.9667 128.153 93.02C128.406 93.06 128.633 93.1133 128.833 93.18H132.353V94.88H130.553C130.713 95.0667 130.846 95.3067 130.953 95.6C131.059 95.88 131.113 96.1933 131.113 96.54C131.113 97.26 130.946 97.8733 130.613 98.38C130.279 98.8733 129.833 99.2467 129.273 99.5C128.713 99.7533 128.086 99.88 127.393 99.88C127.179 99.88 126.959 99.86 126.733 99.82C126.506 99.78 126.279 99.7133 126.053 99.62C125.906 99.7533 125.786 99.8867 125.693 100.02C125.613 100.153 125.573 100.333 125.573 100.56C125.573 100.84 125.686 101.06 125.913 101.22C126.153 101.38 126.573 101.46 127.173 101.46H128.913C130.099 101.46 130.993 101.653 131.593 102.04C132.206 102.413 132.513 103.027 132.513 103.88C132.513 104.52 132.299 105.1 131.873 105.62C131.446 106.153 130.839 106.573 130.053 106.88C129.266 107.187 128.339 107.34 127.273 107.34ZM127.393 98.44C127.859 98.44 128.259 98.2667 128.593 97.92C128.926 97.5733 129.093 97.0867 129.093 96.46C129.093 95.8467 128.926 95.3733 128.593 95.04C128.273 94.6933 127.873 94.52 127.393 94.52C126.913 94.52 126.506 94.6867 126.173 95.02C125.839 95.3533 125.673 95.8333 125.673 96.46C125.673 97.0867 125.839 97.5733 126.173 97.92C126.506 98.2667 126.913 98.44 127.393 98.44ZM127.633 105.84C128.419 105.84 129.059 105.68 129.553 105.36C130.046 105.04 130.293 104.673 130.293 104.26C130.293 103.873 130.139 103.613 129.833 103.48C129.539 103.347 129.113 103.28 128.553 103.28H127.213C126.679 103.28 126.233 103.233 125.873 103.14C125.366 103.527 125.113 103.96 125.113 104.44C125.113 104.88 125.339 105.22 125.793 105.46C126.246 105.713 126.859 105.84 127.633 105.84ZM134.243 103V93.18H136.143L136.303 94.92H136.383C136.73 94.28 137.15 93.7933 137.643 93.46C138.137 93.1133 138.643 92.94 139.163 92.94C139.63 92.94 140.003 93.0067 140.283 93.14L139.883 95.14C139.71 95.0867 139.55 95.0467 139.403 95.02C139.257 94.9933 139.077 94.98 138.863 94.98C138.477 94.98 138.07 95.1333 137.643 95.44C137.217 95.7333 136.85 96.2533 136.543 97V103H134.243ZM145.709 103.24C144.802 103.24 143.982 103.04 143.249 102.64C142.515 102.227 141.935 101.64 141.509 100.88C141.082 100.107 140.869 99.18 140.869 98.1C140.869 97.0333 141.082 96.1133 141.509 95.34C141.949 94.5667 142.515 93.9733 143.209 93.56C143.902 93.1467 144.629 92.94 145.389 92.94C146.282 92.94 147.029 93.14 147.629 93.54C148.229 93.9267 148.682 94.4733 148.989 95.18C149.295 95.8733 149.449 96.68 149.449 97.6C149.449 98.08 149.415 98.4533 149.349 98.72H143.109C143.215 99.5867 143.529 100.26 144.049 100.74C144.569 101.22 145.222 101.46 146.009 101.46C146.435 101.46 146.829 101.4 147.189 101.28C147.562 101.147 147.929 100.967 148.289 100.74L149.069 102.18C148.602 102.487 148.082 102.74 147.509 102.94C146.935 103.14 146.335 103.24 145.709 103.24ZM143.089 97.16H147.449C147.449 96.4 147.282 95.8067 146.949 95.38C146.615 94.94 146.115 94.72 145.449 94.72C144.875 94.72 144.362 94.9333 143.909 95.36C143.469 95.7733 143.195 96.3733 143.089 97.16ZM154.386 103.24C153.719 103.24 153.052 103.113 152.386 102.86C151.719 102.593 151.146 102.267 150.666 101.88L151.746 100.4C152.186 100.733 152.626 101 153.066 101.2C153.506 101.4 153.972 101.5 154.466 101.5C154.999 101.5 155.392 101.387 155.646 101.16C155.899 100.933 156.026 100.653 156.026 100.32C156.026 100.04 155.919 99.8133 155.706 99.64C155.506 99.4533 155.246 99.2933 154.926 99.16C154.606 99.0133 154.272 98.8733 153.926 98.74C153.499 98.58 153.072 98.3867 152.646 98.16C152.232 97.92 151.892 97.62 151.626 97.26C151.359 96.8867 151.226 96.4267 151.226 95.88C151.226 95.0133 151.546 94.3067 152.186 93.76C152.826 93.2133 153.692 92.94 154.786 92.94C155.479 92.94 156.099 93.06 156.646 93.3C157.192 93.54 157.666 93.8133 158.066 94.12L157.006 95.52C156.659 95.2667 156.306 95.0667 155.946 94.92C155.599 94.76 155.232 94.68 154.846 94.68C154.352 94.68 153.986 94.7867 153.746 95C153.506 95.2 153.386 95.4533 153.386 95.76C153.386 96.1467 153.586 96.44 153.986 96.64C154.386 96.84 154.852 97.0333 155.386 97.22C155.839 97.38 156.279 97.58 156.706 97.82C157.132 98.0467 157.486 98.3467 157.766 98.72C158.059 99.0933 158.206 99.5867 158.206 100.2C158.206 101.04 157.879 101.76 157.226 102.36C156.572 102.947 155.626 103.24 154.386 103.24ZM162.999 103.24C162.332 103.24 161.665 103.113 160.999 102.86C160.332 102.593 159.759 102.267 159.279 101.88L160.359 100.4C160.799 100.733 161.239 101 161.679 101.2C162.119 101.4 162.585 101.5 163.079 101.5C163.612 101.5 164.005 101.387 164.259 101.16C164.512 100.933 164.639 100.653 164.639 100.32C164.639 100.04 164.532 99.8133 164.319 99.64C164.119 99.4533 163.859 99.2933 163.539 99.16C163.219 99.0133 162.885 98.8733 162.539 98.74C162.112 98.58 161.685 98.3867 161.259 98.16C160.845 97.92 160.505 97.62 160.239 97.26C159.972 96.8867 159.839 96.4267 159.839 95.88C159.839 95.0133 160.159 94.3067 160.799 93.76C161.439 93.2133 162.305 92.94 163.399 92.94C164.092 92.94 164.712 93.06 165.259 93.3C165.805 93.54 166.279 93.8133 166.679 94.12L165.619 95.52C165.272 95.2667 164.919 95.0667 164.559 94.92C164.212 94.76 163.845 94.68 163.459 94.68C162.965 94.68 162.599 94.7867 162.359 95C162.119 95.2 161.999 95.4533 161.999 95.76C161.999 96.1467 162.199 96.44 162.599 96.64C162.999 96.84 163.465 97.0333 163.999 97.22C164.452 97.38 164.892 97.58 165.319 97.82C165.745 98.0467 166.099 98.3467 166.379 98.72C166.672 99.0933 166.819 99.5867 166.819 100.2C166.819 101.04 166.492 101.76 165.839 102.36C165.185 102.947 164.239 103.24 162.999 103.24ZM168.872 103V93.18H171.172V103H168.872ZM170.032 91.46C169.619 91.46 169.285 91.34 169.032 91.1C168.779 90.86 168.652 90.54 168.652 90.14C168.652 89.7533 168.779 89.44 169.032 89.2C169.285 88.96 169.619 88.84 170.032 88.84C170.445 88.84 170.779 88.96 171.032 89.2C171.285 89.44 171.412 89.7533 171.412 90.14C171.412 90.54 171.285 90.86 171.032 91.1C170.779 91.34 170.445 91.46 170.032 91.46ZM178.126 103.24C177.313 103.24 176.553 103.04 175.846 102.64C175.14 102.227 174.566 101.64 174.126 100.88C173.686 100.107 173.466 99.18 173.466 98.1C173.466 97.0067 173.686 96.08 174.126 95.32C174.566 94.5467 175.14 93.96 175.846 93.56C176.553 93.1467 177.313 92.94 178.126 92.94C178.953 92.94 179.72 93.1467 180.426 93.56C181.133 93.96 181.706 94.5467 182.146 95.32C182.586 96.08 182.806 97.0067 182.806 98.1C182.806 99.18 182.586 100.107 182.146 100.88C181.706 101.64 181.133 102.227 180.426 102.64C179.72 103.04 178.953 103.24 178.126 103.24ZM178.126 101.36C178.846 101.36 179.413 101.06 179.826 100.46C180.24 99.86 180.446 99.0733 180.446 98.1C180.446 97.1133 180.24 96.32 179.826 95.72C179.413 95.12 178.846 94.82 178.126 94.82C177.406 94.82 176.84 95.12 176.426 95.72C176.026 96.32 175.826 97.1133 175.826 98.1C175.826 99.0733 176.026 99.86 176.426 100.46C176.84 101.06 177.406 101.36 178.126 101.36ZM185.083 103V93.18H186.983L187.143 94.5H187.223C187.663 94.0733 188.143 93.7067 188.663 93.4C189.183 93.0933 189.776 92.94 190.443 92.94C191.496 92.94 192.263 93.28 192.743 93.96C193.223 94.64 193.463 95.6 193.463 96.84V103H191.163V97.14C191.163 96.3267 191.043 95.7533 190.803 95.42C190.563 95.0867 190.17 94.92 189.623 94.92C189.196 94.92 188.816 95.0267 188.483 95.24C188.163 95.44 187.796 95.74 187.383 96.14V103H185.083Z" fill="#209766"/>
<circle cx="300" cy="78" r="32" fill="#232A3D"/>
<path d="M288.14 86L283.244 70.304H286.196L288.404 78.2C288.66 79.08 288.892 79.928 289.1 80.744C289.308 81.56 289.54 82.416 289.796 83.312H289.892C290.164 82.416 290.396 81.56 290.588 80.744C290.796 79.928 291.02 79.08 291.26 78.2L293.444 70.304H296.3L291.428 86H288.14ZM302.549 86.288C301.493 86.288 300.469 86.088 299.477 85.688C298.501 85.288 297.637 84.72 296.885 83.984L298.517 82.088C299.077 82.616 299.717 83.048 300.437 83.384C301.157 83.704 301.877 83.864 302.597 83.864C303.493 83.864 304.173 83.68 304.637 83.312C305.101 82.944 305.333 82.456 305.333 81.848C305.333 81.192 305.101 80.72 304.637 80.432C304.189 80.144 303.613 79.848 302.909 79.544L300.749 78.608C300.237 78.384 299.733 78.096 299.237 77.744C298.757 77.392 298.357 76.944 298.037 76.4C297.733 75.856 297.581 75.2 297.581 74.432C297.581 73.6 297.805 72.856 298.253 72.2C298.717 71.528 299.341 71 300.125 70.616C300.925 70.216 301.837 70.016 302.861 70.016C303.773 70.016 304.653 70.2 305.501 70.568C306.349 70.92 307.077 71.4 307.685 72.008L306.269 73.784C305.773 73.368 305.245 73.04 304.685 72.8C304.141 72.56 303.533 72.44 302.861 72.44C302.125 72.44 301.525 72.608 301.061 72.944C300.613 73.264 300.389 73.712 300.389 74.288C300.389 74.688 300.501 75.024 300.725 75.296C300.965 75.552 301.277 75.776 301.661 75.968C302.045 76.144 302.453 76.32 302.885 76.496L305.021 77.384C305.949 77.784 306.709 78.312 307.301 78.968C307.893 79.608 308.189 80.496 308.189 81.632C308.189 82.48 307.965 83.256 307.517 83.96C307.069 84.664 306.421 85.232 305.573 85.664C304.741 86.08 303.733 86.288 302.549 86.288ZM312.363 86.288C311.867 86.288 311.443 86.112 311.091 85.76C310.739 85.408 310.563 84.96 310.563 84.416C310.563 83.872 310.739 83.424 311.091 83.072C311.443 82.72 311.867 82.544 312.363 82.544C312.875 82.544 313.299 82.72 313.635 83.072C313.971 83.424 314.139 83.872 314.139 84.416C314.139 84.96 313.971 85.408 313.635 85.76C313.299 86.112 312.875 86.288 312.363 86.288Z" fill="white"/>
<path d="M415.506 75V61.92H417.826V73.04H423.266V75H415.506ZM429.111 75.24C428.298 75.24 427.538 75.04 426.831 74.64C426.124 74.2267 425.551 73.64 425.111 72.88C424.671 72.1067 424.451 71.18 424.451 70.1C424.451 69.0067 424.671 68.08 425.111 67.32C425.551 66.5467 426.124 65.96 426.831 65.56C427.538 65.1467 428.298 64.94 429.111 64.94C429.938 64.94 430.704 65.1467 431.411 65.56C432.118 65.96 432.691 66.5467 433.131 67.32C433.571 68.08 433.791 69.0067 433.791 70.1C433.791 71.18 433.571 72.1067 433.131 72.88C432.691 73.64 432.118 74.2267 431.411 74.64C430.704 75.04 429.938 75.24 429.111 75.24ZM429.111 73.36C429.831 73.36 430.398 73.06 430.811 72.46C431.224 71.86 431.431 71.0733 431.431 70.1C431.431 69.1133 431.224 68.32 430.811 67.72C430.398 67.12 429.831 66.82 429.111 66.82C428.391 66.82 427.824 67.12 427.411 67.72C427.011 68.32 426.811 69.1133 426.811 70.1C426.811 71.0733 427.011 71.86 427.411 72.46C427.824 73.06 428.391 73.36 429.111 73.36ZM439.487 79.34C438.714 79.34 438.014 79.2467 437.387 79.06C436.774 78.8733 436.287 78.5867 435.927 78.2C435.581 77.8267 435.407 77.3533 435.407 76.78C435.407 75.9667 435.874 75.2667 436.807 74.68V74.6C436.554 74.44 436.341 74.2267 436.167 73.96C436.007 73.6933 435.927 73.36 435.927 72.96C435.927 72.5733 436.034 72.2267 436.247 71.92C436.474 71.6 436.727 71.34 437.007 71.14V71.06C436.674 70.8067 436.374 70.4533 436.107 70C435.854 69.5467 435.727 69.0333 435.727 68.46C435.727 67.7 435.907 67.06 436.267 66.54C436.627 66.02 437.101 65.6267 437.687 65.36C438.287 65.08 438.927 64.94 439.607 64.94C439.874 64.94 440.127 64.9667 440.367 65.02C440.621 65.06 440.847 65.1133 441.047 65.18H444.567V66.88H442.767C442.927 67.0667 443.061 67.3067 443.167 67.6C443.274 67.88 443.327 68.1933 443.327 68.54C443.327 69.26 443.161 69.8733 442.827 70.38C442.494 70.8733 442.047 71.2467 441.487 71.5C440.927 71.7533 440.301 71.88 439.607 71.88C439.394 71.88 439.174 71.86 438.947 71.82C438.721 71.78 438.494 71.7133 438.267 71.62C438.121 71.7533 438.001 71.8867 437.907 72.02C437.827 72.1533 437.787 72.3333 437.787 72.56C437.787 72.84 437.901 73.06 438.127 73.22C438.367 73.38 438.787 73.46 439.387 73.46H441.127C442.314 73.46 443.207 73.6533 443.807 74.04C444.421 74.4133 444.727 75.0267 444.727 75.88C444.727 76.52 444.514 77.1 444.087 77.62C443.661 78.1533 443.054 78.5733 442.267 78.88C441.481 79.1867 440.554 79.34 439.487 79.34ZM439.607 70.44C440.074 70.44 440.474 70.2667 440.807 69.92C441.141 69.5733 441.307 69.0867 441.307 68.46C441.307 67.8467 441.141 67.3733 440.807 67.04C440.487 66.6933 440.087 66.52 439.607 66.52C439.127 66.52 438.721 66.6867 438.387 67.02C438.054 67.3533 437.887 67.8333 437.887 68.46C437.887 69.0867 438.054 69.5733 438.387 69.92C438.721 70.2667 439.127 70.44 439.607 70.44ZM439.847 77.84C440.634 77.84 441.274 77.68 441.767 77.36C442.261 77.04 442.507 76.6733 442.507 76.26C442.507 75.8733 442.354 75.6133 442.047 75.48C441.754 75.3467 441.327 75.28 440.767 75.28H439.427C438.894 75.28 438.447 75.2333 438.087 75.14C437.581 75.5267 437.327 75.96 437.327 76.44C437.327 76.88 437.554 77.22 438.007 77.46C438.461 77.7133 439.074 77.84 439.847 77.84ZM446.458 75V65.18H448.758V75H446.458ZM447.618 63.46C447.205 63.46 446.871 63.34 446.618 63.1C446.365 62.86 446.238 62.54 446.238 62.14C446.238 61.7533 446.365 61.44 446.618 61.2C446.871 60.96 447.205 60.84 447.618 60.84C448.031 60.84 448.365 60.96 448.618 61.2C448.871 61.44 448.998 61.7533 448.998 62.14C448.998 62.54 448.871 62.86 448.618 63.1C448.365 63.34 448.031 63.46 447.618 63.46ZM454.432 75.24C453.766 75.24 453.099 75.1133 452.432 74.86C451.766 74.5933 451.192 74.2667 450.712 73.88L451.792 72.4C452.232 72.7333 452.672 73 453.112 73.2C453.552 73.4 454.019 73.5 454.512 73.5C455.046 73.5 455.439 73.3867 455.692 73.16C455.946 72.9333 456.072 72.6533 456.072 72.32C456.072 72.04 455.966 71.8133 455.752 71.64C455.552 71.4533 455.292 71.2933 454.972 71.16C454.652 71.0133 454.319 70.8733 453.972 70.74C453.546 70.58 453.119 70.3867 452.692 70.16C452.279 69.92 451.939 69.62 451.672 69.26C451.406 68.8867 451.272 68.4267 451.272 67.88C451.272 67.0133 451.592 66.3067 452.232 65.76C452.872 65.2133 453.739 64.94 454.832 64.94C455.526 64.94 456.146 65.06 456.692 65.3C457.239 65.54 457.712 65.8133 458.112 66.12L457.052 67.52C456.706 67.2667 456.352 67.0667 455.992 66.92C455.646 66.76 455.279 66.68 454.892 66.68C454.399 66.68 454.032 66.7867 453.792 67C453.552 67.2 453.432 67.4533 453.432 67.76C453.432 68.1467 453.632 68.44 454.032 68.64C454.432 68.84 454.899 69.0333 455.432 69.22C455.886 69.38 456.326 69.58 456.752 69.82C457.179 70.0467 457.532 70.3467 457.812 70.72C458.106 71.0933 458.252 71.5867 458.252 72.2C458.252 73.04 457.926 73.76 457.272 74.36C456.619 74.9467 455.672 75.24 454.432 75.24ZM463.375 75.24C462.242 75.24 461.435 74.9133 460.955 74.26C460.488 73.5933 460.255 72.7333 460.255 71.68V67H458.855V65.28L460.375 65.18L460.655 62.5H462.575V65.18H465.075V67H462.575V71.68C462.575 72.8267 463.035 73.4 463.955 73.4C464.128 73.4 464.308 73.38 464.495 73.34C464.682 73.2867 464.842 73.2333 464.975 73.18L465.375 74.88C465.108 74.9733 464.802 75.0533 464.455 75.12C464.122 75.2 463.762 75.24 463.375 75.24ZM467.142 75V65.18H469.442V75H467.142ZM468.302 63.46C467.888 63.46 467.555 63.34 467.302 63.1C467.048 62.86 466.922 62.54 466.922 62.14C466.922 61.7533 467.048 61.44 467.302 61.2C467.555 60.96 467.888 60.84 468.302 60.84C468.715 60.84 469.048 60.96 469.302 61.2C469.555 61.44 469.682 61.7533 469.682 62.14C469.682 62.54 469.555 62.86 469.302 63.1C469.048 63.34 468.715 63.46 468.302 63.46ZM476.476 75.24C475.583 75.24 474.776 75.04 474.056 74.64C473.349 74.2267 472.783 73.64 472.356 72.88C471.943 72.1067 471.736 71.18 471.736 70.1C471.736 69.0067 471.963 68.08 472.416 67.32C472.869 66.5467 473.469 65.96 474.216 65.56C474.976 65.1467 475.789 64.94 476.656 64.94C477.283 64.94 477.829 65.0467 478.296 65.26C478.763 65.4733 479.176 65.7333 479.536 66.04L478.416 67.54C478.163 67.3133 477.903 67.14 477.636 67.02C477.369 66.8867 477.083 66.82 476.776 66.82C475.989 66.82 475.343 67.12 474.836 67.72C474.343 68.32 474.096 69.1133 474.096 70.1C474.096 71.0733 474.336 71.86 474.816 72.46C475.309 73.06 475.943 73.36 476.716 73.36C477.103 73.36 477.463 73.28 477.796 73.12C478.143 72.9467 478.456 72.7467 478.736 72.52L479.676 74.04C479.223 74.44 478.716 74.74 478.156 74.94C477.596 75.14 477.036 75.24 476.476 75.24ZM403.646 103V93.18H405.546L405.706 94.92H405.786C406.132 94.28 406.552 93.7933 407.046 93.46C407.539 93.1133 408.046 92.94 408.566 92.94C409.032 92.94 409.406 93.0067 409.686 93.14L409.286 95.14C409.112 95.0867 408.952 95.0467 408.806 95.02C408.659 94.9933 408.479 94.98 408.266 94.98C407.879 94.98 407.472 95.1333 407.046 95.44C406.619 95.7333 406.252 96.2533 405.946 97V103H403.646ZM415.111 103.24C414.205 103.24 413.385 103.04 412.651 102.64C411.918 102.227 411.338 101.64 410.911 100.88C410.485 100.107 410.271 99.18 410.271 98.1C410.271 97.0333 410.485 96.1133 410.911 95.34C411.351 94.5667 411.918 93.9733 412.611 93.56C413.305 93.1467 414.031 92.94 414.791 92.94C415.685 92.94 416.431 93.14 417.031 93.54C417.631 93.9267 418.085 94.4733 418.391 95.18C418.698 95.8733 418.851 96.68 418.851 97.6C418.851 98.08 418.818 98.4533 418.751 98.72H412.511C412.618 99.5867 412.931 100.26 413.451 100.74C413.971 101.22 414.625 101.46 415.411 101.46C415.838 101.46 416.231 101.4 416.591 101.28C416.965 101.147 417.331 100.967 417.691 100.74L418.471 102.18C418.005 102.487 417.485 102.74 416.911 102.94C416.338 103.14 415.738 103.24 415.111 103.24ZM412.491 97.16H416.851C416.851 96.4 416.685 95.8067 416.351 95.38C416.018 94.94 415.518 94.72 414.851 94.72C414.278 94.72 413.765 94.9333 413.311 95.36C412.871 95.7733 412.598 96.3733 412.491 97.16ZM424.273 107.34C423.499 107.34 422.799 107.247 422.173 107.06C421.559 106.873 421.073 106.587 420.713 106.2C420.366 105.827 420.193 105.353 420.193 104.78C420.193 103.967 420.659 103.267 421.593 102.68V102.6C421.339 102.44 421.126 102.227 420.953 101.96C420.793 101.693 420.713 101.36 420.713 100.96C420.713 100.573 420.819 100.227 421.033 99.92C421.259 99.6 421.513 99.34 421.793 99.14V99.06C421.459 98.8067 421.159 98.4533 420.893 98C420.639 97.5467 420.513 97.0333 420.513 96.46C420.513 95.7 420.693 95.06 421.053 94.54C421.413 94.02 421.886 93.6267 422.473 93.36C423.073 93.08 423.713 92.94 424.393 92.94C424.659 92.94 424.913 92.9667 425.153 93.02C425.406 93.06 425.633 93.1133 425.833 93.18H429.353V94.88H427.553C427.713 95.0667 427.846 95.3067 427.953 95.6C428.059 95.88 428.113 96.1933 428.113 96.54C428.113 97.26 427.946 97.8733 427.613 98.38C427.279 98.8733 426.833 99.2467 426.273 99.5C425.713 99.7533 425.086 99.88 424.393 99.88C424.179 99.88 423.959 99.86 423.733 99.82C423.506 99.78 423.279 99.7133 423.053 99.62C422.906 99.7533 422.786 99.8867 422.693 100.02C422.613 100.153 422.573 100.333 422.573 100.56C422.573 100.84 422.686 101.06 422.913 101.22C423.153 101.38 423.573 101.46 424.173 101.46H425.913C427.099 101.46 427.993 101.653 428.593 102.04C429.206 102.413 429.513 103.027 429.513 103.88C429.513 104.52 429.299 105.1 428.873 105.62C428.446 106.153 427.839 106.573 427.053 106.88C426.266 107.187 425.339 107.34 424.273 107.34ZM424.393 98.44C424.859 98.44 425.259 98.2667 425.593 97.92C425.926 97.5733 426.093 97.0867 426.093 96.46C426.093 95.8467 425.926 95.3733 425.593 95.04C425.273 94.6933 424.873 94.52 424.393 94.52C423.913 94.52 423.506 94.6867 423.173 95.02C422.839 95.3533 422.673 95.8333 422.673 96.46C422.673 97.0867 422.839 97.5733 423.173 97.92C423.506 98.2667 423.913 98.44 424.393 98.44ZM424.633 105.84C425.419 105.84 426.059 105.68 426.553 105.36C427.046 105.04 427.293 104.673 427.293 104.26C427.293 103.873 427.139 103.613 426.833 103.48C426.539 103.347 426.113 103.28 425.553 103.28H424.213C423.679 103.28 423.233 103.233 422.873 103.14C422.366 103.527 422.113 103.96 422.113 104.44C422.113 104.88 422.339 105.22 422.793 105.46C423.246 105.713 423.859 105.84 424.633 105.84ZM431.243 103V93.18H433.143L433.303 94.92H433.383C433.73 94.28 434.15 93.7933 434.643 93.46C435.137 93.1133 435.643 92.94 436.163 92.94C436.63 92.94 437.003 93.0067 437.283 93.14L436.883 95.14C436.71 95.0867 436.55 95.0467 436.403 95.02C436.257 94.9933 436.077 94.98 435.863 94.98C435.477 94.98 435.07 95.1333 434.643 95.44C434.217 95.7333 433.85 96.2533 433.543 97V103H431.243ZM442.709 103.24C441.802 103.24 440.982 103.04 440.249 102.64C439.515 102.227 438.935 101.64 438.509 100.88C438.082 100.107 437.869 99.18 437.869 98.1C437.869 97.0333 438.082 96.1133 438.509 95.34C438.949 94.5667 439.515 93.9733 440.209 93.56C440.902 93.1467 441.629 92.94 442.389 92.94C443.282 92.94 444.029 93.14 444.629 93.54C445.229 93.9267 445.682 94.4733 445.989 95.18C446.295 95.8733 446.449 96.68 446.449 97.6C446.449 98.08 446.415 98.4533 446.349 98.72H440.109C440.215 99.5867 440.529 100.26 441.049 100.74C441.569 101.22 442.222 101.46 443.009 101.46C443.435 101.46 443.829 101.4 444.189 101.28C444.562 101.147 444.929 100.967 445.289 100.74L446.069 102.18C445.602 102.487 445.082 102.74 444.509 102.94C443.935 103.14 443.335 103.24 442.709 103.24ZM440.089 97.16H444.449C444.449 96.4 444.282 95.8067 443.949 95.38C443.615 94.94 443.115 94.72 442.449 94.72C441.875 94.72 441.362 94.9333 440.909 95.36C440.469 95.7733 440.195 96.3733 440.089 97.16ZM451.386 103.24C450.719 103.24 450.052 103.113 449.386 102.86C448.719 102.593 448.146 102.267 447.666 101.88L448.746 100.4C449.186 100.733 449.626 101 450.066 101.2C450.506 101.4 450.972 101.5 451.466 101.5C451.999 101.5 452.392 101.387 452.646 101.16C452.899 100.933 453.026 100.653 453.026 100.32C453.026 100.04 452.919 99.8133 452.706 99.64C452.506 99.4533 452.246 99.2933 451.926 99.16C451.606 99.0133 451.272 98.8733 450.926 98.74C450.499 98.58 450.072 98.3867 449.646 98.16C449.232 97.92 448.892 97.62 448.626 97.26C448.359 96.8867 448.226 96.4267 448.226 95.88C448.226 95.0133 448.546 94.3067 449.186 93.76C449.826 93.2133 450.692 92.94 451.786 92.94C452.479 92.94 453.099 93.06 453.646 93.3C454.192 93.54 454.666 93.8133 455.066 94.12L454.006 95.52C453.659 95.2667 453.306 95.0667 452.946 94.92C452.599 94.76 452.232 94.68 451.846 94.68C451.352 94.68 450.986 94.7867 450.746 95C450.506 95.2 450.386 95.4533 450.386 95.76C450.386 96.1467 450.586 96.44 450.986 96.64C451.386 96.84 451.852 97.0333 452.386 97.22C452.839 97.38 453.279 97.58 453.706 97.82C454.132 98.0467 454.486 98.3467 454.766 98.72C455.059 99.0933 455.206 99.5867 455.206 100.2C455.206 101.04 454.879 101.76 454.226 102.36C453.572 102.947 452.626 103.24 451.386 103.24ZM459.999 103.24C459.332 103.24 458.665 103.113 457.999 102.86C457.332 102.593 456.759 102.267 456.279 101.88L457.359 100.4C457.799 100.733 458.239 101 458.679 101.2C459.119 101.4 459.585 101.5 460.079 101.5C460.612 101.5 461.005 101.387 461.259 101.16C461.512 100.933 461.639 100.653 461.639 100.32C461.639 100.04 461.532 99.8133 461.319 99.64C461.119 99.4533 460.859 99.2933 460.539 99.16C460.219 99.0133 459.885 98.8733 459.539 98.74C459.112 98.58 458.685 98.3867 458.259 98.16C457.845 97.92 457.505 97.62 457.239 97.26C456.972 96.8867 456.839 96.4267 456.839 95.88C456.839 95.0133 457.159 94.3067 457.799 93.76C458.439 93.2133 459.305 92.94 460.399 92.94C461.092 92.94 461.712 93.06 462.259 93.3C462.805 93.54 463.279 93.8133 463.679 94.12L462.619 95.52C462.272 95.2667 461.919 95.0667 461.559 94.92C461.212 94.76 460.845 94.68 460.459 94.68C459.965 94.68 459.599 94.7867 459.359 95C459.119 95.2 458.999 95.4533 458.999 95.76C458.999 96.1467 459.199 96.44 459.599 96.64C459.999 96.84 460.465 97.0333 460.999 97.22C461.452 97.38 461.892 97.58 462.319 97.82C462.745 98.0467 463.099 98.3467 463.379 98.72C463.672 99.0933 463.819 99.5867 463.819 100.2C463.819 101.04 463.492 101.76 462.839 102.36C462.185 102.947 461.239 103.24 459.999 103.24ZM465.872 103V93.18H468.172V103H465.872ZM467.032 91.46C466.619 91.46 466.285 91.34 466.032 91.1C465.779 90.86 465.652 90.54 465.652 90.14C465.652 89.7533 465.779 89.44 466.032 89.2C466.285 88.96 466.619 88.84 467.032 88.84C467.445 88.84 467.779 88.96 468.032 89.2C468.285 89.44 468.412 89.7533 468.412 90.14C468.412 90.54 468.285 90.86 468.032 91.1C467.779 91.34 467.445 91.46 467.032 91.46ZM475.126 103.24C474.313 103.24 473.553 103.04 472.846 102.64C472.14 102.227 471.566 101.64 471.126 100.88C470.686 100.107 470.466 99.18 470.466 98.1C470.466 97.0067 470.686 96.08 471.126 95.32C471.566 94.5467 472.14 93.96 472.846 93.56C473.553 93.1467 474.313 92.94 475.126 92.94C475.953 92.94 476.72 93.1467 477.426 93.56C478.133 93.96 478.706 94.5467 479.146 95.32C479.586 96.08 479.806 97.0067 479.806 98.1C479.806 99.18 479.586 100.107 479.146 100.88C478.706 101.64 478.133 102.227 477.426 102.64C476.72 103.04 475.953 103.24 475.126 103.24ZM475.126 101.36C475.846 101.36 476.413 101.06 476.826 100.46C477.24 99.86 477.446 99.0733 477.446 98.1C477.446 97.1133 477.24 96.32 476.826 95.72C476.413 95.12 475.846 94.82 475.126 94.82C474.406 94.82 473.84 95.12 473.426 95.72C473.026 96.32 472.826 97.1133 472.826 98.1C472.826 99.0733 473.026 99.86 473.426 100.46C473.84 101.06 474.406 101.36 475.126 101.36ZM482.083 103V93.18H483.983L484.143 94.5H484.223C484.663 94.0733 485.143 93.7067 485.663 93.4C486.183 93.0933 486.776 92.94 487.443 92.94C488.496 92.94 489.263 93.28 489.743 93.96C490.223 94.64 490.463 95.6 490.463 96.84V103H488.163V97.14C488.163 96.3267 488.043 95.7533 487.803 95.42C487.563 95.0867 487.17 94.92 486.623 94.92C486.196 94.92 485.816 95.0267 485.483 95.24C485.163 95.44 484.796 95.74 484.383 96.14V103H482.083Z" fill="#9B51E0"/>
<line x1="145.5" y1="145.5" x2="148.5" y2="145.5" stroke="#232A3D" stroke-linecap="round"/>
<path d="M147 146L147 300" stroke="#232A3D" stroke-width="1.5" stroke-linecap="round"/>
<path d="M268 301L26 300" stroke="#232A3D" stroke-width="1.5" stroke-linecap="square"/>
<line x1="268.5" y1="300.5" x2="268.5" y2="297.5" stroke="#232A3D" stroke-linecap="round"/>
<line x1="245.5" y1="300.5" x2="245.5" y2="297.5" stroke="#232A3D" stroke-linecap="round"/>
<line x1="223.5" y1="300.5" x2="223.5" y2="297.5" stroke="#232A3D" stroke-linecap="round"/>
<line x1="201.5" y1="300.5" x2="201.5" y2="297.5" stroke="#232A3D" stroke-linecap="round"/>
<line x1="179.5" y1="300.5" x2="179.5" y2="297.5" stroke="#232A3D" stroke-linecap="round"/>
<line x1="157.5" y1="300.5" x2="157.5" y2="297.5" stroke="#232A3D" stroke-linecap="round"/>
<line x1="145.5" y1="277.5" x2="148.5" y2="277.5" stroke="#232A3D" stroke-linecap="round"/>
<line x1="145.5" y1="233.5" x2="148.5" y2="233.5" stroke="#232A3D" stroke-linecap="round"/>
<line x1="145.5" y1="189.5" x2="148.5" y2="189.5" stroke="#232A3D" stroke-linecap="round"/>
<line x1="145.5" y1="255.5" x2="148.5" y2="255.5" stroke="#232A3D" stroke-linecap="round"/>
<line x1="145.5" y1="211.5" x2="148.5" y2="211.5" stroke="#232A3D" stroke-linecap="round"/>
<line x1="145.5" y1="167.5" x2="148.5" y2="167.5" stroke="#232A3D" stroke-linecap="round"/>
<line x1="135.5" y1="300.5" x2="135.5" y2="297.5" stroke="#232A3D" stroke-linecap="round"/>
<line x1="113.5" y1="300.5" x2="113.5" y2="297.5" stroke="#232A3D" stroke-linecap="round"/>
<line x1="91.5" y1="300.5" x2="91.5" y2="297.5" stroke="#232A3D" stroke-linecap="round"/>
<line x1="69.5" y1="300.5" x2="69.5" y2="297.5" stroke="#232A3D" stroke-linecap="round"/>
<line x1="47.5" y1="300.5" x2="47.5" y2="297.5" stroke="#232A3D" stroke-linecap="round"/>
<line x1="25.5" y1="300.5" x2="25.5" y2="297.5" stroke="#232A3D" stroke-linecap="round"/>
<path d="M443 146L443 300" stroke="#232A3D" stroke-width="1.5" stroke-linecap="round"/>
<path d="M564 301L322 300" stroke="#232A3D" stroke-width="1.5" stroke-linecap="square"/>
<line x1="564.5" y1="300.5" x2="564.5" y2="297.5" stroke="#232A3D" stroke-linecap="round"/>
<line x1="541.5" y1="300.5" x2="541.5" y2="297.5" stroke="#232A3D" stroke-linecap="round"/>
<line x1="519.5" y1="300.5" x2="519.5" y2="297.5" stroke="#232A3D" stroke-linecap="round"/>
<line x1="497.5" y1="300.5" x2="497.5" y2="297.5" stroke="#232A3D" stroke-linecap="round"/>
<line x1="475.5" y1="300.5" x2="475.5" y2="297.5" stroke="#232A3D" stroke-linecap="round"/>
<line x1="453.5" y1="300.5" x2="453.5" y2="297.5" stroke="#232A3D" stroke-linecap="round"/>
<line x1="441.5" y1="277.5" x2="444.5" y2="277.5" stroke="#232A3D" stroke-linecap="round"/>
<line x1="441.5" y1="233.5" x2="444.5" y2="233.5" stroke="#232A3D" stroke-linecap="round"/>
<line x1="441.5" y1="189.5" x2="444.5" y2="189.5" stroke="#232A3D" stroke-linecap="round"/>
<line x1="441.5" y1="255.5" x2="444.5" y2="255.5" stroke="#232A3D" stroke-linecap="round"/>
<line x1="441.5" y1="211.5" x2="444.5" y2="211.5" stroke="#232A3D" stroke-linecap="round"/>
<line x1="441.5" y1="167.5" x2="444.5" y2="167.5" stroke="#232A3D" stroke-linecap="round"/>
<line x1="431.5" y1="300.5" x2="431.5" y2="297.5" stroke="#232A3D" stroke-linecap="round"/>
<line x1="409.5" y1="300.5" x2="409.5" y2="297.5" stroke="#232A3D" stroke-linecap="round"/>
<line x1="387.5" y1="300.5" x2="387.5" y2="297.5" stroke="#232A3D" stroke-linecap="round"/>
<line x1="365.5" y1="300.5" x2="365.5" y2="297.5" stroke="#232A3D" stroke-linecap="round"/>
<line x1="343.5" y1="300.5" x2="343.5" y2="297.5" stroke="#232A3D" stroke-linecap="round"/>
<line x1="321.5" y1="300.5" x2="321.5" y2="297.5" stroke="#232A3D" stroke-linecap="round"/>
<path d="M31 294L256 156" stroke="#209766" stroke-width="3" stroke-linecap="round"/>
<path d="M328 294C328 294 449 296 449 227C449 158 554 158 554 158" stroke="#9B51E0" stroke-width="3" stroke-linecap="round"/>
</svg>
