<svg width="508" height="319" viewBox="0 0 508 319" fill="none" xmlns="http://www.w3.org/2000/svg">
<rect width="508" height="319" fill="white"/>
<path d="M304 127V177H181" stroke="#1F69FF" stroke-width="2"/>
<path d="M98 207.5V238" stroke="#C74E4E" stroke-width="2"/>
<path d="M465 61L37 233" stroke="#232A3D" stroke-width="3"/>
<path d="M280 82C280 79.2386 277.761 77 275 77C272.239 77 270 79.2386 270 82C270 84.7614 272.239 87 275 87C277.761 87 280 84.7614 280 82Z" fill="#9B51E0"/>
<path d="M349 70C349 67.2386 346.761 65 344 65C341.239 65 339 67.2386 339 70C339 72.7614 341.239 75 344 75C346.761 75 349 72.7614 349 70Z" fill="#9B51E0"/>
<path d="M229 66C229 63.2386 226.761 61 224 61C221.239 61 219 63.2386 219 66C219 68.7614 221.239 71 224 71C226.761 71 229 68.7614 229 66Z" fill="#9B51E0"/>
<path d="M256 108C256 105.239 253.761 103 251 103C248.239 103 246 105.239 246 108C246 110.761 248.239 113 251 113C253.761 113 256 110.761 256 108Z" fill="#9B51E0"/>
<path d="M341 132C341 129.239 338.761 127 336 127C333.239 127 331 129.239 331 132C331 134.761 333.239 137 336 137C338.761 137 341 134.761 341 132Z" fill="#9B51E0"/>
<path d="M383 151C383 148.239 380.761 146 378 146C375.239 146 373 148.239 373 151C373 153.761 375.239 156 378 156C380.761 156 383 153.761 383 151Z" fill="#9B51E0"/>
<path d="M445 108C445 105.239 442.761 103 440 103C437.239 103 435 105.239 435 108C435 110.761 437.239 113 440 113C442.761 113 445 110.761 445 108Z" fill="#9B51E0"/>
<path d="M207 132C207 129.239 204.761 127 202 127C199.239 127 197 129.239 197 132C197 134.761 199.239 137 202 137C204.761 137 207 134.761 207 132Z" fill="#9B51E0"/>
<path d="M233 254C233 251.239 230.761 249 228 249C225.239 249 223 251.239 223 254C223 256.761 225.239 259 228 259C230.761 259 233 256.761 233 254Z" fill="#9B51E0"/>
<path d="M78 190C78 187.239 75.7614 185 73 185C70.2386 185 68 187.239 68 190C68 192.761 70.2386 195 73 195C75.7614 195 78 192.761 78 190Z" fill="#9B51E0"/>
<path d="M199 206C199 203.239 196.761 201 194 201C191.239 201 189 203.239 189 206C189 208.761 191.239 211 194 211C196.761 211 199 208.761 199 206Z" fill="#9B51E0"/>
<path d="M162 167C162 164.239 159.761 162 157 162C154.239 162 152 164.239 152 167C152 169.761 154.239 172 157 172C159.761 172 162 169.761 162 167Z" fill="#9B51E0"/>
<path d="M127 139C127 136.239 124.761 134 122 134C119.239 134 117 136.239 117 139C117 141.761 119.239 144 122 144C124.761 144 127 141.761 127 139Z" fill="#9B51E0"/>
<path d="M103 238C103 235.239 100.761 233 98 233C95.2386 233 93 235.239 93 238C93 240.761 95.2386 243 98 243C100.761 243 103 240.761 103 238Z" fill="#9B51E0"/>
<path d="M112.104 227.16C111.208 227.16 110.429 227.005 109.768 226.696C109.117 226.387 108.611 225.901 108.248 225.24C107.896 224.579 107.72 223.725 107.72 222.68C107.72 221.517 107.901 220.605 108.264 219.944C108.627 219.272 109.133 218.797 109.784 218.52C110.445 218.243 111.213 218.104 112.088 218.104C112.568 218.104 113.043 218.157 113.512 218.264C113.992 218.36 114.445 218.499 114.872 218.68L114.184 220.376C113.789 220.227 113.411 220.104 113.048 220.008C112.696 219.912 112.355 219.864 112.024 219.864C111.661 219.864 111.352 219.939 111.096 220.088C110.84 220.227 110.637 220.44 110.488 220.728C110.339 221.005 110.237 221.363 110.184 221.8H113.48V223.384H110.184C110.237 223.832 110.333 224.205 110.472 224.504C110.611 224.803 110.803 225.027 111.048 225.176C111.304 225.315 111.608 225.384 111.96 225.384C112.472 225.384 112.936 225.325 113.352 225.208C113.768 225.091 114.189 224.941 114.616 224.76V226.584C114.243 226.776 113.853 226.92 113.448 227.016C113.053 227.112 112.605 227.16 112.104 227.16Z" fill="#C74E4E"/>
<path d="M454.408 42V33.856C454.408 33.248 454.531 32.6987 454.776 32.208C455.032 31.7067 455.416 31.312 455.928 31.024C456.451 30.736 457.128 30.592 457.96 30.592C458.419 30.592 458.851 30.64 459.256 30.736C459.661 30.8213 460.029 30.9173 460.36 31.024L459.912 32.752C459.656 32.656 459.389 32.5813 459.112 32.528C458.845 32.4747 458.557 32.448 458.248 32.448C457.747 32.448 457.373 32.56 457.128 32.784C456.883 33.008 456.76 33.36 456.76 33.84V42H454.408ZM452.312 35.904V34.16L454.488 34.064H459.496V35.904H452.312ZM466.866 44.864C465.831 43.936 465.01 42.864 464.402 41.648C463.794 40.4213 463.49 39.056 463.49 37.552C463.49 36.048 463.794 34.6827 464.402 33.456C465.01 32.2293 465.831 31.1573 466.866 30.24L468.178 31.28C467.218 32.208 466.524 33.168 466.098 34.16C465.671 35.152 465.458 36.2827 465.458 37.552C465.458 38.8107 465.671 39.9413 466.098 40.944C466.524 41.936 467.218 42.896 468.178 43.824L466.866 44.864ZM470.476 42L473.516 36.64L470.652 31.568H473.292L474.299 33.536C474.417 33.7707 474.54 34.0267 474.668 34.304C474.796 34.5813 474.94 34.8853 475.1 35.216H475.164C475.281 34.8853 475.398 34.5813 475.516 34.304C475.633 34.0267 475.75 33.7707 475.868 33.536L476.796 31.568H479.324L476.46 36.752L479.5 42H476.876L475.74 39.872C475.601 39.5947 475.462 39.3227 475.324 39.056C475.196 38.7787 475.057 38.48 474.908 38.16H474.844C474.716 38.48 474.588 38.7787 474.46 39.056C474.332 39.3227 474.204 39.5947 474.076 39.872L472.988 42H470.476ZM483.109 44.864L481.797 43.824C482.757 42.896 483.451 41.936 483.877 40.944C484.304 39.9413 484.517 38.8107 484.517 37.552C484.517 36.2827 484.304 35.152 483.877 34.16C483.451 33.168 482.757 32.208 481.797 31.28L483.109 30.24C484.144 31.1573 484.965 32.2293 485.573 33.456C486.181 34.6827 486.485 36.048 486.485 37.552C486.485 39.056 486.181 40.4213 485.573 41.648C484.965 42.864 484.144 43.936 483.109 44.864Z" fill="#232A3D"/>
<path d="M180 188V192.533H303.5V188" stroke="#1F69FF"/>
<rect x="224" y="189.6" width="36" height="6.4" fill="white"/>
<path d="M310 177H314.533V128H310" stroke="#1F69FF"/>
<rect x="312" y="165" width="25" height="6" transform="rotate(-90 312 165)" fill="white"/>
<path d="M28 287H23.4667L23.4667 233H28" stroke="#1F69FF"/>
<rect width="27.551" height="6" transform="matrix(0 -1 -1 0 26 273.776)" fill="white"/>
<path d="M237.264 195V193.096H240V187.224H237.744V185.768C238.203 185.693 238.597 185.619 238.928 185.544C239.269 185.459 239.573 185.363 239.84 185.256C240.107 185.139 240.368 185 240.624 184.84H242.352V193.096H244.656V195H237.264Z" fill="#1F69FF"/>
<path d="M314.152 160.832V150.416C314.152 149.701 314.275 149.056 314.52 148.48C314.776 147.893 315.16 147.435 315.672 147.104C316.195 146.763 316.856 146.592 317.656 146.592C318.243 146.592 318.797 146.699 319.32 146.912C319.843 147.115 320.269 147.435 320.6 147.872C320.931 148.299 321.096 148.843 321.096 149.504C321.096 150.037 320.984 150.501 320.76 150.896C320.536 151.291 320.195 151.627 319.736 151.904V151.968C320.152 152.043 320.525 152.213 320.856 152.48C321.187 152.736 321.448 153.067 321.64 153.472C321.832 153.867 321.928 154.309 321.928 154.8C321.928 155.589 321.768 156.235 321.448 156.736C321.139 157.227 320.744 157.595 320.264 157.84C319.784 158.075 319.293 158.192 318.792 158.192C318.397 158.192 317.987 158.117 317.56 157.968C317.144 157.808 316.749 157.525 316.376 157.12C316.397 157.749 316.419 158.368 316.44 158.976C316.472 159.595 316.504 160.213 316.536 160.832H314.152ZM318.104 156.272C318.381 156.272 318.632 156.213 318.856 156.096C319.091 155.968 319.277 155.787 319.416 155.552C319.555 155.307 319.624 155.008 319.624 154.656C319.624 154.229 319.512 153.872 319.288 153.584C319.064 153.285 318.723 153.136 318.264 153.136C318.029 153.136 317.816 153.168 317.624 153.232L317.336 151.52C317.72 151.456 318.019 151.344 318.232 151.184C318.456 151.013 318.611 150.805 318.696 150.56C318.792 150.304 318.84 150.027 318.84 149.728C318.84 149.291 318.723 148.971 318.488 148.768C318.253 148.555 317.981 148.448 317.672 148.448C317.267 148.448 316.963 148.64 316.76 149.024C316.557 149.408 316.445 149.963 316.424 150.688C316.413 151.467 316.397 152.235 316.376 152.992C316.355 153.749 316.344 154.517 316.344 155.296C316.643 155.68 316.941 155.941 317.24 156.08C317.539 156.208 317.827 156.272 318.104 156.272ZM327.186 160.976V156.496H325.442V155.424C325.954 155.349 326.359 155.269 326.658 155.184C326.956 155.099 327.255 154.949 327.554 154.736H328.914V160.976H327.186ZM325.25 160.976V159.536H330.594V160.976H325.25Z" fill="#1F69FF"/>
<path d="M11.152 265.832V255.416C11.152 254.701 11.2747 254.056 11.52 253.48C11.776 252.893 12.16 252.435 12.672 252.104C13.1947 251.763 13.856 251.592 14.656 251.592C15.2427 251.592 15.7973 251.699 16.32 251.912C16.8427 252.115 17.2693 252.435 17.6 252.872C17.9307 253.299 18.096 253.843 18.096 254.504C18.096 255.037 17.984 255.501 17.76 255.896C17.536 256.291 17.1947 256.627 16.736 256.904V256.968C17.152 257.043 17.5253 257.213 17.856 257.48C18.1867 257.736 18.448 258.067 18.64 258.472C18.832 258.867 18.928 259.309 18.928 259.8C18.928 260.589 18.768 261.235 18.448 261.736C18.1387 262.227 17.744 262.595 17.264 262.84C16.784 263.075 16.2933 263.192 15.792 263.192C15.3973 263.192 14.9867 263.117 14.56 262.968C14.144 262.808 13.7493 262.525 13.376 262.12C13.3973 262.749 13.4187 263.368 13.44 263.976C13.472 264.595 13.504 265.213 13.536 265.832H11.152ZM15.104 261.272C15.3813 261.272 15.632 261.213 15.856 261.096C16.0907 260.968 16.2773 260.787 16.416 260.552C16.5547 260.307 16.624 260.008 16.624 259.656C16.624 259.229 16.512 258.872 16.288 258.584C16.064 258.285 15.7227 258.136 15.264 258.136C15.0293 258.136 14.816 258.168 14.624 258.232L14.336 256.52C14.72 256.456 15.0187 256.344 15.232 256.184C15.456 256.013 15.6107 255.805 15.696 255.56C15.792 255.304 15.84 255.027 15.84 254.728C15.84 254.291 15.7227 253.971 15.488 253.768C15.2533 253.555 14.9813 253.448 14.672 253.448C14.2667 253.448 13.9627 253.64 13.76 254.024C13.5573 254.408 13.4453 254.963 13.424 255.688C13.4133 256.467 13.3973 257.235 13.376 257.992C13.3547 258.749 13.344 259.517 13.344 260.296C13.6427 260.68 13.9413 260.941 14.24 261.08C14.5387 261.208 14.8267 261.272 15.104 261.272ZM24.3938 266.168C23.8604 266.168 23.3858 266.035 22.9698 265.768C22.5538 265.512 22.2231 265.133 21.9778 264.632C21.7431 264.141 21.6258 263.544 21.6258 262.84C21.6258 262.147 21.7431 261.555 21.9778 261.064C22.2231 260.573 22.5538 260.2 22.9698 259.944C23.3858 259.677 23.8604 259.544 24.3938 259.544C24.9271 259.544 25.4018 259.677 25.8178 259.944C26.2338 260.2 26.5591 260.573 26.7938 261.064C27.0391 261.555 27.1618 262.147 27.1618 262.84C27.1618 263.544 27.0391 264.141 26.7938 264.632C26.5591 265.133 26.2338 265.512 25.8178 265.768C25.4018 266.035 24.9271 266.168 24.3938 266.168ZM24.3938 264.856C24.6924 264.856 24.9538 264.707 25.1778 264.408C25.4018 264.109 25.5138 263.587 25.5138 262.84C25.5138 262.104 25.4018 261.592 25.1778 261.304C24.9538 261.016 24.6924 260.872 24.3938 260.872C24.0951 260.872 23.8338 261.016 23.6098 261.304C23.3858 261.592 23.2738 262.104 23.2738 262.84C23.2738 263.587 23.3858 264.109 23.6098 264.408C23.8338 264.707 24.0951 264.856 24.3938 264.856Z" fill="#1F69FF"/>
<rect opacity="0.15" x="440" y="20" width="58" height="32" rx="5" fill="#C74E4E"/>
<path d="M36 20V285H471" stroke="#232A3D" stroke-width="3"/>
</svg>
