<svg width="600" height="380" viewBox="0 0 600 380" fill="none" xmlns="http://www.w3.org/2000/svg">
<rect width="600" height="380" fill="white"/>
<path d="M69.5731 77.552V75.888H76.9331V77.552H69.5731ZM84.3669 82.192C83.3749 82.192 82.6229 81.8933 82.1109 81.296C81.5989 80.6987 81.3429 79.8987 81.3429 78.896V72.64H78.8629V70.8H83.6949V78.992C83.6949 79.4827 83.8282 79.824 84.0949 80.016C84.3615 80.1973 84.6549 80.288 84.9749 80.288C85.1669 80.288 85.3589 80.2667 85.5509 80.224C85.7535 80.1813 85.9775 80.1173 86.2229 80.032L86.7349 81.76C86.3295 81.888 85.9562 81.9893 85.6149 82.064C85.2842 82.1493 84.8682 82.192 84.3669 82.192ZM92.4406 82.192C91.7473 82.192 91.0913 82.032 90.4726 81.712C89.854 81.3813 89.3526 80.9067 88.9686 80.288C88.5846 79.6587 88.3926 78.9067 88.3926 78.032C88.3926 77.1573 88.5846 76.4107 88.9686 75.792C89.3526 75.1627 89.854 74.688 90.4726 74.368C91.0913 74.0373 91.7473 73.872 92.4406 73.872C93.134 73.872 93.79 74.0373 94.4086 74.368C95.0273 74.688 95.5286 75.1627 95.9126 75.792C96.2966 76.4107 96.4886 77.1573 96.4886 78.032C96.4886 78.9067 96.2966 79.6587 95.9126 80.288C95.5286 80.9067 95.0273 81.3813 94.4086 81.712C93.79 82.032 93.134 82.192 92.4406 82.192ZM92.4406 80.288C92.8033 80.288 93.102 80.1973 93.3366 80.016C93.582 79.8347 93.7633 79.5733 93.8806 79.232C94.0086 78.8907 94.0726 78.4907 94.0726 78.032C94.0726 77.5733 94.0086 77.1733 93.8806 76.832C93.7633 76.4907 93.582 76.2293 93.3366 76.048C93.102 75.8667 92.8033 75.776 92.4406 75.776C92.078 75.776 91.774 75.8667 91.5286 76.048C91.294 76.2293 91.1126 76.4907 90.9846 76.832C90.8673 77.1733 90.8086 77.5733 90.8086 78.032C90.8086 78.4907 90.8673 78.8907 90.9846 79.232C91.1126 79.5733 91.294 79.8347 91.5286 80.016C91.774 80.1973 92.078 80.288 92.4406 80.288ZM101.666 85.376C100.973 85.376 100.354 85.3013 99.8104 85.152C99.277 85.0133 98.8504 84.7947 98.5304 84.496C98.221 84.1973 98.0664 83.8133 98.0664 83.344C98.0664 83.024 98.1677 82.7307 98.3704 82.464C98.5837 82.1973 98.893 81.9627 99.2984 81.76V81.696C99.0744 81.5467 98.8824 81.3653 98.7224 81.152C98.573 80.9387 98.4984 80.6667 98.4984 80.336C98.4984 80.0693 98.5837 79.8027 98.7544 79.536C98.9357 79.2693 99.165 79.04 99.4424 78.848V78.784C99.1544 78.592 98.909 78.32 98.7064 77.968C98.5037 77.616 98.4024 77.2107 98.4024 76.752C98.4024 76.112 98.557 75.5787 98.8664 75.152C99.1864 74.7253 99.6024 74.4053 100.114 74.192C100.637 73.9787 101.197 73.872 101.794 73.872C102.285 73.872 102.722 73.936 103.106 74.064H106.322V75.792H104.722C104.818 75.9093 104.898 76.064 104.962 76.256C105.037 76.4373 105.074 76.6293 105.074 76.832C105.074 77.44 104.925 77.9413 104.626 78.336C104.338 78.72 103.949 79.008 103.458 79.2C102.968 79.392 102.413 79.488 101.794 79.488C101.645 79.488 101.474 79.4773 101.282 79.456C101.09 79.424 100.898 79.3813 100.706 79.328C100.578 79.4133 100.488 79.4987 100.434 79.584C100.381 79.6693 100.354 79.7813 100.354 79.92C100.354 80.1227 100.461 80.272 100.674 80.368C100.898 80.464 101.24 80.512 101.698 80.512H103.17C104.216 80.512 105.01 80.6667 105.554 80.976C106.109 81.2853 106.386 81.7973 106.386 82.512C106.386 83.0667 106.194 83.5573 105.81 83.984C105.426 84.4213 104.877 84.7627 104.162 85.008C103.458 85.2533 102.626 85.376 101.666 85.376ZM101.794 78.064C102.018 78.064 102.221 78.016 102.402 77.92C102.584 77.824 102.728 77.68 102.834 77.488C102.941 77.2853 102.994 77.04 102.994 76.752C102.994 76.4747 102.941 76.24 102.834 76.048C102.728 75.856 102.584 75.712 102.402 75.616C102.221 75.5093 102.018 75.456 101.794 75.456C101.581 75.456 101.384 75.5093 101.202 75.616C101.021 75.712 100.877 75.856 100.77 76.048C100.664 76.24 100.61 76.4747 100.61 76.752C100.61 77.04 100.664 77.2853 100.77 77.488C100.877 77.68 101.021 77.824 101.202 77.92C101.384 78.016 101.581 78.064 101.794 78.064ZM102.002 83.888C102.429 83.888 102.802 83.8453 103.122 83.76C103.442 83.6747 103.693 83.5573 103.874 83.408C104.056 83.2693 104.146 83.1093 104.146 82.928C104.146 82.6613 104.029 82.4907 103.794 82.416C103.56 82.352 103.213 82.32 102.754 82.32H101.762C101.474 82.32 101.234 82.3093 101.042 82.288C100.861 82.2667 100.696 82.24 100.546 82.208C100.344 82.336 100.2 82.4587 100.114 82.576C100.029 82.704 99.9864 82.8427 99.9864 82.992C99.9864 83.28 100.168 83.4987 100.53 83.648C100.893 83.808 101.384 83.888 102.002 83.888ZM113.1 84.864C112.065 83.936 111.244 82.864 110.636 81.648C110.028 80.4213 109.724 79.056 109.724 77.552C109.724 76.048 110.028 74.6827 110.636 73.456C111.244 72.2293 112.065 71.1573 113.1 70.24L114.412 71.28C113.452 72.208 112.759 73.168 112.332 74.16C111.905 75.152 111.692 76.2827 111.692 77.552C111.692 78.8107 111.905 79.9413 112.332 80.944C112.759 81.936 113.452 82.896 114.412 83.824L113.1 84.864ZM117.574 82V70.784H119.926V73.536L119.798 75.056H119.846C120.145 74.7467 120.507 74.4747 120.934 74.24C121.371 73.9947 121.889 73.872 122.486 73.872C123.382 73.872 124.033 74.16 124.438 74.736C124.854 75.312 125.062 76.1013 125.062 77.104V82H122.71V77.408C122.71 76.8747 122.619 76.4853 122.438 76.24C122.267 75.9947 121.969 75.872 121.542 75.872C121.222 75.872 120.939 75.9467 120.694 76.096C120.459 76.2347 120.203 76.4373 119.926 76.704V82H117.574ZM132.288 84.864C131.253 83.936 130.432 82.864 129.824 81.648C129.216 80.4213 128.912 79.056 128.912 77.552C128.912 76.048 129.216 74.6827 129.824 73.456C130.432 72.2293 131.253 71.1573 132.288 70.24L133.6 71.28C132.64 72.208 131.946 73.168 131.52 74.16C131.093 75.152 130.88 76.2827 130.88 77.552C130.88 78.8107 131.093 79.9413 131.52 80.944C131.946 81.936 132.64 82.896 133.6 83.824L132.288 84.864ZM136.761 84.832V74.416C136.761 73.7013 136.884 73.056 137.129 72.48C137.385 71.8933 137.769 71.4347 138.281 71.104C138.804 70.7627 139.465 70.592 140.265 70.592C140.852 70.592 141.407 70.6987 141.929 70.912C142.452 71.1147 142.879 71.4347 143.209 71.872C143.54 72.2987 143.705 72.8427 143.705 73.504C143.705 74.0373 143.593 74.5013 143.369 74.896C143.145 75.2907 142.804 75.6267 142.345 75.904V75.968C142.761 76.0427 143.135 76.2133 143.465 76.48C143.796 76.736 144.057 77.0667 144.249 77.472C144.441 77.8667 144.537 78.3093 144.537 78.8C144.537 79.5893 144.377 80.2347 144.057 80.736C143.748 81.2267 143.353 81.5947 142.873 81.84C142.393 82.0747 141.903 82.192 141.401 82.192C141.007 82.192 140.596 82.1173 140.169 81.968C139.753 81.808 139.359 81.5253 138.985 81.12C139.007 81.7493 139.028 82.368 139.049 82.976C139.081 83.5947 139.113 84.2133 139.145 84.832H136.761ZM140.713 80.272C140.991 80.272 141.241 80.2133 141.465 80.096C141.7 79.968 141.887 79.7867 142.025 79.552C142.164 79.3067 142.233 79.008 142.233 78.656C142.233 78.2293 142.121 77.872 141.897 77.584C141.673 77.2853 141.332 77.136 140.873 77.136C140.639 77.136 140.425 77.168 140.233 77.232L139.945 75.52C140.329 75.456 140.628 75.344 140.841 75.184C141.065 75.0133 141.22 74.8053 141.305 74.56C141.401 74.304 141.449 74.0267 141.449 73.728C141.449 73.2907 141.332 72.9707 141.097 72.768C140.863 72.5547 140.591 72.448 140.281 72.448C139.876 72.448 139.572 72.64 139.369 73.024C139.167 73.408 139.055 73.9627 139.033 74.688C139.023 75.4667 139.007 76.2347 138.985 76.992C138.964 77.7493 138.953 78.5173 138.953 79.296C139.252 79.68 139.551 79.9413 139.849 80.08C140.148 80.208 140.436 80.272 140.713 80.272ZM150.003 85.168C149.47 85.168 148.995 85.0347 148.579 84.768C148.163 84.512 147.832 84.1333 147.587 83.632C147.352 83.1413 147.235 82.544 147.235 81.84C147.235 81.1467 147.352 80.5547 147.587 80.064C147.832 79.5733 148.163 79.2 148.579 78.944C148.995 78.6773 149.47 78.544 150.003 78.544C150.536 78.544 151.011 78.6773 151.427 78.944C151.843 79.2 152.168 79.5733 152.403 80.064C152.648 80.5547 152.771 81.1467 152.771 81.84C152.771 82.544 152.648 83.1413 152.403 83.632C152.168 84.1333 151.843 84.512 151.427 84.768C151.011 85.0347 150.536 85.168 150.003 85.168ZM150.003 83.856C150.302 83.856 150.563 83.7067 150.787 83.408C151.011 83.1093 151.123 82.5867 151.123 81.84C151.123 81.104 151.011 80.592 150.787 80.304C150.563 80.016 150.302 79.872 150.003 79.872C149.704 79.872 149.443 80.016 149.219 80.304C148.995 80.592 148.883 81.104 148.883 81.84C148.883 82.5867 148.995 83.1093 149.219 83.408C149.443 83.7067 149.704 83.856 150.003 83.856ZM168.327 80.496V77.552H165.511V75.888H168.327V72.944H170.055V75.888H172.871V77.552H170.055V80.496H168.327ZM184.73 84.832V74.416C184.73 73.7013 184.853 73.056 185.098 72.48C185.354 71.8933 185.738 71.4347 186.25 71.104C186.773 70.7627 187.434 70.592 188.234 70.592C188.821 70.592 189.375 70.6987 189.898 70.912C190.421 71.1147 190.847 71.4347 191.178 71.872C191.509 72.2987 191.674 72.8427 191.674 73.504C191.674 74.0373 191.562 74.5013 191.338 74.896C191.114 75.2907 190.773 75.6267 190.314 75.904V75.968C190.73 76.0427 191.103 76.2133 191.434 76.48C191.765 76.736 192.026 77.0667 192.218 77.472C192.41 77.8667 192.506 78.3093 192.506 78.8C192.506 79.5893 192.346 80.2347 192.026 80.736C191.717 81.2267 191.322 81.5947 190.842 81.84C190.362 82.0747 189.871 82.192 189.37 82.192C188.975 82.192 188.565 82.1173 188.138 81.968C187.722 81.808 187.327 81.5253 186.954 81.12C186.975 81.7493 186.997 82.368 187.018 82.976C187.05 83.5947 187.082 84.2133 187.114 84.832H184.73ZM188.682 80.272C188.959 80.272 189.21 80.2133 189.434 80.096C189.669 79.968 189.855 79.7867 189.994 79.552C190.133 79.3067 190.202 79.008 190.202 78.656C190.202 78.2293 190.09 77.872 189.866 77.584C189.642 77.2853 189.301 77.136 188.842 77.136C188.607 77.136 188.394 77.168 188.202 77.232L187.914 75.52C188.298 75.456 188.597 75.344 188.81 75.184C189.034 75.0133 189.189 74.8053 189.274 74.56C189.37 74.304 189.418 74.0267 189.418 73.728C189.418 73.2907 189.301 72.9707 189.066 72.768C188.831 72.5547 188.559 72.448 188.25 72.448C187.845 72.448 187.541 72.64 187.338 73.024C187.135 73.408 187.023 73.9627 187.002 74.688C186.991 75.4667 186.975 76.2347 186.954 76.992C186.933 77.7493 186.922 78.5173 186.922 79.296C187.221 79.68 187.519 79.9413 187.818 80.08C188.117 80.208 188.405 80.272 188.682 80.272ZM197.764 84.976V80.496H196.02V79.424C196.532 79.3493 196.937 79.2693 197.236 79.184C197.535 79.0987 197.833 78.9493 198.132 78.736H199.492V84.976H197.764ZM195.828 84.976V83.536H201.172V84.976H195.828ZM203.054 82L206.094 76.64L203.23 71.568H205.87L206.878 73.536C206.995 73.7707 207.118 74.0267 207.246 74.304C207.374 74.5813 207.518 74.8853 207.678 75.216H207.742C207.859 74.8853 207.976 74.5813 208.094 74.304C208.211 74.0267 208.328 73.7707 208.446 73.536L209.374 71.568H211.902L209.038 76.752L212.078 82H209.454L208.318 79.872C208.179 79.5947 208.04 79.3227 207.902 79.056C207.774 78.7787 207.635 78.48 207.486 78.16H207.422C207.294 78.48 207.166 78.7787 207.038 79.056C206.91 79.3227 206.782 79.5947 206.654 79.872L205.566 82H203.054ZM215.687 84.864L214.375 83.824C215.335 82.896 216.029 81.936 216.455 80.944C216.882 79.9413 217.095 78.8107 217.095 77.552C217.095 76.2827 216.882 75.152 216.455 74.16C216.029 73.168 215.335 72.208 214.375 71.28L215.687 70.24C216.722 71.1573 217.543 72.2293 218.151 73.456C218.759 74.6827 219.063 76.048 219.063 77.552C219.063 79.056 218.759 80.4213 218.151 81.648C217.543 82.864 216.722 83.936 215.687 84.864ZM225.281 84.864L223.969 83.824C224.929 82.896 225.622 81.936 226.049 80.944C226.476 79.9413 226.689 78.8107 226.689 77.552C226.689 76.2827 226.476 75.152 226.049 74.16C225.622 73.168 224.929 72.208 223.969 71.28L225.281 70.24C226.316 71.1573 227.137 72.2293 227.745 73.456C228.353 74.6827 228.657 76.048 228.657 77.552C228.657 79.056 228.353 80.4213 227.745 81.648C227.137 82.864 226.316 83.936 225.281 84.864Z" fill="#232A3D"/>
<path d="M347.386 81.552V79.888H354.746V81.552H347.386ZM362.179 86.192C361.187 86.192 360.435 85.8933 359.923 85.296C359.411 84.6987 359.155 83.8987 359.155 82.896V76.64H356.675V74.8H361.507V82.992C361.507 83.4827 361.641 83.824 361.907 84.016C362.174 84.1973 362.467 84.288 362.787 84.288C362.979 84.288 363.171 84.2667 363.363 84.224C363.566 84.1813 363.79 84.1173 364.035 84.032L364.547 85.76C364.142 85.888 363.769 85.9893 363.427 86.064C363.097 86.1493 362.681 86.192 362.179 86.192ZM370.253 86.192C369.56 86.192 368.904 86.032 368.285 85.712C367.666 85.3813 367.165 84.9067 366.781 84.288C366.397 83.6587 366.205 82.9067 366.205 82.032C366.205 81.1573 366.397 80.4107 366.781 79.792C367.165 79.1627 367.666 78.688 368.285 78.368C368.904 78.0373 369.56 77.872 370.253 77.872C370.946 77.872 371.602 78.0373 372.221 78.368C372.84 78.688 373.341 79.1627 373.725 79.792C374.109 80.4107 374.301 81.1573 374.301 82.032C374.301 82.9067 374.109 83.6587 373.725 84.288C373.341 84.9067 372.84 85.3813 372.221 85.712C371.602 86.032 370.946 86.192 370.253 86.192ZM370.253 84.288C370.616 84.288 370.914 84.1973 371.149 84.016C371.394 83.8347 371.576 83.5733 371.693 83.232C371.821 82.8907 371.885 82.4907 371.885 82.032C371.885 81.5733 371.821 81.1733 371.693 80.832C371.576 80.4907 371.394 80.2293 371.149 80.048C370.914 79.8667 370.616 79.776 370.253 79.776C369.89 79.776 369.586 79.8667 369.341 80.048C369.106 80.2293 368.925 80.4907 368.797 80.832C368.68 81.1733 368.621 81.5733 368.621 82.032C368.621 82.4907 368.68 82.8907 368.797 83.232C368.925 83.5733 369.106 83.8347 369.341 84.016C369.586 84.1973 369.89 84.288 370.253 84.288ZM379.479 89.376C378.786 89.376 378.167 89.3013 377.623 89.152C377.09 89.0133 376.663 88.7947 376.343 88.496C376.034 88.1973 375.879 87.8133 375.879 87.344C375.879 87.024 375.98 86.7307 376.183 86.464C376.396 86.1973 376.706 85.9627 377.111 85.76V85.696C376.887 85.5467 376.695 85.3653 376.535 85.152C376.386 84.9387 376.311 84.6667 376.311 84.336C376.311 84.0693 376.396 83.8027 376.567 83.536C376.748 83.2693 376.978 83.04 377.255 82.848V82.784C376.967 82.592 376.722 82.32 376.519 81.968C376.316 81.616 376.215 81.2107 376.215 80.752C376.215 80.112 376.37 79.5787 376.679 79.152C376.999 78.7253 377.415 78.4053 377.927 78.192C378.45 77.9787 379.01 77.872 379.607 77.872C380.098 77.872 380.535 77.936 380.919 78.064H384.135V79.792H382.535C382.631 79.9093 382.711 80.064 382.775 80.256C382.85 80.4373 382.887 80.6293 382.887 80.832C382.887 81.44 382.738 81.9413 382.439 82.336C382.151 82.72 381.762 83.008 381.271 83.2C380.78 83.392 380.226 83.488 379.607 83.488C379.458 83.488 379.287 83.4773 379.095 83.456C378.903 83.424 378.711 83.3813 378.519 83.328C378.391 83.4133 378.3 83.4987 378.247 83.584C378.194 83.6693 378.167 83.7813 378.167 83.92C378.167 84.1227 378.274 84.272 378.487 84.368C378.711 84.464 379.052 84.512 379.511 84.512H380.983C382.028 84.512 382.823 84.6667 383.367 84.976C383.922 85.2853 384.199 85.7973 384.199 86.512C384.199 87.0667 384.007 87.5573 383.623 87.984C383.239 88.4213 382.69 88.7627 381.975 89.008C381.271 89.2533 380.439 89.376 379.479 89.376ZM379.607 82.064C379.831 82.064 380.034 82.016 380.215 81.92C380.396 81.824 380.54 81.68 380.647 81.488C380.754 81.2853 380.807 81.04 380.807 80.752C380.807 80.4747 380.754 80.24 380.647 80.048C380.54 79.856 380.396 79.712 380.215 79.616C380.034 79.5093 379.831 79.456 379.607 79.456C379.394 79.456 379.196 79.5093 379.015 79.616C378.834 79.712 378.69 79.856 378.583 80.048C378.476 80.24 378.423 80.4747 378.423 80.752C378.423 81.04 378.476 81.2853 378.583 81.488C378.69 81.68 378.834 81.824 379.015 81.92C379.196 82.016 379.394 82.064 379.607 82.064ZM379.815 87.888C380.242 87.888 380.615 87.8453 380.935 87.76C381.255 87.6747 381.506 87.5573 381.687 87.408C381.868 87.2693 381.959 87.1093 381.959 86.928C381.959 86.6613 381.842 86.4907 381.607 86.416C381.372 86.352 381.026 86.32 380.567 86.32H379.575C379.287 86.32 379.047 86.3093 378.855 86.288C378.674 86.2667 378.508 86.24 378.359 86.208C378.156 86.336 378.012 86.4587 377.927 86.576C377.842 86.704 377.799 86.8427 377.799 86.992C377.799 87.28 377.98 87.4987 378.343 87.648C378.706 87.808 379.196 87.888 379.815 87.888ZM390.913 88.864C389.878 87.936 389.057 86.864 388.449 85.648C387.841 84.4213 387.537 83.056 387.537 81.552C387.537 80.048 387.841 78.6827 388.449 77.456C389.057 76.2293 389.878 75.1573 390.913 74.24L392.225 75.28C391.265 76.208 390.571 77.168 390.145 78.16C389.718 79.152 389.505 80.2827 389.505 81.552C389.505 82.8107 389.718 83.9413 390.145 84.944C390.571 85.936 391.265 86.896 392.225 87.824L390.913 88.864ZM395.498 86V84.096H398.234V78.224H395.978V76.768C396.437 76.6933 396.832 76.6187 397.162 76.544C397.504 76.4587 397.808 76.3627 398.074 76.256C398.341 76.1387 398.602 76 398.858 75.84H400.586V84.096H402.89V86H395.498ZM414.542 81.552V79.888H421.902V81.552H414.542ZM433.761 86V74.784H436.113V77.536L435.985 79.056H436.033C436.332 78.7467 436.695 78.4747 437.121 78.24C437.559 77.9947 438.076 77.872 438.673 77.872C439.569 77.872 440.22 78.16 440.625 78.736C441.041 79.312 441.249 80.1013 441.249 81.104V86H438.897V81.408C438.897 80.8747 438.807 80.4853 438.625 80.24C438.455 79.9947 438.156 79.872 437.729 79.872C437.409 79.872 437.127 79.9467 436.881 80.096C436.647 80.2347 436.391 80.4373 436.113 80.704V86H433.761ZM448.475 88.864C447.44 87.936 446.619 86.864 446.011 85.648C445.403 84.4213 445.099 83.056 445.099 81.552C445.099 80.048 445.403 78.6827 446.011 77.456C446.619 76.2293 447.44 75.1573 448.475 74.24L449.787 75.28C448.827 76.208 448.134 77.168 447.707 78.16C447.28 79.152 447.067 80.2827 447.067 81.552C447.067 82.8107 447.28 83.9413 447.707 84.944C448.134 85.936 448.827 86.896 449.787 87.824L448.475 88.864ZM452.949 88.832V78.416C452.949 77.7013 453.072 77.056 453.317 76.48C453.573 75.8933 453.957 75.4347 454.469 75.104C454.992 74.7627 455.653 74.592 456.453 74.592C457.04 74.592 457.594 74.6987 458.117 74.912C458.64 75.1147 459.066 75.4347 459.397 75.872C459.728 76.2987 459.893 76.8427 459.893 77.504C459.893 78.0373 459.781 78.5013 459.557 78.896C459.333 79.2907 458.992 79.6267 458.533 79.904V79.968C458.949 80.0427 459.322 80.2133 459.653 80.48C459.984 80.736 460.245 81.0667 460.437 81.472C460.629 81.8667 460.725 82.3093 460.725 82.8C460.725 83.5893 460.565 84.2347 460.245 84.736C459.936 85.2267 459.541 85.5947 459.061 85.84C458.581 86.0747 458.09 86.192 457.589 86.192C457.194 86.192 456.784 86.1173 456.357 85.968C455.941 85.808 455.546 85.5253 455.173 85.12C455.194 85.7493 455.216 86.368 455.237 86.976C455.269 87.5947 455.301 88.2133 455.333 88.832H452.949ZM456.901 84.272C457.178 84.272 457.429 84.2133 457.653 84.096C457.888 83.968 458.074 83.7867 458.213 83.552C458.352 83.3067 458.421 83.008 458.421 82.656C458.421 82.2293 458.309 81.872 458.085 81.584C457.861 81.2853 457.52 81.136 457.061 81.136C456.826 81.136 456.613 81.168 456.421 81.232L456.133 79.52C456.517 79.456 456.816 79.344 457.029 79.184C457.253 79.0133 457.408 78.8053 457.493 78.56C457.589 78.304 457.637 78.0267 457.637 77.728C457.637 77.2907 457.52 76.9707 457.285 76.768C457.05 76.5547 456.778 76.448 456.469 76.448C456.064 76.448 455.76 76.64 455.557 77.024C455.354 77.408 455.242 77.9627 455.221 78.688C455.21 79.4667 455.194 80.2347 455.173 80.992C455.152 81.7493 455.141 82.5173 455.141 83.296C455.44 83.68 455.738 83.9413 456.037 84.08C456.336 84.208 456.624 84.272 456.901 84.272ZM466.191 89.168C465.657 89.168 465.183 89.0347 464.767 88.768C464.351 88.512 464.02 88.1333 463.775 87.632C463.54 87.1413 463.423 86.544 463.423 85.84C463.423 85.1467 463.54 84.5547 463.775 84.064C464.02 83.5733 464.351 83.2 464.767 82.944C465.183 82.6773 465.657 82.544 466.191 82.544C466.724 82.544 467.199 82.6773 467.615 82.944C468.031 83.2 468.356 83.5733 468.591 84.064C468.836 84.5547 468.959 85.1467 468.959 85.84C468.959 86.544 468.836 87.1413 468.591 87.632C468.356 88.1333 468.031 88.512 467.615 88.768C467.199 89.0347 466.724 89.168 466.191 89.168ZM466.191 87.856C466.489 87.856 466.751 87.7067 466.975 87.408C467.199 87.1093 467.311 86.5867 467.311 85.84C467.311 85.104 467.199 84.592 466.975 84.304C466.751 84.016 466.489 83.872 466.191 83.872C465.892 83.872 465.631 84.016 465.407 84.304C465.183 84.592 465.071 85.104 465.071 85.84C465.071 86.5867 465.183 87.1093 465.407 87.408C465.631 87.7067 465.892 87.856 466.191 87.856ZM484.514 84.496V81.552H481.698V79.888H484.514V76.944H486.242V79.888H489.058V81.552H486.242V84.496H484.514ZM500.918 88.832V78.416C500.918 77.7013 501.04 77.056 501.286 76.48C501.542 75.8933 501.926 75.4347 502.438 75.104C502.96 74.7627 503.622 74.592 504.422 74.592C505.008 74.592 505.563 74.6987 506.086 74.912C506.608 75.1147 507.035 75.4347 507.366 75.872C507.696 76.2987 507.862 76.8427 507.862 77.504C507.862 78.0373 507.75 78.5013 507.526 78.896C507.302 79.2907 506.96 79.6267 506.502 79.904V79.968C506.918 80.0427 507.291 80.2133 507.622 80.48C507.952 80.736 508.214 81.0667 508.406 81.472C508.598 81.8667 508.694 82.3093 508.694 82.8C508.694 83.5893 508.534 84.2347 508.214 84.736C507.904 85.2267 507.51 85.5947 507.03 85.84C506.55 86.0747 506.059 86.192 505.558 86.192C505.163 86.192 504.752 86.1173 504.326 85.968C503.91 85.808 503.515 85.5253 503.142 85.12C503.163 85.7493 503.184 86.368 503.206 86.976C503.238 87.5947 503.27 88.2133 503.302 88.832H500.918ZM504.87 84.272C505.147 84.272 505.398 84.2133 505.622 84.096C505.856 83.968 506.043 83.7867 506.182 83.552C506.32 83.3067 506.39 83.008 506.39 82.656C506.39 82.2293 506.278 81.872 506.054 81.584C505.83 81.2853 505.488 81.136 505.03 81.136C504.795 81.136 504.582 81.168 504.39 81.232L504.102 79.52C504.486 79.456 504.784 79.344 504.998 79.184C505.222 79.0133 505.376 78.8053 505.462 78.56C505.558 78.304 505.606 78.0267 505.606 77.728C505.606 77.2907 505.488 76.9707 505.254 76.768C505.019 76.5547 504.747 76.448 504.438 76.448C504.032 76.448 503.728 76.64 503.526 77.024C503.323 77.408 503.211 77.9627 503.19 78.688C503.179 79.4667 503.163 80.2347 503.142 80.992C503.12 81.7493 503.11 82.5173 503.11 83.296C503.408 83.68 503.707 83.9413 504.006 84.08C504.304 84.208 504.592 84.272 504.87 84.272ZM513.951 88.976V84.496H512.207V83.424C512.719 83.3493 513.125 83.2693 513.423 83.184C513.722 83.0987 514.021 82.9493 514.319 82.736H515.679V88.976H513.951ZM512.015 88.976V87.536H517.359V88.976H512.015ZM519.241 86L522.281 80.64L519.417 75.568H522.057L523.065 77.536C523.182 77.7707 523.305 78.0267 523.433 78.304C523.561 78.5813 523.705 78.8853 523.865 79.216H523.929C524.046 78.8853 524.164 78.5813 524.281 78.304C524.398 78.0267 524.516 77.7707 524.633 77.536L525.561 75.568H528.089L525.225 80.752L528.265 86H525.641L524.505 83.872C524.366 83.5947 524.228 83.3227 524.089 83.056C523.961 82.7787 523.822 82.48 523.673 82.16H523.609C523.481 82.48 523.353 82.7787 523.225 83.056C523.097 83.3227 522.969 83.5947 522.841 83.872L521.753 86H519.241ZM531.875 88.864L530.563 87.824C531.523 86.896 532.216 85.936 532.643 84.944C533.07 83.9413 533.283 82.8107 533.283 81.552C533.283 80.2827 533.07 79.152 532.643 78.16C532.216 77.168 531.523 76.208 530.563 75.28L531.875 74.24C532.91 75.1573 533.731 76.2293 534.339 77.456C534.947 78.6827 535.251 80.048 535.251 81.552C535.251 83.056 534.947 84.4213 534.339 85.648C533.731 86.864 532.91 87.936 531.875 88.864ZM541.469 88.864L540.157 87.824C541.117 86.896 541.81 85.936 542.237 84.944C542.663 83.9413 542.877 82.8107 542.877 81.552C542.877 80.2827 542.663 79.152 542.237 78.16C541.81 77.168 541.117 76.208 540.157 75.28L541.469 74.24C542.503 75.1573 543.325 76.2293 543.933 77.456C544.541 78.6827 544.845 80.048 544.845 81.552C544.845 83.056 544.541 84.4213 543.933 85.648C543.325 86.864 542.503 87.936 541.469 88.864Z" fill="#232A3D"/>
<path d="M26.4944 318.192C25.4384 318.192 24.5958 317.733 23.9664 316.816C23.3478 315.899 23.0384 314.581 23.0384 312.864C23.0384 311.147 23.3478 309.845 23.9664 308.96C24.5958 308.075 25.4384 307.632 26.4944 307.632C27.5504 307.632 28.3878 308.075 29.0064 308.96C29.6358 309.845 29.9504 311.147 29.9504 312.864C29.9504 314.581 29.6358 315.899 29.0064 316.816C28.3878 317.733 27.5504 318.192 26.4944 318.192ZM26.4944 316.752C26.8251 316.752 27.1184 316.629 27.3744 316.384C27.6304 316.128 27.8278 315.717 27.9664 315.152C28.1158 314.587 28.1904 313.824 28.1904 312.864C28.1904 311.904 28.1158 311.147 27.9664 310.592C27.8278 310.037 27.6304 309.648 27.3744 309.424C27.1184 309.189 26.8251 309.072 26.4944 309.072C26.1744 309.072 25.8864 309.189 25.6304 309.424C25.3744 309.648 25.1718 310.037 25.0224 310.592C24.8731 311.147 24.7984 311.904 24.7984 312.864C24.7984 313.824 24.8731 314.587 25.0224 315.152C25.1718 315.717 25.3744 316.128 25.6304 316.384C25.8864 316.629 26.1744 316.752 26.4944 316.752Z" fill="#232A3D"/>
<path d="M323.494 319.192C322.438 319.192 321.596 318.733 320.966 317.816C320.348 316.899 320.038 315.581 320.038 313.864C320.038 312.147 320.348 310.845 320.966 309.96C321.596 309.075 322.438 308.632 323.494 308.632C324.55 308.632 325.388 309.075 326.006 309.96C326.636 310.845 326.95 312.147 326.95 313.864C326.95 315.581 326.636 316.899 326.006 317.816C325.388 318.733 324.55 319.192 323.494 319.192ZM323.494 317.752C323.825 317.752 324.118 317.629 324.374 317.384C324.63 317.128 324.828 316.717 324.966 316.152C325.116 315.587 325.19 314.824 325.19 313.864C325.19 312.904 325.116 312.147 324.966 311.592C324.828 311.037 324.63 310.648 324.374 310.424C324.118 310.189 323.825 310.072 323.494 310.072C323.174 310.072 322.886 310.189 322.63 310.424C322.374 310.648 322.172 311.037 322.022 311.592C321.873 312.147 321.798 312.904 321.798 313.864C321.798 314.824 321.873 315.587 322.022 316.152C322.172 316.717 322.374 317.128 322.63 317.384C322.886 317.629 323.174 317.752 323.494 317.752Z" fill="#232A3D"/>
<path d="M266.582 318V316.496H268.854V309.808H266.982V308.656C267.484 308.56 267.921 308.448 268.294 308.32C268.668 308.181 269.014 308.016 269.334 307.824H270.71V316.496H272.71V318H266.582Z" fill="#232A3D"/>
<path d="M562.582 319V317.496H564.854V310.808H562.982V309.656C563.484 309.56 563.921 309.448 564.294 309.32C564.668 309.181 565.014 309.016 565.334 308.824H566.71V317.496H568.71V319H562.582Z" fill="#232A3D"/>
<path d="M330 293.984C330 293.984 383.488 295.292 476.923 274.36C570.358 253.428 564.942 154 564.942 154" stroke="#9B51E0" stroke-width="3" stroke-linecap="round"/>
<path d="M267 293.984C267 293.984 213.512 295.292 120.077 274.36C26.6419 253.428 32.0585 154 32.0585 154" stroke="#9B51E0" stroke-width="3" stroke-linecap="round"/>
<path d="M148 146L148 300" stroke="#232A3D" stroke-width="1.5" stroke-linecap="round"/>
<path d="M269 301L27 300" stroke="#232A3D" stroke-width="1.5" stroke-linecap="square"/>
<line x1="269.5" y1="301.5" x2="269.5" y2="297.5" stroke="#232A3D" stroke-linecap="round"/>
<line x1="246.5" y1="300.5" x2="246.5" y2="297.5" stroke="#232A3D" stroke-linecap="round"/>
<line x1="224.5" y1="300.5" x2="224.5" y2="297.5" stroke="#232A3D" stroke-linecap="round"/>
<line x1="202.5" y1="300.5" x2="202.5" y2="297.5" stroke="#232A3D" stroke-linecap="round"/>
<line x1="180.5" y1="300.5" x2="180.5" y2="297.5" stroke="#232A3D" stroke-linecap="round"/>
<line x1="158.5" y1="300.5" x2="158.5" y2="297.5" stroke="#232A3D" stroke-linecap="round"/>
<line x1="146.5" y1="277.5" x2="149.5" y2="277.5" stroke="#232A3D" stroke-linecap="round"/>
<line x1="146.5" y1="233.5" x2="149.5" y2="233.5" stroke="#232A3D" stroke-linecap="round"/>
<line x1="146.5" y1="189.5" x2="149.5" y2="189.5" stroke="#232A3D" stroke-linecap="round"/>
<line x1="146.5" y1="255.5" x2="149.5" y2="255.5" stroke="#232A3D" stroke-linecap="round"/>
<line x1="146.5" y1="211.5" x2="149.5" y2="211.5" stroke="#232A3D" stroke-linecap="round"/>
<line x1="146.5" y1="167.5" x2="149.5" y2="167.5" stroke="#232A3D" stroke-linecap="round"/>
<line x1="136.5" y1="300.5" x2="136.5" y2="297.5" stroke="#232A3D" stroke-linecap="round"/>
<line x1="114.5" y1="300.5" x2="114.5" y2="297.5" stroke="#232A3D" stroke-linecap="round"/>
<line x1="92.5" y1="300.5" x2="92.5" y2="297.5" stroke="#232A3D" stroke-linecap="round"/>
<line x1="70.5" y1="300.5" x2="70.5" y2="297.5" stroke="#232A3D" stroke-linecap="round"/>
<line x1="48.5" y1="300.5" x2="48.5" y2="297.5" stroke="#232A3D" stroke-linecap="round"/>
<line x1="26.5" y1="300.5" x2="26.5" y2="297.5" stroke="#232A3D" stroke-linecap="round"/>
<path d="M444 146L444 300" stroke="#232A3D" stroke-width="1.5" stroke-linecap="round"/>
<path d="M565 301L323 300" stroke="#232A3D" stroke-width="1.5" stroke-linecap="square"/>
<line x1="565.5" y1="301.5" x2="565.5" y2="297.5" stroke="#232A3D" stroke-linecap="round"/>
<line x1="542.5" y1="300.5" x2="542.5" y2="297.5" stroke="#232A3D" stroke-linecap="round"/>
<line x1="520.5" y1="300.5" x2="520.5" y2="297.5" stroke="#232A3D" stroke-linecap="round"/>
<line x1="498.5" y1="300.5" x2="498.5" y2="297.5" stroke="#232A3D" stroke-linecap="round"/>
<line x1="476.5" y1="300.5" x2="476.5" y2="297.5" stroke="#232A3D" stroke-linecap="round"/>
<line x1="454.5" y1="300.5" x2="454.5" y2="297.5" stroke="#232A3D" stroke-linecap="round"/>
<line x1="442.5" y1="277.5" x2="445.5" y2="277.5" stroke="#232A3D" stroke-linecap="round"/>
<line x1="442.5" y1="233.5" x2="445.5" y2="233.5" stroke="#232A3D" stroke-linecap="round"/>
<line x1="442.5" y1="189.5" x2="445.5" y2="189.5" stroke="#232A3D" stroke-linecap="round"/>
<line x1="442.5" y1="255.5" x2="445.5" y2="255.5" stroke="#232A3D" stroke-linecap="round"/>
<line x1="442.5" y1="211.5" x2="445.5" y2="211.5" stroke="#232A3D" stroke-linecap="round"/>
<line x1="442.5" y1="167.5" x2="445.5" y2="167.5" stroke="#232A3D" stroke-linecap="round"/>
<line x1="432.5" y1="300.5" x2="432.5" y2="297.5" stroke="#232A3D" stroke-linecap="round"/>
<line x1="410.5" y1="300.5" x2="410.5" y2="297.5" stroke="#232A3D" stroke-linecap="round"/>
<line x1="388.5" y1="300.5" x2="388.5" y2="297.5" stroke="#232A3D" stroke-linecap="round"/>
<line x1="366.5" y1="300.5" x2="366.5" y2="297.5" stroke="#232A3D" stroke-linecap="round"/>
<line x1="344.5" y1="300.5" x2="344.5" y2="297.5" stroke="#232A3D" stroke-linecap="round"/>
<line x1="322.5" y1="300.5" x2="322.5" y2="297.5" stroke="#232A3D" stroke-linecap="round"/>
</svg>
