<svg width="632" height="311" viewBox="0 0 632 311" fill="none" xmlns="http://www.w3.org/2000/svg">
<rect width="632" height="311" fill="white"/>
<circle cx="49.8732" cy="186.451" r="7.32394" fill="#1F69FF"/>
<circle cx="49.8732" cy="234.056" r="7.32394" fill="#1F69FF"/>
<circle cx="91.9859" cy="205.676" r="7.32394" fill="#1F69FF"/>
<circle cx="106.634" cy="240.465" r="7.32394" fill="#1F69FF"/>
<circle cx="143.254" cy="241.38" r="7.32394" fill="#1F69FF"/>
<circle cx="119.451" cy="139.761" r="7.32394" fill="#FFD52B"/>
<circle cx="160.648" cy="139.761" r="7.32394" fill="#FFD52B"/>
<circle cx="187.197" cy="175.465" r="7.32394" fill="#FFD52B"/>
<circle cx="146" cy="175.465" r="7.32394" fill="#FFD52B"/>
<circle cx="167.972" cy="104.972" r="7.32394" fill="#FFD52B"/>
<circle cx="203.676" cy="132.437" r="7.32394" fill="#FFD52B"/>
<circle cx="77.338" cy="252.366" r="7.32394" fill="#1F69FF"/>
<path d="M577.606 113.211C477.817 113.211 477.817 176.38 477.817 176.38C477.817 176.38 477.817 241.38 368.873 241.38" stroke="#9B51E0" stroke-width="3"/>
<path d="M363.38 113.465L577.606 115.296" stroke="#232A3D" stroke-width="1.5" stroke-dasharray="4 4"/>
<path d="M364.296 241.38L578.521 243.211" stroke="#232A3D" stroke-width="1.5" stroke-dasharray="4 4"/>
<circle cx="500.704" cy="115.296" r="7.32394" fill="#FFD52B"/>
<circle cx="522.676" cy="115.296" r="7.32394" fill="#FFD52B"/>
<circle cx="537.324" cy="115.296" r="7.32394" fill="#FFD52B"/>
<circle cx="559.296" cy="115.296" r="7.32394" fill="#FFD52B"/>
<circle cx="566.62" cy="115.296" r="7.32394" fill="#FFD52B"/>
<circle cx="573.944" cy="115.296" r="7.32394" fill="#FFD52B"/>
<circle cx="376.197" cy="241.38" r="7.32394" fill="#1F69FF"/>
<circle cx="395.423" cy="241.38" r="7.32394" fill="#1F69FF"/>
<circle cx="405.493" cy="241.38" r="7.32394" fill="#1F69FF"/>
<circle cx="424.718" cy="241.38" r="7.32394" fill="#1F69FF"/>
<circle cx="439.366" cy="241.38" r="7.32394" fill="#1F69FF"/>
<path d="M341.859 247.972C340.539 247.972 339.486 247.399 338.699 246.252C337.926 245.106 337.539 243.459 337.539 241.312C337.539 239.166 337.926 237.539 338.699 236.432C339.486 235.326 340.539 234.772 341.859 234.772C343.179 234.772 344.226 235.326 344.999 236.432C345.786 237.539 346.179 239.166 346.179 241.312C346.179 243.459 345.786 245.106 344.999 246.252C344.226 247.399 343.179 247.972 341.859 247.972ZM341.859 246.172C342.273 246.172 342.639 246.019 342.959 245.712C343.279 245.392 343.526 244.879 343.699 244.172C343.886 243.466 343.979 242.512 343.979 241.312C343.979 240.112 343.886 239.166 343.699 238.472C343.526 237.779 343.279 237.292 342.959 237.012C342.639 236.719 342.273 236.572 341.859 236.572C341.459 236.572 341.099 236.719 340.779 237.012C340.459 237.292 340.206 237.779 340.019 238.472C339.833 239.166 339.739 240.112 339.739 241.312C339.739 242.512 339.833 243.466 340.019 244.172C340.206 244.879 340.459 245.392 340.779 245.712C341.099 246.019 341.459 246.172 341.859 246.172Z" fill="#232A3D"/>
<path d="M338.219 118.648V116.768H341.059V108.408H338.719V106.968C339.346 106.848 339.893 106.708 340.359 106.548C340.826 106.375 341.259 106.168 341.659 105.928H343.379V116.768H345.879V118.648H338.219Z" fill="#232A3D"/>
<circle cx="290" cy="164" r="31" fill="#232A3D"/>
<path d="M277 162.5C276.172 162.5 275.5 163.172 275.5 164C275.5 164.828 276.172 165.5 277 165.5L277 162.5ZM303.061 165.061C303.646 164.475 303.646 163.525 303.061 162.939L293.515 153.393C292.929 152.808 291.979 152.808 291.393 153.393C290.808 153.979 290.808 154.929 291.393 155.515L299.879 164L291.393 172.485C290.808 173.071 290.808 174.021 291.393 174.607C291.979 175.192 292.929 175.192 293.515 174.607L303.061 165.061ZM277 165.5L302 165.5L302 162.5L277 162.5L277 165.5Z" fill="white"/>
<path d="M221.689 38V24.92H224.009V36.04H229.449V38H221.689ZM235.294 38.24C234.481 38.24 233.721 38.04 233.014 37.64C232.308 37.2267 231.734 36.64 231.294 35.88C230.854 35.1067 230.634 34.18 230.634 33.1C230.634 32.0067 230.854 31.08 231.294 30.32C231.734 29.5467 232.308 28.96 233.014 28.56C233.721 28.1467 234.481 27.94 235.294 27.94C236.121 27.94 236.888 28.1467 237.594 28.56C238.301 28.96 238.874 29.5467 239.314 30.32C239.754 31.08 239.974 32.0067 239.974 33.1C239.974 34.18 239.754 35.1067 239.314 35.88C238.874 36.64 238.301 37.2267 237.594 37.64C236.888 38.04 236.121 38.24 235.294 38.24ZM235.294 36.36C236.014 36.36 236.581 36.06 236.994 35.46C237.408 34.86 237.614 34.0733 237.614 33.1C237.614 32.1133 237.408 31.32 236.994 30.72C236.581 30.12 236.014 29.82 235.294 29.82C234.574 29.82 234.008 30.12 233.594 30.72C233.194 31.32 232.994 32.1133 232.994 33.1C232.994 34.0733 233.194 34.86 233.594 35.46C234.008 36.06 234.574 36.36 235.294 36.36ZM245.671 42.34C244.898 42.34 244.198 42.2467 243.571 42.06C242.958 41.8733 242.471 41.5867 242.111 41.2C241.764 40.8267 241.591 40.3533 241.591 39.78C241.591 38.9667 242.058 38.2667 242.991 37.68V37.6C242.738 37.44 242.524 37.2267 242.351 36.96C242.191 36.6933 242.111 36.36 242.111 35.96C242.111 35.5733 242.218 35.2267 242.431 34.92C242.658 34.6 242.911 34.34 243.191 34.14V34.06C242.858 33.8067 242.558 33.4533 242.291 33C242.038 32.5467 241.911 32.0333 241.911 31.46C241.911 30.7 242.091 30.06 242.451 29.54C242.811 29.02 243.284 28.6267 243.871 28.36C244.471 28.08 245.111 27.94 245.791 27.94C246.058 27.94 246.311 27.9667 246.551 28.02C246.804 28.06 247.031 28.1133 247.231 28.18H250.751V29.88H248.951C249.111 30.0667 249.244 30.3067 249.351 30.6C249.458 30.88 249.511 31.1933 249.511 31.54C249.511 32.26 249.344 32.8733 249.011 33.38C248.678 33.8733 248.231 34.2467 247.671 34.5C247.111 34.7533 246.484 34.88 245.791 34.88C245.578 34.88 245.358 34.86 245.131 34.82C244.904 34.78 244.678 34.7133 244.451 34.62C244.304 34.7533 244.184 34.8867 244.091 35.02C244.011 35.1533 243.971 35.3333 243.971 35.56C243.971 35.84 244.084 36.06 244.311 36.22C244.551 36.38 244.971 36.46 245.571 36.46H247.311C248.498 36.46 249.391 36.6533 249.991 37.04C250.604 37.4133 250.911 38.0267 250.911 38.88C250.911 39.52 250.698 40.1 250.271 40.62C249.844 41.1533 249.238 41.5733 248.451 41.88C247.664 42.1867 246.738 42.34 245.671 42.34ZM245.791 33.44C246.258 33.44 246.658 33.2667 246.991 32.92C247.324 32.5733 247.491 32.0867 247.491 31.46C247.491 30.8467 247.324 30.3733 246.991 30.04C246.671 29.6933 246.271 29.52 245.791 29.52C245.311 29.52 244.904 29.6867 244.571 30.02C244.238 30.3533 244.071 30.8333 244.071 31.46C244.071 32.0867 244.238 32.5733 244.571 32.92C244.904 33.2667 245.311 33.44 245.791 33.44ZM246.031 40.84C246.818 40.84 247.458 40.68 247.951 40.36C248.444 40.04 248.691 39.6733 248.691 39.26C248.691 38.8733 248.538 38.6133 248.231 38.48C247.938 38.3467 247.511 38.28 246.951 38.28H245.611C245.078 38.28 244.631 38.2333 244.271 38.14C243.764 38.5267 243.511 38.96 243.511 39.44C243.511 39.88 243.738 40.22 244.191 40.46C244.644 40.7133 245.258 40.84 246.031 40.84ZM252.642 38V28.18H254.942V38H252.642ZM253.802 26.46C253.388 26.46 253.055 26.34 252.802 26.1C252.548 25.86 252.422 25.54 252.422 25.14C252.422 24.7533 252.548 24.44 252.802 24.2C253.055 23.96 253.388 23.84 253.802 23.84C254.215 23.84 254.548 23.96 254.802 24.2C255.055 24.44 255.182 24.7533 255.182 25.14C255.182 25.54 255.055 25.86 254.802 26.1C254.548 26.34 254.215 26.46 253.802 26.46ZM260.616 38.24C259.949 38.24 259.283 38.1133 258.616 37.86C257.949 37.5933 257.376 37.2667 256.896 36.88L257.976 35.4C258.416 35.7333 258.856 36 259.296 36.2C259.736 36.4 260.203 36.5 260.696 36.5C261.229 36.5 261.623 36.3867 261.876 36.16C262.129 35.9333 262.256 35.6533 262.256 35.32C262.256 35.04 262.149 34.8133 261.936 34.64C261.736 34.4533 261.476 34.2933 261.156 34.16C260.836 34.0133 260.503 33.8733 260.156 33.74C259.729 33.58 259.303 33.3867 258.876 33.16C258.463 32.92 258.123 32.62 257.856 32.26C257.589 31.8867 257.456 31.4267 257.456 30.88C257.456 30.0133 257.776 29.3067 258.416 28.76C259.056 28.2133 259.923 27.94 261.016 27.94C261.709 27.94 262.329 28.06 262.876 28.3C263.423 28.54 263.896 28.8133 264.296 29.12L263.236 30.52C262.889 30.2667 262.536 30.0667 262.176 29.92C261.829 29.76 261.463 29.68 261.076 29.68C260.583 29.68 260.216 29.7867 259.976 30C259.736 30.2 259.616 30.4533 259.616 30.76C259.616 31.1467 259.816 31.44 260.216 31.64C260.616 31.84 261.083 32.0333 261.616 32.22C262.069 32.38 262.509 32.58 262.936 32.82C263.363 33.0467 263.716 33.3467 263.996 33.72C264.289 34.0933 264.436 34.5867 264.436 35.2C264.436 36.04 264.109 36.76 263.456 37.36C262.803 37.9467 261.856 38.24 260.616 38.24ZM269.559 38.24C268.425 38.24 267.619 37.9133 267.139 37.26C266.672 36.5933 266.439 35.7333 266.439 34.68V30H265.039V28.28L266.559 28.18L266.839 25.5H268.759V28.18H271.259V30H268.759V34.68C268.759 35.8267 269.219 36.4 270.139 36.4C270.312 36.4 270.492 36.38 270.679 36.34C270.865 36.2867 271.025 36.2333 271.159 36.18L271.559 37.88C271.292 37.9733 270.985 38.0533 270.639 38.12C270.305 38.2 269.945 38.24 269.559 38.24ZM273.325 38V28.18H275.625V38H273.325ZM274.485 26.46C274.072 26.46 273.739 26.34 273.485 26.1C273.232 25.86 273.105 25.54 273.105 25.14C273.105 24.7533 273.232 24.44 273.485 24.2C273.739 23.96 274.072 23.84 274.485 23.84C274.899 23.84 275.232 23.96 275.485 24.2C275.739 24.44 275.865 24.7533 275.865 25.14C275.865 25.54 275.739 25.86 275.485 26.1C275.232 26.34 274.899 26.46 274.485 26.46ZM282.66 38.24C281.766 38.24 280.96 38.04 280.24 37.64C279.533 37.2267 278.966 36.64 278.54 35.88C278.126 35.1067 277.92 34.18 277.92 33.1C277.92 32.0067 278.146 31.08 278.6 30.32C279.053 29.5467 279.653 28.96 280.4 28.56C281.16 28.1467 281.973 27.94 282.84 27.94C283.466 27.94 284.013 28.0467 284.48 28.26C284.946 28.4733 285.36 28.7333 285.72 29.04L284.6 30.54C284.346 30.3133 284.086 30.14 283.82 30.02C283.553 29.8867 283.266 29.82 282.96 29.82C282.173 29.82 281.526 30.12 281.02 30.72C280.526 31.32 280.28 32.1133 280.28 33.1C280.28 34.0733 280.52 34.86 281 35.46C281.493 36.06 282.126 36.36 282.9 36.36C283.286 36.36 283.646 36.28 283.98 36.12C284.326 35.9467 284.64 35.7467 284.92 35.52L285.86 37.04C285.406 37.44 284.9 37.74 284.34 37.94C283.78 38.14 283.22 38.24 282.66 38.24ZM291.802 38V28.18H293.702L293.862 29.92H293.942C294.288 29.28 294.708 28.7933 295.202 28.46C295.695 28.1133 296.202 27.94 296.722 27.94C297.188 27.94 297.562 28.0067 297.842 28.14L297.442 30.14C297.268 30.0867 297.108 30.0467 296.962 30.02C296.815 29.9933 296.635 29.98 296.422 29.98C296.035 29.98 295.628 30.1333 295.202 30.44C294.775 30.7333 294.408 31.2533 294.102 32V38H291.802ZM303.267 38.24C302.361 38.24 301.541 38.04 300.807 37.64C300.074 37.2267 299.494 36.64 299.067 35.88C298.641 35.1067 298.427 34.18 298.427 33.1C298.427 32.0333 298.641 31.1133 299.067 30.34C299.507 29.5667 300.074 28.9733 300.767 28.56C301.461 28.1467 302.187 27.94 302.947 27.94C303.841 27.94 304.587 28.14 305.187 28.54C305.787 28.9267 306.241 29.4733 306.547 30.18C306.854 30.8733 307.007 31.68 307.007 32.6C307.007 33.08 306.974 33.4533 306.907 33.72H300.667C300.774 34.5867 301.087 35.26 301.607 35.74C302.127 36.22 302.781 36.46 303.567 36.46C303.994 36.46 304.387 36.4 304.747 36.28C305.121 36.1467 305.487 35.9667 305.847 35.74L306.627 37.18C306.161 37.4867 305.641 37.74 305.067 37.94C304.494 38.14 303.894 38.24 303.267 38.24ZM300.647 32.16H305.007C305.007 31.4 304.841 30.8067 304.507 30.38C304.174 29.94 303.674 29.72 303.007 29.72C302.434 29.72 301.921 29.9333 301.467 30.36C301.027 30.7733 300.754 31.3733 300.647 32.16ZM312.429 42.34C311.655 42.34 310.955 42.2467 310.329 42.06C309.715 41.8733 309.229 41.5867 308.869 41.2C308.522 40.8267 308.349 40.3533 308.349 39.78C308.349 38.9667 308.815 38.2667 309.749 37.68V37.6C309.495 37.44 309.282 37.2267 309.109 36.96C308.949 36.6933 308.869 36.36 308.869 35.96C308.869 35.5733 308.975 35.2267 309.189 34.92C309.415 34.6 309.669 34.34 309.949 34.14V34.06C309.615 33.8067 309.315 33.4533 309.049 33C308.795 32.5467 308.669 32.0333 308.669 31.46C308.669 30.7 308.849 30.06 309.209 29.54C309.569 29.02 310.042 28.6267 310.629 28.36C311.229 28.08 311.869 27.94 312.549 27.94C312.815 27.94 313.069 27.9667 313.309 28.02C313.562 28.06 313.789 28.1133 313.989 28.18H317.509V29.88H315.709C315.869 30.0667 316.002 30.3067 316.109 30.6C316.215 30.88 316.269 31.1933 316.269 31.54C316.269 32.26 316.102 32.8733 315.769 33.38C315.435 33.8733 314.989 34.2467 314.429 34.5C313.869 34.7533 313.242 34.88 312.549 34.88C312.335 34.88 312.115 34.86 311.889 34.82C311.662 34.78 311.435 34.7133 311.209 34.62C311.062 34.7533 310.942 34.8867 310.849 35.02C310.769 35.1533 310.729 35.3333 310.729 35.56C310.729 35.84 310.842 36.06 311.069 36.22C311.309 36.38 311.729 36.46 312.329 36.46H314.069C315.255 36.46 316.149 36.6533 316.749 37.04C317.362 37.4133 317.669 38.0267 317.669 38.88C317.669 39.52 317.455 40.1 317.029 40.62C316.602 41.1533 315.995 41.5733 315.209 41.88C314.422 42.1867 313.495 42.34 312.429 42.34ZM312.549 33.44C313.015 33.44 313.415 33.2667 313.749 32.92C314.082 32.5733 314.249 32.0867 314.249 31.46C314.249 30.8467 314.082 30.3733 313.749 30.04C313.429 29.6933 313.029 29.52 312.549 29.52C312.069 29.52 311.662 29.6867 311.329 30.02C310.995 30.3533 310.829 30.8333 310.829 31.46C310.829 32.0867 310.995 32.5733 311.329 32.92C311.662 33.2667 312.069 33.44 312.549 33.44ZM312.789 40.84C313.575 40.84 314.215 40.68 314.709 40.36C315.202 40.04 315.449 39.6733 315.449 39.26C315.449 38.8733 315.295 38.6133 314.989 38.48C314.695 38.3467 314.269 38.28 313.709 38.28H312.369C311.835 38.28 311.389 38.2333 311.029 38.14C310.522 38.5267 310.269 38.96 310.269 39.44C310.269 39.88 310.495 40.22 310.949 40.46C311.402 40.7133 312.015 40.84 312.789 40.84ZM319.399 38V28.18H321.299L321.459 29.92H321.539C321.886 29.28 322.306 28.7933 322.799 28.46C323.293 28.1133 323.799 27.94 324.319 27.94C324.786 27.94 325.159 28.0067 325.439 28.14L325.039 30.14C324.866 30.0867 324.706 30.0467 324.559 30.02C324.413 29.9933 324.233 29.98 324.019 29.98C323.633 29.98 323.226 30.1333 322.799 30.44C322.373 30.7333 322.006 31.2533 321.699 32V38H319.399ZM330.865 38.24C329.958 38.24 329.138 38.04 328.405 37.64C327.672 37.2267 327.092 36.64 326.665 35.88C326.238 35.1067 326.025 34.18 326.025 33.1C326.025 32.0333 326.238 31.1133 326.665 30.34C327.105 29.5667 327.672 28.9733 328.365 28.56C329.058 28.1467 329.785 27.94 330.545 27.94C331.438 27.94 332.185 28.14 332.785 28.54C333.385 28.9267 333.838 29.4733 334.145 30.18C334.452 30.8733 334.605 31.68 334.605 32.6C334.605 33.08 334.572 33.4533 334.505 33.72H328.265C328.372 34.5867 328.685 35.26 329.205 35.74C329.725 36.22 330.378 36.46 331.165 36.46C331.592 36.46 331.985 36.4 332.345 36.28C332.718 36.1467 333.085 35.9667 333.445 35.74L334.225 37.18C333.758 37.4867 333.238 37.74 332.665 37.94C332.092 38.14 331.492 38.24 330.865 38.24ZM328.245 32.16H332.605C332.605 31.4 332.438 30.8067 332.105 30.38C331.772 29.94 331.272 29.72 330.605 29.72C330.032 29.72 329.518 29.9333 329.065 30.36C328.625 30.7733 328.352 31.3733 328.245 32.16ZM339.542 38.24C338.875 38.24 338.208 38.1133 337.542 37.86C336.875 37.5933 336.302 37.2667 335.822 36.88L336.902 35.4C337.342 35.7333 337.782 36 338.222 36.2C338.662 36.4 339.128 36.5 339.622 36.5C340.155 36.5 340.548 36.3867 340.802 36.16C341.055 35.9333 341.182 35.6533 341.182 35.32C341.182 35.04 341.075 34.8133 340.862 34.64C340.662 34.4533 340.402 34.2933 340.082 34.16C339.762 34.0133 339.428 33.8733 339.082 33.74C338.655 33.58 338.228 33.3867 337.802 33.16C337.388 32.92 337.048 32.62 336.782 32.26C336.515 31.8867 336.382 31.4267 336.382 30.88C336.382 30.0133 336.702 29.3067 337.342 28.76C337.982 28.2133 338.848 27.94 339.942 27.94C340.635 27.94 341.255 28.06 341.802 28.3C342.348 28.54 342.822 28.8133 343.222 29.12L342.162 30.52C341.815 30.2667 341.462 30.0667 341.102 29.92C340.755 29.76 340.388 29.68 340.002 29.68C339.508 29.68 339.142 29.7867 338.902 30C338.662 30.2 338.542 30.4533 338.542 30.76C338.542 31.1467 338.742 31.44 339.142 31.64C339.542 31.84 340.008 32.0333 340.542 32.22C340.995 32.38 341.435 32.58 341.862 32.82C342.288 33.0467 342.642 33.3467 342.922 33.72C343.215 34.0933 343.362 34.5867 343.362 35.2C343.362 36.04 343.035 36.76 342.382 37.36C341.728 37.9467 340.782 38.24 339.542 38.24ZM348.155 38.24C347.488 38.24 346.822 38.1133 346.155 37.86C345.488 37.5933 344.915 37.2667 344.435 36.88L345.515 35.4C345.955 35.7333 346.395 36 346.835 36.2C347.275 36.4 347.742 36.5 348.235 36.5C348.768 36.5 349.162 36.3867 349.415 36.16C349.668 35.9333 349.795 35.6533 349.795 35.32C349.795 35.04 349.688 34.8133 349.475 34.64C349.275 34.4533 349.015 34.2933 348.695 34.16C348.375 34.0133 348.042 33.8733 347.695 33.74C347.268 33.58 346.842 33.3867 346.415 33.16C346.002 32.92 345.662 32.62 345.395 32.26C345.128 31.8867 344.995 31.4267 344.995 30.88C344.995 30.0133 345.315 29.3067 345.955 28.76C346.595 28.2133 347.462 27.94 348.555 27.94C349.248 27.94 349.868 28.06 350.415 28.3C350.962 28.54 351.435 28.8133 351.835 29.12L350.775 30.52C350.428 30.2667 350.075 30.0667 349.715 29.92C349.368 29.76 349.002 29.68 348.615 29.68C348.122 29.68 347.755 29.7867 347.515 30C347.275 30.2 347.155 30.4533 347.155 30.76C347.155 31.1467 347.355 31.44 347.755 31.64C348.155 31.84 348.622 32.0333 349.155 32.22C349.608 32.38 350.048 32.58 350.475 32.82C350.902 33.0467 351.255 33.3467 351.535 33.72C351.828 34.0933 351.975 34.5867 351.975 35.2C351.975 36.04 351.648 36.76 350.995 37.36C350.342 37.9467 349.395 38.24 348.155 38.24ZM354.028 38V28.18H356.328V38H354.028ZM355.188 26.46C354.775 26.46 354.442 26.34 354.188 26.1C353.935 25.86 353.808 25.54 353.808 25.14C353.808 24.7533 353.935 24.44 354.188 24.2C354.442 23.96 354.775 23.84 355.188 23.84C355.602 23.84 355.935 23.96 356.188 24.2C356.442 24.44 356.568 24.7533 356.568 25.14C356.568 25.54 356.442 25.86 356.188 26.1C355.935 26.34 355.602 26.46 355.188 26.46ZM363.283 38.24C362.469 38.24 361.709 38.04 361.003 37.64C360.296 37.2267 359.723 36.64 359.283 35.88C358.843 35.1067 358.623 34.18 358.623 33.1C358.623 32.0067 358.843 31.08 359.283 30.32C359.723 29.5467 360.296 28.96 361.003 28.56C361.709 28.1467 362.469 27.94 363.283 27.94C364.109 27.94 364.876 28.1467 365.583 28.56C366.289 28.96 366.863 29.5467 367.303 30.32C367.743 31.08 367.963 32.0067 367.963 33.1C367.963 34.18 367.743 35.1067 367.303 35.88C366.863 36.64 366.289 37.2267 365.583 37.64C364.876 38.04 364.109 38.24 363.283 38.24ZM363.283 36.36C364.003 36.36 364.569 36.06 364.983 35.46C365.396 34.86 365.603 34.0733 365.603 33.1C365.603 32.1133 365.396 31.32 364.983 30.72C364.569 30.12 364.003 29.82 363.283 29.82C362.563 29.82 361.996 30.12 361.583 30.72C361.183 31.32 360.983 32.1133 360.983 33.1C360.983 34.0733 361.183 34.86 361.583 35.46C361.996 36.06 362.563 36.36 363.283 36.36ZM370.239 38V28.18H372.139L372.299 29.5H372.379C372.819 29.0733 373.299 28.7067 373.819 28.4C374.339 28.0933 374.933 27.94 375.599 27.94C376.653 27.94 377.419 28.28 377.899 28.96C378.379 29.64 378.619 30.6 378.619 31.84V38H376.319V32.14C376.319 31.3267 376.199 30.7533 375.959 30.42C375.719 30.0867 375.326 29.92 374.779 29.92C374.353 29.92 373.973 30.0267 373.639 30.24C373.319 30.44 372.953 30.74 372.539 31.14V38H370.239Z" fill="#232A3D"/>
<path d="M132 98L132 274" stroke="#232A3D" stroke-width="1.5" stroke-linecap="round"/>
<path d="M253 275L11 274" stroke="#232A3D" stroke-width="1.5" stroke-linecap="square"/>
<line x1="253.5" y1="274.5" x2="253.5" y2="271.5" stroke="#232A3D" stroke-linecap="round"/>
<line x1="230.5" y1="274.5" x2="230.5" y2="271.5" stroke="#232A3D" stroke-linecap="round"/>
<line x1="208.5" y1="274.5" x2="208.5" y2="271.5" stroke="#232A3D" stroke-linecap="round"/>
<line x1="186.5" y1="274.5" x2="186.5" y2="271.5" stroke="#232A3D" stroke-linecap="round"/>
<line x1="164.5" y1="274.5" x2="164.5" y2="271.5" stroke="#232A3D" stroke-linecap="round"/>
<line x1="142.5" y1="274.5" x2="142.5" y2="271.5" stroke="#232A3D" stroke-linecap="round"/>
<line x1="130.5" y1="251.5" x2="133.5" y2="251.5" stroke="#232A3D" stroke-linecap="round"/>
<line x1="130.5" y1="207.5" x2="133.5" y2="207.5" stroke="#232A3D" stroke-linecap="round"/>
<line x1="130.5" y1="163.5" x2="133.5" y2="163.5" stroke="#232A3D" stroke-linecap="round"/>
<line x1="130.5" y1="229.5" x2="133.5" y2="229.5" stroke="#232A3D" stroke-linecap="round"/>
<line x1="130.5" y1="185.5" x2="133.5" y2="185.5" stroke="#232A3D" stroke-linecap="round"/>
<line x1="130.5" y1="141.5" x2="133.5" y2="141.5" stroke="#232A3D" stroke-linecap="round"/>
<line x1="130.5" y1="119.5" x2="133.5" y2="119.5" stroke="#232A3D" stroke-linecap="round"/>
<line x1="130.5" y1="97.5" x2="133.5" y2="97.5" stroke="#232A3D" stroke-linecap="round"/>
<line x1="120.5" y1="274.5" x2="120.5" y2="271.5" stroke="#232A3D" stroke-linecap="round"/>
<line x1="98.5" y1="274.5" x2="98.5" y2="271.5" stroke="#232A3D" stroke-linecap="round"/>
<line x1="76.5" y1="274.5" x2="76.5" y2="271.5" stroke="#232A3D" stroke-linecap="round"/>
<line x1="54.5" y1="274.5" x2="54.5" y2="271.5" stroke="#232A3D" stroke-linecap="round"/>
<line x1="32.5" y1="274.5" x2="32.5" y2="271.5" stroke="#232A3D" stroke-linecap="round"/>
<line x1="10.5" y1="274.5" x2="10.5" y2="271.5" stroke="#232A3D" stroke-linecap="round"/>
<path d="M472 98L472 274" stroke="#232A3D" stroke-width="1.5" stroke-linecap="round"/>
<path d="M593 275L351 274" stroke="#232A3D" stroke-width="1.5" stroke-linecap="square"/>
<line x1="593.5" y1="274.5" x2="593.5" y2="271.5" stroke="#232A3D" stroke-linecap="round"/>
<line x1="570.5" y1="274.5" x2="570.5" y2="271.5" stroke="#232A3D" stroke-linecap="round"/>
<line x1="548.5" y1="274.5" x2="548.5" y2="271.5" stroke="#232A3D" stroke-linecap="round"/>
<line x1="526.5" y1="274.5" x2="526.5" y2="271.5" stroke="#232A3D" stroke-linecap="round"/>
<line x1="504.5" y1="274.5" x2="504.5" y2="271.5" stroke="#232A3D" stroke-linecap="round"/>
<line x1="482.5" y1="274.5" x2="482.5" y2="271.5" stroke="#232A3D" stroke-linecap="round"/>
<line x1="470.5" y1="209.5" x2="473.5" y2="209.5" stroke="#232A3D" stroke-linecap="round"/>
<line x1="470.5" y1="178.5" x2="473.5" y2="178.5" stroke="#232A3D" stroke-linecap="round"/>
<line x1="470.5" y1="147.5" x2="473.5" y2="147.5" stroke="#232A3D" stroke-linecap="round"/>
<line x1="460.5" y1="274.5" x2="460.5" y2="271.5" stroke="#232A3D" stroke-linecap="round"/>
<line x1="438.5" y1="274.5" x2="438.5" y2="271.5" stroke="#232A3D" stroke-linecap="round"/>
<line x1="416.5" y1="274.5" x2="416.5" y2="271.5" stroke="#232A3D" stroke-linecap="round"/>
<line x1="394.5" y1="274.5" x2="394.5" y2="271.5" stroke="#232A3D" stroke-linecap="round"/>
<line x1="372.5" y1="274.5" x2="372.5" y2="271.5" stroke="#232A3D" stroke-linecap="round"/>
<line x1="350.5" y1="274.5" x2="350.5" y2="271.5" stroke="#232A3D" stroke-linecap="round"/>
</svg>
