<svg width="395" height="234" viewBox="0 0 395 234" fill="none" xmlns="http://www.w3.org/2000/svg">
<rect width="395" height="234" fill="white"/>
<path d="M30 18V216H364" stroke="#232A3D" stroke-width="3"/>
<path d="M336.217 52L50 181.026" stroke="#7D8FA8" stroke-width="3"/>
<path d="M226 67C226 63.6863 223.314 61 220 61C216.686 61 214 63.6863 214 67C214 70.3137 216.686 73 220 73C223.314 73 226 70.3137 226 67Z" fill="#9B51E0"/>
<path d="M279 58C279 54.6863 276.314 52 273 52C269.686 52 267 54.6863 267 58C267 61.3137 269.686 64 273 64C276.314 64 279 61.3137 279 58Z" fill="#9B51E0"/>
<path d="M187 55C187 51.6863 184.314 49 181 49C177.686 49 175 51.6863 175 55C175 58.3137 177.686 61 181 61C184.314 61 187 58.3137 187 55Z" fill="#9B51E0"/>
<path d="M208 87C208 83.6863 205.314 81 202 81C198.686 81 196 83.6863 196 87C196 90.3137 198.686 93 202 93C205.314 93 208 90.3137 208 87Z" fill="#9B51E0"/>
<path d="M273 105C273 101.686 270.314 99 267 99C263.686 99 261 101.686 261 105C261 108.314 263.686 111 267 111C270.314 111 273 108.314 273 105Z" fill="#9B51E0"/>
<path d="M305 120C305 116.686 302.314 114 299 114C295.686 114 293 116.686 293 120C293 123.314 295.686 126 299 126C302.314 126 305 123.314 305 120Z" fill="#9B51E0"/>
<path d="M353 87C353 83.6863 350.314 81 347 81C343.686 81 341 83.6863 341 87C341 90.3137 343.686 93 347 93C350.314 93 353 90.3137 353 87Z" fill="#9B51E0"/>
<path d="M170 105C170 101.686 167.314 99 164 99C160.686 99 158 101.686 158 105C158 108.314 160.686 111 164 111C167.314 111 170 108.314 170 105Z" fill="#9B51E0"/>
<path d="M190 199.022C190 195.709 187.314 193.022 184 193.022C180.686 193.022 178 195.709 178 199.022C178 202.336 180.686 205.022 184 205.022C187.314 205.022 190 202.336 190 199.022Z" fill="#9B51E0"/>
<path d="M71 150C71 146.686 68.3137 144 65 144C61.6863 144 59 146.686 59 150C59 153.314 61.6863 156 65 156C68.3137 156 71 153.314 71 150Z" fill="#9B51E0"/>
<path d="M164 162C164 158.686 161.314 156 158 156C154.686 156 152 158.686 152 162C152 165.314 154.686 168 158 168C161.314 168 164 165.314 164 162Z" fill="#9B51E0"/>
<path d="M136 132C136 128.686 133.314 126 130 126C126.686 126 124 128.686 124 132C124 135.314 126.686 138 130 138C133.314 138 136 135.314 136 132Z" fill="#9B51E0"/>
<path d="M109 111C109 107.686 106.314 105 103 105C99.6863 105 97 107.686 97 111C97 114.314 99.6863 117 103 117C106.314 117 109 114.314 109 111Z" fill="#9B51E0"/>
<path d="M90 187C90 183.686 87.3137 181 84 181C80.6863 181 78 183.686 78 187C78 190.314 80.6863 193 84 193C87.3137 193 90 190.314 90 187Z" fill="#9B51E0"/>
</svg>
