<svg width="513" height="351" viewBox="0 0 513 351" fill="none" xmlns="http://www.w3.org/2000/svg">
<rect width="513" height="351" fill="white"/>
<path d="M81 247.5V278" stroke="#C74E4E" stroke-width="2"/>
<path d="M105 182V238" stroke="#C74E4E" stroke-width="2"/>
<path d="M423 111L423 148" stroke="#C74E4E" stroke-width="2"/>
<path d="M56 230V257" stroke="#C74E4E" stroke-width="2"/>
<path d="M448 101L20 273" stroke="#232A3D" stroke-width="3"/>
<path d="M263 122C263 119.239 260.761 117 258 117C255.239 117 253 119.239 253 122C253 124.761 255.239 127 258 127C260.761 127 263 124.761 263 122Z" fill="#9B51E0"/>
<path d="M332 110C332 107.239 329.761 105 327 105C324.239 105 322 107.239 322 110C322 112.761 324.239 115 327 115C329.761 115 332 112.761 332 110Z" fill="#9B51E0"/>
<path d="M212 106C212 103.239 209.761 101 207 101C204.239 101 202 103.239 202 106C202 108.761 204.239 111 207 111C209.761 111 212 108.761 212 106Z" fill="#9B51E0"/>
<path d="M239 148C239 145.239 236.761 143 234 143C231.239 143 229 145.239 229 148C229 150.761 231.239 153 234 153C236.761 153 239 150.761 239 148Z" fill="#9B51E0"/>
<path d="M324 172C324 169.239 321.761 167 319 167C316.239 167 314 169.239 314 172C314 174.761 316.239 177 319 177C321.761 177 324 174.761 324 172Z" fill="#9B51E0"/>
<path d="M366 191C366 188.239 363.761 186 361 186C358.239 186 356 188.239 356 191C356 193.761 358.239 196 361 196C363.761 196 366 193.761 366 191Z" fill="#9B51E0"/>
<path d="M428 148C428 145.239 425.761 143 423 143C420.239 143 418 145.239 418 148C418 150.761 420.239 153 423 153C425.761 153 428 150.761 428 148Z" fill="#9B51E0"/>
<path d="M190 172C190 169.239 187.761 167 185 167C182.239 167 180 169.239 180 172C180 174.761 182.239 177 185 177C187.761 177 190 174.761 190 172Z" fill="#9B51E0"/>
<path d="M216 294C216 291.239 213.761 289 211 289C208.239 289 206 291.239 206 294C206 296.761 208.239 299 211 299C213.761 299 216 296.761 216 294Z" fill="#9B51E0"/>
<path d="M61 230C61 227.239 58.7614 225 56 225C53.2386 225 51 227.239 51 230C51 232.761 53.2386 235 56 235C58.7614 235 61 232.761 61 230Z" fill="#9B51E0"/>
<path d="M182 246C182 243.239 179.761 241 177 241C174.239 241 172 243.239 172 246C172 248.761 174.239 251 177 251C179.761 251 182 248.761 182 246Z" fill="#9B51E0"/>
<path d="M145 207C145 204.239 142.761 202 140 202C137.239 202 135 204.239 135 207C135 209.761 137.239 212 140 212C142.761 212 145 209.761 145 207Z" fill="#9B51E0"/>
<path d="M110 179C110 176.239 107.761 174 105 174C102.239 174 100 176.239 100 179C100 181.761 102.239 184 105 184C107.761 184 110 181.761 110 179Z" fill="#9B51E0"/>
<path d="M86 278C86 275.239 83.7614 273 81 273C78.2386 273 76 275.239 76 278C76 280.761 78.2386 283 81 283C83.7614 283 86 280.761 86 278Z" fill="#9B51E0"/>
<path d="M87.856 267V259.064H89.776L89.968 260.792H90.016C90.4107 260.141 90.8853 259.661 91.44 259.352C92.0053 259.032 92.6027 258.872 93.232 258.872C93.584 258.872 93.8667 258.899 94.08 258.952C94.304 259.005 94.5333 259.085 94.768 259.192L94.288 261.16C94.0427 261.085 93.8187 261.032 93.616 261C93.424 260.957 93.1787 260.936 92.88 260.936C92.3893 260.936 91.904 261.08 91.424 261.368C90.9547 261.656 90.5493 262.157 90.208 262.872V267H87.856ZM98.0738 269.976L97.9457 269.064C98.5751 268.595 99.1191 268.173 99.5778 267.8C100.036 267.437 100.388 267.107 100.634 266.808C100.879 266.499 101.002 266.216 101.002 265.96C101.002 265.651 100.906 265.411 100.714 265.24C100.532 265.059 100.271 264.968 99.9298 264.968C99.6844 264.968 99.4498 265.032 99.2258 265.16C99.0124 265.288 98.8151 265.48 98.6338 265.736L97.6578 264.84C97.9884 264.403 98.3671 264.077 98.7938 263.864C99.2204 263.651 99.6898 263.544 100.202 263.544C100.938 263.544 101.53 263.731 101.978 264.104C102.436 264.477 102.666 264.995 102.666 265.656C102.666 265.997 102.58 266.323 102.41 266.632C102.25 266.931 102.02 267.235 101.722 267.544C101.423 267.853 101.076 268.184 100.682 268.536H102.89V269.976H98.0738Z" fill="#C74E4E"/>
<path d="M430.856 133V125.064H432.776L432.968 126.792H433.016C433.411 126.141 433.885 125.661 434.44 125.352C435.005 125.032 435.603 124.872 436.232 124.872C436.584 124.872 436.867 124.899 437.08 124.952C437.304 125.005 437.533 125.085 437.768 125.192L437.288 127.16C437.043 127.085 436.819 127.032 436.616 127C436.424 126.957 436.179 126.936 435.88 126.936C435.389 126.936 434.904 127.08 434.424 127.368C433.955 127.656 433.549 128.157 433.208 128.872V133H430.856ZM443.186 135.976V131.496H441.442V130.424C441.954 130.349 442.359 130.269 442.658 130.184C442.956 130.099 443.255 129.949 443.554 129.736H444.914V135.976H443.186ZM441.25 135.976V134.536H446.594V135.976H441.25ZM450.364 135.976V131.864H451.884V135.976H450.364ZM447.18 134.6V133.736L449.34 129.544L450.604 130.168L448.892 133.464H452.812V134.6H447.18Z" fill="#C74E4E"/>
<path d="M86.856 212V204.064H88.776L88.968 205.792H89.016C89.4107 205.141 89.8853 204.661 90.44 204.352C91.0053 204.032 91.6027 203.872 92.232 203.872C92.584 203.872 92.8667 203.899 93.08 203.952C93.304 204.005 93.5333 204.085 93.768 204.192L93.288 206.16C93.0427 206.085 92.8187 206.032 92.616 206C92.424 205.957 92.1787 205.936 91.88 205.936C91.3893 205.936 90.904 206.08 90.424 206.368C89.9547 206.656 89.5493 207.157 89.208 207.872V212H86.856ZM99.3618 215.168C98.7858 215.168 98.2631 215.061 97.7938 214.848C97.3244 214.635 96.9458 214.325 96.6578 213.92L97.6978 213.104C97.9004 213.371 98.1244 213.563 98.3698 213.68C98.6151 213.797 98.8818 213.856 99.1698 213.856C99.4791 213.856 99.7351 213.792 99.9378 213.664C100.14 213.536 100.242 213.355 100.242 213.12C100.242 212.832 100.108 212.624 99.8418 212.496C99.5751 212.368 99.1591 212.304 98.5938 212.304V211.312C99.0418 211.312 99.3884 211.248 99.6338 211.12C99.8898 210.981 100.018 210.784 100.018 210.528C100.018 210.315 99.9324 210.155 99.7618 210.048C99.5911 209.931 99.3618 209.872 99.0738 209.872C98.8391 209.872 98.6204 209.931 98.4178 210.048C98.2151 210.155 98.0391 210.304 97.8898 210.496L96.9138 209.616C97.2551 209.243 97.6178 208.971 98.0018 208.8C98.3964 208.629 98.8551 208.544 99.3778 208.544C99.7938 208.544 100.178 208.619 100.53 208.768C100.882 208.907 101.164 209.104 101.378 209.36C101.591 209.616 101.698 209.925 101.698 210.288C101.698 210.619 101.612 210.901 101.442 211.136C101.282 211.36 101.015 211.557 100.642 211.728C101.047 211.845 101.362 212.032 101.586 212.288C101.82 212.555 101.938 212.875 101.938 213.248C101.938 213.632 101.815 213.968 101.57 214.256C101.335 214.544 101.02 214.768 100.626 214.928C100.242 215.088 99.8204 215.168 99.3618 215.168Z" fill="#C74E4E"/>
<path d="M32.856 249V241.064H34.776L34.968 242.792H35.016C35.4107 242.141 35.8853 241.661 36.44 241.352C37.0053 241.032 37.6027 240.872 38.232 240.872C38.584 240.872 38.8667 240.899 39.08 240.952C39.304 241.005 39.5333 241.085 39.768 241.192L39.288 243.16C39.0427 243.085 38.8187 243.032 38.616 243C38.424 242.957 38.1787 242.936 37.88 242.936C37.3893 242.936 36.904 243.08 36.424 243.368C35.9547 243.656 35.5493 244.157 35.208 244.872V249H32.856ZM45.1858 251.976V247.496H43.4418V246.424C43.9538 246.349 44.3591 246.269 44.6578 246.184C44.9564 246.099 45.2551 245.949 45.5538 245.736H46.9138V251.976H45.1858ZM43.2498 251.976V250.536H48.5938V251.976H43.2498Z" fill="#C74E4E"/>
<rect opacity="0.15" x="423" y="60" width="58" height="32" rx="5" fill="#C74E4E"/>
<path d="M19 60V325H454" stroke="#232A3D" stroke-width="3"/>
<path d="M435.408 83V74.856C435.408 74.248 435.531 73.6987 435.776 73.208C436.032 72.7067 436.416 72.312 436.928 72.024C437.451 71.736 438.128 71.592 438.96 71.592C439.419 71.592 439.851 71.64 440.256 71.736C440.661 71.8213 441.029 71.9173 441.36 72.024L440.912 73.752C440.656 73.656 440.389 73.5813 440.112 73.528C439.845 73.4747 439.557 73.448 439.248 73.448C438.747 73.448 438.373 73.56 438.128 73.784C437.883 74.008 437.76 74.36 437.76 74.84V83H435.408ZM433.312 76.904V75.16L435.488 75.064H440.496V76.904H433.312ZM447.866 85.864C446.831 84.936 446.01 83.864 445.402 82.648C444.794 81.4213 444.49 80.056 444.49 78.552C444.49 77.048 444.794 75.6827 445.402 74.456C446.01 73.2293 446.831 72.1573 447.866 71.24L449.178 72.28C448.218 73.208 447.524 74.168 447.098 75.16C446.671 76.152 446.458 77.2827 446.458 78.552C446.458 79.8107 446.671 80.9413 447.098 81.944C447.524 82.936 448.218 83.896 449.178 84.824L447.866 85.864ZM451.476 83L454.516 77.64L451.652 72.568H454.292L455.299 74.536C455.417 74.7707 455.54 75.0267 455.668 75.304C455.796 75.5813 455.94 75.8853 456.1 76.216H456.164C456.281 75.8853 456.398 75.5813 456.516 75.304C456.633 75.0267 456.75 74.7707 456.868 74.536L457.796 72.568H460.324L457.46 77.752L460.5 83H457.876L456.74 80.872C456.601 80.5947 456.462 80.3227 456.324 80.056C456.196 79.7787 456.057 79.48 455.908 79.16H455.844C455.716 79.48 455.588 79.7787 455.46 80.056C455.332 80.3227 455.204 80.5947 455.076 80.872L453.988 83H451.476ZM464.109 85.864L462.797 84.824C463.757 83.896 464.451 82.936 464.877 81.944C465.304 80.9413 465.517 79.8107 465.517 78.552C465.517 77.2827 465.304 76.152 464.877 75.16C464.451 74.168 463.757 73.208 462.797 72.28L464.109 71.24C465.144 72.1573 465.965 73.2293 466.573 74.456C467.181 75.6827 467.485 77.048 467.485 78.552C467.485 80.056 467.181 81.4213 466.573 82.648C465.965 83.864 465.144 84.936 464.109 85.864Z" fill="#232A3D"/>
<path d="M142.32 39V29.08H144.72L144.96 31.24H145.02C145.513 30.4267 146.107 29.8267 146.8 29.44C147.507 29.04 148.253 28.84 149.04 28.84C149.48 28.84 149.833 28.8733 150.1 28.94C150.38 29.0067 150.667 29.1067 150.96 29.24L150.36 31.7C150.053 31.6067 149.773 31.54 149.52 31.5C149.28 31.4467 148.973 31.42 148.6 31.42C147.987 31.42 147.38 31.6 146.78 31.96C146.193 32.32 145.687 32.9467 145.26 33.84V39H142.32ZM155.244 43V38.524H152.904V37.024H157.164V43H155.244ZM156.132 36.148C155.772 36.148 155.472 36.044 155.232 35.836C155 35.628 154.884 35.352 154.884 35.008C154.884 34.664 155 34.388 155.232 34.18C155.472 33.964 155.772 33.856 156.132 33.856C156.492 33.856 156.788 33.964 157.02 34.18C157.26 34.388 157.38 34.664 157.38 35.008C157.38 35.352 157.26 35.628 157.02 35.836C156.788 36.044 156.492 36.148 156.132 36.148ZM165.744 31.12V29.04H174.944V31.12H165.744ZM165.744 35.76V33.68H174.944V35.76H165.744ZM192.849 39V34.6L188.649 25.96H191.809L193.129 29.1C193.329 29.5933 193.522 30.0867 193.709 30.58C193.909 31.06 194.109 31.56 194.309 32.08H194.389C194.602 31.56 194.809 31.06 195.009 30.58C195.222 30.0867 195.422 29.5933 195.609 29.1L196.929 25.96H200.009L195.809 34.6V39H192.849ZM203.573 43V38.524H201.233V37.024H205.493V43H203.573ZM204.461 36.148C204.101 36.148 203.801 36.044 203.561 35.836C203.329 35.628 203.213 35.352 203.213 35.008C203.213 34.664 203.329 34.388 203.561 34.18C203.801 33.964 204.101 33.856 204.461 33.856C204.821 33.856 205.117 33.964 205.349 34.18C205.589 34.388 205.709 34.664 205.709 35.008C205.709 35.352 205.589 35.628 205.349 35.836C205.117 36.044 204.821 36.148 204.461 36.148ZM214.073 33.44V31.36H223.273V33.44H214.073ZM238.098 42.54V29.52C238.098 28.6267 238.251 27.82 238.558 27.1C238.878 26.3667 239.358 25.7933 239.998 25.38C240.651 24.9533 241.478 24.74 242.478 24.74C243.211 24.74 243.904 24.8733 244.558 25.14C245.211 25.3933 245.744 25.7933 246.158 26.34C246.571 26.8733 246.778 27.5533 246.778 28.38C246.778 29.0467 246.638 29.6267 246.358 30.12C246.078 30.6133 245.651 31.0333 245.078 31.38V31.46C245.598 31.5533 246.064 31.7667 246.478 32.1C246.891 32.42 247.218 32.8333 247.458 33.34C247.698 33.8333 247.818 34.3867 247.818 35C247.818 35.9867 247.618 36.7933 247.218 37.42C246.831 38.0333 246.338 38.4933 245.738 38.8C245.138 39.0933 244.524 39.24 243.898 39.24C243.404 39.24 242.891 39.1467 242.358 38.96C241.838 38.76 241.344 38.4067 240.878 37.9C240.904 38.6867 240.931 39.46 240.958 40.22C240.998 40.9933 241.038 41.7667 241.078 42.54H238.098ZM243.038 36.84C243.384 36.84 243.698 36.7667 243.978 36.62C244.271 36.46 244.504 36.2333 244.678 35.94C244.851 35.6333 244.938 35.26 244.938 34.82C244.938 34.2867 244.798 33.84 244.518 33.48C244.238 33.1067 243.811 32.92 243.238 32.92C242.944 32.92 242.678 32.96 242.438 33.04L242.078 30.9C242.558 30.82 242.931 30.68 243.198 30.48C243.478 30.2667 243.671 30.0067 243.778 29.7C243.898 29.38 243.958 29.0333 243.958 28.66C243.958 28.1133 243.811 27.7133 243.518 27.46C243.224 27.1933 242.884 27.06 242.498 27.06C241.991 27.06 241.611 27.3 241.358 27.78C241.104 28.26 240.964 28.9533 240.938 29.86C240.924 30.8333 240.904 31.7933 240.878 32.74C240.851 33.6867 240.838 34.6467 240.838 35.62C241.211 36.1 241.584 36.4267 241.958 36.6C242.331 36.76 242.691 36.84 243.038 36.84ZM252.25 43.144C251.658 43.144 251.138 42.992 250.69 42.688C250.25 42.384 249.906 41.936 249.658 41.344C249.41 40.752 249.286 40.024 249.286 39.16C249.286 37.856 249.558 36.876 250.102 36.22C250.646 35.564 251.362 35.236 252.25 35.236C253.138 35.236 253.854 35.564 254.398 36.22C254.942 36.876 255.214 37.856 255.214 39.16C255.214 40.024 255.09 40.752 254.842 41.344C254.594 41.936 254.246 42.384 253.798 42.688C253.358 42.992 252.842 43.144 252.25 43.144ZM252.25 41.668C252.482 41.668 252.694 41.596 252.886 41.452C253.078 41.3 253.23 41.044 253.342 40.684C253.462 40.316 253.522 39.808 253.522 39.16C253.522 38.512 253.462 38.012 253.342 37.66C253.23 37.308 253.078 37.064 252.886 36.928C252.694 36.784 252.482 36.712 252.25 36.712C252.018 36.712 251.806 36.784 251.614 36.928C251.422 37.064 251.266 37.308 251.146 37.66C251.034 38.012 250.978 38.512 250.978 39.16C250.978 39.808 251.034 40.316 251.146 40.684C251.266 41.044 251.422 41.3 251.614 41.452C251.806 41.596 252.018 41.668 252.25 41.668ZM252.25 40.084C251.986 40.084 251.762 40 251.578 39.832C251.402 39.656 251.314 39.428 251.314 39.148C251.314 38.868 251.402 38.644 251.578 38.476C251.762 38.3 251.986 38.212 252.25 38.212C252.522 38.212 252.746 38.3 252.922 38.476C253.098 38.644 253.186 38.868 253.186 39.148C253.186 39.428 253.098 39.656 252.922 39.832C252.746 40 252.522 40.084 252.25 40.084ZM262.402 33.44V31.36H271.602V33.44H262.402ZM286.426 42.54V29.52C286.426 28.6267 286.58 27.82 286.886 27.1C287.206 26.3667 287.686 25.7933 288.326 25.38C288.98 24.9533 289.806 24.74 290.806 24.74C291.54 24.74 292.233 24.8733 292.886 25.14C293.54 25.3933 294.073 25.7933 294.486 26.34C294.9 26.8733 295.106 27.5533 295.106 28.38C295.106 29.0467 294.966 29.6267 294.686 30.12C294.406 30.6133 293.98 31.0333 293.406 31.38V31.46C293.926 31.5533 294.393 31.7667 294.806 32.1C295.22 32.42 295.546 32.8333 295.786 33.34C296.026 33.8333 296.146 34.3867 296.146 35C296.146 35.9867 295.946 36.7933 295.546 37.42C295.16 38.0333 294.666 38.4933 294.066 38.8C293.466 39.0933 292.853 39.24 292.226 39.24C291.733 39.24 291.22 39.1467 290.686 38.96C290.166 38.76 289.673 38.4067 289.206 37.9C289.233 38.6867 289.26 39.46 289.286 40.22C289.326 40.9933 289.366 41.7667 289.406 42.54H286.426ZM291.366 36.84C291.713 36.84 292.026 36.7667 292.306 36.62C292.6 36.46 292.833 36.2333 293.006 35.94C293.18 35.6333 293.266 35.26 293.266 34.82C293.266 34.2867 293.126 33.84 292.846 33.48C292.566 33.1067 292.14 32.92 291.566 32.92C291.273 32.92 291.006 32.96 290.766 33.04L290.406 30.9C290.886 30.82 291.26 30.68 291.526 30.48C291.806 30.2667 292 30.0067 292.106 29.7C292.226 29.38 292.286 29.0333 292.286 28.66C292.286 28.1133 292.14 27.7133 291.846 27.46C291.553 27.1933 291.213 27.06 290.826 27.06C290.32 27.06 289.94 27.3 289.686 27.78C289.433 28.26 289.293 28.9533 289.266 29.86C289.253 30.8333 289.233 31.7933 289.206 32.74C289.18 33.6867 289.166 34.6467 289.166 35.62C289.54 36.1 289.913 36.4267 290.286 36.6C290.66 36.76 291.02 36.84 291.366 36.84ZM297.89 43V41.464H299.906V37.288H298.226V36.1C298.578 36.052 298.878 35.996 299.126 35.932C299.382 35.868 299.61 35.792 299.81 35.704C300.01 35.616 300.214 35.508 300.422 35.38H301.814V41.464H303.506V43H297.89ZM309.691 39L313.491 32.3L309.911 25.96H313.211L314.471 28.42C314.617 28.7133 314.771 29.0333 314.931 29.38C315.091 29.7267 315.271 30.1067 315.471 30.52H315.551C315.697 30.1067 315.844 29.7267 315.991 29.38C316.137 29.0333 316.284 28.7133 316.431 28.42L317.591 25.96H320.751L317.171 32.44L320.971 39H317.691L316.271 36.34C316.097 35.9933 315.924 35.6533 315.751 35.32C315.591 34.9733 315.417 34.6 315.231 34.2H315.151C314.991 34.6 314.831 34.9733 314.671 35.32C314.511 35.6533 314.351 35.9933 314.191 36.34L312.831 39H309.691ZM324.575 43V38.524H322.235V37.024H326.495V43H324.575ZM325.463 36.148C325.103 36.148 324.803 36.044 324.563 35.836C324.331 35.628 324.215 35.352 324.215 35.008C324.215 34.664 324.331 34.388 324.563 34.18C324.803 33.964 325.103 33.856 325.463 33.856C325.823 33.856 326.119 33.964 326.351 34.18C326.591 34.388 326.711 34.664 326.711 35.008C326.711 35.352 326.591 35.628 326.351 35.836C326.119 36.044 325.823 36.148 325.463 36.148Z" fill="#C74E4E"/>
<path d="M238.376 22.616L240.856 16.28H242.744L245.224 22.616H243.288L242.552 20.568L241.832 18.408H241.768L241.048 20.568L240.312 22.616H238.376Z" fill="#C74E4E"/>
<path d="M287.376 22.616L289.856 16.28H291.744L294.224 22.616H292.288L291.552 20.568L290.832 18.408H290.768L290.048 20.568L289.312 22.616H287.376Z" fill="#C74E4E"/>
</svg>
