<svg width="600" height="294" viewBox="0 0 600 294" fill="none" xmlns="http://www.w3.org/2000/svg">
<rect width="600" height="294" fill="white"/>
<path d="M17.7071 94.2929C17.3166 93.9024 16.6834 93.9024 16.2929 94.2929L9.92893 100.657C9.53841 101.047 9.53841 101.681 9.92893 102.071C10.3195 102.462 10.9526 102.462 11.3431 102.071L17 96.4142L22.6569 102.071C23.0474 102.462 23.6805 102.462 24.0711 102.071C24.4616 101.681 24.4616 101.047 24.0711 100.657L17.7071 94.2929ZM16 256C16 256.552 16.4477 257 17 257C17.5523 257 18 256.552 18 256L16 256ZM16 95L16 256L18 256L18 95L16 95Z" fill="#232A3D"/>
<path d="M315.707 94.2929C315.317 93.9024 314.683 93.9024 314.293 94.2929L307.929 100.657C307.538 101.047 307.538 101.681 307.929 102.071C308.319 102.462 308.953 102.462 309.343 102.071L315 96.4142L320.657 102.071C321.047 102.462 321.681 102.462 322.071 102.071C322.462 101.681 322.462 101.047 322.071 100.657L315.707 94.2929ZM314 256C314 256.552 314.448 257 315 257C315.552 257 316 256.552 316 256L314 256ZM314 95L314 256L316 256L316 95L314 95Z" fill="#232A3D"/>
<path d="M285.707 256.707C286.098 256.317 286.098 255.683 285.707 255.293L279.343 248.929C278.953 248.538 278.319 248.538 277.929 248.929C277.538 249.319 277.538 249.953 277.929 250.343L283.586 256L277.929 261.657C277.538 262.047 277.538 262.681 277.929 263.071C278.319 263.462 278.953 263.462 279.343 263.071L285.707 256.707ZM17 255C16.4477 255 16 255.448 16 256C16 256.552 16.4477 257 17 257V255ZM285 255L17 255V257H285V255Z" fill="#232A3D"/>
<path d="M583.707 256.707C584.098 256.317 584.098 255.683 583.707 255.293L577.343 248.929C576.953 248.538 576.319 248.538 575.929 248.929C575.538 249.319 575.538 249.953 575.929 250.343L581.586 256L575.929 261.657C575.538 262.047 575.538 262.681 575.929 263.071C576.319 263.462 576.953 263.462 577.343 263.071L583.707 256.707ZM316 255C315.448 255 315 255.448 315 256C315 256.552 315.448 257 316 257V255ZM583 255L316 255V257H583V255Z" fill="#232A3D"/>
<path d="M110.08 46.24C108.947 46.24 107.947 45.9667 107.08 45.42C106.213 44.86 105.533 44.0733 105.04 43.06C104.56 42.0333 104.32 40.8133 104.32 39.4C104.32 37.9867 104.56 36.78 105.04 35.78C105.533 34.78 106.213 34.0133 107.08 33.48C107.947 32.9467 108.947 32.68 110.08 32.68C111.227 32.68 112.233 32.9467 113.1 33.48C113.967 34.0133 114.64 34.78 115.12 35.78C115.613 36.78 115.86 37.9867 115.86 39.4C115.86 40.8133 115.613 42.0333 115.12 43.06C114.64 44.0733 113.967 44.86 113.1 45.42C112.233 45.9667 111.227 46.24 110.08 46.24ZM110.08 44.22C111.107 44.22 111.927 43.7867 112.54 42.92C113.153 42.04 113.46 40.8667 113.46 39.4C113.46 37.9333 113.153 36.7867 112.54 35.96C111.927 35.12 111.107 34.7 110.08 34.7C109.053 34.7 108.233 35.12 107.62 35.96C107.007 36.7867 106.7 37.9333 106.7 39.4C106.7 40.8667 107.007 42.04 107.62 42.92C108.233 43.7867 109.053 44.22 110.08 44.22ZM120.476 46L117.056 36.18H119.396L120.956 41.28C121.09 41.76 121.223 42.2467 121.356 42.74C121.503 43.2333 121.643 43.7333 121.776 44.24H121.856C122.003 43.7333 122.143 43.2333 122.276 42.74C122.423 42.2467 122.563 41.76 122.696 41.28L124.256 36.18H126.476L123.136 46H120.476ZM132.262 46.24C131.355 46.24 130.535 46.04 129.802 45.64C129.068 45.2267 128.488 44.64 128.062 43.88C127.635 43.1067 127.422 42.18 127.422 41.1C127.422 40.0333 127.635 39.1133 128.062 38.34C128.502 37.5667 129.068 36.9733 129.762 36.56C130.455 36.1467 131.182 35.94 131.942 35.94C132.835 35.94 133.582 36.14 134.182 36.54C134.782 36.9267 135.235 37.4733 135.542 38.18C135.848 38.8733 136.002 39.68 136.002 40.6C136.002 41.08 135.968 41.4533 135.902 41.72H129.662C129.768 42.5867 130.082 43.26 130.602 43.74C131.122 44.22 131.775 44.46 132.562 44.46C132.988 44.46 133.382 44.4 133.742 44.28C134.115 44.1467 134.482 43.9667 134.842 43.74L135.622 45.18C135.155 45.4867 134.635 45.74 134.062 45.94C133.488 46.14 132.888 46.24 132.262 46.24ZM129.642 40.16H134.002C134.002 39.4 133.835 38.8067 133.502 38.38C133.168 37.94 132.668 37.72 132.002 37.72C131.428 37.72 130.915 37.9333 130.462 38.36C130.022 38.7733 129.748 39.3733 129.642 40.16ZM138.198 46V36.18H140.098L140.258 37.92H140.338C140.685 37.28 141.105 36.7933 141.598 36.46C142.092 36.1133 142.598 35.94 143.118 35.94C143.585 35.94 143.958 36.0067 144.238 36.14L143.838 38.14C143.665 38.0867 143.505 38.0467 143.358 38.02C143.212 37.9933 143.032 37.98 142.818 37.98C142.432 37.98 142.025 38.1333 141.598 38.44C141.172 38.7333 140.805 39.2533 140.498 40V46H138.198ZM146.059 46V38H144.739V36.28L146.059 36.18V35.16C146.059 34.1333 146.313 33.2933 146.819 32.64C147.326 31.9733 148.159 31.64 149.319 31.64C149.666 31.64 149.999 31.6733 150.319 31.74C150.639 31.8067 150.906 31.8867 151.119 31.98L150.679 33.7C150.319 33.54 149.959 33.46 149.599 33.46C148.773 33.46 148.359 34.0133 148.359 35.12V36.18H150.279V38H148.359V46H146.059ZM152.007 46V36.18H154.307V46H152.007ZM153.167 34.46C152.754 34.46 152.42 34.34 152.167 34.1C151.914 33.86 151.787 33.54 151.787 33.14C151.787 32.7533 151.914 32.44 152.167 32.2C152.42 31.96 152.754 31.84 153.167 31.84C153.58 31.84 153.914 31.96 154.167 32.2C154.42 32.44 154.547 32.7533 154.547 33.14C154.547 33.54 154.42 33.86 154.167 34.1C153.914 34.34 153.58 34.46 153.167 34.46ZM160.701 46.24C159.568 46.24 158.761 45.9133 158.281 45.26C157.815 44.5933 157.581 43.7333 157.581 42.68V38H156.181V36.28L157.701 36.18L157.981 33.5H159.901V36.18H162.401V38H159.901V42.68C159.901 43.8267 160.361 44.4 161.281 44.4C161.455 44.4 161.635 44.38 161.821 44.34C162.008 44.2867 162.168 44.2333 162.301 44.18L162.701 45.88C162.435 45.9733 162.128 46.0533 161.781 46.12C161.448 46.2 161.088 46.24 160.701 46.24ZM167.537 46.24C166.404 46.24 165.597 45.9133 165.117 45.26C164.651 44.5933 164.417 43.7333 164.417 42.68V38H163.017V36.28L164.537 36.18L164.817 33.5H166.737V36.18H169.237V38H166.737V42.68C166.737 43.8267 167.197 44.4 168.117 44.4C168.291 44.4 168.471 44.38 168.657 44.34C168.844 44.2867 169.004 44.2333 169.137 44.18L169.537 45.88C169.271 45.9733 168.964 46.0533 168.617 46.12C168.284 46.2 167.924 46.24 167.537 46.24ZM171.304 46V36.18H173.604V46H171.304ZM172.464 34.46C172.05 34.46 171.717 34.34 171.464 34.1C171.21 33.86 171.084 33.54 171.084 33.14C171.084 32.7533 171.21 32.44 171.464 32.2C171.717 31.96 172.05 31.84 172.464 31.84C172.877 31.84 173.21 31.96 173.464 32.2C173.717 32.44 173.844 32.7533 173.844 33.14C173.844 33.54 173.717 33.86 173.464 34.1C173.21 34.34 172.877 34.46 172.464 34.46ZM176.538 46V36.18H178.438L178.598 37.5H178.678C179.118 37.0733 179.598 36.7067 180.118 36.4C180.638 36.0933 181.231 35.94 181.898 35.94C182.951 35.94 183.718 36.28 184.198 36.96C184.678 37.64 184.918 38.6 184.918 39.84V46H182.618V40.14C182.618 39.3267 182.498 38.7533 182.258 38.42C182.018 38.0867 181.625 37.92 181.078 37.92C180.651 37.92 180.271 38.0267 179.938 38.24C179.618 38.44 179.251 38.74 178.838 39.14V46H176.538ZM191.15 50.34C190.376 50.34 189.676 50.2467 189.05 50.06C188.436 49.8733 187.95 49.5867 187.59 49.2C187.243 48.8267 187.07 48.3533 187.07 47.78C187.07 46.9667 187.536 46.2667 188.47 45.68V45.6C188.216 45.44 188.003 45.2267 187.83 44.96C187.67 44.6933 187.59 44.36 187.59 43.96C187.59 43.5733 187.696 43.2267 187.91 42.92C188.136 42.6 188.39 42.34 188.67 42.14V42.06C188.336 41.8067 188.036 41.4533 187.77 41C187.516 40.5467 187.39 40.0333 187.39 39.46C187.39 38.7 187.57 38.06 187.93 37.54C188.29 37.02 188.763 36.6267 189.35 36.36C189.95 36.08 190.59 35.94 191.27 35.94C191.536 35.94 191.79 35.9667 192.03 36.02C192.283 36.06 192.51 36.1133 192.71 36.18H196.23V37.88H194.43C194.59 38.0667 194.723 38.3067 194.83 38.6C194.936 38.88 194.99 39.1933 194.99 39.54C194.99 40.26 194.823 40.8733 194.49 41.38C194.156 41.8733 193.71 42.2467 193.15 42.5C192.59 42.7533 191.963 42.88 191.27 42.88C191.056 42.88 190.836 42.86 190.61 42.82C190.383 42.78 190.156 42.7133 189.93 42.62C189.783 42.7533 189.663 42.8867 189.57 43.02C189.49 43.1533 189.45 43.3333 189.45 43.56C189.45 43.84 189.563 44.06 189.79 44.22C190.03 44.38 190.45 44.46 191.05 44.46H192.79C193.976 44.46 194.87 44.6533 195.47 45.04C196.083 45.4133 196.39 46.0267 196.39 46.88C196.39 47.52 196.176 48.1 195.75 48.62C195.323 49.1533 194.716 49.5733 193.93 49.88C193.143 50.1867 192.216 50.34 191.15 50.34ZM191.27 41.44C191.736 41.44 192.136 41.2667 192.47 40.92C192.803 40.5733 192.97 40.0867 192.97 39.46C192.97 38.8467 192.803 38.3733 192.47 38.04C192.15 37.6933 191.75 37.52 191.27 37.52C190.79 37.52 190.383 37.6867 190.05 38.02C189.716 38.3533 189.55 38.8333 189.55 39.46C189.55 40.0867 189.716 40.5733 190.05 40.92C190.383 41.2667 190.79 41.44 191.27 41.44ZM191.51 48.84C192.296 48.84 192.936 48.68 193.43 48.36C193.923 48.04 194.17 47.6733 194.17 47.26C194.17 46.8733 194.016 46.6133 193.71 46.48C193.416 46.3467 192.99 46.28 192.43 46.28H191.09C190.556 46.28 190.11 46.2333 189.75 46.14C189.243 46.5267 188.99 46.96 188.99 47.44C188.99 47.88 189.216 48.22 189.67 48.46C190.123 48.7133 190.736 48.84 191.51 48.84Z" fill="#232A3D"/>
<path d="M388.058 46V32.92H390.438L394.518 40.28L395.858 43.06H395.938C395.885 42.3933 395.818 41.6667 395.738 40.88C395.672 40.0933 395.638 39.3333 395.638 38.6V32.92H397.858V46H395.478L391.398 38.64L390.058 35.86H389.978C390.032 36.5533 390.092 37.28 390.158 38.04C390.238 38.8 390.278 39.5467 390.278 40.28V46H388.058ZM405.003 46.24C404.19 46.24 403.43 46.04 402.723 45.64C402.017 45.2267 401.443 44.64 401.003 43.88C400.563 43.1067 400.343 42.18 400.343 41.1C400.343 40.0067 400.563 39.08 401.003 38.32C401.443 37.5467 402.017 36.96 402.723 36.56C403.43 36.1467 404.19 35.94 405.003 35.94C405.83 35.94 406.597 36.1467 407.303 36.56C408.01 36.96 408.583 37.5467 409.023 38.32C409.463 39.08 409.683 40.0067 409.683 41.1C409.683 42.18 409.463 43.1067 409.023 43.88C408.583 44.64 408.01 45.2267 407.303 45.64C406.597 46.04 405.83 46.24 405.003 46.24ZM405.003 44.36C405.723 44.36 406.29 44.06 406.703 43.46C407.117 42.86 407.323 42.0733 407.323 41.1C407.323 40.1133 407.117 39.32 406.703 38.72C406.29 38.12 405.723 37.82 405.003 37.82C404.283 37.82 403.717 38.12 403.303 38.72C402.903 39.32 402.703 40.1133 402.703 41.1C402.703 42.0733 402.903 42.86 403.303 43.46C403.717 44.06 404.283 44.36 405.003 44.36ZM414.971 46.24C413.837 46.24 413.031 45.9133 412.551 45.26C412.084 44.5933 411.851 43.7333 411.851 42.68V38H410.451V36.28L411.971 36.18L412.251 33.5H414.171V36.18H416.671V38H414.171V42.68C414.171 43.8267 414.631 44.4 415.551 44.4C415.724 44.4 415.904 44.38 416.091 44.34C416.277 44.2867 416.437 44.2333 416.571 44.18L416.971 45.88C416.704 45.9733 416.397 46.0533 416.051 46.12C415.717 46.2 415.357 46.24 414.971 46.24ZM428.021 46.24C426.888 46.24 425.888 45.9667 425.021 45.42C424.155 44.86 423.475 44.0733 422.981 43.06C422.501 42.0333 422.261 40.8133 422.261 39.4C422.261 37.9867 422.501 36.78 422.981 35.78C423.475 34.78 424.155 34.0133 425.021 33.48C425.888 32.9467 426.888 32.68 428.021 32.68C429.168 32.68 430.175 32.9467 431.041 33.48C431.908 34.0133 432.581 34.78 433.061 35.78C433.555 36.78 433.801 37.9867 433.801 39.4C433.801 40.8133 433.555 42.0333 433.061 43.06C432.581 44.0733 431.908 44.86 431.041 45.42C430.175 45.9667 429.168 46.24 428.021 46.24ZM428.021 44.22C429.048 44.22 429.868 43.7867 430.481 42.92C431.095 42.04 431.401 40.8667 431.401 39.4C431.401 37.9333 431.095 36.7867 430.481 35.96C429.868 35.12 429.048 34.7 428.021 34.7C426.995 34.7 426.175 35.12 425.561 35.96C424.948 36.7867 424.641 37.9333 424.641 39.4C424.641 40.8667 424.948 42.04 425.561 42.92C426.175 43.7867 426.995 44.22 428.021 44.22ZM438.418 46L434.998 36.18H437.338L438.898 41.28C439.031 41.76 439.164 42.2467 439.298 42.74C439.444 43.2333 439.584 43.7333 439.718 44.24H439.798C439.944 43.7333 440.084 43.2333 440.218 42.74C440.364 42.2467 440.504 41.76 440.638 41.28L442.198 36.18H444.418L441.078 46H438.418ZM450.203 46.24C449.296 46.24 448.476 46.04 447.743 45.64C447.01 45.2267 446.43 44.64 446.003 43.88C445.576 43.1067 445.363 42.18 445.363 41.1C445.363 40.0333 445.576 39.1133 446.003 38.34C446.443 37.5667 447.01 36.9733 447.703 36.56C448.396 36.1467 449.123 35.94 449.883 35.94C450.776 35.94 451.523 36.14 452.123 36.54C452.723 36.9267 453.176 37.4733 453.483 38.18C453.79 38.8733 453.943 39.68 453.943 40.6C453.943 41.08 453.91 41.4533 453.843 41.72H447.603C447.71 42.5867 448.023 43.26 448.543 43.74C449.063 44.22 449.716 44.46 450.503 44.46C450.93 44.46 451.323 44.4 451.683 44.28C452.056 44.1467 452.423 43.9667 452.783 43.74L453.563 45.18C453.096 45.4867 452.576 45.74 452.003 45.94C451.43 46.14 450.83 46.24 450.203 46.24ZM447.583 40.16H451.943C451.943 39.4 451.776 38.8067 451.443 38.38C451.11 37.94 450.61 37.72 449.943 37.72C449.37 37.72 448.856 37.9333 448.403 38.36C447.963 38.7733 447.69 39.3733 447.583 40.16ZM456.14 46V36.18H458.04L458.2 37.92H458.28C458.626 37.28 459.046 36.7933 459.54 36.46C460.033 36.1133 460.54 35.94 461.06 35.94C461.526 35.94 461.9 36.0067 462.18 36.14L461.78 38.14C461.606 38.0867 461.446 38.0467 461.3 38.02C461.153 37.9933 460.973 37.98 460.76 37.98C460.373 37.98 459.966 38.1333 459.54 38.44C459.113 38.7333 458.746 39.2533 458.44 40V46H456.14ZM464.001 46V38H462.681V36.28L464.001 36.18V35.16C464.001 34.1333 464.254 33.2933 464.761 32.64C465.267 31.9733 466.101 31.64 467.261 31.64C467.607 31.64 467.941 31.6733 468.261 31.74C468.581 31.8067 468.847 31.8867 469.061 31.98L468.621 33.7C468.261 33.54 467.901 33.46 467.541 33.46C466.714 33.46 466.301 34.0133 466.301 35.12V36.18H468.221V38H466.301V46H464.001ZM469.948 46V36.18H472.248V46H469.948ZM471.108 34.46C470.695 34.46 470.362 34.34 470.108 34.1C469.855 33.86 469.728 33.54 469.728 33.14C469.728 32.7533 469.855 32.44 470.108 32.2C470.362 31.96 470.695 31.84 471.108 31.84C471.522 31.84 471.855 31.96 472.108 32.2C472.362 32.44 472.488 32.7533 472.488 33.14C472.488 33.54 472.362 33.86 472.108 34.1C471.855 34.34 471.522 34.46 471.108 34.46ZM478.643 46.24C477.509 46.24 476.703 45.9133 476.223 45.26C475.756 44.5933 475.523 43.7333 475.523 42.68V38H474.123V36.28L475.643 36.18L475.923 33.5H477.843V36.18H480.343V38H477.843V42.68C477.843 43.8267 478.303 44.4 479.223 44.4C479.396 44.4 479.576 44.38 479.763 44.34C479.949 44.2867 480.109 44.2333 480.243 44.18L480.643 45.88C480.376 45.9733 480.069 46.0533 479.723 46.12C479.389 46.2 479.029 46.24 478.643 46.24ZM485.479 46.24C484.345 46.24 483.539 45.9133 483.059 45.26C482.592 44.5933 482.359 43.7333 482.359 42.68V38H480.959V36.28L482.479 36.18L482.759 33.5H484.679V36.18H487.179V38H484.679V42.68C484.679 43.8267 485.139 44.4 486.059 44.4C486.232 44.4 486.412 44.38 486.599 44.34C486.785 44.2867 486.945 44.2333 487.079 44.18L487.479 45.88C487.212 45.9733 486.905 46.0533 486.559 46.12C486.225 46.2 485.865 46.24 485.479 46.24ZM489.245 46V36.18H491.545V46H489.245ZM490.405 34.46C489.992 34.46 489.658 34.34 489.405 34.1C489.152 33.86 489.025 33.54 489.025 33.14C489.025 32.7533 489.152 32.44 489.405 32.2C489.658 31.96 489.992 31.84 490.405 31.84C490.818 31.84 491.152 31.96 491.405 32.2C491.658 32.44 491.785 32.7533 491.785 33.14C491.785 33.54 491.658 33.86 491.405 34.1C491.152 34.34 490.818 34.46 490.405 34.46ZM494.48 46V36.18H496.38L496.54 37.5H496.62C497.06 37.0733 497.54 36.7067 498.06 36.4C498.58 36.0933 499.173 35.94 499.84 35.94C500.893 35.94 501.66 36.28 502.14 36.96C502.62 37.64 502.86 38.6 502.86 39.84V46H500.56V40.14C500.56 39.3267 500.44 38.7533 500.2 38.42C499.96 38.0867 499.566 37.92 499.02 37.92C498.593 37.92 498.213 38.0267 497.88 38.24C497.56 38.44 497.193 38.74 496.78 39.14V46H494.48ZM509.091 50.34C508.318 50.34 507.618 50.2467 506.991 50.06C506.378 49.8733 505.891 49.5867 505.531 49.2C505.184 48.8267 505.011 48.3533 505.011 47.78C505.011 46.9667 505.478 46.2667 506.411 45.68V45.6C506.158 45.44 505.944 45.2267 505.771 44.96C505.611 44.6933 505.531 44.36 505.531 43.96C505.531 43.5733 505.638 43.2267 505.851 42.92C506.078 42.6 506.331 42.34 506.611 42.14V42.06C506.278 41.8067 505.978 41.4533 505.711 41C505.458 40.5467 505.331 40.0333 505.331 39.46C505.331 38.7 505.511 38.06 505.871 37.54C506.231 37.02 506.704 36.6267 507.291 36.36C507.891 36.08 508.531 35.94 509.211 35.94C509.478 35.94 509.731 35.9667 509.971 36.02C510.224 36.06 510.451 36.1133 510.651 36.18H514.171V37.88H512.371C512.531 38.0667 512.664 38.3067 512.771 38.6C512.878 38.88 512.931 39.1933 512.931 39.54C512.931 40.26 512.764 40.8733 512.431 41.38C512.098 41.8733 511.651 42.2467 511.091 42.5C510.531 42.7533 509.904 42.88 509.211 42.88C508.998 42.88 508.778 42.86 508.551 42.82C508.324 42.78 508.098 42.7133 507.871 42.62C507.724 42.7533 507.604 42.8867 507.511 43.02C507.431 43.1533 507.391 43.3333 507.391 43.56C507.391 43.84 507.504 44.06 507.731 44.22C507.971 44.38 508.391 44.46 508.991 44.46H510.731C511.918 44.46 512.811 44.6533 513.411 45.04C514.024 45.4133 514.331 46.0267 514.331 46.88C514.331 47.52 514.118 48.1 513.691 48.62C513.264 49.1533 512.658 49.5733 511.871 49.88C511.084 50.1867 510.158 50.34 509.091 50.34ZM509.211 41.44C509.678 41.44 510.078 41.2667 510.411 40.92C510.744 40.5733 510.911 40.0867 510.911 39.46C510.911 38.8467 510.744 38.3733 510.411 38.04C510.091 37.6933 509.691 37.52 509.211 37.52C508.731 37.52 508.324 37.6867 507.991 38.02C507.658 38.3533 507.491 38.8333 507.491 39.46C507.491 40.0867 507.658 40.5733 507.991 40.92C508.324 41.2667 508.731 41.44 509.211 41.44ZM509.451 48.84C510.238 48.84 510.878 48.68 511.371 48.36C511.864 48.04 512.111 47.6733 512.111 47.26C512.111 46.8733 511.958 46.6133 511.651 46.48C511.358 46.3467 510.931 46.28 510.371 46.28H509.031C508.498 46.28 508.051 46.2333 507.691 46.14C507.184 46.5267 506.931 46.96 506.931 47.44C506.931 47.88 507.158 48.22 507.611 48.46C508.064 48.7133 508.678 48.84 509.451 48.84Z" fill="#232A3D"/>
<circle cx="137" cy="223" r="5" fill="#1F69FF" fill-opacity="0.7"/>
<circle cx="435" cy="223" r="5" fill="#1F69FF" fill-opacity="0.7"/>
<circle cx="202" cy="215" r="5" fill="#1F69FF" fill-opacity="0.7"/>
<circle cx="500" cy="215" r="5" fill="#1F69FF" fill-opacity="0.7"/>
<circle cx="210" cy="173" r="5" fill="#1F69FF" fill-opacity="0.7"/>
<circle cx="508" cy="173" r="5" fill="#1F69FF" fill-opacity="0.7"/>
<circle cx="260.5" cy="195.5" r="4.5" fill="#1F69FF" fill-opacity="0.7"/>
<ellipse cx="558" cy="195.5" rx="5" ry="4.5" fill="#1F69FF" fill-opacity="0.7"/>
<circle cx="88" cy="238" r="5" fill="#1F69FF" fill-opacity="0.7"/>
<circle cx="386" cy="238" r="5" fill="#1F69FF" fill-opacity="0.7"/>
<circle cx="38.5" cy="205.5" r="4.5" fill="#1F69FF" fill-opacity="0.7"/>
<circle cx="335.5" cy="205.5" r="4.5" fill="#1F69FF" fill-opacity="0.7"/>
<ellipse cx="166" cy="189.5" rx="5" ry="4.5" fill="#1F69FF" fill-opacity="0.7"/>
<ellipse cx="464" cy="189.5" rx="5" ry="4.5" fill="#1F69FF" fill-opacity="0.7"/>
<circle cx="215" cy="159" r="5" fill="#1F69FF" fill-opacity="0.7"/>
<circle cx="512" cy="159" r="5" fill="#1F69FF" fill-opacity="0.7"/>
<ellipse cx="265.5" cy="180" rx="4.5" ry="5" fill="#1F69FF" fill-opacity="0.7"/>
<ellipse cx="563.5" cy="180" rx="4.5" ry="5" fill="#1F69FF" fill-opacity="0.7"/>
<circle cx="271" cy="157" r="5" fill="#1F69FF" fill-opacity="0.7"/>
<ellipse cx="570.5" cy="157" rx="4.5" ry="5" fill="#1F69FF" fill-opacity="0.7"/>
<ellipse cx="106" cy="194.5" rx="5" ry="4.5" fill="#1F69FF" fill-opacity="0.7"/>
<ellipse cx="403" cy="194.5" rx="5" ry="4.5" fill="#1F69FF" fill-opacity="0.7"/>
<circle cx="99" cy="210" r="5" fill="#1F69FF" fill-opacity="0.7"/>
<circle cx="397" cy="210" r="5" fill="#1F69FF" fill-opacity="0.7"/>
<ellipse cx="149.5" cy="199" rx="4.5" ry="5" fill="#1F69FF" fill-opacity="0.7"/>
<circle cx="447" cy="199" r="5" fill="#1F69FF" fill-opacity="0.7"/>
<circle cx="181" cy="210" r="5" fill="#1F69FF" fill-opacity="0.7"/>
<circle cx="479" cy="210" r="5" fill="#1F69FF" fill-opacity="0.7"/>
<ellipse cx="200" cy="192.5" rx="5" ry="4.5" fill="#1F69FF" fill-opacity="0.7"/>
<ellipse cx="498" cy="192.5" rx="5" ry="4.5" fill="#1F69FF" fill-opacity="0.7"/>
<circle cx="242.5" cy="195.5" r="4.5" fill="#1F69FF" fill-opacity="0.7"/>
<ellipse cx="541" cy="195.5" rx="5" ry="4.5" fill="#1F69FF" fill-opacity="0.7"/>
<circle cx="181" cy="179" r="5" fill="#1F69FF" fill-opacity="0.7"/>
<circle cx="479" cy="179" r="5" fill="#1F69FF" fill-opacity="0.7"/>
<ellipse cx="116.5" cy="223" rx="4.5" ry="5" fill="#1F69FF" fill-opacity="0.7"/>
<ellipse cx="416.5" cy="223" rx="4.5" ry="5" fill="#1F69FF" fill-opacity="0.7"/>
<circle cx="161" cy="213" r="5" fill="#1F69FF" fill-opacity="0.7"/>
<circle cx="458" cy="213" r="5" fill="#1F69FF" fill-opacity="0.7"/>
<ellipse cx="85" cy="195.5" rx="5" ry="4.5" fill="#1F69FF" fill-opacity="0.7"/>
<ellipse cx="382" cy="195.5" rx="5" ry="4.5" fill="#1F69FF" fill-opacity="0.7"/>
<circle cx="237.5" cy="169.5" r="4.5" fill="#1F69FF" fill-opacity="0.7"/>
<ellipse cx="535" cy="169.5" rx="5" ry="4.5" fill="#1F69FF" fill-opacity="0.7"/>
<ellipse cx="282" cy="164.5" rx="5" ry="4.5" fill="#1F69FF" fill-opacity="0.7"/>
<ellipse cx="580" cy="164.5" rx="5" ry="4.5" fill="#1F69FF" fill-opacity="0.7"/>
<ellipse cx="260.5" cy="128" rx="4.5" ry="4" fill="#1F69FF" fill-opacity="0.7"/>
<ellipse cx="558" cy="128" rx="5" ry="4" fill="#1F69FF" fill-opacity="0.7"/>
<circle cx="30.4124" cy="158.849" r="4.7973" transform="rotate(2.14759 30.4124 158.849)" fill="#1F69FF" fill-opacity="0.7"/>
<circle cx="328.491" cy="158.849" r="4.7973" transform="rotate(2.14759 328.491 158.849)" fill="#1F69FF" fill-opacity="0.7"/>
<circle cx="64.091" cy="179.898" r="4.7973" transform="rotate(2.14759 64.091 179.898)" fill="#1F69FF" fill-opacity="0.7"/>
<circle cx="362.17" cy="179.898" r="4.7973" transform="rotate(2.14759 362.17 179.898)" fill="#1F69FF" fill-opacity="0.7"/>
<circle cx="64.091" cy="200.947" r="4.7973" transform="rotate(2.14759 64.091 200.947)" fill="#1F69FF" fill-opacity="0.7"/>
<circle cx="362.17" cy="200.947" r="4.7973" transform="rotate(2.14759 362.17 200.947)" fill="#1F69FF" fill-opacity="0.7"/>
<circle cx="78.4044" cy="221.154" r="4.7973" transform="rotate(2.14759 78.4044 221.154)" fill="#1F69FF" fill-opacity="0.7"/>
<circle cx="376.483" cy="221.154" r="4.7973" transform="rotate(2.14759 376.483 221.154)" fill="#1F69FF" fill-opacity="0.7"/>
<circle cx="30.4124" cy="180.74" r="4.7973" transform="rotate(2.14759 30.4124 180.74)" fill="#1F69FF" fill-opacity="0.7"/>
<circle cx="328.491" cy="180.74" r="4.7973" transform="rotate(2.14759 328.491 180.74)" fill="#1F69FF" fill-opacity="0.7"/>
<path d="M38 154.228C38 154.228 41.4052 217.394 60.9853 184.513C80.5654 151.632 88.1644 241.993 104.402 228.643C119.541 216.196 101.128 152.063 141.622 210.603C161.001 238.621 165.729 157.155 191.529 190.776C241.69 256.142 209.964 130 233.801 154.228C289.987 233.835 284.879 130 284.879 130" stroke="#9B51E0" stroke-width="3" stroke-linecap="round"/>
<path d="M335 160.25C347.114 219.769 462.307 259.552 581 150" stroke="#9B51E0" stroke-width="3" stroke-linecap="round"/>
</svg>
