<svg width="600" height="264" viewBox="0 0 600 264" fill="none" xmlns="http://www.w3.org/2000/svg">
<rect width="600" height="264" fill="white"/>
<rect opacity="0.1" x="29" y="33" width="261" height="133" fill="#9B51E0"/>
<rect opacity="0.15" x="290" y="33" width="281" height="133" fill="#1F69FF"/>
<path d="M108.459 91V77.92H111.079L113.399 84.32C113.545 84.7333 113.685 85.16 113.819 85.6C113.965 86.0267 114.105 86.4533 114.239 86.88H114.319C114.465 86.4533 114.605 86.0267 114.739 85.6C114.872 85.16 115.005 84.7333 115.139 84.32L117.399 77.92H120.039V91H117.899V85.02C117.899 84.6067 117.912 84.16 117.939 83.68C117.979 83.1867 118.019 82.6933 118.059 82.2C118.112 81.7067 118.159 81.26 118.199 80.86H118.119L117.059 83.9L114.919 89.78H113.539L111.379 83.9L110.339 80.86H110.259C110.299 81.26 110.339 81.7067 110.379 82.2C110.432 82.6933 110.472 83.1867 110.499 83.68C110.539 84.16 110.559 84.6067 110.559 85.02V91H108.459ZM127.181 91.24C126.368 91.24 125.608 91.04 124.901 90.64C124.195 90.2267 123.621 89.64 123.181 88.88C122.741 88.1067 122.521 87.18 122.521 86.1C122.521 85.0067 122.741 84.08 123.181 83.32C123.621 82.5467 124.195 81.96 124.901 81.56C125.608 81.1467 126.368 80.94 127.181 80.94C128.008 80.94 128.775 81.1467 129.481 81.56C130.188 81.96 130.761 82.5467 131.201 83.32C131.641 84.08 131.861 85.0067 131.861 86.1C131.861 87.18 131.641 88.1067 131.201 88.88C130.761 89.64 130.188 90.2267 129.481 90.64C128.775 91.04 128.008 91.24 127.181 91.24ZM127.181 89.36C127.901 89.36 128.468 89.06 128.881 88.46C129.295 87.86 129.501 87.0733 129.501 86.1C129.501 85.1133 129.295 84.32 128.881 83.72C128.468 83.12 127.901 82.82 127.181 82.82C126.461 82.82 125.895 83.12 125.481 83.72C125.081 84.32 124.881 85.1133 124.881 86.1C124.881 87.0733 125.081 87.86 125.481 88.46C125.895 89.06 126.461 89.36 127.181 89.36ZM134.138 91V81.18H136.038L136.198 82.92H136.278C136.624 82.28 137.044 81.7933 137.538 81.46C138.031 81.1133 138.538 80.94 139.058 80.94C139.524 80.94 139.898 81.0067 140.178 81.14L139.778 83.14C139.604 83.0867 139.444 83.0467 139.298 83.02C139.151 82.9933 138.971 82.98 138.758 82.98C138.371 82.98 137.964 83.1333 137.538 83.44C137.111 83.7333 136.744 84.2533 136.438 85V91H134.138ZM145.603 91.24C144.697 91.24 143.877 91.04 143.143 90.64C142.41 90.2267 141.83 89.64 141.403 88.88C140.977 88.1067 140.763 87.18 140.763 86.1C140.763 85.0333 140.977 84.1133 141.403 83.34C141.843 82.5667 142.41 81.9733 143.103 81.56C143.797 81.1467 144.523 80.94 145.283 80.94C146.177 80.94 146.923 81.14 147.523 81.54C148.123 81.9267 148.577 82.4733 148.883 83.18C149.19 83.8733 149.343 84.68 149.343 85.6C149.343 86.08 149.31 86.4533 149.243 86.72H143.003C143.11 87.5867 143.423 88.26 143.943 88.74C144.463 89.22 145.117 89.46 145.903 89.46C146.33 89.46 146.723 89.4 147.083 89.28C147.457 89.1467 147.823 88.9667 148.183 88.74L148.963 90.18C148.497 90.4867 147.977 90.74 147.403 90.94C146.83 91.14 146.23 91.24 145.603 91.24ZM142.983 85.16H147.343C147.343 84.4 147.177 83.8067 146.843 83.38C146.51 82.94 146.01 82.72 145.343 82.72C144.77 82.72 144.257 82.9333 143.803 83.36C143.363 83.7733 143.09 84.3733 142.983 85.16ZM157.784 91.24C156.971 91.24 156.391 90.9933 156.044 90.5C155.711 90.0067 155.544 89.3333 155.544 88.48V76.88H157.844V88.6C157.844 88.88 157.897 89.08 158.004 89.2C158.111 89.3067 158.224 89.36 158.344 89.36C158.397 89.36 158.444 89.36 158.484 89.36C158.537 89.3467 158.611 89.3333 158.704 89.32L159.004 91.04C158.871 91.0933 158.697 91.14 158.484 91.18C158.284 91.22 158.051 91.24 157.784 91.24ZM160.974 91V81.18H163.274V91H160.974ZM162.134 79.46C161.72 79.46 161.387 79.34 161.134 79.1C160.88 78.86 160.754 78.54 160.754 78.14C160.754 77.7533 160.88 77.44 161.134 77.2C161.387 76.96 161.72 76.84 162.134 76.84C162.547 76.84 162.88 76.96 163.134 77.2C163.387 77.44 163.514 77.7533 163.514 78.14C163.514 78.54 163.387 78.86 163.134 79.1C162.88 79.34 162.547 79.46 162.134 79.46ZM166.208 91V76.88H168.468V85.7H168.528L172.168 81.18H174.688L171.328 85.18L175.028 91H172.528L170.008 86.74L168.468 88.5V91H166.208ZM180.389 91.24C179.482 91.24 178.662 91.04 177.929 90.64C177.195 90.2267 176.615 89.64 176.189 88.88C175.762 88.1067 175.549 87.18 175.549 86.1C175.549 85.0333 175.762 84.1133 176.189 83.34C176.629 82.5667 177.195 81.9733 177.889 81.56C178.582 81.1467 179.309 80.94 180.069 80.94C180.962 80.94 181.709 81.14 182.309 81.54C182.909 81.9267 183.362 82.4733 183.669 83.18C183.975 83.8733 184.129 84.68 184.129 85.6C184.129 86.08 184.095 86.4533 184.029 86.72H177.789C177.895 87.5867 178.209 88.26 178.729 88.74C179.249 89.22 179.902 89.46 180.689 89.46C181.115 89.46 181.509 89.4 181.869 89.28C182.242 89.1467 182.609 88.9667 182.969 88.74L183.749 90.18C183.282 90.4867 182.762 90.74 182.189 90.94C181.615 91.14 181.015 91.24 180.389 91.24ZM177.769 85.16H182.129C182.129 84.4 181.962 83.8067 181.629 83.38C181.295 82.94 180.795 82.72 180.129 82.72C179.555 82.72 179.042 82.9333 178.589 83.36C178.149 83.7733 177.875 84.3733 177.769 85.16ZM188.565 91.24C187.752 91.24 187.172 90.9933 186.825 90.5C186.492 90.0067 186.325 89.3333 186.325 88.48V76.88H188.625V88.6C188.625 88.88 188.679 89.08 188.785 89.2C188.892 89.3067 189.005 89.36 189.125 89.36C189.179 89.36 189.225 89.36 189.265 89.36C189.319 89.3467 189.392 89.3333 189.485 89.32L189.785 91.04C189.652 91.0933 189.479 91.14 189.265 91.18C189.065 91.22 188.832 91.24 188.565 91.24ZM192.415 95.04C192.148 95.04 191.915 95.02 191.715 94.98C191.515 94.94 191.322 94.8933 191.135 94.84L191.555 93.04C191.648 93.0667 191.755 93.0933 191.875 93.12C192.008 93.16 192.135 93.18 192.255 93.18C192.775 93.18 193.188 93.02 193.495 92.7C193.815 92.3933 194.055 91.9933 194.215 91.5L194.395 90.88L190.535 81.18H192.875L194.575 86C194.722 86.4267 194.862 86.88 194.995 87.36C195.142 87.8267 195.288 88.2933 195.435 88.76H195.515C195.635 88.3067 195.755 87.8467 195.875 87.38C196.008 86.9 196.135 86.44 196.255 86L197.735 81.18H199.955L196.395 91.44C195.982 92.5467 195.482 93.42 194.895 94.06C194.308 94.7133 193.482 95.04 192.415 95.04ZM100.313 119.24C99.1792 119.24 98.3726 118.913 97.8926 118.26C97.4259 117.593 97.1926 116.733 97.1926 115.68V111H95.7926V109.28L97.3126 109.18L97.5926 106.5H99.5126V109.18H102.013V111H99.5126V115.68C99.5126 116.827 99.9726 117.4 100.893 117.4C101.066 117.4 101.246 117.38 101.433 117.34C101.619 117.287 101.779 117.233 101.913 117.18L102.313 118.88C102.046 118.973 101.739 119.053 101.393 119.12C101.059 119.2 100.699 119.24 100.313 119.24ZM107.787 119.24C106.973 119.24 106.213 119.04 105.507 118.64C104.8 118.227 104.227 117.64 103.787 116.88C103.347 116.107 103.127 115.18 103.127 114.1C103.127 113.007 103.347 112.08 103.787 111.32C104.227 110.547 104.8 109.96 105.507 109.56C106.213 109.147 106.973 108.94 107.787 108.94C108.613 108.94 109.38 109.147 110.087 109.56C110.793 109.96 111.367 110.547 111.807 111.32C112.247 112.08 112.467 113.007 112.467 114.1C112.467 115.18 112.247 116.107 111.807 116.88C111.367 117.64 110.793 118.227 110.087 118.64C109.38 119.04 108.613 119.24 107.787 119.24ZM107.787 117.36C108.507 117.36 109.073 117.06 109.487 116.46C109.9 115.86 110.107 115.073 110.107 114.1C110.107 113.113 109.9 112.32 109.487 111.72C109.073 111.12 108.507 110.82 107.787 110.82C107.067 110.82 106.5 111.12 106.087 111.72C105.687 112.32 105.487 113.113 105.487 114.1C105.487 115.073 105.687 115.86 106.087 116.46C106.5 117.06 107.067 117.36 107.787 117.36ZM118.747 119V109.18H120.647L120.807 110.5H120.887C121.327 110.073 121.807 109.707 122.327 109.4C122.847 109.093 123.44 108.94 124.107 108.94C125.16 108.94 125.927 109.28 126.407 109.96C126.887 110.64 127.127 111.6 127.127 112.84V119H124.827V113.14C124.827 112.327 124.707 111.753 124.467 111.42C124.227 111.087 123.834 110.92 123.287 110.92C122.86 110.92 122.48 111.027 122.147 111.24C121.827 111.44 121.46 111.74 121.047 112.14V119H118.747ZM133.959 119.24C133.145 119.24 132.385 119.04 131.679 118.64C130.972 118.227 130.399 117.64 129.959 116.88C129.519 116.107 129.299 115.18 129.299 114.1C129.299 113.007 129.519 112.08 129.959 111.32C130.399 110.547 130.972 109.96 131.679 109.56C132.385 109.147 133.145 108.94 133.959 108.94C134.785 108.94 135.552 109.147 136.259 109.56C136.965 109.96 137.539 110.547 137.979 111.32C138.419 112.08 138.639 113.007 138.639 114.1C138.639 115.18 138.419 116.107 137.979 116.88C137.539 117.64 136.965 118.227 136.259 118.64C135.552 119.04 134.785 119.24 133.959 119.24ZM133.959 117.36C134.679 117.36 135.245 117.06 135.659 116.46C136.072 115.86 136.279 115.073 136.279 114.1C136.279 113.113 136.072 112.32 135.659 111.72C135.245 111.12 134.679 110.82 133.959 110.82C133.239 110.82 132.672 111.12 132.259 111.72C131.859 112.32 131.659 113.113 131.659 114.1C131.659 115.073 131.859 115.86 132.259 116.46C132.672 117.06 133.239 117.36 133.959 117.36ZM143.926 119.24C142.793 119.24 141.986 118.913 141.506 118.26C141.039 117.593 140.806 116.733 140.806 115.68V111H139.406V109.28L140.926 109.18L141.206 106.5H143.126V109.18H145.626V111H143.126V115.68C143.126 116.827 143.586 117.4 144.506 117.4C144.679 117.4 144.859 117.38 145.046 117.34C145.233 117.287 145.393 117.233 145.526 117.18L145.926 118.88C145.659 118.973 145.353 119.053 145.006 119.12C144.673 119.2 144.313 119.24 143.926 119.24ZM151.696 119V104.88H153.996V108.52L153.916 110.42C154.33 110.033 154.79 109.693 155.296 109.4C155.803 109.093 156.39 108.94 157.056 108.94C158.11 108.94 158.876 109.28 159.356 109.96C159.836 110.64 160.076 111.6 160.076 112.84V119H157.776V113.14C157.776 112.327 157.656 111.753 157.416 111.42C157.176 111.087 156.783 110.92 156.236 110.92C155.81 110.92 155.43 111.027 155.096 111.24C154.776 111.44 154.41 111.74 153.996 112.14V119H151.696ZM165.229 119.24C164.375 119.24 163.675 118.973 163.129 118.44C162.595 117.907 162.329 117.213 162.329 116.36C162.329 115.307 162.789 114.493 163.709 113.92C164.629 113.333 166.095 112.933 168.109 112.72C168.095 112.2 167.955 111.753 167.689 111.38C167.435 110.993 166.975 110.8 166.309 110.8C165.829 110.8 165.355 110.893 164.889 111.08C164.435 111.267 163.989 111.493 163.549 111.76L162.709 110.22C163.255 109.873 163.869 109.573 164.549 109.32C165.242 109.067 165.975 108.94 166.749 108.94C167.975 108.94 168.889 109.307 169.489 110.04C170.102 110.76 170.409 111.807 170.409 113.18V119H168.509L168.349 117.92H168.269C167.829 118.293 167.355 118.607 166.849 118.86C166.355 119.113 165.815 119.24 165.229 119.24ZM165.969 117.44C166.369 117.44 166.729 117.347 167.049 117.16C167.382 116.96 167.735 116.693 168.109 116.36V114.16C166.775 114.333 165.849 114.593 165.329 114.94C164.809 115.273 164.549 115.687 164.549 116.18C164.549 116.62 164.682 116.94 164.949 117.14C165.215 117.34 165.555 117.44 165.969 117.44ZM173.161 122.88V109.18H175.061L175.221 110.22H175.301C175.715 109.873 176.175 109.573 176.681 109.32C177.201 109.067 177.728 108.94 178.261 108.94C179.488 108.94 180.435 109.393 181.101 110.3C181.781 111.207 182.121 112.42 182.121 113.94C182.121 115.06 181.921 116.02 181.521 116.82C181.121 117.607 180.601 118.207 179.961 118.62C179.335 119.033 178.655 119.24 177.921 119.24C177.495 119.24 177.068 119.147 176.641 118.96C176.215 118.76 175.801 118.493 175.401 118.16L175.461 119.8V122.88H173.161ZM177.441 117.34C178.095 117.34 178.641 117.053 179.081 116.48C179.521 115.907 179.741 115.067 179.741 113.96C179.741 112.973 179.575 112.207 179.241 111.66C178.908 111.113 178.368 110.84 177.621 110.84C176.928 110.84 176.208 111.207 175.461 111.94V116.52C175.821 116.813 176.168 117.027 176.501 117.16C176.835 117.28 177.148 117.34 177.441 117.34ZM184.45 122.88V109.18H186.35L186.51 110.22H186.59C187.004 109.873 187.464 109.573 187.97 109.32C188.49 109.067 189.017 108.94 189.55 108.94C190.777 108.94 191.724 109.393 192.39 110.3C193.07 111.207 193.41 112.42 193.41 113.94C193.41 115.06 193.21 116.02 192.81 116.82C192.41 117.607 191.89 118.207 191.25 118.62C190.624 119.033 189.944 119.24 189.21 119.24C188.784 119.24 188.357 119.147 187.93 118.96C187.504 118.76 187.09 118.493 186.69 118.16L186.75 119.8V122.88H184.45ZM188.73 117.34C189.384 117.34 189.93 117.053 190.37 116.48C190.81 115.907 191.03 115.067 191.03 113.96C191.03 112.973 190.864 112.207 190.53 111.66C190.197 111.113 189.657 110.84 188.91 110.84C188.217 110.84 187.497 111.207 186.75 111.94V116.52C187.11 116.813 187.457 117.027 187.79 117.16C188.124 117.28 188.437 117.34 188.73 117.34ZM199.939 119.24C199.033 119.24 198.213 119.04 197.479 118.64C196.746 118.227 196.166 117.64 195.739 116.88C195.313 116.107 195.099 115.18 195.099 114.1C195.099 113.033 195.313 112.113 195.739 111.34C196.179 110.567 196.746 109.973 197.439 109.56C198.133 109.147 198.859 108.94 199.619 108.94C200.513 108.94 201.259 109.14 201.859 109.54C202.459 109.927 202.913 110.473 203.219 111.18C203.526 111.873 203.679 112.68 203.679 113.6C203.679 114.08 203.646 114.453 203.579 114.72H197.339C197.446 115.587 197.759 116.26 198.279 116.74C198.799 117.22 199.453 117.46 200.239 117.46C200.666 117.46 201.059 117.4 201.419 117.28C201.793 117.147 202.159 116.967 202.519 116.74L203.299 118.18C202.833 118.487 202.313 118.74 201.739 118.94C201.166 119.14 200.566 119.24 199.939 119.24ZM197.319 113.16H201.679C201.679 112.4 201.513 111.807 201.179 111.38C200.846 110.94 200.346 110.72 199.679 110.72C199.106 110.72 198.593 110.933 198.139 111.36C197.699 111.773 197.426 112.373 197.319 113.16ZM205.876 119V109.18H207.776L207.936 110.5H208.016C208.456 110.073 208.936 109.707 209.456 109.4C209.976 109.093 210.569 108.94 211.236 108.94C212.289 108.94 213.056 109.28 213.536 109.96C214.016 110.64 214.256 111.6 214.256 112.84V119H211.956V113.14C211.956 112.327 211.836 111.753 211.596 111.42C211.356 111.087 210.963 110.92 210.416 110.92C209.989 110.92 209.609 111.027 209.276 111.24C208.956 111.44 208.589 111.74 208.176 112.14V119H205.876Z" fill="#232A3D"/>
<path d="M284.53 222V219.18H288.79V206.64H285.28V204.48C286.22 204.3 287.04 204.09 287.74 203.85C288.44 203.59 289.09 203.28 289.69 202.92H292.27V219.18H296.02V222H284.53Z" fill="#232A3D"/>
<rect x="125" y="194" width="57" height="39" fill="#F5EEFC"/>
<path d="M152.489 218.49L139.139 213.3V210.78L152.489 205.59V208.5L146.699 210.54L142.649 211.98V212.1L146.699 213.54L152.489 215.58V218.49ZM155.72 222V219.18H159.98V206.64H156.47V204.48C157.41 204.3 158.23 204.09 158.93 203.85C159.63 203.59 160.28 203.28 160.88 202.92H163.46V219.18H167.21V222H155.72Z" fill="#232A3D"/>
<rect x="398" y="194" width="57" height="39" fill="#DDE9FF"/>
<path d="M412.139 218.49V215.58L417.929 213.54L421.979 212.1V211.98L417.929 210.54L412.139 208.5V205.59L425.489 210.78V213.3L412.139 218.49ZM428.72 222V219.18H432.98V206.64H429.47V204.48C430.41 204.3 431.23 204.09 431.93 203.85C432.63 203.59 433.28 203.28 433.88 202.92H436.46V219.18H440.21V222H428.72Z" fill="#232A3D"/>
<path d="M380.959 94V80.92H383.579L385.899 87.32C386.045 87.7333 386.185 88.16 386.319 88.6C386.465 89.0267 386.605 89.4533 386.739 89.88H386.819C386.965 89.4533 387.105 89.0267 387.239 88.6C387.372 88.16 387.505 87.7333 387.639 87.32L389.899 80.92H392.539V94H390.399V88.02C390.399 87.6067 390.412 87.16 390.439 86.68C390.479 86.1867 390.519 85.6933 390.559 85.2C390.612 84.7067 390.659 84.26 390.699 83.86H390.619L389.559 86.9L387.419 92.78H386.039L383.879 86.9L382.839 83.86H382.759C382.799 84.26 382.839 84.7067 382.879 85.2C382.932 85.6933 382.972 86.1867 382.999 86.68C383.039 87.16 383.059 87.6067 383.059 88.02V94H380.959ZM399.681 94.24C398.868 94.24 398.108 94.04 397.401 93.64C396.695 93.2267 396.121 92.64 395.681 91.88C395.241 91.1067 395.021 90.18 395.021 89.1C395.021 88.0067 395.241 87.08 395.681 86.32C396.121 85.5467 396.695 84.96 397.401 84.56C398.108 84.1467 398.868 83.94 399.681 83.94C400.508 83.94 401.275 84.1467 401.981 84.56C402.688 84.96 403.261 85.5467 403.701 86.32C404.141 87.08 404.361 88.0067 404.361 89.1C404.361 90.18 404.141 91.1067 403.701 91.88C403.261 92.64 402.688 93.2267 401.981 93.64C401.275 94.04 400.508 94.24 399.681 94.24ZM399.681 92.36C400.401 92.36 400.968 92.06 401.381 91.46C401.795 90.86 402.001 90.0733 402.001 89.1C402.001 88.1133 401.795 87.32 401.381 86.72C400.968 86.12 400.401 85.82 399.681 85.82C398.961 85.82 398.395 86.12 397.981 86.72C397.581 87.32 397.381 88.1133 397.381 89.1C397.381 90.0733 397.581 90.86 397.981 91.46C398.395 92.06 398.961 92.36 399.681 92.36ZM406.638 94V84.18H408.538L408.698 85.92H408.778C409.124 85.28 409.544 84.7933 410.038 84.46C410.531 84.1133 411.038 83.94 411.558 83.94C412.024 83.94 412.398 84.0067 412.678 84.14L412.278 86.14C412.104 86.0867 411.944 86.0467 411.798 86.02C411.651 85.9933 411.471 85.98 411.258 85.98C410.871 85.98 410.464 86.1333 410.038 86.44C409.611 86.7333 409.244 87.2533 408.938 88V94H406.638ZM418.103 94.24C417.197 94.24 416.377 94.04 415.643 93.64C414.91 93.2267 414.33 92.64 413.903 91.88C413.477 91.1067 413.263 90.18 413.263 89.1C413.263 88.0333 413.477 87.1133 413.903 86.34C414.343 85.5667 414.91 84.9733 415.603 84.56C416.297 84.1467 417.023 83.94 417.783 83.94C418.677 83.94 419.423 84.14 420.023 84.54C420.623 84.9267 421.077 85.4733 421.383 86.18C421.69 86.8733 421.843 87.68 421.843 88.6C421.843 89.08 421.81 89.4533 421.743 89.72H415.503C415.61 90.5867 415.923 91.26 416.443 91.74C416.963 92.22 417.617 92.46 418.403 92.46C418.83 92.46 419.223 92.4 419.583 92.28C419.957 92.1467 420.323 91.9667 420.683 91.74L421.463 93.18C420.997 93.4867 420.477 93.74 419.903 93.94C419.33 94.14 418.73 94.24 418.103 94.24ZM415.483 88.16H419.843C419.843 87.4 419.677 86.8067 419.343 86.38C419.01 85.94 418.51 85.72 417.843 85.72C417.27 85.72 416.757 85.9333 416.303 86.36C415.863 86.7733 415.59 87.3733 415.483 88.16ZM430.284 94.24C429.471 94.24 428.891 93.9933 428.544 93.5C428.211 93.0067 428.044 92.3333 428.044 91.48V79.88H430.344V91.6C430.344 91.88 430.397 92.08 430.504 92.2C430.611 92.3067 430.724 92.36 430.844 92.36C430.897 92.36 430.944 92.36 430.984 92.36C431.037 92.3467 431.111 92.3333 431.204 92.32L431.504 94.04C431.371 94.0933 431.197 94.14 430.984 94.18C430.784 94.22 430.551 94.24 430.284 94.24ZM433.474 94V84.18H435.774V94H433.474ZM434.634 82.46C434.22 82.46 433.887 82.34 433.634 82.1C433.38 81.86 433.254 81.54 433.254 81.14C433.254 80.7533 433.38 80.44 433.634 80.2C433.887 79.96 434.22 79.84 434.634 79.84C435.047 79.84 435.38 79.96 435.634 80.2C435.887 80.44 436.014 80.7533 436.014 81.14C436.014 81.54 435.887 81.86 435.634 82.1C435.38 82.34 435.047 82.46 434.634 82.46ZM438.708 94V79.88H440.968V88.7H441.028L444.668 84.18H447.188L443.828 88.18L447.528 94H445.028L442.508 89.74L440.968 91.5V94H438.708ZM452.889 94.24C451.982 94.24 451.162 94.04 450.429 93.64C449.695 93.2267 449.115 92.64 448.689 91.88C448.262 91.1067 448.049 90.18 448.049 89.1C448.049 88.0333 448.262 87.1133 448.689 86.34C449.129 85.5667 449.695 84.9733 450.389 84.56C451.082 84.1467 451.809 83.94 452.569 83.94C453.462 83.94 454.209 84.14 454.809 84.54C455.409 84.9267 455.862 85.4733 456.169 86.18C456.475 86.8733 456.629 87.68 456.629 88.6C456.629 89.08 456.595 89.4533 456.529 89.72H450.289C450.395 90.5867 450.709 91.26 451.229 91.74C451.749 92.22 452.402 92.46 453.189 92.46C453.615 92.46 454.009 92.4 454.369 92.28C454.742 92.1467 455.109 91.9667 455.469 91.74L456.249 93.18C455.782 93.4867 455.262 93.74 454.689 93.94C454.115 94.14 453.515 94.24 452.889 94.24ZM450.269 88.16H454.629C454.629 87.4 454.462 86.8067 454.129 86.38C453.795 85.94 453.295 85.72 452.629 85.72C452.055 85.72 451.542 85.9333 451.089 86.36C450.649 86.7733 450.375 87.3733 450.269 88.16ZM461.065 94.24C460.252 94.24 459.672 93.9933 459.325 93.5C458.992 93.0067 458.825 92.3333 458.825 91.48V79.88H461.125V91.6C461.125 91.88 461.179 92.08 461.285 92.2C461.392 92.3067 461.505 92.36 461.625 92.36C461.679 92.36 461.725 92.36 461.765 92.36C461.819 92.3467 461.892 92.3333 461.985 92.32L462.285 94.04C462.152 94.0933 461.979 94.14 461.765 94.18C461.565 94.22 461.332 94.24 461.065 94.24ZM464.915 98.04C464.648 98.04 464.415 98.02 464.215 97.98C464.015 97.94 463.822 97.8933 463.635 97.84L464.055 96.04C464.148 96.0667 464.255 96.0933 464.375 96.12C464.508 96.16 464.635 96.18 464.755 96.18C465.275 96.18 465.688 96.02 465.995 95.7C466.315 95.3933 466.555 94.9933 466.715 94.5L466.895 93.88L463.035 84.18H465.375L467.075 89C467.222 89.4267 467.362 89.88 467.495 90.36C467.642 90.8267 467.788 91.2933 467.935 91.76H468.015C468.135 91.3067 468.255 90.8467 468.375 90.38C468.508 89.9 468.635 89.44 468.755 89L470.235 84.18H472.455L468.895 94.44C468.482 95.5467 467.982 96.42 467.395 97.06C466.808 97.7133 465.982 98.04 464.915 98.04ZM389.287 122.24C388.154 122.24 387.347 121.913 386.867 121.26C386.401 120.593 386.167 119.733 386.167 118.68V114H384.767V112.28L386.287 112.18L386.567 109.5H388.487V112.18H390.987V114H388.487V118.68C388.487 119.827 388.947 120.4 389.867 120.4C390.041 120.4 390.221 120.38 390.407 120.34C390.594 120.287 390.754 120.233 390.887 120.18L391.287 121.88C391.021 121.973 390.714 122.053 390.367 122.12C390.034 122.2 389.674 122.24 389.287 122.24ZM396.761 122.24C395.948 122.24 395.188 122.04 394.481 121.64C393.775 121.227 393.201 120.64 392.761 119.88C392.321 119.107 392.101 118.18 392.101 117.1C392.101 116.007 392.321 115.08 392.761 114.32C393.201 113.547 393.775 112.96 394.481 112.56C395.188 112.147 395.948 111.94 396.761 111.94C397.588 111.94 398.355 112.147 399.061 112.56C399.768 112.96 400.341 113.547 400.781 114.32C401.221 115.08 401.441 116.007 401.441 117.1C401.441 118.18 401.221 119.107 400.781 119.88C400.341 120.64 399.768 121.227 399.061 121.64C398.355 122.04 397.588 122.24 396.761 122.24ZM396.761 120.36C397.481 120.36 398.048 120.06 398.461 119.46C398.875 118.86 399.081 118.073 399.081 117.1C399.081 116.113 398.875 115.32 398.461 114.72C398.048 114.12 397.481 113.82 396.761 113.82C396.041 113.82 395.475 114.12 395.061 114.72C394.661 115.32 394.461 116.113 394.461 117.1C394.461 118.073 394.661 118.86 395.061 119.46C395.475 120.06 396.041 120.36 396.761 120.36ZM407.722 122V107.88H410.022V111.52L409.942 113.42C410.355 113.033 410.815 112.693 411.322 112.4C411.828 112.093 412.415 111.94 413.082 111.94C414.135 111.94 414.902 112.28 415.382 112.96C415.862 113.64 416.102 114.6 416.102 115.84V122H413.802V116.14C413.802 115.327 413.682 114.753 413.442 114.42C413.202 114.087 412.808 113.92 412.262 113.92C411.835 113.92 411.455 114.027 411.122 114.24C410.802 114.44 410.435 114.74 410.022 115.14V122H407.722ZM421.254 122.24C420.401 122.24 419.701 121.973 419.154 121.44C418.621 120.907 418.354 120.213 418.354 119.36C418.354 118.307 418.814 117.493 419.734 116.92C420.654 116.333 422.121 115.933 424.134 115.72C424.121 115.2 423.981 114.753 423.714 114.38C423.461 113.993 423.001 113.8 422.334 113.8C421.854 113.8 421.381 113.893 420.914 114.08C420.461 114.267 420.014 114.493 419.574 114.76L418.734 113.22C419.281 112.873 419.894 112.573 420.574 112.32C421.267 112.067 422.001 111.94 422.774 111.94C424.001 111.94 424.914 112.307 425.514 113.04C426.127 113.76 426.434 114.807 426.434 116.18V122H424.534L424.374 120.92H424.294C423.854 121.293 423.381 121.607 422.874 121.86C422.381 122.113 421.841 122.24 421.254 122.24ZM421.994 120.44C422.394 120.44 422.754 120.347 423.074 120.16C423.407 119.96 423.761 119.693 424.134 119.36V117.16C422.801 117.333 421.874 117.593 421.354 117.94C420.834 118.273 420.574 118.687 420.574 119.18C420.574 119.62 420.707 119.94 420.974 120.14C421.241 120.34 421.581 120.44 421.994 120.44ZM429.187 125.88V112.18H431.087L431.247 113.22H431.327C431.74 112.873 432.2 112.573 432.707 112.32C433.227 112.067 433.753 111.94 434.287 111.94C435.513 111.94 436.46 112.393 437.127 113.3C437.807 114.207 438.147 115.42 438.147 116.94C438.147 118.06 437.947 119.02 437.547 119.82C437.147 120.607 436.627 121.207 435.987 121.62C435.36 122.033 434.68 122.24 433.947 122.24C433.52 122.24 433.093 122.147 432.667 121.96C432.24 121.76 431.827 121.493 431.427 121.16L431.487 122.8V125.88H429.187ZM433.467 120.34C434.12 120.34 434.667 120.053 435.107 119.48C435.547 118.907 435.767 118.067 435.767 116.96C435.767 115.973 435.6 115.207 435.267 114.66C434.933 114.113 434.393 113.84 433.647 113.84C432.953 113.84 432.233 114.207 431.487 114.94V119.52C431.847 119.813 432.193 120.027 432.527 120.16C432.86 120.28 433.173 120.34 433.467 120.34ZM440.476 125.88V112.18H442.376L442.536 113.22H442.616C443.029 112.873 443.489 112.573 443.996 112.32C444.516 112.067 445.042 111.94 445.576 111.94C446.802 111.94 447.749 112.393 448.416 113.3C449.096 114.207 449.436 115.42 449.436 116.94C449.436 118.06 449.236 119.02 448.836 119.82C448.436 120.607 447.916 121.207 447.276 121.62C446.649 122.033 445.969 122.24 445.236 122.24C444.809 122.24 444.382 122.147 443.956 121.96C443.529 121.76 443.116 121.493 442.716 121.16L442.776 122.8V125.88H440.476ZM444.756 120.34C445.409 120.34 445.956 120.053 446.396 119.48C446.836 118.907 447.056 118.067 447.056 116.96C447.056 115.973 446.889 115.207 446.556 114.66C446.222 114.113 445.682 113.84 444.936 113.84C444.242 113.84 443.522 114.207 442.776 114.94V119.52C443.136 119.813 443.482 120.027 443.816 120.16C444.149 120.28 444.462 120.34 444.756 120.34ZM455.965 122.24C455.058 122.24 454.238 122.04 453.505 121.64C452.771 121.227 452.191 120.64 451.765 119.88C451.338 119.107 451.125 118.18 451.125 117.1C451.125 116.033 451.338 115.113 451.765 114.34C452.205 113.567 452.771 112.973 453.465 112.56C454.158 112.147 454.885 111.94 455.645 111.94C456.538 111.94 457.285 112.14 457.885 112.54C458.485 112.927 458.938 113.473 459.245 114.18C459.551 114.873 459.705 115.68 459.705 116.6C459.705 117.08 459.671 117.453 459.605 117.72H453.365C453.471 118.587 453.785 119.26 454.305 119.74C454.825 120.22 455.478 120.46 456.265 120.46C456.691 120.46 457.085 120.4 457.445 120.28C457.818 120.147 458.185 119.967 458.545 119.74L459.325 121.18C458.858 121.487 458.338 121.74 457.765 121.94C457.191 122.14 456.591 122.24 455.965 122.24ZM453.345 116.16H457.705C457.705 115.4 457.538 114.807 457.205 114.38C456.871 113.94 456.371 113.72 455.705 113.72C455.131 113.72 454.618 113.933 454.165 114.36C453.725 114.773 453.451 115.373 453.345 116.16ZM461.901 122V112.18H463.801L463.961 113.5H464.041C464.481 113.073 464.961 112.707 465.481 112.4C466.001 112.093 466.595 111.94 467.261 111.94C468.315 111.94 469.081 112.28 469.561 112.96C470.041 113.64 470.281 114.6 470.281 115.84V122H467.981V116.14C467.981 115.327 467.861 114.753 467.621 114.42C467.381 114.087 466.988 113.92 466.441 113.92C466.015 113.92 465.635 114.027 465.301 114.24C464.981 114.44 464.615 114.74 464.201 115.14V122H461.901Z" fill="#232A3D"/>
<path d="M290 14L290 188" stroke="#232A3D" stroke-width="2"/>
<path d="M21 166H580" stroke="#7D8FA8" stroke-width="2" stroke-dasharray="4 4"/>
</svg>
