<svg width="600" height="253" viewBox="0 0 600 253" fill="none" xmlns="http://www.w3.org/2000/svg">
<rect width="600" height="253" fill="white"/>
<path d="M273.698 225.721L275.788 222.036L273.819 218.549H275.634L276.327 219.902C276.408 220.064 276.492 220.24 276.58 220.43C276.668 220.621 276.767 220.83 276.877 221.057H276.921C277.002 220.83 277.082 220.621 277.163 220.43C277.244 220.24 277.324 220.064 277.405 219.902L278.043 218.549H279.781L277.812 222.113L279.902 225.721H278.098L277.317 224.258C277.222 224.068 277.126 223.881 277.031 223.697C276.943 223.507 276.848 223.301 276.745 223.081H276.701C276.613 223.301 276.525 223.507 276.437 223.697C276.349 223.881 276.261 224.068 276.173 224.258L275.425 225.721H273.698Z" fill="#232A3D"/>
<path d="M8.486 53.8196V51.3996L6.176 46.6476H7.914L8.64 48.3746C8.75 48.646 8.85633 48.9173 8.959 49.1886C9.069 49.4526 9.179 49.7276 9.289 50.0136H9.333C9.45033 49.7276 9.564 49.4526 9.674 49.1886C9.79133 48.9173 9.90133 48.646 10.004 48.3746L10.73 46.6476H12.424L10.114 51.3996V53.8196H8.486Z" fill="#232A3D"/>
<rect opacity="0.15" x="238.418" y="34.9262" width="50.8689" height="28.0656" rx="5" fill="#C74E4E"/>
<path d="M248.597 55.1885V47.0445C248.597 46.4365 248.719 45.8872 248.965 45.3965C249.221 44.8952 249.605 44.5005 250.117 44.2125C250.639 43.9245 251.317 43.7805 252.149 43.7805C252.607 43.7805 253.039 43.8285 253.445 43.9245C253.85 44.0099 254.218 44.1059 254.549 44.2125L254.101 45.9405C253.845 45.8445 253.578 45.7699 253.301 45.7165C253.034 45.6632 252.746 45.6365 252.437 45.6365C251.935 45.6365 251.562 45.7485 251.317 45.9725C251.071 46.1965 250.949 46.5485 250.949 47.0285V55.1885H248.597ZM246.501 49.0925V47.3485L248.677 47.2525H253.685V49.0925H246.501ZM261.054 58.0525C260.02 57.1245 259.198 56.0525 258.59 54.8365C257.982 53.6099 257.678 52.2445 257.678 50.7405C257.678 49.2365 257.982 47.8712 258.59 46.6445C259.198 45.4179 260.02 44.3459 261.054 43.4285L262.366 44.4685C261.406 45.3965 260.713 46.3565 260.286 47.3485C259.86 48.3405 259.646 49.4712 259.646 50.7405C259.646 51.9992 259.86 53.1299 260.286 54.1325C260.713 55.1245 261.406 56.0845 262.366 57.0125L261.054 58.0525ZM264.664 55.1885L267.704 49.8285L264.84 44.7565H267.48L268.488 46.7245C268.605 46.9592 268.728 47.2152 268.856 47.4925C268.984 47.7699 269.128 48.0739 269.288 48.4045H269.352C269.469 48.0739 269.587 47.7699 269.704 47.4925C269.821 47.2152 269.939 46.9592 270.056 46.7245L270.984 44.7565H273.512L270.648 49.9405L273.688 55.1885H271.064L269.928 53.0605C269.789 52.7832 269.651 52.5112 269.512 52.2445C269.384 51.9672 269.245 51.6685 269.096 51.3485H269.032C268.904 51.6685 268.776 51.9672 268.648 52.2445C268.52 52.5112 268.392 52.7832 268.264 53.0605L267.176 55.1885H264.664ZM277.298 58.0525L275.986 57.0125C276.946 56.0845 277.639 55.1245 278.066 54.1325C278.492 53.1299 278.706 51.9992 278.706 50.7405C278.706 49.4712 278.492 48.3405 278.066 47.3485C277.639 46.3565 276.946 45.3965 275.986 44.4685L277.298 43.4285C278.332 44.3459 279.154 45.4179 279.762 46.6445C280.37 47.8712 280.674 49.2365 280.674 50.7405C280.674 52.2445 280.37 53.6099 279.762 54.8365C279.154 56.0525 278.332 57.1245 277.298 58.0525Z" fill="#232A3D"/>
<path d="M58.623 156.836V175.254" stroke="#C74E4E" stroke-width="2"/>
<path d="M72.6557 117.369V150.697" stroke="#C74E4E" stroke-width="2"/>
<path d="M72.6557 118.246V151.574" stroke="#1F69FF" stroke-width="2"/>
<path d="M93.7049 132.279L93.7049 143.68" stroke="#1F69FF" stroke-width="2"/>
<path d="M115.631 134.91L115.631 155.959" stroke="#C74E4E" stroke-width="2"/>
<path d="M120.016 112.107L120.016 133.156" stroke="#1F69FF" stroke-width="2"/>
<path d="M149.836 97.1967L149.836 120.877" stroke="#1F69FF" stroke-width="2"/>
<path d="M199.828 100.705L199.828 114.738" stroke="#C74E4E" stroke-width="2"/>
<path d="M163.869 83.1639L163.869 115.615" stroke="#1F69FF" stroke-width="2"/>
<path d="M205.09 76.1475L205.09 98.9508" stroke="#1F69FF" stroke-width="2"/>
<path d="M225.262 91.9344L225.262 122.631" stroke="#C74E4E" stroke-width="2"/>
<path d="M135.803 127.016L135.803 184.025" stroke="#C74E4E" stroke-width="2"/>
<path d="M262.098 76.1475L262.098 98.0738" stroke="#C74E4E" stroke-width="2"/>
<path d="M43.7131 146.311V162.975" stroke="#1F69FF" stroke-width="2"/>
<path d="M277.356 69.8759L22.3826 172.342" stroke="#7D8FA8" stroke-width="3"/>
<path d="M166.5 82.2868C166.5 80.8337 165.322 79.6557 163.869 79.6557C162.416 79.6557 161.238 80.8337 161.238 82.2868C161.238 83.74 162.416 84.918 163.869 84.918C165.322 84.918 166.5 83.74 166.5 82.2868Z" fill="#9B51E0"/>
<path d="M207.721 75.2705C207.721 73.8173 206.543 72.6393 205.09 72.6393C203.637 72.6393 202.459 73.8173 202.459 75.2705C202.459 76.7236 203.637 77.9016 205.09 77.9016C206.543 77.9016 207.721 76.7236 207.721 75.2705Z" fill="#9B51E0"/>
<path d="M152.467 97.1967C152.467 95.7436 151.289 94.5656 149.836 94.5656C148.383 94.5656 147.205 95.7436 147.205 97.1967C147.205 98.6498 148.383 99.8278 149.836 99.8278C151.289 99.8278 152.467 98.6498 152.467 97.1967Z" fill="#9B51E0"/>
<path d="M202.459 112.107C202.459 110.653 201.281 109.475 199.828 109.475C198.375 109.475 197.197 110.653 197.197 112.107C197.197 113.56 198.375 114.738 199.828 114.738C201.281 114.738 202.459 113.56 202.459 112.107Z" fill="#9B51E0"/>
<path d="M227.893 123.508C227.893 122.055 226.715 120.877 225.262 120.877C223.809 120.877 222.631 122.055 222.631 123.508C222.631 124.961 223.809 126.139 225.262 126.139C226.715 126.139 227.893 124.961 227.893 123.508Z" fill="#9B51E0"/>
<path d="M264.73 97.1967C264.73 95.7436 263.552 94.5656 262.098 94.5656C260.645 94.5656 259.467 95.7436 259.467 97.1967C259.467 98.6498 260.645 99.8278 262.098 99.8278C263.552 99.8278 264.73 98.6498 264.73 97.1967Z" fill="#9B51E0"/>
<path d="M122.648 112.107C122.648 110.653 121.47 109.475 120.016 109.475C118.563 109.475 117.385 110.653 117.385 112.107C117.385 113.56 118.563 114.738 120.016 114.738C121.47 114.738 122.648 113.56 122.648 112.107Z" fill="#9B51E0"/>
<path d="M138.434 184.902C138.434 183.449 137.256 182.271 135.803 182.271C134.35 182.271 133.172 183.449 133.172 184.902C133.172 186.355 134.35 187.533 135.803 187.533C137.256 187.533 138.434 186.355 138.434 184.902Z" fill="#9B51E0"/>
<path d="M46.3443 146.312C46.3443 144.858 45.1663 143.68 43.7131 143.68C42.26 143.68 41.082 144.858 41.082 146.312C41.082 147.765 42.26 148.943 43.7131 148.943C45.1663 148.943 46.3443 147.765 46.3443 146.312Z" fill="#9B51E0"/>
<path d="M118.262 155.959C118.262 154.506 117.084 153.328 115.631 153.328C114.178 153.328 113 154.506 113 155.959C113 157.412 114.178 158.59 115.631 158.59C117.084 158.59 118.262 157.412 118.262 155.959Z" fill="#9B51E0"/>
<path d="M96.3361 132.279C96.3361 130.826 95.1581 129.648 93.7049 129.648C92.2518 129.648 91.0738 130.826 91.0738 132.279C91.0738 133.732 92.2518 134.91 93.7049 134.91C95.1581 134.91 96.3361 133.732 96.3361 132.279Z" fill="#9B51E0"/>
<path d="M75.2869 115.615C75.2869 114.162 74.1089 112.984 72.6557 112.984C71.2026 112.984 70.0246 114.162 70.0246 115.615C70.0246 117.068 71.2026 118.246 72.6557 118.246C74.1089 118.246 75.2869 117.068 75.2869 115.615Z" fill="#9B51E0"/>
<path d="M61.2541 175.254C61.2541 173.801 60.0761 172.623 58.623 172.623C57.1698 172.623 55.9918 173.801 55.9918 175.254C55.9918 176.707 57.1698 177.885 58.623 177.885C60.0761 177.885 61.2541 176.707 61.2541 175.254Z" fill="#9B51E0"/>
<path d="M22.6639 45.4508V203.32H281.393" stroke="#232A3D" stroke-width="3"/>
<path d="M520.546 223.09V215.918H523.087C523.608 215.918 524.077 215.992 524.495 216.138C524.921 216.278 525.258 216.516 525.507 216.853C525.764 217.191 525.892 217.649 525.892 218.228C525.892 218.786 525.764 219.244 525.507 219.603C525.251 219.963 524.91 220.23 524.484 220.406C524.059 220.575 523.593 220.659 523.087 220.659H522.163V223.09H520.546ZM522.163 219.372H522.988C523.436 219.372 523.766 219.273 523.978 219.075C524.198 218.877 524.308 218.595 524.308 218.228C524.308 217.847 524.195 217.583 523.967 217.436C523.747 217.282 523.421 217.205 522.988 217.205H522.163V219.372ZM527.593 223.09V217.634H528.913L529.045 218.822H529.078C529.349 218.375 529.676 218.045 530.057 217.832C530.446 217.612 530.856 217.502 531.289 217.502C531.531 217.502 531.725 217.521 531.872 217.557C532.026 217.594 532.184 217.649 532.345 217.722L532.015 219.075C531.846 219.024 531.692 218.987 531.553 218.965C531.421 218.936 531.252 218.921 531.047 218.921C530.71 218.921 530.376 219.02 530.046 219.218C529.723 219.416 529.445 219.761 529.21 220.252V223.09H527.593ZM536.543 223.222C535.978 223.222 535.465 223.112 535.003 222.892C534.548 222.665 534.185 222.339 533.914 221.913C533.65 221.481 533.518 220.964 533.518 220.362C533.518 219.768 533.653 219.259 533.925 218.833C534.196 218.401 534.548 218.071 534.981 217.843C535.413 217.616 535.872 217.502 536.356 217.502C536.92 217.502 537.393 217.62 537.775 217.854C538.156 218.082 538.442 218.393 538.633 218.789C538.831 219.178 538.93 219.622 538.93 220.12C538.93 220.267 538.919 220.41 538.897 220.549C538.882 220.681 538.867 220.78 538.853 220.846H534.717V219.757H537.764L537.511 220.065C537.511 219.625 537.415 219.295 537.225 219.075C537.041 218.848 536.77 218.734 536.411 218.734C536.147 218.734 535.916 218.793 535.718 218.91C535.52 219.028 535.366 219.207 535.256 219.449C535.146 219.691 535.091 219.996 535.091 220.362C535.091 220.736 535.157 221.044 535.289 221.286C535.421 221.521 535.611 221.697 535.861 221.814C536.11 221.932 536.411 221.99 536.763 221.99C537.012 221.99 537.247 221.957 537.467 221.891C537.694 221.825 537.929 221.73 538.171 221.605L538.71 222.584C538.394 222.782 538.046 222.94 537.665 223.057C537.283 223.167 536.909 223.222 536.543 223.222ZM542.324 223.222C541.635 223.222 541.078 222.969 540.652 222.463C540.234 221.95 540.025 221.25 540.025 220.362C540.025 219.768 540.135 219.259 540.355 218.833C540.583 218.408 540.876 218.082 541.235 217.854C541.595 217.62 541.969 217.502 542.357 217.502C542.658 217.502 542.918 217.554 543.138 217.656C543.358 217.759 543.556 217.902 543.732 218.085H543.776L543.699 217.238V215.379H545.316V223.09H543.996L543.875 222.529H543.842C543.644 222.727 543.41 222.892 543.138 223.024C542.874 223.156 542.603 223.222 542.324 223.222ZM542.742 221.902C542.926 221.902 543.094 221.866 543.248 221.792C543.41 221.712 543.56 221.58 543.699 221.396V219.185C543.553 219.053 543.402 218.962 543.248 218.91C543.102 218.852 542.948 218.822 542.786 218.822C542.588 218.822 542.405 218.877 542.236 218.987C542.068 219.097 541.932 219.266 541.829 219.493C541.734 219.713 541.686 219.996 541.686 220.34C541.686 220.876 541.778 221.272 541.961 221.528C542.145 221.778 542.405 221.902 542.742 221.902ZM549.162 223.09V218.899H546.962V217.634H550.779V223.09H549.162ZM549.899 216.776C549.591 216.776 549.334 216.688 549.129 216.512C548.924 216.329 548.821 216.091 548.821 215.797C548.821 215.497 548.924 215.255 549.129 215.071C549.334 214.881 549.591 214.785 549.899 214.785C550.214 214.785 550.471 214.881 550.669 215.071C550.874 215.255 550.977 215.497 550.977 215.797C550.977 216.091 550.874 216.329 550.669 216.512C550.471 216.688 550.214 216.776 549.899 216.776ZM556.473 223.222C555.901 223.222 555.384 223.112 554.922 222.892C554.467 222.665 554.104 222.339 553.833 221.913C553.569 221.481 553.437 220.964 553.437 220.362C553.437 219.761 553.583 219.248 553.877 218.822C554.17 218.39 554.555 218.063 555.032 217.843C555.516 217.616 556.036 217.502 556.594 217.502C557.026 217.502 557.419 217.572 557.771 217.711C558.123 217.843 558.412 218.019 558.64 218.239L557.892 219.24C557.679 219.094 557.474 218.987 557.276 218.921C557.085 218.848 556.887 218.811 556.682 218.811C556.374 218.811 556.099 218.874 555.857 218.998C555.615 219.123 555.428 219.303 555.296 219.537C555.164 219.772 555.098 220.047 555.098 220.362C555.098 220.678 555.16 220.953 555.285 221.187C555.417 221.422 555.596 221.602 555.824 221.726C556.058 221.851 556.326 221.913 556.627 221.913C556.913 221.913 557.173 221.862 557.408 221.759C557.65 221.657 557.87 221.536 558.068 221.396L558.717 222.419C558.394 222.691 558.031 222.892 557.628 223.024C557.232 223.156 556.847 223.222 556.473 223.222ZM563.564 223.222C562.984 223.222 562.522 223.123 562.178 222.925C561.84 222.72 561.595 222.438 561.441 222.078C561.287 221.719 561.21 221.301 561.21 220.824V218.899H559.846V217.7L561.287 217.634L561.496 215.962H562.827V217.634H565.137V218.899H562.827V220.813C562.827 221.085 562.867 221.305 562.948 221.473C563.028 221.642 563.153 221.767 563.322 221.847C563.49 221.921 563.707 221.957 563.971 221.957C564.183 221.957 564.378 221.939 564.554 221.902C564.73 221.866 564.898 221.818 565.06 221.759L565.346 222.925C565.104 222.999 564.836 223.065 564.543 223.123C564.257 223.189 563.93 223.222 563.564 223.222ZM568.949 223.09V218.899H566.749V217.634H570.566V223.09H568.949ZM569.686 216.776C569.378 216.776 569.122 216.688 568.916 216.512C568.711 216.329 568.608 216.091 568.608 215.797C568.608 215.497 568.711 215.255 568.916 215.071C569.122 214.881 569.378 214.785 569.686 214.785C570.002 214.785 570.258 214.881 570.456 215.071C570.662 215.255 570.764 215.497 570.764 215.797C570.764 216.091 570.662 216.329 570.456 216.512C570.258 216.688 570.002 216.776 569.686 216.776ZM575.787 223.222C575.31 223.222 574.859 223.112 574.434 222.892C574.009 222.665 573.664 222.339 573.4 221.913C573.136 221.481 573.004 220.964 573.004 220.362C573.004 219.761 573.136 219.248 573.4 218.822C573.664 218.39 574.009 218.063 574.434 217.843C574.859 217.616 575.31 217.502 575.787 217.502C576.264 217.502 576.715 217.616 577.14 217.843C577.565 218.063 577.91 218.39 578.174 218.822C578.438 219.248 578.57 219.761 578.57 220.362C578.57 220.964 578.438 221.481 578.174 221.913C577.91 222.339 577.565 222.665 577.14 222.892C576.715 223.112 576.264 223.222 575.787 223.222ZM575.787 221.913C576.036 221.913 576.242 221.851 576.403 221.726C576.572 221.602 576.696 221.422 576.777 221.187C576.865 220.953 576.909 220.678 576.909 220.362C576.909 220.047 576.865 219.772 576.777 219.537C576.696 219.303 576.572 219.123 576.403 218.998C576.242 218.874 576.036 218.811 575.787 218.811C575.538 218.811 575.329 218.874 575.16 218.998C574.999 219.123 574.874 219.303 574.786 219.537C574.705 219.772 574.665 220.047 574.665 220.362C574.665 220.678 574.705 220.953 574.786 221.187C574.874 221.422 574.999 221.602 575.16 221.726C575.329 221.851 575.538 221.913 575.787 221.913ZM579.875 223.09V217.634H581.195L581.316 218.36H581.36C581.594 218.126 581.862 217.924 582.163 217.755C582.471 217.587 582.83 217.502 583.241 217.502C583.857 217.502 584.308 217.7 584.594 218.096C584.88 218.492 585.023 219.035 585.023 219.724V223.09H583.406V219.933C583.406 219.567 583.343 219.299 583.219 219.13C583.101 218.962 582.896 218.877 582.603 218.877C582.383 218.877 582.188 218.929 582.02 219.031C581.858 219.127 581.682 219.266 581.492 219.449V223.09H579.875Z" fill="#232A3D"/>
<path d="M317.828 92.9185H310.656V90.3775C310.656 89.8715 310.726 89.4095 310.865 88.9915C310.997 88.5735 311.228 88.2399 311.558 87.9905C311.881 87.7339 312.324 87.6055 312.889 87.6055C313.439 87.6055 313.886 87.7339 314.231 87.9905C314.576 88.2399 314.832 88.5735 315.001 88.9915C315.162 89.4095 315.243 89.8715 315.243 90.3775V91.3015H317.828V92.9185ZM313.956 91.3015V90.5095C313.956 90.0842 313.868 89.7615 313.692 89.5415C313.509 89.3142 313.241 89.2005 312.889 89.2005C312.537 89.2005 312.291 89.3142 312.152 89.5415C312.013 89.7615 311.943 90.0842 311.943 90.5095V91.3015H313.956ZM314.825 90.6745L313.78 89.5525L317.828 87.2645V89.0795L314.825 90.6745ZM317.96 83.4628C317.96 84.0275 317.85 84.5408 317.63 85.0028C317.403 85.4575 317.076 85.8205 316.651 86.0918C316.218 86.3558 315.701 86.4878 315.1 86.4878C314.506 86.4878 313.996 86.3522 313.571 86.0808C313.138 85.8095 312.808 85.4575 312.581 85.0248C312.354 84.5922 312.24 84.1338 312.24 83.6498C312.24 83.0852 312.357 82.6122 312.592 82.2308C312.819 81.8495 313.131 81.5635 313.527 81.3728C313.916 81.1748 314.359 81.0758 314.858 81.0758C315.005 81.0758 315.148 81.0868 315.287 81.1088C315.419 81.1235 315.518 81.1382 315.584 81.1528V85.2888H314.495V82.2418L314.803 82.4948C314.363 82.4948 314.033 82.5902 313.813 82.7808C313.586 82.9642 313.472 83.2355 313.472 83.5948C313.472 83.8588 313.531 84.0898 313.648 84.2878C313.765 84.4858 313.945 84.6398 314.187 84.7498C314.429 84.8598 314.733 84.9148 315.1 84.9148C315.474 84.9148 315.782 84.8488 316.024 84.7168C316.259 84.5848 316.435 84.3942 316.552 84.1448C316.669 83.8955 316.728 83.5948 316.728 83.2428C316.728 82.9935 316.695 82.7588 316.629 82.5388C316.563 82.3115 316.468 82.0768 316.343 81.8348L317.322 81.2958C317.52 81.6112 317.678 81.9595 317.795 82.3408C317.905 82.7222 317.96 83.0962 317.96 83.4628ZM317.96 77.2411C317.96 77.7251 317.879 78.2055 317.718 78.6821C317.549 79.1588 317.351 79.5695 317.124 79.9141L316.112 79.2211C316.325 78.8911 316.486 78.5428 316.596 78.1761C316.706 77.8021 316.761 77.4171 316.761 77.0211C316.761 76.7205 316.717 76.5005 316.629 76.3611C316.534 76.2218 316.424 76.1521 316.299 76.1521C316.218 76.1521 316.152 76.1741 316.101 76.2181C316.042 76.2548 315.991 76.3245 315.947 76.4271C315.896 76.5225 315.848 76.6581 315.804 76.8341C315.76 77.0028 315.709 77.2228 315.65 77.4941C315.489 78.2348 315.269 78.7665 314.99 79.0891C314.711 79.4118 314.363 79.5731 313.945 79.5731C313.432 79.5731 313.021 79.3495 312.713 78.9021C312.398 78.4548 312.24 77.8425 312.24 77.0651C312.24 76.5738 312.321 76.1301 312.482 75.7341C312.636 75.3308 312.805 74.9861 312.988 74.7001L313.956 75.4261C313.787 75.6975 313.659 75.9871 313.571 76.2951C313.483 76.6031 313.439 76.9075 313.439 77.2081C313.439 77.3768 313.457 77.5161 313.494 77.6261C313.523 77.7361 313.575 77.8205 313.648 77.8791C313.714 77.9378 313.787 77.9671 313.868 77.9671C314.015 77.9671 314.125 77.8718 314.198 77.6811C314.264 77.4905 314.348 77.1641 314.451 76.7021C314.576 76.1448 314.719 75.7085 314.88 75.3931C315.041 75.0778 315.228 74.8615 315.441 74.7441C315.646 74.6195 315.899 74.5571 316.2 74.5571C316.53 74.5571 316.827 74.6598 317.091 74.8651C317.355 75.0631 317.568 75.3638 317.729 75.7671C317.883 76.1631 317.96 76.6545 317.96 77.2411ZM317.828 70.8434H313.637V73.0434H312.372V69.2264H317.828V70.8434ZM311.514 70.1064C311.514 70.4144 311.426 70.6711 311.25 70.8764C311.067 71.0818 310.828 71.1844 310.535 71.1844C310.234 71.1844 309.992 71.0818 309.809 70.8764C309.618 70.6711 309.523 70.4144 309.523 70.1064C309.523 69.7911 309.618 69.5344 309.809 69.3364C309.992 69.1311 310.234 69.0284 310.535 69.0284C310.828 69.0284 311.067 69.1311 311.25 69.3364C311.426 69.5344 311.514 69.7911 311.514 70.1064ZM317.96 64.4897C317.96 65.1791 317.707 65.7364 317.201 66.1617C316.688 66.5797 315.987 66.7887 315.1 66.7887C314.506 66.7887 313.996 66.6787 313.571 66.4587C313.146 66.2314 312.819 65.9381 312.592 65.5787C312.357 65.2194 312.24 64.8454 312.24 64.4567C312.24 64.1561 312.291 63.8957 312.394 63.6757C312.497 63.4557 312.64 63.2577 312.823 63.0817V63.0377L311.976 63.1147H310.117V61.4977H317.828V62.8177L317.267 62.9387V62.9717C317.465 63.1697 317.63 63.4044 317.762 63.6757C317.894 63.9397 317.96 64.2111 317.96 64.4897ZM316.64 64.0717C316.64 63.8884 316.603 63.7197 316.53 63.5657C316.449 63.4044 316.317 63.2541 316.134 63.1147H313.923C313.791 63.2614 313.699 63.4117 313.648 63.5657C313.589 63.7124 313.56 63.8664 313.56 64.0277C313.56 64.2257 313.615 64.4091 313.725 64.5777C313.835 64.7464 314.004 64.8821 314.231 64.9847C314.451 65.0801 314.733 65.1277 315.078 65.1277C315.613 65.1277 316.009 65.0361 316.266 64.8527C316.515 64.6694 316.64 64.4091 316.64 64.0717ZM317.96 58.257C317.96 58.8804 317.762 59.3314 317.366 59.61C316.97 59.8887 316.427 60.028 315.738 60.028H312.372V58.411H315.529C315.896 58.411 316.163 58.356 316.332 58.246C316.501 58.1287 316.585 57.9197 316.585 57.619C316.585 57.4137 316.541 57.2304 316.453 57.069C316.365 56.9077 316.2 56.7354 315.958 56.552H312.372V54.935H317.828V56.255L317.047 56.376V56.42C317.318 56.662 317.538 56.9297 317.707 57.223C317.876 57.5164 317.96 57.861 317.96 58.257ZM317.96 51.6503C317.96 52.017 317.887 52.336 317.74 52.6073C317.593 52.8713 317.395 53.0767 317.146 53.2233C316.897 53.37 316.618 53.4433 316.31 53.4433C315.701 53.4433 315.236 53.1683 314.913 52.6183C314.59 52.061 314.392 51.137 314.319 49.8463C314.15 49.8683 314.007 49.9233 313.89 50.0113C313.773 50.0993 313.685 50.2277 313.626 50.3963C313.56 50.5577 313.527 50.763 313.527 51.0123C313.527 51.1883 313.549 51.3643 313.593 51.5403C313.63 51.7163 313.688 51.8997 313.769 52.0903C313.842 52.2737 313.93 52.468 314.033 52.6733L312.977 53.2453C312.83 52.996 312.702 52.7357 312.592 52.4643C312.482 52.1857 312.398 51.8997 312.339 51.6063C312.273 51.3057 312.24 51.0013 312.24 50.6933C312.24 50.18 312.332 49.74 312.515 49.3733C312.691 49.0067 312.962 48.7243 313.329 48.5263C313.688 48.3283 314.147 48.2293 314.704 48.2293H317.828V49.5493L317.212 49.6703V49.7143C317.417 49.9857 317.593 50.2863 317.74 50.6163C317.887 50.9463 317.96 51.291 317.96 51.6503ZM316.706 51.1333C316.706 50.8913 316.658 50.664 316.563 50.4513C316.46 50.2387 316.336 50.037 316.189 49.8463H315.287C315.316 50.3817 315.371 50.7997 315.452 51.1003C315.533 51.3937 315.635 51.599 315.76 51.7163C315.885 51.8337 316.028 51.8923 316.189 51.8923C316.299 51.8923 316.394 51.863 316.475 51.8043C316.556 51.7383 316.614 51.6503 316.651 51.5403C316.688 51.423 316.706 51.2873 316.706 51.1333ZM317.96 43.1736C317.96 43.8556 317.755 44.3726 317.344 44.7246C316.933 45.0766 316.383 45.2526 315.694 45.2526H311.393V46.9576H310.128V43.6356H315.76C316.097 43.6356 316.332 43.5439 316.464 43.3606C316.589 43.1773 316.651 42.9756 316.651 42.7556C316.651 42.6236 316.636 42.4916 316.607 42.3596C316.578 42.2203 316.534 42.0663 316.475 41.8976L317.663 41.5456C317.751 41.8243 317.821 42.0809 317.872 42.3156C317.931 42.5429 317.96 42.8289 317.96 43.1736Z" fill="#232A3D"/>
<path d="M364.713 126.139V144.557" stroke="#C74E4E" stroke-width="2"/>
<path d="M378.746 91.9344V125.262" stroke="#1F69FF" stroke-width="2"/>
<path d="M399.795 113.861L399.795 125.262" stroke="#1F69FF" stroke-width="2"/>
<path d="M421.721 127.016L421.721 148.066" stroke="#C74E4E" stroke-width="2"/>
<path d="M426.107 104.213L426.107 125.262" stroke="#1F69FF" stroke-width="2"/>
<path d="M455.926 101.582L455.926 125.262" stroke="#1F69FF" stroke-width="2"/>
<path d="M505.918 126.139L505.918 140.172" stroke="#C74E4E" stroke-width="2"/>
<path d="M469.959 93.6885L469.959 126.139" stroke="#1F69FF" stroke-width="2"/>
<path d="M511.18 102.459L511.18 125.262" stroke="#1F69FF" stroke-width="2"/>
<path d="M531.353 127.016L531.353 157.713" stroke="#C74E4E" stroke-width="2"/>
<path d="M441.893 127.016L441.893 184.025" stroke="#C74E4E" stroke-width="2"/>
<path d="M568.189 127.016L568.189 148.943" stroke="#C74E4E" stroke-width="2"/>
<path d="M349.803 108.598V125.262" stroke="#1F69FF" stroke-width="2"/>
<path d="M580.467 126.139L327.877 126.139" stroke="#BAC4D1" stroke-width="2" stroke-dasharray="6 6"/>
<path d="M472.59 92.8115C472.59 91.3584 471.412 90.1804 469.959 90.1804C468.506 90.1804 467.328 91.3584 467.328 92.8115C467.328 94.2646 468.506 95.4427 469.959 95.4427C471.412 95.4427 472.59 94.2646 472.59 92.8115Z" fill="#9B51E0"/>
<path d="M513.812 100.705C513.812 99.2518 512.634 98.0738 511.18 98.0738C509.727 98.0738 508.549 99.2518 508.549 100.705C508.549 102.158 509.727 103.336 511.18 103.336C512.634 103.336 513.812 102.158 513.812 100.705Z" fill="#9B51E0"/>
<path d="M458.557 98.9508C458.557 97.4976 457.379 96.3196 455.926 96.3196C454.473 96.3196 453.295 97.4976 453.295 98.9508C453.295 100.404 454.473 101.582 455.926 101.582C457.379 101.582 458.557 100.404 458.557 98.9508Z" fill="#9B51E0"/>
<path d="M508.549 142.803C508.549 141.35 507.371 140.172 505.918 140.172C504.465 140.172 503.287 141.35 503.287 142.803C503.287 144.256 504.465 145.434 505.918 145.434C507.371 145.434 508.549 144.256 508.549 142.803Z" fill="#9B51E0"/>
<path d="M533.984 160.344C533.984 158.891 532.806 157.713 531.352 157.713C529.899 157.713 528.721 158.891 528.721 160.344C528.721 161.797 529.899 162.975 531.352 162.975C532.806 162.975 533.984 161.797 533.984 160.344Z" fill="#9B51E0"/>
<path d="M570.82 151.574C570.82 150.121 569.642 148.943 568.189 148.943C566.735 148.943 565.557 150.121 565.557 151.574C565.557 153.027 566.735 154.205 568.189 154.205C569.642 154.205 570.82 153.027 570.82 151.574Z" fill="#9B51E0"/>
<path d="M428.738 103.336C428.738 101.883 427.56 100.705 426.107 100.705C424.653 100.705 423.475 101.883 423.475 103.336C423.475 104.789 424.653 105.967 426.107 105.967C427.56 105.967 428.738 104.789 428.738 103.336Z" fill="#9B51E0"/>
<path d="M444.525 185.779C444.525 184.326 443.347 183.148 441.894 183.148C440.44 183.148 439.262 184.326 439.262 185.779C439.262 187.232 440.44 188.41 441.894 188.41C443.347 188.41 444.525 187.232 444.525 185.779Z" fill="#9B51E0"/>
<path d="M352.434 106.844C352.434 105.391 351.256 104.213 349.803 104.213C348.35 104.213 347.172 105.391 347.172 106.844C347.172 108.297 348.35 109.475 349.803 109.475C351.256 109.475 352.434 108.297 352.434 106.844Z" fill="#9B51E0"/>
<path d="M424.353 150.697C424.353 149.244 423.174 148.066 421.721 148.066C420.268 148.066 419.09 149.244 419.09 150.697C419.09 152.15 420.268 153.328 421.721 153.328C423.174 153.328 424.353 152.15 424.353 150.697Z" fill="#9B51E0"/>
<path d="M402.426 113.861C402.426 112.407 401.248 111.229 399.795 111.229C398.342 111.229 397.164 112.407 397.164 113.861C397.164 115.314 398.342 116.492 399.795 116.492C401.248 116.492 402.426 115.314 402.426 113.861Z" fill="#9B51E0"/>
<path d="M381.377 90.1803C381.377 88.7272 380.199 87.5492 378.746 87.5492C377.293 87.5492 376.115 88.7272 376.115 90.1803C376.115 91.6335 377.293 92.8115 378.746 92.8115C380.199 92.8115 381.377 91.6335 381.377 90.1803Z" fill="#9B51E0"/>
<path d="M367.344 144.557C367.344 143.104 366.166 141.926 364.713 141.926C363.26 141.926 362.082 143.104 362.082 144.557C362.082 146.01 363.26 147.189 364.713 147.189C366.166 147.189 367.344 146.01 367.344 144.557Z" fill="#9B51E0"/>
<path d="M327.877 45.4508V203.32H586.607" stroke="#232A3D" stroke-width="3"/>
<path d="M316.89 132.684C316.112 132.684 315.429 132.481 314.842 132.076C314.256 131.66 313.797 131.057 313.466 130.268C313.146 129.478 312.986 128.513 312.986 127.372C312.986 125.633 313.344 124.326 314.058 123.452C314.773 122.577 315.717 122.14 316.89 122.14C318.074 122.14 319.018 122.577 319.722 123.452C320.437 124.326 320.794 125.633 320.794 127.372C320.794 128.513 320.629 129.478 320.298 130.268C319.978 131.057 319.525 131.66 318.938 132.076C318.362 132.481 317.68 132.684 316.89 132.684ZM316.89 130.86C317.232 130.86 317.536 130.753 317.802 130.54C318.08 130.326 318.298 129.964 318.458 129.452C318.618 128.94 318.698 128.246 318.698 127.372C318.698 126.486 318.618 125.798 318.458 125.308C318.298 124.806 318.08 124.46 317.802 124.268C317.536 124.065 317.232 123.964 316.89 123.964C316.56 123.964 316.256 124.065 315.978 124.268C315.701 124.46 315.482 124.806 315.322 125.308C315.162 125.798 315.082 126.486 315.082 127.372C315.082 128.246 315.162 128.94 315.322 129.452C315.482 129.964 315.701 130.326 315.978 130.54C316.256 130.753 316.56 130.86 316.89 130.86ZM316.89 128.556C316.56 128.556 316.277 128.444 316.042 128.22C315.808 127.996 315.69 127.702 315.69 127.34C315.69 126.966 315.808 126.673 316.042 126.46C316.277 126.236 316.56 126.124 316.89 126.124C317.232 126.124 317.514 126.236 317.738 126.46C317.973 126.673 318.09 126.966 318.09 127.34C318.09 127.702 317.973 127.996 317.738 128.22C317.514 128.444 317.232 128.556 316.89 128.556Z" fill="#7D8FA8"/>
<path d="M403.546 29V18.568H407.242C407.978 18.568 408.65 18.6693 409.258 18.872C409.866 19.064 410.352 19.4 410.714 19.88C411.088 20.3493 411.274 20.9947 411.274 21.816C411.274 22.616 411.088 23.2667 410.714 23.768C410.352 24.2693 409.866 24.6427 409.258 24.888C408.65 25.1227 407.978 25.24 407.242 25.24H405.898V29H403.546ZM405.898 23.368H407.05C407.669 23.368 408.138 23.24 408.458 22.984C408.789 22.7173 408.954 22.328 408.954 21.816C408.954 21.304 408.789 20.9467 408.458 20.744C408.138 20.5413 407.669 20.44 407.05 20.44H405.898V23.368ZM406.81 24.632L408.442 23.112L411.77 29H409.13L406.81 24.632ZM417.3 29.192C416.479 29.192 415.732 29.032 415.06 28.712C414.399 28.3813 413.871 27.9067 413.476 27.288C413.092 26.6587 412.9 25.9067 412.9 25.032C412.9 24.168 413.097 23.4267 413.492 22.808C413.887 22.1787 414.399 21.6987 415.028 21.368C415.657 21.0373 416.324 20.872 417.028 20.872C417.849 20.872 418.537 21.0427 419.092 21.384C419.647 21.7147 420.063 22.168 420.34 22.744C420.628 23.3093 420.772 23.9547 420.772 24.68C420.772 24.8933 420.756 25.1013 420.724 25.304C420.703 25.496 420.681 25.64 420.66 25.736H414.644V24.152H419.076L418.708 24.6C418.708 23.96 418.569 23.48 418.292 23.16C418.025 22.8293 417.631 22.664 417.108 22.664C416.724 22.664 416.388 22.7493 416.1 22.92C415.812 23.0907 415.588 23.352 415.428 23.704C415.268 24.056 415.188 24.4987 415.188 25.032C415.188 25.576 415.284 26.024 415.476 26.376C415.668 26.7173 415.945 26.9733 416.308 27.144C416.671 27.3147 417.108 27.4 417.62 27.4C417.983 27.4 418.324 27.352 418.644 27.256C418.975 27.16 419.316 27.0213 419.668 26.84L420.452 28.264C419.993 28.552 419.487 28.7813 418.932 28.952C418.377 29.112 417.833 29.192 417.3 29.192ZM426.35 29.192C425.646 29.192 424.947 29.0747 424.254 28.84C423.56 28.5947 422.963 28.3067 422.462 27.976L423.47 26.504C423.95 26.8133 424.456 27.048 424.99 27.208C425.534 27.368 426.094 27.448 426.67 27.448C427.107 27.448 427.427 27.384 427.63 27.256C427.832 27.1173 427.934 26.9573 427.934 26.776C427.934 26.6587 427.902 26.5627 427.838 26.488C427.784 26.4027 427.683 26.328 427.534 26.264C427.395 26.1893 427.198 26.12 426.942 26.056C426.696 25.992 426.376 25.9173 425.982 25.832C424.904 25.5973 424.131 25.2773 423.662 24.872C423.192 24.4667 422.958 23.96 422.958 23.352C422.958 22.6053 423.283 22.008 423.934 21.56C424.584 21.1013 425.475 20.872 426.606 20.872C427.32 20.872 427.966 20.9893 428.542 21.224C429.128 21.448 429.63 21.6933 430.046 21.96L428.99 23.368C428.595 23.1227 428.174 22.936 427.726 22.808C427.278 22.68 426.835 22.616 426.398 22.616C426.152 22.616 425.95 22.6427 425.79 22.696C425.63 22.7387 425.507 22.8133 425.422 22.92C425.336 23.016 425.294 23.1227 425.294 23.24C425.294 23.4533 425.432 23.6133 425.71 23.72C425.987 23.816 426.462 23.9387 427.134 24.088C427.944 24.2693 428.579 24.4773 429.038 24.712C429.496 24.9467 429.811 25.2187 429.982 25.528C430.163 25.8267 430.254 26.1947 430.254 26.632C430.254 27.112 430.104 27.544 429.806 27.928C429.518 28.312 429.08 28.6213 428.494 28.856C427.918 29.08 427.203 29.192 426.35 29.192ZM435.656 29V22.904H432.456V21.064H438.008V29H435.656ZM436.728 19.816C436.28 19.816 435.906 19.688 435.608 19.432C435.309 19.1653 435.16 18.8187 435.16 18.392C435.16 17.9547 435.309 17.6027 435.608 17.336C435.906 17.0587 436.28 16.92 436.728 16.92C437.186 16.92 437.56 17.0587 437.848 17.336C438.146 17.6027 438.296 17.9547 438.296 18.392C438.296 18.8187 438.146 19.1653 437.848 19.432C437.56 19.688 437.186 19.816 436.728 19.816ZM444.897 29.192C443.895 29.192 443.084 28.824 442.465 28.088C441.857 27.3413 441.553 26.3227 441.553 25.032C441.553 24.168 441.713 23.4267 442.033 22.808C442.364 22.1893 442.791 21.7147 443.313 21.384C443.836 21.0427 444.38 20.872 444.945 20.872C445.383 20.872 445.761 20.9467 446.081 21.096C446.401 21.2453 446.689 21.4533 446.945 21.72H447.009L446.897 20.488V17.784H449.249V29H447.329L447.153 28.184H447.105C446.817 28.472 446.476 28.712 446.081 28.904C445.697 29.096 445.303 29.192 444.897 29.192ZM445.505 27.272C445.772 27.272 446.017 27.2187 446.241 27.112C446.476 26.9947 446.695 26.8027 446.897 26.536V23.32C446.684 23.128 446.465 22.9947 446.241 22.92C446.028 22.8347 445.804 22.792 445.569 22.792C445.281 22.792 445.015 22.872 444.769 23.032C444.524 23.192 444.327 23.4373 444.177 23.768C444.039 24.088 443.969 24.4987 443.969 25C443.969 25.7787 444.103 26.3547 444.369 26.728C444.636 27.0907 445.015 27.272 445.505 27.272ZM453.963 29.192C453.056 29.192 452.4 28.904 451.995 28.328C451.59 27.752 451.387 26.9627 451.387 25.96V21.064H453.739V25.656C453.739 26.1893 453.819 26.5787 453.979 26.824C454.15 27.0693 454.454 27.192 454.891 27.192C455.19 27.192 455.456 27.128 455.691 27C455.926 26.872 456.176 26.632 456.443 26.28V21.064H458.795V29H456.875L456.699 27.864H456.635C456.283 28.2587 455.894 28.5787 455.467 28.824C455.04 29.0693 454.539 29.192 453.963 29.192ZM463.573 29.192C463.039 29.192 462.575 29.0853 462.181 28.872C461.797 28.6587 461.498 28.3707 461.285 28.008C461.071 27.6453 460.965 27.24 460.965 26.792C460.965 25.9067 461.365 25.2293 462.165 24.76C462.975 24.2907 464.319 24.0027 466.197 23.896C466.165 23.6507 466.085 23.4427 465.957 23.272C465.829 23.1013 465.642 22.9733 465.397 22.888C465.162 22.792 464.863 22.744 464.501 22.744C464.245 22.744 463.989 22.776 463.733 22.84C463.477 22.8933 463.21 22.9787 462.933 23.096C462.666 23.2027 462.383 23.3307 462.085 23.48L461.253 21.944C461.615 21.7307 461.994 21.544 462.389 21.384C462.794 21.224 463.21 21.1013 463.637 21.016C464.074 20.92 464.517 20.872 464.965 20.872C465.711 20.872 466.351 21.0053 466.885 21.272C467.418 21.528 467.829 21.9227 468.117 22.456C468.405 22.9787 468.549 23.6453 468.549 24.456V29H466.629L466.453 28.104H466.389C465.994 28.4027 465.557 28.6587 465.077 28.872C464.597 29.0853 464.095 29.192 463.573 29.192ZM464.325 27.368C464.677 27.368 465.007 27.2987 465.317 27.16C465.626 27.0107 465.919 26.8293 466.197 26.616V25.304C465.418 25.3467 464.81 25.4267 464.373 25.544C463.946 25.6613 463.647 25.8107 463.477 25.992C463.306 26.1733 463.221 26.3813 463.221 26.616C463.221 26.776 463.263 26.9147 463.349 27.032C463.445 27.1493 463.573 27.2347 463.733 27.288C463.903 27.3413 464.101 27.368 464.325 27.368ZM475.903 29.192C474.911 29.192 474.159 28.8933 473.647 28.296C473.135 27.6987 472.879 26.8987 472.879 25.896V19.64H470.399V17.8H475.231V25.992C475.231 26.4827 475.364 26.824 475.631 27.016C475.897 27.1973 476.191 27.288 476.511 27.288C476.703 27.288 476.895 27.2667 477.087 27.224C477.289 27.1813 477.513 27.1173 477.759 27.032L478.271 28.76C477.865 28.888 477.492 28.9893 477.151 29.064C476.82 29.1493 476.404 29.192 475.903 29.192ZM483.912 29.192C483.208 29.192 482.51 29.0747 481.816 28.84C481.123 28.5947 480.526 28.3067 480.024 27.976L481.032 26.504C481.512 26.8133 482.019 27.048 482.552 27.208C483.096 27.368 483.656 27.448 484.232 27.448C484.67 27.448 484.99 27.384 485.192 27.256C485.395 27.1173 485.496 26.9573 485.496 26.776C485.496 26.6587 485.464 26.5627 485.4 26.488C485.347 26.4027 485.246 26.328 485.096 26.264C484.958 26.1893 484.76 26.12 484.504 26.056C484.259 25.992 483.939 25.9173 483.544 25.832C482.467 25.5973 481.694 25.2773 481.224 24.872C480.755 24.4667 480.52 23.96 480.52 23.352C480.52 22.6053 480.846 22.008 481.496 21.56C482.147 21.1013 483.038 20.872 484.168 20.872C484.883 20.872 485.528 20.9893 486.104 21.224C486.691 21.448 487.192 21.6933 487.608 21.96L486.552 23.368C486.158 23.1227 485.736 22.936 485.288 22.808C484.84 22.68 484.398 22.616 483.96 22.616C483.715 22.616 483.512 22.6427 483.352 22.696C483.192 22.7387 483.07 22.8133 482.984 22.92C482.899 23.016 482.856 23.1227 482.856 23.24C482.856 23.4533 482.995 23.6133 483.272 23.72C483.55 23.816 484.024 23.9387 484.696 24.088C485.507 24.2693 486.142 24.4773 486.6 24.712C487.059 24.9467 487.374 25.2187 487.544 25.528C487.726 25.8267 487.816 26.1947 487.816 26.632C487.816 27.112 487.667 27.544 487.368 27.928C487.08 28.312 486.643 28.6213 486.056 28.856C485.48 29.08 484.766 29.192 483.912 29.192ZM499.516 31.944V21.064H501.436L501.612 21.864H501.66C501.99 21.576 502.358 21.3413 502.764 21.16C503.18 20.968 503.601 20.872 504.028 20.872C504.689 20.872 505.254 21.0373 505.724 21.368C506.204 21.6987 506.572 22.168 506.828 22.776C507.084 23.384 507.212 24.0933 507.212 24.904C507.212 25.8107 507.046 26.584 506.716 27.224C506.396 27.864 505.974 28.3547 505.452 28.696C504.929 29.0267 504.369 29.192 503.772 29.192C503.42 29.192 503.073 29.1173 502.732 28.968C502.401 28.8187 502.097 28.6053 501.82 28.328H501.756L501.868 29.624V31.944H499.516ZM503.228 27.272C503.526 27.272 503.793 27.192 504.028 27.032C504.262 26.872 504.449 26.6213 504.588 26.28C504.726 25.928 504.796 25.48 504.796 24.936C504.796 24.456 504.742 24.0613 504.636 23.752C504.529 23.432 504.369 23.192 504.156 23.032C503.953 22.872 503.681 22.792 503.34 22.792C503.084 22.792 502.833 22.8507 502.588 22.968C502.353 23.0747 502.113 23.2613 501.868 23.528V26.744C502.092 26.9253 502.321 27.0587 502.556 27.144C502.801 27.2293 503.025 27.272 503.228 27.272ZM514.278 29.192C513.286 29.192 512.534 28.8933 512.022 28.296C511.51 27.6987 511.254 26.8987 511.254 25.896V19.64H508.774V17.8H513.606V25.992C513.606 26.4827 513.739 26.824 514.006 27.016C514.272 27.1973 514.566 27.288 514.886 27.288C515.078 27.288 515.27 27.2667 515.462 27.224C515.664 27.1813 515.888 27.1173 516.134 27.032L516.646 28.76C516.24 28.888 515.867 28.9893 515.526 29.064C515.195 29.1493 514.779 29.192 514.278 29.192ZM522.351 29.192C521.658 29.192 521.002 29.032 520.383 28.712C519.765 28.3813 519.263 27.9067 518.879 27.288C518.495 26.6587 518.303 25.9067 518.303 25.032C518.303 24.1573 518.495 23.4107 518.879 22.792C519.263 22.1627 519.765 21.688 520.383 21.368C521.002 21.0373 521.658 20.872 522.351 20.872C523.045 20.872 523.701 21.0373 524.319 21.368C524.938 21.688 525.439 22.1627 525.823 22.792C526.207 23.4107 526.399 24.1573 526.399 25.032C526.399 25.9067 526.207 26.6587 525.823 27.288C525.439 27.9067 524.938 28.3813 524.319 28.712C523.701 29.032 523.045 29.192 522.351 29.192ZM522.351 27.288C522.714 27.288 523.013 27.1973 523.247 27.016C523.493 26.8347 523.674 26.5733 523.791 26.232C523.919 25.8907 523.983 25.4907 523.983 25.032C523.983 24.5733 523.919 24.1733 523.791 23.832C523.674 23.4907 523.493 23.2293 523.247 23.048C523.013 22.8667 522.714 22.776 522.351 22.776C521.989 22.776 521.685 22.8667 521.439 23.048C521.205 23.2293 521.023 23.4907 520.895 23.832C520.778 24.1733 520.719 24.5733 520.719 25.032C520.719 25.4907 520.778 25.8907 520.895 26.232C521.023 26.5733 521.205 26.8347 521.439 27.016C521.685 27.1973 521.989 27.288 522.351 27.288ZM533.353 29.192C532.51 29.192 531.838 29.048 531.337 28.76C530.846 28.4613 530.489 28.0507 530.265 27.528C530.041 27.0053 529.929 26.3973 529.929 25.704V22.904H527.945V21.16L530.041 21.064L530.345 18.632H532.281V21.064H535.641V22.904H532.281V25.688C532.281 26.0827 532.34 26.4027 532.457 26.648C532.574 26.8933 532.756 27.0747 533.001 27.192C533.246 27.2987 533.561 27.352 533.945 27.352C534.254 27.352 534.537 27.3253 534.793 27.272C535.049 27.2187 535.294 27.1493 535.529 27.064L535.945 28.76C535.593 28.8667 535.204 28.9627 534.777 29.048C534.361 29.144 533.886 29.192 533.353 29.192Z" fill="#232A3D"/>
</svg>
