<svg width="414" height="121" viewBox="0 0 414 121" fill="none" xmlns="http://www.w3.org/2000/svg">
<g clip-path="url(#clip0_31_63)">
<rect width="414" height="121" fill="white"/>
<rect x="167" y="16" width="78" height="36" fill="white"/>
<rect x="67" y="100" width="78" height="36" fill="white"/>
<rect x="267" y="100" width="78" height="36" fill="white"/>
<g filter="url(#filter0_d_31_63)">
<rect x="167" y="16" width="78" height="36" fill="#9F6336"/>
</g>
<path d="M174.361 37L176.905 29.152H178.537L181.081 37H179.605L178.417 32.824C178.305 32.408 178.185 31.98 178.057 31.54C177.937 31.1 177.825 30.664 177.721 30.232H177.673C177.561 30.664 177.445 31.1 177.325 31.54C177.213 31.98 177.097 32.408 176.977 32.824L175.777 37H174.361ZM175.861 34.876V33.784H179.545V34.876H175.861ZM184.748 39.604C184.204 39.604 183.732 39.544 183.332 39.424C182.932 39.312 182.62 39.14 182.396 38.908C182.172 38.676 182.06 38.384 182.06 38.032C182.06 37.8 182.14 37.576 182.3 37.36C182.46 37.144 182.692 36.956 182.996 36.796V36.748C182.844 36.652 182.704 36.528 182.576 36.376C182.456 36.216 182.396 36.012 182.396 35.764C182.396 35.572 182.46 35.376 182.588 35.176C182.716 34.976 182.888 34.804 183.104 34.66V34.612C182.896 34.46 182.716 34.256 182.564 34C182.42 33.736 182.348 33.432 182.348 33.088C182.348 32.632 182.46 32.248 182.684 31.936C182.908 31.616 183.204 31.376 183.572 31.216C183.94 31.048 184.34 30.964 184.772 30.964C185.124 30.964 185.432 31.012 185.696 31.108H188.108V32.164H186.752C186.856 32.276 186.944 32.42 187.016 32.596C187.096 32.764 187.136 32.944 187.136 33.136C187.136 33.568 187.028 33.936 186.812 34.24C186.604 34.536 186.324 34.76 185.972 34.912C185.62 35.064 185.22 35.14 184.772 35.14C184.636 35.14 184.488 35.128 184.328 35.104C184.176 35.072 184.024 35.028 183.872 34.972C183.752 35.044 183.66 35.124 183.596 35.212C183.54 35.3 183.512 35.404 183.512 35.524C183.512 35.708 183.604 35.848 183.788 35.944C183.98 36.032 184.26 36.076 184.628 36.076H185.828C186.596 36.076 187.172 36.188 187.556 36.412C187.948 36.628 188.144 36.996 188.144 37.516C188.144 37.9 188.004 38.252 187.724 38.572C187.452 38.892 187.06 39.144 186.548 39.328C186.044 39.512 185.444 39.604 184.748 39.604ZM184.772 34.264C184.98 34.264 185.168 34.22 185.336 34.132C185.504 34.036 185.636 33.9 185.732 33.724C185.836 33.548 185.888 33.336 185.888 33.088C185.888 32.848 185.836 32.644 185.732 32.476C185.636 32.3 185.504 32.164 185.336 32.068C185.168 31.972 184.98 31.924 184.772 31.924C184.572 31.924 184.388 31.972 184.22 32.068C184.052 32.164 183.916 32.3 183.812 32.476C183.708 32.644 183.656 32.848 183.656 33.088C183.656 33.336 183.708 33.548 183.812 33.724C183.916 33.9 184.052 34.036 184.22 34.132C184.388 34.22 184.572 34.264 184.772 34.264ZM184.916 38.692C185.3 38.692 185.632 38.648 185.912 38.56C186.2 38.472 186.42 38.356 186.572 38.212C186.732 38.068 186.812 37.912 186.812 37.744C186.812 37.512 186.712 37.356 186.512 37.276C186.32 37.204 186.024 37.168 185.624 37.168H184.688C184.496 37.168 184.328 37.16 184.184 37.144C184.04 37.128 183.908 37.108 183.788 37.084C183.58 37.204 183.432 37.328 183.344 37.456C183.256 37.584 183.212 37.716 183.212 37.852C183.212 38.116 183.36 38.32 183.656 38.464C183.952 38.616 184.372 38.692 184.916 38.692ZM192.472 37.144C191.872 37.144 191.328 37.024 190.84 36.784C190.352 36.536 189.964 36.184 189.676 35.728C189.388 35.264 189.244 34.704 189.244 34.048C189.244 33.408 189.388 32.86 189.676 32.404C189.964 31.94 190.34 31.584 190.804 31.336C191.268 31.088 191.764 30.964 192.292 30.964C192.876 30.964 193.368 31.084 193.768 31.324C194.176 31.564 194.484 31.896 194.692 32.32C194.908 32.736 195.016 33.216 195.016 33.76C195.016 33.896 195.008 34.028 194.992 34.156C194.984 34.276 194.972 34.376 194.956 34.456H190.24V33.472H194.068L193.804 33.784C193.804 33.2 193.672 32.764 193.408 32.476C193.152 32.18 192.792 32.032 192.328 32.032C192 32.032 191.704 32.108 191.44 32.26C191.184 32.412 190.98 32.64 190.828 32.944C190.676 33.24 190.6 33.608 190.6 34.048C190.6 34.504 190.684 34.88 190.852 35.176C191.028 35.472 191.268 35.696 191.572 35.848C191.884 36 192.244 36.076 192.652 36.076C192.964 36.076 193.252 36.032 193.516 35.944C193.78 35.856 194.044 35.736 194.308 35.584L194.776 36.448C194.464 36.648 194.112 36.816 193.72 36.952C193.328 37.08 192.912 37.144 192.472 37.144ZM208.878 36.532L204.318 33.508V32.524L208.878 29.5V30.784L205.482 32.992V33.04L208.878 35.248V36.532ZM211.034 32.2V31.192H216.362V32.2H211.034ZM211.034 34.888V33.88H216.362V34.888H211.034ZM225.544 37V35.872H227.668V30.856H225.976V29.992C226.296 29.944 226.576 29.892 226.816 29.836C227.056 29.78 227.272 29.712 227.464 29.632C227.664 29.552 227.856 29.464 228.04 29.368H229.048V35.872H230.92V37H225.544ZM234.192 37C234.224 36.32 234.288 35.696 234.384 35.128C234.488 34.56 234.632 34.028 234.816 33.532C235 33.028 235.236 32.532 235.524 32.044C235.82 31.556 236.176 31.052 236.592 30.532H232.476V29.368H238.116V30.208C237.62 30.768 237.216 31.3 236.904 31.804C236.592 32.3 236.344 32.808 236.16 33.328C235.984 33.84 235.856 34.392 235.776 34.984C235.696 35.576 235.636 36.248 235.596 37H234.192Z" fill="white"/>
<g filter="url(#filter1_d_31_63)">
<rect x="67" y="100" width="78" height="36" fill="white"/>
<rect x="67.5" y="100.5" width="77" height="35" stroke="#209766"/>
</g>
<g filter="url(#filter2_d_31_63)">
<rect x="267" y="100" width="78" height="36" fill="white"/>
<rect x="267.5" y="100.5" width="77" height="35" stroke="#C74E4E"/>
</g>
<path d="M207 57C207 56.4477 206.552 56 206 56C205.448 56 205 56.4477 205 57H207ZM105.293 98.7071C105.683 99.0976 106.317 99.0976 106.707 98.7071L113.071 92.3431C113.462 91.9526 113.462 91.3195 113.071 90.9289C112.681 90.5384 112.047 90.5384 111.657 90.9289L106 96.5858L100.343 90.9289C99.9526 90.5384 99.3195 90.5384 98.9289 90.9289C98.5384 91.3195 98.5384 91.9526 98.9289 92.3431L105.293 98.7071ZM205 57C205 61.6366 203.525 64.9865 201.003 67.461C198.449 69.9661 194.74 71.6548 190.139 72.7704C180.911 75.0083 168.559 74.8439 156.002 74.8125C143.543 74.7814 130.881 74.8818 121.335 77.7694C116.544 79.2188 112.447 81.3949 109.546 84.6877C106.629 88.0004 105 92.3556 105 98L107 98C107 92.7694 108.496 88.9059 111.047 86.0096C113.616 83.0933 117.331 81.0702 121.915 79.6837C131.119 76.8995 143.457 76.7811 155.997 76.8125C168.441 76.8436 181.089 77.023 190.611 74.714C195.385 73.5561 199.488 71.7487 202.403 68.8886C205.35 65.9979 207 62.1134 207 57H205Z" fill="url(#paint0_linear_31_63)"/>
<path d="M205 57C205 56.4477 205.448 56 206 56C206.552 56 207 56.4477 207 57H205ZM306.707 98.7071C306.317 99.0976 305.683 99.0976 305.293 98.7071L298.929 92.3431C298.538 91.9526 298.538 91.3195 298.929 90.9289C299.319 90.5384 299.953 90.5384 300.343 90.9289L306 96.5858L311.657 90.9289C312.047 90.5384 312.681 90.5384 313.071 90.9289C313.462 91.3195 313.462 91.9526 313.071 92.3431L306.707 98.7071ZM207 57C207 61.6366 208.475 64.9865 210.997 67.461C213.551 69.9661 217.26 71.6548 221.861 72.7704C231.089 75.0083 243.441 74.8439 255.998 74.8125C268.457 74.7814 281.119 74.8818 290.665 77.7694C295.456 79.2188 299.553 81.3949 302.454 84.6877C305.371 88.0004 307 92.3556 307 98L305 98C305 92.7694 303.504 88.9059 300.953 86.0096C298.384 83.0933 294.669 81.0702 290.085 79.6837C280.881 76.8995 268.543 76.7811 256.003 76.8125C243.559 76.8436 230.911 77.023 221.389 74.714C216.615 73.5561 212.512 71.7487 209.597 68.8886C206.65 65.9979 205 62.1134 205 57H207Z" fill="url(#paint1_linear_31_63)"/>
<g filter="url(#filter3_d_31_63)">
<rect x="267" y="100" width="78" height="36" fill="#9F6336"/>
</g>
<path d="M275.107 120.632L275.731 119.684C276.075 119.908 276.423 120.096 276.775 120.248C277.135 120.392 277.519 120.464 277.927 120.464C278.311 120.464 278.599 120.392 278.791 120.248C278.991 120.104 279.091 119.912 279.091 119.672C279.091 119.464 279.003 119.292 278.827 119.156C278.651 119.012 278.423 118.884 278.143 118.772C277.871 118.66 277.579 118.548 277.267 118.436C276.955 118.316 276.659 118.176 276.379 118.016C276.107 117.848 275.883 117.644 275.707 117.404C275.531 117.164 275.443 116.864 275.443 116.504C275.443 116.112 275.547 115.772 275.755 115.484C275.963 115.196 276.255 114.976 276.631 114.824C277.015 114.664 277.451 114.584 277.939 114.584C278.483 114.584 278.935 114.676 279.295 114.86C279.663 115.044 279.987 115.276 280.267 115.556L279.571 116.36C279.291 116.152 279.023 115.992 278.767 115.88C278.519 115.768 278.211 115.712 277.843 115.712C277.515 115.712 277.255 115.78 277.063 115.916C276.871 116.052 276.775 116.24 276.775 116.48C276.775 116.656 276.863 116.808 277.039 116.936C277.215 117.064 277.443 117.18 277.723 117.284C278.003 117.388 278.295 117.5 278.599 117.62C278.911 117.732 279.203 117.872 279.475 118.04C279.755 118.208 279.983 118.416 280.159 118.664C280.343 118.904 280.435 119.208 280.435 119.576C280.435 119.968 280.323 120.316 280.099 120.62C279.883 120.924 279.575 121.164 279.175 121.34C278.783 121.508 278.307 121.592 277.747 121.592C277.443 121.592 277.127 121.552 276.799 121.472C276.479 121.384 276.171 121.268 275.875 121.124C275.587 120.98 275.331 120.816 275.107 120.632ZM277.399 115.04V113.048H278.359V115.04H277.399ZM277.399 121.052H278.359V123.32H277.399V121.052ZM294.585 121.532L290.025 118.508V117.524L294.585 114.5V115.784L291.189 117.992V118.04L294.585 120.248V121.532ZM296.741 117.2V116.192H302.069V117.2H296.741ZM296.741 119.888V118.88H302.069V119.888H296.741ZM311.083 120.632L311.707 119.684C312.051 119.908 312.399 120.096 312.751 120.248C313.111 120.392 313.495 120.464 313.903 120.464C314.287 120.464 314.575 120.392 314.767 120.248C314.967 120.104 315.067 119.912 315.067 119.672C315.067 119.464 314.979 119.292 314.803 119.156C314.627 119.012 314.399 118.884 314.119 118.772C313.847 118.66 313.555 118.548 313.243 118.436C312.931 118.316 312.635 118.176 312.355 118.016C312.083 117.848 311.859 117.644 311.683 117.404C311.507 117.164 311.419 116.864 311.419 116.504C311.419 116.112 311.523 115.772 311.731 115.484C311.939 115.196 312.231 114.976 312.607 114.824C312.991 114.664 313.427 114.584 313.915 114.584C314.459 114.584 314.911 114.676 315.271 114.86C315.639 115.044 315.963 115.276 316.243 115.556L315.547 116.36C315.267 116.152 314.999 115.992 314.743 115.88C314.495 115.768 314.187 115.712 313.819 115.712C313.491 115.712 313.231 115.78 313.039 115.916C312.847 116.052 312.751 116.24 312.751 116.48C312.751 116.656 312.839 116.808 313.015 116.936C313.191 117.064 313.419 117.18 313.699 117.284C313.979 117.388 314.271 117.5 314.575 117.62C314.887 117.732 315.179 117.872 315.451 118.04C315.731 118.208 315.959 118.416 316.135 118.664C316.319 118.904 316.411 119.208 316.411 119.576C316.411 119.968 316.299 120.316 316.075 120.62C315.859 120.924 315.551 121.164 315.151 121.34C314.759 121.508 314.283 121.592 313.723 121.592C313.419 121.592 313.103 121.552 312.775 121.472C312.455 121.384 312.147 121.268 311.851 121.124C311.563 120.98 311.307 120.816 311.083 120.632ZM313.375 115.04V113.048H314.335V115.04H313.375ZM313.375 121.052H314.335V123.32H313.375V121.052ZM318.171 122V121.196C318.971 120.508 319.655 119.896 320.223 119.36C320.799 118.824 321.239 118.336 321.543 117.896C321.855 117.448 322.011 117.028 322.011 116.636C322.011 116.228 321.887 115.908 321.639 115.676C321.391 115.436 321.027 115.316 320.547 115.316C320.219 115.316 319.915 115.4 319.635 115.568C319.355 115.736 319.099 115.936 318.867 116.168L318.111 115.4C318.479 115.024 318.867 114.736 319.275 114.536C319.683 114.328 320.167 114.224 320.727 114.224C321.255 114.224 321.711 114.32 322.095 114.512C322.487 114.704 322.791 114.976 323.007 115.328C323.223 115.68 323.331 116.092 323.331 116.564C323.331 117.012 323.191 117.472 322.911 117.944C322.631 118.408 322.251 118.884 321.771 119.372C321.299 119.86 320.767 120.372 320.175 120.908C320.399 120.884 320.635 120.864 320.883 120.848C321.131 120.832 321.359 120.824 321.567 120.824H323.727V122H318.171ZM328.186 122.144C327.61 122.144 327.11 121.988 326.686 121.676C326.262 121.364 325.934 120.912 325.702 120.32C325.47 119.728 325.354 119.004 325.354 118.148C325.354 116.86 325.61 115.884 326.122 115.22C326.634 114.556 327.322 114.224 328.186 114.224C329.058 114.224 329.746 114.556 330.25 115.22C330.762 115.884 331.018 116.86 331.018 118.148C331.018 119.004 330.902 119.728 330.67 120.32C330.446 120.912 330.122 121.364 329.698 121.676C329.274 121.988 328.77 122.144 328.186 122.144ZM328.186 121.064C328.49 121.064 328.762 120.968 329.002 120.776C329.242 120.576 329.43 120.264 329.566 119.84C329.702 119.408 329.77 118.844 329.77 118.148C329.77 117.452 329.702 116.896 329.566 116.48C329.43 116.064 329.242 115.764 329.002 115.58C328.762 115.396 328.49 115.304 328.186 115.304C327.882 115.304 327.61 115.396 327.37 115.58C327.13 115.764 326.942 116.064 326.806 116.48C326.67 116.896 326.602 117.452 326.602 118.148C326.602 118.844 326.67 119.408 326.806 119.84C326.942 120.264 327.13 120.576 327.37 120.776C327.61 120.968 327.882 121.064 328.186 121.064ZM328.186 118.952C327.962 118.952 327.766 118.876 327.598 118.724C327.438 118.572 327.358 118.364 327.358 118.1C327.358 117.836 327.438 117.628 327.598 117.476C327.766 117.324 327.962 117.248 328.186 117.248C328.418 117.248 328.614 117.324 328.774 117.476C328.934 117.628 329.014 117.836 329.014 118.1C329.014 118.364 328.934 118.572 328.774 118.724C328.614 118.876 328.418 118.952 328.186 118.952Z" fill="white"/>
<g filter="url(#filter4_d_31_63)">
<rect x="67" y="100" width="78" height="36" fill="#9F6336"/>
</g>
<path d="M77.8502 122L76.2902 114.152H77.7182L78.4022 118.112C78.4662 118.528 78.5302 118.948 78.5942 119.372C78.6662 119.788 78.7302 120.204 78.7862 120.62H78.8342C78.9222 120.204 79.0062 119.788 79.0862 119.372C79.1742 118.948 79.2622 118.528 79.3502 118.112L80.3102 114.152H81.5222L82.4822 118.112C82.5702 118.52 82.6582 118.936 82.7462 119.36C82.8342 119.776 82.9222 120.196 83.0102 120.62H83.0582C83.1222 120.196 83.1862 119.776 83.2502 119.36C83.3142 118.944 83.3742 118.528 83.4302 118.112L84.1142 114.152H85.4462L83.9462 122H82.2182L81.2462 117.872C81.1822 117.568 81.1182 117.264 81.0542 116.96C80.9982 116.656 80.9462 116.356 80.8982 116.06H80.8502C80.7942 116.356 80.7342 116.656 80.6702 116.96C80.6142 117.264 80.5542 117.568 80.4902 117.872L79.5422 122H77.8502ZM86.5479 122V116.108H87.9279V122H86.5479ZM87.2439 115.076C86.9959 115.076 86.7959 115.004 86.6439 114.86C86.4919 114.716 86.4159 114.524 86.4159 114.284C86.4159 114.052 86.4919 113.864 86.6439 113.72C86.7959 113.576 86.9959 113.504 87.2439 113.504C87.4919 113.504 87.6919 113.576 87.8439 113.72C87.9959 113.864 88.0719 114.052 88.0719 114.284C88.0719 114.524 87.9959 114.716 87.8439 114.86C87.6919 115.004 87.4919 115.076 87.2439 115.076ZM91.7645 122.144C91.0845 122.144 90.6005 121.948 90.3125 121.556C90.0325 121.156 89.8925 120.64 89.8925 120.008V117.2H89.0525V116.168L89.9645 116.108L90.1325 114.5H91.2845V116.108H92.7845V117.2H91.2845V120.008C91.2845 120.696 91.5605 121.04 92.1125 121.04C92.2165 121.04 92.3245 121.028 92.4365 121.004C92.5485 120.972 92.6445 120.94 92.7245 120.908L92.9645 121.928C92.8045 121.984 92.6205 122.032 92.4125 122.072C92.2125 122.12 91.9965 122.144 91.7645 122.144ZM94.0244 122V113.528H95.4044V115.712L95.3564 116.852C95.6044 116.62 95.8804 116.416 96.1844 116.24C96.4884 116.056 96.8404 115.964 97.2404 115.964C97.8724 115.964 98.3324 116.168 98.6204 116.576C98.9084 116.984 99.0524 117.56 99.0524 118.304V122H97.6724V118.484C97.6724 117.996 97.6004 117.652 97.4564 117.452C97.3124 117.252 97.0764 117.152 96.7484 117.152C96.4924 117.152 96.2644 117.216 96.0644 117.344C95.8724 117.464 95.6524 117.644 95.4044 117.884V122H94.0244ZM104.846 117.824L104.57 118.784H106.574L106.298 117.824C106.17 117.408 106.046 116.98 105.926 116.54C105.814 116.1 105.702 115.664 105.59 115.232H105.542C105.438 115.672 105.326 116.112 105.206 116.552C105.094 116.984 104.974 117.408 104.846 117.824ZM102.218 122L104.774 114.152H106.406L108.962 122H107.498L106.886 119.876H104.246L103.634 122H102.218ZM111.874 122.144C111.138 122.144 110.55 121.872 110.11 121.328C109.67 120.784 109.45 120.028 109.45 119.06C109.45 118.42 109.566 117.868 109.798 117.404C110.038 116.94 110.35 116.584 110.734 116.336C111.118 116.088 111.522 115.964 111.946 115.964C112.282 115.964 112.566 116.024 112.798 116.144C113.038 116.256 113.27 116.412 113.494 116.612L113.446 115.664V113.528H114.826V122H113.686L113.59 121.364H113.542C113.326 121.58 113.074 121.764 112.786 121.916C112.498 122.068 112.194 122.144 111.874 122.144ZM112.21 121.004C112.65 121.004 113.062 120.784 113.446 120.344V117.596C113.246 117.412 113.046 117.284 112.846 117.212C112.646 117.14 112.446 117.104 112.246 117.104C111.87 117.104 111.546 117.276 111.274 117.62C111.01 117.956 110.878 118.432 110.878 119.048C110.878 119.68 110.994 120.164 111.226 120.5C111.458 120.836 111.786 121.004 112.21 121.004ZM118.335 122.144C117.703 122.144 117.243 121.94 116.955 121.532C116.667 121.124 116.523 120.548 116.523 119.804V116.108H117.903V119.624C117.903 120.112 117.975 120.456 118.119 120.656C118.263 120.856 118.495 120.956 118.815 120.956C119.071 120.956 119.295 120.892 119.487 120.764C119.687 120.636 119.899 120.428 120.123 120.14V116.108H121.503V122H120.375L120.267 121.136H120.231C119.975 121.44 119.695 121.684 119.391 121.868C119.087 122.052 118.735 122.144 118.335 122.144ZM124.595 122.144C124.107 122.144 123.759 121.996 123.551 121.7C123.351 121.404 123.251 121 123.251 120.488V113.528H124.631V120.56C124.631 120.728 124.663 120.848 124.727 120.92C124.791 120.984 124.859 121.016 124.931 121.016C124.963 121.016 124.991 121.016 125.015 121.016C125.047 121.008 125.091 121 125.147 120.992L125.327 122.024C125.247 122.056 125.143 122.084 125.015 122.108C124.895 122.132 124.755 122.144 124.595 122.144ZM128.585 122.144C127.905 122.144 127.421 121.948 127.133 121.556C126.853 121.156 126.713 120.64 126.713 120.008V117.2H125.873V116.168L126.785 116.108L126.953 114.5H128.105V116.108H129.605V117.2H128.105V120.008C128.105 120.696 128.381 121.04 128.933 121.04C129.037 121.04 129.145 121.028 129.257 121.004C129.369 120.972 129.465 120.94 129.545 120.908L129.785 121.928C129.625 121.984 129.441 122.032 129.233 122.072C129.033 122.12 128.817 122.144 128.585 122.144ZM131.478 119.42C131.43 119.068 131.45 118.756 131.538 118.484C131.626 118.212 131.75 117.964 131.91 117.74C132.078 117.516 132.25 117.304 132.426 117.104C132.602 116.904 132.75 116.708 132.87 116.516C132.99 116.324 133.05 116.12 133.05 115.904C133.05 115.616 132.962 115.384 132.786 115.208C132.618 115.032 132.382 114.944 132.078 114.944C131.83 114.944 131.606 115 131.406 115.112C131.206 115.224 131.018 115.376 130.842 115.568L130.074 114.86C130.338 114.556 130.654 114.308 131.022 114.116C131.39 113.916 131.798 113.816 132.246 113.816C132.87 113.816 133.382 113.984 133.782 114.32C134.19 114.656 134.394 115.152 134.394 115.808C134.394 116.112 134.33 116.384 134.202 116.624C134.082 116.864 133.93 117.088 133.746 117.296C133.57 117.504 133.394 117.712 133.218 117.92C133.042 118.128 132.902 118.352 132.798 118.592C132.694 118.832 132.658 119.108 132.69 119.42H131.478ZM132.09 122.144C131.842 122.144 131.63 122.056 131.454 121.88C131.286 121.704 131.202 121.48 131.202 121.208C131.202 120.936 131.286 120.712 131.454 120.536C131.63 120.36 131.842 120.272 132.09 120.272C132.346 120.272 132.558 120.36 132.726 120.536C132.902 120.712 132.99 120.936 132.99 121.208C132.99 121.48 132.902 121.704 132.726 121.88C132.558 122.056 132.346 122.144 132.09 122.144Z" fill="white"/>
<rect x="-1" y="100" width="414" height="21" fill="url(#paint2_linear_31_63)"/>
</g>
<defs>
<filter id="filter0_d_31_63" x="163" y="13" width="86" height="44" filterUnits="userSpaceOnUse" color-interpolation-filters="sRGB">
<feFlood flood-opacity="0" result="BackgroundImageFix"/>
<feColorMatrix in="SourceAlpha" type="matrix" values="0 0 0 0 0 0 0 0 0 0 0 0 0 0 0 0 0 0 127 0" result="hardAlpha"/>
<feOffset dy="1"/>
<feGaussianBlur stdDeviation="2"/>
<feComposite in2="hardAlpha" operator="out"/>
<feColorMatrix type="matrix" values="0 0 0 0 0 0 0 0 0 0 0 0 0 0 0 0 0 0 0.15 0"/>
<feBlend mode="normal" in2="BackgroundImageFix" result="effect1_dropShadow_31_63"/>
<feBlend mode="normal" in="SourceGraphic" in2="effect1_dropShadow_31_63" result="shape"/>
</filter>
<filter id="filter1_d_31_63" x="63" y="97" width="86" height="44" filterUnits="userSpaceOnUse" color-interpolation-filters="sRGB">
<feFlood flood-opacity="0" result="BackgroundImageFix"/>
<feColorMatrix in="SourceAlpha" type="matrix" values="0 0 0 0 0 0 0 0 0 0 0 0 0 0 0 0 0 0 127 0" result="hardAlpha"/>
<feOffset dy="1"/>
<feGaussianBlur stdDeviation="2"/>
<feComposite in2="hardAlpha" operator="out"/>
<feColorMatrix type="matrix" values="0 0 0 0 0 0 0 0 0 0 0 0 0 0 0 0 0 0 0.18 0"/>
<feBlend mode="normal" in2="BackgroundImageFix" result="effect1_dropShadow_31_63"/>
<feBlend mode="normal" in="SourceGraphic" in2="effect1_dropShadow_31_63" result="shape"/>
</filter>
<filter id="filter2_d_31_63" x="263" y="97" width="86" height="44" filterUnits="userSpaceOnUse" color-interpolation-filters="sRGB">
<feFlood flood-opacity="0" result="BackgroundImageFix"/>
<feColorMatrix in="SourceAlpha" type="matrix" values="0 0 0 0 0 0 0 0 0 0 0 0 0 0 0 0 0 0 127 0" result="hardAlpha"/>
<feOffset dy="1"/>
<feGaussianBlur stdDeviation="2"/>
<feComposite in2="hardAlpha" operator="out"/>
<feColorMatrix type="matrix" values="0 0 0 0 0 0 0 0 0 0 0 0 0 0 0 0 0 0 0.18 0"/>
<feBlend mode="normal" in2="BackgroundImageFix" result="effect1_dropShadow_31_63"/>
<feBlend mode="normal" in="SourceGraphic" in2="effect1_dropShadow_31_63" result="shape"/>
</filter>
<filter id="filter3_d_31_63" x="263" y="97" width="86" height="44" filterUnits="userSpaceOnUse" color-interpolation-filters="sRGB">
<feFlood flood-opacity="0" result="BackgroundImageFix"/>
<feColorMatrix in="SourceAlpha" type="matrix" values="0 0 0 0 0 0 0 0 0 0 0 0 0 0 0 0 0 0 127 0" result="hardAlpha"/>
<feOffset dy="1"/>
<feGaussianBlur stdDeviation="2"/>
<feComposite in2="hardAlpha" operator="out"/>
<feColorMatrix type="matrix" values="0 0 0 0 0 0 0 0 0 0 0 0 0 0 0 0 0 0 0.15 0"/>
<feBlend mode="normal" in2="BackgroundImageFix" result="effect1_dropShadow_31_63"/>
<feBlend mode="normal" in="SourceGraphic" in2="effect1_dropShadow_31_63" result="shape"/>
</filter>
<filter id="filter4_d_31_63" x="63" y="97" width="86" height="44" filterUnits="userSpaceOnUse" color-interpolation-filters="sRGB">
<feFlood flood-opacity="0" result="BackgroundImageFix"/>
<feColorMatrix in="SourceAlpha" type="matrix" values="0 0 0 0 0 0 0 0 0 0 0 0 0 0 0 0 0 0 127 0" result="hardAlpha"/>
<feOffset dy="1"/>
<feGaussianBlur stdDeviation="2"/>
<feComposite in2="hardAlpha" operator="out"/>
<feColorMatrix type="matrix" values="0 0 0 0 0 0 0 0 0 0 0 0 0 0 0 0 0 0 0.15 0"/>
<feBlend mode="normal" in2="BackgroundImageFix" result="effect1_dropShadow_31_63"/>
<feBlend mode="normal" in="SourceGraphic" in2="effect1_dropShadow_31_63" result="shape"/>
</filter>
<linearGradient id="paint0_linear_31_63" x1="107" y1="100" x2="206" y2="56" gradientUnits="userSpaceOnUse">
<stop stop-color="#209766"/>
<stop offset="1" stop-color="#209766" stop-opacity="0.2"/>
</linearGradient>
<linearGradient id="paint1_linear_31_63" x1="305" y1="100" x2="206" y2="56" gradientUnits="userSpaceOnUse">
<stop stop-color="#C74E4E"/>
<stop offset="1" stop-color="#C74E4E" stop-opacity="0.2"/>
</linearGradient>
<linearGradient id="paint2_linear_31_63" x1="206" y1="100" x2="206" y2="121" gradientUnits="userSpaceOnUse">
<stop stop-color="white" stop-opacity="0.24"/>
<stop offset="0.942708" stop-color="white"/>
</linearGradient>
<clipPath id="clip0_31_63">
<rect width="414" height="121" fill="white"/>
</clipPath>
</defs>
</svg>
