<svg width="502" height="296" viewBox="0 0 502 296" fill="none" xmlns="http://www.w3.org/2000/svg">
<rect width="502" height="296" fill="white"/>
<rect x="112" y="111" width="360" height="68" fill="#9B51E0" fill-opacity="0.2"/>
<rect x="112.5" y="110.5" width="360" height="137" stroke="#232A3D" stroke-width="3"/>
<path d="M114 179H474" stroke="#232A3D" stroke-width="3"/>
<path d="M293 249L293 109" stroke="#232A3D" stroke-width="3"/>
<path d="M161.51 150V141.104H158.486V139.536H166.39V141.104H163.366V150H161.51ZM167.27 150V142.144H168.79L168.918 143.536H168.982C169.259 143.024 169.595 142.635 169.99 142.368C170.384 142.091 170.79 141.952 171.206 141.952C171.579 141.952 171.878 142.005 172.102 142.112L171.782 143.712C171.643 143.669 171.515 143.637 171.398 143.616C171.28 143.595 171.136 143.584 170.966 143.584C170.656 143.584 170.331 143.707 169.99 143.952C169.648 144.187 169.355 144.603 169.11 145.2V150H167.27ZM175.574 150.192C174.732 150.192 174.118 149.92 173.734 149.376C173.35 148.832 173.158 148.064 173.158 147.072V142.144H174.998V146.832C174.998 147.483 175.094 147.941 175.286 148.208C175.478 148.475 175.788 148.608 176.214 148.608C176.556 148.608 176.854 148.523 177.11 148.352C177.377 148.181 177.66 147.904 177.958 147.52V142.144H179.798V150H178.294L178.15 148.848H178.102C177.761 149.253 177.388 149.579 176.982 149.824C176.577 150.069 176.108 150.192 175.574 150.192ZM185.489 150.192C184.764 150.192 184.108 150.032 183.521 149.712C182.934 149.381 182.47 148.912 182.129 148.304C181.788 147.685 181.617 146.944 181.617 146.08C181.617 145.227 181.788 144.491 182.129 143.872C182.481 143.253 182.934 142.779 183.489 142.448C184.044 142.117 184.625 141.952 185.233 141.952C185.948 141.952 186.545 142.112 187.025 142.432C187.505 142.741 187.868 143.179 188.113 143.744C188.358 144.299 188.481 144.944 188.481 145.68C188.481 146.064 188.454 146.363 188.401 146.576H183.409C183.494 147.269 183.745 147.808 184.161 148.192C184.577 148.576 185.1 148.768 185.729 148.768C186.07 148.768 186.385 148.72 186.673 148.624C186.972 148.517 187.265 148.373 187.553 148.192L188.177 149.344C187.804 149.589 187.388 149.792 186.929 149.952C186.47 150.112 185.99 150.192 185.489 150.192ZM183.393 145.328H186.881C186.881 144.72 186.748 144.245 186.481 143.904C186.214 143.552 185.814 143.376 185.281 143.376C184.822 143.376 184.412 143.547 184.049 143.888C183.697 144.219 183.478 144.699 183.393 145.328ZM193.601 150V139.536H196.897C197.676 139.536 198.369 139.637 198.977 139.84C199.585 140.043 200.065 140.379 200.417 140.848C200.769 141.317 200.945 141.957 200.945 142.768C200.945 143.536 200.769 144.171 200.417 144.672C200.065 145.173 199.591 145.547 198.993 145.792C198.396 146.037 197.719 146.16 196.961 146.16H195.457V150H193.601ZM195.457 144.672H196.817C198.353 144.672 199.121 144.037 199.121 142.768C199.121 142.107 198.919 141.653 198.513 141.408C198.119 141.152 197.532 141.024 196.753 141.024H195.457V144.672ZM205.611 150.192C204.96 150.192 204.352 150.032 203.787 149.712C203.221 149.381 202.763 148.912 202.411 148.304C202.059 147.685 201.883 146.944 201.883 146.08C201.883 145.205 202.059 144.464 202.411 143.856C202.763 143.237 203.221 142.768 203.787 142.448C204.352 142.117 204.96 141.952 205.611 141.952C206.272 141.952 206.885 142.117 207.451 142.448C208.016 142.768 208.475 143.237 208.827 143.856C209.179 144.464 209.355 145.205 209.355 146.08C209.355 146.944 209.179 147.685 208.827 148.304C208.475 148.912 208.016 149.381 207.451 149.712C206.885 150.032 206.272 150.192 205.611 150.192ZM205.611 148.688C206.187 148.688 206.64 148.448 206.971 147.968C207.301 147.488 207.467 146.859 207.467 146.08C207.467 145.291 207.301 144.656 206.971 144.176C206.64 143.696 206.187 143.456 205.611 143.456C205.035 143.456 204.581 143.696 204.251 144.176C203.931 144.656 203.771 145.291 203.771 146.08C203.771 146.859 203.931 147.488 204.251 147.968C204.581 148.448 205.035 148.688 205.611 148.688ZM213.305 150.192C212.772 150.192 212.239 150.091 211.705 149.888C211.172 149.675 210.713 149.413 210.329 149.104L211.193 147.92C211.545 148.187 211.897 148.4 212.249 148.56C212.601 148.72 212.975 148.8 213.369 148.8C213.796 148.8 214.111 148.709 214.313 148.528C214.516 148.347 214.617 148.123 214.617 147.856C214.617 147.632 214.532 147.451 214.361 147.312C214.201 147.163 213.993 147.035 213.737 146.928C213.481 146.811 213.215 146.699 212.937 146.592C212.596 146.464 212.255 146.309 211.913 146.128C211.583 145.936 211.311 145.696 211.097 145.408C210.884 145.109 210.777 144.741 210.777 144.304C210.777 143.611 211.033 143.045 211.545 142.608C212.057 142.171 212.751 141.952 213.625 141.952C214.18 141.952 214.676 142.048 215.113 142.24C215.551 142.432 215.929 142.651 216.249 142.896L215.401 144.016C215.124 143.813 214.841 143.653 214.553 143.536C214.276 143.408 213.983 143.344 213.673 143.344C213.279 143.344 212.985 143.429 212.793 143.6C212.601 143.76 212.505 143.963 212.505 144.208C212.505 144.517 212.665 144.752 212.985 144.912C213.305 145.072 213.679 145.227 214.105 145.376C214.468 145.504 214.82 145.664 215.161 145.856C215.503 146.037 215.785 146.277 216.009 146.576C216.244 146.875 216.361 147.269 216.361 147.76C216.361 148.432 216.1 149.008 215.577 149.488C215.055 149.957 214.297 150.192 213.305 150.192ZM218.004 150V142.144H219.844V150H218.004ZM218.932 140.768C218.601 140.768 218.335 140.672 218.132 140.48C217.929 140.288 217.828 140.032 217.828 139.712C217.828 139.403 217.929 139.152 218.132 138.96C218.335 138.768 218.601 138.672 218.932 138.672C219.263 138.672 219.529 138.768 219.732 138.96C219.935 139.152 220.036 139.403 220.036 139.712C220.036 140.032 219.935 140.288 219.732 140.48C219.529 140.672 219.263 140.768 218.932 140.768ZM224.959 150.192C224.053 150.192 223.407 149.931 223.023 149.408C222.65 148.875 222.463 148.187 222.463 147.344V143.6H221.343V142.224L222.559 142.144L222.783 140H224.319V142.144H226.319V143.6H224.319V147.344C224.319 148.261 224.687 148.72 225.423 148.72C225.562 148.72 225.706 148.704 225.855 148.672C226.005 148.629 226.133 148.587 226.239 148.544L226.559 149.904C226.346 149.979 226.101 150.043 225.823 150.096C225.557 150.16 225.269 150.192 224.959 150.192ZM227.973 150V142.144H229.813V150H227.973ZM228.901 140.768C228.57 140.768 228.303 140.672 228.101 140.48C227.898 140.288 227.797 140.032 227.797 139.712C227.797 139.403 227.898 139.152 228.101 138.96C228.303 138.768 228.57 138.672 228.901 138.672C229.231 138.672 229.498 138.768 229.701 138.96C229.903 139.152 230.005 139.403 230.005 139.712C230.005 140.032 229.903 140.288 229.701 140.48C229.498 140.672 229.231 140.768 228.901 140.768ZM233.92 150L231.184 142.144H233.056L234.304 146.224C234.411 146.608 234.518 146.997 234.624 147.392C234.742 147.787 234.854 148.187 234.96 148.592H235.024C235.142 148.187 235.254 147.787 235.36 147.392C235.478 146.997 235.59 146.608 235.696 146.224L236.944 142.144H238.72L236.048 150H233.92ZM243.348 150.192C242.623 150.192 241.967 150.032 241.38 149.712C240.794 149.381 240.33 148.912 239.988 148.304C239.647 147.685 239.476 146.944 239.476 146.08C239.476 145.227 239.647 144.491 239.988 143.872C240.34 143.253 240.794 142.779 241.348 142.448C241.903 142.117 242.484 141.952 243.092 141.952C243.807 141.952 244.404 142.112 244.884 142.432C245.364 142.741 245.727 143.179 245.972 143.744C246.218 144.299 246.34 144.944 246.34 145.68C246.34 146.064 246.314 146.363 246.26 146.576H241.268C241.354 147.269 241.604 147.808 242.02 148.192C242.436 148.576 242.959 148.768 243.588 148.768C243.93 148.768 244.244 148.72 244.532 148.624C244.831 148.517 245.124 148.373 245.412 148.192L246.036 149.344C245.663 149.589 245.247 149.792 244.788 149.952C244.33 150.112 243.85 150.192 243.348 150.192ZM241.252 145.328H244.74C244.74 144.72 244.607 144.245 244.34 143.904C244.074 143.552 243.674 143.376 243.14 143.376C242.682 143.376 242.271 143.547 241.908 143.888C241.556 144.219 241.338 144.699 241.252 145.328Z" fill="#232A3D"/>
<path d="M198.764 100V98.12H202.304V89.76H199.484V88.32C200.017 88.24 200.484 88.1533 200.884 88.06C201.284 87.9667 201.644 87.8533 201.964 87.72C202.297 87.5867 202.617 87.44 202.924 87.28H204.604V98.12H207.724V100H198.764Z" fill="#232A3D"/>
<path d="M90.7639 154V152.12H94.3039V143.76H91.4839V142.32C92.0172 142.24 92.4839 142.153 92.8839 142.06C93.2839 141.967 93.6439 141.853 93.9639 141.72C94.2972 141.587 94.6172 141.44 94.9239 141.28H96.6039V152.12H99.7239V154H90.7639Z" fill="#232A3D"/>
<path d="M383.004 100.24C382.044 100.24 381.211 99.98 380.504 99.46C379.797 98.94 379.251 98.1867 378.864 97.2C378.477 96.2133 378.284 95.0067 378.284 93.58C378.284 91.4333 378.711 89.8067 379.564 88.7C380.417 87.5933 381.564 87.04 383.004 87.04C384.457 87.04 385.604 87.5933 386.444 88.7C387.297 89.8067 387.724 91.4333 387.724 93.58C387.724 95.0067 387.531 96.2133 387.144 97.2C386.771 98.1867 386.231 98.94 385.524 99.46C384.817 99.98 383.977 100.24 383.004 100.24ZM383.004 98.44C383.511 98.44 383.964 98.28 384.364 97.96C384.764 97.6267 385.077 97.1067 385.304 96.4C385.531 95.68 385.644 94.74 385.644 93.58C385.644 92.42 385.531 91.4933 385.304 90.8C385.077 90.1067 384.764 89.6067 384.364 89.3C383.964 88.9933 383.511 88.84 383.004 88.84C382.497 88.84 382.044 88.9933 381.644 89.3C381.244 89.6067 380.931 90.1067 380.704 90.8C380.477 91.4933 380.364 92.42 380.364 93.58C380.364 94.74 380.477 95.68 380.704 96.4C380.931 97.1067 381.244 97.6267 381.644 97.96C382.044 98.28 382.497 98.44 383.004 98.44ZM383.004 94.92C382.631 94.92 382.304 94.7933 382.024 94.54C381.757 94.2867 381.624 93.94 381.624 93.5C381.624 93.06 381.757 92.7133 382.024 92.46C382.304 92.2067 382.631 92.08 383.004 92.08C383.391 92.08 383.717 92.2067 383.984 92.46C384.251 92.7133 384.384 93.06 384.384 93.5C384.384 93.94 384.251 94.2867 383.984 94.54C383.717 94.7933 383.391 94.92 383.004 94.92Z" fill="#232A3D"/>
<path d="M95.0039 222.24C94.0439 222.24 93.2106 221.98 92.5039 221.46C91.7972 220.94 91.2506 220.187 90.8639 219.2C90.4772 218.213 90.2839 217.007 90.2839 215.58C90.2839 213.433 90.7106 211.807 91.5639 210.7C92.4172 209.593 93.5639 209.04 95.0039 209.04C96.4572 209.04 97.6039 209.593 98.4439 210.7C99.2972 211.807 99.7239 213.433 99.7239 215.58C99.7239 217.007 99.5306 218.213 99.1439 219.2C98.7706 220.187 98.2306 220.94 97.5239 221.46C96.8172 221.98 95.9772 222.24 95.0039 222.24ZM95.0039 220.44C95.5106 220.44 95.9639 220.28 96.3639 219.96C96.7639 219.627 97.0772 219.107 97.3039 218.4C97.5306 217.68 97.6439 216.74 97.6439 215.58C97.6439 214.42 97.5306 213.493 97.3039 212.8C97.0772 212.107 96.7639 211.607 96.3639 211.3C95.9639 210.993 95.5106 210.84 95.0039 210.84C94.4972 210.84 94.0439 210.993 93.6439 211.3C93.2439 211.607 92.9306 212.107 92.7039 212.8C92.4772 213.493 92.3639 214.42 92.3639 215.58C92.3639 216.74 92.4772 217.68 92.7039 218.4C92.9306 219.107 93.2439 219.627 93.6439 219.96C94.0439 220.28 94.4972 220.44 95.0039 220.44ZM95.0039 216.92C94.6306 216.92 94.3039 216.793 94.0239 216.54C93.7572 216.287 93.6239 215.94 93.6239 215.5C93.6239 215.06 93.7572 214.713 94.0239 214.46C94.3039 214.207 94.6306 214.08 95.0039 214.08C95.3906 214.08 95.7172 214.207 95.9839 214.46C96.2506 214.713 96.3839 215.06 96.3839 215.5C96.3839 215.94 96.2506 216.287 95.9839 216.54C95.7172 216.793 95.3906 216.92 95.0039 216.92Z" fill="#232A3D"/>
<path d="M156.812 220V209.536H163.132V211.104H158.668V214.064H162.476V215.632H158.668V220H156.812ZM166.135 220.192C165.452 220.192 164.892 219.979 164.455 219.552C164.028 219.125 163.815 218.571 163.815 217.888C163.815 217.045 164.183 216.395 164.919 215.936C165.655 215.467 166.828 215.147 168.439 214.976C168.428 214.56 168.316 214.203 168.103 213.904C167.9 213.595 167.532 213.44 166.999 213.44C166.615 213.44 166.236 213.515 165.863 213.664C165.5 213.813 165.143 213.995 164.791 214.208L164.118 212.976C164.556 212.699 165.047 212.459 165.591 212.256C166.145 212.053 166.732 211.952 167.351 211.952C168.332 211.952 169.063 212.245 169.543 212.832C170.033 213.408 170.279 214.245 170.279 215.344V220H168.759L168.631 219.136H168.567C168.215 219.435 167.836 219.685 167.431 219.888C167.036 220.091 166.604 220.192 166.135 220.192ZM166.727 218.752C167.047 218.752 167.335 218.677 167.591 218.528C167.857 218.368 168.14 218.155 168.439 217.888V216.128C167.372 216.267 166.631 216.475 166.215 216.752C165.799 217.019 165.591 217.349 165.591 217.744C165.591 218.096 165.697 218.352 165.911 218.512C166.124 218.672 166.396 218.752 166.727 218.752ZM174.273 220.192C173.622 220.192 173.158 219.995 172.881 219.6C172.614 219.205 172.481 218.667 172.481 217.984V208.704H174.321V218.08C174.321 218.304 174.363 218.464 174.449 218.56C174.534 218.645 174.625 218.688 174.721 218.688C174.763 218.688 174.801 218.688 174.833 218.688C174.875 218.677 174.934 218.667 175.009 218.656L175.249 220.032C175.142 220.075 175.003 220.112 174.833 220.144C174.673 220.176 174.486 220.192 174.273 220.192ZM179.016 220.192C178.483 220.192 177.95 220.091 177.416 219.888C176.883 219.675 176.424 219.413 176.04 219.104L176.904 217.92C177.256 218.187 177.608 218.4 177.96 218.56C178.312 218.72 178.686 218.8 179.08 218.8C179.507 218.8 179.822 218.709 180.024 218.528C180.227 218.347 180.328 218.123 180.328 217.856C180.328 217.632 180.243 217.451 180.072 217.312C179.912 217.163 179.704 217.035 179.448 216.928C179.192 216.811 178.926 216.699 178.648 216.592C178.307 216.464 177.966 216.309 177.624 216.128C177.294 215.936 177.022 215.696 176.808 215.408C176.595 215.109 176.488 214.741 176.488 214.304C176.488 213.611 176.744 213.045 177.256 212.608C177.768 212.171 178.462 211.952 179.336 211.952C179.891 211.952 180.387 212.048 180.824 212.24C181.262 212.432 181.64 212.651 181.96 212.896L181.112 214.016C180.835 213.813 180.552 213.653 180.264 213.536C179.987 213.408 179.694 213.344 179.384 213.344C178.99 213.344 178.696 213.429 178.504 213.6C178.312 213.76 178.216 213.963 178.216 214.208C178.216 214.517 178.376 214.752 178.696 214.912C179.016 215.072 179.39 215.227 179.816 215.376C180.179 215.504 180.531 215.664 180.872 215.856C181.214 216.037 181.496 216.277 181.72 216.576C181.955 216.875 182.072 217.269 182.072 217.76C182.072 218.432 181.811 219.008 181.288 219.488C180.766 219.957 180.008 220.192 179.016 220.192ZM187.075 220.192C186.35 220.192 185.694 220.032 185.107 219.712C184.52 219.381 184.056 218.912 183.715 218.304C183.374 217.685 183.203 216.944 183.203 216.08C183.203 215.227 183.374 214.491 183.715 213.872C184.067 213.253 184.52 212.779 185.075 212.448C185.63 212.117 186.211 211.952 186.819 211.952C187.534 211.952 188.131 212.112 188.611 212.432C189.091 212.741 189.454 213.179 189.699 213.744C189.944 214.299 190.067 214.944 190.067 215.68C190.067 216.064 190.04 216.363 189.987 216.576H184.995C185.08 217.269 185.331 217.808 185.747 218.192C186.163 218.576 186.686 218.768 187.315 218.768C187.656 218.768 187.971 218.72 188.259 218.624C188.558 218.517 188.851 218.373 189.139 218.192L189.763 219.344C189.39 219.589 188.974 219.792 188.515 219.952C188.056 220.112 187.576 220.192 187.075 220.192ZM184.979 215.328H188.467C188.467 214.72 188.334 214.245 188.067 213.904C187.8 213.552 187.4 213.376 186.867 213.376C186.408 213.376 185.998 213.547 185.635 213.888C185.283 214.219 185.064 214.699 184.979 215.328ZM195.187 220V209.536H198.483C199.262 209.536 199.955 209.637 200.563 209.84C201.171 210.043 201.651 210.379 202.003 210.848C202.355 211.317 202.531 211.957 202.531 212.768C202.531 213.536 202.355 214.171 202.003 214.672C201.651 215.173 201.177 215.547 200.579 215.792C199.982 216.037 199.305 216.16 198.547 216.16H197.043V220H195.187ZM197.043 214.672H198.403C199.939 214.672 200.707 214.037 200.707 212.768C200.707 212.107 200.505 211.653 200.099 211.408C199.705 211.152 199.118 211.024 198.339 211.024H197.043V214.672ZM207.197 220.192C206.546 220.192 205.938 220.032 205.373 219.712C204.807 219.381 204.349 218.912 203.997 218.304C203.645 217.685 203.469 216.944 203.469 216.08C203.469 215.205 203.645 214.464 203.997 213.856C204.349 213.237 204.807 212.768 205.373 212.448C205.938 212.117 206.546 211.952 207.197 211.952C207.858 211.952 208.471 212.117 209.037 212.448C209.602 212.768 210.061 213.237 210.413 213.856C210.765 214.464 210.941 215.205 210.941 216.08C210.941 216.944 210.765 217.685 210.413 218.304C210.061 218.912 209.602 219.381 209.037 219.712C208.471 220.032 207.858 220.192 207.197 220.192ZM207.197 218.688C207.773 218.688 208.226 218.448 208.557 217.968C208.887 217.488 209.053 216.859 209.053 216.08C209.053 215.291 208.887 214.656 208.557 214.176C208.226 213.696 207.773 213.456 207.197 213.456C206.621 213.456 206.167 213.696 205.837 214.176C205.517 214.656 205.357 215.291 205.357 216.08C205.357 216.859 205.517 217.488 205.837 217.968C206.167 218.448 206.621 218.688 207.197 218.688ZM214.891 220.192C214.358 220.192 213.825 220.091 213.291 219.888C212.758 219.675 212.299 219.413 211.915 219.104L212.779 217.92C213.131 218.187 213.483 218.4 213.835 218.56C214.187 218.72 214.561 218.8 214.955 218.8C215.382 218.8 215.697 218.709 215.899 218.528C216.102 218.347 216.203 218.123 216.203 217.856C216.203 217.632 216.118 217.451 215.947 217.312C215.787 217.163 215.579 217.035 215.323 216.928C215.067 216.811 214.801 216.699 214.523 216.592C214.182 216.464 213.841 216.309 213.499 216.128C213.169 215.936 212.897 215.696 212.683 215.408C212.47 215.109 212.363 214.741 212.363 214.304C212.363 213.611 212.619 213.045 213.131 212.608C213.643 212.171 214.337 211.952 215.211 211.952C215.766 211.952 216.262 212.048 216.699 212.24C217.137 212.432 217.515 212.651 217.835 212.896L216.987 214.016C216.71 213.813 216.427 213.653 216.139 213.536C215.862 213.408 215.569 213.344 215.259 213.344C214.865 213.344 214.571 213.429 214.379 213.6C214.187 213.76 214.091 213.963 214.091 214.208C214.091 214.517 214.251 214.752 214.571 214.912C214.891 215.072 215.265 215.227 215.691 215.376C216.054 215.504 216.406 215.664 216.747 215.856C217.089 216.037 217.371 216.277 217.595 216.576C217.83 216.875 217.947 217.269 217.947 217.76C217.947 218.432 217.686 219.008 217.163 219.488C216.641 219.957 215.883 220.192 214.891 220.192ZM219.59 220V212.144H221.43V220H219.59ZM220.518 210.768C220.187 210.768 219.921 210.672 219.718 210.48C219.515 210.288 219.414 210.032 219.414 209.712C219.414 209.403 219.515 209.152 219.718 208.96C219.921 208.768 220.187 208.672 220.518 208.672C220.849 208.672 221.115 208.768 221.318 208.96C221.521 209.152 221.622 209.403 221.622 209.712C221.622 210.032 221.521 210.288 221.318 210.48C221.115 210.672 220.849 210.768 220.518 210.768ZM226.545 220.192C225.639 220.192 224.993 219.931 224.609 219.408C224.236 218.875 224.049 218.187 224.049 217.344V213.6H222.929V212.224L224.145 212.144L224.369 210H225.905V212.144H227.905V213.6H225.905V217.344C225.905 218.261 226.273 218.72 227.009 218.72C227.148 218.72 227.292 218.704 227.441 218.672C227.591 218.629 227.719 218.587 227.825 218.544L228.145 219.904C227.932 219.979 227.687 220.043 227.409 220.096C227.143 220.16 226.855 220.192 226.545 220.192ZM229.559 220V212.144H231.399V220H229.559ZM230.487 210.768C230.156 210.768 229.889 210.672 229.687 210.48C229.484 210.288 229.383 210.032 229.383 209.712C229.383 209.403 229.484 209.152 229.687 208.96C229.889 208.768 230.156 208.672 230.487 208.672C230.817 208.672 231.084 208.768 231.287 208.96C231.489 209.152 231.591 209.403 231.591 209.712C231.591 210.032 231.489 210.288 231.287 210.48C231.084 210.672 230.817 210.768 230.487 210.768ZM235.506 220L232.77 212.144H234.642L235.89 216.224C235.997 216.608 236.103 216.997 236.21 217.392C236.327 217.787 236.439 218.187 236.546 218.592H236.61C236.727 218.187 236.839 217.787 236.946 217.392C237.063 216.997 237.175 216.608 237.282 216.224L238.53 212.144H240.306L237.634 220H235.506ZM244.934 220.192C244.209 220.192 243.553 220.032 242.966 219.712C242.38 219.381 241.916 218.912 241.574 218.304C241.233 217.685 241.062 216.944 241.062 216.08C241.062 215.227 241.233 214.491 241.574 213.872C241.926 213.253 242.38 212.779 242.934 212.448C243.489 212.117 244.07 211.952 244.678 211.952C245.393 211.952 245.99 212.112 246.47 212.432C246.95 212.741 247.313 213.179 247.558 213.744C247.804 214.299 247.926 214.944 247.926 215.68C247.926 216.064 247.9 216.363 247.846 216.576H242.854C242.94 217.269 243.19 217.808 243.606 218.192C244.022 218.576 244.545 218.768 245.174 218.768C245.516 218.768 245.83 218.72 246.118 218.624C246.417 218.517 246.71 218.373 246.998 218.192L247.622 219.344C247.249 219.589 246.833 219.792 246.374 219.952C245.916 220.112 245.436 220.192 244.934 220.192ZM242.838 215.328H246.326C246.326 214.72 246.193 214.245 245.926 213.904C245.66 213.552 245.26 213.376 244.726 213.376C244.268 213.376 243.857 213.547 243.494 213.888C243.142 214.219 242.924 214.699 242.838 215.328Z" fill="#232A3D"/>
<path d="M334.445 150V139.536H340.765V141.104H336.301V144.064H340.109V145.632H336.301V150H334.445ZM343.767 150.192C343.085 150.192 342.525 149.979 342.087 149.552C341.661 149.125 341.447 148.571 341.447 147.888C341.447 147.045 341.815 146.395 342.551 145.936C343.287 145.467 344.461 145.147 346.071 144.976C346.061 144.56 345.949 144.203 345.735 143.904C345.533 143.595 345.165 143.44 344.631 143.44C344.247 143.44 343.869 143.515 343.495 143.664C343.133 143.813 342.775 143.995 342.423 144.208L341.751 142.976C342.189 142.699 342.679 142.459 343.223 142.256C343.778 142.053 344.365 141.952 344.983 141.952C345.965 141.952 346.695 142.245 347.175 142.832C347.666 143.408 347.911 144.245 347.911 145.344V150H346.391L346.263 149.136H346.199C345.847 149.435 345.469 149.685 345.063 149.888C344.669 150.091 344.237 150.192 343.767 150.192ZM344.359 148.752C344.679 148.752 344.967 148.677 345.223 148.528C345.49 148.368 345.773 148.155 346.071 147.888V146.128C345.005 146.267 344.263 146.475 343.847 146.752C343.431 147.019 343.223 147.349 343.223 147.744C343.223 148.096 343.33 148.352 343.543 148.512C343.757 148.672 344.029 148.752 344.359 148.752ZM351.905 150.192C351.255 150.192 350.791 149.995 350.513 149.6C350.247 149.205 350.113 148.667 350.113 147.984V138.704H351.953V148.08C351.953 148.304 351.996 148.464 352.081 148.56C352.167 148.645 352.257 148.688 352.353 148.688C352.396 148.688 352.433 148.688 352.465 148.688C352.508 148.677 352.567 148.667 352.641 148.656L352.881 150.032C352.775 150.075 352.636 150.112 352.465 150.144C352.305 150.176 352.119 150.192 351.905 150.192ZM356.649 150.192C356.116 150.192 355.582 150.091 355.049 149.888C354.516 149.675 354.057 149.413 353.673 149.104L354.537 147.92C354.889 148.187 355.241 148.4 355.593 148.56C355.945 148.72 356.318 148.8 356.713 148.8C357.14 148.8 357.454 148.709 357.657 148.528C357.86 148.347 357.961 148.123 357.961 147.856C357.961 147.632 357.876 147.451 357.705 147.312C357.545 147.163 357.337 147.035 357.081 146.928C356.825 146.811 356.558 146.699 356.281 146.592C355.94 146.464 355.598 146.309 355.257 146.128C354.926 145.936 354.654 145.696 354.441 145.408C354.228 145.109 354.121 144.741 354.121 144.304C354.121 143.611 354.377 143.045 354.889 142.608C355.401 142.171 356.094 141.952 356.969 141.952C357.524 141.952 358.02 142.048 358.457 142.24C358.894 142.432 359.273 142.651 359.593 142.896L358.745 144.016C358.468 143.813 358.185 143.653 357.897 143.536C357.62 143.408 357.326 143.344 357.017 143.344C356.622 143.344 356.329 143.429 356.137 143.6C355.945 143.76 355.849 143.963 355.849 144.208C355.849 144.517 356.009 144.752 356.329 144.912C356.649 145.072 357.022 145.227 357.449 145.376C357.812 145.504 358.164 145.664 358.505 145.856C358.846 146.037 359.129 146.277 359.353 146.576C359.588 146.875 359.705 147.269 359.705 147.76C359.705 148.432 359.444 149.008 358.921 149.488C358.398 149.957 357.641 150.192 356.649 150.192ZM364.708 150.192C363.982 150.192 363.326 150.032 362.74 149.712C362.153 149.381 361.689 148.912 361.348 148.304C361.006 147.685 360.836 146.944 360.836 146.08C360.836 145.227 361.006 144.491 361.348 143.872C361.7 143.253 362.153 142.779 362.708 142.448C363.262 142.117 363.844 141.952 364.452 141.952C365.166 141.952 365.764 142.112 366.244 142.432C366.724 142.741 367.086 143.179 367.332 143.744C367.577 144.299 367.7 144.944 367.7 145.68C367.7 146.064 367.673 146.363 367.62 146.576H362.628C362.713 147.269 362.964 147.808 363.38 148.192C363.796 148.576 364.318 148.768 364.948 148.768C365.289 148.768 365.604 148.72 365.892 148.624C366.19 148.517 366.484 148.373 366.772 148.192L367.396 149.344C367.022 149.589 366.606 149.792 366.148 149.952C365.689 150.112 365.209 150.192 364.708 150.192ZM362.612 145.328H366.1C366.1 144.72 365.966 144.245 365.7 143.904C365.433 143.552 365.033 143.376 364.5 143.376C364.041 143.376 363.63 143.547 363.268 143.888C362.916 144.219 362.697 144.699 362.612 145.328ZM372.82 150V139.536H374.724L377.988 145.424L379.06 147.648H379.124C379.082 147.115 379.028 146.533 378.964 145.904C378.911 145.275 378.884 144.667 378.884 144.08V139.536H380.66V150H378.756L375.492 144.112L374.42 141.888H374.356C374.399 142.443 374.447 143.024 374.5 143.632C374.564 144.24 374.596 144.837 374.596 145.424V150H372.82ZM386.52 150.192C385.795 150.192 385.139 150.032 384.552 149.712C383.966 149.381 383.502 148.912 383.16 148.304C382.819 147.685 382.648 146.944 382.648 146.08C382.648 145.227 382.819 144.491 383.16 143.872C383.512 143.253 383.966 142.779 384.52 142.448C385.075 142.117 385.656 141.952 386.264 141.952C386.979 141.952 387.576 142.112 388.056 142.432C388.536 142.741 388.899 143.179 389.144 143.744C389.39 144.299 389.512 144.944 389.512 145.68C389.512 146.064 389.486 146.363 389.432 146.576H384.44C384.526 147.269 384.776 147.808 385.192 148.192C385.608 148.576 386.131 148.768 386.76 148.768C387.102 148.768 387.416 148.72 387.704 148.624C388.003 148.517 388.296 148.373 388.584 148.192L389.208 149.344C388.835 149.589 388.419 149.792 387.96 149.952C387.502 150.112 387.022 150.192 386.52 150.192ZM384.424 145.328H387.912C387.912 144.72 387.779 144.245 387.512 143.904C387.246 143.552 386.846 143.376 386.312 143.376C385.854 143.376 385.443 143.547 385.08 143.888C384.728 144.219 384.51 144.699 384.424 145.328ZM393.849 153.472C393.231 153.472 392.671 153.397 392.169 153.248C391.679 153.099 391.289 152.869 391.001 152.56C390.724 152.261 390.585 151.883 390.585 151.424C390.585 150.773 390.959 150.213 391.705 149.744V149.68C391.503 149.552 391.332 149.381 391.193 149.168C391.065 148.955 391.001 148.688 391.001 148.368C391.001 148.059 391.087 147.781 391.257 147.536C391.439 147.28 391.641 147.072 391.865 146.912V146.848C391.599 146.645 391.359 146.363 391.145 146C390.943 145.637 390.841 145.227 390.841 144.768C390.841 144.16 390.985 143.648 391.273 143.232C391.561 142.816 391.94 142.501 392.409 142.288C392.889 142.064 393.401 141.952 393.945 141.952C394.159 141.952 394.361 141.973 394.553 142.016C394.756 142.048 394.937 142.091 395.097 142.144H397.913V143.504H396.473C396.601 143.653 396.708 143.845 396.793 144.08C396.879 144.304 396.921 144.555 396.921 144.832C396.921 145.408 396.788 145.899 396.521 146.304C396.255 146.699 395.897 146.997 395.449 147.2C395.001 147.403 394.5 147.504 393.945 147.504C393.775 147.504 393.599 147.488 393.417 147.456C393.236 147.424 393.055 147.371 392.873 147.296C392.756 147.403 392.66 147.509 392.585 147.616C392.521 147.723 392.489 147.867 392.489 148.048C392.489 148.272 392.58 148.448 392.761 148.576C392.953 148.704 393.289 148.768 393.769 148.768H395.161C396.111 148.768 396.825 148.923 397.305 149.232C397.796 149.531 398.041 150.021 398.041 150.704C398.041 151.216 397.871 151.68 397.529 152.096C397.188 152.523 396.703 152.859 396.073 153.104C395.444 153.349 394.703 153.472 393.849 153.472ZM393.945 146.352C394.319 146.352 394.639 146.213 394.905 145.936C395.172 145.659 395.305 145.269 395.305 144.768C395.305 144.277 395.172 143.899 394.905 143.632C394.649 143.355 394.329 143.216 393.945 143.216C393.561 143.216 393.236 143.349 392.969 143.616C392.703 143.883 392.569 144.267 392.569 144.768C392.569 145.269 392.703 145.659 392.969 145.936C393.236 146.213 393.561 146.352 393.945 146.352ZM394.137 152.272C394.767 152.272 395.279 152.144 395.673 151.888C396.068 151.632 396.265 151.339 396.265 151.008C396.265 150.699 396.143 150.491 395.897 150.384C395.663 150.277 395.321 150.224 394.873 150.224H393.801C393.375 150.224 393.017 150.187 392.729 150.112C392.324 150.421 392.121 150.768 392.121 151.152C392.121 151.504 392.303 151.776 392.665 151.968C393.028 152.171 393.519 152.272 394.137 152.272ZM401.049 150.192C400.366 150.192 399.806 149.979 399.369 149.552C398.942 149.125 398.729 148.571 398.729 147.888C398.729 147.045 399.097 146.395 399.833 145.936C400.569 145.467 401.742 145.147 403.353 144.976C403.342 144.56 403.23 144.203 403.017 143.904C402.814 143.595 402.446 143.44 401.913 143.44C401.529 143.44 401.15 143.515 400.777 143.664C400.414 143.813 400.057 143.995 399.705 144.208L399.033 142.976C399.47 142.699 399.961 142.459 400.505 142.256C401.059 142.053 401.646 141.952 402.265 141.952C403.246 141.952 403.977 142.245 404.457 142.832C404.947 143.408 405.193 144.245 405.193 145.344V150H403.673L403.545 149.136H403.481C403.129 149.435 402.75 149.685 402.345 149.888C401.95 150.091 401.518 150.192 401.049 150.192ZM401.641 148.752C401.961 148.752 402.249 148.677 402.505 148.528C402.771 148.368 403.054 148.155 403.353 147.888V146.128C402.286 146.267 401.545 146.475 401.129 146.752C400.713 147.019 400.505 147.349 400.505 147.744C400.505 148.096 400.611 148.352 400.825 148.512C401.038 148.672 401.31 148.752 401.641 148.752ZM409.913 150.192C409.006 150.192 408.361 149.931 407.977 149.408C407.603 148.875 407.417 148.187 407.417 147.344V143.6H406.297V142.224L407.513 142.144L407.737 140H409.273V142.144H411.273V143.6H409.273V147.344C409.273 148.261 409.641 148.72 410.377 148.72C410.515 148.72 410.659 148.704 410.809 148.672C410.958 148.629 411.086 148.587 411.193 148.544L411.513 149.904C411.299 149.979 411.054 150.043 410.777 150.096C410.51 150.16 410.222 150.192 409.913 150.192ZM412.926 150V142.144H414.766V150H412.926ZM413.854 140.768C413.523 140.768 413.256 140.672 413.054 140.48C412.851 140.288 412.75 140.032 412.75 139.712C412.75 139.403 412.851 139.152 413.054 138.96C413.256 138.768 413.523 138.672 413.854 138.672C414.184 138.672 414.451 138.768 414.654 138.96C414.856 139.152 414.958 139.403 414.958 139.712C414.958 140.032 414.856 140.288 414.654 140.48C414.451 140.672 414.184 140.768 413.854 140.768ZM418.873 150L416.137 142.144H418.009L419.257 146.224C419.364 146.608 419.471 146.997 419.577 147.392C419.695 147.787 419.807 148.187 419.913 148.592H419.977C420.095 148.187 420.207 147.787 420.313 147.392C420.431 146.997 420.543 146.608 420.649 146.224L421.897 142.144H423.673L421.001 150H418.873ZM428.301 150.192C427.576 150.192 426.92 150.032 426.333 149.712C425.747 149.381 425.283 148.912 424.941 148.304C424.6 147.685 424.429 146.944 424.429 146.08C424.429 145.227 424.6 144.491 424.941 143.872C425.293 143.253 425.747 142.779 426.301 142.448C426.856 142.117 427.437 141.952 428.045 141.952C428.76 141.952 429.357 142.112 429.837 142.432C430.317 142.741 430.68 143.179 430.925 143.744C431.171 144.299 431.293 144.944 431.293 145.68C431.293 146.064 431.267 146.363 431.213 146.576H426.221C426.307 147.269 426.557 147.808 426.973 148.192C427.389 148.576 427.912 148.768 428.541 148.768C428.883 148.768 429.197 148.72 429.485 148.624C429.784 148.517 430.077 148.373 430.365 148.192L430.989 149.344C430.616 149.589 430.2 149.792 429.741 149.952C429.283 150.112 428.803 150.192 428.301 150.192ZM426.205 145.328H429.693C429.693 144.72 429.56 144.245 429.293 143.904C429.027 143.552 428.627 143.376 428.093 143.376C427.635 143.376 427.224 143.547 426.861 143.888C426.509 144.219 426.291 144.699 426.205 145.328Z" fill="#232A3D"/>
<path d="M338.643 220V211.104H335.619V209.536H343.523V211.104H340.499V220H338.643ZM344.402 220V212.144H345.922L346.05 213.536H346.114C346.392 213.024 346.728 212.635 347.122 212.368C347.517 212.091 347.922 211.952 348.338 211.952C348.712 211.952 349.01 212.005 349.234 212.112L348.914 213.712C348.776 213.669 348.648 213.637 348.53 213.616C348.413 213.595 348.269 213.584 348.098 213.584C347.789 213.584 347.464 213.707 347.122 213.952C346.781 214.187 346.488 214.603 346.242 215.2V220H344.402ZM352.707 220.192C351.864 220.192 351.251 219.92 350.867 219.376C350.483 218.832 350.291 218.064 350.291 217.072V212.144H352.131V216.832C352.131 217.483 352.227 217.941 352.419 218.208C352.611 218.475 352.92 218.608 353.347 218.608C353.688 218.608 353.987 218.523 354.243 218.352C354.51 218.181 354.792 217.904 355.091 217.52V212.144H356.931V220H355.427L355.283 218.848H355.235C354.894 219.253 354.52 219.579 354.115 219.824C353.71 220.069 353.24 220.192 352.707 220.192ZM362.622 220.192C361.896 220.192 361.24 220.032 360.654 219.712C360.067 219.381 359.603 218.912 359.262 218.304C358.92 217.685 358.75 216.944 358.75 216.08C358.75 215.227 358.92 214.491 359.262 213.872C359.614 213.253 360.067 212.779 360.622 212.448C361.176 212.117 361.758 211.952 362.366 211.952C363.08 211.952 363.678 212.112 364.158 212.432C364.638 212.741 365 213.179 365.246 213.744C365.491 214.299 365.614 214.944 365.614 215.68C365.614 216.064 365.587 216.363 365.534 216.576H360.542C360.627 217.269 360.878 217.808 361.294 218.192C361.71 218.576 362.232 218.768 362.862 218.768C363.203 218.768 363.518 218.72 363.806 218.624C364.104 218.517 364.398 218.373 364.686 218.192L365.31 219.344C364.936 219.589 364.52 219.792 364.062 219.952C363.603 220.112 363.123 220.192 362.622 220.192ZM360.526 215.328H364.014C364.014 214.72 363.88 214.245 363.614 213.904C363.347 213.552 362.947 213.376 362.414 213.376C361.955 213.376 361.544 213.547 361.182 213.888C360.83 214.219 360.611 214.699 360.526 215.328ZM370.734 220V209.536H372.638L375.902 215.424L376.974 217.648H377.038C376.996 217.115 376.942 216.533 376.878 215.904C376.825 215.275 376.798 214.667 376.798 214.08V209.536H378.574V220H376.67L373.406 214.112L372.334 211.888H372.27C372.313 212.443 372.361 213.024 372.414 213.632C372.478 214.24 372.51 214.837 372.51 215.424V220H370.734ZM384.434 220.192C383.709 220.192 383.053 220.032 382.466 219.712C381.88 219.381 381.416 218.912 381.074 218.304C380.733 217.685 380.562 216.944 380.562 216.08C380.562 215.227 380.733 214.491 381.074 213.872C381.426 213.253 381.88 212.779 382.434 212.448C382.989 212.117 383.57 211.952 384.178 211.952C384.893 211.952 385.49 212.112 385.97 212.432C386.45 212.741 386.813 213.179 387.058 213.744C387.304 214.299 387.426 214.944 387.426 215.68C387.426 216.064 387.4 216.363 387.346 216.576H382.354C382.44 217.269 382.69 217.808 383.106 218.192C383.522 218.576 384.045 218.768 384.674 218.768C385.016 218.768 385.33 218.72 385.618 218.624C385.917 218.517 386.21 218.373 386.498 218.192L387.122 219.344C386.749 219.589 386.333 219.792 385.874 219.952C385.416 220.112 384.936 220.192 384.434 220.192ZM382.338 215.328H385.826C385.826 214.72 385.693 214.245 385.426 213.904C385.16 213.552 384.76 213.376 384.226 213.376C383.768 213.376 383.357 213.547 382.994 213.888C382.642 214.219 382.424 214.699 382.338 215.328ZM391.763 223.472C391.145 223.472 390.585 223.397 390.083 223.248C389.593 223.099 389.203 222.869 388.915 222.56C388.638 222.261 388.499 221.883 388.499 221.424C388.499 220.773 388.873 220.213 389.619 219.744V219.68C389.417 219.552 389.246 219.381 389.107 219.168C388.979 218.955 388.915 218.688 388.915 218.368C388.915 218.059 389.001 217.781 389.171 217.536C389.353 217.28 389.555 217.072 389.779 216.912V216.848C389.513 216.645 389.273 216.363 389.059 216C388.857 215.637 388.755 215.227 388.755 214.768C388.755 214.16 388.899 213.648 389.187 213.232C389.475 212.816 389.854 212.501 390.323 212.288C390.803 212.064 391.315 211.952 391.859 211.952C392.073 211.952 392.275 211.973 392.467 212.016C392.67 212.048 392.851 212.091 393.011 212.144H395.827V213.504H394.387C394.515 213.653 394.622 213.845 394.707 214.08C394.793 214.304 394.835 214.555 394.835 214.832C394.835 215.408 394.702 215.899 394.435 216.304C394.169 216.699 393.811 216.997 393.363 217.2C392.915 217.403 392.414 217.504 391.859 217.504C391.689 217.504 391.513 217.488 391.331 217.456C391.15 217.424 390.969 217.371 390.787 217.296C390.67 217.403 390.574 217.509 390.499 217.616C390.435 217.723 390.403 217.867 390.403 218.048C390.403 218.272 390.494 218.448 390.675 218.576C390.867 218.704 391.203 218.768 391.683 218.768H393.075C394.025 218.768 394.739 218.923 395.219 219.232C395.71 219.531 395.955 220.021 395.955 220.704C395.955 221.216 395.785 221.68 395.443 222.096C395.102 222.523 394.617 222.859 393.987 223.104C393.358 223.349 392.617 223.472 391.763 223.472ZM391.859 216.352C392.233 216.352 392.553 216.213 392.819 215.936C393.086 215.659 393.219 215.269 393.219 214.768C393.219 214.277 393.086 213.899 392.819 213.632C392.563 213.355 392.243 213.216 391.859 213.216C391.475 213.216 391.15 213.349 390.883 213.616C390.617 213.883 390.483 214.267 390.483 214.768C390.483 215.269 390.617 215.659 390.883 215.936C391.15 216.213 391.475 216.352 391.859 216.352ZM392.051 222.272C392.681 222.272 393.193 222.144 393.587 221.888C393.982 221.632 394.179 221.339 394.179 221.008C394.179 220.699 394.057 220.491 393.811 220.384C393.577 220.277 393.235 220.224 392.787 220.224H391.715C391.289 220.224 390.931 220.187 390.643 220.112C390.238 220.421 390.035 220.768 390.035 221.152C390.035 221.504 390.217 221.776 390.579 221.968C390.942 222.171 391.433 222.272 392.051 222.272ZM398.963 220.192C398.28 220.192 397.72 219.979 397.283 219.552C396.856 219.125 396.643 218.571 396.643 217.888C396.643 217.045 397.011 216.395 397.747 215.936C398.483 215.467 399.656 215.147 401.267 214.976C401.256 214.56 401.144 214.203 400.931 213.904C400.728 213.595 400.36 213.44 399.827 213.44C399.443 213.44 399.064 213.515 398.691 213.664C398.328 213.813 397.971 213.995 397.619 214.208L396.947 212.976C397.384 212.699 397.875 212.459 398.419 212.256C398.973 212.053 399.56 211.952 400.179 211.952C401.16 211.952 401.891 212.245 402.371 212.832C402.861 213.408 403.107 214.245 403.107 215.344V220H401.587L401.459 219.136H401.395C401.043 219.435 400.664 219.685 400.259 219.888C399.864 220.091 399.432 220.192 398.963 220.192ZM399.555 218.752C399.875 218.752 400.163 218.677 400.419 218.528C400.685 218.368 400.968 218.155 401.267 217.888V216.128C400.2 216.267 399.459 216.475 399.043 216.752C398.627 217.019 398.419 217.349 398.419 217.744C398.419 218.096 398.525 218.352 398.739 218.512C398.952 218.672 399.224 218.752 399.555 218.752ZM407.827 220.192C406.92 220.192 406.275 219.931 405.891 219.408C405.517 218.875 405.331 218.187 405.331 217.344V213.6H404.211V212.224L405.427 212.144L405.651 210H407.187V212.144H409.187V213.6H407.187V217.344C407.187 218.261 407.555 218.72 408.291 218.72C408.429 218.72 408.573 218.704 408.723 218.672C408.872 218.629 409 218.587 409.107 218.544L409.427 219.904C409.213 219.979 408.968 220.043 408.691 220.096C408.424 220.16 408.136 220.192 407.827 220.192ZM410.84 220V212.144H412.68V220H410.84ZM411.768 210.768C411.437 210.768 411.171 210.672 410.968 210.48C410.765 210.288 410.664 210.032 410.664 209.712C410.664 209.403 410.765 209.152 410.968 208.96C411.171 208.768 411.437 208.672 411.768 208.672C412.099 208.672 412.365 208.768 412.568 208.96C412.771 209.152 412.872 209.403 412.872 209.712C412.872 210.032 412.771 210.288 412.568 210.48C412.365 210.672 412.099 210.768 411.768 210.768ZM416.787 220L414.051 212.144H415.923L417.171 216.224C417.278 216.608 417.385 216.997 417.491 217.392C417.609 217.787 417.721 218.187 417.827 218.592H417.891C418.009 218.187 418.121 217.787 418.227 217.392C418.345 216.997 418.457 216.608 418.563 216.224L419.811 212.144H421.587L418.915 220H416.787ZM426.216 220.192C425.49 220.192 424.834 220.032 424.248 219.712C423.661 219.381 423.197 218.912 422.856 218.304C422.514 217.685 422.344 216.944 422.344 216.08C422.344 215.227 422.514 214.491 422.856 213.872C423.208 213.253 423.661 212.779 424.216 212.448C424.77 212.117 425.352 211.952 425.96 211.952C426.674 211.952 427.272 212.112 427.752 212.432C428.232 212.741 428.594 213.179 428.84 213.744C429.085 214.299 429.208 214.944 429.208 215.68C429.208 216.064 429.181 216.363 429.128 216.576H424.136C424.221 217.269 424.472 217.808 424.888 218.192C425.304 218.576 425.826 218.768 426.456 218.768C426.797 218.768 427.112 218.72 427.4 218.624C427.698 218.517 427.992 218.373 428.28 218.192L428.904 219.344C428.53 219.589 428.114 219.792 427.656 219.952C427.197 220.112 426.717 220.192 426.216 220.192ZM424.12 215.328H427.608C427.608 214.72 427.474 214.245 427.208 213.904C426.941 213.552 426.541 213.376 426.008 213.376C425.549 213.376 425.138 213.547 424.776 213.888C424.424 214.219 424.205 214.699 424.12 215.328Z" fill="#232A3D"/>
<path d="M223.783 40V26.92H227.903C228.876 26.92 229.743 27.0467 230.503 27.3C231.263 27.5533 231.863 27.9733 232.303 28.56C232.743 29.1467 232.963 29.9467 232.963 30.96C232.963 31.92 232.743 32.7133 232.303 33.34C231.863 33.9667 231.27 34.4333 230.523 34.74C229.776 35.0467 228.93 35.2 227.983 35.2H226.103V40H223.783ZM226.103 33.34H227.803C229.723 33.34 230.683 32.5467 230.683 30.96C230.683 30.1333 230.43 29.5667 229.923 29.26C229.43 28.94 228.696 28.78 227.723 28.78H226.103V33.34ZM235.224 40V30.18H237.124L237.284 31.92H237.364C237.71 31.28 238.13 30.7933 238.624 30.46C239.117 30.1133 239.624 29.94 240.144 29.94C240.61 29.94 240.984 30.0067 241.264 30.14L240.864 32.14C240.69 32.0867 240.53 32.0467 240.384 32.02C240.237 31.9933 240.057 31.98 239.844 31.98C239.457 31.98 239.05 32.1333 238.624 32.44C238.197 32.7333 237.83 33.2533 237.524 34V40H235.224ZM246.689 40.24C245.783 40.24 244.963 40.04 244.229 39.64C243.496 39.2267 242.916 38.64 242.489 37.88C242.063 37.1067 241.849 36.18 241.849 35.1C241.849 34.0333 242.063 33.1133 242.489 32.34C242.929 31.5667 243.496 30.9733 244.189 30.56C244.883 30.1467 245.609 29.94 246.369 29.94C247.263 29.94 248.009 30.14 248.609 30.54C249.209 30.9267 249.663 31.4733 249.969 32.18C250.276 32.8733 250.429 33.68 250.429 34.6C250.429 35.08 250.396 35.4533 250.329 35.72H244.089C244.196 36.5867 244.509 37.26 245.029 37.74C245.549 38.22 246.203 38.46 246.989 38.46C247.416 38.46 247.809 38.4 248.169 38.28C248.543 38.1467 248.909 37.9667 249.269 37.74L250.049 39.18C249.583 39.4867 249.063 39.74 248.489 39.94C247.916 40.14 247.316 40.24 246.689 40.24ZM244.069 34.16H248.429C248.429 33.4 248.263 32.8067 247.929 32.38C247.596 31.94 247.096 31.72 246.429 31.72C245.856 31.72 245.343 31.9333 244.889 32.36C244.449 32.7733 244.176 33.3733 244.069 34.16ZM256.066 40.24C254.839 40.24 253.859 39.7867 253.126 38.88C252.393 37.9733 252.026 36.7133 252.026 35.1C252.026 34.0333 252.219 33.1133 252.606 32.34C253.006 31.5667 253.526 30.9733 254.166 30.56C254.806 30.1467 255.479 29.94 256.186 29.94C256.746 29.94 257.219 30.04 257.606 30.24C258.006 30.4267 258.393 30.6867 258.766 31.02L258.686 29.44V25.88H260.986V40H259.086L258.926 38.94H258.846C258.486 39.3 258.066 39.6067 257.586 39.86C257.106 40.1133 256.599 40.24 256.066 40.24ZM256.626 38.34C257.359 38.34 258.046 37.9733 258.686 37.24V32.66C258.353 32.3533 258.019 32.14 257.686 32.02C257.353 31.9 257.019 31.84 256.686 31.84C256.059 31.84 255.519 32.1267 255.066 32.7C254.626 33.26 254.406 34.0533 254.406 35.08C254.406 36.1333 254.599 36.94 254.986 37.5C255.373 38.06 255.919 38.34 256.626 38.34ZM263.915 40V30.18H266.215V40H263.915ZM265.075 28.46C264.662 28.46 264.328 28.34 264.075 28.1C263.822 27.86 263.695 27.54 263.695 27.14C263.695 26.7533 263.822 26.44 264.075 26.2C264.328 25.96 264.662 25.84 265.075 25.84C265.488 25.84 265.822 25.96 266.075 26.2C266.328 26.44 266.455 26.7533 266.455 27.14C266.455 27.54 266.328 27.86 266.075 28.1C265.822 28.34 265.488 28.46 265.075 28.46ZM273.249 40.24C272.356 40.24 271.549 40.04 270.829 39.64C270.123 39.2267 269.556 38.64 269.129 37.88C268.716 37.1067 268.509 36.18 268.509 35.1C268.509 34.0067 268.736 33.08 269.189 32.32C269.643 31.5467 270.243 30.96 270.989 30.56C271.749 30.1467 272.563 29.94 273.429 29.94C274.056 29.94 274.603 30.0467 275.069 30.26C275.536 30.4733 275.949 30.7333 276.309 31.04L275.189 32.54C274.936 32.3133 274.676 32.14 274.409 32.02C274.143 31.8867 273.856 31.82 273.549 31.82C272.763 31.82 272.116 32.12 271.609 32.72C271.116 33.32 270.869 34.1133 270.869 35.1C270.869 36.0733 271.109 36.86 271.589 37.46C272.083 38.06 272.716 38.36 273.489 38.36C273.876 38.36 274.236 38.28 274.569 38.12C274.916 37.9467 275.229 37.7467 275.509 37.52L276.449 39.04C275.996 39.44 275.489 39.74 274.929 39.94C274.369 40.14 273.809 40.24 273.249 40.24ZM281.652 40.24C280.519 40.24 279.712 39.9133 279.232 39.26C278.766 38.5933 278.532 37.7333 278.532 36.68V32H277.132V30.28L278.652 30.18L278.932 27.5H280.852V30.18H283.352V32H280.852V36.68C280.852 37.8267 281.312 38.4 282.232 38.4C282.406 38.4 282.586 38.38 282.772 38.34C282.959 38.2867 283.119 38.2333 283.252 38.18L283.652 39.88C283.386 39.9733 283.079 40.0533 282.732 40.12C282.399 40.2 282.039 40.24 281.652 40.24ZM289.306 40.24C288.4 40.24 287.58 40.04 286.846 39.64C286.113 39.2267 285.533 38.64 285.106 37.88C284.68 37.1067 284.466 36.18 284.466 35.1C284.466 34.0333 284.68 33.1133 285.106 32.34C285.546 31.5667 286.113 30.9733 286.806 30.56C287.5 30.1467 288.226 29.94 288.986 29.94C289.88 29.94 290.626 30.14 291.226 30.54C291.826 30.9267 292.28 31.4733 292.586 32.18C292.893 32.8733 293.046 33.68 293.046 34.6C293.046 35.08 293.013 35.4533 292.946 35.72H286.706C286.813 36.5867 287.126 37.26 287.646 37.74C288.166 38.22 288.82 38.46 289.606 38.46C290.033 38.46 290.426 38.4 290.786 38.28C291.16 38.1467 291.526 37.9667 291.886 37.74L292.666 39.18C292.2 39.4867 291.68 39.74 291.106 39.94C290.533 40.14 289.933 40.24 289.306 40.24ZM286.686 34.16H291.046C291.046 33.4 290.88 32.8067 290.546 32.38C290.213 31.94 289.713 31.72 289.046 31.72C288.473 31.72 287.96 31.9333 287.506 32.36C287.066 32.7733 286.793 33.3733 286.686 34.16ZM298.683 40.24C297.457 40.24 296.477 39.7867 295.743 38.88C295.01 37.9733 294.643 36.7133 294.643 35.1C294.643 34.0333 294.837 33.1133 295.223 32.34C295.623 31.5667 296.143 30.9733 296.783 30.56C297.423 30.1467 298.097 29.94 298.803 29.94C299.363 29.94 299.837 30.04 300.223 30.24C300.623 30.4267 301.01 30.6867 301.383 31.02L301.303 29.44V25.88H303.603V40H301.703L301.543 38.94H301.463C301.103 39.3 300.683 39.6067 300.203 39.86C299.723 40.1133 299.217 40.24 298.683 40.24ZM299.243 38.34C299.977 38.34 300.663 37.9733 301.303 37.24V32.66C300.97 32.3533 300.637 32.14 300.303 32.02C299.97 31.9 299.637 31.84 299.303 31.84C298.677 31.84 298.137 32.1267 297.683 32.7C297.243 33.26 297.023 34.0533 297.023 35.08C297.023 36.1333 297.217 36.94 297.603 37.5C297.99 38.06 298.537 38.34 299.243 38.34ZM310.736 40V26.92H313.056V38.04H318.496V40H310.736ZM322.955 40.24C322.102 40.24 321.402 39.9733 320.855 39.44C320.322 38.9067 320.055 38.2133 320.055 37.36C320.055 36.3067 320.515 35.4933 321.435 34.92C322.355 34.3333 323.822 33.9333 325.835 33.72C325.822 33.2 325.682 32.7533 325.415 32.38C325.162 31.9933 324.702 31.8 324.035 31.8C323.555 31.8 323.082 31.8933 322.615 32.08C322.162 32.2667 321.715 32.4933 321.275 32.76L320.435 31.22C320.982 30.8733 321.595 30.5733 322.275 30.32C322.969 30.0667 323.702 29.94 324.475 29.94C325.702 29.94 326.615 30.3067 327.215 31.04C327.829 31.76 328.135 32.8067 328.135 34.18V40H326.235L326.075 38.92H325.995C325.555 39.2933 325.082 39.6067 324.575 39.86C324.082 40.1133 323.542 40.24 322.955 40.24ZM323.695 38.44C324.095 38.44 324.455 38.3467 324.775 38.16C325.109 37.96 325.462 37.6933 325.835 37.36V35.16C324.502 35.3333 323.575 35.5933 323.055 35.94C322.535 36.2733 322.275 36.6867 322.275 37.18C322.275 37.62 322.409 37.94 322.675 38.14C322.942 38.34 323.282 38.44 323.695 38.44ZM335.648 40.24C334.714 40.24 333.821 39.8133 332.968 38.96H332.908L332.708 40H330.888V25.88H333.188V29.52L333.128 31.16C333.541 30.8 333.994 30.5067 334.488 30.28C334.981 30.0533 335.474 29.94 335.968 29.94C337.194 29.94 338.148 30.3933 338.828 31.3C339.508 32.2067 339.848 33.4133 339.848 34.92C339.848 36.04 339.648 37 339.248 37.8C338.848 38.5867 338.328 39.1933 337.688 39.62C337.061 40.0333 336.381 40.24 335.648 40.24ZM335.168 38.34C335.821 38.34 336.368 38.0533 336.808 37.48C337.248 36.9067 337.468 36.0667 337.468 34.96C337.468 33.9733 337.301 33.2067 336.968 32.66C336.634 32.1133 336.094 31.84 335.348 31.84C334.654 31.84 333.934 32.2067 333.188 32.94V37.52C333.534 37.8133 333.874 38.0267 334.208 38.16C334.554 38.28 334.874 38.34 335.168 38.34ZM344.397 40.24C343.584 40.24 343.004 39.9933 342.657 39.5C342.324 39.0067 342.157 38.3333 342.157 37.48V25.88H344.457V37.6C344.457 37.88 344.511 38.08 344.617 38.2C344.724 38.3067 344.837 38.36 344.957 38.36C345.011 38.36 345.057 38.36 345.097 38.36C345.151 38.3467 345.224 38.3333 345.317 38.32L345.617 40.04C345.484 40.0933 345.311 40.14 345.097 40.18C344.897 40.22 344.664 40.24 344.397 40.24ZM351.787 40.24C350.88 40.24 350.06 40.04 349.327 39.64C348.594 39.2267 348.014 38.64 347.587 37.88C347.16 37.1067 346.947 36.18 346.947 35.1C346.947 34.0333 347.16 33.1133 347.587 32.34C348.027 31.5667 348.594 30.9733 349.287 30.56C349.98 30.1467 350.707 29.94 351.467 29.94C352.36 29.94 353.107 30.14 353.707 30.54C354.307 30.9267 354.76 31.4733 355.067 32.18C355.374 32.8733 355.527 33.68 355.527 34.6C355.527 35.08 355.494 35.4533 355.427 35.72H349.187C349.294 36.5867 349.607 37.26 350.127 37.74C350.647 38.22 351.3 38.46 352.087 38.46C352.514 38.46 352.907 38.4 353.267 38.28C353.64 38.1467 354.007 37.9667 354.367 37.74L355.147 39.18C354.68 39.4867 354.16 39.74 353.587 39.94C353.014 40.14 352.414 40.24 351.787 40.24ZM349.167 34.16H353.527C353.527 33.4 353.36 32.8067 353.027 32.38C352.694 31.94 352.194 31.72 351.527 31.72C350.954 31.72 350.44 31.9333 349.987 32.36C349.547 32.7733 349.274 33.3733 349.167 34.16ZM360.464 40.24C359.797 40.24 359.13 40.1133 358.464 39.86C357.797 39.5933 357.224 39.2667 356.744 38.88L357.824 37.4C358.264 37.7333 358.704 38 359.144 38.2C359.584 38.4 360.05 38.5 360.544 38.5C361.077 38.5 361.47 38.3867 361.724 38.16C361.977 37.9333 362.104 37.6533 362.104 37.32C362.104 37.04 361.997 36.8133 361.784 36.64C361.584 36.4533 361.324 36.2933 361.004 36.16C360.684 36.0133 360.35 35.8733 360.004 35.74C359.577 35.58 359.15 35.3867 358.724 35.16C358.31 34.92 357.97 34.62 357.704 34.26C357.437 33.8867 357.304 33.4267 357.304 32.88C357.304 32.0133 357.624 31.3067 358.264 30.76C358.904 30.2133 359.77 29.94 360.864 29.94C361.557 29.94 362.177 30.06 362.724 30.3C363.27 30.54 363.744 30.8133 364.144 31.12L363.084 32.52C362.737 32.2667 362.384 32.0667 362.024 31.92C361.677 31.76 361.31 31.68 360.924 31.68C360.43 31.68 360.064 31.7867 359.824 32C359.584 32.2 359.464 32.4533 359.464 32.76C359.464 33.1467 359.664 33.44 360.064 33.64C360.464 33.84 360.93 34.0333 361.464 34.22C361.917 34.38 362.357 34.58 362.784 34.82C363.21 35.0467 363.564 35.3467 363.844 35.72C364.137 36.0933 364.284 36.5867 364.284 37.2C364.284 38.04 363.957 38.76 363.304 39.36C362.65 39.9467 361.704 40.24 360.464 40.24Z" fill="#232A3D"/>
<path d="M36.04 231.201L37.64 231.661V228.321L36.04 228.781C35.3467 228.994 34.6333 229.201 33.9 229.401C33.1667 229.588 32.44 229.774 31.72 229.961V230.041C32.4533 230.214 33.1867 230.401 33.92 230.601C34.64 230.788 35.3467 230.988 36.04 231.201ZM43 235.581L29.92 231.321V228.601L43 224.341V226.781L39.46 227.801V232.201L43 233.221V235.581ZM43.24 218.829C43.24 219.722 43.04 220.529 42.64 221.249C42.2267 221.955 41.64 222.522 40.88 222.949C40.1067 223.362 39.18 223.569 38.1 223.569C37.0067 223.569 36.08 223.342 35.32 222.889C34.5467 222.435 33.96 221.835 33.56 221.089C33.1467 220.329 32.94 219.515 32.94 218.649C32.94 218.022 33.0467 217.475 33.26 217.009C33.4733 216.542 33.7333 216.129 34.04 215.769L35.54 216.889C35.3133 217.142 35.14 217.402 35.02 217.669C34.8867 217.935 34.82 218.222 34.82 218.529C34.82 219.315 35.12 219.962 35.72 220.469C36.32 220.962 37.1133 221.209 38.1 221.209C39.0733 221.209 39.86 220.969 40.46 220.489C41.06 219.995 41.36 219.362 41.36 218.589C41.36 218.202 41.28 217.842 41.12 217.509C40.9467 217.162 40.7467 216.849 40.52 216.569L42.04 215.629C42.44 216.082 42.74 216.589 42.94 217.149C43.14 217.709 43.24 218.269 43.24 218.829ZM43.24 210.426C43.24 211.559 42.9133 212.366 42.26 212.846C41.5933 213.312 40.7333 213.546 39.68 213.546H35V214.946H33.28L33.18 213.426L30.5 213.146V211.226H33.18V208.726H35V211.226H39.68C40.8267 211.226 41.4 210.766 41.4 209.846C41.4 209.672 41.38 209.492 41.34 209.306C41.2867 209.119 41.2333 208.959 41.18 208.826L42.88 208.426C42.9733 208.692 43.0533 208.999 43.12 209.346C43.2 209.679 43.24 210.039 43.24 210.426ZM43.24 203.739C43.24 204.792 42.9 205.559 42.22 206.039C41.54 206.519 40.58 206.759 39.34 206.759H33.18V204.459H39.04C39.8533 204.459 40.4267 204.339 40.76 204.099C41.0933 203.859 41.26 203.472 41.26 202.939C41.26 202.512 41.1533 202.139 40.94 201.819C40.7267 201.486 40.38 201.132 39.9 200.759H33.18V198.459H43V200.339L41.56 200.519V200.579C42.0667 201.006 42.4733 201.472 42.78 201.979C43.0867 202.486 43.24 203.072 43.24 203.739ZM43.24 193.166C43.24 194.019 42.9733 194.719 42.44 195.266C41.9067 195.799 41.2133 196.066 40.36 196.066C39.3067 196.066 38.4933 195.606 37.92 194.686C37.3333 193.766 36.9333 192.299 36.72 190.286C36.2 190.299 35.7533 190.439 35.38 190.706C34.9933 190.959 34.8 191.419 34.8 192.086C34.8 192.566 34.8933 193.039 35.08 193.506C35.2667 193.959 35.4933 194.406 35.76 194.846L34.22 195.686C33.8733 195.139 33.5733 194.526 33.32 193.846C33.0667 193.153 32.94 192.419 32.94 191.646C32.94 190.419 33.3067 189.506 34.04 188.906C34.76 188.293 35.8067 187.986 37.18 187.986H43V189.886L41.92 190.046V190.126C42.2933 190.566 42.6067 191.039 42.86 191.546C43.1133 192.039 43.24 192.579 43.24 193.166ZM41.44 192.426C41.44 192.026 41.3467 191.666 41.16 191.346C40.96 191.013 40.6933 190.659 40.36 190.286H38.16C38.3333 191.619 38.5933 192.546 38.94 193.066C39.2733 193.586 39.6867 193.846 40.18 193.846C40.62 193.846 40.94 193.713 41.14 193.446C41.34 193.179 41.44 192.839 41.44 192.426ZM43.24 182.993C43.24 183.807 42.9933 184.387 42.5 184.733C42.0067 185.067 41.3333 185.233 40.48 185.233H28.88V182.933H40.6C40.88 182.933 41.08 182.88 41.2 182.773C41.3067 182.667 41.36 182.553 41.36 182.433C41.36 182.38 41.36 182.333 41.36 182.293C41.3467 182.24 41.3333 182.167 41.32 182.073L43.04 181.773C43.0933 181.907 43.14 182.08 43.18 182.293C43.22 182.493 43.24 182.727 43.24 182.993ZM43 175.6H29.92V173.28H41.04V167.84H43V175.6ZM43.24 163.381C43.24 164.234 42.9733 164.934 42.44 165.481C41.9067 166.014 41.2133 166.281 40.36 166.281C39.3067 166.281 38.4933 165.821 37.92 164.901C37.3333 163.981 36.9333 162.514 36.72 160.501C36.2 160.514 35.7533 160.654 35.38 160.921C34.9933 161.174 34.8 161.634 34.8 162.301C34.8 162.781 34.8933 163.254 35.08 163.721C35.2667 164.174 35.4933 164.621 35.76 165.061L34.22 165.901C33.8733 165.354 33.5733 164.741 33.32 164.061C33.0667 163.367 32.94 162.634 32.94 161.861C32.94 160.634 33.3067 159.721 34.04 159.121C34.76 158.507 35.8067 158.201 37.18 158.201H43V160.101L41.92 160.261V160.341C42.2933 160.781 42.6067 161.254 42.86 161.761C43.1133 162.254 43.24 162.794 43.24 163.381ZM41.44 162.641C41.44 162.241 41.3467 161.881 41.16 161.561C40.96 161.227 40.6933 160.874 40.36 160.501H38.16C38.3333 161.834 38.5933 162.761 38.94 163.281C39.2733 163.801 39.6867 164.061 40.18 164.061C40.62 164.061 40.94 163.927 41.14 163.661C41.34 163.394 41.44 163.054 41.44 162.641ZM43.24 150.688C43.24 151.622 42.8133 152.515 41.96 153.368V153.428L43 153.628V155.448H28.88V153.148H32.52L34.16 153.208C33.8 152.795 33.5067 152.342 33.28 151.848C33.0533 151.355 32.94 150.862 32.94 150.368C32.94 149.142 33.3933 148.188 34.3 147.508C35.2067 146.828 36.4133 146.488 37.92 146.488C39.04 146.488 40 146.688 40.8 147.088C41.5867 147.488 42.1933 148.008 42.62 148.648C43.0333 149.275 43.24 149.955 43.24 150.688ZM41.34 151.168C41.34 150.515 41.0533 149.968 40.48 149.528C39.9067 149.088 39.0667 148.868 37.96 148.868C36.9733 148.868 36.2067 149.035 35.66 149.368C35.1133 149.702 34.84 150.242 34.84 150.988C34.84 151.682 35.2067 152.402 35.94 153.148H40.52C40.8133 152.802 41.0267 152.462 41.16 152.128C41.28 151.782 41.34 151.462 41.34 151.168ZM43.24 141.939C43.24 142.752 42.9933 143.332 42.5 143.679C42.0067 144.012 41.3333 144.179 40.48 144.179H28.88V141.879H40.6C40.88 141.879 41.08 141.825 41.2 141.719C41.3067 141.612 41.36 141.499 41.36 141.379C41.36 141.325 41.36 141.279 41.36 141.239C41.3467 141.185 41.3333 141.112 41.32 141.019L43.04 140.719C43.0933 140.852 43.14 141.025 43.18 141.239C43.22 141.439 43.24 141.672 43.24 141.939ZM43.24 134.549C43.24 135.456 43.04 136.276 42.64 137.009C42.2267 137.742 41.64 138.322 40.88 138.749C40.1067 139.176 39.18 139.389 38.1 139.389C37.0333 139.389 36.1133 139.176 35.34 138.749C34.5667 138.309 33.9733 137.742 33.56 137.049C33.1467 136.356 32.94 135.629 32.94 134.869C32.94 133.976 33.14 133.229 33.54 132.629C33.9267 132.029 34.4733 131.576 35.18 131.269C35.8733 130.962 36.68 130.809 37.6 130.809C38.08 130.809 38.4533 130.842 38.72 130.909V137.149C39.5867 137.042 40.26 136.729 40.74 136.209C41.22 135.689 41.46 135.036 41.46 134.249C41.46 133.822 41.4 133.429 41.28 133.069C41.1467 132.696 40.9667 132.329 40.74 131.969L42.18 131.189C42.4867 131.656 42.74 132.176 42.94 132.749C43.14 133.322 43.24 133.922 43.24 134.549ZM37.16 137.169V132.809C36.4 132.809 35.8067 132.976 35.38 133.309C34.94 133.642 34.72 134.142 34.72 134.809C34.72 135.382 34.9333 135.896 35.36 136.349C35.7733 136.789 36.3733 137.062 37.16 137.169ZM43.24 125.872C43.24 126.539 43.1133 127.206 42.86 127.872C42.5933 128.539 42.2667 129.112 41.88 129.592L40.4 128.512C40.7333 128.072 41 127.632 41.2 127.192C41.4 126.752 41.5 126.286 41.5 125.792C41.5 125.259 41.3867 124.866 41.16 124.612C40.9333 124.359 40.6533 124.232 40.32 124.232C40.04 124.232 39.8133 124.339 39.64 124.552C39.4533 124.752 39.2933 125.012 39.16 125.332C39.0133 125.652 38.8733 125.986 38.74 126.332C38.58 126.759 38.3867 127.186 38.16 127.612C37.92 128.026 37.62 128.366 37.26 128.632C36.8867 128.899 36.4267 129.032 35.88 129.032C35.0133 129.032 34.3067 128.712 33.76 128.072C33.2133 127.432 32.94 126.566 32.94 125.472C32.94 124.779 33.06 124.159 33.3 123.612C33.54 123.066 33.8133 122.592 34.12 122.192L35.52 123.252C35.2667 123.599 35.0667 123.952 34.92 124.312C34.76 124.659 34.68 125.026 34.68 125.412C34.68 125.906 34.7867 126.272 35 126.512C35.2 126.752 35.4533 126.872 35.76 126.872C36.1467 126.872 36.44 126.672 36.64 126.272C36.84 125.872 37.0333 125.406 37.22 124.872C37.38 124.419 37.58 123.979 37.82 123.552C38.0467 123.126 38.3467 122.772 38.72 122.492C39.0933 122.199 39.5867 122.052 40.2 122.052C41.04 122.052 41.76 122.379 42.36 123.032C42.9467 123.686 43.24 124.632 43.24 125.872Z" fill="#232A3D"/>
</svg>
