<svg width="310" height="235" viewBox="0 0 310 235" fill="none" xmlns="http://www.w3.org/2000/svg">
<rect width="310" height="235" fill="white"/>
<path d="M261.606 42.5632C161.817 42.5632 161.817 105.732 161.817 105.732C161.817 105.732 161.817 170.732 52.8732 170.732" stroke="#9B51E0" stroke-width="3"/>
<path d="M47.3763 41.7324H261.61" stroke="#232A3D" stroke-width="1.5" stroke-dasharray="4 4"/>
<path d="M48.2919 170.648H262.525" stroke="#232A3D" stroke-width="1.5" stroke-dasharray="4 4"/>
<path d="M25.8592 177.324C24.5392 177.324 23.4859 176.751 22.6992 175.604C21.9259 174.458 21.5392 172.811 21.5392 170.664C21.5392 168.518 21.9259 166.891 22.6992 165.784C23.4859 164.678 24.5392 164.124 25.8592 164.124C27.1792 164.124 28.2259 164.678 28.9992 165.784C29.7859 166.891 30.1792 168.518 30.1792 170.664C30.1792 172.811 29.7859 174.458 28.9992 175.604C28.2259 176.751 27.1792 177.324 25.8592 177.324ZM25.8592 175.524C26.2726 175.524 26.6392 175.371 26.9592 175.064C27.2792 174.744 27.5259 174.231 27.6992 173.524C27.8859 172.818 27.9792 171.864 27.9792 170.664C27.9792 169.464 27.8859 168.518 27.6992 167.824C27.5259 167.131 27.2792 166.644 26.9592 166.364C26.6392 166.071 26.2726 165.924 25.8592 165.924C25.4592 165.924 25.0992 166.071 24.7792 166.364C24.4592 166.644 24.2059 167.131 24.0192 167.824C23.8326 168.518 23.7392 169.464 23.7392 170.664C23.7392 171.864 23.8326 172.818 24.0192 173.524C24.2059 174.231 24.4592 174.744 24.7792 175.064C25.0992 175.371 25.4592 175.524 25.8592 175.524Z" fill="#232A3D"/>
<path d="M22.2192 48V46.12H25.0592V37.76H22.7192V36.32C23.3459 36.2 23.8926 36.06 24.3592 35.9C24.8259 35.7267 25.2592 35.52 25.6592 35.28H27.3792V46.12H29.8792V48H22.2192Z" fill="#232A3D"/>
<path d="M156 27.3521L156 203.352" stroke="#232A3D" stroke-width="1.5" stroke-linecap="round"/>
<path d="M34.999 203.852H277.001" stroke="#232A3D" stroke-width="1.5" stroke-linecap="square"/>
<line x1="277.5" y1="203.852" x2="277.5" y2="200.852" stroke="#232A3D" stroke-linecap="round"/>
<line x1="254.5" y1="203.852" x2="254.5" y2="200.852" stroke="#232A3D" stroke-linecap="round"/>
<line x1="232.5" y1="203.852" x2="232.5" y2="200.852" stroke="#232A3D" stroke-linecap="round"/>
<line x1="210.5" y1="203.852" x2="210.5" y2="200.852" stroke="#232A3D" stroke-linecap="round"/>
<line x1="188.5" y1="203.852" x2="188.5" y2="200.852" stroke="#232A3D" stroke-linecap="round"/>
<line x1="166.5" y1="203.852" x2="166.5" y2="200.852" stroke="#232A3D" stroke-linecap="round"/>
<line x1="154.5" y1="138.852" x2="157.5" y2="138.852" stroke="#232A3D" stroke-linecap="round"/>
<line x1="154.5" y1="107.852" x2="157.5" y2="107.852" stroke="#232A3D" stroke-linecap="round"/>
<line x1="154.5" y1="76.8521" x2="157.5" y2="76.8521" stroke="#232A3D" stroke-linecap="round"/>
<line x1="144.5" y1="203.852" x2="144.5" y2="200.852" stroke="#232A3D" stroke-linecap="round"/>
<line x1="122.5" y1="203.852" x2="122.5" y2="200.852" stroke="#232A3D" stroke-linecap="round"/>
<line x1="100.5" y1="203.852" x2="100.5" y2="200.852" stroke="#232A3D" stroke-linecap="round"/>
<line x1="78.5" y1="203.852" x2="78.5" y2="200.852" stroke="#232A3D" stroke-linecap="round"/>
<line x1="56.5" y1="203.852" x2="56.5" y2="200.852" stroke="#232A3D" stroke-linecap="round"/>
<line x1="34.5" y1="203.852" x2="34.5" y2="200.852" stroke="#232A3D" stroke-linecap="round"/>
</svg>
