<svg width="291" height="268" viewBox="0 0 291 268" fill="none" xmlns="http://www.w3.org/2000/svg">
<rect width="291" height="268" fill="white"/>
<path d="M123 161V212" stroke="#9CA9BC" stroke-width="2" stroke-dasharray="4 4"/>
<path d="M129 155H187" stroke="#9CA9BC" stroke-width="2" stroke-dasharray="4 4"/>
<path d="M188 100L188 212" stroke="#9CA9BC" stroke-width="2" stroke-dasharray="4 4"/>
<path d="M58.0607 19.9393C57.4749 19.3536 56.5251 19.3536 55.9393 19.9393L46.3934 29.4853C45.8076 30.0711 45.8076 31.0208 46.3934 31.6066C46.9792 32.1924 47.9289 32.1924 48.5147 31.6066L57 23.1213L65.4853 31.6066C66.0711 32.1924 67.0208 32.1924 67.6066 31.6066C68.1924 31.0208 68.1924 30.0711 67.6066 29.4853L58.0607 19.9393ZM55.5 21V251H58.5V21H55.5Z" fill="#232A3D"/>
<path d="M242.061 213.061C242.646 212.475 242.646 211.525 242.061 210.939L232.515 201.393C231.929 200.808 230.979 200.808 230.393 201.393C229.808 201.979 229.808 202.929 230.393 203.515L238.879 212L230.393 220.485C229.808 221.071 229.808 222.021 230.393 222.607C230.979 223.192 231.929 223.192 232.515 222.607L242.061 213.061ZM241 210.5H17V213.5H241V210.5Z" fill="#232A3D"/>
<path d="M129 155C129 151.686 126.314 149 123 149C119.686 149 117 151.686 117 155C117 158.314 119.686 161 123 161C126.314 161 129 158.314 129 155Z" fill="#9B51E0"/>
<path d="M194 98C194 94.6863 191.314 92 188 92C184.686 92 182 94.6863 182 98C182 101.314 184.686 104 188 104C191.314 104 194 101.314 194 98Z" fill="#1F69FF"/>
<path d="M28.52 36V31.6L24.32 22.96H27.48L28.8 26.1C29 26.5933 29.1933 27.0867 29.38 27.58C29.58 28.06 29.78 28.56 29.98 29.08H30.06C30.2733 28.56 30.48 28.06 30.68 27.58C30.8933 27.0867 31.0933 26.5933 31.28 26.1L32.6 22.96H35.68L31.48 31.6V36H28.52Z" fill="black"/>
<path d="M249.36 242L253.16 235.3L249.58 228.96H252.88L254.14 231.42C254.287 231.713 254.44 232.033 254.6 232.38C254.76 232.727 254.94 233.107 255.14 233.52H255.22C255.367 233.107 255.513 232.727 255.66 232.38C255.807 232.033 255.953 231.713 256.1 231.42L257.26 228.96H260.42L256.84 235.44L260.64 242H257.36L255.94 239.34C255.767 238.993 255.593 238.653 255.42 238.32C255.26 237.973 255.087 237.6 254.9 237.2H254.82C254.66 237.6 254.5 237.973 254.34 238.32C254.18 238.653 254.02 238.993 253.86 239.34L252.5 242H249.36Z" fill="black"/>
<path d="M151.264 188V186.096H154V180.224H151.744V178.768C152.203 178.693 152.597 178.619 152.928 178.544C153.269 178.459 153.573 178.363 153.84 178.256C154.107 178.139 154.368 178 154.624 177.84H156.352V186.096H158.656V188H151.264Z" fill="#C74E4E"/>
<path d="M122.171 209.226C121.862 209.684 121.983 210.306 122.441 210.614C122.899 210.923 123.521 210.802 123.829 210.344L122.171 209.226ZM187.848 210.773C188.394 210.857 188.904 210.483 188.988 209.937L190.358 201.042C190.442 200.496 190.068 199.985 189.522 199.901C188.976 199.817 188.465 200.192 188.381 200.738L187.164 208.644L179.257 207.427C178.711 207.343 178.201 207.717 178.116 208.263C178.032 208.809 178.407 209.32 178.953 209.404L187.848 210.773ZM123.829 210.344C131.346 199.19 143.747 194.545 156.05 195.035C168.373 195.525 180.44 201.165 187.194 210.376L188.806 209.194C181.631 199.406 168.948 193.546 156.129 193.036C143.289 192.525 130.154 197.38 122.171 209.226L123.829 210.344Z" fill="#C74E4E"/>
<path d="M199 152H203.533V98H199" stroke="#1F69FF"/>
<rect x="201" y="138.776" width="27.551" height="6" transform="rotate(-90 201 138.776)" fill="white"/>
<path d="M198.152 131.832V121.416C198.152 120.701 198.275 120.056 198.52 119.48C198.776 118.893 199.16 118.435 199.672 118.104C200.195 117.763 200.856 117.592 201.656 117.592C202.243 117.592 202.797 117.699 203.32 117.912C203.843 118.115 204.269 118.435 204.6 118.872C204.931 119.299 205.096 119.843 205.096 120.504C205.096 121.037 204.984 121.501 204.76 121.896C204.536 122.291 204.195 122.627 203.736 122.904V122.968C204.152 123.043 204.525 123.213 204.856 123.48C205.187 123.736 205.448 124.067 205.64 124.472C205.832 124.867 205.928 125.309 205.928 125.8C205.928 126.589 205.768 127.235 205.448 127.736C205.139 128.227 204.744 128.595 204.264 128.84C203.784 129.075 203.293 129.192 202.792 129.192C202.397 129.192 201.987 129.117 201.56 128.968C201.144 128.808 200.749 128.525 200.376 128.12C200.397 128.749 200.419 129.368 200.44 129.976C200.472 130.595 200.504 131.213 200.536 131.832H198.152ZM202.104 127.272C202.381 127.272 202.632 127.213 202.856 127.096C203.091 126.968 203.277 126.787 203.416 126.552C203.555 126.307 203.624 126.008 203.624 125.656C203.624 125.229 203.512 124.872 203.288 124.584C203.064 124.285 202.723 124.136 202.264 124.136C202.029 124.136 201.816 124.168 201.624 124.232L201.336 122.52C201.72 122.456 202.019 122.344 202.232 122.184C202.456 122.013 202.611 121.805 202.696 121.56C202.792 121.304 202.84 121.027 202.84 120.728C202.84 120.291 202.723 119.971 202.488 119.768C202.253 119.555 201.981 119.448 201.672 119.448C201.267 119.448 200.963 119.64 200.76 120.024C200.557 120.408 200.445 120.963 200.424 121.688C200.413 122.467 200.397 123.235 200.376 123.992C200.355 124.749 200.344 125.517 200.344 126.296C200.643 126.68 200.941 126.941 201.24 127.08C201.539 127.208 201.827 127.272 202.104 127.272ZM211.186 131.976V127.496H209.442V126.424C209.954 126.349 210.359 126.269 210.658 126.184C210.956 126.099 211.255 125.949 211.554 125.736H212.914V131.976H211.186ZM209.25 131.976V130.536H214.594V131.976H209.25Z" fill="#1F69FF"/>
<path d="M45 232.24C44.0267 232.24 43.1733 231.987 42.44 231.48C41.7067 230.96 41.1333 230.207 40.72 229.22C40.32 228.233 40.12 227.027 40.12 225.6C40.12 223.427 40.5667 221.793 41.46 220.7C42.3533 219.607 43.5333 219.06 45 219.06C46.48 219.06 47.66 219.607 48.54 220.7C49.4333 221.793 49.88 223.427 49.88 225.6C49.88 227.027 49.6733 228.233 49.26 229.22C48.86 230.207 48.2933 230.96 47.56 231.48C46.84 231.987 45.9867 232.24 45 232.24ZM45 229.96C45.4267 229.96 45.8067 229.827 46.14 229.56C46.4867 229.293 46.76 228.84 46.96 228.2C47.16 227.56 47.26 226.693 47.26 225.6C47.26 224.493 47.16 223.633 46.96 223.02C46.76 222.393 46.4867 221.96 46.14 221.72C45.8067 221.467 45.4267 221.34 45 221.34C44.5867 221.34 44.2067 221.467 43.86 221.72C43.5133 221.96 43.24 222.393 43.04 223.02C42.84 223.633 42.74 224.493 42.74 225.6C42.74 226.693 42.84 227.56 43.04 228.2C43.24 228.84 43.5133 229.293 43.86 229.56C44.2067 229.827 44.5867 229.96 45 229.96ZM45 227.08C44.5867 227.08 44.2333 226.94 43.94 226.66C43.6467 226.38 43.5 226.013 43.5 225.56C43.5 225.093 43.6467 224.727 43.94 224.46C44.2333 224.18 44.5867 224.04 45 224.04C45.4267 224.04 45.78 224.18 46.06 224.46C46.3533 224.727 46.5 225.093 46.5 225.56C46.5 226.013 46.3533 226.38 46.06 226.66C45.78 226.94 45.4267 227.08 45 227.08Z" fill="black"/>
</svg>
