<svg width="414" height="119" viewBox="0 0 414 119" fill="none" xmlns="http://www.w3.org/2000/svg">
<rect width="414" height="119" fill="white"/>
<rect x="315" y="66" width="78" height="36" fill="white"/>
<rect x="219" y="66" width="78" height="36" fill="white"/>
<rect x="115" y="66" width="78" height="36" fill="white"/>
<rect x="19" y="66" width="78" height="36" fill="white"/>
<g filter="url(#filter0_d_31_172)">
<rect x="19" y="66" width="78" height="36" fill="white"/>
<rect x="19.5" y="66.5" width="77" height="35" stroke="#209766"/>
</g>
<g filter="url(#filter1_d_31_172)">
<rect x="219" y="66" width="78" height="36" fill="white"/>
<rect x="219.5" y="66.5" width="77" height="35" stroke="#209766"/>
</g>
<g filter="url(#filter2_d_31_172)">
<rect x="115" y="66" width="78" height="36" fill="white"/>
<rect x="115.5" y="66.5" width="77" height="35" stroke="#C74E4E"/>
</g>
<g filter="url(#filter3_d_31_172)">
<rect x="315" y="66" width="78" height="36" fill="white"/>
<rect x="315.5" y="66.5" width="77" height="35" stroke="#C74E4E"/>
</g>
<path d="M107 23.5C107 22.9477 106.552 22.5 106 22.5C105.448 22.5 105 22.9477 105 23.5H107ZM57.7929 62.7071C58.1834 63.0976 58.8166 63.0976 59.2071 62.7071L65.5711 56.3431C65.9616 55.9526 65.9616 55.3195 65.5711 54.9289C65.1805 54.5384 64.5474 54.5384 64.1569 54.9289L58.5 60.5858L52.8431 54.9289C52.4526 54.5384 51.8195 54.5384 51.4289 54.9289C51.0384 55.3195 51.0384 55.9526 51.4289 56.3431L57.7929 62.7071ZM105 23.5C105 28.2845 104.27 31.6941 103.063 34.1224C101.87 36.5248 100.187 38.0149 98.1618 38.9423C96.1082 39.8827 93.6618 40.2622 90.9381 40.3511C88.2117 40.4401 85.2991 40.2374 82.3078 40.0642C76.4383 39.7244 70.1771 39.4731 65.4174 42.2537C60.5185 45.1158 57.5 50.967 57.5 62H59.5C59.5 51.283 62.419 46.3217 66.4263 43.9806C70.5729 41.5581 76.1867 41.7131 82.1922 42.0608C85.1384 42.2314 88.1633 42.4427 91.0033 42.3501C93.846 42.2573 96.5949 41.8595 98.9944 40.7608C101.422 39.6491 103.45 37.8385 104.855 35.0123C106.246 32.2122 107 28.4655 107 23.5H105Z" fill="url(#paint0_linear_31_172)"/>
<path d="M307 22.5C307 21.9477 306.552 21.5 306 21.5C305.448 21.5 305 21.9477 305 22.5H307ZM257.793 62.7071C258.183 63.0976 258.817 63.0976 259.207 62.7071L265.571 56.3431C265.962 55.9526 265.962 55.3195 265.571 54.9289C265.181 54.5384 264.547 54.5384 264.157 54.9289L258.5 60.5858L252.843 54.9289C252.453 54.5384 251.819 54.5384 251.429 54.9289C251.038 55.3195 251.038 55.9526 251.429 56.3431L257.793 62.7071ZM305 22.5C305 27.2837 304.27 30.7111 303.062 33.1691C301.865 35.6026 300.177 37.1332 298.146 38.1059C296.089 39.0912 293.64 39.5222 290.917 39.6684C288.191 39.8148 285.278 39.6734 282.287 39.5632C276.414 39.3468 270.157 39.2285 265.404 42.1054C260.52 45.0619 257.5 50.9637 257.5 62H259.5C259.5 51.2863 262.418 46.2506 266.44 43.8164C270.593 41.3027 276.211 41.3407 282.213 41.5618C285.159 41.6704 288.184 41.818 291.024 41.6656C293.868 41.5129 296.614 41.0572 299.01 39.9097C301.432 38.7496 303.455 36.9013 304.856 34.0516C306.245 31.2264 307 27.4663 307 22.5H305Z" fill="url(#paint1_linear_31_172)"/>
<path d="M105 23.5C105 22.9477 105.448 22.5 106 22.5C106.552 22.5 107 22.9477 107 23.5H105ZM153.207 62.7071C152.817 63.0976 152.183 63.0976 151.793 62.7071L145.429 56.3431C145.038 55.9526 145.038 55.3195 145.429 54.9289C145.819 54.5384 146.453 54.5384 146.843 54.9289L152.5 60.5858L158.157 54.9289C158.547 54.5384 159.181 54.5384 159.571 54.9289C159.962 55.3195 159.962 55.9526 159.571 56.3431L153.207 62.7071ZM107 23.5C107 28.2868 107.715 31.6994 108.897 34.13C110.067 36.5344 111.713 38.0214 113.689 38.9458C115.694 39.8833 118.083 40.2624 120.746 40.3511C123.413 40.44 126.262 40.2375 129.191 40.0642C134.935 39.7245 141.077 39.4717 145.747 42.2585C150.549 45.1245 153.5 50.9755 153.5 62H151.5C151.5 51.2745 148.638 46.313 144.722 43.9759C140.673 41.5595 135.19 41.713 129.309 42.0608C126.426 42.2313 123.462 42.4428 120.68 42.35C117.894 42.2572 115.197 41.8589 112.842 40.7574C110.459 39.6426 108.472 37.8289 107.099 35.0048C105.738 32.2069 105 28.4632 105 23.5H107Z" fill="url(#paint2_linear_31_172)"/>
<path d="M305 22.5C305 21.9477 305.448 21.5 306 21.5C306.552 21.5 307 21.9477 307 22.5H305ZM353.207 62.7071C352.817 63.0976 352.183 63.0976 351.793 62.7071L345.429 56.3431C345.038 55.9526 345.038 55.3195 345.429 54.9289C345.819 54.5384 346.453 54.5384 346.843 54.9289L352.5 60.5858L358.157 54.9289C358.547 54.5384 359.181 54.5384 359.571 54.9289C359.962 55.3195 359.962 55.9526 359.571 56.3431L353.207 62.7071ZM307 22.5C307 27.2861 307.715 30.7164 308.899 33.1766C310.071 35.6122 311.723 37.1399 313.705 38.1096C315.713 39.0921 318.105 39.5225 320.768 39.6685C323.434 39.8147 326.283 39.6734 329.212 39.5632C334.96 39.3469 341.097 39.2274 345.76 42.1104C350.548 45.0706 353.5 50.9719 353.5 62H351.5C351.5 51.2781 348.639 46.2419 344.708 43.8115C340.653 41.3039 335.165 41.3406 329.288 41.5618C326.404 41.6703 323.441 41.8181 320.658 41.6655C317.872 41.5127 315.177 41.0564 312.826 39.9061C310.449 38.7429 308.468 36.8917 307.097 34.0441C305.738 31.2211 305 27.4639 305 22.5H307Z" fill="url(#paint3_linear_31_172)"/>
<g filter="url(#filter4_d_31_172)">
<rect x="115" y="66" width="78" height="36" fill="#219867"/>
</g>
<path d="M159.062 80.1149L157.885 78.9375L154 82.8226L150.115 78.9375L148.938 80.1149L152.823 84L148.938 87.8851L150.115 89.0625L154 85.1774L157.885 89.0625L159.062 87.8851L155.177 84L159.062 80.1149Z" fill="white"/>
<g filter="url(#filter5_d_31_172)">
<rect x="219" y="66" width="78" height="36" fill="#219867"/>
</g>
<path d="M263.062 80.1149L261.885 78.9375L258 82.8226L254.115 78.9375L252.938 80.1149L256.823 84L252.938 87.8851L254.115 89.0625L258 85.1774L261.885 89.0625L263.062 87.8851L259.177 84L263.062 80.1149Z" fill="white"/>
<g filter="url(#filter6_d_31_172)">
<rect x="315" y="66" width="78" height="36" fill="#219867" fill-opacity="0.45" shape-rendering="crispEdges"/>
</g>
<path d="M328.556 88L331.1 80.152H332.732L335.276 88H333.8L332.612 83.824C332.5 83.408 332.38 82.98 332.252 82.54C332.132 82.1 332.02 81.664 331.916 81.232H331.868C331.756 81.664 331.64 82.1 331.52 82.54C331.408 82.98 331.292 83.408 331.172 83.824L329.972 88H328.556ZM330.056 85.876V84.784H333.74V85.876H330.056ZM340.312 88.144C339.632 88.144 339.112 87.944 338.752 87.544C338.4 87.136 338.224 86.572 338.224 85.852V80.62H336.304V79.528H339.604V85.924C339.604 86.324 339.704 86.608 339.904 86.776C340.112 86.936 340.364 87.016 340.66 87.016C340.812 87.016 340.968 87 341.128 86.968C341.288 86.928 341.468 86.868 341.668 86.788L341.992 87.808C341.712 87.904 341.448 87.984 341.2 88.048C340.96 88.112 340.664 88.144 340.312 88.144ZM347.507 88.144C346.827 88.144 346.307 87.944 345.947 87.544C345.595 87.136 345.419 86.572 345.419 85.852V80.62H343.499V79.528H346.799V85.924C346.799 86.324 346.899 86.608 347.099 86.776C347.307 86.936 347.559 87.016 347.855 87.016C348.007 87.016 348.163 87 348.323 86.968C348.483 86.928 348.663 86.868 348.863 86.788L349.187 87.808C348.907 87.904 348.643 87.984 348.395 88.048C348.155 88.112 347.859 88.144 347.507 88.144ZM353.502 88.144C352.982 88.144 352.498 88.024 352.05 87.784C351.602 87.536 351.238 87.184 350.958 86.728C350.678 86.264 350.538 85.708 350.538 85.06C350.538 84.404 350.678 83.848 350.958 83.392C351.238 82.928 351.602 82.576 352.05 82.336C352.498 82.088 352.982 81.964 353.502 81.964C354.022 81.964 354.506 82.088 354.954 82.336C355.402 82.576 355.766 82.928 356.046 83.392C356.326 83.848 356.466 84.404 356.466 85.06C356.466 85.708 356.326 86.264 356.046 86.728C355.766 87.184 355.402 87.536 354.954 87.784C354.506 88.024 354.022 88.144 353.502 88.144ZM353.502 87.016C353.822 87.016 354.098 86.936 354.33 86.776C354.562 86.616 354.738 86.388 354.858 86.092C354.978 85.796 355.038 85.452 355.038 85.06C355.038 84.668 354.978 84.324 354.858 84.028C354.738 83.732 354.562 83.504 354.33 83.344C354.098 83.176 353.822 83.092 353.502 83.092C353.182 83.092 352.906 83.176 352.674 83.344C352.45 83.504 352.274 83.732 352.146 84.028C352.026 84.324 351.966 84.668 351.966 85.06C351.966 85.452 352.026 85.796 352.146 86.092C352.274 86.388 352.45 86.616 352.674 86.776C352.906 86.936 353.182 87.016 353.502 87.016ZM358.286 88L357.17 82.108H358.526L359.054 85.168C359.102 85.456 359.142 85.74 359.174 86.02C359.214 86.292 359.25 86.572 359.282 86.86H359.318C359.358 86.572 359.402 86.288 359.45 86.008C359.506 85.728 359.566 85.448 359.63 85.168L360.17 82.684H361.31L361.838 85.168C361.902 85.456 361.962 85.74 362.018 86.02C362.082 86.292 362.134 86.572 362.174 86.86H362.222C362.262 86.572 362.294 86.292 362.318 86.02C362.35 85.74 362.39 85.456 362.438 85.168L362.942 82.108H364.226L363.146 88H361.466L360.974 85.648C360.934 85.416 360.89 85.156 360.842 84.868C360.802 84.58 360.762 84.26 360.722 83.908H360.674C360.634 84.212 360.594 84.504 360.554 84.784C360.522 85.064 360.482 85.352 360.434 85.648L359.954 88H358.286ZM368.253 88.144C367.653 88.144 367.109 88.024 366.621 87.784C366.133 87.536 365.745 87.184 365.457 86.728C365.169 86.264 365.025 85.704 365.025 85.048C365.025 84.408 365.169 83.86 365.457 83.404C365.745 82.94 366.121 82.584 366.585 82.336C367.049 82.088 367.545 81.964 368.073 81.964C368.657 81.964 369.149 82.084 369.549 82.324C369.957 82.564 370.265 82.896 370.473 83.32C370.689 83.736 370.797 84.216 370.797 84.76C370.797 84.896 370.789 85.028 370.773 85.156C370.765 85.276 370.753 85.376 370.737 85.456H366.021V84.472H369.849L369.585 84.784C369.585 84.2 369.453 83.764 369.189 83.476C368.933 83.18 368.573 83.032 368.109 83.032C367.781 83.032 367.485 83.108 367.221 83.26C366.965 83.412 366.761 83.64 366.609 83.944C366.457 84.24 366.381 84.608 366.381 85.048C366.381 85.504 366.465 85.88 366.633 86.176C366.809 86.472 367.049 86.696 367.353 86.848C367.665 87 368.025 87.076 368.433 87.076C368.745 87.076 369.033 87.032 369.297 86.944C369.561 86.856 369.825 86.736 370.089 86.584L370.557 87.448C370.245 87.648 369.893 87.816 369.501 87.952C369.109 88.08 368.693 88.144 368.253 88.144ZM374.644 88.144C373.892 88.144 373.284 87.872 372.82 87.328C372.356 86.784 372.124 86.028 372.124 85.06C372.124 84.42 372.248 83.868 372.496 83.404C372.744 82.94 373.068 82.584 373.468 82.336C373.868 82.088 374.288 81.964 374.728 81.964C375.064 81.964 375.36 82.024 375.616 82.144C375.88 82.264 376.124 82.436 376.348 82.66H376.384L376.312 81.664V79.528H377.704V88H376.564L376.456 87.316H376.42C376.196 87.54 375.928 87.736 375.616 87.904C375.304 88.064 374.98 88.144 374.644 88.144ZM374.98 87.004C375.22 87.004 375.452 86.948 375.676 86.836C375.9 86.716 376.112 86.536 376.312 86.296V83.644C376.104 83.444 375.896 83.304 375.688 83.224C375.48 83.144 375.268 83.104 375.052 83.104C374.78 83.104 374.528 83.18 374.296 83.332C374.072 83.484 373.892 83.704 373.756 83.992C373.62 84.28 373.552 84.632 373.552 85.048C373.552 85.68 373.676 86.164 373.924 86.5C374.18 86.836 374.532 87.004 374.98 87.004Z" fill="white"/>
<g filter="url(#filter7_d_31_172)">
<rect x="19" y="66" width="78" height="36" fill="#219867" fill-opacity="0.45" shape-rendering="crispEdges"/>
</g>
<path d="M32.5564 88L35.1004 80.152H36.7324L39.2764 88H37.8004L36.6124 83.824C36.5004 83.408 36.3804 82.98 36.2524 82.54C36.1324 82.1 36.0204 81.664 35.9164 81.232H35.8684C35.7564 81.664 35.6404 82.1 35.5204 82.54C35.4084 82.98 35.2924 83.408 35.1724 83.824L33.9724 88H32.5564ZM34.0564 85.876V84.784H37.7404V85.876H34.0564ZM44.3117 88.144C43.6317 88.144 43.1117 87.944 42.7517 87.544C42.3997 87.136 42.2237 86.572 42.2237 85.852V80.62H40.3037V79.528H43.6037V85.924C43.6037 86.324 43.7037 86.608 43.9037 86.776C44.1117 86.936 44.3637 87.016 44.6597 87.016C44.8117 87.016 44.9677 87 45.1277 86.968C45.2877 86.928 45.4677 86.868 45.6677 86.788L45.9917 87.808C45.7117 87.904 45.4477 87.984 45.1997 88.048C44.9597 88.112 44.6637 88.144 44.3117 88.144ZM51.507 88.144C50.827 88.144 50.307 87.944 49.947 87.544C49.595 87.136 49.419 86.572 49.419 85.852V80.62H47.499V79.528H50.799V85.924C50.799 86.324 50.899 86.608 51.099 86.776C51.307 86.936 51.559 87.016 51.855 87.016C52.007 87.016 52.163 87 52.323 86.968C52.483 86.928 52.663 86.868 52.863 86.788L53.187 87.808C52.907 87.904 52.643 87.984 52.395 88.048C52.155 88.112 51.859 88.144 51.507 88.144ZM57.5023 88.144C56.9823 88.144 56.4983 88.024 56.0503 87.784C55.6023 87.536 55.2383 87.184 54.9583 86.728C54.6783 86.264 54.5383 85.708 54.5383 85.06C54.5383 84.404 54.6783 83.848 54.9583 83.392C55.2383 82.928 55.6023 82.576 56.0503 82.336C56.4983 82.088 56.9823 81.964 57.5023 81.964C58.0223 81.964 58.5063 82.088 58.9543 82.336C59.4023 82.576 59.7663 82.928 60.0463 83.392C60.3263 83.848 60.4663 84.404 60.4663 85.06C60.4663 85.708 60.3263 86.264 60.0463 86.728C59.7663 87.184 59.4023 87.536 58.9543 87.784C58.5063 88.024 58.0223 88.144 57.5023 88.144ZM57.5023 87.016C57.8223 87.016 58.0983 86.936 58.3303 86.776C58.5623 86.616 58.7383 86.388 58.8583 86.092C58.9783 85.796 59.0383 85.452 59.0383 85.06C59.0383 84.668 58.9783 84.324 58.8583 84.028C58.7383 83.732 58.5623 83.504 58.3303 83.344C58.0983 83.176 57.8223 83.092 57.5023 83.092C57.1823 83.092 56.9063 83.176 56.6743 83.344C56.4503 83.504 56.2743 83.732 56.1463 84.028C56.0263 84.324 55.9663 84.668 55.9663 85.06C55.9663 85.452 56.0263 85.796 56.1463 86.092C56.2743 86.388 56.4503 86.616 56.6743 86.776C56.9063 86.936 57.1823 87.016 57.5023 87.016ZM62.2857 88L61.1697 82.108H62.5257L63.0537 85.168C63.1017 85.456 63.1417 85.74 63.1737 86.02C63.2137 86.292 63.2497 86.572 63.2817 86.86H63.3177C63.3577 86.572 63.4017 86.288 63.4497 86.008C63.5057 85.728 63.5657 85.448 63.6297 85.168L64.1697 82.684H65.3097L65.8377 85.168C65.9017 85.456 65.9617 85.74 66.0177 86.02C66.0817 86.292 66.1337 86.572 66.1737 86.86H66.2217C66.2617 86.572 66.2937 86.292 66.3177 86.02C66.3497 85.74 66.3897 85.456 66.4377 85.168L66.9417 82.108H68.2257L67.1457 88H65.4657L64.9737 85.648C64.9337 85.416 64.8897 85.156 64.8417 84.868C64.8017 84.58 64.7617 84.26 64.7217 83.908H64.6737C64.6337 84.212 64.5937 84.504 64.5537 84.784C64.5217 85.064 64.4817 85.352 64.4337 85.648L63.9537 88H62.2857ZM72.253 88.144C71.653 88.144 71.109 88.024 70.621 87.784C70.133 87.536 69.745 87.184 69.457 86.728C69.169 86.264 69.025 85.704 69.025 85.048C69.025 84.408 69.169 83.86 69.457 83.404C69.745 82.94 70.121 82.584 70.585 82.336C71.049 82.088 71.545 81.964 72.073 81.964C72.657 81.964 73.149 82.084 73.549 82.324C73.957 82.564 74.265 82.896 74.473 83.32C74.689 83.736 74.797 84.216 74.797 84.76C74.797 84.896 74.789 85.028 74.773 85.156C74.765 85.276 74.753 85.376 74.737 85.456H70.021V84.472H73.849L73.585 84.784C73.585 84.2 73.453 83.764 73.189 83.476C72.933 83.18 72.573 83.032 72.109 83.032C71.781 83.032 71.485 83.108 71.221 83.26C70.965 83.412 70.761 83.64 70.609 83.944C70.457 84.24 70.381 84.608 70.381 85.048C70.381 85.504 70.465 85.88 70.633 86.176C70.809 86.472 71.049 86.696 71.353 86.848C71.665 87 72.025 87.076 72.433 87.076C72.745 87.076 73.033 87.032 73.297 86.944C73.561 86.856 73.825 86.736 74.089 86.584L74.557 87.448C74.245 87.648 73.893 87.816 73.501 87.952C73.109 88.08 72.693 88.144 72.253 88.144ZM78.6443 88.144C77.8923 88.144 77.2843 87.872 76.8203 87.328C76.3563 86.784 76.1243 86.028 76.1243 85.06C76.1243 84.42 76.2483 83.868 76.4963 83.404C76.7443 82.94 77.0683 82.584 77.4683 82.336C77.8683 82.088 78.2883 81.964 78.7283 81.964C79.0643 81.964 79.3603 82.024 79.6163 82.144C79.8803 82.264 80.1243 82.436 80.3483 82.66H80.3843L80.3123 81.664V79.528H81.7043V88H80.5643L80.4563 87.316H80.4203C80.1963 87.54 79.9283 87.736 79.6163 87.904C79.3043 88.064 78.9803 88.144 78.6443 88.144ZM78.9803 87.004C79.2203 87.004 79.4523 86.948 79.6763 86.836C79.9003 86.716 80.1123 86.536 80.3123 86.296V83.644C80.1043 83.444 79.8963 83.304 79.6883 83.224C79.4803 83.144 79.2683 83.104 79.0523 83.104C78.7803 83.104 78.5283 83.18 78.2963 83.332C78.0723 83.484 77.8923 83.704 77.7563 83.992C77.6203 84.28 77.5523 84.632 77.5523 85.048C77.5523 85.68 77.6763 86.164 77.9243 86.5C78.1803 86.836 78.5323 87.004 78.9803 87.004Z" fill="white"/>
<defs>
<filter id="filter0_d_31_172" x="15" y="63" width="86" height="44" filterUnits="userSpaceOnUse" color-interpolation-filters="sRGB">
<feFlood flood-opacity="0" result="BackgroundImageFix"/>
<feColorMatrix in="SourceAlpha" type="matrix" values="0 0 0 0 0 0 0 0 0 0 0 0 0 0 0 0 0 0 127 0" result="hardAlpha"/>
<feOffset dy="1"/>
<feGaussianBlur stdDeviation="2"/>
<feComposite in2="hardAlpha" operator="out"/>
<feColorMatrix type="matrix" values="0 0 0 0 0 0 0 0 0 0 0 0 0 0 0 0 0 0 0.18 0"/>
<feBlend mode="normal" in2="BackgroundImageFix" result="effect1_dropShadow_31_172"/>
<feBlend mode="normal" in="SourceGraphic" in2="effect1_dropShadow_31_172" result="shape"/>
</filter>
<filter id="filter1_d_31_172" x="215" y="63" width="86" height="44" filterUnits="userSpaceOnUse" color-interpolation-filters="sRGB">
<feFlood flood-opacity="0" result="BackgroundImageFix"/>
<feColorMatrix in="SourceAlpha" type="matrix" values="0 0 0 0 0 0 0 0 0 0 0 0 0 0 0 0 0 0 127 0" result="hardAlpha"/>
<feOffset dy="1"/>
<feGaussianBlur stdDeviation="2"/>
<feComposite in2="hardAlpha" operator="out"/>
<feColorMatrix type="matrix" values="0 0 0 0 0 0 0 0 0 0 0 0 0 0 0 0 0 0 0.18 0"/>
<feBlend mode="normal" in2="BackgroundImageFix" result="effect1_dropShadow_31_172"/>
<feBlend mode="normal" in="SourceGraphic" in2="effect1_dropShadow_31_172" result="shape"/>
</filter>
<filter id="filter2_d_31_172" x="111" y="63" width="86" height="44" filterUnits="userSpaceOnUse" color-interpolation-filters="sRGB">
<feFlood flood-opacity="0" result="BackgroundImageFix"/>
<feColorMatrix in="SourceAlpha" type="matrix" values="0 0 0 0 0 0 0 0 0 0 0 0 0 0 0 0 0 0 127 0" result="hardAlpha"/>
<feOffset dy="1"/>
<feGaussianBlur stdDeviation="2"/>
<feComposite in2="hardAlpha" operator="out"/>
<feColorMatrix type="matrix" values="0 0 0 0 0 0 0 0 0 0 0 0 0 0 0 0 0 0 0.18 0"/>
<feBlend mode="normal" in2="BackgroundImageFix" result="effect1_dropShadow_31_172"/>
<feBlend mode="normal" in="SourceGraphic" in2="effect1_dropShadow_31_172" result="shape"/>
</filter>
<filter id="filter3_d_31_172" x="311" y="63" width="86" height="44" filterUnits="userSpaceOnUse" color-interpolation-filters="sRGB">
<feFlood flood-opacity="0" result="BackgroundImageFix"/>
<feColorMatrix in="SourceAlpha" type="matrix" values="0 0 0 0 0 0 0 0 0 0 0 0 0 0 0 0 0 0 127 0" result="hardAlpha"/>
<feOffset dy="1"/>
<feGaussianBlur stdDeviation="2"/>
<feComposite in2="hardAlpha" operator="out"/>
<feColorMatrix type="matrix" values="0 0 0 0 0 0 0 0 0 0 0 0 0 0 0 0 0 0 0.18 0"/>
<feBlend mode="normal" in2="BackgroundImageFix" result="effect1_dropShadow_31_172"/>
<feBlend mode="normal" in="SourceGraphic" in2="effect1_dropShadow_31_172" result="shape"/>
</filter>
<filter id="filter4_d_31_172" x="111" y="63" width="86" height="44" filterUnits="userSpaceOnUse" color-interpolation-filters="sRGB">
<feFlood flood-opacity="0" result="BackgroundImageFix"/>
<feColorMatrix in="SourceAlpha" type="matrix" values="0 0 0 0 0 0 0 0 0 0 0 0 0 0 0 0 0 0 127 0" result="hardAlpha"/>
<feOffset dy="1"/>
<feGaussianBlur stdDeviation="2"/>
<feComposite in2="hardAlpha" operator="out"/>
<feColorMatrix type="matrix" values="0 0 0 0 0 0 0 0 0 0 0 0 0 0 0 0 0 0 0.15 0"/>
<feBlend mode="normal" in2="BackgroundImageFix" result="effect1_dropShadow_31_172"/>
<feBlend mode="normal" in="SourceGraphic" in2="effect1_dropShadow_31_172" result="shape"/>
</filter>
<filter id="filter5_d_31_172" x="215" y="63" width="86" height="44" filterUnits="userSpaceOnUse" color-interpolation-filters="sRGB">
<feFlood flood-opacity="0" result="BackgroundImageFix"/>
<feColorMatrix in="SourceAlpha" type="matrix" values="0 0 0 0 0 0 0 0 0 0 0 0 0 0 0 0 0 0 127 0" result="hardAlpha"/>
<feOffset dy="1"/>
<feGaussianBlur stdDeviation="2"/>
<feComposite in2="hardAlpha" operator="out"/>
<feColorMatrix type="matrix" values="0 0 0 0 0 0 0 0 0 0 0 0 0 0 0 0 0 0 0.15 0"/>
<feBlend mode="normal" in2="BackgroundImageFix" result="effect1_dropShadow_31_172"/>
<feBlend mode="normal" in="SourceGraphic" in2="effect1_dropShadow_31_172" result="shape"/>
</filter>
<filter id="filter6_d_31_172" x="311" y="63" width="86" height="44" filterUnits="userSpaceOnUse" color-interpolation-filters="sRGB">
<feFlood flood-opacity="0" result="BackgroundImageFix"/>
<feColorMatrix in="SourceAlpha" type="matrix" values="0 0 0 0 0 0 0 0 0 0 0 0 0 0 0 0 0 0 127 0" result="hardAlpha"/>
<feOffset dy="1"/>
<feGaussianBlur stdDeviation="2"/>
<feComposite in2="hardAlpha" operator="out"/>
<feColorMatrix type="matrix" values="0 0 0 0 0 0 0 0 0 0 0 0 0 0 0 0 0 0 0.15 0"/>
<feBlend mode="normal" in2="BackgroundImageFix" result="effect1_dropShadow_31_172"/>
<feBlend mode="normal" in="SourceGraphic" in2="effect1_dropShadow_31_172" result="shape"/>
</filter>
<filter id="filter7_d_31_172" x="15" y="63" width="86" height="44" filterUnits="userSpaceOnUse" color-interpolation-filters="sRGB">
<feFlood flood-opacity="0" result="BackgroundImageFix"/>
<feColorMatrix in="SourceAlpha" type="matrix" values="0 0 0 0 0 0 0 0 0 0 0 0 0 0 0 0 0 0 127 0" result="hardAlpha"/>
<feOffset dy="1"/>
<feGaussianBlur stdDeviation="2"/>
<feComposite in2="hardAlpha" operator="out"/>
<feColorMatrix type="matrix" values="0 0 0 0 0 0 0 0 0 0 0 0 0 0 0 0 0 0 0.15 0"/>
<feBlend mode="normal" in2="BackgroundImageFix" result="effect1_dropShadow_31_172"/>
<feBlend mode="normal" in="SourceGraphic" in2="effect1_dropShadow_31_172" result="shape"/>
</filter>
<linearGradient id="paint0_linear_31_172" x1="59" y1="60" x2="106" y2="19" gradientUnits="userSpaceOnUse">
<stop stop-color="#209766"/>
<stop offset="1" stop-color="#209766" stop-opacity="0.1"/>
</linearGradient>
<linearGradient id="paint1_linear_31_172" x1="259" y1="55.5" x2="306" y2="19" gradientUnits="userSpaceOnUse">
<stop stop-color="#209766"/>
<stop offset="1" stop-color="#209766" stop-opacity="0.1"/>
</linearGradient>
<linearGradient id="paint2_linear_31_172" x1="153" y1="62" x2="106" y2="19" gradientUnits="userSpaceOnUse">
<stop stop-color="#C74E4E"/>
<stop offset="1" stop-color="#C74E4E" stop-opacity="0.1"/>
</linearGradient>
<linearGradient id="paint3_linear_31_172" x1="353" y1="62" x2="306" y2="19" gradientUnits="userSpaceOnUse">
<stop stop-color="#C74E4E"/>
<stop offset="1" stop-color="#C74E4E" stop-opacity="0.1"/>
</linearGradient>
</defs>
</svg>
