<svg width="600" height="184" viewBox="0 0 600 184" fill="none" xmlns="http://www.w3.org/2000/svg">
<rect width="600" height="184" fill="white"/>
<path d="M28.1618 34.0759V135.235H199.085" stroke="#232A3D" stroke-width="3" stroke-linecap="round"/>
<path d="M31.65 82.0391L192.051 82.0391" stroke="#BAC4D1" stroke-width="2" stroke-dasharray="4 4"/>
<path d="M117.984 95.12C117.984 93.6751 116.813 92.5038 115.368 92.5038C113.923 92.5038 112.751 93.6751 112.751 95.12C112.751 96.5649 113.923 97.7362 115.368 97.7362C116.813 97.7362 117.984 96.5649 117.984 95.12Z" fill="#9B51E0"/>
<path d="M151.122 58.4935C151.122 57.0486 149.951 55.8773 148.506 55.8773C147.061 55.8773 145.89 57.0486 145.89 58.4935C145.89 59.9384 147.061 61.1097 148.506 61.1097C149.951 61.1097 151.122 59.9384 151.122 58.4935Z" fill="#9B51E0"/>
<path d="M81.3574 70.7023C81.3574 69.2575 80.1861 68.0862 78.7412 68.0862C77.2963 68.0862 76.125 69.2575 76.125 70.7023C76.125 72.1472 77.2963 73.3185 78.7412 73.3185C80.1861 73.3185 81.3574 72.1472 81.3574 70.7023Z" fill="#9B51E0"/>
<path d="M123.216 66.342C123.216 64.8972 122.045 63.7259 120.6 63.7259C119.155 63.7259 117.984 64.8972 117.984 66.342C117.984 67.7869 119.155 68.9582 120.6 68.9582C122.045 68.9582 123.216 67.7869 123.216 66.342Z" fill="#9B51E0"/>
<path d="M64.7882 66.342C64.7882 64.8972 63.6169 63.7259 62.1721 63.7259C60.7272 63.7259 59.5559 64.8972 59.5559 66.342C59.5559 67.7869 60.7272 68.9582 62.1721 68.9582C63.6169 68.9582 64.7882 67.7869 64.7882 66.342Z" fill="#9B51E0"/>
<path d="M135.425 76.8068C135.425 75.3619 134.254 74.1906 132.809 74.1906C131.364 74.1906 130.193 75.3619 130.193 76.8068C130.193 78.2516 131.364 79.4229 132.809 79.4229C134.254 79.4229 135.425 78.2516 135.425 76.8068Z" fill="#9B51E0"/>
<path d="M138.913 90.7597C138.913 89.3148 137.742 88.1435 136.297 88.1435C134.852 88.1435 133.681 89.3148 133.681 90.7597C133.681 92.2046 134.852 93.3759 136.297 93.3759C137.742 93.3759 138.913 92.2046 138.913 90.7597Z" fill="#9B51E0"/>
<path d="M155.482 70.7023C155.482 69.2575 154.311 68.0862 152.866 68.0862C151.421 68.0862 150.25 69.2575 150.25 70.7023C150.25 72.1472 151.421 73.3185 152.866 73.3185C154.311 73.3185 155.482 72.1472 155.482 70.7023Z" fill="#9B51E0"/>
<path d="M158.971 86.3994C158.971 84.9545 157.799 83.7832 156.354 83.7832C154.91 83.7832 153.738 84.9545 153.738 86.3994C153.738 87.8443 154.91 89.0156 156.354 89.0156C157.799 89.0156 158.971 87.8443 158.971 86.3994Z" fill="#9B51E0"/>
<path d="M180.772 87.2715C180.772 85.8266 179.601 84.6553 178.156 84.6553C176.711 84.6553 175.54 85.8266 175.54 87.2715C175.54 88.7163 176.711 89.8876 178.156 89.8876C179.601 89.8876 180.772 88.7163 180.772 87.2715Z" fill="#9B51E0"/>
<path d="M190.365 62.8538C190.365 61.4089 189.193 60.2376 187.749 60.2376C186.304 60.2376 185.132 61.4089 185.132 62.8538C185.132 64.2987 186.304 65.47 187.749 65.47C189.193 65.47 190.365 64.2987 190.365 62.8538Z" fill="#9B51E0"/>
<path d="M90.95 58.4935C90.95 57.0486 89.7787 55.8773 88.3338 55.8773C86.889 55.8773 85.7177 57.0486 85.7177 58.4935C85.7177 59.9384 86.889 61.1097 88.3338 61.1097C89.7787 61.1097 90.95 59.9384 90.95 58.4935Z" fill="#9B51E0"/>
<path d="M95.3103 87.2715C95.3103 85.8266 94.139 84.6553 92.6941 84.6553C91.2493 84.6553 90.0779 85.8266 90.0779 87.2715C90.0779 88.7163 91.2493 89.8876 92.6941 89.8876C94.139 89.8876 95.3103 88.7163 95.3103 87.2715Z" fill="#9B51E0"/>
<path d="M37.7544 88.1435C37.7544 86.6986 36.5831 85.5273 35.1382 85.5273C33.6934 85.5273 32.5221 86.6986 32.5221 88.1435C32.5221 89.5884 33.6934 90.7597 35.1382 90.7597C36.5831 90.7597 37.7544 89.5884 37.7544 88.1435Z" fill="#9B51E0"/>
<path d="M107.519 75.9347C107.519 74.4898 106.348 73.3185 104.903 73.3185C103.458 73.3185 102.287 74.4898 102.287 75.9347C102.287 77.3796 103.458 78.5509 104.903 78.5509C106.348 78.5509 107.519 77.3796 107.519 75.9347Z" fill="#9B51E0"/>
<path d="M76.9971 95.12C76.9971 93.6751 75.8258 92.5038 74.3809 92.5038C72.936 92.5038 71.7647 93.6751 71.7647 95.12C71.7647 96.5649 72.936 97.7362 74.3809 97.7362C75.8258 97.7362 76.9971 96.5649 76.9971 95.12Z" fill="#9B51E0"/>
<path d="M47.3471 70.7023C47.3471 69.2575 46.1758 68.0862 44.7309 68.0862C43.286 68.0862 42.1147 69.2575 42.1147 70.7023C42.1147 72.1472 43.286 73.3185 44.7309 73.3185C46.1758 73.3185 47.3471 72.1472 47.3471 70.7023Z" fill="#9B51E0"/>
<path d="M59.5559 90.7597C59.5559 89.3148 58.3846 88.1435 56.9397 88.1435C55.4948 88.1435 54.3235 89.3148 54.3235 90.7597C54.3235 92.2046 55.4948 93.3759 56.9397 93.3759C58.3846 93.3759 59.5559 92.2046 59.5559 90.7597Z" fill="#9B51E0"/>
<path d="M13 106.559H5.828V104.018C5.828 103.512 5.89767 103.05 6.037 102.632C6.169 102.214 6.4 101.88 6.73 101.631C7.05267 101.374 7.49633 101.246 8.061 101.246C8.611 101.246 9.05833 101.374 9.403 101.631C9.74767 101.88 10.0043 102.214 10.173 102.632C10.3343 103.05 10.415 103.512 10.415 104.018V104.942H13V106.559ZM9.128 104.942V104.15C9.128 103.724 9.04 103.402 8.864 103.182C8.68067 102.954 8.413 102.841 8.061 102.841C7.709 102.841 7.46333 102.954 7.324 103.182C7.18467 103.402 7.115 103.724 7.115 104.15V104.942H9.128ZM9.997 104.315L8.952 103.193L13 100.905V102.72L9.997 104.315ZM13.132 97.1031C13.132 97.6678 13.022 98.1811 12.802 98.6431C12.5747 99.0978 12.2483 99.4608 11.823 99.7321C11.3903 99.9961 10.8733 100.128 10.272 100.128C9.678 100.128 9.16833 99.9924 8.743 99.7211C8.31033 99.4498 7.98033 99.0978 7.753 98.6651C7.52567 98.2324 7.412 97.7741 7.412 97.2901C7.412 96.7254 7.52933 96.2524 7.764 95.8711C7.99133 95.4898 8.303 95.2038 8.699 95.0131C9.08767 94.8151 9.53133 94.7161 10.03 94.7161C10.1767 94.7161 10.3197 94.7271 10.459 94.7491C10.591 94.7638 10.69 94.7784 10.756 94.7931V98.9291H9.667V95.8821L9.975 96.1351C9.535 96.1351 9.205 96.2304 8.985 96.4211C8.75767 96.6044 8.644 96.8758 8.644 97.2351C8.644 97.4991 8.70267 97.7301 8.82 97.9281C8.93733 98.1261 9.117 98.2801 9.359 98.3901C9.601 98.5001 9.90533 98.5551 10.272 98.5551C10.646 98.5551 10.954 98.4891 11.196 98.3571C11.4307 98.2251 11.6067 98.0344 11.724 97.7851C11.8413 97.5358 11.9 97.2351 11.9 96.8831C11.9 96.6338 11.867 96.3991 11.801 96.1791C11.735 95.9518 11.6397 95.7171 11.515 95.4751L12.494 94.9361C12.692 95.2514 12.8497 95.5998 12.967 95.9811C13.077 96.3624 13.132 96.7364 13.132 97.1031ZM13.132 90.8814C13.132 91.3654 13.0513 91.8457 12.89 92.3224C12.7213 92.7991 12.5233 93.2097 12.296 93.5544L11.284 92.8614C11.4967 92.5314 11.658 92.1831 11.768 91.8164C11.878 91.4424 11.933 91.0574 11.933 90.6614C11.933 90.3607 11.889 90.1407 11.801 90.0014C11.7057 89.8621 11.5957 89.7924 11.471 89.7924C11.3903 89.7924 11.3243 89.8144 11.273 89.8584C11.2143 89.8951 11.163 89.9647 11.119 90.0674C11.0677 90.1627 11.02 90.2984 10.976 90.4744C10.932 90.6431 10.8807 90.8631 10.822 91.1344C10.6607 91.8751 10.4407 92.4067 10.162 92.7294C9.88333 93.0521 9.535 93.2134 9.117 93.2134C8.60367 93.2134 8.193 92.9897 7.885 92.5424C7.56967 92.0951 7.412 91.4827 7.412 90.7054C7.412 90.2141 7.49267 89.7704 7.654 89.3744C7.808 88.9711 7.97667 88.6264 8.16 88.3404L9.128 89.0664C8.95933 89.3377 8.831 89.6274 8.743 89.9354C8.655 90.2434 8.611 90.5477 8.611 90.8484C8.611 91.0171 8.62933 91.1564 8.666 91.2664C8.69533 91.3764 8.74667 91.4607 8.82 91.5194C8.886 91.5781 8.95933 91.6074 9.04 91.6074C9.18667 91.6074 9.29667 91.5121 9.37 91.3214C9.436 91.1307 9.52033 90.8044 9.623 90.3424C9.74767 89.7851 9.89067 89.3487 10.052 89.0334C10.2133 88.7181 10.4003 88.5017 10.613 88.3844C10.8183 88.2597 11.0713 88.1974 11.372 88.1974C11.702 88.1974 11.999 88.3001 12.263 88.5054C12.527 88.7034 12.7397 89.0041 12.901 89.4074C13.055 89.8034 13.132 90.2947 13.132 90.8814ZM13 84.4837H8.809L8.809 86.6837H7.544L7.544 82.8667H13V84.4837ZM6.686 83.7467C6.686 84.0547 6.598 84.3114 6.422 84.5167C6.23867 84.722 6.00033 84.8247 5.707 84.8247C5.40633 84.8247 5.16433 84.722 4.981 84.5167C4.79033 84.3114 4.695 84.0547 4.695 83.7467C4.695 83.4314 4.79033 83.1747 4.981 82.9767C5.16433 82.7714 5.40633 82.6687 5.707 82.6687C6.00033 82.6687 6.23867 82.7714 6.422 82.9767C6.598 83.1747 6.686 83.4314 6.686 83.7467ZM13.132 78.13C13.132 78.8193 12.879 79.3767 12.373 79.802C11.8597 80.22 11.1593 80.429 10.272 80.429C9.678 80.429 9.16833 80.319 8.743 80.099C8.31767 79.8717 7.99133 79.5783 7.764 79.219C7.52933 78.8597 7.412 78.4857 7.412 78.097C7.412 77.7963 7.46333 77.536 7.566 77.316C7.66867 77.096 7.81167 76.898 7.995 76.722V76.678L7.148 76.755H5.289V75.138H13V76.458L12.439 76.579V76.612C12.637 76.81 12.802 77.0447 12.934 77.316C13.066 77.58 13.132 77.8513 13.132 78.13ZM11.812 77.712C11.812 77.5287 11.7753 77.36 11.702 77.206C11.6213 77.0447 11.4893 76.8943 11.306 76.755H9.095C8.963 76.9017 8.87133 77.052 8.82 77.206C8.76133 77.3527 8.732 77.5067 8.732 77.668C8.732 77.866 8.787 78.0493 8.897 78.218C9.007 78.3867 9.17567 78.5223 9.403 78.625C9.623 78.7203 9.90533 78.768 10.25 78.768C10.7853 78.768 11.1813 78.6763 11.438 78.493C11.6873 78.3097 11.812 78.0493 11.812 77.712ZM13.132 71.8973C13.132 72.5206 12.934 72.9716 12.538 73.2503C12.142 73.5289 11.5993 73.6683 10.91 73.6683H7.544V72.0513H10.701C11.0677 72.0513 11.3353 71.9963 11.504 71.8863C11.6727 71.7689 11.757 71.5599 11.757 71.2593C11.757 71.0539 11.713 70.8706 11.625 70.7093C11.537 70.5479 11.372 70.3756 11.13 70.1923H7.544V68.5753H13V69.8953L12.219 70.0163V70.0603C12.4903 70.3023 12.7103 70.5699 12.879 70.8633C13.0477 71.1566 13.132 71.5013 13.132 71.8973ZM13.132 65.2906C13.132 65.6572 13.0587 65.9762 12.912 66.2476C12.7653 66.5116 12.5673 66.7169 12.318 66.8636C12.0687 67.0102 11.79 67.0836 11.482 67.0836C10.8733 67.0836 10.4077 66.8086 10.085 66.2586C9.76233 65.7012 9.56433 64.7772 9.491 63.4866C9.32233 63.5086 9.17933 63.5636 9.062 63.6516C8.94467 63.7396 8.85667 63.8679 8.798 64.0366C8.732 64.1979 8.699 64.4032 8.699 64.6526C8.699 64.8286 8.721 65.0046 8.765 65.1806C8.80167 65.3566 8.86033 65.5399 8.941 65.7306C9.01433 65.9139 9.10233 66.1082 9.205 66.3136L8.149 66.8856C8.00233 66.6362 7.874 66.3759 7.764 66.1046C7.654 65.8259 7.56967 65.5399 7.511 65.2466C7.445 64.9459 7.412 64.6416 7.412 64.3336C7.412 63.8202 7.50367 63.3802 7.687 63.0136C7.863 62.6469 8.13433 62.3646 8.501 62.1666C8.86033 61.9686 9.31867 61.8696 9.876 61.8696H13V63.1896L12.384 63.3106V63.3546C12.5893 63.6259 12.7653 63.9266 12.912 64.2566C13.0587 64.5866 13.132 64.9312 13.132 65.2906ZM11.878 64.7736C11.878 64.5316 11.8303 64.3042 11.735 64.0916C11.6323 63.8789 11.5077 63.6772 11.361 63.4866H10.459C10.4883 64.0219 10.5433 64.4399 10.624 64.7406C10.7047 65.0339 10.8073 65.2392 10.932 65.3566C11.0567 65.4739 11.1997 65.5326 11.361 65.5326C11.471 65.5326 11.5663 65.5032 11.647 65.4446C11.7277 65.3786 11.7863 65.2906 11.823 65.1806C11.8597 65.0632 11.878 64.9276 11.878 64.7736ZM13.132 56.8139C13.132 57.4959 12.9267 58.0129 12.516 58.3649C12.1053 58.7169 11.5553 58.8929 10.866 58.8929H6.565V60.5979H5.3L5.3 57.2759H10.932C11.2693 57.2759 11.504 57.1842 11.636 57.0009C11.7607 56.8175 11.823 56.6159 11.823 56.3959C11.823 56.2639 11.8083 56.1319 11.779 55.9999C11.7497 55.8605 11.7057 55.7065 11.647 55.5379L12.835 55.1859C12.923 55.4645 12.9927 55.7212 13.044 55.9559C13.1027 56.1832 13.132 56.4692 13.132 56.8139Z" fill="#232A3D"/>
<path d="M21.2971 88.0787C20.7131 88.0787 20.2011 87.9267 19.7611 87.6227C19.3211 87.3107 18.9771 86.8587 18.7291 86.2667C18.4891 85.6747 18.3691 84.9507 18.3691 84.0947C18.3691 82.7907 18.6371 81.8107 19.1731 81.1547C19.7091 80.4987 20.4171 80.1707 21.2971 80.1707C22.1851 80.1707 22.8931 80.4987 23.4211 81.1547C23.9571 81.8107 24.2251 82.7907 24.2251 84.0947C24.2251 84.9507 24.1011 85.6747 23.8531 86.2667C23.6131 86.8587 23.2731 87.3107 22.8331 87.6227C22.4011 87.9267 21.8891 88.0787 21.2971 88.0787ZM21.2971 86.7107C21.5531 86.7107 21.7811 86.6307 21.9811 86.4707C22.1891 86.3107 22.3531 86.0387 22.4731 85.6547C22.5931 85.2707 22.6531 84.7507 22.6531 84.0947C22.6531 83.4307 22.5931 82.9147 22.4731 82.5467C22.3531 82.1707 22.1891 81.9107 21.9811 81.7667C21.7811 81.6147 21.5531 81.5387 21.2971 81.5387C21.0491 81.5387 20.8211 81.6147 20.6131 81.7667C20.4051 81.9107 20.2411 82.1707 20.1211 82.5467C20.0011 82.9147 19.9411 83.4307 19.9411 84.0947C19.9411 84.7507 20.0011 85.2707 20.1211 85.6547C20.2411 86.0387 20.4051 86.3107 20.6131 86.4707C20.8211 86.6307 21.0491 86.7107 21.2971 86.7107ZM21.2971 84.9827C21.0491 84.9827 20.8371 84.8987 20.6611 84.7307C20.4851 84.5627 20.3971 84.3427 20.3971 84.0707C20.3971 83.7907 20.4851 83.5707 20.6611 83.4107C20.8371 83.2427 21.0491 83.1587 21.2971 83.1587C21.5531 83.1587 21.7651 83.2427 21.9331 83.4107C22.1091 83.5707 22.1971 83.7907 22.1971 84.0707C22.1971 84.3427 22.1091 84.5627 21.9331 84.7307C21.7651 84.8987 21.5531 84.9827 21.2971 84.9827Z" fill="#7D8FA8"/>
<path d="M85.6706 153.211V146.039H88.2116C88.7323 146.039 89.2016 146.112 89.6196 146.259C90.0449 146.398 90.3823 146.637 90.6316 146.974C90.8883 147.311 91.0166 147.77 91.0166 148.349C91.0166 148.906 90.8883 149.365 90.6316 149.724C90.3749 150.083 90.0339 150.351 89.6086 150.527C89.1833 150.696 88.7176 150.78 88.2116 150.78H87.2876V153.211H85.6706ZM87.2876 149.493H88.1126C88.5599 149.493 88.8899 149.394 89.1026 149.196C89.3226 148.998 89.4326 148.716 89.4326 148.349C89.4326 147.968 89.3189 147.704 89.0916 147.557C88.8716 147.403 88.5453 147.326 88.1126 147.326H87.2876V149.493ZM92.7173 153.211V147.755H94.0373L94.1693 148.943H94.2023C94.4736 148.496 94.8 148.166 95.1813 147.953C95.57 147.733 95.9806 147.623 96.4133 147.623C96.6553 147.623 96.8496 147.641 96.9963 147.678C97.1503 147.715 97.308 147.77 97.4693 147.843L97.1393 149.196C96.9706 149.145 96.8166 149.108 96.6773 149.086C96.5453 149.057 96.3766 149.042 96.1713 149.042C95.834 149.042 95.5003 149.141 95.1703 149.339C94.8476 149.537 94.569 149.882 94.3343 150.373V153.211H92.7173ZM101.667 153.343C101.102 153.343 100.589 153.233 100.127 153.013C99.6723 152.786 99.3093 152.459 99.038 152.034C98.774 151.601 98.642 151.084 98.642 150.483C98.642 149.889 98.7777 149.379 99.049 148.954C99.3203 148.521 99.6723 148.191 100.105 147.964C100.538 147.737 100.996 147.623 101.48 147.623C102.045 147.623 102.518 147.74 102.899 147.975C103.28 148.202 103.566 148.514 103.757 148.91C103.955 149.299 104.054 149.742 104.054 150.241C104.054 150.388 104.043 150.531 104.021 150.67C104.006 150.802 103.992 150.901 103.977 150.967H99.841V149.878H102.888L102.635 150.186C102.635 149.746 102.54 149.416 102.349 149.196C102.166 148.969 101.894 148.855 101.535 148.855C101.271 148.855 101.04 148.914 100.842 149.031C100.644 149.148 100.49 149.328 100.38 149.57C100.27 149.812 100.215 150.116 100.215 150.483C100.215 150.857 100.281 151.165 100.413 151.407C100.545 151.642 100.736 151.818 100.985 151.935C101.234 152.052 101.535 152.111 101.887 152.111C102.136 152.111 102.371 152.078 102.591 152.012C102.818 151.946 103.053 151.851 103.295 151.726L103.834 152.705C103.519 152.903 103.17 153.061 102.789 153.178C102.408 153.288 102.034 153.343 101.667 153.343ZM107.449 153.343C106.759 153.343 106.202 153.09 105.777 152.584C105.359 152.071 105.15 151.37 105.15 150.483C105.15 149.889 105.26 149.379 105.48 148.954C105.707 148.529 106 148.202 106.36 147.975C106.719 147.74 107.093 147.623 107.482 147.623C107.782 147.623 108.043 147.674 108.263 147.777C108.483 147.88 108.681 148.023 108.857 148.206H108.901L108.824 147.359V145.5H110.441V153.211H109.121L109 152.65H108.967C108.769 152.848 108.534 153.013 108.263 153.145C107.999 153.277 107.727 153.343 107.449 153.343ZM107.867 152.023C108.05 152.023 108.219 151.986 108.373 151.913C108.534 151.832 108.684 151.7 108.824 151.517V149.306C108.677 149.174 108.527 149.082 108.373 149.031C108.226 148.972 108.072 148.943 107.911 148.943C107.713 148.943 107.529 148.998 107.361 149.108C107.192 149.218 107.056 149.387 106.954 149.614C106.858 149.834 106.811 150.116 106.811 150.461C106.811 150.996 106.902 151.392 107.086 151.649C107.269 151.898 107.529 152.023 107.867 152.023ZM114.286 153.211V149.02H112.086V147.755H115.903V153.211H114.286ZM115.023 146.897C114.715 146.897 114.459 146.809 114.253 146.633C114.048 146.45 113.945 146.211 113.945 145.918C113.945 145.617 114.048 145.375 114.253 145.192C114.459 145.001 114.715 144.906 115.023 144.906C115.339 144.906 115.595 145.001 115.793 145.192C115.999 145.375 116.101 145.617 116.101 145.918C116.101 146.211 115.999 146.45 115.793 146.633C115.595 146.809 115.339 146.897 115.023 146.897ZM121.597 153.343C121.025 153.343 120.508 153.233 120.046 153.013C119.591 152.786 119.228 152.459 118.957 152.034C118.693 151.601 118.561 151.084 118.561 150.483C118.561 149.882 118.708 149.368 119.001 148.943C119.294 148.51 119.679 148.184 120.156 147.964C120.64 147.737 121.161 147.623 121.718 147.623C122.151 147.623 122.543 147.693 122.895 147.832C123.247 147.964 123.537 148.14 123.764 148.36L123.016 149.361C122.803 149.214 122.598 149.108 122.4 149.042C122.209 148.969 122.011 148.932 121.806 148.932C121.498 148.932 121.223 148.994 120.981 149.119C120.739 149.244 120.552 149.423 120.42 149.658C120.288 149.893 120.222 150.168 120.222 150.483C120.222 150.798 120.284 151.073 120.409 151.308C120.541 151.543 120.721 151.722 120.948 151.847C121.183 151.972 121.45 152.034 121.751 152.034C122.037 152.034 122.297 151.983 122.532 151.88C122.774 151.777 122.994 151.656 123.192 151.517L123.841 152.54C123.518 152.811 123.155 153.013 122.752 153.145C122.356 153.277 121.971 153.343 121.597 153.343ZM128.688 153.343C128.108 153.343 127.646 153.244 127.302 153.046C126.964 152.841 126.719 152.558 126.565 152.199C126.411 151.84 126.334 151.422 126.334 150.945V149.02H124.97V147.821L126.411 147.755L126.62 146.083H127.951V147.755H130.261V149.02H127.951V150.934C127.951 151.205 127.991 151.425 128.072 151.594C128.152 151.763 128.277 151.887 128.446 151.968C128.614 152.041 128.831 152.078 129.095 152.078C129.307 152.078 129.502 152.06 129.678 152.023C129.854 151.986 130.022 151.939 130.184 151.88L130.47 153.046C130.228 153.119 129.96 153.185 129.667 153.244C129.381 153.31 129.054 153.343 128.688 153.343ZM134.074 153.211V149.02H131.874V147.755H135.691V153.211H134.074ZM134.811 146.897C134.503 146.897 134.246 146.809 134.041 146.633C133.835 146.45 133.733 146.211 133.733 145.918C133.733 145.617 133.835 145.375 134.041 145.192C134.246 145.001 134.503 144.906 134.811 144.906C135.126 144.906 135.383 145.001 135.581 145.192C135.786 145.375 135.889 145.617 135.889 145.918C135.889 146.211 135.786 146.45 135.581 146.633C135.383 146.809 135.126 146.897 134.811 146.897ZM140.911 153.343C140.435 153.343 139.984 153.233 139.558 153.013C139.133 152.786 138.788 152.459 138.524 152.034C138.26 151.601 138.128 151.084 138.128 150.483C138.128 149.882 138.26 149.368 138.524 148.943C138.788 148.51 139.133 148.184 139.558 147.964C139.984 147.737 140.435 147.623 140.911 147.623C141.388 147.623 141.839 147.737 142.264 147.964C142.69 148.184 143.034 148.51 143.298 148.943C143.562 149.368 143.694 149.882 143.694 150.483C143.694 151.084 143.562 151.601 143.298 152.034C143.034 152.459 142.69 152.786 142.264 153.013C141.839 153.233 141.388 153.343 140.911 153.343ZM140.911 152.034C141.161 152.034 141.366 151.972 141.527 151.847C141.696 151.722 141.821 151.543 141.901 151.308C141.989 151.073 142.033 150.798 142.033 150.483C142.033 150.168 141.989 149.893 141.901 149.658C141.821 149.423 141.696 149.244 141.527 149.119C141.366 148.994 141.161 148.932 140.911 148.932C140.662 148.932 140.453 148.994 140.284 149.119C140.123 149.244 139.998 149.423 139.91 149.658C139.83 149.893 139.789 150.168 139.789 150.483C139.789 150.798 139.83 151.073 139.91 151.308C139.998 151.543 140.123 151.722 140.284 151.847C140.453 151.972 140.662 152.034 140.911 152.034ZM144.999 153.211V147.755H146.319L146.44 148.481H146.484C146.719 148.246 146.986 148.045 147.287 147.876C147.595 147.707 147.954 147.623 148.365 147.623C148.981 147.623 149.432 147.821 149.718 148.217C150.004 148.613 150.147 149.156 150.147 149.845V153.211H148.53V150.054C148.53 149.687 148.468 149.42 148.343 149.251C148.226 149.082 148.02 148.998 147.727 148.998C147.507 148.998 147.313 149.049 147.144 149.152C146.983 149.247 146.807 149.387 146.616 149.57V153.211H144.999Z" fill="#232A3D"/>
<path d="M226.991 34.0759V135.235H397.915" stroke="#232A3D" stroke-width="3" stroke-linecap="round"/>
<path d="M230.479 82.0391L390.88 82.0391" stroke="#BAC4D1" stroke-width="2" stroke-dasharray="4 4"/>
<path d="M329.894 90.7597C329.894 89.3148 328.723 88.1435 327.278 88.1435C325.833 88.1435 324.662 89.3148 324.662 90.7597C324.662 92.2046 325.833 93.3759 327.278 93.3759C328.723 93.3759 329.894 92.2046 329.894 90.7597Z" fill="#9B51E0"/>
<path d="M308.965 97.7362C308.965 96.2913 307.793 95.12 306.349 95.12C304.904 95.12 303.732 96.2913 303.732 97.7362C303.732 99.181 304.904 100.352 306.349 100.352C307.793 100.352 308.965 99.181 308.965 97.7362Z" fill="#9B51E0"/>
<path d="M351.696 36.692C351.696 35.2472 350.524 34.0759 349.079 34.0759C347.635 34.0759 346.463 35.2472 346.463 36.692C346.463 38.1369 347.635 39.3082 349.079 39.3082C350.524 39.3082 351.696 38.1369 351.696 36.692Z" fill="#9B51E0"/>
<path d="M287.654 66.8305C288.405 65.5964 288.014 63.9868 286.78 63.2354C285.546 62.484 283.936 62.8753 283.185 64.1094C282.433 65.3435 282.824 66.9531 284.059 67.7045C285.293 68.4559 286.902 68.0646 287.654 66.8305Z" fill="#9B51E0"/>
<path d="M334.254 58.4935C334.254 57.0486 333.083 55.8773 331.638 55.8773C330.193 55.8773 329.022 57.0486 329.022 58.4935C329.022 59.9384 330.193 61.1097 331.638 61.1097C333.083 61.1097 334.254 59.9384 334.254 58.4935Z" fill="#9B51E0"/>
<path d="M274.95 71.426C274.868 69.9834 273.632 68.8805 272.19 68.9624C270.747 69.0444 269.644 70.2803 269.726 71.7228C269.808 73.1654 271.044 74.2683 272.487 74.1864C273.929 74.1044 275.032 72.8685 274.95 71.426Z" fill="#9B51E0"/>
<path d="M346.463 74.1905C346.463 72.7457 345.292 71.5744 343.847 71.5744C342.402 71.5744 341.231 72.7457 341.231 74.1905C341.231 75.6354 342.402 76.8067 343.847 76.8067C345.292 76.8067 346.463 75.6354 346.463 74.1905Z" fill="#9B51E0"/>
<path d="M331.638 106.457C331.638 105.012 330.467 103.841 329.022 103.841C327.577 103.841 326.406 105.012 326.406 106.457C326.406 107.902 327.577 109.073 329.022 109.073C330.467 109.073 331.638 107.902 331.638 106.457Z" fill="#9B51E0"/>
<path d="M361.288 125.642C361.288 124.197 360.117 123.026 358.672 123.026C357.227 123.026 356.056 124.197 356.056 125.642C356.056 127.087 357.227 128.258 358.672 128.258C360.117 128.258 361.288 127.087 361.288 125.642Z" fill="#9B51E0"/>
<path d="M310.709 53.2612C310.709 51.8163 309.538 50.645 308.093 50.645C306.648 50.645 305.476 51.8163 305.476 53.2612C305.476 54.706 306.648 55.8773 308.093 55.8773C309.538 55.8773 310.709 54.706 310.709 53.2612Z" fill="#9B51E0"/>
<path d="M306.349 114.305C306.349 112.86 305.177 111.689 303.732 111.689C302.287 111.689 301.116 112.86 301.116 114.305C301.116 115.75 302.287 116.921 303.732 116.921C305.177 116.921 306.349 115.75 306.349 114.305Z" fill="#9B51E0"/>
<path d="M289.779 92.5038C289.779 91.059 288.608 89.8877 287.163 89.8877C285.718 89.8877 284.547 91.059 284.547 92.5038C284.547 93.9487 285.718 95.12 287.163 95.12C288.608 95.12 289.779 93.9487 289.779 92.5038Z" fill="#9B51E0"/>
<path d="M304.604 75.9347C304.604 74.4898 303.433 73.3185 301.988 73.3185C300.543 73.3185 299.372 74.4898 299.372 75.9347C299.372 77.3796 300.543 78.5509 301.988 78.5509C303.433 78.5509 304.604 77.3796 304.604 75.9347Z" fill="#9B51E0"/>
<path d="M282.803 102.969C282.803 101.524 281.632 100.352 280.187 100.352C278.742 100.352 277.571 101.524 277.571 102.969C277.571 104.413 278.742 105.585 280.187 105.585C281.632 105.585 282.803 104.413 282.803 102.969Z" fill="#9B51E0"/>
<path d="M268.85 90.7597C268.85 89.3148 267.679 88.1435 266.234 88.1435C264.789 88.1435 263.618 89.3148 263.618 90.7597C263.618 92.2046 264.789 93.3759 266.234 93.3759C267.679 93.3759 268.85 92.2046 268.85 90.7597Z" fill="#9B51E0"/>
<path d="M266.234 82.0391C266.234 80.5942 265.063 79.4229 263.618 79.4229C262.173 79.4229 261.001 80.5942 261.001 82.0391C261.001 83.484 262.173 84.6553 263.618 84.6553C265.063 84.6553 266.234 83.484 266.234 82.0391Z" fill="#9B51E0"/>
<path d="M261.001 76.8068C261.001 75.3619 259.83 74.1906 258.385 74.1906C256.94 74.1906 255.769 75.3619 255.769 76.8068C255.769 78.2516 256.94 79.4229 258.385 79.4229C259.83 79.4229 261.001 78.2516 261.001 76.8068Z" fill="#9B51E0"/>
<path d="M248.793 88.1435C248.793 86.6986 247.621 85.5273 246.176 85.5273C244.732 85.5273 243.56 86.6986 243.56 88.1435C243.56 89.5884 244.732 90.7597 246.176 90.7597C247.621 90.7597 248.793 89.5884 248.793 88.1435Z" fill="#9B51E0"/>
<path d="M211.829 106.559H204.657V104.018C204.657 103.512 204.727 103.05 204.866 102.632C204.998 102.214 205.229 101.88 205.559 101.631C205.882 101.374 206.326 101.246 206.89 101.246C207.44 101.246 207.888 101.374 208.232 101.631C208.577 101.88 208.834 102.214 209.002 102.632C209.164 103.05 209.244 103.512 209.244 104.018V104.942H211.829V106.559ZM207.957 104.942V104.15C207.957 103.724 207.869 103.402 207.693 103.182C207.51 102.954 207.242 102.841 206.89 102.841C206.538 102.841 206.293 102.954 206.153 103.182C206.014 103.402 205.944 103.724 205.944 104.15V104.942H207.957ZM208.826 104.315L207.781 103.193L211.829 100.905V102.72L208.826 104.315ZM211.961 97.1031C211.961 97.6678 211.851 98.1811 211.631 98.6431C211.404 99.0978 211.078 99.4608 210.652 99.7321C210.22 99.9961 209.703 100.128 209.101 100.128C208.507 100.128 207.998 99.9924 207.572 99.7211C207.14 99.4498 206.81 99.0978 206.582 98.6651C206.355 98.2324 206.241 97.7741 206.241 97.2901C206.241 96.7254 206.359 96.2524 206.593 95.8711C206.821 95.4898 207.132 95.2038 207.528 95.0131C207.917 94.8151 208.361 94.7161 208.859 94.7161C209.006 94.7161 209.149 94.7271 209.288 94.7491C209.42 94.7638 209.519 94.7784 209.585 94.7931V98.9291H208.496V95.8821L208.804 96.1351C208.364 96.1351 208.034 96.2304 207.814 96.4211C207.587 96.6044 207.473 96.8758 207.473 97.2351C207.473 97.4991 207.532 97.7301 207.649 97.9281C207.767 98.1261 207.946 98.2801 208.188 98.3901C208.43 98.5001 208.735 98.5551 209.101 98.5551C209.475 98.5551 209.783 98.4891 210.025 98.3571C210.26 98.2251 210.436 98.0344 210.553 97.7851C210.671 97.5358 210.729 97.2351 210.729 96.8831C210.729 96.6338 210.696 96.3991 210.63 96.1791C210.564 95.9518 210.469 95.7171 210.344 95.4751L211.323 94.9361C211.521 95.2514 211.679 95.5998 211.796 95.9811C211.906 96.3624 211.961 96.7364 211.961 97.1031ZM211.961 90.8814C211.961 91.3654 211.881 91.8457 211.719 92.3224C211.551 92.7991 211.353 93.2097 211.125 93.5544L210.113 92.8614C210.326 92.5314 210.487 92.1831 210.597 91.8164C210.707 91.4424 210.762 91.0574 210.762 90.6614C210.762 90.3607 210.718 90.1407 210.63 90.0014C210.535 89.8621 210.425 89.7924 210.3 89.7924C210.22 89.7924 210.154 89.8144 210.102 89.8584C210.044 89.8951 209.992 89.9647 209.948 90.0674C209.897 90.1627 209.849 90.2984 209.805 90.4744C209.761 90.6431 209.71 90.8631 209.651 91.1344C209.49 91.8751 209.27 92.4067 208.991 92.7294C208.713 93.0521 208.364 93.2134 207.946 93.2134C207.433 93.2134 207.022 92.9897 206.714 92.5424C206.399 92.0951 206.241 91.4827 206.241 90.7054C206.241 90.2141 206.322 89.7704 206.483 89.3744C206.637 88.9711 206.806 88.6264 206.989 88.3404L207.957 89.0664C207.789 89.3377 207.66 89.6274 207.572 89.9354C207.484 90.2434 207.44 90.5477 207.44 90.8484C207.44 91.0171 207.459 91.1564 207.495 91.2664C207.525 91.3764 207.576 91.4607 207.649 91.5194C207.715 91.5781 207.789 91.6074 207.869 91.6074C208.016 91.6074 208.126 91.5121 208.199 91.3214C208.265 91.1307 208.35 90.8044 208.452 90.3424C208.577 89.7851 208.72 89.3487 208.881 89.0334C209.043 88.7181 209.23 88.5017 209.442 88.3844C209.648 88.2597 209.901 88.1974 210.201 88.1974C210.531 88.1974 210.828 88.3001 211.092 88.5054C211.356 88.7034 211.569 89.0041 211.73 89.4074C211.884 89.8034 211.961 90.2947 211.961 90.8814ZM211.829 84.4837H207.638V86.6837H206.373V82.8667H211.829V84.4837ZM205.515 83.7467C205.515 84.0547 205.427 84.3114 205.251 84.5167C205.068 84.722 204.83 84.8247 204.536 84.8247C204.236 84.8247 203.994 84.722 203.81 84.5167C203.62 84.3114 203.524 84.0547 203.524 83.7467C203.524 83.4314 203.62 83.1747 203.81 82.9767C203.994 82.7714 204.236 82.6687 204.536 82.6687C204.83 82.6687 205.068 82.7714 205.251 82.9767C205.427 83.1747 205.515 83.4314 205.515 83.7467ZM211.961 78.13C211.961 78.8193 211.708 79.3767 211.202 79.802C210.689 80.22 209.989 80.429 209.101 80.429C208.507 80.429 207.998 80.319 207.572 80.099C207.147 79.8717 206.821 79.5783 206.593 79.219C206.359 78.8597 206.241 78.4857 206.241 78.097C206.241 77.7963 206.293 77.536 206.395 77.316C206.498 77.096 206.641 76.898 206.824 76.722V76.678L205.977 76.755H204.118V75.138H211.829V76.458L211.268 76.579V76.612C211.466 76.81 211.631 77.0447 211.763 77.316C211.895 77.58 211.961 77.8513 211.961 78.13ZM210.641 77.712C210.641 77.5287 210.605 77.36 210.531 77.206C210.451 77.0447 210.319 76.8943 210.135 76.755H207.924C207.792 76.9017 207.701 77.052 207.649 77.206C207.591 77.3527 207.561 77.5067 207.561 77.668C207.561 77.866 207.616 78.0493 207.726 78.218C207.836 78.3867 208.005 78.5223 208.232 78.625C208.452 78.7203 208.735 78.768 209.079 78.768C209.615 78.768 210.011 78.6763 210.267 78.493C210.517 78.3097 210.641 78.0493 210.641 77.712ZM211.961 71.8973C211.961 72.5206 211.763 72.9716 211.367 73.2503C210.971 73.5289 210.429 73.6683 209.739 73.6683H206.373V72.0513H209.53C209.897 72.0513 210.165 71.9963 210.333 71.8863C210.502 71.7689 210.586 71.5599 210.586 71.2593C210.586 71.0539 210.542 70.8706 210.454 70.7093C210.366 70.5479 210.201 70.3756 209.959 70.1923H206.373V68.5753H211.829V69.8953L211.048 70.0163V70.0603C211.32 70.3023 211.54 70.5699 211.708 70.8633C211.877 71.1566 211.961 71.5013 211.961 71.8973ZM211.961 65.2906C211.961 65.6572 211.888 65.9762 211.741 66.2476C211.595 66.5116 211.397 66.7169 211.147 66.8636C210.898 67.0102 210.619 67.0836 210.311 67.0836C209.703 67.0836 209.237 66.8086 208.914 66.2586C208.592 65.7012 208.394 64.7772 208.32 63.4866C208.152 63.5086 208.009 63.5636 207.891 63.6516C207.774 63.7396 207.686 63.8679 207.627 64.0366C207.561 64.1979 207.528 64.4032 207.528 64.6526C207.528 64.8286 207.55 65.0046 207.594 65.1806C207.631 65.3566 207.69 65.5399 207.77 65.7306C207.844 65.9139 207.932 66.1082 208.034 66.3136L206.978 66.8856C206.832 66.6362 206.703 66.3759 206.593 66.1046C206.483 65.8259 206.399 65.5399 206.34 65.2466C206.274 64.9459 206.241 64.6416 206.241 64.3336C206.241 63.8202 206.333 63.3802 206.516 63.0136C206.692 62.6469 206.964 62.3646 207.33 62.1666C207.69 61.9686 208.148 61.8696 208.705 61.8696H211.829V63.1896L211.213 63.3106V63.3546C211.419 63.6259 211.595 63.9266 211.741 64.2566C211.888 64.5866 211.961 64.9312 211.961 65.2906ZM210.707 64.7736C210.707 64.5316 210.66 64.3042 210.564 64.0916C210.462 63.8789 210.337 63.6772 210.19 63.4866H209.288C209.318 64.0219 209.373 64.4399 209.453 64.7406C209.534 65.0339 209.637 65.2392 209.761 65.3566C209.886 65.4739 210.029 65.5326 210.19 65.5326C210.3 65.5326 210.396 65.5032 210.476 65.4446C210.557 65.3786 210.616 65.2906 210.652 65.1806C210.689 65.0632 210.707 64.9276 210.707 64.7736ZM211.961 56.8139C211.961 57.4959 211.756 58.0129 211.345 58.3649C210.935 58.7169 210.385 58.8929 209.695 58.8929H205.394V60.5979H204.129V57.2759H209.761C210.099 57.2759 210.333 57.1842 210.465 57.0009C210.59 56.8175 210.652 56.6159 210.652 56.3959C210.652 56.2639 210.638 56.1319 210.608 55.9999C210.579 55.8605 210.535 55.7065 210.476 55.5379L211.664 55.1859C211.752 55.4645 211.822 55.7212 211.873 55.9559C211.932 56.1832 211.961 56.4692 211.961 56.8139Z" fill="#232A3D"/>
<path d="M220.126 88.0787C219.542 88.0787 219.03 87.9267 218.59 87.6227C218.15 87.3107 217.806 86.8587 217.558 86.2667C217.318 85.6747 217.198 84.9507 217.198 84.0947C217.198 82.7907 217.466 81.8107 218.002 81.1547C218.538 80.4987 219.246 80.1707 220.126 80.1707C221.014 80.1707 221.722 80.4987 222.25 81.1547C222.786 81.8107 223.054 82.7907 223.054 84.0947C223.054 84.9507 222.93 85.6747 222.682 86.2667C222.442 86.8587 222.102 87.3107 221.662 87.6227C221.23 87.9267 220.718 88.0787 220.126 88.0787ZM220.126 86.7107C220.382 86.7107 220.61 86.6307 220.81 86.4707C221.018 86.3107 221.182 86.0387 221.302 85.6547C221.422 85.2707 221.482 84.7507 221.482 84.0947C221.482 83.4307 221.422 82.9147 221.302 82.5467C221.182 82.1707 221.018 81.9107 220.81 81.7667C220.61 81.6147 220.382 81.5387 220.126 81.5387C219.878 81.5387 219.65 81.6147 219.442 81.7667C219.234 81.9107 219.07 82.1707 218.95 82.5467C218.83 82.9147 218.77 83.4307 218.77 84.0947C218.77 84.7507 218.83 85.2707 218.95 85.6547C219.07 86.0387 219.234 86.3107 219.442 86.4707C219.65 86.6307 219.878 86.7107 220.126 86.7107ZM220.126 84.9827C219.878 84.9827 219.666 84.8987 219.49 84.7307C219.314 84.5627 219.226 84.3427 219.226 84.0707C219.226 83.7907 219.314 83.5707 219.49 83.4107C219.666 83.2427 219.878 83.1587 220.126 83.1587C220.382 83.1587 220.594 83.2427 220.762 83.4107C220.938 83.5707 221.026 83.7907 221.026 84.0707C221.026 84.3427 220.938 84.5627 220.762 84.7307C220.594 84.8987 220.382 84.9827 220.126 84.9827Z" fill="#7D8FA8"/>
<path d="M284.5 153.211V146.039H287.041C287.562 146.039 288.031 146.112 288.449 146.259C288.874 146.398 289.212 146.637 289.461 146.974C289.718 147.311 289.846 147.77 289.846 148.349C289.846 148.906 289.718 149.365 289.461 149.724C289.204 150.083 288.863 150.351 288.438 150.527C288.013 150.696 287.547 150.78 287.041 150.78H286.117V153.211H284.5ZM286.117 149.493H286.942C287.389 149.493 287.719 149.394 287.932 149.196C288.152 148.998 288.262 148.716 288.262 148.349C288.262 147.968 288.148 147.704 287.921 147.557C287.701 147.403 287.375 147.326 286.942 147.326H286.117V149.493ZM291.547 153.211V147.755H292.867L292.999 148.943H293.032C293.303 148.496 293.629 148.166 294.011 147.953C294.399 147.733 294.81 147.623 295.243 147.623C295.485 147.623 295.679 147.641 295.826 147.678C295.98 147.715 296.137 147.77 296.299 147.843L295.969 149.196C295.8 149.145 295.646 149.108 295.507 149.086C295.375 149.057 295.206 149.042 295.001 149.042C294.663 149.042 294.33 149.141 294 149.339C293.677 149.537 293.398 149.882 293.164 150.373V153.211H291.547ZM300.496 153.343C299.932 153.343 299.418 153.233 298.956 153.013C298.502 152.786 298.139 152.459 297.867 152.034C297.603 151.601 297.471 151.084 297.471 150.483C297.471 149.889 297.607 149.379 297.878 148.954C298.15 148.521 298.502 148.191 298.934 147.964C299.367 147.737 299.825 147.623 300.309 147.623C300.874 147.623 301.347 147.74 301.728 147.975C302.11 148.202 302.396 148.514 302.586 148.91C302.784 149.299 302.883 149.742 302.883 150.241C302.883 150.388 302.872 150.531 302.85 150.67C302.836 150.802 302.821 150.901 302.806 150.967H298.67V149.878H301.717L301.464 150.186C301.464 149.746 301.369 149.416 301.178 149.196C300.995 148.969 300.724 148.855 300.364 148.855C300.1 148.855 299.869 148.914 299.671 149.031C299.473 149.148 299.319 149.328 299.209 149.57C299.099 149.812 299.044 150.116 299.044 150.483C299.044 150.857 299.11 151.165 299.242 151.407C299.374 151.642 299.565 151.818 299.814 151.935C300.064 152.052 300.364 152.111 300.716 152.111C300.966 152.111 301.2 152.078 301.42 152.012C301.648 151.946 301.882 151.851 302.124 151.726L302.663 152.705C302.348 152.903 302 153.061 301.618 153.178C301.237 153.288 300.863 153.343 300.496 153.343ZM306.278 153.343C305.589 153.343 305.031 153.09 304.606 152.584C304.188 152.071 303.979 151.37 303.979 150.483C303.979 149.889 304.089 149.379 304.309 148.954C304.536 148.529 304.83 148.202 305.189 147.975C305.548 147.74 305.922 147.623 306.311 147.623C306.612 147.623 306.872 147.674 307.092 147.777C307.312 147.88 307.51 148.023 307.686 148.206H307.73L307.653 147.359V145.5H309.27V153.211H307.95L307.829 152.65H307.796C307.598 152.848 307.363 153.013 307.092 153.145C306.828 153.277 306.557 153.343 306.278 153.343ZM306.696 152.023C306.879 152.023 307.048 151.986 307.202 151.913C307.363 151.832 307.514 151.7 307.653 151.517V149.306C307.506 149.174 307.356 149.082 307.202 149.031C307.055 148.972 306.901 148.943 306.74 148.943C306.542 148.943 306.359 148.998 306.19 149.108C306.021 149.218 305.886 149.387 305.783 149.614C305.688 149.834 305.64 150.116 305.64 150.461C305.64 150.996 305.732 151.392 305.915 151.649C306.098 151.898 306.359 152.023 306.696 152.023ZM313.116 153.211V149.02H310.916V147.755H314.733V153.211H313.116ZM313.853 146.897C313.545 146.897 313.288 146.809 313.083 146.633C312.877 146.45 312.775 146.211 312.775 145.918C312.775 145.617 312.877 145.375 313.083 145.192C313.288 145.001 313.545 144.906 313.853 144.906C314.168 144.906 314.425 145.001 314.623 145.192C314.828 145.375 314.931 145.617 314.931 145.918C314.931 146.211 314.828 146.45 314.623 146.633C314.425 146.809 314.168 146.897 313.853 146.897ZM320.427 153.343C319.855 153.343 319.338 153.233 318.876 153.013C318.421 152.786 318.058 152.459 317.787 152.034C317.523 151.601 317.391 151.084 317.391 150.483C317.391 149.882 317.537 149.368 317.831 148.943C318.124 148.51 318.509 148.184 318.986 147.964C319.47 147.737 319.99 147.623 320.548 147.623C320.98 147.623 321.373 147.693 321.725 147.832C322.077 147.964 322.366 148.14 322.594 148.36L321.846 149.361C321.633 149.214 321.428 149.108 321.23 149.042C321.039 148.969 320.841 148.932 320.636 148.932C320.328 148.932 320.053 148.994 319.811 149.119C319.569 149.244 319.382 149.423 319.25 149.658C319.118 149.893 319.052 150.168 319.052 150.483C319.052 150.798 319.114 151.073 319.239 151.308C319.371 151.543 319.55 151.722 319.778 151.847C320.012 151.972 320.28 152.034 320.581 152.034C320.867 152.034 321.127 151.983 321.362 151.88C321.604 151.777 321.824 151.656 322.022 151.517L322.671 152.54C322.348 152.811 321.985 153.013 321.582 153.145C321.186 153.277 320.801 153.343 320.427 153.343ZM327.517 153.343C326.938 153.343 326.476 153.244 326.131 153.046C325.794 152.841 325.548 152.558 325.394 152.199C325.24 151.84 325.163 151.422 325.163 150.945V149.02H323.799V147.821L325.24 147.755L325.449 146.083H326.78V147.755H329.09V149.02H326.78V150.934C326.78 151.205 326.821 151.425 326.901 151.594C326.982 151.763 327.107 151.887 327.275 151.968C327.444 152.041 327.66 152.078 327.924 152.078C328.137 152.078 328.331 152.06 328.507 152.023C328.683 151.986 328.852 151.939 329.013 151.88L329.299 153.046C329.057 153.119 328.79 153.185 328.496 153.244C328.21 153.31 327.884 153.343 327.517 153.343ZM332.903 153.211V149.02H330.703V147.755H334.52V153.211H332.903ZM333.64 146.897C333.332 146.897 333.075 146.809 332.87 146.633C332.665 146.45 332.562 146.211 332.562 145.918C332.562 145.617 332.665 145.375 332.87 145.192C333.075 145.001 333.332 144.906 333.64 144.906C333.955 144.906 334.212 145.001 334.41 145.192C334.615 145.375 334.718 145.617 334.718 145.918C334.718 146.211 334.615 146.45 334.41 146.633C334.212 146.809 333.955 146.897 333.64 146.897ZM339.741 153.343C339.264 153.343 338.813 153.233 338.388 153.013C337.962 152.786 337.618 152.459 337.354 152.034C337.09 151.601 336.958 151.084 336.958 150.483C336.958 149.882 337.09 149.368 337.354 148.943C337.618 148.51 337.962 148.184 338.388 147.964C338.813 147.737 339.264 147.623 339.741 147.623C340.217 147.623 340.668 147.737 341.094 147.964C341.519 148.184 341.864 148.51 342.128 148.943C342.392 149.368 342.524 149.882 342.524 150.483C342.524 151.084 342.392 151.601 342.128 152.034C341.864 152.459 341.519 152.786 341.094 153.013C340.668 153.233 340.217 153.343 339.741 153.343ZM339.741 152.034C339.99 152.034 340.195 151.972 340.357 151.847C340.525 151.722 340.65 151.543 340.731 151.308C340.819 151.073 340.863 150.798 340.863 150.483C340.863 150.168 340.819 149.893 340.731 149.658C340.65 149.423 340.525 149.244 340.357 149.119C340.195 148.994 339.99 148.932 339.741 148.932C339.491 148.932 339.282 148.994 339.114 149.119C338.952 149.244 338.828 149.423 338.74 149.658C338.659 149.893 338.619 150.168 338.619 150.483C338.619 150.798 338.659 151.073 338.74 151.308C338.828 151.543 338.952 151.722 339.114 151.847C339.282 151.972 339.491 152.034 339.741 152.034ZM343.828 153.211V147.755H345.148L345.269 148.481H345.313C345.548 148.246 345.816 148.045 346.116 147.876C346.424 147.707 346.784 147.623 347.194 147.623C347.81 147.623 348.261 147.821 348.547 148.217C348.833 148.613 348.976 149.156 348.976 149.845V153.211H347.359V150.054C347.359 149.687 347.297 149.42 347.172 149.251C347.055 149.082 346.85 148.998 346.556 148.998C346.336 148.998 346.142 149.049 345.973 149.152C345.812 149.247 345.636 149.387 345.445 149.57V153.211H343.828Z" fill="#232A3D"/>
<path d="M424.076 34.0759V135.235H595" stroke="#232A3D" stroke-width="3" stroke-linecap="round"/>
<path d="M427.565 82.0391L587.965 82.0391" stroke="#BAC4D1" stroke-width="2" stroke-dasharray="4 4"/>
<path d="M500.818 87.2715C500.818 85.8266 499.646 84.6553 498.202 84.6553C496.757 84.6553 495.585 85.8266 495.585 87.2715C495.585 88.7164 496.757 89.8877 498.202 89.8877C499.646 89.8877 500.818 88.7164 500.818 87.2715Z" fill="#9B51E0"/>
<path d="M542.677 58.4936C542.677 57.0487 541.505 55.8774 540.06 55.8774C538.615 55.8774 537.444 57.0487 537.444 58.4936C537.444 59.9384 538.615 61.1097 540.06 61.1097C541.505 61.1097 542.677 59.9384 542.677 58.4936Z" fill="#9B51E0"/>
<path d="M463.319 82.0392C463.319 80.5943 462.148 79.423 460.703 79.423C459.258 79.423 458.087 80.5943 458.087 82.0392C458.087 83.484 459.258 84.6553 460.703 84.6553C462.148 84.6553 463.319 83.484 463.319 82.0392Z" fill="#9B51E0"/>
<path d="M535.7 53.2612C535.7 51.8163 534.529 50.645 533.084 50.645C531.639 50.645 530.468 51.8163 530.468 53.2612C530.468 54.706 531.639 55.8773 533.084 55.8773C534.529 55.8773 535.7 54.706 535.7 53.2612Z" fill="#9B51E0"/>
<path d="M460.703 66.3421C460.703 64.8972 459.532 63.7259 458.087 63.7259C456.642 63.7259 455.471 64.8972 455.471 66.3421C455.471 67.787 456.642 68.9583 458.087 68.9583C459.532 68.9583 460.703 67.787 460.703 66.3421Z" fill="#9B51E0"/>
<path d="M524.363 78.5509C524.363 77.1061 523.192 75.9348 521.747 75.9348C520.302 75.9348 519.131 77.1061 519.131 78.5509C519.131 79.9958 520.302 81.1671 521.747 81.1671C523.192 81.1671 524.363 79.9958 524.363 78.5509Z" fill="#9B51E0"/>
<path d="M535.7 70.7024C535.7 69.2575 534.529 68.0862 533.084 68.0862C531.639 68.0862 530.468 69.2575 530.468 70.7024C530.468 72.1472 531.639 73.3185 533.084 73.3185C534.529 73.3185 535.7 72.1472 535.7 70.7024Z" fill="#9B51E0"/>
<path d="M557.501 50.645C557.501 49.2001 556.33 48.0288 554.885 48.0288C553.44 48.0288 552.269 49.2001 552.269 50.645C552.269 52.0899 553.44 53.2612 554.885 53.2612C556.33 53.2612 557.501 52.0899 557.501 50.645Z" fill="#9B51E0"/>
<path d="M552.269 39.3083C552.269 37.8634 551.098 36.6921 549.653 36.6921C548.208 36.6921 547.037 37.8634 547.037 39.3083C547.037 40.7531 548.208 41.9244 549.653 41.9244C551.098 41.9244 552.269 40.7531 552.269 39.3083Z" fill="#9B51E0"/>
<path d="M568.838 34.948C568.838 33.5031 567.667 32.3318 566.222 32.3318C564.777 32.3318 563.606 33.5031 563.606 34.948C563.606 36.3928 564.777 37.5641 566.222 37.5641C567.667 37.5641 568.838 36.3928 568.838 34.948Z" fill="#9B51E0"/>
<path d="M526.107 60.2377C526.107 58.7928 524.936 57.6215 523.491 57.6215C522.046 57.6215 520.875 58.7928 520.875 60.2377C520.875 61.6825 522.046 62.8538 523.491 62.8538C524.936 62.8538 526.107 61.6825 526.107 60.2377Z" fill="#9B51E0"/>
<path d="M483.376 75.9347C483.376 74.4898 482.205 73.3185 480.76 73.3185C479.315 73.3185 478.144 74.4898 478.144 75.9347C478.144 77.3796 479.315 78.5509 480.76 78.5509C482.205 78.5509 483.376 77.3796 483.376 75.9347Z" fill="#9B51E0"/>
<path d="M485.993 89.8877C485.993 88.4428 484.821 87.2715 483.376 87.2715C481.932 87.2715 480.76 88.4428 480.76 89.8877C480.76 91.3325 481.932 92.5038 483.376 92.5038C484.821 92.5038 485.993 91.3325 485.993 89.8877Z" fill="#9B51E0"/>
<path d="M440.646 89.8877C440.646 88.4428 439.474 87.2715 438.029 87.2715C436.585 87.2715 435.413 88.4428 435.413 89.8877C435.413 91.3325 436.585 92.5038 438.029 92.5038C439.474 92.5038 440.646 91.3325 440.646 89.8877Z" fill="#9B51E0"/>
<path d="M506.05 74.1906C506.05 72.7457 504.879 71.5744 503.434 71.5744C501.989 71.5744 500.818 72.7457 500.818 74.1906C500.818 75.6355 501.989 76.8068 503.434 76.8068C504.879 76.8068 506.05 75.6355 506.05 74.1906Z" fill="#9B51E0"/>
<path d="M470.296 95.12C470.296 93.6751 469.124 92.5038 467.679 92.5038C466.235 92.5038 465.063 93.6751 465.063 95.12C465.063 96.5649 466.235 97.7362 467.679 97.7362C469.124 97.7362 470.296 96.5649 470.296 95.12Z" fill="#9B51E0"/>
<path d="M450.238 75.9347C450.238 74.4898 449.067 73.3185 447.622 73.3185C446.177 73.3185 445.006 74.4898 445.006 75.9347C445.006 77.3796 446.177 78.5509 447.622 78.5509C449.067 78.5509 450.238 77.3796 450.238 75.9347Z" fill="#9B51E0"/>
<path d="M452.854 97.7362C452.854 96.2914 451.683 95.1201 450.238 95.1201C448.793 95.1201 447.622 96.2914 447.622 97.7362C447.622 99.1811 448.793 100.352 450.238 100.352C451.683 100.352 452.854 99.1811 452.854 97.7362Z" fill="#9B51E0"/>
<path d="M408.915 106.559H401.743V104.018C401.743 103.512 401.812 103.05 401.952 102.632C402.084 102.214 402.315 101.88 402.645 101.631C402.967 101.374 403.411 101.246 403.976 101.246C404.526 101.246 404.973 101.374 405.318 101.631C405.662 101.88 405.919 102.214 406.088 102.632C406.249 103.05 406.33 103.512 406.33 104.018V104.942H408.915V106.559ZM405.043 104.942V104.15C405.043 103.724 404.955 103.402 404.779 103.182C404.595 102.954 404.328 102.841 403.976 102.841C403.624 102.841 403.378 102.954 403.239 103.182C403.099 103.402 403.03 103.724 403.03 104.15V104.942H405.043ZM405.912 104.315L404.867 103.193L408.915 100.905V102.72L405.912 104.315ZM409.047 97.1031C409.047 97.6678 408.937 98.1811 408.717 98.6431C408.489 99.0978 408.163 99.4608 407.738 99.7321C407.305 99.9961 406.788 100.128 406.187 100.128C405.593 100.128 405.083 99.9925 404.658 99.7211C404.225 99.4498 403.895 99.0978 403.668 98.6651C403.44 98.2325 403.327 97.7741 403.327 97.2901C403.327 96.7255 403.444 96.2525 403.679 95.8711C403.906 95.4898 404.218 95.2038 404.614 95.0131C405.002 94.8151 405.446 94.7161 405.945 94.7161C406.091 94.7161 406.234 94.7271 406.374 94.7491C406.506 94.7638 406.605 94.7785 406.671 94.7931V98.9291H405.582V95.8821L405.89 96.1351C405.45 96.1351 405.12 96.2305 404.9 96.4211C404.672 96.6045 404.559 96.8758 404.559 97.2351C404.559 97.4991 404.617 97.7301 404.735 97.9281C404.852 98.1261 405.032 98.2801 405.274 98.3901C405.516 98.5001 405.82 98.5551 406.187 98.5551C406.561 98.5551 406.869 98.4891 407.111 98.3571C407.345 98.2251 407.521 98.0345 407.639 97.7851C407.756 97.5358 407.815 97.2351 407.815 96.8831C407.815 96.6338 407.782 96.3991 407.716 96.1791C407.65 95.9518 407.554 95.7171 407.43 95.4751L408.409 94.9361C408.607 95.2515 408.764 95.5998 408.882 95.9811C408.992 96.3625 409.047 96.7365 409.047 97.1031ZM409.047 90.8814C409.047 91.3654 408.966 91.8458 408.805 92.3224C408.636 92.7991 408.438 93.2098 408.211 93.5544L407.199 92.8614C407.411 92.5314 407.573 92.1831 407.683 91.8164C407.793 91.4424 407.848 91.0574 407.848 90.6614C407.848 90.3608 407.804 90.1408 407.716 90.0014C407.62 89.8621 407.51 89.7924 407.386 89.7924C407.305 89.7924 407.239 89.8144 407.188 89.8584C407.129 89.8951 407.078 89.9648 407.034 90.0674C406.982 90.1628 406.935 90.2984 406.891 90.4744C406.847 90.6431 406.795 90.8631 406.737 91.1344C406.575 91.8751 406.355 92.4068 406.077 92.7294C405.798 93.0521 405.45 93.2134 405.032 93.2134C404.518 93.2134 404.108 92.9898 403.8 92.5424C403.484 92.0951 403.327 91.4828 403.327 90.7054C403.327 90.2141 403.407 89.7704 403.569 89.3744C403.723 88.9711 403.891 88.6264 404.075 88.3404L405.043 89.0664C404.874 89.3378 404.746 89.6274 404.658 89.9354C404.57 90.2434 404.526 90.5478 404.526 90.8484C404.526 91.0171 404.544 91.1564 404.581 91.2664C404.61 91.3764 404.661 91.4608 404.735 91.5194C404.801 91.5781 404.874 91.6074 404.955 91.6074C405.101 91.6074 405.211 91.5121 405.285 91.3214C405.351 91.1308 405.435 90.8044 405.538 90.3424C405.662 89.7851 405.805 89.3488 405.967 89.0334C406.128 88.7181 406.315 88.5018 406.528 88.3844C406.733 88.2598 406.986 88.1974 407.287 88.1974C407.617 88.1974 407.914 88.3001 408.178 88.5054C408.442 88.7034 408.654 89.0041 408.816 89.4074C408.97 89.8034 409.047 90.2948 409.047 90.8814ZM408.915 84.4837H404.724V86.6837H403.459V82.8667H408.915V84.4837ZM402.601 83.7467C402.601 84.0547 402.513 84.3114 402.337 84.5167C402.153 84.7221 401.915 84.8247 401.622 84.8247C401.321 84.8247 401.079 84.7221 400.896 84.5167C400.705 84.3114 400.61 84.0547 400.61 83.7467C400.61 83.4314 400.705 83.1747 400.896 82.9767C401.079 82.7714 401.321 82.6687 401.622 82.6687C401.915 82.6687 402.153 82.7714 402.337 82.9767C402.513 83.1747 402.601 83.4314 402.601 83.7467ZM409.047 78.13C409.047 78.8193 408.794 79.3767 408.288 79.802C407.774 80.22 407.074 80.429 406.187 80.429C405.593 80.429 405.083 80.319 404.658 80.099C404.232 79.8717 403.906 79.5783 403.679 79.219C403.444 78.8597 403.327 78.4857 403.327 78.097C403.327 77.7963 403.378 77.536 403.481 77.316C403.583 77.096 403.726 76.898 403.91 76.722V76.678L403.063 76.755H401.204V75.138H408.915V76.458L408.354 76.579V76.612C408.552 76.81 408.717 77.0447 408.849 77.316C408.981 77.58 409.047 77.8513 409.047 78.13ZM407.727 77.712C407.727 77.5287 407.69 77.36 407.617 77.206C407.536 77.0447 407.404 76.8943 407.221 76.755H405.01C404.878 76.9017 404.786 77.052 404.735 77.206C404.676 77.3527 404.647 77.5067 404.647 77.668C404.647 77.866 404.702 78.0493 404.812 78.218C404.922 78.3867 405.09 78.5223 405.318 78.625C405.538 78.7203 405.82 78.768 406.165 78.768C406.7 78.768 407.096 78.6763 407.353 78.493C407.602 78.3097 407.727 78.0493 407.727 77.712ZM409.047 71.8973C409.047 72.5206 408.849 72.9716 408.453 73.2503C408.057 73.529 407.514 73.6683 406.825 73.6683H403.459V72.0513H406.616C406.982 72.0513 407.25 71.9963 407.419 71.8863C407.587 71.769 407.672 71.56 407.672 71.2593C407.672 71.054 407.628 70.8706 407.54 70.7093C407.452 70.548 407.287 70.3756 407.045 70.1923H403.459V68.5753H408.915V69.8953L408.134 70.0163V70.0603C408.405 70.3023 408.625 70.57 408.794 70.8633C408.962 71.1566 409.047 71.5013 409.047 71.8973ZM409.047 65.2906C409.047 65.6573 408.973 65.9763 408.827 66.2476C408.68 66.5116 408.482 66.7169 408.233 66.8636C407.983 67.0103 407.705 67.0836 407.397 67.0836C406.788 67.0836 406.322 66.8086 406 66.2586C405.677 65.7013 405.479 64.7773 405.406 63.4866C405.237 63.5086 405.094 63.5636 404.977 63.6516C404.859 63.7396 404.771 63.8679 404.713 64.0366C404.647 64.1979 404.614 64.4033 404.614 64.6526C404.614 64.8286 404.636 65.0046 404.68 65.1806C404.716 65.3566 404.775 65.5399 404.856 65.7306C404.929 65.9139 405.017 66.1083 405.12 66.3136L404.064 66.8856C403.917 66.6363 403.789 66.3759 403.679 66.1046C403.569 65.8259 403.484 65.5399 403.426 65.2466C403.36 64.9459 403.327 64.6416 403.327 64.3336C403.327 63.8203 403.418 63.3803 403.602 63.0136C403.778 62.6469 404.049 62.3646 404.416 62.1666C404.775 61.9686 405.233 61.8696 405.791 61.8696H408.915V63.1896L408.299 63.3106V63.3546C408.504 63.6259 408.68 63.9266 408.827 64.2566C408.973 64.5866 409.047 64.9313 409.047 65.2906ZM407.793 64.7736C407.793 64.5316 407.745 64.3043 407.65 64.0916C407.547 63.8789 407.422 63.6773 407.276 63.4866H406.374C406.403 64.0219 406.458 64.4399 406.539 64.7406C406.619 65.0339 406.722 65.2393 406.847 65.3566C406.971 65.4739 407.114 65.5326 407.276 65.5326C407.386 65.5326 407.481 65.5033 407.562 65.4446C407.642 65.3786 407.701 65.2906 407.738 65.1806C407.774 65.0633 407.793 64.9276 407.793 64.7736ZM409.047 56.8139C409.047 57.4959 408.841 58.0129 408.431 58.3649C408.02 58.7169 407.47 58.8929 406.781 58.8929H402.48V60.5979H401.215V57.2759H406.847C407.184 57.2759 407.419 57.1842 407.551 57.0009C407.675 56.8176 407.738 56.6159 407.738 56.3959C407.738 56.2639 407.723 56.1319 407.694 55.9999C407.664 55.8606 407.62 55.7066 407.562 55.5379L408.75 55.1859C408.838 55.4646 408.907 55.7212 408.959 55.9559C409.017 56.1832 409.047 56.4692 409.047 56.8139Z" fill="#232A3D"/>
<path d="M417.212 88.0788C416.628 88.0788 416.116 87.9268 415.676 87.6228C415.236 87.3108 414.892 86.8588 414.644 86.2668C414.404 85.6748 414.284 84.9508 414.284 84.0948C414.284 82.7908 414.552 81.8108 415.088 81.1548C415.624 80.4988 416.332 80.1708 417.212 80.1708C418.1 80.1708 418.808 80.4988 419.336 81.1548C419.872 81.8108 420.14 82.7908 420.14 84.0948C420.14 84.9508 420.016 85.6748 419.768 86.2668C419.528 86.8588 419.188 87.3108 418.748 87.6228C418.316 87.9268 417.804 88.0788 417.212 88.0788ZM417.212 86.7108C417.468 86.7108 417.696 86.6308 417.896 86.4708C418.104 86.3108 418.268 86.0388 418.388 85.6548C418.508 85.2708 418.568 84.7508 418.568 84.0948C418.568 83.4308 418.508 82.9148 418.388 82.5468C418.268 82.1708 418.104 81.9108 417.896 81.7668C417.696 81.6148 417.468 81.5388 417.212 81.5388C416.964 81.5388 416.736 81.6148 416.528 81.7668C416.32 81.9108 416.156 82.1708 416.036 82.5468C415.916 82.9148 415.856 83.4308 415.856 84.0948C415.856 84.7508 415.916 85.2708 416.036 85.6548C416.156 86.0388 416.32 86.3108 416.528 86.4708C416.736 86.6308 416.964 86.7108 417.212 86.7108ZM417.212 84.9828C416.964 84.9828 416.752 84.8988 416.576 84.7308C416.4 84.5628 416.312 84.3428 416.312 84.0708C416.312 83.7908 416.4 83.5708 416.576 83.4108C416.752 83.2428 416.964 83.1588 417.212 83.1588C417.468 83.1588 417.68 83.2428 417.848 83.4108C418.024 83.5708 418.112 83.7908 418.112 84.0708C418.112 84.3428 418.024 84.5628 417.848 84.7308C417.68 84.8988 417.468 84.9828 417.212 84.9828Z" fill="#7D8FA8"/>
<path d="M481.585 153.211V146.039H484.126C484.647 146.039 485.116 146.113 485.534 146.259C485.96 146.399 486.297 146.637 486.546 146.974C486.803 147.312 486.931 147.77 486.931 148.349C486.931 148.907 486.803 149.365 486.546 149.724C486.29 150.084 485.949 150.351 485.523 150.527C485.098 150.696 484.632 150.78 484.126 150.78H483.202V153.211H481.585ZM483.202 149.493H484.027C484.475 149.493 484.805 149.394 485.017 149.196C485.237 148.998 485.347 148.716 485.347 148.349C485.347 147.968 485.234 147.704 485.006 147.557C484.786 147.403 484.46 147.326 484.027 147.326H483.202V149.493ZM488.632 153.211V147.755H489.952L490.084 148.943H490.117C490.388 148.496 490.715 148.166 491.096 147.953C491.485 147.733 491.895 147.623 492.328 147.623C492.57 147.623 492.764 147.642 492.911 147.678C493.065 147.715 493.223 147.77 493.384 147.843L493.054 149.196C492.885 149.145 492.731 149.108 492.592 149.086C492.46 149.057 492.291 149.042 492.086 149.042C491.749 149.042 491.415 149.141 491.085 149.339C490.762 149.537 490.484 149.882 490.249 150.373V153.211H488.632ZM497.582 153.343C497.017 153.343 496.504 153.233 496.042 153.013C495.587 152.786 495.224 152.46 494.953 152.034C494.689 151.602 494.557 151.085 494.557 150.483C494.557 149.889 494.692 149.38 494.964 148.954C495.235 148.522 495.587 148.192 496.02 147.964C496.452 147.737 496.911 147.623 497.395 147.623C497.959 147.623 498.432 147.741 498.814 147.975C499.195 148.203 499.481 148.514 499.672 148.91C499.87 149.299 499.969 149.743 499.969 150.241C499.969 150.388 499.958 150.531 499.936 150.67C499.921 150.802 499.906 150.901 499.892 150.967H495.756V149.878H498.803L498.55 150.186C498.55 149.746 498.454 149.416 498.264 149.196C498.08 148.969 497.809 148.855 497.45 148.855C497.186 148.855 496.955 148.914 496.757 149.031C496.559 149.149 496.405 149.328 496.295 149.57C496.185 149.812 496.13 150.117 496.13 150.483C496.13 150.857 496.196 151.165 496.328 151.407C496.46 151.642 496.65 151.818 496.9 151.935C497.149 152.053 497.45 152.111 497.802 152.111C498.051 152.111 498.286 152.078 498.506 152.012C498.733 151.946 498.968 151.851 499.21 151.726L499.749 152.705C499.433 152.903 499.085 153.061 498.704 153.178C498.322 153.288 497.948 153.343 497.582 153.343ZM503.363 153.343C502.674 153.343 502.117 153.09 501.691 152.584C501.273 152.071 501.064 151.371 501.064 150.483C501.064 149.889 501.174 149.38 501.394 148.954C501.622 148.529 501.915 148.203 502.274 147.975C502.634 147.741 503.008 147.623 503.396 147.623C503.697 147.623 503.957 147.675 504.177 147.777C504.397 147.88 504.595 148.023 504.771 148.206H504.815L504.738 147.359V145.5H506.355V153.211H505.035L504.914 152.65H504.881C504.683 152.848 504.449 153.013 504.177 153.145C503.913 153.277 503.642 153.343 503.363 153.343ZM503.781 152.023C503.965 152.023 504.133 151.987 504.287 151.913C504.449 151.833 504.599 151.701 504.738 151.517V149.306C504.592 149.174 504.441 149.083 504.287 149.031C504.141 148.973 503.987 148.943 503.825 148.943C503.627 148.943 503.444 148.998 503.275 149.108C503.107 149.218 502.971 149.387 502.868 149.614C502.773 149.834 502.725 150.117 502.725 150.461C502.725 150.997 502.817 151.393 503 151.649C503.184 151.899 503.444 152.023 503.781 152.023ZM510.201 153.211V149.02H508.001V147.755H511.818V153.211H510.201ZM510.938 146.897C510.63 146.897 510.373 146.809 510.168 146.633C509.963 146.45 509.86 146.212 509.86 145.918C509.86 145.618 509.963 145.376 510.168 145.192C510.373 145.002 510.63 144.906 510.938 144.906C511.253 144.906 511.51 145.002 511.708 145.192C511.913 145.376 512.016 145.618 512.016 145.918C512.016 146.212 511.913 146.45 511.708 146.633C511.51 146.809 511.253 146.897 510.938 146.897ZM517.512 153.343C516.94 153.343 516.423 153.233 515.961 153.013C515.506 152.786 515.143 152.46 514.872 152.034C514.608 151.602 514.476 151.085 514.476 150.483C514.476 149.882 514.622 149.369 514.916 148.943C515.209 148.511 515.594 148.184 516.071 147.964C516.555 147.737 517.075 147.623 517.633 147.623C518.065 147.623 518.458 147.693 518.81 147.832C519.162 147.964 519.451 148.14 519.679 148.36L518.931 149.361C518.718 149.215 518.513 149.108 518.315 149.042C518.124 148.969 517.926 148.932 517.721 148.932C517.413 148.932 517.138 148.995 516.896 149.119C516.654 149.244 516.467 149.424 516.335 149.658C516.203 149.893 516.137 150.168 516.137 150.483C516.137 150.799 516.199 151.074 516.324 151.308C516.456 151.543 516.635 151.723 516.863 151.847C517.097 151.972 517.365 152.034 517.666 152.034C517.952 152.034 518.212 151.983 518.447 151.88C518.689 151.778 518.909 151.657 519.107 151.517L519.756 152.54C519.433 152.812 519.07 153.013 518.667 153.145C518.271 153.277 517.886 153.343 517.512 153.343ZM524.603 153.343C524.023 153.343 523.561 153.244 523.217 153.046C522.879 152.841 522.634 152.559 522.48 152.199C522.326 151.84 522.249 151.422 522.249 150.945V149.02H520.885V147.821L522.326 147.755L522.535 146.083H523.866V147.755H526.176V149.02H523.866V150.934C523.866 151.206 523.906 151.426 523.987 151.594C524.067 151.763 524.192 151.888 524.361 151.968C524.529 152.042 524.746 152.078 525.01 152.078C525.222 152.078 525.417 152.06 525.593 152.023C525.769 151.987 525.937 151.939 526.099 151.88L526.385 153.046C526.143 153.12 525.875 153.186 525.582 153.244C525.296 153.31 524.969 153.343 524.603 153.343ZM529.988 153.211V149.02H527.788V147.755H531.605V153.211H529.988ZM530.725 146.897C530.417 146.897 530.161 146.809 529.955 146.633C529.75 146.45 529.647 146.212 529.647 145.918C529.647 145.618 529.75 145.376 529.955 145.192C530.161 145.002 530.417 144.906 530.725 144.906C531.041 144.906 531.297 145.002 531.495 145.192C531.701 145.376 531.803 145.618 531.803 145.918C531.803 146.212 531.701 146.45 531.495 146.633C531.297 146.809 531.041 146.897 530.725 146.897ZM536.826 153.343C536.349 153.343 535.898 153.233 535.473 153.013C535.048 152.786 534.703 152.46 534.439 152.034C534.175 151.602 534.043 151.085 534.043 150.483C534.043 149.882 534.175 149.369 534.439 148.943C534.703 148.511 535.048 148.184 535.473 147.964C535.898 147.737 536.349 147.623 536.826 147.623C537.303 147.623 537.754 147.737 538.179 147.964C538.604 148.184 538.949 148.511 539.213 148.943C539.477 149.369 539.609 149.882 539.609 150.483C539.609 151.085 539.477 151.602 539.213 152.034C538.949 152.46 538.604 152.786 538.179 153.013C537.754 153.233 537.303 153.343 536.826 153.343ZM536.826 152.034C537.075 152.034 537.281 151.972 537.442 151.847C537.611 151.723 537.735 151.543 537.816 151.308C537.904 151.074 537.948 150.799 537.948 150.483C537.948 150.168 537.904 149.893 537.816 149.658C537.735 149.424 537.611 149.244 537.442 149.119C537.281 148.995 537.075 148.932 536.826 148.932C536.577 148.932 536.368 148.995 536.199 149.119C536.038 149.244 535.913 149.424 535.825 149.658C535.744 149.893 535.704 150.168 535.704 150.483C535.704 150.799 535.744 151.074 535.825 151.308C535.913 151.543 536.038 151.723 536.199 151.847C536.368 151.972 536.577 152.034 536.826 152.034ZM540.914 153.211V147.755H542.234L542.355 148.481H542.399C542.633 148.247 542.901 148.045 543.202 147.876C543.51 147.708 543.869 147.623 544.28 147.623C544.896 147.623 545.347 147.821 545.633 148.217C545.919 148.613 546.062 149.156 546.062 149.845V153.211H544.445V150.054C544.445 149.688 544.382 149.42 544.258 149.251C544.14 149.083 543.935 148.998 543.642 148.998C543.422 148.998 543.227 149.05 543.059 149.152C542.897 149.248 542.721 149.387 542.531 149.57V153.211H540.914Z" fill="#232A3D"/>
</svg>
